<?xml version="1.0" encoding="UTF-8" standalone="no"?>
<svg
   xmlns:dc="http://purl.org/dc/elements/1.1/"
   xmlns:cc="http://creativecommons.org/ns#"
   xmlns:rdf="http://www.w3.org/1999/02/22-rdf-syntax-ns#"
   xmlns:svg="http://www.w3.org/2000/svg"
   xmlns="http://www.w3.org/2000/svg"
   xmlns:sodipodi="http://sodipodi.sourceforge.net/DTD/sodipodi-0.dtd"
   xmlns:inkscape="http://www.inkscape.org/namespaces/inkscape"
   width="210mm"
   height="297mm"
   viewBox="0 0 210 297"
   version="1.1"
   id="svg8"
   inkscape:version="1.0.1 (3bc2e813f5, 2020-09-07)"
   sodipodi:docname="guileless_bopomofo_keyboard.svg">
  <title
     id="title116">Guileless Bopomofo Keyboard</title>
  <defs
     id="defs2">
    <rect
       x="-70.418335"
       y="-94.847639"
       width="89.834994"
       height="12.120326"
       id="rect98" />
  </defs>
  <sodipodi:namedview
     id="base"
     pagecolor="#ffffff"
     bordercolor="#666666"
     borderopacity="1.0"
     inkscape:pageopacity="0.0"
     inkscape:pageshadow="2"
     inkscape:zoom="1.0074671"
     inkscape:cx="391.24008"
     inkscape:cy="-97.821338"
     inkscape:document-units="mm"
     inkscape:current-layer="layer1"
     inkscape:document-rotation="0"
     showgrid="true"
     inkscape:snap-perpendicular="false"
     inkscape:snap-tangential="false"
     guidetolerance="20"
     inkscape:snap-path-clip="false"
     inkscape:snap-path-mask="false"
     inkscape:snap-bbox="false"
     inkscape:snap-bbox-midpoints="false"
     inkscape:bbox-paths="false"
     inkscape:bbox-nodes="false"
     inkscape:window-width="1920"
     inkscape:window-height="1017"
     inkscape:window-x="0"
     inkscape:window-y="0"
     inkscape:window-maximized="1"
     inkscape:snap-object-midpoints="false"
     inkscape:snap-text-baseline="false"
     inkscape:pagecheckerboard="true"
     inkscape:lockguides="false" />
  <metadata
     id="metadata5">
    <rdf:RDF>
      <cc:Work
         rdf:about="">
        <dc:format>image/svg+xml</dc:format>
        <dc:type
           rdf:resource="http://purl.org/dc/dcmitype/StillImage" />
        <dc:title>Guileless Bopomofo Keyboard</dc:title>
        <cc:license
           rdf:resource="http://creativecommons.org/licenses/by-nd/4.0/" />
        <dc:creator>
          <cc:Agent>
            <dc:title>YOU, HUI-HONG</dc:title>
          </cc:Agent>
        </dc:creator>
      </cc:Work>
      <cc:License
         rdf:about="http://creativecommons.org/licenses/by-nd/4.0/">
        <cc:permits
           rdf:resource="http://creativecommons.org/ns#Reproduction" />
        <cc:permits
           rdf:resource="http://creativecommons.org/ns#Distribution" />
        <cc:requires
           rdf:resource="http://creativecommons.org/ns#Notice" />
        <cc:requires
           rdf:resource="http://creativecommons.org/ns#Attribution" />
      </cc:License>
    </rdf:RDF>
  </metadata>
  <g
     inkscape:label="Keycaps"
     inkscape:groupmode="layer"
     id="layer1">
    <rect
       style="fill:#e6e6e6;fill-opacity:0.6;stroke-width:0.0833395"
       id="rect233-7"
       width="29.229391"
       height="29.229391"
       x="130.63194"
       y="4.9051642" />
    <rect
       style="fill:#e6e6e6;fill-opacity:0.6;stroke-width:0.0833395"
       id="rect233-5"
       width="29.229391"
       height="29.229391"
       x="171.14835"
       y="4.9051642" />
    <rect
       style="fill:#e6e6e6;fill-opacity:0.6;stroke-width:0.0833395"
       id="rect233-56"
       width="29.229391"
       height="29.229391"
       x="9.0827417"
       y="41.756634" />
    <rect
       style="fill:#e6e6e6;fill-opacity:0.6;stroke-width:0.0833395"
       id="rect233-3-2"
       width="29.229391"
       height="29.229391"
       x="90.115547"
       y="41.756634" />
    <rect
       style="fill:#e6e6e6;fill-opacity:0.6;stroke-width:0.0833395"
       id="rect233-6-9"
       width="29.229391"
       height="29.229391"
       x="49.599148"
       y="41.756634" />
    <rect
       style="fill:#e6e6e6;fill-opacity:0.6;stroke-width:0.0833395"
       id="rect233-7-1"
       width="29.229391"
       height="29.229391"
       x="130.63194"
       y="41.756634" />
    <rect
       style="fill:#e6e6e6;fill-opacity:0.6;stroke-width:0.0833395"
       id="rect233-5-2"
       width="29.229391"
       height="29.229391"
       x="171.14835"
       y="41.756634" />
    <rect
       style="fill:#e6e6e6;fill-opacity:0.6;stroke-width:0.0833395"
       id="rect233-0"
       width="29.229391"
       height="29.229391"
       x="9.0827417"
       y="78.608101" />
    <rect
       style="fill:#e6e6e6;fill-opacity:0.6;stroke-width:0.0833395"
       id="rect233-3-9"
       width="29.229391"
       height="29.229391"
       x="90.115547"
       y="78.608101" />
    <rect
       style="fill:#e6e6e6;fill-opacity:0.6;stroke-width:0.0833395"
       id="rect233-6-3"
       width="29.229391"
       height="29.229391"
       x="49.599148"
       y="78.608101" />
    <rect
       style="fill:#e6e6e6;fill-opacity:0.6;stroke-width:0.0833395"
       id="rect233-7-6"
       width="29.229391"
       height="29.229391"
       x="130.63194"
       y="78.608101" />
    <rect
       style="fill:#e6e6e6;fill-opacity:0.6;stroke-width:0.0833395"
       id="rect233-5-0"
       width="29.229391"
       height="29.229391"
       x="171.14835"
       y="78.608101" />
    <rect
       style="fill:#e6e6e6;fill-opacity:0.6;stroke-width:0.0833395"
       id="rect233-2"
       width="29.229391"
       height="29.229391"
       x="9.0827417"
       y="115.45957" />
    <rect
       style="fill:#e6e6e6;fill-opacity:0.6;stroke-width:0.0833395"
       id="rect233-3-6"
       width="29.229391"
       height="29.229391"
       x="90.115547"
       y="115.45957" />
    <rect
       style="fill:#e6e6e6;fill-opacity:0.6;stroke-width:0.0833395"
       id="rect233-6-1"
       width="29.229391"
       height="29.229391"
       x="49.599148"
       y="115.45957" />
    <rect
       style="fill:#e6e6e6;fill-opacity:0.6;stroke-width:0.0833395"
       id="rect233-7-8"
       width="29.229391"
       height="29.229391"
       x="130.63194"
       y="115.45957" />
    <rect
       style="fill:#e6e6e6;fill-opacity:0.6;stroke-width:0.0833395"
       id="rect233-5-7"
       width="29.229391"
       height="29.229391"
       x="171.14835"
       y="115.45957" />
    <rect
       style="fill:#e6e6e6;fill-opacity:0.6;stroke-width:0.0833395"
       id="rect233-20"
       width="29.229391"
       height="29.229391"
       x="9.6222563"
       y="152.31102" />
    <rect
       style="fill:#e6e6e6;fill-opacity:0.6;stroke-width:0.0833395"
       id="rect233-3-23"
       width="29.229391"
       height="29.229391"
       x="90.65506"
       y="152.31102" />
    <rect
       style="fill:#e6e6e6;fill-opacity:0.6;stroke-width:0.0833395"
       id="rect233-6-7"
       width="29.229391"
       height="29.229391"
       x="50.13866"
       y="152.31102" />
    <rect
       style="fill:#e6e6e6;fill-opacity:0.6;stroke-width:0.0833395"
       id="rect233-7-5"
       width="29.229391"
       height="29.229391"
       x="131.17146"
       y="152.31102" />
    <rect
       style="fill:#e6e6e6;fill-opacity:0.6;stroke-width:0.0833395"
       id="rect233-5-9"
       width="29.229391"
       height="29.229391"
       x="171.68787"
       y="152.31102" />
    <rect
       style="fill:#e6e6e6;fill-opacity:0.6;stroke-width:0.0833395"
       id="rect233-56-2"
       width="29.229391"
       height="29.229391"
       x="9.6222563"
       y="189.16249" />
    <rect
       style="fill:#e6e6e6;fill-opacity:0.6;stroke-width:0.0833395"
       id="rect233-3-2-8"
       width="29.229391"
       height="29.229391"
       x="90.65506"
       y="189.16249" />
    <rect
       style="fill:#e6e6e6;fill-opacity:0.6;stroke-width:0.0833395"
       id="rect233-6-9-9"
       width="29.229391"
       height="29.229391"
       x="50.13866"
       y="189.16249" />
    <rect
       style="fill:#e6e6e6;fill-opacity:0.6;stroke-width:0.0833395"
       id="rect233-7-1-7"
       width="29.229391"
       height="29.229391"
       x="131.17146"
       y="189.16249" />
    <rect
       style="fill:#e6e6e6;fill-opacity:0.6;stroke-width:0.0833395"
       id="rect233-5-2-3"
       width="29.229391"
       height="29.229391"
       x="171.68787"
       y="189.16249" />
    <rect
       style="fill:#e6e6e6;fill-opacity:0.6;stroke-width:0.0833395"
       id="rect233-0-1"
       width="29.229391"
       height="29.229391"
       x="9.6222563"
       y="226.01398" />
    <rect
       style="fill:#e6e6e6;fill-opacity:0.6;stroke-width:0.0833395"
       id="rect233-3-9-2"
       width="29.229391"
       height="29.229391"
       x="90.65506"
       y="226.01398" />
    <rect
       style="fill:#e6e6e6;fill-opacity:0.6;stroke-width:0.0833395"
       id="rect233-6-3-9"
       width="29.229391"
       height="29.229391"
       x="50.13866"
       y="226.01398" />
    <rect
       style="fill:#e6e6e6;fill-opacity:0.6;stroke-width:0.0833395"
       id="rect233-7-6-3"
       width="29.229391"
       height="29.229391"
       x="131.17146"
       y="226.01398" />
    <rect
       style="fill:#e6e6e6;fill-opacity:0.6;stroke-width:0.0833395"
       id="rect233-5-0-1"
       width="29.229391"
       height="29.229391"
       x="171.68787"
       y="226.01398" />
    <rect
       style="fill:#e6e6e6;fill-opacity:0.6;stroke-width:0.0833395"
       id="rect233-2-4"
       width="29.229391"
       height="29.229391"
       x="9.6222563"
       y="262.86545" />
    <rect
       style="fill:#e6e6e6;fill-opacity:0.6;stroke-width:0.0833395"
       id="rect233-3-6-7"
       width="29.229391"
       height="29.229391"
       x="90.65506"
       y="262.86545" />
    <rect
       style="fill:#e6e6e6;fill-opacity:0.6;stroke-width:0.0833395"
       id="rect233-6-1-8"
       width="29.229391"
       height="29.229391"
       x="50.13866"
       y="262.86545" />
    <rect
       style="fill:#e6e6e6;fill-opacity:0.6;stroke-width:0.0833395"
       id="rect233-7-8-4"
       width="29.229391"
       height="29.229391"
       x="131.17146"
       y="262.86545" />
    <rect
       style="fill:#e6e6e6;fill-opacity:0.6;stroke-width:0.0833395"
       id="rect233-5-7-5"
       width="29.229391"
       height="29.229391"
       x="171.68787"
       y="262.86545" />
    <g
       id="g3574">
      <rect
         style="fill:none;fill-opacity:0.6;stroke-width:0.0833395"
         id="rect233-6"
         width="29.229391"
         height="29.229391"
         x="49.599148"
         y="4.9051642" />
      <path
         d="m 65.158477,23.621375 q 0.516724,-0.645905 0.775088,-0.968858 2.050751,-2.53518 3.568631,-4.941182 1.711651,-2.680508 1.711651,-3.504038 0,-0.516725 -0.597463,-0.516725 -1.25952,0 -7.993088,1.808534 -4.795851,1.275667 -6.426764,2.179935 -0.742791,0.403692 -0.985005,0.403692 -0.61361,0 -1.194926,-0.888122 -0.435986,-0.678202 -0.435986,-1.130335 0,-0.435985 0.613611,-1.275666 1.049596,-1.420993 2.438295,-4.569781 1.178776,-2.6159202 1.16263,-3.7947002 0,-0.904266 0.29066,-0.904266 0.355248,0 1.16263,0.532872 1.388699,0.904268 1.388699,1.614765 0,0.193754 -0.468284,0.629757 -0.758937,0.69435 -1.856979,2.9227222 -1.259515,2.551329 -1.259515,3.374862 0,0.387542 0.371394,0.387542 0.242208,0 0.678202,-0.09688 0.145331,-0.03228 0.694349,-0.161471 3.826991,-0.807383 7.863904,-1.921571 3.552484,-0.985008 4.715116,-1.469435 0.306803,-0.129189 0.54902,-0.129189 0.581312,0 1.905422,1.291813 1.017303,1.001154 1.017303,1.550173 0,0.226067 -0.516725,0.710496 -0.419841,0.403692 -1.647062,2.406002 -1.921571,3.132641 -3.051906,4.602079 -1.114188,1.43714 -2.422145,3.035758 2.874281,1.679354 4.376009,2.777395 2.551329,1.856979 2.551329,4.166093 0,1.130336 -0.581313,1.50173 -0.177614,0.129189 -0.35525,0.129189 -0.678199,0 -1.856979,-1.340254 -2.018456,-2.276821 -5.587087,-5.587087 -3.407152,3.100347 -5.587087,4.392159 -3.261825,1.937718 -5.587083,2.519035 l -0.613611,0.145329 q -0.0646,0.01611 -0.113048,0.01611 -0.193784,0 -0.193784,-0.145331 0,-0.209924 0.226067,-0.339102 l 0.516724,-0.290661 Q 59.555219,29.757446 63.866643,25.042334 62.397207,23.97659 61.735154,23.524455 59.6844,22.087314 59.280711,21.796656 L 58.699395,21.36067 q -0.14533,-0.113018 -0.14533,-0.242207 0,-0.161473 0.177613,-0.161473 0.06459,0 0.09688,0 l 0.516724,0.161473 q 1.889273,0.549018 5.813153,2.502883 z"
         style="font-weight:bold;font-size:11.2889px;line-height:1.25;font-family:MOESongUN;-inkscape-font-specification:'MOESongUN Bold';letter-spacing:0px;word-spacing:0px;fill:#6a5753;fill-opacity:1;stroke-width:0.775086"
         id="path556-7" />
    </g>
    <g
       id="g3578">
      <rect
         style="fill:none;fill-opacity:0.6;stroke-width:0.0833395"
         id="rect233-3"
         width="29.229391"
         height="29.229391"
         x="90.115547"
         y="4.9051642" />
      <path
         d="m 94.421538,11.219316 q 0.30599,9.945354 0.30599,14.478142 0,0.822402 -0.0765,2.926229 -0.0765,2.390711 -0.84154,2.390711 -0.70765,0 -1.453547,-1.319672 -0.87978,-1.587435 -0.87978,-3.021858 0,-0.420767 0.05739,-1.090164 0.286877,-2.983607 0.286877,-6.846995 0,-5.393444 -0.76503,-9.2185782 -0.07651,-0.325148 -0.07651,-0.592897 0,-0.612021 0.554646,-0.612021 0.497268,0 2.639344,1.491802 l 1.2623,-0.286877 q 7.592892,-1.740439 14.745902,-2.371586 1.64482,-0.133862 2.71586,-0.535521 0.59291,-0.229488 1.58743,-0.937156 0.19119,-0.153015 0.42078,-0.153015 0.70765,0 2.04641,1.128418 1.53004,1.300547 1.53004,2.218577 0,0.229523 -0.15301,0.765027 -0.63114,2.1612022 -0.63114,5.8142102 l 0.0173,2.715845 q 0,4.551914 -0.19118,7.956285 -0.21026,4.609289 -0.57375,5.795082 -0.47816,1.606556 -1.1667,1.606556 -0.42074,0 -0.84151,-0.650272 -1.07104,-1.68306 -1.07104,-2.849728 0,-0.305995 0.13394,-0.898906 0.57375,-2.658469 0.57375,-10.633879 0,-3.997267 -0.19118,-7.439892 -0.0767,-1.3770482 -0.45901,-1.9508192 -0.42074,-0.573771 -1.56832,-0.573771 -1.45354,0 -6.06279,0.784154 -6.29238,1.0519102 -9.256852,2.5054662 -0.5164,0.24864 -0.93716,0.24864 -0.5929,0 -1.68306,-0.84153 z"
         style="font-weight:bold;font-size:11.2889px;line-height:1.25;font-family:MOESongUN;-inkscape-font-specification:'MOESongUN Bold';letter-spacing:0px;word-spacing:0px;fill:#6a5753;fill-opacity:1;stroke-width:0.918031"
         id="path558-2" />
    </g>
  </g>
  <g
     inkscape:groupmode="layer"
     id="layer2"
     inkscape:label="Keyprint" />
  <g
     inkscape:groupmode="layer"
     id="layer3"
     inkscape:label="Bopomofo">
    <text
       xml:space="preserve"
       style="font-weight:bold;font-size:3.52778px;line-height:1.25;font-family:MOESongUN;-inkscape-font-specification:'MOESongUN Bold';letter-spacing:0px;word-spacing:0px;stroke-width:0.264583"
       x="-70.913643"
       y="-94.174286"
       id="text80"><tspan
         sodipodi:role="line"
         id="tspan78"
         x="-70.913643"
         y="-94.174286"
         style="font-size:3.52778px;stroke-width:0.264583">* 本產品於繪製軟體鍵盤場合，採用「教育部標準宋體」，係「中華民國教育部」以「姓名標示-禁止改作 3.0 台灣 (CC BY-ND 3.0 TW)」方式授權。</tspan><tspan
         sodipodi:role="line"
         x="-70.913643"
         y="-89.764565"
         style="font-size:3.52778px;stroke-width:0.264583"
         id="tspan82">    - https://language.moe.gov.tw/result.aspx?classify_sn=23&amp;subclassify_sn=436&amp;content_sn=48</tspan><tspan
         sodipodi:role="line"
         x="-70.913643"
         y="-85.354836"
         style="font-size:3.52778px;stroke-width:0.264583"
         id="tspan84">    - https://language.moe.gov.tw/001/Upload/Files/site_content/M0001/edusun.pdf</tspan><tspan
         sodipodi:role="line"
         x="-70.913643"
         y="-80.945114"
         style="font-size:3.52778px;stroke-width:0.264583"
         id="tspan86">    - https://creativecommons.org/licenses/by-nd/3.0/tw/deed.zh_TW</tspan><tspan
         sodipodi:role="line"
         x="-70.913643"
         y="-76.535385"
         style="font-size:3.52778px;stroke-width:0.264583"
         id="tspan88" /><tspan
         sodipodi:role="line"
         x="-70.913643"
         y="-72.125664"
         style="font-size:3.52778px;stroke-width:0.264583"
         id="tspan90">* 承上，本產品之軟體鍵盤繪製原始檔、成品，基於「教育部標準宋體」者，係 YOU, HUI-HONG 以「姓名標示-禁止改作 3.0 台灣 (CC BY-ND 3.0 TW)」相同方式授權。</tspan><tspan
         sodipodi:role="line"
         x="-70.913643"
         y="-67.715935"
         style="font-size:3.52778px;stroke-width:0.264583"
         id="tspan92">    - https://creativecommons.org/licenses/by-nd/3.0/tw/deed.zh_TW</tspan><tspan
         sodipodi:role="line"
         x="-70.913643"
         y="-63.30621"
         style="font-size:3.52778px;stroke-width:0.264583"
         id="tspan94" /></text>
    <path
       d="m -12.070467,-47.074092 -0.20395,-0.209462 q -0.07166,-0.07166 -0.07166,-0.110243 0.0055,-0.05512 0.06615,-0.05512 0.02205,0 0.0441,0.01102 l 0.264583,0.137804 q 0.644923,0.336242 0.89297,0.336242 0.490582,0 1.1740895,-1.223699 0.6724834,-1.207163 1.0307737,-2.805689 0.1819012,-0.799263 0.1819012,-1.096919 0,-0.435461 -0.3307295,-0.435461 -0.5126308,0 -2.5796899,0.363803 -2.011938,0.35829 -3.092321,0.815799 -0.07166,0.03307 -0.137804,0.03307 -0.253559,0 -0.507119,-0.43546 -0.110243,-0.187414 -0.110243,-0.314193 0,-0.12678 0.198438,-0.341754 0.479558,-0.496094 1.080383,-1.774915 0.325217,-0.68902 0.330729,-1.080383 0.0055,-0.181901 0.132292,-0.181901 0.181901,0 0.48507,0.181901 0.451997,0.275608 0.451997,0.48507 0,0.07166 -0.187413,0.259071 -0.209462,0.20395 -0.655947,0.997701 -0.545704,0.953603 -0.545704,1.085895 0,0.159853 0.209462,0.159853 0.154341,0 0.429949,-0.05512 0.341753,-0.06615 1.273308,-0.214974 2.7450551,-0.424436 3.3513925,-0.694532 0.1653648,-0.07166 0.2645836,-0.07166 0.2535593,0 0.7386292,0.490582 0.3582903,0.363802 0.3582903,0.595313 0,0.07166 -0.1378039,0.225999 -0.1763891,0.187413 -0.4464848,1.256772 -0.556728,2.24896 -1.3229181,3.489196 -0.4134118,0.683508 -0.8874578,1.04731 -0.418924,0.325217 -0.705556,0.325217 -0.148828,0 -0.336242,-0.308681 l -0.04961,-0.07717 q -0.214974,-0.374827 -0.650435,-0.810287 z"
       style="font-weight:bold;font-size:11.2889px;line-height:1.25;font-family:MOESongUN;-inkscape-font-specification:'MOESongUN Bold';letter-spacing:0px;word-spacing:0px;fill:#6a5753;fill-opacity:1;stroke-width:0.264583"
       id="path554" />
    <path
       d="m 0.13896411,-49.262419 q 0.17638907,-0.220486 0.26458361,-0.330729 0.70004408,-0.865409 1.21818698,-1.686721 0.5842888,-0.915018 0.5842888,-1.196138 0,-0.176389 -0.2039499,-0.176389 -0.4299483,0 -2.72851835,0.617361 -1.63711105,0.435461 -2.19383905,0.744142 -0.2535593,0.137804 -0.3362417,0.137804 -0.209462,0 -0.4078997,-0.303169 -0.1488282,-0.231511 -0.1488282,-0.385851 0,-0.148828 0.209462,-0.435461 0.3582903,-0.48507 0.8323359,-1.55994 0.4023875,-0.89297 0.3968754,-1.295358 0,-0.30868 0.099219,-0.30868 0.1212675,0 0.3968754,0.181901 0.4740457,0.308681 0.4740457,0.551216 0,0.06614 -0.1598526,0.214974 -0.2590715,0.237023 -0.6338982,0.9977 -0.4299484,0.870921 -0.4299484,1.152042 0,0.132291 0.1267796,0.132291 0.082682,0 0.2315107,-0.03307 0.049609,-0.01102 0.2370228,-0.05512 1.30638155,-0.275608 2.68442114,-0.655947 1.21267486,-0.336242 1.60955026,-0.501606 0.104731,-0.0441 0.1874134,-0.0441 0.1984377,0 0.6504347,0.440973 0.3472659,0.341754 0.3472659,0.529167 0,0.07717 -0.176389,0.242535 -0.1433161,0.137804 -0.5622402,0.821312 -0.6559468,1.069358 -1.0417979,1.570965 -0.3803389,0.490582 -0.82682377,1.036286 0.98116417,0.573264 1.49379497,0.948091 0.870921,0.633898 0.870921,1.422137 0,0.385851 -0.1984377,0.51263 -0.060634,0.0441 -0.1212675,0.0441 -0.2315107,0 -0.6338982,-0.457509 -0.6890198,-0.777215 -1.90720683,-1.907207 -1.16306542,1.058334 -1.90720677,1.499307 -1.113456,0.661459 -1.9072068,0.859897 l -0.209462,0.04961 q -0.022049,0.0055 -0.038585,0.0055 -0.066146,0 -0.066146,-0.04961 0,-0.07166 0.07717,-0.115756 l 0.176389,-0.09922 q 1.7583786,-1.01975 3.23012484,-2.6293 -0.50160641,-0.363802 -0.72760494,-0.518143 -0.7000441,-0.490582 -0.837848,-0.589801 l -0.1984377,-0.148828 q -0.049609,-0.03858 -0.049609,-0.08268 0,-0.05512 0.060634,-0.05512 0.022049,0 0.033073,0 l 0.1763891,0.05512 q 0.6449225,0.187413 1.98437701,0.854384 z"
       style="font-weight:bold;font-size:11.2889px;line-height:1.25;font-family:MOESongUN;-inkscape-font-specification:'MOESongUN Bold';letter-spacing:0px;word-spacing:0px;fill:#6a5753;fill-opacity:1;stroke-width:0.264583"
       id="path556" />
    <path
       d="m 8.1205695,-53.07132 q 0.088195,2.866322 0.088195,4.172704 0,0.237022 -0.022049,0.84336 -0.022049,0.68902 -0.242535,0.68902 -0.2039499,0 -0.418924,-0.380339 -0.2535593,-0.45751 -0.2535593,-0.870921 0,-0.121268 0.016536,-0.314193 0.082682,-0.859897 0.082682,-1.973353 0,-1.554429 -0.2204863,-2.65686 -0.022049,-0.09371 -0.022049,-0.170877 0,-0.176389 0.1598526,-0.176389 0.1433162,0 0.7606779,0.429948 l 0.3638025,-0.08268 q 2.1883271,-0.501607 4.2498741,-0.683508 0.474046,-0.03858 0.782726,-0.154341 0.170877,-0.06614 0.45751,-0.270095 0.05512,-0.0441 0.121267,-0.0441 0.20395,0 0.589801,0.325218 0.440973,0.374827 0.440973,0.63941 0,0.06615 -0.0441,0.220486 -0.181901,0.622874 -0.181901,1.675697 l 0.0055,0.782726 q 0,1.311894 -0.05512,2.293058 -0.06063,1.32843 -0.165365,1.670184 -0.137804,0.463021 -0.336242,0.463021 -0.121267,0 -0.242535,-0.187413 -0.30868,-0.48507 -0.30868,-0.821312 0,-0.08819 0.03858,-0.259071 0.165364,-0.76619 0.165364,-3.06476 0,-1.152041 -0.05512,-2.14423 -0.02205,-0.396875 -0.132292,-0.56224 -0.121267,-0.165365 -0.451997,-0.165365 -0.418924,0 -1.747354,0.225999 -1.8135003,0.303168 -2.6678848,0.722093 -0.1488283,0.07166 -0.2700958,0.07166 -0.1708769,0 -0.4850699,-0.242535 z"
       style="font-weight:bold;font-size:11.2889px;line-height:1.25;font-family:MOESongUN;-inkscape-font-specification:'MOESongUN Bold';letter-spacing:0px;word-spacing:0px;fill:#6a5753;fill-opacity:1;stroke-width:0.264583"
       id="path558" />
    <path
       d="m 18.643278,-52.679957 q -0.110243,-0.110243 -0.170877,-0.159853 -0.220486,-0.198437 -0.220486,-0.314193 0,-0.06615 0.0441,-0.104731 0.03858,-0.03859 0.512631,-0.04961 1.923743,-0.05512 3.715194,-0.336242 1.846573,-0.286632 2.463935,-0.512631 0.308681,-0.115755 0.435461,-0.115755 0.303168,0 0.694532,0.325217 0.198437,0.165365 0.198437,0.297657 0,0.104731 -0.137804,0.132292 -0.06063,0.01102 -0.545703,0.03307 -0.308681,0.01102 -1.333943,0.165364 -1.984377,0.308681 -4.536506,0.589801 l 0.01102,0.170877 q 0.04961,0.870921 0.08268,2.293058 0.03859,1.466234 0.253559,1.86311 0.314193,0.589801 1.135505,0.589801 0.286632,0 1.515843,-0.07717 1.824525,-0.115756 2.259985,-0.231511 0.325218,-0.08268 0.380339,-0.08268 0.297657,0 0.600825,0.242535 0.28112,0.225999 0.28112,0.446485 0,0.148829 -0.264583,0.209462 -0.264584,0.05512 -1.041798,0.07717 l -1.559941,0.03858 q -1.218187,0.04961 -1.752866,0.04961 -0.848873,0 -1.32843,-0.159853 -0.810288,-0.270095 -1.085896,-1.196138 -0.143316,-0.48507 -0.165364,-1.317406 l -0.03307,-1.058334 q -0.01654,-0.700044 -0.09922,-1.036286 -0.08819,-0.369315 -0.308681,-0.771702 z"
       style="font-weight:bold;font-size:11.2889px;line-height:1.25;font-family:MOESongUN;-inkscape-font-specification:'MOESongUN Bold';letter-spacing:0px;word-spacing:0px;fill:#6a5753;fill-opacity:1;stroke-width:0.264583"
       id="path560" />
    <path
       d="m 32.114995,-51.764939 q -1.179602,0.292145 -1.427649,0.429949 -0.237023,0.126779 -0.33073,0.126779 -0.181901,0 -0.418924,-0.165365 -0.297656,-0.209462 -0.297656,-0.347266 0,-0.03859 0.181901,-0.314193 0.468533,-0.700044 0.859897,-1.466234 0.666971,-1.322918 0.666971,-1.697745 0,-0.05512 -0.02205,-0.132291 -0.01654,-0.07166 -0.01654,-0.104731 0,-0.115756 0.126779,-0.115756 0.259072,0 0.73863,0.418924 0.297656,0.259072 0.297656,0.435461 0,0.09922 -0.159852,0.220486 -0.28112,0.225999 -0.859897,1.091408 -0.633898,0.948091 -0.633898,1.141016 0,0.104731 0.143316,0.104731 0.15434,0 0.931555,-0.170877 1.157553,-0.253559 3.059247,-0.529167 1.129993,-0.165364 1.526868,-0.297656 0.214975,-0.07166 0.286633,-0.07166 0.192925,0 0.51263,0.297656 0.518143,0.48507 0.518143,0.804775 0,0.08819 -0.104731,0.209462 -0.192925,0.231511 -0.270096,0.529168 -0.56224,2.259984 -1.295357,3.649048 -0.512631,0.964628 -1.085895,1.493795 -0.451997,0.413412 -0.788239,0.413412 -0.15434,0 -0.242535,-0.159852 -0.0441,-0.08268 -0.137804,-0.292145 -0.198437,-0.474045 -0.606337,-0.915018 l -0.132292,-0.143316 q -0.06063,-0.06063 -0.06063,-0.115756 0,-0.06063 0.07166,-0.06063 0.02756,0 0.04961,0.01102 l 0.28112,0.143316 q 0.595313,0.303169 0.799263,0.303169 0.655947,0 1.554429,-2.271009 0.424436,-1.063847 0.71658,-2.056035 0.170877,-0.567753 0.170877,-0.666972 0,-0.35829 -0.374827,-0.35829 -0.132291,0 -1.229211,0.143316 -1.372527,0.192926 -2.563154,0.385851 0.644923,0.501607 0.644923,0.788239 0,0.270096 -1.085895,1.774915 -1.179602,1.631599 -2.149742,2.215888 l -0.209462,0.126779 q -0.0441,0.02756 -0.09922,0.02756 -0.05512,0 -0.05512,-0.0441 0,-0.06615 0.06063,-0.115756 l 0.137804,-0.126779 q 0.308681,-0.28112 0.870921,-1.080383 0.567753,-0.804775 0.870921,-1.394576 0.666971,-1.284333 0.666971,-1.774915 0,-0.132292 -0.08819,-0.297657 z"
       style="font-weight:bold;font-size:11.2889px;line-height:1.25;font-family:MOESongUN;-inkscape-font-specification:'MOESongUN Bold';letter-spacing:0px;word-spacing:0px;fill:#6a5753;fill-opacity:1;stroke-width:0.264583"
       id="path562" />
    <path
       d="m 44.853595,-51.649184 q 0.270096,-0.03859 1.019749,-0.165364 0.700044,-0.115756 1.510332,-0.33073 0.463021,-0.121267 0.633898,-0.121267 0.248047,0 0.545703,0.187413 0.435461,0.275608 0.435461,0.490582 0,0.115756 -0.20395,0.121268 h -0.143316 q -0.821312,0.01654 -3.026175,0.407899 l -0.650435,0.115756 -0.391363,0.06615 q -0.474046,1.174089 -1.091407,2.441886 -0.4079,0.837848 -0.4079,0.975652 0,0.148828 0.148828,0.148828 0.06615,0 0.358291,-0.08268 l 3.373441,-0.981164 -0.826824,-1.09692 q -0.08819,-0.115755 -0.08819,-0.159853 0,-0.06063 0.06615,-0.06063 0.05512,0 0.104731,0.02205 l 0.308681,0.143316 q 0.540192,0.248048 1.019749,0.61185 0.986677,0.744141 0.986677,1.521356 0,0.396875 -0.198438,0.589801 -0.08819,0.08819 -0.214974,0.08819 -0.143316,0 -0.270096,-0.165365 -0.04961,-0.06614 -0.12678,-0.209462 -0.0055,-0.0055 -0.06615,-0.126779 -0.06614,-0.12678 -0.07166,-0.137804 l -0.330729,-0.584289 q -2.756079,0.76619 -4.211289,1.537892 -0.352778,0.187414 -0.435461,0.187414 -0.220486,0 -0.551215,-0.391364 -0.20395,-0.237022 -0.20395,-0.429948 0,-0.137804 0.248047,-0.507119 0.578776,-0.865408 0.9977,-1.708769 0.165365,-0.336241 0.655947,-1.515843 -1.179602,0.181901 -1.824524,0.446485 -0.121268,0.05512 -0.192926,0.04961 -0.209462,-0.01102 -0.578776,-0.347266 -0.225999,-0.209462 -0.225999,-0.330729 0,-0.08268 0.05512,-0.110244 0.07166,-0.0441 0.700044,-0.06063 0.507119,-0.02205 2.342667,-0.347266 0.61185,-2.045011 0.61185,-2.882859 0,-0.187414 -0.05512,-0.385851 -0.0441,-0.154341 -0.0441,-0.198438 0,-0.176389 0.170877,-0.176389 0.225998,0 0.578777,0.181901 0.540191,0.28112 0.540191,0.529167 0,0.08819 -0.15434,0.259072 -0.143317,0.15434 -0.209462,0.35829 -0.06615,0.181901 -0.192926,0.644923 l -0.132292,0.48507 q -0.176389,0.633898 -0.292144,1.003212 z"
       style="font-weight:bold;font-size:11.2889px;line-height:1.25;font-family:MOESongUN;-inkscape-font-specification:'MOESongUN Bold';letter-spacing:0px;word-spacing:0px;fill:#6a5753;fill-opacity:1;stroke-width:0.264583"
       id="path564" />
    <path
       d="m 54.836108,-47.393797 0.248047,0.08268 q 0.650435,0.225999 0.975652,0.225999 0.8158,0 1.526868,-1.58199 0.352778,-0.777214 0.600825,-1.631599 0.259072,-0.892969 0.259072,-1.157553 0,-0.319705 -0.325218,-0.319705 -0.352778,0 -1.675696,0.325217 -0.68902,0.170877 -1.223699,0.402388 -0.148828,0.06063 -0.237023,0.06063 -0.170877,0 -0.380339,-0.28112 -0.187413,-0.259071 -0.187413,-0.418924 0,-0.242535 0.270096,-0.352778 0.347266,-0.137804 0.755165,-0.788238 0.749654,-1.201651 0.749654,-1.604039 0,-0.192925 -0.214974,-0.192925 -0.463022,0 -2.000914,0.457509 -0.137804,0.03858 -0.225998,0.03858 -0.231511,0 -0.584289,-0.292144 -0.242535,-0.198438 -0.242535,-0.336242 0,-0.07166 0.159853,-0.06063 0.08268,0.01102 0.225998,-0.0055 0.115755,-0.01102 0.451997,-0.03858 0.369315,-0.02756 1.383552,-0.20395 0.705556,-0.121267 1.17409,-0.303168 0.187413,-0.07166 0.270095,-0.07166 0.264584,0 0.948092,0.545703 0.23151,0.181901 0.23151,0.292145 0,0.159852 -0.303168,0.319705 -0.248048,0.132292 -0.683508,0.694532 -0.997701,1.289845 -0.997701,1.526868 0,0.110243 0.148828,0.110243 0.187414,0 0.920531,-0.176389 0.926043,-0.214974 1.344967,-0.358291 0.220486,-0.07166 0.325217,-0.07166 0.209462,0 0.672483,0.341754 0.424436,0.319705 0.424436,0.48507 0,0.07166 -0.132291,0.220486 -0.181902,0.20395 -0.556728,1.653648 -0.507119,1.94028 -1.317406,2.93798 -0.744142,0.926043 -1.438674,0.926043 -0.214974,0 -0.391363,-0.303169 -0.170877,-0.286632 -0.810287,-0.815799 l -0.20395,-0.170877 q -0.03858,-0.03307 -0.03307,-0.07166 0.0055,-0.0441 0.06615,-0.0441 0.02205,0 0.03307,0.0055 z"
       style="font-weight:bold;font-size:11.2889px;line-height:1.25;font-family:MOESongUN;-inkscape-font-specification:'MOESongUN Bold';letter-spacing:0px;word-spacing:0px;fill:#6a5753;fill-opacity:1;stroke-width:0.264583"
       id="path566" />
    <path
       d="m 67.916462,-52.211424 0.292144,-0.07166 q 0.937067,-0.237023 1.389064,-0.385851 0.214974,-0.07166 0.573265,-0.270096 0.09371,-0.04961 0.181901,-0.04961 0.209462,0 0.545703,0.264584 0.413412,0.330729 0.413412,0.529167 0,0.07166 -0.06615,0.253559 -0.07166,0.214974 -0.248047,1.846573 -0.214974,1.967841 -1.080383,3.169491 -0.402387,0.556728 -0.898482,0.865409 -0.292144,0.181901 -0.474045,0.181901 -0.159853,0 -0.259072,-0.192925 -0.225998,-0.424436 -0.650434,-0.84336 l -0.165365,-0.170877 q -0.0441,-0.03858 -0.0441,-0.08819 0,-0.07166 0.08268,-0.07166 0.02756,0 0.0441,0.0055 l 0.220487,0.07166 q 0.440972,0.148829 0.655946,0.148829 0.837849,0 1.411113,-1.796964 0.225998,-0.705556 0.380339,-1.60955 0.159853,-0.959116 0.159853,-1.339455 0,-0.369314 -0.308681,-0.369314 -0.225999,0 -2.309595,0.479557 -0.534679,1.295358 -0.782726,1.763891 -0.749654,1.416625 -1.8135,2.50252 -0.451997,0.457509 -1.152041,0.89297 -0.104731,0.06614 -0.137804,0.04961 -0.02205,-0.0055 -0.02205,-0.03307 0,-0.08268 0.330729,-0.43546 0.975653,-1.041798 1.945792,-2.904908 0.418924,-0.804775 0.683508,-1.554429 -1.664672,0.474046 -2.105644,0.722093 -0.121268,0.06615 -0.187414,0.06615 -0.132292,0 -0.297656,-0.159853 -0.28112,-0.286632 -0.28112,-0.485069 0,-0.115756 0.286632,-0.48507 0.23151,-0.297657 0.595313,-1.344967 0.336242,-0.97014 0.352778,-1.444186 0.0055,-0.225998 0.137804,-0.225998 0.192926,0 0.468533,0.248047 0.286633,0.259072 0.286633,0.435461 0,0.08819 -0.181902,0.330729 -0.214974,0.270096 -0.545703,1.146529 -0.292145,0.76619 -0.292145,0.92053 0,0.12678 0.132292,0.12678 0.115755,0 0.909506,-0.20395 0.20395,-0.04961 0.490582,-0.121267 0.231511,-0.05512 0.413412,-0.104731 0.303169,-0.97014 0.474046,-2.800177 0.02205,-0.35829 0.04961,-0.43546 0.08819,-0.253559 0.380339,-0.253559 0.666971,0 0.666971,0.507118 0,0.633898 -0.650434,2.723006 z"
       style="font-weight:bold;font-size:11.2889px;line-height:1.25;font-family:MOESongUN;-inkscape-font-specification:'MOESongUN Bold';letter-spacing:0px;word-spacing:0px;fill:#6a5753;fill-opacity:1;stroke-width:0.264583"
       id="path568" />
    <path
       d="m 77.628887,-55.176965 q 0.225998,-0.01102 0.551216,0.347266 0.35829,0.385851 0.35829,0.777214 0,0.170877 -0.170877,0.264584 -0.104731,0.05512 -0.198438,0.15434 -0.143316,0.148829 -0.700044,1.052823 -0.330729,0.540191 -0.942579,1.438673 -0.319705,0.468534 -0.319705,0.744141 0,0.165365 0.275608,0.523655 0.04961,0.06615 0.600825,0.683508 0.56224,0.617362 0.793751,0.898482 0.325217,0.396875 0.43546,0.661459 0.08268,0.198438 0.08268,0.518143 0,0.490582 -0.20395,0.738629 -0.12678,0.148828 -0.303169,0.148828 -0.187413,0 -0.341754,-0.242535 -0.115755,-0.187413 -0.325217,-0.672483 -0.402388,-0.926043 -1.229211,-2.364716 -0.435461,-0.771702 -0.435461,-0.953603 0,-0.259072 0.446485,-1.008725 1.317406,-2.215888 1.444185,-3.428563 0.02756,-0.275608 0.181902,-0.28112 z m 3.29627,-0.02205 q 0.231511,0 0.551216,0.347266 0.358291,0.385852 0.358291,0.771703 0,0.176389 -0.170877,0.270095 -0.09922,0.05512 -0.198438,0.154341 -0.132292,0.137804 -0.700044,1.058334 -0.325218,0.529167 -0.942579,1.433161 -0.319705,0.474046 -0.319705,0.749654 0,0.231511 0.56224,0.854385 l 0.314193,0.352778 q 0.56224,0.611849 0.793751,0.892969 0.330729,0.402388 0.43546,0.666971 0.08268,0.198438 0.08268,0.523656 0,0.490582 -0.203949,0.733117 -0.12678,0.148828 -0.303169,0.148828 -0.187414,0 -0.341754,-0.242535 -0.110243,-0.181901 -0.325217,-0.672483 -0.402388,-0.915019 -1.229212,-2.370229 -0.43546,-0.76619 -0.43546,-0.948091 0,-0.259071 0.446485,-1.014237 1.317406,-2.2214 1.444185,-3.434075 0.02756,-0.275608 0.181901,-0.275608 z"
       style="font-weight:bold;font-size:11.2889px;line-height:1.25;font-family:MOESongUN;-inkscape-font-specification:'MOESongUN Bold';letter-spacing:0px;word-spacing:0px;fill:#6a5753;fill-opacity:1;stroke-width:0.264583"
       id="path570" />
    <path
       d="m 88.890228,-54.107606 q -1.515843,0.165365 -2.271009,0.479558 -0.148828,0.06615 -0.237023,0.06615 -0.214974,0 -0.534679,-0.402388 -0.20395,-0.259071 -0.20395,-0.402388 0,-0.07717 0.09371,-0.07717 0.02756,0 0.115755,0.02205 0.181901,0.0441 0.35829,0.0441 0.325218,0 1.471747,-0.132292 2.293057,-0.308681 4.745968,-0.451997 0.677995,-0.0441 0.992188,-0.170877 0.176389,-0.07166 0.275608,-0.07166 0.225999,0 0.567753,0.25356 0.369314,0.275608 0.369314,0.496094 0,0.209462 -0.270096,0.209462 -0.170876,0 -0.810287,-0.06063 -0.28112,-0.02756 -1.085895,-0.02756 -1.576477,0 -3.125394,0.137804 0.435461,0.451997 0.435461,0.716581 0,0.143316 -0.132292,0.264583 -0.170877,0.159853 -0.35829,0.468534 -0.341754,0.56224 -0.341754,0.771702 0,0.09371 0.115755,0.09371 0.06063,0 0.336242,-0.0441 0.551216,-0.08819 1.4056,-0.181902 0.920531,-0.09922 1.526868,-0.28112 0.176389,-0.05512 0.275608,-0.05512 0.352778,0 0.859897,0.468533 0.297656,0.275608 0.297656,0.451997 0,0.08268 -0.143316,0.259072 -0.170877,0.203949 -0.270096,0.859896 -0.292144,1.94028 -1.367015,3.31832 -0.755166,0.964627 -1.289845,0.964627 -0.09922,0 -0.209462,-0.170877 -0.20395,-0.30868 -0.804775,-0.810287 l -0.159853,-0.137804 q -0.07166,-0.06615 -0.07166,-0.115755 0,-0.06063 0.06615,-0.06063 0.06063,0 0.132292,0.02756 l 0.369315,0.15434 q 0.35829,0.143316 0.534679,0.143316 0.325217,0 0.887457,-0.79375 0.655947,-0.926043 0.964628,-2.111157 0.220486,-0.865409 0.220486,-1.333942 0,-0.396876 -0.424436,-0.396876 -0.837848,0 -2.138717,0.225999 -0.705556,0.121267 -1.444186,0.314193 -0.314193,0.07166 -0.347266,0.07166 -0.165364,0 -0.341754,-0.242535 -0.176389,-0.242535 -0.176389,-0.391363 0,-0.143316 0.248048,-0.341754 0.314193,-0.253559 0.5898,-0.655947 0.402388,-0.584289 0.402388,-0.992189 0,-0.15434 -0.09922,-0.369314 z"
       style="font-weight:bold;font-size:11.2889px;line-height:1.25;font-family:MOESongUN;-inkscape-font-specification:'MOESongUN Bold';letter-spacing:0px;word-spacing:0px;fill:#6a5753;fill-opacity:1;stroke-width:0.264583"
       id="path572" />
    <path
       d="m 99.710597,-53.214637 q -0.148828,2.254473 -0.617362,3.593928 -0.677995,1.929255 -1.681208,2.745055 l -0.165365,0.137804 q -0.05512,0.0441 -0.09371,0.0441 -0.0441,0 -0.0441,-0.04961 0,-0.05512 0.0441,-0.115755 l 0.126779,-0.192925 q 0.666971,-0.997701 1.107944,-2.789153 0.396875,-1.615062 0.396875,-3.009638 0,-0.413412 -0.181901,-0.727605 -0.07717,-0.132292 -0.07717,-0.225998 0,-0.09922 0.12678,-0.121268 0.04961,-0.0055 0.556728,-0.02205 1.493803,-0.05512 4.828653,-0.655946 l 0.30317,-0.04961 q 0.43546,-0.07166 0.51814,-0.07166 0.30868,0 0.56776,0.264584 0.25907,0.270095 0.25907,0.490582 0,0.126779 -0.15434,0.126779 -0.0662,0 -0.20395,-0.02205 -0.17639,-0.02756 -0.31971,-0.02756 -0.80477,0 -2.19935,0.170877 -1.71979,0.209462 -3.097837,0.507118 z"
       style="font-weight:bold;font-size:11.2889px;line-height:1.25;font-family:MOESongUN;-inkscape-font-specification:'MOESongUN Bold';letter-spacing:0px;word-spacing:0px;fill:#6a5753;fill-opacity:1;stroke-width:0.264583"
       id="path574" />
    <path
       d="m 114.43908,-50.54124 v -0.832336 l -0.0276,-1.196138 q -0.0386,-1.537892 -0.12678,-2.039499 -0.0496,-0.286632 -0.19844,-0.694532 -0.011,-0.02756 -0.011,-0.06614 0,-0.143317 0.19292,-0.143317 0.41893,0 0.904,0.451997 0.19292,0.181902 0.19292,0.314193 0,0.06063 -0.11024,0.231511 -0.11025,0.176389 -0.10473,0.744142 l 0.0331,3.097833 0.006,0.457509 q 0,3.279734 -0.0882,3.858511 -0.0827,0.51263 -0.3142,0.51263 -0.17087,0 -0.35829,-0.214974 -0.30316,-0.347266 -0.30316,-0.700044 0,-0.07166 0.0441,-0.259071 0.12127,-0.529168 0.1819,-1.405601 0.0276,-0.314193 0.0882,-1.587501 -0.28112,0.15434 -0.86541,0.490582 -0.16537,0.09371 -1.20716,0.661459 l -0.36381,0.198437 q -0.40238,0.231511 -0.46302,0.270096 -0.17639,0.115755 -0.25356,0.115755 -0.32521,0 -0.76067,-0.51263 -0.14883,-0.176389 -0.14883,-0.336242 0,-0.06615 0.0331,-0.231511 0.11576,-0.56224 0.11576,-1.036285 0,-0.600826 -0.0827,-1.835549 -0.0717,-1.12448 -0.48507,-1.857598 -0.0772,-0.143316 -0.0772,-0.198437 0,-0.148829 0.1819,-0.148829 0.33625,0 0.94258,0.336242 0.44098,0.242535 0.44098,0.435461 0,0.06063 -0.0441,0.170877 -0.1378,0.363802 -0.13229,0.755165 l 0.0441,2.921444 q 0.006,0.545704 0.22049,0.53468 0.19293,-0.01102 1.61506,-0.639411 0.60083,-0.259071 1.28985,-0.622874 z"
       style="font-weight:bold;font-size:11.2889px;line-height:1.25;font-family:MOESongUN;-inkscape-font-specification:'MOESongUN Bold';letter-spacing:0px;word-spacing:0px;fill:#6a5753;fill-opacity:1;stroke-width:0.264583"
       id="path576" />
    <path
       d="m 123.37979,-51.66572 -0.42443,0.457509 q -0.53468,0.584289 -0.53468,0.837848 0,0.220487 0.48507,0.584289 0.17087,0.12678 0.9095,0.694532 0.97566,0.749654 1.42214,1.179602 0.75517,0.722093 0.75517,1.444185 0,0.53468 -0.38034,0.53468 -0.19293,0 -0.39688,-0.25356 -0.0992,-0.126779 -0.5016,-0.700044 -0.54571,-0.771702 -1.44419,-1.68672 -0.87643,-0.887458 -1.37253,-1.212675 -0.28112,-0.181901 -0.28112,-0.578777 0,-0.292144 0.23703,-0.43546 0.52365,-0.33073 1.70876,-1.846573 1.2678,-1.626087 1.60956,-2.546617 0.12126,-0.325218 0.25355,-0.325218 0.18742,0 0.46854,0.33073 0.27561,0.330729 0.27561,0.63941 0,0.115755 -0.0937,0.181901 -0.0165,0.01103 -0.19844,0.115756 -0.37483,0.20395 -0.90399,0.826823 -0.29215,0.347266 -1.13,1.256773 z"
       style="font-weight:bold;font-size:11.2889px;line-height:1.25;font-family:MOESongUN;-inkscape-font-specification:'MOESongUN Bold';letter-spacing:0px;word-spacing:0px;fill:#6a5753;fill-opacity:1;stroke-width:0.264583"
       id="path578" />
    <path
       d="m 135.0766,-53.76034 q -1.74184,0.242535 -2.41983,0.56224 -0.19293,0.09371 -0.32522,0.09371 -0.36932,0 -0.79375,-0.308681 -0.34176,-0.242535 -0.34176,-0.435461 0,-0.09371 0.14332,-0.09371 0.0441,0 0.19844,0.03307 0.27009,0.06063 0.46302,0.06063 0.25356,0 1.89618,-0.286632 1.67019,-0.297657 3.04271,-0.474046 0.82683,-0.110243 1.20717,-0.225998 0.2756,-0.08268 0.3638,-0.08268 0.19844,0 0.54019,0.264583 0.30868,0.237023 0.30868,0.463021 0,0.12678 -0.17088,0.12678 -0.11024,0 -0.35277,-0.0441 -0.20395,-0.03859 -0.35278,-0.03859 -0.35829,0 -1.33395,0.110243 l -0.37482,0.0441 q -0.52917,0.06615 -0.79926,0.09371 0.26458,0.308681 0.26458,0.463021 0,0.04961 -0.0276,0.154341 -0.0937,0.325217 -0.0992,0.76619 -0.0221,1.107943 -0.0221,2.083595 0,0.181902 0.011,0.677996 0.006,0.413412 0.006,0.534679 0,1.98989 -0.0661,2.381253 -0.0551,0.352778 -0.226,0.352778 -0.15434,0 -0.3197,-0.275608 -0.34727,-0.573265 -0.34727,-0.97014 0,-0.07166 0.0441,-0.286632 0.15985,-0.771702 0.15985,-2.711982 0,-2.320619 -0.27561,-3.031687 z"
       style="font-weight:bold;font-size:11.2889px;line-height:1.25;font-family:MOESongUN;-inkscape-font-specification:'MOESongUN Bold';letter-spacing:0px;word-spacing:0px;fill:#6a5753;fill-opacity:1;stroke-width:0.264583"
       id="path580" />
    <path
       d="m 146.76789,-47.647357 0.66145,-0.05512 q 1.52136,-0.121268 2.3096,-0.237023 0.14332,-0.02205 0.20946,-0.02205 0.18741,0 0.42444,0.231511 0.30868,0.308681 0.30868,0.556728 0,0.137804 -0.15985,0.137804 -0.0496,0 -0.30869,-0.04961 -0.46853,-0.08268 -0.9095,-0.08268 -0.904,0 -2.21589,0.115756 -1.90169,0.165364 -3.10334,0.523655 -0.26459,0.08268 -0.33073,0.08268 -0.12127,0 -0.39137,-0.143316 -0.26458,-0.143316 -0.45199,-0.314193 -0.14883,-0.137804 -0.14883,-0.253559 0,-0.07166 0.11024,-0.07166 0.0386,0 0.23151,0.02205 0.0772,0.0055 0.22049,0.0055 0.17087,0 0.74965,-0.06063 l 0.47956,-0.07166 1.62609,-0.242534 q 0.0165,-0.650435 0.0441,-1.620575 l 0.011,-0.479558 0.006,-0.15434 q -1.13551,0.137804 -1.58199,0.303168 -0.16536,0.06063 -0.29766,0.06063 -0.24804,0 -0.55672,-0.341754 -0.20395,-0.225998 -0.20395,-0.336241 0,-0.08819 0.0441,-0.20395 0.0717,-0.192926 0.0717,-0.440973 0,-1.868622 -0.3197,-2.645836 -0.0661,-0.159852 -0.0661,-0.198438 0,-0.170876 0.25356,-0.170876 0.22049,0 0.55121,0.170876 0.29766,0.148829 0.29766,0.314193 v 0.02205 q 0,0.03859 -0.0331,0.154341 -0.0661,0.248047 -0.0661,0.611849 0,1.129993 0.0882,1.868622 0.0496,0.385851 0.28663,0.385851 0.0717,0 0.21497,-0.02205 l 1.30639,-0.187413 v -2.039499 q 0,-1.344966 -0.226,-2.006425 -0.0717,-0.220487 -0.0717,-0.259072 0,-0.115755 0.12678,-0.115755 0.33624,0 0.82682,0.363802 0.28663,0.214975 0.28663,0.374827 0,0.06615 -0.0661,0.225999 -0.14883,0.352778 -0.16537,1.477258 l -0.0331,1.907207 0.92604,-0.08268 q 0.92605,-0.08268 1.06936,-0.303168 0.0882,-0.143316 0.18742,-0.931555 0.10473,-0.821312 0.10473,-1.25126 0,-0.501606 -0.0441,-0.655947 -0.0441,-0.15434 -0.0441,-0.209462 0,-0.104731 0.13781,-0.104731 0.28112,0 0.61736,0.270096 0.27561,0.220486 0.27561,0.413412 0,0.09922 -0.10474,0.308681 -0.30316,0.63941 -0.34726,1.730817 l -0.0221,0.562241 q -0.0276,0.655946 -0.55673,0.711068 l -1.46623,0.115755 -0.73312,0.07717 z"
       style="font-weight:bold;font-size:11.2889px;line-height:1.25;font-family:MOESongUN;-inkscape-font-specification:'MOESongUN Bold';letter-spacing:0px;word-spacing:0px;fill:#6a5753;fill-opacity:1;stroke-width:0.264583"
       id="path582" />
    <path
       d="m 155.89603,-51.456258 -0.16537,0.05512 q -0.0937,0.03307 -0.14331,0.03858 -0.0551,0.0055 -0.0551,-0.04961 0,-0.04961 0.0606,-0.09922 l 0.20946,-0.170876 q 1.27882,-1.041798 2.37574,-2.530081 0.62839,-0.854385 0.73312,-1.190626 0.0221,-0.06063 0.0606,-0.303169 0.0221,-0.12678 0.1323,-0.12678 0.21497,0 0.58428,0.325218 0.31971,0.28112 0.31971,0.457509 0,0.110243 -0.28663,0.275608 -0.13229,0.07717 -0.51815,0.578776 -0.8158,1.063847 -1.70325,1.758379 -0.42995,0.341754 -1.00322,0.666971 -0.45199,0.259071 -0.60082,0.314193 z m 2.33715,1.311894 q -0.70555,0.628386 -1.11345,0.903994 -0.9536,0.650434 -1.75838,0.964627 l -0.23702,0.09371 q -0.0496,0.02205 -0.0992,0.02205 -0.0606,0 -0.0606,-0.03858 0,-0.06615 0.0827,-0.132292 l 0.16536,-0.121268 q 1.54341,-1.157553 2.72301,-2.469447 0.5457,-0.611849 1.10794,-1.411112 0.31419,-0.451997 0.39137,-0.672483 0.11024,-0.314194 0.30868,-0.314194 0.25356,0 0.51814,0.192926 0.30317,0.225999 0.30317,0.429948 0,0.06063 -0.13781,0.170877 -0.11575,0.09371 -0.73311,0.859897 -0.24254,0.303169 -0.89849,0.992189 0.49059,0.347265 0.49059,0.56224 0,0.0441 -0.0772,0.20395 -0.0276,0.06615 -0.0276,0.220486 l 0.011,0.501606 0.0221,0.48507 0.0165,0.418924 0.011,0.319705 q 0.0165,0.523655 0.0551,1.014238 0.0276,0.374826 0.0276,0.589801 0,0.804775 -0.38034,0.804775 -0.16536,0 -0.36931,-0.209462 -0.22049,-0.231511 -0.22049,-0.440973 0,-0.04961 0.011,-0.132292 0.12678,-0.727605 0.12678,-1.791451 0,-1.460722 -0.25908,-2.01745 z"
       style="font-weight:bold;font-size:11.2889px;line-height:1.25;font-family:MOESongUN;-inkscape-font-specification:'MOESongUN Bold';letter-spacing:0px;word-spacing:0px;fill:#6a5753;fill-opacity:1;stroke-width:0.264583"
       id="path584" />
    <path
       d="m 167.92907,-51.373576 q -0.17639,1.65916 -0.50161,2.524569 -0.31419,0.84336 -0.90951,1.543404 -0.46302,0.556728 -0.84336,0.799263 l -0.13229,0.08819 q -0.0331,0.02205 -0.0827,0.02205 -0.0496,0 -0.0496,-0.03307 0,-0.04961 0.0551,-0.115755 l 0.11576,-0.137804 q 0.65043,-0.777214 1.05833,-2.061547 0.3638,-1.168578 0.3638,-2.045011 0,-0.683507 -0.20946,-1.185114 -0.0221,-0.05512 -0.0221,-0.104731 0,-0.165365 0.22049,-0.165365 0.17639,0 0.93707,0.181902 l 3.4947,-0.402388 q 0.3142,-1.317406 0.3142,-1.449698 0,-0.225998 -0.29766,-0.225998 -0.48507,0 -1.79696,0.110243 -0.88195,0.07166 -1.31741,0.143316 l -0.25356,0.03859 q -0.25356,0.0441 -0.33624,0.0441 -0.22049,0 -0.50712,-0.308681 -0.27009,-0.292145 -0.27009,-0.440973 0,-0.06615 0.0882,-0.06615 0.0221,0 0.14883,0.02205 0.33073,0.05512 0.48507,0.05512 0.0937,0 0.28112,-0.01102 0.10473,-0.0055 0.42995,-0.01102 0.41892,-0.01103 1.48277,-0.115756 1.24575,-0.209462 1.68121,-0.308681 0.45199,-0.08268 0.50711,-0.08268 0.28664,0 0.66146,0.429948 0.16537,0.187414 0.16537,0.297657 0,0.07166 -0.0882,0.214974 -0.19843,0.33073 -0.38034,0.870921 -0.1819,0.507119 -0.28663,0.837848 0.25356,0.237023 0.25356,0.363803 0,0.137804 -0.22048,0.181901 -0.15435,0.02756 -1.06936,0.104731 -2.25999,0.187413 -3.16949,0.396875 z"
       style="font-weight:bold;font-size:11.2889px;line-height:1.25;font-family:MOESongUN;-inkscape-font-specification:'MOESongUN Bold';letter-spacing:0px;word-spacing:0px;fill:#6a5753;fill-opacity:1;stroke-width:0.264583"
       id="path586" />
    <path
       d="m 178.3305,-54.24541 0.25356,-0.02756 q 1.74736,-0.20395 3.14744,-0.457509 l 0.51264,-0.08819 q 0.42994,-0.08819 0.49609,-0.08819 h 0.011 q 0.19293,0 0.57327,0.28112 0.47956,0.35829 0.47956,0.595313 0,0.04961 -0.14332,0.363803 -0.16537,0.380338 -0.16537,1.163065 0,1.559941 0.0441,2.640324 l 0.0882,2.276521 q 0,0.03858 0,0.05512 0,0.496094 -0.28112,0.84336 -0.17088,0.209462 -0.35278,0.209462 -0.13781,0 -0.32522,-0.242535 -0.14883,-0.187413 -0.23151,-0.248047 -0.17639,-0.132292 -0.75517,-0.132292 -1.16857,0 -2.61276,0.176389 -0.56224,0.07166 -0.82131,0.12678 -0.10473,0.02205 -0.15985,0.02205 -0.1819,0 -0.46854,-0.270095 -0.28112,-0.264584 -0.28112,-0.512631 0,-0.03307 0.011,-0.12678 0.0165,-0.220486 0.0276,-0.683507 0.0276,-1.04731 0.0276,-3.329344 0,-0.953603 -0.17088,-1.53238 -0.022,-0.06063 -0.0496,-0.176389 -0.0165,-0.05512 -0.0992,-0.225999 -0.0331,-0.07166 -0.0331,-0.143316 0,-0.15434 0.22049,-0.15434 0.26458,0 0.62838,0.231511 0.34727,0.220486 0.34727,0.468533 0,0.02205 -0.0772,0.214974 -0.11024,0.297657 -0.11024,2.259985 0,2.430862 0.0386,2.794664 0.0386,0.314193 0.3638,0.286633 l 0.0441,-0.0055 3.57188,-0.198438 q 0.31419,-0.01654 0.39136,-0.104731 0.0772,-0.09371 0.0882,-0.457509 l 0.11575,-5.010552 0.006,-0.05512 q 0.0331,-0.633898 -0.41342,-0.633898 -0.34726,0 -1.25677,0.159852 -1.09141,0.192926 -1.65365,0.33073 -0.41341,0.104731 -0.51814,0.104731 -0.30317,0 -0.65595,-0.347266 -0.13229,-0.12678 -0.13229,-0.20395 0,-0.115755 0.28112,-0.148828 z m 1.14102,2.480471 0.15434,0.09922 q 0.63941,0.385851 1.2678,1.003213 0.44648,0.440973 0.44648,0.804775 0,0.292144 -0.17088,0.479558 -0.11575,0.121267 -0.24253,0.121267 -0.15985,0 -0.3638,-0.391363 -0.34727,-0.677996 -0.93707,-1.576477 l -0.14332,-0.225999 -0.14882,-0.214974 q -0.0276,-0.0441 -0.0276,-0.07717 0,-0.04961 0.0661,-0.04961 0.0496,0 0.0992,0.02756 z"
       style="font-weight:bold;font-size:11.2889px;line-height:1.25;font-family:MOESongUN;-inkscape-font-specification:'MOESongUN Bold';letter-spacing:0px;word-spacing:0px;fill:#6a5753;fill-opacity:1;stroke-width:0.264583"
       id="path588" />
    <path
       d="m 190.19819,-53.655609 q -0.50161,0.07166 -0.97565,0.225998 -0.24254,0.08268 -0.36932,0.08268 -0.29765,0 -0.7276,-0.374827 -0.26459,-0.237023 -0.26459,-0.380339 0,-0.09371 0.12678,-0.09371 0.0496,0 0.11576,0.01654 0.3638,0.08268 0.72209,0.08268 0.31419,0 2.55764,-0.374827 2.11116,-0.35829 2.65686,-0.617361 0.17088,-0.08268 0.23703,-0.08268 0.35829,0 0.92053,0.512631 0.33073,0.297657 0.33073,0.463021 0,0.04961 -0.1323,0.170877 -0.15985,0.143316 -0.27009,0.490582 -0.0717,0.242535 -0.29215,1.405601 -0.21497,1.157553 -0.52365,1.819012 -0.3638,0.782726 -0.94258,0.782726 -0.36931,0 -0.87092,-0.501606 -0.31971,-0.314193 -0.31971,-0.413412 0,-0.07717 0.0827,-0.07717 0.0496,0 0.16536,0.0441 0.31971,0.12678 0.5898,0.12678 0.41341,0 0.61185,-0.341754 0.20946,-0.363802 0.43546,-1.493795 0.23702,-1.185114 0.23702,-1.703257 0,-0.402387 -0.33072,-0.402387 -0.1323,0 -0.33073,0.03307 -0.15434,0.03307 -0.4961,0.08819 l -2.18281,0.352778 0.0331,3.059248 q 0.006,1.984377 0.0772,3.059248 0.011,0.181901 0.011,0.363802 0,0.650435 -0.21497,1.003213 -0.0992,0.165365 -0.21497,0.165365 -0.14883,0 -0.39137,-0.385851 -0.23702,-0.380339 -0.23702,-0.644923 0,-0.198437 0.0882,-0.677995 0.17088,-0.898482 0.17088,-3.020663 0,-1.659159 -0.0827,-2.761591 z"
       style="font-weight:bold;font-size:11.2889px;line-height:1.25;font-family:MOESongUN;-inkscape-font-specification:'MOESongUN Bold';letter-spacing:0px;word-spacing:0px;fill:#6a5753;fill-opacity:1;stroke-width:0.264583"
       id="path590" />
    <path
       d="m 203.02498,-52.784688 q 0.43546,-0.06063 1.03628,-0.115755 1.34497,-0.137804 1.93477,-0.358291 0.11575,-0.0441 0.16536,-0.0441 0.28112,0 0.75517,0.391363 0.28663,0.237023 0.28663,0.374827 0,0.137804 -0.19844,0.137804 -0.11575,0 -0.35277,-0.01654 -0.29215,-0.02205 -0.56224,-0.02205 -1.37804,0 -3.15296,0.270096 l -0.16536,1.118968 q -0.0496,0.319705 -0.0496,0.440972 0,0.242535 0.19292,0.242535 0.15986,0 1.11897,-0.09922 0.69453,-0.06615 0.94258,-0.09922 0.30868,-0.03858 0.46853,-0.03858 0.38034,0 0.70005,0.303168 0.27009,0.259072 0.27009,0.451997 0,0.170877 -0.51263,1.074871 -0.55673,0.975652 -1.16306,1.559941 -0.73863,0.711068 -1.7198,1.12448 l -0.19843,0.08268 q -0.0386,0.01654 -0.0827,0.01654 -0.0717,0 -0.0717,-0.06063 0,-0.07166 0.0717,-0.143316 L 202.8982,-46.352 q 0.022,-0.02205 0.30868,-0.286633 0.85438,-0.788238 1.56545,-1.819012 0.678,-0.986676 0.678,-1.383552 0,-0.176389 -0.2701,-0.176389 -0.66697,0 -1.5434,0.137804 -0.93156,0.143316 -1.20166,0.231511 -0.10473,0.03307 -0.15434,0.03307 -0.15985,0 -0.33072,-0.170877 -0.15435,-0.15434 -0.15435,-0.28112 0,-0.04961 0.0827,-0.248047 0.20946,-0.507119 0.38034,-1.769403 -1.31741,0.159853 -2.35921,0.573264 -0.11024,0.0441 -0.17087,0.0441 -0.18191,0 -0.51815,-0.275608 -0.32522,-0.264584 -0.32522,-0.391363 0,-0.07717 0.41342,-0.110244 0.0386,0 0.71658,-0.09371 l 0.47404,-0.07166 0.66697,-0.09922 0.57878,-0.09371 0.44649,-0.06063 0.14331,-0.02205 q 0.0221,-0.20395 0.0827,-1.339455 l 0.006,-0.396875 0.022,-0.733117 q 0.006,-0.286632 0.17088,-0.286632 0.26459,0 0.65595,0.275607 0.20395,0.143317 0.20395,0.308681 0,0.08819 -0.0992,0.270096 -0.15434,0.292144 -0.28112,1.32843 z"
       style="font-weight:bold;font-size:11.2889px;line-height:1.25;font-family:MOESongUN;-inkscape-font-specification:'MOESongUN Bold';letter-spacing:0px;word-spacing:0px;fill:#6a5753;fill-opacity:1;stroke-width:0.264583"
       id="path592" />
    <path
       d="m 216.86602,-48.452132 -0.25356,0.06615 q -4.15617,1.069359 -5.20348,1.830037 -0.0772,0.05512 -0.12678,0.05512 -0.20946,0 -0.63941,-0.463021 -0.38585,-0.413412 -0.38585,-0.611849 0,-0.132292 0.33624,-0.396876 0.49609,-0.391363 1.65916,-2.497008 0.71658,-1.295357 1.0418,-2.254472 0.18741,-0.556728 0.34726,-1.328431 0.0496,-0.259071 0.0827,-0.385851 0.0441,-0.187413 0.0551,-0.242535 0.0331,-0.209462 0.15985,-0.209462 0.25356,0 0.65595,0.374827 0.42994,0.396876 0.42994,0.650435 0,0.09922 -0.30868,0.589801 l -0.18741,0.303168 q -0.57878,0.937067 -1.53789,2.70647 -1.15204,2.111157 -1.15204,2.271009 0,0.132292 0.17639,0.132292 0.0551,0 0.12126,-0.01654 l 4.4869,-1.058335 -0.37483,-0.804775 q -0.0882,-0.181901 -0.0882,-0.248047 0,-0.06615 0.0551,-0.06615 0.14883,0 0.56775,0.303169 1.41663,1.019749 1.41663,2.248961 0,0.633898 -0.35829,0.633898 -0.17088,0 -0.34176,-0.270096 -0.15985,-0.259071 -0.35277,-0.683508 z"
       style="font-weight:bold;font-size:11.2889px;line-height:1.25;font-family:MOESongUN;-inkscape-font-specification:'MOESongUN Bold';letter-spacing:0px;word-spacing:0px;fill:#6a5753;fill-opacity:1;stroke-width:0.264583"
       id="path594" />
    <path
       d="m -7.1205485,-36.446651 -0.1708769,-0.06063 q -0.314193,-0.104731 -0.9977007,-0.104731 -1.7473539,0 -3.9026079,0.209462 -2.304082,0.220486 -2.91042,0.501606 -0.115755,0.04961 -0.170877,0.04961 -0.192925,0 -0.507118,-0.28112 -0.358291,-0.319705 -0.358291,-0.518143 0,-0.110243 0.143317,-0.110243 0.02756,0 0.325217,0.02205 0.220486,0.01654 0.385851,0.01654 0.672483,0 2.623787,-0.270095 1.17409,-0.165365 3.4285629,-0.352779 0.8268237,-0.07166 1.2677964,-0.198437 0.1102432,-0.03307 0.1984377,-0.03307 0.2756079,0 0.6559468,0.402387 0.2866323,0.308681 0.2866323,0.573265 0,0.187413 -0.1433161,0.187413 -0.060634,0 -0.1543405,-0.03307 z"
       style="font-weight:bold;font-size:11.2889px;line-height:1.25;font-family:MOESongUN;-inkscape-font-specification:'MOESongUN Bold';letter-spacing:0px;word-spacing:0px;fill:#6a5753;fill-opacity:1;stroke-width:0.264583"
       id="path596" />
    <path
       d="m -0.56108,-35.989142 q -1.1796019,-1.003212 -2.4198375,-1.863109 l -0.2370228,-0.170877 q -0.088195,-0.06063 -0.088195,-0.09922 0,-0.06063 0.060634,-0.05512 0.00551,0 0.016536,0.0055 l 0.1874134,0.04961 q 0.5787767,0.159853 1.7363299,0.826824 0.71658061,0.418924 1.09140738,0.677995 0.41892403,-0.810287 0.76067785,-1.857597 0.47404567,-1.449698 0.47404567,-1.885158 0,-0.159853 -0.0606338,-0.292145 -0.0661459,-0.143316 -0.0661459,-0.181901 0,-0.132292 0.1543404,-0.132292 0.242535,0 0.6779955,0.352779 0.4134119,0.341753 0.4134119,0.595313 0,0.09922 -0.1488283,0.209462 -0.1212675,0.08268 -0.1984377,0.20395 -0.1102431,0.176389 -0.3472659,0.931554 -0.44648489,1.444186 -1.0142372,2.513545 1.5489165,1.107943 2.1001324,1.626086 0.556728,0.523655 0.7110684,0.804775 0.2039498,0.374827 0.2039498,0.760678 0,0.369315 -0.2149741,0.529167 -0.071658,0.05512 -0.1598526,0.05512 -0.1929256,0 -0.5181429,-0.4079 -1.2347235,-1.548916 -2.53008072,-2.689933 l -0.07165806,0.09922 q -1.57647732,2.326131 -3.50573272,3.070272 l -0.1929255,0.07717 q -0.016537,0.0055 -0.038585,0.0055 -0.07717,0 -0.07717,-0.06063 0,-0.03858 0.033073,-0.06063 l 0.2645836,-0.198438 q 1.0969195,-0.821311 2.0339864,-2.033986 0.3748268,-0.48507 0.97013989,-1.405601 z"
       style="font-weight:bold;font-size:11.2889px;line-height:1.25;font-family:MOESongUN;-inkscape-font-specification:'MOESongUN Bold';letter-spacing:0px;word-spacing:0px;fill:#6a5753;fill-opacity:1;stroke-width:0.264583"
       id="path598" />
    <path
       d="m 13.809117,-34.533932 0.03307,-4.343581 q 0.0055,-0.711068 -0.33073,-1.146528 -0.08268,-0.110244 -0.08268,-0.192926 0,-0.15434 0.214974,-0.15434 0.435461,0 0.959116,0.347266 0.451997,0.297656 0.451997,0.507118 0,0.08268 -0.07166,0.192926 -0.121268,0.187413 -0.159853,0.314193 -0.07166,0.253559 -0.08819,1.036285 l -0.0882,3.891584 q -0.01102,0.727605 -0.07717,0.837848 -0.08268,0.137804 -0.264584,0.137804 -0.176389,0 -0.385851,-0.214974 l -0.424436,-0.43546 q -1.515844,0.121267 -3.290759,0.352778 -1.1796016,0.15434 -1.576477,0.429948 -0.176389,0.121268 -0.2590714,0.121268 -0.209462,0 -0.5512159,-0.286633 -0.3638024,-0.303168 -0.3638024,-0.48507 0,-0.03858 0.022049,-0.143316 0.033073,-0.176389 0.033073,-0.297656 0,-0.09922 -0.00551,-0.275608 l -0.093707,-3.715195 q -0.022049,-0.799263 -0.2425349,-1.152041 -0.016536,-0.03307 -0.016536,-0.07717 0,-0.104731 0.1653647,-0.104731 0.2976566,0 0.6338982,0.181901 0.4795578,0.259071 0.4795578,0.567752 0,0.04961 -0.055122,0.121268 -0.1157553,0.148828 -0.104731,0.661459 l 0.066146,3.593927 q 0.00551,0.275608 0.066146,0.336242 0.055122,0.06063 0.2039499,0.06063 0.2480471,0 0.4850699,-0.03307 z"
       style="font-weight:bold;font-size:11.2889px;line-height:1.25;font-family:MOESongUN;-inkscape-font-specification:'MOESongUN Bold';letter-spacing:0px;word-spacing:0px;fill:#6a5753;fill-opacity:1;stroke-width:0.264583"
       id="path600" />
    <path
       d="m -11.144424,-23.195422 q 1.4276489,-2.072571 1.9568161,-3.610464 0.1488283,-0.429948 0.3748268,-0.429948 0.2976565,0 0.6779955,0.446485 0.2921444,0.347266 0.2921444,0.595313 0,0.231511 -0.2700958,0.352778 -0.2039499,0.09371 -0.3197052,0.214974 -0.1102431,0.115756 -0.76619,0.959116 -0.4905821,0.622874 -1.0197488,1.20165 -0.45751,0.501607 -0.501607,0.744142 -0.06063,0.325217 -0.04961,0.771702 l 0.02756,1.956816 q 0.01103,0.380339 0.03307,0.821312 0.03307,0.694532 0.03307,0.815799 0,0.413412 -0.20395,0.595313 -0.07166,0.06615 -0.148828,0.06615 -0.248047,0 -0.479558,-0.35829 -0.209462,-0.336242 -0.187413,-0.705556 l 0.0055,-0.07166 0.115756,-3.097833 v -0.05512 q 0,-0.369315 -0.209462,-0.694532 -0.09371,-0.137804 -0.821312,-0.881945 -0.755166,-0.76619 -1.482771,-1.65916 -0.617361,-0.760678 -0.870921,-0.948091 -0.220486,-0.165365 -0.220486,-0.275608 0,-0.341754 0.865409,-0.341754 0.330729,0 0.534679,0.132292 0.121268,0.08268 0.264584,0.35829 0.97014,1.901695 2.370228,3.097833 z"
       style="font-weight:bold;font-size:11.2889px;line-height:1.25;font-family:MOESongUN;-inkscape-font-specification:'MOESongUN Bold';letter-spacing:0px;word-spacing:0px;fill:#6a5753;fill-opacity:1;stroke-width:0.264583"
       id="path602" />
    <path
       d="m -0.43430036,-25.538089 q -1.83003654,0.248047 -2.64032384,0.534679 -0.2645836,0.09371 -0.3748268,0.09371 -0.2811201,0 -0.6724833,-0.319705 -0.3748268,-0.303169 -0.3748268,-0.45751 0,-0.09922 0.1433161,-0.09922 0.022049,0 0.2204864,0.02756 0.3417538,0.0441 0.6504347,0.0441 h 0.07717 q 0.1157553,0 0.7882386,-0.07717 L 1.45637,-26.249158 q 0.7717021,-0.08819 1.3559909,-0.292144 0.1543405,-0.05512 0.2259985,-0.05512 0.2921444,0 0.6559469,0.363803 0.1819012,0.181901 0.1819012,0.297656 0,0.12678 -0.1488283,0.12678 -0.027561,0 -0.3362416,-0.01654 -0.099219,-0.0055 -0.5126308,0.02205 -0.033073,0.0055 -0.4078997,0.02205 -0.4905821,0.02205 -1.89067032,0.15434 l -0.0496094,1.846573 q -0.0275608,1.124481 -0.65043469,1.124481 -0.11024317,0 -0.24804713,-0.08819 -0.0826824,-0.05512 -0.27009576,-0.05512 -0.4685335,0 -0.903994,0.275608 -0.7000441,0.435461 -0.7000441,1.350479 0,0.76619 0.5787766,1.339455 0.661459,0.650434 1.65364756,0.650434 0.81579944,0 1.51584354,-0.429948 0.3527781,-0.214974 0.8819453,-0.810287 0.1653648,-0.187414 0.3582903,-0.187414 0.3858511,0 0.3858511,0.380339 0,0.584289 -0.9591155,1.223699 -0.9315548,0.628387 -2.13320532,0.628387 -1.60403808,0 -2.49700778,-1.080384 -0.6173617,-0.744141 -0.6173617,-1.719793 0,-1.400088 1.0638465,-1.984377 0.4299484,-0.237023 1.3063816,-0.341754 0.27560792,-0.03307 0.31970519,-0.170877 0.0385851,-0.115755 0.0275608,-0.292144 z"
       style="font-weight:bold;font-size:11.2889px;line-height:1.25;font-family:MOESongUN;-inkscape-font-specification:'MOESongUN Bold';letter-spacing:0px;word-spacing:0px;fill:#6a5753;fill-opacity:1;stroke-width:0.264583"
       id="path604" />
    <path
       d="m 11.554644,-24.744338 q 0.402388,-0.05512 0.915018,-0.137804 1.245748,-0.176389 1.73633,-0.325218 0.220487,-0.07166 0.275608,-0.07166 0.25356,0 0.556728,0.292145 0.192926,0.187413 0.192926,0.314193 0,0.165364 -0.325218,0.165364 -0.788238,0 -3.351392,0.336242 l -0.02756,1.8135 q -0.0055,0.336242 -0.06615,0.490582 -0.07166,0.187414 -0.297656,0.187414 -0.09922,0 -0.303169,-0.121268 -0.20395,-0.121267 -0.402387,-0.121267 -0.4850703,0 -0.8819457,0.35829 -0.48507,0.440973 -0.48507,1.107944 0,0.926042 0.8102873,1.438673 0.5512154,0.35829 1.3063814,0.35829 1.383552,0 2.392277,-0.937067 0.225998,-0.209462 0.396875,-0.209462 0.33073,0 0.33073,0.363803 0,0.369315 -0.479558,0.755166 -0.606337,0.490582 -1.554429,0.694532 -0.567752,0.126779 -1.129992,0.126779 -0.804775,0 -1.3725276,-0.253559 -0.6779954,-0.303169 -1.1189681,-0.915018 -0.4244362,-0.584289 -0.4244362,-1.37804 0,-1.262284 1.0858952,-1.824524 0.4134119,-0.209462 1.2512597,-0.297657 0.176389,-0.01654 0.242535,-0.121267 0.06615,-0.09922 0.06615,-0.48507 v -0.05512 l -0.02205,-0.848872 q -2.2985696,0.325217 -2.7119814,0.523655 -0.1984377,0.09371 -0.2866323,0.09371 -0.3968754,0 -0.8874575,-0.43546 -0.1929255,-0.176389 -0.1929255,-0.286632 0,-0.104731 0.099219,-0.104731 0.038585,0 0.1598526,0.02205 0.242535,0.04961 0.7220928,0.04961 0.060634,0 0.7000441,-0.09922 l 0.3252173,-0.05512 2.0560349,-0.319705 -0.0441,-0.777214 q -0.04961,-0.865409 -0.242535,-1.350479 -0.0441,-0.110243 -0.0441,-0.181901 0,-0.165365 0.23151,-0.165365 0.418924,0 0.749654,0.176389 0.275608,0.148828 0.275608,0.303169 0,0.06615 -0.0441,0.170877 -0.148828,0.374826 -0.165364,1.080383 z"
       style="font-weight:bold;font-size:11.2889px;line-height:1.25;font-family:MOESongUN;-inkscape-font-specification:'MOESongUN Bold';letter-spacing:0px;word-spacing:0px;fill:#6a5753;fill-opacity:1;stroke-width:0.264583"
       id="path606" />
    <path
       d="m 24.513727,-23.768686 q 0.203949,-0.03307 0.628386,-0.115756 0.43546,-0.08819 0.63941,-0.137804 0.170877,-0.0441 0.231511,-0.0441 0.192925,0 0.418924,0.181901 0.314193,0.25356 0.314193,0.490582 0,0.154341 -0.187414,0.154341 -0.03859,0 -0.115755,-0.01103 -0.286632,-0.04961 -0.474046,-0.04961 -0.672483,0 -1.466234,0.104731 -0.110243,1.774915 -0.429948,2.596227 -0.209462,0.529167 -0.35829,0.529167 -0.121268,0 -0.110244,-0.154341 0,-0.02756 0.0055,-0.06063 l 0.0441,-0.248047 q 0.176389,-1.069359 0.181901,-2.563154 -0.749653,0.09922 -2.188327,0.363802 l -0.622874,0.115756 q 0.04961,1.846573 0.181902,2.574178 0.110243,0.622874 0.468533,0.848872 0.363802,0.225999 1.135505,0.225999 0.915018,0 2.089108,-0.33073 0.308681,-0.08819 0.424436,-0.08819 0.165365,0 0.286632,0.09922 0.143316,0.115756 0.143316,0.303169 0,0.760678 -2.497008,0.760678 -1.68672,0 -2.265497,-0.705556 -0.446484,-0.545704 -0.595313,-2.116669 -0.0441,-0.501607 -0.104731,-1.45521 -0.71658,0.143316 -1.256772,0.363802 -0.104731,0.0441 -0.198438,0.0441 -0.220486,0 -0.622873,-0.270096 -0.413412,-0.28112 -0.413412,-0.413412 0,-0.08819 0.126779,-0.09371 l 0.457509,-0.02205 q 1.058335,-0.03859 1.907207,-0.159853 v -0.810287 q 0,-0.997701 -0.09922,-1.394576 -0.07166,-0.264584 -0.275608,-0.584289 -0.06063,-0.09922 -0.06063,-0.15434 0,-0.159853 0.253559,-0.159853 0.259071,0 0.584289,0.143316 0.479558,0.214974 0.479558,0.523655 0,0.08268 -0.03307,0.253559 -0.05512,0.347266 -0.09371,1.141017 -0.02756,0.573265 -0.03307,0.898482 l 2.816713,-0.446485 q 0.0055,-0.225998 0.0055,-0.429948 0,-0.07717 -0.01654,-0.523655 0,-0.110243 -0.0055,-0.4079 -0.01102,-0.523655 -0.06063,-0.815799 -0.0441,-0.275608 -0.214974,-0.53468 -0.104731,-0.159852 -0.104731,-0.220486 0,-0.12678 0.176389,-0.12678 0.341753,0 0.722092,0.264584 0.451997,0.308681 0.451997,0.551216 0,0.06615 -0.07717,0.259071 -0.165365,0.440973 -0.192925,1.857598 z"
       style="font-weight:bold;font-size:11.2889px;line-height:1.25;font-family:MOESongUN;-inkscape-font-specification:'MOESongUN Bold';letter-spacing:0px;word-spacing:0px;fill:#6a5753;fill-opacity:1;stroke-width:0.264583"
       id="path608" />
    <path
       d="m 33.162305,-25.808185 q -1.8135,0.297657 -2.293058,0.507119 -0.165365,0.07166 -0.220486,0.07166 -0.231511,0 -0.584289,-0.4079 -0.209462,-0.248047 -0.209462,-0.336242 0,-0.09371 0.104731,-0.09371 0.07166,0 0.325217,0.03859 0.08819,0.01102 0.176389,0.01102 0.198438,0 0.848873,-0.09371 l 3.974266,-0.573264 q 0.589801,-0.08268 0.937067,-0.225999 0.09922,-0.03859 0.15434,-0.03859 0.170877,0 0.540192,0.297657 0.341754,0.270096 0.352778,0.518143 0.0055,0.110243 -0.121267,0.110243 -0.07717,0 -0.259072,-0.03859 -0.220486,-0.04961 -0.518143,-0.04961 -1.212675,0 -2.689933,0.248047 0.727605,0.451997 0.727605,0.804776 0,0.07166 -0.110243,0.237022 -0.198438,0.28112 -0.468534,1.488283 l 0.435461,-0.08268 q 0.964627,-0.187414 1.433161,-0.4079 0.181901,-0.08268 0.292144,-0.08268 0.187414,0 0.48507,0.28112 0.325218,0.314193 0.325218,0.578776 0,0.09371 -0.159853,0.347266 -0.08819,0.137804 -0.325217,1.052823 -0.496095,1.918231 -1.510332,3.323831 l -0.143316,0.192926 q -0.07166,0.09922 -0.148828,0.09922 -0.07166,0 -0.07166,-0.08819 0,-0.06063 0.03307,-0.15434 l 0.06063,-0.181902 q 0.03859,-0.115755 0.181902,-0.51263 0.490582,-1.333943 0.832336,-2.844274 l 0.08268,-0.347266 q 0.09371,-0.556728 0.09371,-0.650435 0,-0.209462 -0.25356,-0.209462 -0.148828,0 -0.959115,0.137804 l -0.876433,0.170877 q -0.628386,1.703257 -1.416625,2.794664 -0.926043,1.278821 -1.73633,1.714282 l -0.137804,0.07717 q -0.01102,0.0055 -0.02756,0.0055 -0.06063,0 -0.06063,-0.05512 0,-0.04961 0.04961,-0.09922 l 0.165365,-0.181902 q 0.661459,-0.705556 1.262284,-1.725305 0.4079,-0.700044 0.997701,-2.160766 l 0.07717,-0.192926 q -1.289845,0.336242 -1.94028,0.644923 -0.110243,0.05512 -0.176389,0.05512 -0.137804,0 -0.292144,-0.176389 -0.159853,-0.187413 -0.159853,-0.347266 0,-0.08819 0.15434,-0.43546 0.187414,-0.413412 0.325218,-1.190627 l 0.06615,-0.347266 q 0.04961,-0.303168 0.07166,-0.363802 0.02756,-0.04961 0.09371,-0.04961 0.220487,0 0.540192,0.292144 0.165365,0.15434 0.165365,0.264584 0,0.07717 -0.159853,0.303168 -0.03859,0.05512 -0.115755,0.292145 -0.09371,0.297656 -0.09371,0.507118 0,0.248047 0.181901,0.248047 0.07166,0 0.286633,-0.0441 l 1.27882,-0.270096 q 0.231511,-1.036285 0.231511,-1.934767 0,-0.413412 -0.104731,-0.722093 z"
       style="font-weight:bold;font-size:11.2889px;line-height:1.25;font-family:MOESongUN;-inkscape-font-specification:'MOESongUN Bold';letter-spacing:0px;word-spacing:0px;fill:#6a5753;fill-opacity:1;stroke-width:0.264583"
       id="path610" />
    <path
       d="m 48.92708,-19.700714 0.413412,0.187414 q 0.137804,0.06063 0.137804,0.121267 0,0.09371 -0.286632,0.225999 -0.606338,0.275608 -1.008725,0.275608 -0.45751,0 -1.675697,-0.992189 -2.485983,-2.028474 -3.935681,-4.795578 -0.237023,-0.451997 -0.413412,-0.451997 -0.23151,0 -0.666971,0.501607 -0.20395,0.231511 -0.424436,0.231511 -0.231511,0 -0.446485,-0.159853 -0.132292,-0.09922 -0.132292,-0.198438 0,-0.07166 0.259072,-0.237023 0.677995,-0.413411 1.129992,-0.837848 0.259072,-0.242535 0.418924,-0.242535 0.198438,0 0.292145,0.148829 0.0441,0.07166 0.214974,0.501606 0.374827,0.964628 1.389064,2.2214 1.741842,2.160766 4.734944,3.50022 z"
       style="font-weight:bold;font-size:11.2889px;line-height:1.25;font-family:MOESongUN;-inkscape-font-specification:'MOESongUN Bold';letter-spacing:0px;word-spacing:0px;fill:#6a5753;fill-opacity:1;stroke-width:0.264583"
       id="path612" />
    <path
       d="m 58.435547,-19.584958 -3.676609,1.080383 q -0.523655,0.15434 -0.8158,0.336242 -0.115755,0.07166 -0.198437,0.07166 -0.110244,0 -0.363803,-0.237023 -0.463021,-0.440973 -0.463021,-0.655947 0,-0.148828 0.35829,-0.457509 0.501607,-0.424436 2.111157,-2.342668 l -1.852085,-0.788238 q -0.4079,-0.170877 -0.4079,-0.468534 0,-0.20395 0.159852,-0.396875 0.05512,-0.07166 0.385852,-0.418924 0.694532,-0.744141 1.262284,-1.554429 0.650435,-0.931555 0.749653,-1.256772 0.0441,-0.15434 0.137804,-0.15434 0.181902,0 0.396876,0.308681 0.137804,0.192925 0.137804,0.413411 0,0.137804 -0.165365,0.264584 -0.20395,0.148828 -0.926043,1.058334 -1.102431,1.367016 -1.102431,1.548917 0,0.143316 0.253559,0.248047 l 1.499307,0.622874 q 0.297657,-0.369315 0.926043,-1.135505 0.84336,-1.025261 1.12448,-1.631599 0.06615,-0.143316 0.15434,-0.143316 0.176389,0 0.424437,0.308681 0.330729,0.413412 0.330729,0.749654 0,0.20395 -0.270096,0.330729 -0.341754,0.159853 -0.738629,0.518143 -0.341754,0.308681 -1.179602,1.218187 -2.232424,2.430862 -2.232424,2.83325 0,0.121267 0.121268,0.121267 0.09922,0 0.275607,-0.0441 l 3.356905,-0.788239 -0.529167,-0.909506 q -0.03307,-0.05512 -0.03307,-0.104731 0,-0.03858 0.0441,-0.03858 0.03858,0 0.09371,0.03307 l 0.170877,0.09371 q 0.457509,0.259071 1.030773,0.859896 0.589801,0.617362 0.589801,1.09692 0,0.253559 -0.137804,0.451997 -0.115755,0.165365 -0.28112,0.165365 -0.159852,0 -0.253559,-0.159853 -0.06615,-0.110243 -0.259072,-0.573265 -0.115755,-0.270095 -0.209462,-0.474045 z"
       style="font-weight:bold;font-size:11.2889px;line-height:1.25;font-family:MOESongUN;-inkscape-font-specification:'MOESongUN Bold';letter-spacing:0px;word-spacing:0px;fill:#6a5753;fill-opacity:1;stroke-width:0.264583"
       id="path614" />
    <path
       d="m 67.789682,-21.966211 q 0.110243,-0.181901 0.347266,-0.567752 0.518143,-0.837848 1.030774,-1.945792 0.451997,-0.975652 0.451997,-1.207163 0,-0.126779 -0.148829,-0.126779 -0.176389,0 -1.190626,0.297656 -1.68672,0.496095 -2.116669,0.804776 -0.15434,0.115755 -0.270095,0.115755 -0.385851,0 -0.881946,-0.292145 -0.347266,-0.203949 -0.347266,-0.35829 0,-0.08819 0.53468,-0.148828 0.440972,-0.0441 2.287545,-0.446485 1.670184,-0.43546 2.105645,-0.650435 0.28112,-0.143316 0.35829,-0.143316 0.264584,0 0.8158,0.540192 0.248047,0.242535 0.248047,0.429948 0,0.09922 -0.264584,0.336242 -0.242535,0.214974 -0.755166,1.317406 -0.595313,1.289845 -1.416624,2.447398 1.317406,0.76619 1.802476,1.129992 0.926042,0.694532 0.926042,1.570966 0,0.440972 -0.237023,0.440972 -0.121267,0 -0.501606,-0.319705 -0.523655,-0.512631 -1.598526,-1.4056 l -0.4079,-0.325218 q -0.413412,-0.325217 -0.556728,-0.43546 -1.207162,1.207162 -2.182814,1.802476 -1.107944,0.672483 -1.868622,0.821311 l -0.137804,0.02756 q -0.09371,0.01654 -0.08819,-0.05512 0,-0.04961 0.04961,-0.07717 l 0.220486,-0.126779 q 1.118968,-0.633899 1.934768,-1.350479 0.677995,-0.589801 1.416624,-1.526868 -0.832336,-0.639411 -1.907206,-1.234724 l -0.209462,-0.115755 q -0.07717,-0.0441 -0.07717,-0.09371 0,-0.06615 0.07166,-0.06615 0.02205,0 0.132292,0.02205 l 0.237023,0.05512 q 1.190626,0.253559 2.193839,0.859896 z"
       style="font-weight:bold;font-size:11.2889px;line-height:1.25;font-family:MOESongUN;-inkscape-font-specification:'MOESongUN Bold';letter-spacing:0px;word-spacing:0px;fill:#6a5753;fill-opacity:1;stroke-width:0.264583"
       id="path616" />
    <path
       d="m 80.087309,-23.774199 q 0.413412,-0.0441 0.661459,-0.07717 0.231511,-0.03307 0.369315,-0.03307 0.463021,0 0.909506,0.451997 0.303169,0.308681 0.303169,0.606338 0,0.132291 -0.159853,0.429948 -0.0441,0.08268 -0.187413,0.4079 -0.644923,1.460722 -1.306382,2.37574 -0.622874,0.854385 -1.604038,1.515844 l -0.187413,0.126779 q -0.04961,0.03307 -0.09922,0.03307 -0.07717,0 -0.07166,-0.06063 0,-0.05512 0.05512,-0.121267 l 0.115756,-0.143316 q 1.058334,-1.317406 1.659159,-2.590715 0.705557,-1.488282 0.705557,-2.028474 0,-0.308681 -0.380339,-0.308681 -0.644923,0 -2.998614,0.396876 -1.400089,0.23151 -1.791452,0.391363 -0.09371,0.03859 -0.143316,0.03859 -0.165365,0 -0.363802,-0.28112 -0.159853,-0.220486 -0.159853,-0.418924 0,-0.148828 0.15434,-0.319705 0.242535,-0.275608 0.529168,-0.859897 0.336241,-0.677996 0.457509,-1.185114 -0.275608,-0.0882 -0.551216,-0.259072 -0.396875,-0.248047 -0.396875,-0.43546 0,-0.115755 0.28112,-0.12678 2.756079,-0.137804 4.701871,-0.755165 0.137804,-0.0441 0.209462,-0.0441 0.314193,0 0.788238,0.424437 0.270096,0.242535 0.270096,0.385851 0,0.06615 -0.248047,0.253559 -0.297656,0.231511 -0.815799,1.074871 -0.05512,0.07717 -0.242535,0.380339 -0.225999,0.352778 -0.463022,0.755165 z m -0.617361,0.08819 q 0.08819,-0.198438 0.270095,-0.606337 0.110244,-0.248048 0.4079,-0.975652 l 0.137804,-0.325218 q 0.159853,-0.429948 0.159853,-0.468533 0,-0.137804 -0.275608,-0.137804 -0.518143,0 -2.513544,0.446485 -0.33073,0.07717 -0.479558,0.126779 0.148828,0.248047 0.148828,0.363803 0,0.104731 -0.225998,0.457509 -0.259072,0.413412 -0.523656,1.003213 -0.159852,0.347266 -0.159852,0.451997 0,0.148828 0.143316,0.148828 0.104731,0 0.292144,-0.03307 l 0.303169,-0.04961 0.534679,-0.0882 q 0.97014,-0.15434 1.780428,-0.314193 z"
       style="font-weight:bold;font-size:11.2889px;line-height:1.25;font-family:MOESongUN;-inkscape-font-specification:'MOESongUN Bold';letter-spacing:0px;word-spacing:0px;fill:#6a5753;fill-opacity:1;stroke-width:0.264583"
       id="path618" />
    <path
       d="m 90.9628,-18.366771 -0.308681,0.259071 q -0.02756,0.02205 -0.06063,0.02205 -0.04961,0 -0.04961,-0.04961 0,-0.03859 0.02756,-0.07166 l 0.23151,-0.319705 q 0.744142,-1.014237 1.339455,-2.078083 0.20395,-0.358291 0.534679,-1.052823 0.198438,-0.413412 0.198438,-0.518143 0,-0.165364 -0.237023,-0.165364 -0.02756,0 -0.402388,0.02756 -3.571878,0.225999 -5.016064,0.68902 -0.09922,0.03307 -0.198437,0.03307 -0.264584,0 -0.562241,-0.220486 -0.286632,-0.209462 -0.286632,-0.446485 0,-0.159853 0.159853,-0.545704 0.292144,-0.711068 0.523655,-1.637111 0.198437,-0.810287 0.198437,-1.322918 0,-0.325217 -0.104731,-0.672483 -0.03859,-0.132292 -0.03859,-0.181901 0,-0.159853 0.220487,-0.159853 0.325217,0 0.727605,0.264584 0.336241,0.225998 0.336241,0.429948 0,0.07717 -0.165365,0.336242 -0.137803,0.20395 -0.347265,1.003213 -0.413412,1.537892 -0.413412,1.956816 0,0.253559 0.319705,0.253559 0.170877,0 0.959115,-0.115755 0.639411,-0.09371 1.752867,-0.231511 l 0.501606,-0.06063 q 1.168578,-0.137804 1.422137,-0.187413 0.369315,-0.07166 0.650435,-0.198438 0.292144,-0.126779 0.363802,-0.126779 0.20395,0 0.595313,0.429948 0.33073,0.35829 0.33073,0.567752 0,0.09922 -0.242535,0.314193 -0.225999,0.192926 -0.595313,0.898482 -0.876433,1.642623 -2.364716,2.877347 z"
       style="font-weight:bold;font-size:11.2889px;line-height:1.25;font-family:MOESongUN;-inkscape-font-specification:'MOESongUN Bold';letter-spacing:0px;word-spacing:0px;fill:#6a5753;fill-opacity:1;stroke-width:0.264583"
       id="path620" />
    <path
       d="m 101.69497,-23.289129 q 0.3142,0.385851 0.3142,0.633899 0,0.08819 -0.0551,0.424436 -0.0937,0.584289 -0.11025,1.989889 l -0.011,0.788239 q -0.006,0.391363 0.0772,0.573264 0.13229,0.292144 0.73312,0.292144 1.27882,0 2.20486,-0.336241 0.11575,-0.0441 0.17639,-0.0441 0.24804,0 0.49609,0.292144 0.14332,0.176389 0.14332,0.341754 0,0.275608 -0.72209,0.407899 -0.79376,0.154341 -1.72531,0.154341 -1.14653,0 -1.60404,-0.242535 -0.57877,-0.303169 -0.5457,-1.317406 l 0.0992,-3.075784 q -0.61185,1.53238 -1.405604,2.519056 -0.556728,0.694532 -1.129992,1.107944 -0.650435,0.474046 -1.229211,0.694532 l -0.132292,0.04961 q -0.02205,0.01103 -0.0441,0.01103 -0.07717,0.0055 -0.07717,-0.06063 0,-0.05512 0.06615,-0.115755 l 0.143316,-0.12678 q 1.04731,-0.920531 1.901695,-2.243449 0.744138,-1.141016 1.240238,-2.524568 -1.074873,0.159853 -2.033989,0.457509 -0.187413,0.06063 -0.275608,0.06063 -0.20395,0 -0.418924,-0.209462 -0.308681,-0.303169 -0.308681,-0.457509 0,-0.08819 0.08819,-0.08819 0.01654,0 0.15434,0.02756 0.07166,0.01654 0.242535,0.01654 0.314193,0 0.793751,-0.08819 0.04961,-0.0055 0.418924,-0.06615 0.490582,-0.08268 1.565452,-0.286632 0.18191,-0.606338 0.34176,-1.422137 0.15985,-0.8158 0.15985,-1.25126 0,-0.259072 -0.10473,-0.457509 -0.0606,-0.110243 -0.0606,-0.165365 0,-0.115755 0.14882,-0.115755 0.36381,0 0.82132,0.314193 0.3638,0.253559 0.3638,0.51263 0,0.06063 -0.12678,0.231511 -0.10473,0.143316 -0.3638,1.256772 -0.0937,0.413412 -0.25356,0.915018 1.83003,-0.220486 2.53559,-0.43546 0.17639,-0.04961 0.2701,-0.04961 0.25355,0 0.53467,0.30868 0.24254,0.264584 0.24254,0.446485 0,0.132292 -0.16537,0.132292 -0.0772,0 -0.30868,-0.02756 -0.0496,-0.0055 -0.12126,-0.0055 -0.91502,0 -2.9435,0.253559 z"
       style="font-weight:bold;font-size:11.2889px;line-height:1.25;font-family:MOESongUN;-inkscape-font-specification:'MOESongUN Bold';letter-spacing:0px;word-spacing:0px;fill:#6a5753;fill-opacity:1;stroke-width:0.264583"
       id="path622" />
    <path
       d="m 112.56494,-24.573462 -2.67339,4.635726 q -0.0717,0.121267 -0.0717,0.198437 0,0.08819 0.0937,0.08819 0.011,0 0.0496,0 0.0441,-0.0055 0.21497,-0.01102 2.87183,-0.12678 4.87826,-0.68902 0.25356,-0.07166 0.42995,-0.07166 0.34175,0 0.76068,0.303168 0.52365,0.380339 0.52365,0.677996 0,0.214974 -0.21497,0.214974 -0.0606,0 -0.43546,-0.09922 -0.51263,-0.132292 -1.42214,-0.132292 -1.24575,0 -3.37895,0.325218 -1.43316,0.214974 -2.00092,0.589801 -0.0661,0.03859 -0.11575,0.03859 -0.1819,0 -0.50161,-0.374827 -0.23151,-0.270096 -0.23151,-0.463021 0,-0.104731 0.1378,-0.25356 0.59532,-0.633898 1.67019,-2.662372 1.03077,-1.929255 1.37804,-2.734031 0.28663,-0.655946 0.31419,-1.256772 0.006,-0.15434 0.13229,-0.15434 0.28112,0 0.65044,0.380339 0.4079,0.418924 0.4079,0.738629 0,0.09922 -0.17639,0.209462 -0.20946,0.132292 -0.41893,0.501606 z"
       style="font-weight:bold;font-size:11.2889px;line-height:1.25;font-family:MOESongUN;-inkscape-font-specification:'MOESongUN Bold';letter-spacing:0px;word-spacing:0px;fill:#6a5753;fill-opacity:1;stroke-width:0.264583"
       id="path624" />
    <path
       d="m 123.91999,-19.529837 v -5.655474 q 0,-0.821312 -0.226,-1.218187 -0.0606,-0.104731 -0.0606,-0.154341 0,-0.132291 0.20946,-0.132291 0.35278,0 0.72761,0.220486 0.44648,0.259071 0.44648,0.507119 0,0.04961 -0.0772,0.170876 -0.1819,0.286633 -0.1819,1.328431 v 4.839675 q 0,0.479557 0.2701,0.611849 0.27009,0.137804 0.98668,0.137804 0.83233,0 1.23472,-0.237023 0.29766,-0.176389 0.43546,-0.176389 0.38034,0 0.70556,0.341754 0.11575,0.121268 0.11575,0.237023 0,0.490582 -2.4474,0.490582 -1.33945,0 -1.73082,-0.253559 -0.40789,-0.264584 -0.40789,-1.058335 z m -4.18373,1.058335 -0.14883,0.104731 q -0.0331,0.02205 -0.0717,0.02205 -0.0441,0 -0.0441,-0.04961 0,-0.03859 0.0331,-0.07717 l 0.14331,-0.181901 q 1.12999,-1.372528 1.58199,-3.59944 0.30868,-1.510331 0.30868,-2.667885 0,-0.760677 -0.25907,-1.157553 -0.0165,-0.02756 -0.0165,-0.07717 0,-0.137804 0.16537,-0.137804 0.16536,0 0.452,0.143316 0.62838,0.319705 0.62838,0.56224 0,0.04961 -0.0937,0.187414 -0.12678,0.187413 -0.18191,1.185114 -0.10473,1.951304 -0.43546,2.971053 -0.5457,1.686721 -2.06154,2.772616 z"
       style="font-weight:bold;font-size:11.2889px;line-height:1.25;font-family:MOESongUN;-inkscape-font-specification:'MOESongUN Bold';letter-spacing:0px;word-spacing:0px;fill:#6a5753;fill-opacity:1;stroke-width:0.264583"
       id="path626" />
    <path
       d="m -11.442081,-10.048924 q 0.68902,0 1.190627,0.4905819 0.5126303,0.5071186 0.5126303,1.2292113 0,0.7055563 -0.5016063,1.2126749 -0.507119,0.5016064 -1.212675,0.5016064 -0.722093,0 -1.229211,-0.5181429 -0.490582,-0.5016064 -0.490582,-1.1961384 0,-0.733117 0.534679,-1.2457478 0.490582,-0.4740454 1.196138,-0.4740454 z"
       style="font-weight:bold;font-size:11.2889px;line-height:1.25;font-family:MOESongUN;-inkscape-font-specification:'MOESongUN Bold';letter-spacing:0px;word-spacing:0px;fill:#6a5753;fill-opacity:1;stroke-width:0.264583"
       id="path628" />
    <path
       d="m 2.4044612,-10.721408 -0.3582903,0.48507 q -0.088194,0.121268 -1.3890639,1.7142817 -0.77170217,0.9095061 -1.10243168,1.3174059 -0.36380245,0.4519969 -0.74965352,0.9205304 -0.3197052,0.3858511 -0.3582903,0.4409727 -0.1819012,0.2425349 -0.314193,0.2425349 -0.3197052,0 -0.8598967,-0.6338982 -0.170877,-0.2039498 -0.170877,-0.3252173 0,-0.099219 0.1102432,-0.1874134 l 0.1653648,-0.1212675 0.2039498,-0.1543404 q 0.870921,-0.5677523 1.89618251,-1.4552098 0.88194534,-0.7661901 1.36701528,-1.2402357 0.11024316,-0.104731 0.49058211,-0.4850703 0.2700957,-0.264583 0.4023875,-0.391363 l 0.3748268,-0.35829 q 0.1488283,-0.137804 0.2204864,-0.137804 0.1598525,0 0.1598525,0.165365 0,0.08268 -0.088194,0.203949 z"
       style="font-weight:bold;font-size:11.2889px;line-height:1.25;font-family:MOESongUN;-inkscape-font-specification:'MOESongUN Bold';letter-spacing:0px;word-spacing:0px;fill:#6a5753;fill-opacity:1;stroke-width:0.264583"
       id="path630" />
    <path
       d="m 8.418226,-11.101746 0.2921444,0.440972 q 0.1763891,0.270096 0.589801,0.9811644 0.5512158,0.937067 1.0142366,1.6646719 0.209463,0.3362416 0.270096,0.4299483 0.363803,0.6008253 0.474046,0.6008253 0.09371,0 0.259071,-0.2480471 0.08268,-0.1267797 0.606338,-1.0142372 l 0.446485,-0.7055563 0.474045,-0.7606778 0.253559,-0.3803385 q 0.148829,-0.225999 0.259072,-0.396876 0.121267,-0.187413 0.137804,-0.209462 l 0.336242,-0.479558 q 0.181901,-0.264583 0.330729,-0.264583 0.198438,0 0.198438,0.20395 0,0.126779 -0.110243,0.352778 l -0.270096,0.534679 q -0.297657,0.6008254 -0.622874,1.2677965 -0.771702,1.5930138 -1.482771,2.921444 -0.264583,0.4960942 -0.385851,0.6394104 -0.198437,0.2259985 -0.385851,0.2259985 -0.297656,0 -0.622874,-0.5457037 Q 9.7907534,-7.0062127 9.0300756,-8.615763 L 8.0433992,-10.67731 7.9221318,-10.941894 q -0.066146,-0.132292 -0.066146,-0.253559 0,-0.214974 0.1819012,-0.214974 0.1819012,0 0.380339,0.308681 z"
       style="font-weight:bold;font-size:11.2889px;line-height:1.25;font-family:MOESongUN;-inkscape-font-specification:'MOESongUN Bold';letter-spacing:0px;word-spacing:0px;fill:#6a5753;fill-opacity:1;stroke-width:0.264583"
       id="path632" />
    <path
       d="M 24.789335,-5.622661 24.57436,-5.8100744 q -0.07166,-0.060634 -0.20395,-0.1984377 -1.218187,-1.2953572 -2.541105,-2.3922767 -1.333942,-1.1079439 -1.874133,-1.4221369 -0.275608,-0.1598526 -0.275608,-0.3031683 0,-0.198438 0.418924,-0.595314 0.363802,-0.341753 0.578776,-0.341753 0.09371,0 0.270096,0.15434 0.09922,0.08268 0.722093,0.793751 l 0.48507,0.5898009 q 0.617362,0.733117 1.565453,1.9237432 0.986676,1.2347235 1.129992,1.4441855 l 0.148829,0.2094621 q 0.104731,0.1543404 0.104731,0.2590714 0,0.137804 -0.137804,0.137804 -0.09371,0 -0.176389,-0.071658 z"
       style="font-weight:bold;font-size:11.2889px;line-height:1.25;font-family:MOESongUN;-inkscape-font-specification:'MOESongUN Bold';letter-spacing:0px;word-spacing:0px;fill:#6a5753;fill-opacity:1;stroke-width:0.264583"
       id="path634" />
    <g
       id="g3570">
      <rect
         style="fill:none;fill-opacity:0.6;stroke-width:0.0833395"
         id="rect233"
         width="29.229391"
         height="29.229391"
         x="9.0827417"
         y="4.9051642"
         inkscape:export-xdpi="96"
         inkscape:export-ydpi="96" />
      <path
         d="m 22.002903,30.017864 -0.597118,-0.613257 q -0.209804,-0.209804 -0.209804,-0.322766 0.0161,-0.161378 0.193672,-0.161378 0.06456,0 0.129114,0.03226 l 0.774638,0.403458 q 1.888187,0.984439 2.61441,0.984439 1.436312,0 3.437463,-3.582709 1.968878,-3.534294 3.017868,-8.21441 0.532565,-2.340058 0.532565,-3.211526 0,-1.27493 -0.968301,-1.27493 -1.500863,0 -7.552735,1.065131 -5.890494,1.048991 -9.053607,2.388472 -0.209804,0.09682 -0.403458,0.09682 -0.742363,0 -1.484727,-1.274927 -0.322767,-0.548705 -0.322767,-0.919885 0,-0.371183 0.580981,-1.000577 1.404035,-1.452449 3.163112,-5.1965424 0.952161,-2.0172922 0.968299,-3.1631128 0.01611,-0.5325641 0.38732,-0.5325641 0.532564,0 1.420173,0.5325641 1.323346,0.806917 1.323346,1.4201736 0,0.2098033 -0.548705,0.7585003 -0.613256,0.5971186 -1.920461,2.9210383 -1.597696,2.79193 -1.597696,3.179251 0,0.468012 0.613257,0.468012 0.451874,0 1.258791,-0.161378 1.000574,-0.193672 3.727955,-0.629394 8.03689,-1.242651 9.812104,-2.03343 0.484151,-0.209805 0.774641,-0.209805 0.742363,0 2.162536,1.436312 1.04899,1.065128 1.04899,1.742939 0,0.209804 -0.403458,0.661673 -0.516426,0.548702 -1.307202,3.679539 -1.629972,6.584437 -3.873202,10.215562 -1.210373,2.001154 -2.59827,3.066283 -1.226513,0.95216 -2.065706,0.95216 -0.435733,0 -0.984439,-0.903747 l -0.145246,-0.225932 q -0.629394,-1.097407 -1.904324,-2.372334 z"
         style="font-weight:bold;font-size:11.2889px;line-height:1.25;font-family:MOESongUN;-inkscape-font-specification:'MOESongUN Bold';letter-spacing:0px;word-spacing:0px;fill:#6a5753;fill-opacity:1;stroke-width:0.774638"
         id="path554-5"
         inkscape:export-xdpi="96"
         inkscape:export-ydpi="96" />
    </g>
  </g>
</svg>
