<?xml version="1.0" encoding="UTF-8" standalone="no"?>
<svg
   xmlns:dc="http://purl.org/dc/elements/1.1/"
   xmlns:cc="http://creativecommons.org/ns#"
   xmlns:rdf="http://www.w3.org/1999/02/22-rdf-syntax-ns#"
   xmlns:svg="http://www.w3.org/2000/svg"
   xmlns="http://www.w3.org/2000/svg"
   xmlns:sodipodi="http://sodipodi.sourceforge.net/DTD/sodipodi-0.dtd"
   xmlns:inkscape="http://www.inkscape.org/namespaces/inkscape"
   width="24mm"
   height="24mm"
   viewBox="0 0 24 24"
   version="1.1"
   id="svg3065"
   inkscape:version="1.0.1 (3bc2e813f5, 2020-09-07)"
   sodipodi:docname="guileless_bopomofo_keyboard-ai.svg">
  <defs
     id="defs3059" />
  <sodipodi:namedview
     id="base"
     pagecolor="#ffffff"
     bordercolor="#666666"
     borderopacity="1.0"
     inkscape:pageopacity="0.0"
     inkscape:pageshadow="2"
     inkscape:zoom="0.35"
     inkscape:cx="45.354331"
     inkscape:cy="45.354326"
     inkscape:document-units="mm"
     inkscape:current-layer="layer1"
     inkscape:document-rotation="0"
     showgrid="false"
     inkscape:window-width="1920"
     inkscape:window-height="1049"
     inkscape:window-x="0"
     inkscape:window-y="0"
     inkscape:window-maximized="1" />
  <metadata
     id="metadata3062">
    <rdf:RDF>
      <cc:Work
         rdf:about="">
        <dc:format>image/svg+xml</dc:format>
        <dc:type
           rdf:resource="http://purl.org/dc/dcmitype/StillImage" />
        <dc:title></dc:title>
      </cc:Work>
    </rdf:RDF>
  </metadata>
  <g
     inkscape:label="Layer 1"
     inkscape:groupmode="layer"
     id="layer1"
     transform="translate(-93.833333,-136.16667)">
    <g
       id="g4686"
       transform="matrix(0.82109133,0,0,0.82109133,85.932582,-114.07615)">
      <rect
         style="fill:none;fill-opacity:0.6;stroke-width:0.0833395"
         id="rect233-2-4-7"
         width="29.229391"
         height="29.229391"
         x="9.6222563"
         y="304.76855" />
      <path
         d="m 22.982033,308.96548 q -5.69344,0.93448 -7.19901,1.59209 -0.51918,0.22497 -0.69223,0.22497 -0.72682,0 -1.83436,-1.28059 -0.6576,-0.77874 -0.6576,-1.05563 0,-0.2942 0.3288,-0.2942 0.2251,0 1.02102,0.12115 0.2769,0.0346 0.55377,0.0346 0.623,0 2.66501,-0.2942 l 12.47715,-1.79975 q 1.85166,-0.25957 2.94188,-0.70952 0.31143,-0.12115 0.48455,-0.12115 0.53647,0 1.69594,0.93449 1.07292,0.84796 1.10752,1.6267 0.0157,0.3461 -0.3807,0.3461 -0.24236,0 -0.81334,-0.12115 -0.69223,-0.15575 -1.62672,-0.15575 -3.80716,0 -8.44499,0.77874 2.28429,1.41904 2.28429,2.52658 0,0.22497 -0.3461,0.74413 -0.62299,0.88257 -1.47094,4.67243 l 1.36712,-0.25957 q 3.02844,-0.58838 4.49938,-1.2806 0.57107,-0.25957 0.91717,-0.25957 0.5884,0 1.52286,0.88257 1.02103,0.98641 1.02103,1.81706 0,0.2942 -0.50185,1.09023 -0.2769,0.43264 -1.02102,3.30532 -1.55747,6.02225 -4.74165,10.4351 l -0.44995,0.60569 q -0.2251,0.3115 -0.46722,0.3115 -0.2251,0 -0.2251,-0.27687 0,-0.19035 0.10392,-0.48455 l 0.19025,-0.57108 q 0.12118,-0.36341 0.57107,-1.60939 1.54017,-4.18789 2.61308,-8.92954 l 0.25964,-1.09023 q 0.29417,-1.74784 0.29417,-2.04203 0,-0.6576 -0.79605,-0.6576 -0.46722,0 -3.01111,0.43263 l -2.75153,0.53646 q -1.97282,5.34735 -4.44748,8.7738 -2.90729,4.01483 -5.45118,5.38195 l -0.43262,0.24227 q -0.0345,0.0173 -0.0866,0.0173 -0.19025,0 -0.19025,-0.17305 0,-0.15575 0.15572,-0.3115 l 0.51914,-0.57107 q 2.07664,-2.21508 3.96294,-5.41656 1.28059,-2.19778 3.13226,-6.78369 l 0.24237,-0.60568 q -4.04946,1.05562 -6.09148,2.02472 -0.34612,0.17305 -0.55377,0.17305 -0.43265,0 -0.9172,-0.55377 -0.50184,-0.58838 -0.50184,-1.09024 0,-0.27687 0.48454,-1.36712 0.58837,-1.2979 1.02103,-3.73795 l 0.20783,-1.09023 q 0.15572,-0.95179 0.2251,-1.14215 0.0867,-0.15575 0.29417,-0.15575 0.69222,0 1.69591,0.91718 0.51918,0.48455 0.51918,0.83066 0,0.24227 -0.50188,0.95179 -0.12118,0.17304 -0.36339,0.91718 -0.29417,0.93449 -0.29417,1.59209 0,0.77874 0.57107,0.77874 0.2251,0 0.89987,-0.13846 l 4.01483,-0.84796 q 0.72682,-3.25339 0.72682,-6.07416 0,-1.2979 -0.3288,-2.267 z"
         style="font-weight:bold;font-size:11.2889px;line-height:1.25;font-family:MOESongUN;-inkscape-font-specification:'MOESongUN Bold';letter-spacing:0px;word-spacing:0px;fill:#6a5753;fill-opacity:1;stroke-width:0.830653"
         id="path610-7" />
    </g>
  </g>
</svg>
