<?xml version="1.0" encoding="UTF-8" standalone="no"?>
<svg
   xmlns:dc="http://purl.org/dc/elements/1.1/"
   xmlns:cc="http://creativecommons.org/ns#"
   xmlns:rdf="http://www.w3.org/1999/02/22-rdf-syntax-ns#"
   xmlns:svg="http://www.w3.org/2000/svg"
   xmlns="http://www.w3.org/2000/svg"
   xmlns:sodipodi="http://sodipodi.sourceforge.net/DTD/sodipodi-0.dtd"
   xmlns:inkscape="http://www.inkscape.org/namespaces/inkscape"
   width="24mm"
   height="24mm"
   viewBox="0 0 24 24"
   version="1.1"
   id="svg1223"
   inkscape:version="1.0.1 (3bc2e813f5, 2020-09-07)"
   sodipodi:docname="guileless_bopomofo_keyboard-ang.svg">
  <defs
     id="defs1217" />
  <sodipodi:namedview
     id="base"
     pagecolor="#ffffff"
     bordercolor="#666666"
     borderopacity="1.0"
     inkscape:pageopacity="0.0"
     inkscape:pageshadow="2"
     inkscape:zoom="0.35"
     inkscape:cx="213.92576"
     inkscape:cy="-380.35996"
     inkscape:document-units="mm"
     inkscape:current-layer="layer1"
     inkscape:document-rotation="0"
     showgrid="false"
     inkscape:window-width="1920"
     inkscape:window-height="1017"
     inkscape:window-x="0"
     inkscape:window-y="1080"
     inkscape:window-maximized="1" />
  <metadata
     id="metadata1220">
    <rdf:RDF>
      <cc:Work
         rdf:about="">
        <dc:format>image/svg+xml</dc:format>
        <dc:type
           rdf:resource="http://purl.org/dc/dcmitype/StillImage" />
        <dc:title></dc:title>
      </cc:Work>
    </rdf:RDF>
  </metadata>
  <g
     inkscape:label="Layer 1"
     inkscape:groupmode="layer"
     id="layer1"
     transform="translate(-49.232143,-248.80357)">
    <g
       id="g4716"
       transform="matrix(0.82109133,0,0,0.82109133,-25.203941,-33.080329)">
      <rect
         style="fill:none;fill-opacity:0.6;stroke-width:0.0833395"
         id="rect233-3-6-7-0"
         width="29.229391"
         height="29.229391"
         x="90.65506"
         y="343.30396" />
      <path
         d="m 106.13435,355.43157 q 0.93884,1.15295 0.93884,1.89413 0,0.26351 -0.16464,1.26823 -0.27998,1.74589 -0.32943,5.9459 l -0.0329,2.35529 q -0.0179,1.16942 0.23068,1.71295 0.39529,0.87294 2.1906,0.87294 3.82118,0 6.58823,-1.00471 0.34587,-0.13177 0.52707,-0.13177 0.74115,0 1.48234,0.87294 0.42825,0.52706 0.42825,1.02118 0,0.82353 -2.15765,1.21882 -2.37179,0.46118 -5.15531,0.46118 -3.42589,0 -4.79296,-0.72471 -1.72939,-0.90588 -1.63058,-3.93647 l 0.29642,-9.1906 q -1.82824,4.57883 -4.20001,7.52707 -1.66354,2.07529 -3.37647,3.31059 -1.94355,1.41647 -3.67297,2.0753 l -0.39529,0.14823 q -0.0657,0.033 -0.13177,0.033 -0.23068,0.0164 -0.23068,-0.18116 0,-0.1647 0.19751,-0.34589 l 0.42825,-0.37882 q 3.12941,-2.75059 5.68235,-6.70354 2.22353,-3.40942 3.7059,-7.54354 -3.21177,0.47765 -6.07767,1.36706 -0.55999,0.18116 -0.82354,0.18116 -0.60941,0 -1.25175,-0.62588 -0.92235,-0.90588 -0.92235,-1.36706 0,-0.26352 0.26354,-0.26352 0.0493,0 0.46118,0.0824 0.21424,0.0494 0.72469,0.0494 0.93885,0 2.37177,-0.26351 0.1482,-0.0164 1.25178,-0.19766 1.46588,-0.24705 4.67765,-0.85647 0.54355,-1.81177 1.02119,-4.24942 0.47764,-2.43765 0.47764,-3.73883 0,-0.77412 -0.31293,-1.36706 -0.18108,-0.32941 -0.18108,-0.49412 0,-0.34588 0.44468,-0.34588 1.08708,0 2.45415,0.93882 1.08705,0.75765 1.08705,1.53177 0,0.18117 -0.37882,0.69177 -0.31294,0.42823 -1.08706,3.7553 -0.27998,1.23529 -0.75765,2.73412 5.46823,-0.65883 7.57648,-1.30118 0.52706,-0.14824 0.80707,-0.14824 0.75762,0 1.59762,0.92236 0.72472,0.79059 0.72472,1.33412 0,0.39529 -0.49413,0.39529 -0.23068,0 -0.92235,-0.0824 -0.14821,-0.0164 -0.36233,-0.0164 -2.73413,0 -8.79533,0.75765 z"
         style="font-weight:bold;font-size:11.2889px;line-height:1.25;font-family:MOESongUN;-inkscape-font-specification:'MOESongUN Bold';letter-spacing:0px;word-spacing:0px;fill:#6a5753;fill-opacity:1;stroke-width:0.790588"
         id="path622-5" />
    </g>
  </g>
</svg>
