<?xml version="1.0" encoding="UTF-8" standalone="no"?>
<svg
   xmlns:dc="http://purl.org/dc/elements/1.1/"
   xmlns:cc="http://creativecommons.org/ns#"
   xmlns:rdf="http://www.w3.org/1999/02/22-rdf-syntax-ns#"
   xmlns:svg="http://www.w3.org/2000/svg"
   xmlns="http://www.w3.org/2000/svg"
   xmlns:sodipodi="http://sodipodi.sourceforge.net/DTD/sodipodi-0.dtd"
   xmlns:inkscape="http://www.inkscape.org/namespaces/inkscape"
   width="24mm"
   height="24mm"
   viewBox="0 0 24 24"
   version="1.1"
   id="svg2811"
   inkscape:version="1.0.1 (3bc2e813f5, 2020-09-07)"
   sodipodi:docname="guileless_bopomofo_keyboard-ri.svg">
  <defs
     id="defs2805" />
  <sodipodi:namedview
     id="base"
     pagecolor="#ffffff"
     bordercolor="#666666"
     borderopacity="1.0"
     inkscape:pageopacity="0.0"
     inkscape:pageshadow="2"
     inkscape:zoom="0.35"
     inkscape:cx="318.09379"
     inkscape:cy="409.52233"
     inkscape:document-units="mm"
     inkscape:current-layer="layer1"
     inkscape:document-rotation="0"
     showgrid="false"
     fit-margin-top="0"
     fit-margin-left="0"
     fit-margin-right="0"
     fit-margin-bottom="0"
     inkscape:window-width="1920"
     inkscape:window-height="1049"
     inkscape:window-x="0"
     inkscape:window-y="0"
     inkscape:window-maximized="1" />
  <metadata
     id="metadata2808">
    <rdf:RDF>
      <cc:Work
         rdf:about="">
        <dc:format>image/svg+xml</dc:format>
        <dc:type
           rdf:resource="http://purl.org/dc/dcmitype/StillImage" />
        <dc:title></dc:title>
      </cc:Work>
    </rdf:RDF>
  </metadata>
  <g
     inkscape:label="Layer 1"
     inkscape:groupmode="layer"
     id="layer1"
     transform="translate(-21.671017,-39.813882)">
    <g
       id="g4036"
       transform="matrix(0.82109134,0,0,0.82109134,-86.032735,-85.247377)">
      <rect
         style="fill:none;fill-opacity:0.6;stroke-width:0.0833395"
         id="rect233-7-5"
         width="29.229391"
         height="29.229391"
         x="131.17146"
         y="152.31102" />
      <path
         d="m 138.81823,155.1232 0.84238,-0.0916 q 5.80512,-0.67757 10.4565,-1.51995 l 1.70311,-0.29299 q 1.42836,-0.29298 1.64812,-0.29298 h 0.0365 q 0.64096,0 1.90454,0.93394 1.5932,1.19032 1.5932,1.97776 0,0.16482 -0.47614,1.20864 -0.5494,1.26357 -0.5494,3.86396 0,5.18247 0.14651,8.77175 l 0.29303,7.56311 q 0,0.12817 0,0.18312 0,1.64814 -0.93395,2.80184 -0.5677,0.69588 -1.17201,0.69588 -0.45784,0 -1.08046,-0.80576 -0.49444,-0.62263 -0.76913,-0.82407 -0.586,-0.4395 -2.50884,-0.4395 -3.88225,0 -8.68017,0.586 -1.86789,0.23807 -2.72858,0.42119 -0.34794,0.0733 -0.53106,0.0733 -0.60431,0 -1.55659,-0.89732 -0.93395,-0.87901 -0.93395,-1.70307 0,-0.10987 0.0365,-0.42119 0.0548,-0.73251 0.0917,-2.27077 0.0917,-3.4794 0.0917,-11.06083 0,-3.16808 -0.5677,-5.09091 -0.0731,-0.20142 -0.16478,-0.586 -0.0548,-0.18312 -0.32956,-0.75082 -0.10997,-0.23807 -0.10997,-0.47613 0,-0.51275 0.73252,-0.51275 0.87899,0 2.08762,0.76913 1.15371,0.73251 1.15371,1.55657 0,0.0733 -0.25648,0.7142 -0.36624,0.98888 -0.36624,7.50817 0,8.07587 0.12824,9.2845 0.12823,1.04382 1.20862,0.95226 l 0.14651,-0.0183 11.86659,-0.65925 q 1.04381,-0.0549 1.30018,-0.34794 0.25648,-0.31133 0.29302,-1.51995 l 0.38455,-16.64618 0.0199,-0.18312 q 0.10997,-2.10595 -1.37347,-2.10595 -1.15367,0 -4.17527,0.53106 -3.62591,0.64094 -5.4938,1.09876 -1.37344,0.34794 -1.72138,0.34794 -1.00719,0 -2.17921,-1.1537 -0.4395,-0.42119 -0.4395,-0.67756 0,-0.38457 0.93395,-0.49444 z m 3.79072,8.24068 0.51275,0.32963 q 2.12427,1.28188 4.21192,3.3329 1.48331,1.46501 1.48331,2.67364 0,0.97057 -0.5677,1.5932 -0.38455,0.40288 -0.80574,0.40288 -0.53106,0 -1.20863,-1.3002 -1.15371,-2.25245 -3.11316,-5.23741 l -0.47614,-0.75082 -0.49441,-0.71419 q -0.0917,-0.14651 -0.0917,-0.25638 0,-0.16481 0.2196,-0.16481 0.16478,0 0.32956,0.0916 z"
         style="font-weight:bold;font-size:11.2889px;line-height:1.25;font-family:MOESongUN;-inkscape-font-specification:'MOESongUN Bold';letter-spacing:0px;word-spacing:0px;fill:#6a5753;fill-opacity:1;stroke-width:0.879004"
         id="path588-1" />
    </g>
  </g>
</svg>
