<?xml version="1.0" encoding="UTF-8" standalone="no"?>
<svg
   xmlns:dc="http://purl.org/dc/elements/1.1/"
   xmlns:cc="http://creativecommons.org/ns#"
   xmlns:rdf="http://www.w3.org/1999/02/22-rdf-syntax-ns#"
   xmlns:svg="http://www.w3.org/2000/svg"
   xmlns="http://www.w3.org/2000/svg"
   xmlns:sodipodi="http://sodipodi.sourceforge.net/DTD/sodipodi-0.dtd"
   xmlns:inkscape="http://www.inkscape.org/namespaces/inkscape"
   width="24mm"
   height="24mm"
   viewBox="0 0 24 24"
   version="1.1"
   id="svg3616"
   inkscape:version="1.0.1 (3bc2e813f5, 2020-09-07)"
   sodipodi:docname="guileless_bopomofo_keyboard-fo.svg">
  <defs
     id="defs3610" />
  <sodipodi:namedview
     id="base"
     pagecolor="#ffffff"
     bordercolor="#666666"
     borderopacity="1.0"
     inkscape:pageopacity="0.0"
     inkscape:pageshadow="2"
     inkscape:zoom="0.35"
     inkscape:cx="-204.76335"
     inkscape:cy="98.093778"
     inkscape:document-units="mm"
     inkscape:current-layer="layer1"
     inkscape:document-rotation="0"
     showgrid="false"
     fit-margin-top="0"
     fit-margin-left="0"
     fit-margin-right="0"
     fit-margin-bottom="0"
     inkscape:window-width="1920"
     inkscape:window-height="1017"
     inkscape:window-x="0"
     inkscape:window-y="0"
     inkscape:window-maximized="1" />
  <metadata
     id="metadata3613">
    <rdf:RDF>
      <cc:Work
         rdf:about="">
        <dc:format>image/svg+xml</dc:format>
        <dc:type
           rdf:resource="http://purl.org/dc/dcmitype/StillImage" />
        <dc:title></dc:title>
      </cc:Work>
    </rdf:RDF>
  </metadata>
  <g
     inkscape:label="Layer 1"
     inkscape:groupmode="layer"
     id="layer1"
     transform="translate(-160.0103,-122.21269)">
    <g
       id="g3597"
       transform="matrix(0.82109134,0,0,0.82109134,52.749547,118.1851)">
      <rect
         style="fill:none;fill-opacity:0.6;stroke-width:0.0833395"
         id="rect233-7"
         width="29.229391"
         height="29.229391"
         x="130.63194"
         y="4.9051642" />
      <path
         d="m 132.60524,12.668069 q -0.38277,-0.382782 -0.59333,-0.555036 -0.76554,-0.689006 -0.76554,-1.090929 0,-0.229685 0.15312,-0.363644 0.13403,-0.133991 1.77994,-0.172254 6.67954,-0.191386 12.89974,-1.1674874 6.41164,-0.9952332 8.55521,-1.7799386 1.07179,-0.4019203 1.51199,-0.4019203 1.05266,0 2.41152,1.1292066 0.68902,0.5741742 0.68902,1.0335136 0,0.3636435 -0.4785,0.4593403 -0.21042,0.038264 -1.89477,0.114824 -1.07178,0.038264 -4.63166,0.5741708 -6.89008,1.071791 -15.7515,2.047887 l 0.0382,0.593312 q 0.17222,3.02398 0.28716,7.961873 0.13402,5.091004 0.88039,6.469024 1.09092,2.047885 3.94268,2.047885 0.99523,0 5.26325,-0.267947 6.33506,-0.401924 7.84705,-0.803845 1.12918,-0.287078 1.32058,-0.287078 1.03352,0 2.08618,0.842122 0.97608,0.784705 0.97608,1.550268 0,0.516759 -0.91866,0.727287 -0.9187,0.191386 -3.6173,0.267947 l -5.41637,0.133956 q -4.22976,0.172254 -6.08625,0.172254 -2.94741,0 -4.61253,-0.555033 -2.81346,-0.937818 -3.77041,-4.153189 -0.4976,-1.684244 -0.57416,-4.574246 l -0.11494,-3.674714 q -0.0573,-2.430667 -0.34443,-3.598154 -0.30625,-1.282322 -1.07179,-2.679476 z"
         style="font-weight:bold;font-size:11.2889px;line-height:1.25;font-family:MOESongUN;-inkscape-font-specification:'MOESongUN Bold';letter-spacing:0px;word-spacing:0px;fill:#6a5753;fill-opacity:1;stroke-width:0.918678"
         id="path560-8" />
    </g>
  </g>
</svg>
