<?xml version="1.0" encoding="UTF-8" standalone="no"?>
<svg
   xmlns:dc="http://purl.org/dc/elements/1.1/"
   xmlns:cc="http://creativecommons.org/ns#"
   xmlns:rdf="http://www.w3.org/1999/02/22-rdf-syntax-ns#"
   xmlns:svg="http://www.w3.org/2000/svg"
   xmlns="http://www.w3.org/2000/svg"
   xmlns:sodipodi="http://sodipodi.sourceforge.net/DTD/sodipodi-0.dtd"
   xmlns:inkscape="http://www.inkscape.org/namespaces/inkscape"
   width="24mm"
   height="24mm"
   viewBox="0 0 24 24"
   version="1.1"
   id="svg2955"
   inkscape:version="1.0.1 (3bc2e813f5, 2020-09-07)"
   sodipodi:docname="guileless_bopomofo_keyboard-a.svg">
  <defs
     id="defs2949" />
  <sodipodi:namedview
     id="base"
     pagecolor="#ffffff"
     bordercolor="#666666"
     borderopacity="1.0"
     inkscape:pageopacity="0.0"
     inkscape:pageshadow="2"
     inkscape:zoom="0.35"
     inkscape:cx="613.92576"
     inkscape:cy="905.35431"
     inkscape:document-units="mm"
     inkscape:current-layer="layer1"
     inkscape:document-rotation="0"
     showgrid="false"
     inkscape:window-width="1920"
     inkscape:window-height="1049"
     inkscape:window-x="0"
     inkscape:window-y="0"
     inkscape:window-maximized="1" />
  <metadata
     id="metadata2952">
    <rdf:RDF>
      <cc:Work
         rdf:about="">
        <dc:format>image/svg+xml</dc:format>
        <dc:type
           rdf:resource="http://purl.org/dc/dcmitype/StillImage" />
        <dc:title></dc:title>
      </cc:Work>
    </rdf:RDF>
  </metadata>
  <g
     inkscape:label="Layer 1"
     inkscape:groupmode="layer"
     id="layer1"
     transform="translate(56.60119,91.374995)">
    <g
       id="g4681"
       transform="matrix(0.82109133,0,0,0.82109133,-64.501941,-309.97678)">
      <rect
         style="fill:none;fill-opacity:0.6;stroke-width:0.0833395"
         id="rect233-2-4"
         width="29.229391"
         height="29.229391"
         x="9.6222563"
         y="266.23322" />
      <path
         d="m 25.312651,278.70464 q 4.189484,-6.08203 5.742342,-10.59503 0.436741,-1.2617 1.099943,-1.2617 0.873481,0 1.989599,1.31023 0.857309,1.01906 0.857309,1.74696 0,0.67938 -0.792606,1.03524 -0.598498,0.275 -0.938185,0.63085 -0.323515,0.33969 -2.24841,2.81456 -1.439633,1.82784 -2.992488,3.52628 -1.342578,1.47198 -1.471983,2.18371 -0.17792,0.95436 -0.145582,2.26459 l 0.08088,5.74234 q 0.03237,1.11612 0.09705,2.41017 0.09705,2.03812 0.09705,2.39399 0,1.21317 -0.598498,1.74696 -0.210289,0.19412 -0.436744,0.19412 -0.727899,0 -1.407276,-1.05141 -0.614673,-0.98672 -0.54997,-2.07048 l 0.01614,-0.21029 0.33969,-9.09069 v -0.16176 q 0,-1.08376 -0.614676,-2.03812 -0.274995,-0.40439 -2.410165,-2.5881 -2.21606,-2.24841 -4.351241,-4.86886 -1.811667,-2.23224 -2.555747,-2.78221 -0.647024,-0.48527 -0.647024,-0.80878 0,-1.00289 2.539572,-1.00289 0.970535,0 1.569033,0.38822 0.355865,0.24263 0.776431,1.05141 2.846909,5.58059 6.955514,9.0907 z"
         style="font-weight:bold;font-size:11.2889px;line-height:1.25;font-family:MOESongUN;-inkscape-font-specification:'MOESongUN Bold';letter-spacing:0px;word-spacing:0px;fill:#6a5753;fill-opacity:1;stroke-width:0.776428"
         id="path602-4" />
    </g>
  </g>
</svg>
