<?xml version="1.0" encoding="UTF-8" standalone="no"?>
<svg
   xmlns:dc="http://purl.org/dc/elements/1.1/"
   xmlns:cc="http://creativecommons.org/ns#"
   xmlns:rdf="http://www.w3.org/1999/02/22-rdf-syntax-ns#"
   xmlns:svg="http://www.w3.org/2000/svg"
   xmlns="http://www.w3.org/2000/svg"
   xmlns:sodipodi="http://sodipodi.sourceforge.net/DTD/sodipodi-0.dtd"
   xmlns:inkscape="http://www.inkscape.org/namespaces/inkscape"
   width="24mm"
   height="24mm"
   viewBox="0 0 24 24"
   version="1.1"
   id="svg2187"
   inkscape:version="1.0.1 (3bc2e813f5, 2020-09-07)"
   sodipodi:docname="guileless_bopomofo_keyboard_qwerty_semicolon.svg">
  <defs
     id="defs2181" />
  <sodipodi:namedview
     id="base"
     pagecolor="#ffffff"
     bordercolor="#666666"
     borderopacity="1.0"
     inkscape:pageopacity="0.0"
     inkscape:pageshadow="2"
     inkscape:zoom="0.35"
     inkscape:cx="-1343.2171"
     inkscape:cy="-288.93138"
     inkscape:document-units="mm"
     inkscape:current-layer="layer1"
     inkscape:document-rotation="0"
     showgrid="false"
     inkscape:window-width="1920"
     inkscape:window-height="1049"
     inkscape:window-x="1"
     inkscape:window-y="0"
     inkscape:window-maximized="1" />
  <metadata
     id="metadata2184">
    <rdf:RDF>
      <cc:Work
         rdf:about="">
        <dc:format>image/svg+xml</dc:format>
        <dc:type
           rdf:resource="http://purl.org/dc/dcmitype/StillImage" />
        <dc:title></dc:title>
      </cc:Work>
    </rdf:RDF>
  </metadata>
  <g
     inkscape:label="Layer 1"
     inkscape:groupmode="layer"
     id="layer1"
     transform="translate(-461.2262,-224.6131)">
    <g
       id="g2163"
       transform="translate(309.81581,-5.9281188)">
      <rect
         style="fill:none;stroke:none;stroke-width:0.1"
         id="rect10-5-6"
         width="24"
         height="24"
         x="151.41039"
         y="230.54121" />
      <g
         id="g1744"
         style="font-size:11.2889px;line-height:1.25;font-family:'Noto Sans';-inkscape-font-specification:'Noto Sans';letter-spacing:0px;word-spacing:0px;fill:#6c5a57;fill-opacity:0.952941;stroke-width:0.264583"
         transform="matrix(1.1657022,0,0,1.1657022,308.11072,13.465125)">
        <path
           style="color:#000000;font-style:normal;font-variant:normal;font-weight:normal;font-stretch:normal;font-size:medium;line-height:1.25;font-family:'Noto Sans';-inkscape-font-specification:'Noto Sans';font-variant-ligatures:normal;font-variant-position:normal;font-variant-caps:normal;font-variant-numeric:normal;font-variant-alternates:normal;font-variant-east-asian:normal;font-feature-settings:normal;font-variation-settings:normal;text-indent:0;text-align:start;text-decoration:none;text-decoration-line:none;text-decoration-style:solid;text-decoration-color:#000000;letter-spacing:0px;word-spacing:0px;text-transform:none;writing-mode:lr-tb;direction:ltr;text-orientation:mixed;dominant-baseline:auto;baseline-shift:baseline;text-anchor:start;white-space:normal;shape-padding:0;shape-margin:0;inline-size:0;clip-rule:nonzero;display:inline;overflow:visible;visibility:visible;isolation:auto;mix-blend-mode:normal;color-interpolation:sRGB;color-interpolation-filters:linearRGB;solid-color:#000000;solid-opacity:1;vector-effect:none;fill:#6c5a57;fill-opacity:0.952941;fill-rule:nonzero;stroke:none;stroke-width:0.264583;stroke-linecap:butt;stroke-linejoin:miter;stroke-miterlimit:4;stroke-dasharray:none;stroke-dashoffset:0;stroke-opacity:1;color-rendering:auto;image-rendering:auto;shape-rendering:auto;text-rendering:auto;enable-background:accumulate;stop-color:#000000;stop-opacity:1"
           d="m -120.0466,197.30242 c 0,-0.28599 0.0677,-0.48542 0.2032,-0.59831 0.13547,-0.11289 0.29728,-0.16934 0.48543,-0.16934 0.19567,0 0.36124,0.0564 0.49671,0.16934 0.14299,0.11289 0.21449,0.31232 0.21449,0.59831 0,0.27093 -0.0715,0.46661 -0.21449,0.58702 -0.13547,0.12041 -0.30104,0.18062 -0.49671,0.18062 -0.18815,0 -0.34996,-0.0602 -0.48543,-0.18062 -0.13547,-0.12041 -0.2032,-0.31609 -0.2032,-0.58702 z m 1.27565,4.25591 c -0.0978,0.39135 -0.24083,0.82786 -0.42898,1.30952 -0.18062,0.48918 -0.36124,0.93321 -0.54187,1.33209 h -0.74506 c 0.0752,-0.28599 0.14675,-0.59455 0.21448,-0.92569 0.0753,-0.32362 0.14299,-0.64347 0.2032,-0.95956 0.0677,-0.32361 0.12042,-0.61712 0.15805,-0.88053 h 1.06116 z"
           id="path1746" />
        <path
           style="color:#000000;font-style:normal;font-variant:normal;font-weight:normal;font-stretch:normal;font-size:medium;line-height:1.25;font-family:'Noto Sans';-inkscape-font-specification:'Noto Sans';font-variant-ligatures:normal;font-variant-position:normal;font-variant-caps:normal;font-variant-numeric:normal;font-variant-alternates:normal;font-variant-east-asian:normal;font-feature-settings:normal;font-variation-settings:normal;text-indent:0;text-align:start;text-decoration:none;text-decoration-line:none;text-decoration-style:solid;text-decoration-color:#000000;letter-spacing:0px;word-spacing:0px;text-transform:none;writing-mode:lr-tb;direction:ltr;text-orientation:mixed;dominant-baseline:auto;baseline-shift:baseline;text-anchor:start;white-space:normal;shape-padding:0;shape-margin:0;inline-size:0;clip-rule:nonzero;display:inline;overflow:visible;visibility:visible;isolation:auto;mix-blend-mode:normal;color-interpolation:sRGB;color-interpolation-filters:linearRGB;solid-color:#000000;solid-opacity:1;vector-effect:none;fill-opacity:1;fill-rule:nonzero;stroke:none;stroke-width:0.264583;stroke-linecap:butt;stroke-linejoin:miter;stroke-miterlimit:4;stroke-dasharray:none;stroke-dashoffset:0;stroke-opacity:1;color-rendering:auto;image-rendering:auto;shape-rendering:auto;text-rendering:auto;enable-background:accumulate;stop-color:#000000;stop-opacity:1"
           d="m -119.35742,196.40234 c -0.21461,0 -0.41171,0.067 -0.57031,0.19922 -0.17768,0.14806 -0.25196,0.3943 -0.25196,0.70117 0,0.29299 0.0758,0.53241 0.24805,0.68555 0.1582,0.14062 0.35784,0.21484 0.57422,0.21484 0.22191,0 0.42322,-0.0726 0.58203,-0.21289 v -0.002 c 0.17945,-0.15197 0.26172,-0.39207 0.26172,-0.68555 0,-0.307 -0.0794,-0.55443 -0.26367,-0.70117 -0.15954,-0.13295 -0.35897,-0.19922 -0.58008,-0.19922 z m 0,0.26563 c 0.17023,0 0.30071,0.0458 0.41211,0.13867 l 0.002,0.002 c 0.10035,0.0792 0.16406,0.23021 0.16406,0.49414 0,0.24766 -0.0624,0.39741 -0.16797,0.48633 l -0.002,0.002 c -0.11183,0.0994 -0.23967,0.14648 -0.4082,0.14648 -0.15993,0 -0.2857,-0.0463 -0.39844,-0.14648 -0.0986,-0.0877 -0.1582,-0.2394 -0.1582,-0.48829 0,-0.26509 0.063,-0.41838 0.15625,-0.49609 0.11232,-0.0936 0.23869,-0.13867 0.40039,-0.13867 z m -0.66797,4.63476 -0.0176,0.11329 c -0.0371,0.25991 -0.089,0.54971 -0.15625,0.87109 v 0.002 c -0.0599,0.31429 -0.1263,0.63314 -0.20117,0.95508 l -0.002,0.002 v 0.002 c -0.0673,0.32904 -0.13835,0.63468 -0.21289,0.91797 l -0.043,0.16601 h 1.00195 l 0.0352,-0.0781 c 0.18194,-0.4018 0.36361,-0.84696 0.54492,-1.33789 v -0.002 c 0.18936,-0.48497 0.33414,-0.92642 0.43359,-1.32422 l 0.0137,-0.0547 -0.0312,-0.0488 -0.11718,-0.1836 z m 0.22656,0.26368 h 0.87695 l 0.006,0.01 c -0.0957,0.3728 -0.22705,0.78539 -0.40625,1.24414 h -0.002 v 0.002 c -0.16934,0.45863 -0.33901,0.86846 -0.50781,1.24609 h -0.48828 c 0.061,-0.24265 0.12194,-0.4912 0.17773,-0.76367 v -0.004 c 0.0751,-0.32337 0.1429,-0.64293 0.20313,-0.95898 v -0.002 c 0.0593,-0.28356 0.10409,-0.53459 0.14062,-0.77343 z"
           id="path1748" />
      </g>
      <g
         id="g1655"
         style="font-size:11.2889px;line-height:1.25;font-family:'Noto Sans';-inkscape-font-specification:'Noto Sans';letter-spacing:0px;word-spacing:0px;fill:#6c5a57;fill-opacity:0.952941;stroke-width:0.264583"
         transform="matrix(1.2018797,0,0,1.2018797,293.41284,25.38825)">
        <path
           style="color:#000000;font-style:normal;font-variant:normal;font-weight:normal;font-stretch:normal;font-size:medium;line-height:1.25;font-family:'Noto Sans';-inkscape-font-specification:'Noto Sans';font-variant-ligatures:normal;font-variant-position:normal;font-variant-caps:normal;font-variant-numeric:normal;font-variant-alternates:normal;font-variant-east-asian:normal;font-feature-settings:normal;font-variation-settings:normal;text-indent:0;text-align:start;text-decoration:none;text-decoration-line:none;text-decoration-style:solid;text-decoration-color:#000000;letter-spacing:0px;word-spacing:0px;text-transform:none;writing-mode:lr-tb;direction:ltr;text-orientation:mixed;dominant-baseline:auto;baseline-shift:baseline;text-anchor:start;white-space:normal;shape-padding:0;shape-margin:0;inline-size:0;clip-rule:nonzero;display:inline;overflow:visible;visibility:visible;isolation:auto;mix-blend-mode:normal;color-interpolation:sRGB;color-interpolation-filters:linearRGB;solid-color:#000000;solid-opacity:1;vector-effect:none;fill:#6c5a57;fill-opacity:0.952941;fill-rule:nonzero;stroke:none;stroke-width:0.264583;stroke-linecap:butt;stroke-linejoin:miter;stroke-miterlimit:4;stroke-dasharray:none;stroke-dashoffset:0;stroke-opacity:1;color-rendering:auto;image-rendering:auto;shape-rendering:auto;text-rendering:auto;enable-background:accumulate;stop-color:#000000;stop-opacity:1"
           d="m -113.13201,175.68326 c 0,-0.28599 0.0677,-0.48542 0.2032,-0.59831 0.13547,-0.11289 0.29727,-0.16933 0.48542,-0.16933 0.19567,0 0.36124,0.0564 0.49671,0.16933 0.14299,0.11289 0.21449,0.31232 0.21449,0.59831 0,0.27093 -0.0715,0.46661 -0.21449,0.58702 -0.13547,0.12042 -0.30104,0.18063 -0.49671,0.18063 -0.18815,0 -0.34995,-0.0602 -0.48542,-0.18063 -0.13547,-0.12041 -0.2032,-0.31609 -0.2032,-0.58702 z m 0,4.83165 c 0,-0.27846 0.0677,-0.47413 0.2032,-0.58702 0.13547,-0.11289 0.29727,-0.16934 0.48542,-0.16934 0.19567,0 0.36124,0.0564 0.49671,0.16934 0.14299,0.11289 0.21449,0.30856 0.21449,0.58702 0,0.27093 -0.0715,0.46661 -0.21449,0.58702 -0.13547,0.12042 -0.30104,0.18063 -0.49671,0.18063 -0.18815,0 -0.34995,-0.0602 -0.48542,-0.18063 -0.13547,-0.12041 -0.2032,-0.31609 -0.2032,-0.58702 z"
           id="path1657" />
        <path
           style="color:#000000;font-style:normal;font-variant:normal;font-weight:normal;font-stretch:normal;font-size:medium;line-height:1.25;font-family:'Noto Sans';-inkscape-font-specification:'Noto Sans';font-variant-ligatures:normal;font-variant-position:normal;font-variant-caps:normal;font-variant-numeric:normal;font-variant-alternates:normal;font-variant-east-asian:normal;font-feature-settings:normal;font-variation-settings:normal;text-indent:0;text-align:start;text-decoration:none;text-decoration-line:none;text-decoration-style:solid;text-decoration-color:#000000;letter-spacing:0px;word-spacing:0px;text-transform:none;writing-mode:lr-tb;direction:ltr;text-orientation:mixed;dominant-baseline:auto;baseline-shift:baseline;text-anchor:start;white-space:normal;shape-padding:0;shape-margin:0;inline-size:0;clip-rule:nonzero;display:inline;overflow:visible;visibility:visible;isolation:auto;mix-blend-mode:normal;color-interpolation:sRGB;color-interpolation-filters:linearRGB;solid-color:#000000;solid-opacity:1;vector-effect:none;fill-opacity:1;fill-rule:nonzero;stroke:none;stroke-width:0.264583;stroke-linecap:butt;stroke-linejoin:miter;stroke-miterlimit:4;stroke-dasharray:none;stroke-dashoffset:0;stroke-opacity:1;color-rendering:auto;image-rendering:auto;shape-rendering:auto;text-rendering:auto;enable-background:accumulate;stop-color:#000000;stop-opacity:1"
           d="m -112.44336,174.7832 c -0.2146,0 -0.41171,0.067 -0.57031,0.19922 -0.17768,0.14806 -0.25,0.3943 -0.25,0.70117 0,0.29299 0.0738,0.53241 0.24609,0.68555 0.1582,0.14063 0.35785,0.21484 0.57422,0.21484 0.22191,0 0.42322,-0.0726 0.58203,-0.21289 v -0.002 c 0.17945,-0.15197 0.26172,-0.39207 0.26172,-0.68555 0,-0.30803 -0.08,-0.55657 -0.26562,-0.70312 -0.15899,-0.13109 -0.35857,-0.19727 -0.57813,-0.19727 z m 0,0.26563 c 0.17023,0 0.30071,0.0458 0.41211,0.13867 h 0.002 v 0.002 c 0.10035,0.0792 0.16407,0.23021 0.16407,0.49414 0,0.24766 -0.0604,0.39741 -0.16602,0.48633 h -0.002 l -0.002,0.002 c -0.11182,0.0994 -0.23966,0.14648 -0.4082,0.14648 -0.15992,0 -0.2857,-0.0463 -0.39844,-0.14648 -0.0986,-0.0877 -0.1582,-0.2394 -0.1582,-0.48829 0,-0.26509 0.063,-0.41838 0.15625,-0.49609 0.11233,-0.0936 0.2387,-0.13867 0.40039,-0.13867 z m 0,4.57812 c -0.21461,0 -0.41171,0.067 -0.57031,0.19922 -0.17657,0.14714 -0.25,0.38954 -0.25,0.68945 0,0.29299 0.0738,0.53241 0.24609,0.68555 0.1582,0.14063 0.35785,0.21289 0.57422,0.21289 0.22191,0 0.42322,-0.0706 0.58203,-0.21094 v -0.002 c 0.17945,-0.15197 0.26172,-0.39207 0.26172,-0.68555 0,-0.3011 -0.0811,-0.54573 -0.26562,-0.6914 -0.15899,-0.13109 -0.35857,-0.19727 -0.57813,-0.19727 z m 0,0.26367 c 0.17023,10e-6 0.30071,0.0458 0.41211,0.13868 l 0.002,0.002 c 0.10147,0.0801 0.16407,0.22856 0.16407,0.48437 0,0.24766 -0.0604,0.39546 -0.16602,0.48438 l -0.002,0.002 -0.002,0.002 c -0.11182,0.0994 -0.23966,0.14648 -0.4082,0.14648 -0.15992,0 -0.2857,-0.0463 -0.39844,-0.14648 -0.0986,-0.0877 -0.1582,-0.2394 -0.1582,-0.48829 0,-0.257 0.0619,-0.40768 0.15625,-0.48632 0.11233,-0.0936 0.2387,-0.13868 0.40039,-0.13868 z"
           id="path1659" />
      </g>
    </g>
  </g>
</svg>
