<?xml version="1.0" encoding="UTF-8" standalone="no"?>
<svg
   xmlns:dc="http://purl.org/dc/elements/1.1/"
   xmlns:cc="http://creativecommons.org/ns#"
   xmlns:rdf="http://www.w3.org/1999/02/22-rdf-syntax-ns#"
   xmlns:svg="http://www.w3.org/2000/svg"
   xmlns="http://www.w3.org/2000/svg"
   xmlns:sodipodi="http://sodipodi.sourceforge.net/DTD/sodipodi-0.dtd"
   xmlns:inkscape="http://www.inkscape.org/namespaces/inkscape"
   width="24mm"
   height="24mm"
   viewBox="0 0 24 24"
   version="1.1"
   id="svg3921"
   inkscape:version="1.0.1 (3bc2e813f5, 2020-09-07)"
   sodipodi:docname="guileless_bopomofo_keyboard-wu.svg">
  <defs
     id="defs3915" />
  <sodipodi:namedview
     id="base"
     pagecolor="#ffffff"
     bordercolor="#666666"
     borderopacity="1.0"
     inkscape:pageopacity="0.0"
     inkscape:pageshadow="2"
     inkscape:zoom="0.35"
     inkscape:cx="396.7829"
     inkscape:cy="642.49719"
     inkscape:document-units="mm"
     inkscape:current-layer="layer1"
     inkscape:document-rotation="0"
     showgrid="false"
     inkscape:window-width="1920"
     inkscape:window-height="1049"
     inkscape:window-x="0"
     inkscape:window-y="0"
     inkscape:window-maximized="1" />
  <metadata
     id="metadata3918">
    <rdf:RDF>
      <cc:Work
         rdf:about="">
        <dc:format>image/svg+xml</dc:format>
        <dc:type
           rdf:resource="http://purl.org/dc/dcmitype/StillImage" />
        <dc:title></dc:title>
      </cc:Work>
    </rdf:RDF>
  </metadata>
  <g
     inkscape:label="Layer 1"
     inkscape:groupmode="layer"
     id="layer1"
     transform="translate(-0.85119038,21.827381)">
    <g
       id="g4226"
       transform="matrix(0.82109133,0,0,0.82109133,-40.317229,-208.78812)">
      <rect
         style="fill:none;fill-opacity:0.6;stroke-width:0.0833395"
         id="rect233-6-3-9"
         width="29.229391"
         height="29.229391"
         x="50.13866"
         y="227.69786" />
      <path
         d="m 63.622758,244.26466 q -3.780445,-3.21514 -7.755215,-5.97098 l -0.759622,-0.54764 q -0.282652,-0.19431 -0.282652,-0.31798 0,-0.19431 0.194323,-0.17665 0.01766,0 0.05299,0.0176 l 0.600632,0.15899 q 1.854893,0.51231 5.564678,2.64985 2.296532,1.34259 3.497796,2.17287 1.342589,-2.59685 2.437859,-5.95332 1.519243,-4.64607 1.519243,-6.04165 0,-0.5123 -0.19431,-0.93628 -0.212,-0.45931 -0.212,-0.58297 3e-6,-0.42397 0.494639,-0.42397 0.777289,0 2.172876,1.1306 1.324923,1.09527 1.324923,1.90789 0,0.31799 -0.476974,0.6713 -0.388643,0.26497 -0.635964,0.65362 -0.353309,0.56531 -1.112933,2.9855 -1.430917,4.6284 -3.250477,8.05553 4.964043,3.55079 6.730608,5.21136 1.78423,1.67824 2.278866,2.57919 0.65363,1.20126 0.65363,2.43785 0,1.1836 -0.68896,1.69591 -0.229659,0.17665 -0.512305,0.17665 -0.618295,0 -1.660567,-1.30726 -3.957106,-4.96405 -8.108531,-8.62083 l -0.229659,0.31798 q -5.052371,7.4549 -11.235344,9.83976 l -0.618297,0.24732 q -0.053,0.0176 -0.123659,0.0176 -0.247319,0 -0.247319,-0.19431 0,-0.12364 0.105994,-0.19431 l 0.847951,-0.63596 q 3.515463,-2.63218 6.51862,-6.51862 1.201264,-1.55458 3.109153,-4.50474 z"
         style="font-weight:bold;font-size:11.2889px;line-height:1.25;font-family:MOESongUN;-inkscape-font-specification:'MOESongUN Bold';letter-spacing:0px;word-spacing:0px;fill:#6a5753;fill-opacity:1;stroke-width:0.847949"
         id="path598-7" />
    </g>
  </g>
</svg>
