<?xml version="1.0" encoding="UTF-8" standalone="no"?>
<svg
   xmlns:dc="http://purl.org/dc/elements/1.1/"
   xmlns:cc="http://creativecommons.org/ns#"
   xmlns:rdf="http://www.w3.org/1999/02/22-rdf-syntax-ns#"
   xmlns:svg="http://www.w3.org/2000/svg"
   xmlns="http://www.w3.org/2000/svg"
   xmlns:sodipodi="http://sodipodi.sourceforge.net/DTD/sodipodi-0.dtd"
   xmlns:inkscape="http://www.inkscape.org/namespaces/inkscape"
   width="24mm"
   height="24mm"
   viewBox="0 0 24 24"
   version="1.1"
   id="svg3120"
   inkscape:version="1.0.1 (3bc2e813f5, 2020-09-07)"
   sodipodi:docname="guileless_bopomofo_keyboard-ou.svg">
  <defs
     id="defs3114" />
  <sodipodi:namedview
     id="base"
     pagecolor="#ffffff"
     bordercolor="#666666"
     borderopacity="1.0"
     inkscape:pageopacity="0.0"
     inkscape:pageshadow="2"
     inkscape:zoom="0.35"
     inkscape:cx="525.35434"
     inkscape:cy="1216.7829"
     inkscape:document-units="mm"
     inkscape:current-layer="layer1"
     inkscape:document-rotation="0"
     showgrid="false"
     inkscape:window-width="1920"
     inkscape:window-height="1049"
     inkscape:window-x="0"
     inkscape:window-y="0"
     inkscape:window-maximized="1" />
  <metadata
     id="metadata3117">
    <rdf:RDF>
      <cc:Work
         rdf:about="">
        <dc:format>image/svg+xml</dc:format>
        <dc:type
           rdf:resource="http://purl.org/dc/dcmitype/StillImage" />
        <dc:title></dc:title>
      </cc:Work>
    </rdf:RDF>
  </metadata>
  <g
     inkscape:label="Layer 1"
     inkscape:groupmode="layer"
     id="layer1"
     transform="translate(33.166669,173.77381)">
    <g
       id="g4701"
       transform="matrix(0.82109133,0,0,0.82109133,-140.87042,-424.01663)">
      <rect
         style="fill:none;fill-opacity:0.6;stroke-width:0.0833395"
         id="rect233-7-8-4-5"
         width="29.229391"
         height="29.229391"
         x="131.17146"
         y="304.76855" />
      <path
         d="m 146.6982,320.98011 q 0.36827,-0.60767 1.16007,-1.89667 1.73093,-2.79896 3.44349,-6.50022 1.50994,-3.25932 1.50994,-4.03272 0,-0.42353 -0.49719,-0.42353 -0.58926,0 -3.97745,0.99437 -5.63476,1.65728 -7.07107,2.68848 -0.5156,0.3867 -0.90232,0.3867 -1.28899,0 -2.94626,-0.97596 -1.16011,-0.68132 -1.16011,-1.19692 0,-0.29461 1.78619,-0.49719 1.47313,-0.14732 7.64192,-1.49155 5.5795,-1.45472 7.03422,-2.17288 0.93913,-0.47877 1.19693,-0.47877 0.8839,0 2.72531,1.8046 0.82865,0.81022 0.82865,1.43631 0,0.33146 -0.88391,1.12327 -0.81021,0.71815 -2.52273,4.401 -1.98873,4.30893 -4.73248,8.17592 4.40102,2.55958 6.02147,3.77492 3.09359,2.32019 3.09359,5.24806 0,1.47313 -0.79181,1.47313 -0.40512,0 -1.6757,-1.06802 -1.74934,-1.71253 -5.34011,-4.69563 l -1.36266,-1.08644 q -1.38106,-1.08644 -1.85984,-1.45473 -4.03271,4.03272 -7.29202,6.02146 -3.70129,2.24654 -6.24246,2.74372 l -0.46034,0.0921 q -0.31302,0.0553 -0.29465,-0.18414 0,-0.16573 0.1657,-0.2578 l 0.73658,-0.42352 q 3.73806,-2.11764 6.46337,-4.51149 2.26497,-1.97032 4.73248,-5.10074 -2.78056,-2.13606 -6.37134,-4.1248 l -0.69973,-0.38669 q -0.2579,-0.14733 -0.2579,-0.31306 0,-0.22098 0.23953,-0.22098 0.0738,0 0.44193,0.0737 l 0.7918,0.18414 q 3.97749,0.84705 7.32887,2.87261 z"
         style="font-weight:bold;font-size:11.2889px;line-height:1.25;font-family:MOESongUN;-inkscape-font-specification:'MOESongUN Bold';letter-spacing:0px;word-spacing:0px;fill:#6a5753;fill-opacity:1;stroke-width:0.883881"
         id="path616-7" />
    </g>
  </g>
</svg>
