<?xml version="1.0" encoding="UTF-8" standalone="no"?>
<svg
   xmlns:dc="http://purl.org/dc/elements/1.1/"
   xmlns:cc="http://creativecommons.org/ns#"
   xmlns:rdf="http://www.w3.org/1999/02/22-rdf-syntax-ns#"
   xmlns:svg="http://www.w3.org/2000/svg"
   xmlns="http://www.w3.org/2000/svg"
   xmlns:sodipodi="http://sodipodi.sourceforge.net/DTD/sodipodi-0.dtd"
   xmlns:inkscape="http://www.inkscape.org/namespaces/inkscape"
   width="24mm"
   height="24mm"
   viewBox="0 0 24 24"
   version="1.1"
   id="svg2402"
   inkscape:version="1.0.1 (3bc2e813f5, 2020-09-07)"
   sodipodi:docname="guileless_bopomofo_keyboard-tone-3.svg">
  <defs
     id="defs2396" />
  <sodipodi:namedview
     id="base"
     pagecolor="#ffffff"
     bordercolor="#666666"
     borderopacity="1.0"
     inkscape:pageopacity="0.0"
     inkscape:pageshadow="2"
     inkscape:zoom="0.35"
     inkscape:cx="-460.35994"
     inkscape:cy="651.06862"
     inkscape:document-units="mm"
     inkscape:current-layer="layer1"
     inkscape:document-rotation="0"
     showgrid="false"
     inkscape:window-width="1920"
     inkscape:window-height="1049"
     inkscape:window-x="1"
     inkscape:window-y="0"
     inkscape:window-maximized="1" />
  <metadata
     id="metadata2399">
    <rdf:RDF>
      <cc:Work
         rdf:about="">
        <dc:format>image/svg+xml</dc:format>
        <dc:type
           rdf:resource="http://purl.org/dc/dcmitype/StillImage" />
        <dc:title></dc:title>
      </cc:Work>
    </rdf:RDF>
  </metadata>
  <g
     inkscape:label="Layer 1"
     inkscape:groupmode="layer"
     id="layer1"
     transform="translate(-227.63691,24.095238)">
    <g
       id="g4656"
       transform="matrix(0.82109133,0,0,0.82109133,87.108482,-88.639668)">
      <rect
         style="fill:none;fill-opacity:0.6;stroke-width:0.0833395"
         id="rect233-5-0"
         width="29.229391"
         height="29.229391"
         x="171.14835"
         y="78.608101" />
      <path
         d="m 180.80034,88.183818 0.53898,0.813558 q 0.32542,0.498305 1.08813,1.810167 1.01695,1.728813 1.87119,3.071184 0.38644,0.620339 0.4983,0.793221 0.67119,1.108473 0.87458,1.108473 0.17289,0 0.47797,-0.457626 0.15253,-0.233899 1.11864,-1.871184 l 0.82373,-1.301696 0.87457,-1.403389 0.4678,-0.701692 q 0.27458,-0.41695 0.47797,-0.732204 0.22372,-0.345762 0.25423,-0.38644 l 0.62034,-0.884746 q 0.33559,-0.488134 0.61017,-0.488134 0.3661,0 0.3661,0.376271 0,0.233897 -0.20339,0.650847 l -0.4983,0.986439 q -0.54916,1.108473 -1.14915,2.338981 -1.42373,2.93898 -2.7356,5.389827 -0.48813,0.915253 -0.71186,1.179659 -0.3661,0.416949 -0.71186,0.416949 -0.54916,0 -1.14916,-1.006778 -1.27118,-2.145762 -2.67457,-5.11525 l -1.82034,-3.803387 -0.22373,-0.488136 q -0.12204,-0.244068 -0.12204,-0.467795 0,-0.39661 0.3356,-0.39661 0.33559,0 0.70169,0.569491 z"
         style="font-weight:bold;font-size:11.2889px;line-height:1.25;font-family:MOESongUN;-inkscape-font-specification:'MOESongUN Bold';letter-spacing:0px;word-spacing:0px;fill:#6a5753;fill-opacity:1;stroke-width:0.488134"
         id="path632-0" />
    </g>
  </g>
</svg>
