<?xml version="1.0" encoding="UTF-8" standalone="no"?>
<svg
   xmlns:dc="http://purl.org/dc/elements/1.1/"
   xmlns:cc="http://creativecommons.org/ns#"
   xmlns:rdf="http://www.w3.org/1999/02/22-rdf-syntax-ns#"
   xmlns:svg="http://www.w3.org/2000/svg"
   xmlns="http://www.w3.org/2000/svg"
   xmlns:sodipodi="http://sodipodi.sourceforge.net/DTD/sodipodi-0.dtd"
   xmlns:inkscape="http://www.inkscape.org/namespaces/inkscape"
   width="24mm"
   height="24mm"
   viewBox="0 0 24 24"
   version="1.1"
   id="svg1608"
   inkscape:version="1.0.1 (3bc2e813f5, 2020-09-07)"
   sodipodi:docname="guileless_bopomofo_keyboard-bo.svg">
  <defs
     id="defs1602" />
  <sodipodi:namedview
     id="base"
     pagecolor="#ffffff"
     bordercolor="#666666"
     borderopacity="1.0"
     inkscape:pageopacity="0.0"
     inkscape:pageshadow="2"
     inkscape:zoom="1"
     inkscape:cx="35.236645"
     inkscape:cy="323.80807"
     inkscape:document-units="mm"
     inkscape:current-layer="layer1"
     inkscape:document-rotation="0"
     showgrid="false"
     fit-margin-top="0"
     fit-margin-left="0"
     fit-margin-right="0"
     fit-margin-bottom="0"
     inkscape:window-width="1920"
     inkscape:window-height="1017"
     inkscape:window-x="0"
     inkscape:window-y="0"
     inkscape:window-maximized="1" />
  <metadata
     id="metadata1605">
    <rdf:RDF>
      <cc:Work
         rdf:about="">
        <dc:format>image/svg+xml</dc:format>
        <dc:type
           rdf:resource="http://purl.org/dc/dcmitype/StillImage" />
        <dc:title />
      </cc:Work>
    </rdf:RDF>
  </metadata>
  <g
     inkscape:label="Layer 1"
     inkscape:groupmode="layer"
     id="layer1"
     transform="translate(-96.510305,-62.492447)">
    <g
       id="g3560">
      <rect
         style="fill:none;fill-opacity:0.6;stroke-width:0.0684293"
         id="rect233"
         width="24"
         height="24"
         x="96.510307"
         y="62.492447"
         inkscape:export-xdpi="96"
         inkscape:export-ydpi="96" />
      <path
         d="m 107.11894,83.112267 -0.49029,-0.50354 q -0.17227,-0.172268 -0.17227,-0.26502 0.0132,-0.132506 0.15902,-0.132506 0.053,0 0.10602,0.02649 l 0.63605,0.331276 q 1.55037,0.808314 2.14667,0.808314 1.17934,0 2.82247,-2.941731 1.61662,-2.901978 2.47794,-6.744781 0.43729,-1.921401 0.43729,-2.636956 0,-1.046834 -0.79507,-1.046834 -1.23234,0 -6.20148,0.87457 -4.83664,0.861317 -7.43384,1.961153 -0.17227,0.0795 -0.33128,0.0795 -0.609545,0 -1.219093,-1.046831 -0.265022,-0.450537 -0.265022,-0.75531 0,-0.304775 0.477039,-0.821565 1.152836,-1.192593 2.597206,-4.266836 0.78181,-1.656381 0.79506,-2.597204 0.0132,-0.437284 0.31802,-0.437284 0.43729,0 1.1661,0.437284 1.08658,0.662552 1.08658,1.166092 0,0.172268 -0.45053,0.622798 -0.50354,0.490289 -1.57688,2.398439 -1.31185,2.29243 -1.31185,2.610456 0,0.38428 0.50354,0.38428 0.37103,0 1.03358,-0.132506 0.82156,-0.159022 3.06099,-0.51679 6.59902,-1.02033 8.05664,-1.669631 0.39753,-0.17227 0.63605,-0.17227 0.60955,0 1.77564,1.179344 0.86131,0.874567 0.86131,1.431112 0,0.172268 -0.33127,0.543294 -0.42403,0.450534 -1.07333,3.021238 -1.33836,5.406424 -3.18026,8.387909 -0.99382,1.64313 -2.13341,2.517698 -1.00708,0.781811 -1.69614,0.781811 -0.35777,0 -0.80831,-0.742059 l -0.11926,-0.185511 q -0.51679,-0.901071 -1.56363,-1.947903 z"
         style="font-weight:bold;font-size:11.2889px;line-height:1.25;font-family:MOESongUN;-inkscape-font-specification:'MOESongUN Bold';letter-spacing:0px;word-spacing:0px;fill:#6c5a57;fill-opacity:1;stroke-width:0.636049"
         id="path554-5"
         inkscape:export-xdpi="96"
         inkscape:export-ydpi="96" />
    </g>
  </g>
</svg>
