<?xml version="1.0" encoding="UTF-8" standalone="no"?>
<svg
   xmlns:dc="http://purl.org/dc/elements/1.1/"
   xmlns:cc="http://creativecommons.org/ns#"
   xmlns:rdf="http://www.w3.org/1999/02/22-rdf-syntax-ns#"
   xmlns:svg="http://www.w3.org/2000/svg"
   xmlns="http://www.w3.org/2000/svg"
   xmlns:sodipodi="http://sodipodi.sourceforge.net/DTD/sodipodi-0.dtd"
   xmlns:inkscape="http://www.inkscape.org/namespaces/inkscape"
   width="24mm"
   height="24mm"
   viewBox="0 0 24 24"
   version="1.1"
   id="svg660"
   inkscape:version="1.0.1 (3bc2e813f5, 2020-09-07)"
   sodipodi:docname="guileless_bopomofo_keyboard-k.svg">
  <defs
     id="defs654" />
  <sodipodi:namedview
     id="base"
     pagecolor="#ffffff"
     bordercolor="#666666"
     borderopacity="1.0"
     inkscape:pageopacity="0.0"
     inkscape:pageshadow="2"
     inkscape:zoom="0.35"
     inkscape:cx="268.21147"
     inkscape:cy="619.64004"
     inkscape:document-units="mm"
     inkscape:current-layer="layer1"
     inkscape:document-rotation="0"
     showgrid="false"
     inkscape:window-width="1920"
     inkscape:window-height="1017"
     inkscape:window-x="0"
     inkscape:window-y="1080"
     inkscape:window-maximized="1" />
  <metadata
     id="metadata657">
    <rdf:RDF>
      <cc:Work
         rdf:about="">
        <dc:format>image/svg+xml</dc:format>
        <dc:type
           rdf:resource="http://purl.org/dc/dcmitype/StillImage" />
        <dc:title></dc:title>
      </cc:Work>
    </rdf:RDF>
  </metadata>
  <g
     inkscape:label="Layer 1"
     inkscape:groupmode="layer"
     id="layer1"
     transform="translate(-34.869048,15.779762)">
    <g
       id="g3771"
       transform="matrix(0.82109133,0,0,0.82109133,-5.8563824,-80.324192)">
      <rect
         style="fill:none;fill-opacity:0.6;stroke-width:0.0833395"
         id="rect233-6-3"
         width="29.229391"
         height="29.229391"
         x="49.599148"
         y="78.608101" />
      <path
         d="m 60.365539,82.603841 q -4.672328,0.509709 -6.999998,1.478155 -0.458736,0.203896 -0.730582,0.203896 -0.662621,0 -1.648056,-1.240292 -0.628641,-0.798542 -0.628641,-1.240292 0,-0.237863 0.288845,-0.237863 0.08495,0 0.356795,0.06797 0.560678,0.135931 1.104367,0.135931 1.002429,0 4.536407,-0.407767 7.067954,-0.951456 14.628628,-1.393203 2.08981,-0.135931 3.05825,-0.526699 0.54369,-0.22088 0.84952,-0.22088 0.6966,0 1.75,0.781555 1.13835,0.849514 1.13835,1.529125 0,0.64563 -0.83253,0.64563 -0.52669,0 -2.49757,-0.186881 -0.8665,-0.08495 -3.34709,-0.08495 -4.859212,0 -9.633486,0.424757 1.342234,1.393203 1.342234,2.208737 0,0.441747 -0.407764,0.815532 -0.526699,0.492719 -1.104371,1.444175 -1.053398,1.733009 -1.053398,2.378636 0,0.288845 0.356798,0.288845 0.186882,0 1.036405,-0.135931 1.699032,-0.27183 4.332521,-0.560681 2.837381,-0.305829 4.706311,-0.866504 0.54369,-0.169898 0.84951,-0.169898 1.08738,0 2.65049,1.444172 0.91747,0.849514 0.91747,1.393203 0,0.254847 -0.44174,0.798545 -0.5267,0.628641 -0.83253,2.650485 -0.90049,5.980581 -4.21359,10.228151 -2.32767,2.9733 -3.975723,2.9733 -0.305829,0 -0.645631,-0.5267 -0.628641,-0.95146 -2.480584,-2.49757 l -0.492719,-0.42476 q -0.22088,-0.2039 -0.22088,-0.3568 0,-0.18688 0.203896,-0.18688 0.186882,0 0.407768,0.0849 l 1.13835,0.47573 q 1.104367,0.44175 1.648056,0.44175 1.002425,0 2.735437,-2.4466 2.02184,-2.85437 2.9733,-6.507283 0.67961,-2.667471 0.67961,-4.111643 0,-1.223302 -1.30825,-1.223302 -2.58252,0 -6.592229,0.696603 -2.174758,0.373784 -4.451455,0.968446 -0.968446,0.220879 -1.07039,0.220879 -0.509707,0 -1.053398,-0.747572 -0.543689,-0.747573 -0.543689,-1.206309 0,-0.441747 0.764565,-1.053398 0.968449,-0.781552 1.817957,-2.021844 1.240295,-1.80097 1.240295,-3.058252 0,-0.475726 -0.305829,-1.138347 z"
         style="font-weight:bold;font-size:11.2889px;line-height:1.25;font-family:MOESongUN;-inkscape-font-specification:'MOESongUN Bold';letter-spacing:0px;word-spacing:0px;fill:#6a5753;fill-opacity:1;stroke-width:0.815532"
         id="path572-2" />
    </g>
  </g>
</svg>
