<?xml version="1.0" encoding="UTF-8" standalone="no"?>
<svg
   xmlns:dc="http://purl.org/dc/elements/1.1/"
   xmlns:cc="http://creativecommons.org/ns#"
   xmlns:rdf="http://www.w3.org/1999/02/22-rdf-syntax-ns#"
   xmlns:svg="http://www.w3.org/2000/svg"
   xmlns="http://www.w3.org/2000/svg"
   xmlns:sodipodi="http://sodipodi.sourceforge.net/DTD/sodipodi-0.dtd"
   xmlns:inkscape="http://www.inkscape.org/namespaces/inkscape"
   width="24mm"
   height="24mm"
   viewBox="0 0 24 24"
   version="1.1"
   id="svg1278"
   inkscape:version="1.0.1 (3bc2e813f5, 2020-09-07)"
   sodipodi:docname="guileless_bopomofo_keyboard-eng.svg">
  <defs
     id="defs1272" />
  <sodipodi:namedview
     id="base"
     pagecolor="#ffffff"
     bordercolor="#666666"
     borderopacity="1.0"
     inkscape:pageopacity="0.0"
     inkscape:pageshadow="2"
     inkscape:zoom="0.35"
     inkscape:cx="-120.35996"
     inkscape:cy="611.06863"
     inkscape:document-units="mm"
     inkscape:current-layer="layer1"
     inkscape:document-rotation="0"
     showgrid="false"
     inkscape:window-width="1920"
     inkscape:window-height="1017"
     inkscape:window-x="0"
     inkscape:window-y="1080"
     inkscape:window-maximized="1" />
  <metadata
     id="metadata1275">
    <rdf:RDF>
      <cc:Work
         rdf:about="">
        <dc:format>image/svg+xml</dc:format>
        <dc:type
           rdf:resource="http://purl.org/dc/dcmitype/StillImage" />
        <dc:title></dc:title>
      </cc:Work>
    </rdf:RDF>
  </metadata>
  <g
     inkscape:label="Layer 1"
     inkscape:groupmode="layer"
     id="layer1"
     transform="translate(-137.67857,13.511909)">
    <g
       id="g4721"
       transform="matrix(0.82109133,0,0,0.82109133,29.974821,-295.39581)">
      <rect
         style="fill:none;fill-opacity:0.6;stroke-width:0.0833395"
         id="rect233-7-8-4-1"
         width="29.229391"
         height="29.229391"
         x="131.17146"
         y="343.30396" />
      <path
         d="m 145.60043,350.76991 -9.01724,15.63612 q -0.24185,0.40903 -0.24185,0.66932 0,0.29746 0.31605,0.29746 0.0371,0 0.1673,0 0.14875,-0.0186 0.72509,-0.0372 9.68657,-0.42762 16.45418,-2.32403 0.85525,-0.24171 1.4502,-0.24171 1.15271,0 2.56575,1.02257 1.76625,1.28287 1.76625,2.28686 0,0.7251 -0.72509,0.7251 -0.2044,0 -1.46879,-0.33467 -1.72908,-0.44621 -4.79682,-0.44621 -4.20187,0 -11.39707,1.09694 -4.83399,0.7251 -6.74902,1.98938 -0.22296,0.13016 -0.39042,0.13016 -0.61355,0 -1.69192,-1.26427 -0.78087,-0.91103 -0.78087,-1.56176 0,-0.35325 0.46479,-0.85524 2.008,-2.13812 5.63349,-8.98008 3.47675,-6.50731 4.64808,-9.22179 0.96679,-2.21248 1.05975,-4.23904 0.0202,-0.52058 0.44621,-0.52058 0.9482,0 2.19391,1.28287 1.37583,1.41301 1.37583,2.49136 0,0.33467 -0.59496,0.70651 -0.7065,0.44622 -1.41303,1.6919 z"
         style="font-weight:bold;font-size:11.2889px;line-height:1.25;font-family:MOESongUN;-inkscape-font-specification:'MOESongUN Bold';letter-spacing:0px;word-spacing:0px;fill:#6a5753;fill-opacity:1;stroke-width:0.892428"
         id="path624-2" />
    </g>
  </g>
</svg>
