<?xml version="1.0" encoding="UTF-8" standalone="no"?>
<svg
   xmlns:dc="http://purl.org/dc/elements/1.1/"
   xmlns:cc="http://creativecommons.org/ns#"
   xmlns:rdf="http://www.w3.org/1999/02/22-rdf-syntax-ns#"
   xmlns:svg="http://www.w3.org/2000/svg"
   xmlns="http://www.w3.org/2000/svg"
   xmlns:sodipodi="http://sodipodi.sourceforge.net/DTD/sodipodi-0.dtd"
   xmlns:inkscape="http://www.inkscape.org/namespaces/inkscape"
   width="24mm"
   height="24mm"
   viewBox="0 0 24 24"
   version="1.1"
   id="svg1921"
   inkscape:version="1.0.1 (3bc2e813f5, 2020-09-07)"
   sodipodi:docname="guileless_bopomofo_keyboard_qwerty_grave.svg">
  <defs
     id="defs1915" />
  <sodipodi:namedview
     id="base"
     pagecolor="#ffffff"
     bordercolor="#666666"
     borderopacity="1.0"
     inkscape:pageopacity="0.0"
     inkscape:pageshadow="2"
     inkscape:zoom="0.35"
     inkscape:cx="-1203.2171"
     inkscape:cy="-366.07424"
     inkscape:document-units="mm"
     inkscape:current-layer="layer1"
     inkscape:document-rotation="0"
     showgrid="false"
     inkscape:window-width="1920"
     inkscape:window-height="1049"
     inkscape:window-x="1"
     inkscape:window-y="0"
     inkscape:window-maximized="1" />
  <metadata
     id="metadata1918">
    <rdf:RDF>
      <cc:Work
         rdf:about="">
        <dc:format>image/svg+xml</dc:format>
        <dc:type
           rdf:resource="http://purl.org/dc/dcmitype/StillImage" />
        <dc:title></dc:title>
      </cc:Work>
    </rdf:RDF>
  </metadata>
  <g
     inkscape:label="Layer 1"
     inkscape:groupmode="layer"
     id="layer1"
     transform="translate(-424.18453,-245.02381)">
    <g
       id="g1897"
       transform="translate(307.31377,14.482596)">
      <rect
         style="fill:none;stroke:none;stroke-width:0.1"
         id="rect10-7-0"
         width="24"
         height="24"
         x="116.87076"
         y="230.54121" />
      <g
         id="g1708"
         style="font-size:11.2889px;line-height:1.25;font-family:'Noto Sans';-inkscape-font-specification:'Noto Sans';letter-spacing:0px;word-spacing:0px;fill:#6c5a57;fill-opacity:0.952941;stroke-width:0.264583"
         transform="matrix(1.4489324,0,0,1.4489324,342.41776,-34.8021)">
        <path
           style="color:#000000;font-style:normal;font-variant:normal;font-weight:normal;font-stretch:normal;font-size:medium;line-height:1.25;font-family:'Noto Sans';-inkscape-font-specification:'Noto Sans';font-variant-ligatures:normal;font-variant-position:normal;font-variant-caps:normal;font-variant-numeric:normal;font-variant-alternates:normal;font-variant-east-asian:normal;font-feature-settings:normal;font-variation-settings:normal;text-indent:0;text-align:start;text-decoration:none;text-decoration-line:none;text-decoration-style:solid;text-decoration-color:#000000;letter-spacing:0px;word-spacing:0px;text-transform:none;writing-mode:lr-tb;direction:ltr;text-orientation:mixed;dominant-baseline:auto;baseline-shift:baseline;text-anchor:start;white-space:normal;shape-padding:0;shape-margin:0;inline-size:0;clip-rule:nonzero;display:inline;overflow:visible;visibility:visible;isolation:auto;mix-blend-mode:normal;color-interpolation:sRGB;color-interpolation-filters:linearRGB;solid-color:#000000;solid-opacity:1;vector-effect:none;fill:#6c5a57;fill-opacity:0.952941;fill-rule:nonzero;stroke:none;stroke-width:0.264583;stroke-linecap:butt;stroke-linejoin:miter;stroke-miterlimit:4;stroke-dasharray:none;stroke-dashoffset:0;stroke-opacity:1;color-rendering:auto;image-rendering:auto;shape-rendering:auto;text-rendering:auto;enable-background:accumulate;stop-color:#000000;stop-opacity:1"
           d="m -144.09187,194.09637 c 0.0828,0.16557 0.18439,0.35372 0.3048,0.56444 0.12794,0.20321 0.25964,0.40265 0.39511,0.59832 0.14299,0.19567 0.27094,0.36501 0.38383,0.508 v 0.13546 h -0.66605 c -0.17309,-0.13547 -0.36877,-0.30856 -0.58702,-0.51929 -0.21825,-0.21825 -0.42145,-0.43273 -0.6096,-0.64346 -0.18063,-0.21825 -0.31609,-0.39511 -0.4064,-0.53058 v -0.11289 z"
           id="path1710" />
        <path
           style="color:#000000;font-style:normal;font-variant:normal;font-weight:normal;font-stretch:normal;font-size:medium;line-height:1.25;font-family:'Noto Sans';-inkscape-font-specification:'Noto Sans';font-variant-ligatures:normal;font-variant-position:normal;font-variant-caps:normal;font-variant-numeric:normal;font-variant-alternates:normal;font-variant-east-asian:normal;font-feature-settings:normal;font-variation-settings:normal;text-indent:0;text-align:start;text-decoration:none;text-decoration-line:none;text-decoration-style:solid;text-decoration-color:#000000;letter-spacing:0px;word-spacing:0px;text-transform:none;writing-mode:lr-tb;direction:ltr;text-orientation:mixed;dominant-baseline:auto;baseline-shift:baseline;text-anchor:start;white-space:normal;shape-padding:0;shape-margin:0;inline-size:0;clip-rule:nonzero;display:inline;overflow:visible;visibility:visible;isolation:auto;mix-blend-mode:normal;color-interpolation:sRGB;color-interpolation-filters:linearRGB;solid-color:#000000;solid-opacity:1;vector-effect:none;fill-opacity:1;fill-rule:nonzero;stroke:none;stroke-width:0.264583;stroke-linecap:butt;stroke-linejoin:miter;stroke-miterlimit:4;stroke-dasharray:none;stroke-dashoffset:0;stroke-opacity:1;color-rendering:auto;image-rendering:auto;shape-rendering:auto;text-rendering:auto;enable-background:accumulate;stop-color:#000000;stop-opacity:1"
           d="M -145.41016,193.96484 V 194.25 l 0.0234,0.0332 c 0.0947,0.14206 0.23177,0.32075 0.41406,0.54102 l 0.002,0.002 0.002,0.002 c 0.18996,0.21276 0.39341,0.42858 0.61328,0.64844 l 0.002,0.002 c 0.22064,0.21302 0.4196,0.38799 0.59766,0.52734 l 0.0352,0.0293 h 0.8457 v -0.31446 l -0.0293,-0.0351 c -0.11105,-0.14067 -0.23739,-0.30835 -0.3789,-0.50196 l -0.002,-0.002 c -0.13249,-0.19145 -0.26146,-0.38718 -0.38672,-0.58594 l -0.004,-0.006 c -0.11775,-0.20628 -0.21642,-0.39182 -0.29688,-0.55273 l -0.0371,-0.0723 h -0.082 z m 0.3125,0.26368 h 0.92578 c 0.0776,0.15191 0.16357,0.3126 0.26954,0.49804 l 0.002,0.002 0.002,0.002 c 0.12896,0.20482 0.26187,0.40625 0.39844,0.60351 v 0.002 l 0.002,0.002 c 0.12123,0.16589 0.22595,0.30276 0.32617,0.43164 h -0.45312 c -0.1608,-0.12795 -0.33999,-0.28455 -0.54297,-0.48047 -0.21561,-0.2156 -0.41597,-0.42507 -0.60156,-0.63281 l -0.002,-0.004 c -0.1457,-0.17618 -0.24235,-0.30549 -0.32618,-0.42382 z"
           id="path1712" />
      </g>
      <g
         id="g1619"
         style="font-size:11.2889px;line-height:1.25;font-family:'Noto Sans';-inkscape-font-specification:'Noto Sans';letter-spacing:0px;word-spacing:0px;fill:#6c5a57;fill-opacity:0.952941;stroke-width:0.264583"
         transform="matrix(1.4039948,0,0,1.4039948,327.71065,-10.62149)">
        <path
           style="color:#000000;font-style:normal;font-variant:normal;font-weight:normal;font-stretch:normal;font-size:medium;line-height:1.25;font-family:'Noto Sans';-inkscape-font-specification:'Noto Sans';font-variant-ligatures:normal;font-variant-position:normal;font-variant-caps:normal;font-variant-numeric:normal;font-variant-alternates:normal;font-variant-east-asian:normal;font-feature-settings:normal;font-variation-settings:normal;text-indent:0;text-align:start;text-decoration:none;text-decoration-line:none;text-decoration-style:solid;text-decoration-color:#000000;letter-spacing:0px;word-spacing:0px;text-transform:none;writing-mode:lr-tb;direction:ltr;text-orientation:mixed;dominant-baseline:auto;baseline-shift:baseline;text-anchor:start;white-space:normal;shape-padding:0;shape-margin:0;inline-size:0;clip-rule:nonzero;display:inline;overflow:visible;visibility:visible;isolation:auto;mix-blend-mode:normal;color-interpolation:sRGB;color-interpolation-filters:linearRGB;solid-color:#000000;solid-opacity:1;vector-effect:none;fill:#6c5a57;fill-opacity:0.952941;fill-rule:nonzero;stroke:none;stroke-width:0.264583;stroke-linecap:butt;stroke-linejoin:miter;stroke-miterlimit:4;stroke-dasharray:none;stroke-dashoffset:0;stroke-opacity:1;color-rendering:auto;image-rendering:auto;shape-rendering:auto;text-rendering:auto;enable-background:accumulate;stop-color:#000000;stop-opacity:1"
           d="m -143.63454,177.52335 c -0.27093,-0.12041 -0.49671,-0.19943 -0.67733,-0.23706 -0.17309,-0.0451 -0.34243,-0.0677 -0.508,-0.0677 -0.21073,0 -0.43274,0.064 -0.66604,0.19191 -0.23331,0.12794 -0.44027,0.28599 -0.62089,0.47414 v -0.88054 c 0.36124,-0.39887 0.81279,-0.59831 1.35466,-0.59831 0.21825,0 0.43274,0.0226 0.64347,0.0677 0.21825,0.0451 0.50048,0.14297 0.84667,0.29352 0.27093,0.12041 0.49295,0.2032 0.66604,0.24835 0.18063,0.0376 0.34996,0.0564 0.508,0.0564 0.21825,0 0.44403,-0.064 0.67734,-0.19191 0.2333,-0.12795 0.44026,-0.28599 0.62089,-0.47414 v 0.86925 c -0.36877,0.4064 -0.82033,0.6096 -1.35467,0.6096 -0.21073,0 -0.42898,-0.0226 -0.65476,-0.0677 -0.21825,-0.0527 -0.49671,-0.1505 -0.83538,-0.29351 z"
           id="path1621" />
        <path
           style="color:#000000;font-style:normal;font-variant:normal;font-weight:normal;font-stretch:normal;font-size:medium;line-height:1.25;font-family:'Noto Sans';-inkscape-font-specification:'Noto Sans';font-variant-ligatures:normal;font-variant-position:normal;font-variant-caps:normal;font-variant-numeric:normal;font-variant-alternates:normal;font-variant-east-asian:normal;font-feature-settings:normal;font-variation-settings:normal;text-indent:0;text-align:start;text-decoration:none;text-decoration-line:none;text-decoration-style:solid;text-decoration-color:#000000;letter-spacing:0px;word-spacing:0px;text-transform:none;writing-mode:lr-tb;direction:ltr;text-orientation:mixed;dominant-baseline:auto;baseline-shift:baseline;text-anchor:start;white-space:normal;shape-padding:0;shape-margin:0;inline-size:0;clip-rule:nonzero;display:inline;overflow:visible;visibility:visible;isolation:auto;mix-blend-mode:normal;color-interpolation:sRGB;color-interpolation-filters:linearRGB;solid-color:#000000;solid-opacity:1;vector-effect:none;fill-opacity:1;fill-rule:nonzero;stroke:none;stroke-width:0.264583;stroke-linecap:butt;stroke-linejoin:miter;stroke-miterlimit:4;stroke-dasharray:none;stroke-dashoffset:0;stroke-opacity:1;color-rendering:auto;image-rendering:auto;shape-rendering:auto;text-rendering:auto;enable-background:accumulate;stop-color:#000000;stop-opacity:1"
           d="m -140.6582,176.07617 -0.22657,0.23828 c -0.17129,0.17843 -0.36789,0.3275 -0.58984,0.44922 -0.21806,0.11958 -0.42088,0.17578 -0.61328,0.17578 -0.14577,0 -0.30391,-0.0176 -0.47461,-0.0527 -0.16161,-0.0422 -0.3795,-0.12158 -0.64648,-0.24024 -0.35039,-0.15236 -0.63811,-0.25439 -0.8711,-0.30273 h -0.002 c -0.21926,-0.0468 -0.4432,-0.0703 -0.66992,-0.0703 -0.57433,0 -1.0698,0.21931 -1.45313,0.64258 l -0.0332,0.0371 v 1.25977 l 0.22656,-0.23633 c 0.17129,-0.17843 0.36789,-0.3275 0.58984,-0.44922 0.21858,-0.11986 0.41761,-0.17578 0.60157,-0.17578 0.15355,0 0.31148,0.02 0.47461,0.0625 l 0.004,0.002 h 0.004 c 0.16597,0.0346 0.38475,0.11045 0.65039,0.22851 h 0.002 c 0.3427,0.14471 0.62585,0.24537 0.85547,0.30078 h 0.002 l 0.004,0.002 c 0.23354,0.0467 0.45952,0.0703 0.67969,0.0703 0.56788,0 1.06298,-0.22435 1.45312,-0.6543 l 0.0332,-0.0371 z m -4.09375,0.46094 c 0.20913,0 0.41365,0.0232 0.61523,0.0664 h 0.002 c 0.20284,0.0419 0.47806,0.13727 0.81836,0.28515 0.27488,0.12217 0.50293,0.20576 0.6875,0.25391 l 0.002,0.002 h 0.004 c 0.18817,0.0392 0.36663,0.0586 0.53516,0.0586 0.2441,0 0.49168,-0.0707 0.74023,-0.20703 0.15923,-0.0873 0.28949,-0.20978 0.42578,-0.32421 v 0.52929 c -0.34134,0.36233 -0.73519,0.55078 -1.22265,0.55078 -0.19943,0 -0.40719,-0.0217 -0.62305,-0.0644 -0.20687,-0.0499 -0.48175,-0.14385 -0.8164,-0.28516 h 0.004 c -0.27394,-0.12175 -0.50495,-0.20311 -0.69922,-0.24414 -0.18306,-0.0477 -0.36342,-0.0723 -0.54101,-0.0723 -0.2375,0 -0.48049,0.073 -0.72852,0.20898 -0.15923,0.0873 -0.28948,0.20978 -0.42578,0.32422 v -0.54102 c 0.3337,-0.35439 0.72686,-0.54101 1.22266,-0.54101 z"
           id="path1623" />
      </g>
    </g>
  </g>
</svg>
