<?xml version="1.0" encoding="UTF-8" standalone="no"?>
<svg
   xmlns:dc="http://purl.org/dc/elements/1.1/"
   xmlns:cc="http://creativecommons.org/ns#"
   xmlns:rdf="http://www.w3.org/1999/02/22-rdf-syntax-ns#"
   xmlns:svg="http://www.w3.org/2000/svg"
   xmlns="http://www.w3.org/2000/svg"
   xmlns:sodipodi="http://sodipodi.sourceforge.net/DTD/sodipodi-0.dtd"
   xmlns:inkscape="http://www.inkscape.org/namespaces/inkscape"
   width="24mm"
   height="24mm"
   viewBox="0 0 24 24"
   version="1.1"
   id="svg1333"
   inkscape:version="1.0.1 (3bc2e813f5, 2020-09-07)"
   sodipodi:docname="guileless_bopomofo_keyboard-er.svg">
  <defs
     id="defs1327" />
  <sodipodi:namedview
     id="base"
     pagecolor="#ffffff"
     bordercolor="#666666"
     borderopacity="1.0"
     inkscape:pageopacity="0.0"
     inkscape:pageshadow="2"
     inkscape:zoom="0.35"
     inkscape:cx="353.92576"
     inkscape:cy="1196.7829"
     inkscape:document-units="mm"
     inkscape:current-layer="layer1"
     inkscape:document-rotation="0"
     showgrid="false"
     inkscape:window-width="1920"
     inkscape:window-height="1017"
     inkscape:window-x="0"
     inkscape:window-y="1080"
     inkscape:window-maximized="1" />
  <metadata
     id="metadata1330">
    <rdf:RDF>
      <cc:Work
         rdf:about="">
        <dc:format>image/svg+xml</dc:format>
        <dc:type
           rdf:resource="http://purl.org/dc/dcmitype/StillImage" />
        <dc:title></dc:title>
      </cc:Work>
    </rdf:RDF>
  </metadata>
  <g
     inkscape:label="Layer 1"
     inkscape:groupmode="layer"
     id="layer1"
     transform="translate(-12.190476,168.48214)">
    <g
       id="g5428"
       transform="matrix(0.82109133,0,0,0.82109133,4.2897252,-482.0071)">
      <rect
         style="fill:none;fill-opacity:0.6;stroke-width:0.0833395"
         id="rect233-2-4-9-0"
         width="29.229391"
         height="29.229391"
         x="9.6222563"
         y="381.83932" />
      <path
         d="m 24.023472,405.51681 v -17.52766 q 0,-2.54544 -0.70042,-3.77545 -0.18782,-0.32459 -0.18782,-0.47834 0,-0.41 0.64917,-0.41 1.09335,0 2.25504,0.68334 1.38374,0.80292 1.38374,1.57168 0,0.15375 -0.23926,0.52959 -0.56375,0.88834 -0.56375,4.11712 v 14.9993 q 0,1.48626 0.8371,1.89627 0.83708,0.42709 3.05796,0.42709 2.57959,0 3.82669,-0.7346 0.92252,-0.54667 1.3496,-0.54667 1.17876,0 2.18669,1.05918 0.35874,0.37584 0.35874,0.73459 0,1.52043 -7.58507,1.52043 -4.15128,0 -5.36423,-0.78584 -1.26414,-0.82001 -1.26414,-3.28003 z m -12.96637,3.28003 -0.46126,0.32459 q -0.10258,0.0683 -0.22221,0.0683 -0.13668,0 -0.13668,-0.15376 0,-0.11959 0.10258,-0.23916 l 0.44416,-0.56376 q 3.5021,-4.25379 4.90296,-11.15552 0.95667,-4.68087 0.95667,-8.26841 0,-2.35752 -0.80292,-3.58753 -0.0511,-0.0854 -0.0511,-0.23917 0,-0.42708 0.51252,-0.42708 0.51249,0 1.40085,0.44417 1.9475,0.99084 1.9475,1.74251 0,0.15375 -0.2904,0.58084 -0.39292,0.58084 -0.56378,3.67295 -0.32458,6.04756 -1.34959,9.208 -1.69126,5.22755 -6.38921,8.593 z"
         style="font-weight:bold;font-size:11.2889px;line-height:1.25;font-family:MOESongUN;-inkscape-font-specification:'MOESongUN Bold';letter-spacing:0px;word-spacing:0px;fill:#6a5753;fill-opacity:1;stroke-width:0.820006"
         id="path626-0" />
    </g>
  </g>
</svg>
