<?xml version="1.0" encoding="UTF-8" standalone="no"?>
<svg
   width="28.574959mm"
   height="28.574951mm"
   viewBox="0 0 28.574959 28.574951"
   version="1.1"
   id="svg8"
   xmlns="http://www.w3.org/2000/svg"
   xmlns:svg="http://www.w3.org/2000/svg"
   xmlns:rdf="http://www.w3.org/1999/02/22-rdf-syntax-ns#"
   xmlns:cc="http://creativecommons.org/ns#"
   xmlns:dc="http://purl.org/dc/elements/1.1/">
  <defs
     id="defs2" />
  <metadata
     id="metadata5">
    <rdf:RDF>
      <cc:Work
         rdf:about="">
        <dc:format>image/svg+xml</dc:format>
        <dc:type
           rdf:resource="http://purl.org/dc/dcmitype/StillImage" />
        <dc:title>Guileless Bopomofo Keyboard</dc:title>
        <cc:license
           rdf:resource="http://creativecommons.org/licenses/by-nd/4.0/" />
        <dc:creator>
          <cc:Agent>
            <dc:title>YOU, HUI-HONG</dc:title>
          </cc:Agent>
        </dc:creator>
      </cc:Work>
      <cc:License
         rdf:about="http://creativecommons.org/licenses/by-nd/4.0/">
        <cc:permits
           rdf:resource="http://creativecommons.org/ns#Reproduction" />
        <cc:permits
           rdf:resource="http://creativecommons.org/ns#Distribution" />
        <cc:requires
           rdf:resource="http://creativecommons.org/ns#Notice" />
        <cc:requires
           rdf:resource="http://creativecommons.org/ns#Attribution" />
      </cc:License>
    </rdf:RDF>
  </metadata>
  <g
     id="layer6"
     transform="translate(-95.250002,-171.45)">
    <g
       id="g34"
       style="display:inline">
      <g
         id="g18087"
         transform="matrix(1.1906231,0,0,1.1906231,386.41769,-464.52149)">
        <rect
           style="fill:none;fill-opacity:0.952941;stroke:none;stroke-width:1.655"
           id="rect20270-6-1-4-7-2"
           width="24"
           height="24"
           x="171.45004"
           y="438.14999" />
        <path
           d="m 183.49323,452.94217 c 1.69833,-0.0288 2.70581,-1.26655 2.70581,-2.70582 0,-1.52562 -1.00748,-2.87853 -2.7346,-2.87853 -1.69833,0 -2.76339,1.3817 -2.76339,2.87853 0.0288,1.41048 1.15141,2.67704 2.79218,2.70582 z"
           style="font-weight:600;font-size:28.7853px;line-height:1em;font-family:'Noto Serif CJK TC';-inkscape-font-specification:'Noto Serif CJK TC Semi-Bold';fill:#6c5a57;fill-opacity:0.952941;stroke-width:0.599692"
           id="path40759-5" />
      </g>
      <g
         id="g18083"
         transform="matrix(1.1906241,0,0,1.1906241,393.6803,-464.52194)">
        <rect
           style="fill:none;fill-opacity:0.952941;stroke:none;stroke-width:1.655"
           id="rect20270-6-8-9-8"
           width="24"
           height="24"
           x="133.35001"
           y="438.14999" />
        <path
           d="m 150.13117,453.99817 0.54692,-0.86356 c 0,0 -5.81463,-4.5193 -8.17503,-6.36155 -1.81347,-1.41048 -3.48302,0.69084 -1.7559,1.78468 1.29534,0.80599 9.38401,5.44043 9.38401,5.44043 z"
           style="font-weight:600;font-size:28.7853px;line-height:1em;font-family:'Noto Serif CJK TC';-inkscape-font-specification:'Noto Serif CJK TC Semi-Bold';fill:#6c5a57;fill-opacity:0.952941;stroke-width:0.599692"
           id="path40757-2" />
      </g>
      <g
         id="g18079"
         transform="matrix(1.1906233,0,0,1.1906233,400.94315,-464.52157)">
        <rect
           style="fill:none;fill-opacity:0.952941;stroke:none;stroke-width:1.655"
           id="rect20270-6-1-5-0"
           width="24"
           height="24"
           x="95.250038"
           y="438.14999" />
        <path
           d="m 107.26443,451.40215 -4.43294,-6.41912 -1.18019,0.54692 5.52677,9.84457 5.67071,-9.87336 -1.15141,-0.5757 z"
           style="font-weight:600;font-size:28.7853px;line-height:1em;font-family:'Noto Serif CJK TC';-inkscape-font-specification:'Noto Serif CJK TC Semi-Bold';fill:#6c5a57;fill-opacity:0.952941;stroke-width:0.599692"
           id="path40755-5" />
      </g>
      <g
         id="g18075"
         transform="matrix(1.1906241,0,0,1.1906241,408.20586,-464.52194)">
        <rect
           style="fill:none;fill-opacity:0.952941;stroke:none;stroke-width:1.655"
           id="rect20270-6-0-5"
           width="24"
           height="24"
           x="57.149998"
           y="438.14999" />
        <path
           d="m 63.830899,453.13278 0.5757,0.86355 c 0,0 8.05989,-4.63443 9.35522,-5.44042 1.69834,-1.06505 0.0288,-3.19517 -1.7559,-1.78469 -2.38918,1.87105 -8.17502,6.36156 -8.17502,6.36156 z"
           style="font-weight:600;font-size:28.7853px;line-height:1em;font-family:'Noto Serif CJK TC';-inkscape-font-specification:'Noto Serif CJK TC Semi-Bold';fill:#6c5a57;fill-opacity:0.952941;stroke-width:0.599692"
           id="path40753-4" />
      </g>
      <g
         id="g18071"
         transform="matrix(1.1906243,0,0,1.1906243,370.10585,-419.15924)">
        <rect
           style="fill:none;fill-opacity:0.952941;stroke:none;stroke-width:1.655"
           id="rect20270-6-3-8-5-6-2"
           width="24"
           height="24"
           x="57.149998"
           y="400.04999" />
        <path
           d="m 64.403429,403.38085 c 0.227305,0.25979 0.584511,0.77936 0.811825,1.46129 0.194837,0.64946 0.259783,1.23398 0.194837,3.08496 -0.16237,3.9942 -0.714412,6.91678 -2.370542,9.12495 -1.493761,2.01333 -2.727738,2.79268 -5.325594,4.22151 -0.876772,0.42214 -0.616991,1.16903 0.292259,0.97418 2.695271,-0.64946 5.130759,-1.85096 6.916781,-4.28645 1.396347,-1.91591 2.175705,-4.83848 2.565377,-9.38472 0.129886,-1.65614 0.129886,-2.98754 0.357208,-3.47463 0.389673,-0.90925 0.357206,-1.23399 -0.519576,-1.75356 -0.487099,-0.29225 -1.52624,-0.71441 -2.500434,-0.84432 -0.779348,-0.12991 -1.039142,0.22733 -0.422141,0.87679 z m 6.494626,1.42883 c 0.194838,1.39634 -0.552043,11.3656 -0.649466,12.82688 -0.09747,1.6886 0.03249,3.66946 1.688598,4.12409 2.338074,0.61699 5.520442,0.7144 7.371408,0.58451 1.591184,-0.12991 2.273117,-0.68194 1.49376,-1.59118 -0.714413,-0.84429 -1.78602,-1.00667 -3.052476,-0.77935 -1.558708,0.25978 -4.189032,0.68193 -5.163227,-0.48709 -0.844304,-1.03914 -0.292259,-6.00754 0,-8.5729 0.259783,-2.53293 0.422153,-4.93593 0.941717,-6.10496 0.584522,-1.2015 0.422153,-1.7211 -0.552042,-2.24065 -0.681934,-0.42215 -1.591184,-0.71441 -2.370532,-0.8443 -1.039141,-0.12991 -1.233977,0.38967 -0.649467,0.94172 0.74688,0.7144 0.844304,1.26646 0.941727,2.14323 z"
           style="font-weight:600;font-size:28.7853px;line-height:1em;font-family:'Noto Serif CJK TC';-inkscape-font-specification:'Noto Serif CJK TC Semi-Bold';fill:#6c5a57;fill-opacity:0.952941;stroke-width:0.676521"
           id="path40751-7" />
      </g>
      <g
         id="g18067"
         transform="matrix(1.1906233,0,0,1.1906233,195.91763,-259.49608)">
        <rect
           style="fill:none;fill-opacity:0.952941;stroke:none;stroke-width:1.655"
           id="rect20270-6-3-8-5-8-6-8"
           width="24"
           height="24"
           x="171.45001"
           y="361.95001" />
        <path
           d="m 183.78897,365.23497 c -1.44381,-0.8952 -1.61707,-0.49091 -1.41495,1.38607 0.37542,3.08978 -4.24484,11.29071 -6.93036,13.57196 -0.77965,0.63529 -1.18393,0.63529 -1.15505,1.93474 0.0289,1.44383 0.51977,1.03955 2.02135,0.4909 2.80102,-1.01069 11.26186,-1.90586 14.26502,-1.32833 2.39675,0.43314 2.51225,-0.51978 1.21281,-1.41495 -0.72192,-0.4909 -1.29944,-0.92405 -2.57002,-0.77967 -2.02136,0.17326 -8.80734,0.83743 -11.46398,1.09731 2.31012,-2.57 5.86194,-9.15386 6.95924,-11.40624 0.51978,-1.0973 0.63529,-1.50158 0.1444,-2.28123 -0.23102,-0.40428 -0.72194,-1.03956 -1.06846,-1.27056 z"
           style="font-weight:600;font-size:28.7853px;line-height:1em;font-family:'Noto Serif CJK TC';-inkscape-font-specification:'Noto Serif CJK TC Semi-Bold';fill:#6c5a57;fill-opacity:0.952941;stroke-width:0.601593"
           id="path40749-3" />
      </g>
      <g
         id="g18063"
         transform="matrix(1.190623,0,0,1.190623,241.28043,-297.59601)">
        <rect
           style="fill:none;fill-opacity:0.952941;stroke:none;stroke-width:1.655"
           id="rect20270-6-3-8-5-0-4"
           width="24"
           height="24"
           x="133.35002"
           y="361.95001" />
        <path
           d="m 145.59499,373.10762 c 0.26559,0.35411 -0.0295,5.548 0.0592,7.43669 0.0885,1.71163 0.44266,2.65597 2.27233,3.3052 1.97722,0.70826 5.90215,0.38364 7.1711,0.20657 1.15093,-0.17705 1.77067,-0.50167 0.85583,-1.29846 -0.82632,-0.73776 -1.20994,-0.8263 -2.47891,-0.32462 -1.1214,0.44266 -3.36423,0.47216 -4.33808,0.2656 -1.59359,-0.32462 -1.97723,-1.06239 -2.00673,-2.80354 -0.0295,-2.00672 0.17706,-4.92828 0.53118,-5.60703 0.35415,-0.70827 0.2066,-1.00336 -0.38362,-1.41652 -0.41316,-0.29509 -0.82631,-0.5607 -1.38702,-0.73777 -0.59021,-0.20656 -0.88531,0.118 -0.29511,0.97388 z m -9.59099,-1.20995 c 1.23945,1.18042 1.53457,1.26897 3.21667,0.76728 0.76728,-0.20659 2.36085,-0.50169 4.16101,-0.79681 -0.23608,0.79681 -0.50168,1.62309 -0.8558,2.44939 -1.50506,3.57081 -3.89544,6.96456 -7.64329,9.11883 -1.09191,0.61972 -0.50169,1.12141 0.67874,0.70826 2.715,-0.97386 5.54803,-2.86253 8.20399,-8.08594 0.73777,-1.41652 1.23947,-3.01011 1.62309,-4.45613 2.68548,-0.38363 5.42998,-0.64923 6.63993,-0.53119 2.27234,0.14756 2.7445,-0.17706 1.53454,-1.18043 -1.06237,-0.91483 -1.50504,-0.91483 -3.62982,-0.50168 l -4.24953,0.76729 c 0.47216,-2.27233 0.59022,-4.04298 0.70826,-4.27906 0.29509,-0.56072 0.38362,-0.94436 -0.118,-1.29849 -0.56071,-0.35412 -1.20994,-0.73776 -2.03625,-0.91482 -1.1214,-0.23609 -1.29847,0.23608 -0.2951,1.29846 0.44265,0.44266 0.44265,2.74451 -0.17707,5.51852 l -0.14755,0.0295 c -3.06911,0.44265 -5.7546,0.8558 -6.87601,0.5607 -1.44602,-0.38365 -1.56406,0.0295 -0.73776,0.82631 z"
           style="font-weight:600;font-size:28.7853px;line-height:1em;font-family:'Noto Serif CJK TC';-inkscape-font-specification:'Noto Serif CJK TC Semi-Bold';fill:#6c5a57;fill-opacity:0.952941;stroke-width:0.614806"
           id="path40747-9" />
      </g>
      <g
         id="g18059"
         transform="matrix(1.1906232,0,0,1.1906232,286.64319,-335.69608)">
        <rect
           style="fill:none;fill-opacity:0.952941;stroke:none;stroke-width:1.655"
           id="rect20270-6-3-8-5-8-4"
           width="24"
           height="24"
           x="95.25"
           y="361.95001" />
        <path
           d="m 102.09925,363.7478 c 0.47911,0.73462 -1.02207,8.24051 -2.555194,9.23064 -0.766552,0.54298 -0.830431,0.89432 -0.60686,1.50118 0.31942,0.92627 0.51105,0.99014 1.660894,0.60685 2.26772,-0.86237 8.04884,-1.82057 10.5721,-1.59698 1.78864,0.19163 1.9164,0.76654 1.62894,2.17192 -0.28746,1.59699 -1.37343,4.59934 -2.13997,5.94082 -0.76656,1.46924 -1.18178,1.46924 -0.89432,2.52325 0.60687,1.98029 0.89432,1.9164 1.9164,0.22358 1.08596,-1.69281 2.74683,-8.04887 3.44952,-9.039 0.89432,-1.21372 0.73461,-1.72476 -0.83045,-2.84264 -1.37342,-1.02209 -1.72475,-1.02209 -3.13012,-0.92628 -2.71489,0.19166 -6.10052,0.6388 -9.29451,1.24566 0.95819,-2.10804 2.45937,-6.77126 2.81071,-7.56976 0.4791,-1.02208 0.63879,-1.2776 -0.0319,-1.78864 -0.70269,-0.57491 -1.37342,-0.83045 -1.98028,-1.02208 -1.14983,-0.38328 -1.37342,0.1597 -0.57492,1.34148 z"
           style="font-weight:600;font-size:28.7853px;line-height:1em;font-family:'Noto Serif CJK TC';-inkscape-font-specification:'Noto Serif CJK TC Semi-Bold';fill:#6c5a57;fill-opacity:0.952941;stroke-width:0.665414"
           id="path40745-6" />
      </g>
      <g
         id="g18055"
         transform="matrix(1.1906233,0,0,1.1906233,332.00593,-373.79612)">
        <rect
           style="fill:none;fill-opacity:0.952941;stroke:none;stroke-width:1.655"
           id="rect20270-6-3-8-5-9"
           width="24"
           height="24"
           x="57.149998"
           y="361.95001" />
        <path
           d="m 64.814372,366.90978 c 0.308794,0.86464 0.03089,1.76016 -0.339679,2.68654 -0.524956,1.35872 -1.266061,2.71742 -2.16158,3.36589 -0.833749,0.61759 -1.235187,0.83376 -1.142543,1.23519 0,0.37056 0.339668,1.17343 0.77199,1.32783 0.432312,0.18527 0.710231,-0.21616 1.513107,-0.4632 1.266072,-0.49407 8.059604,-1.08079 10.066793,-0.9264 1.821901,0.18529 1.667498,1.17344 1.513107,1.60576 -0.586725,1.76014 -1.358715,3.42765 -2.655661,5.00252 -1.04991,1.26605 -1.32783,1.57487 -1.389589,2.31596 -0.0618,1.45135 0.49408,1.6984 1.513106,0.67937 1.605751,-1.72928 2.686535,-3.61293 4.04524,-6.20682 0.432322,-0.9264 0.802875,-1.72928 1.420474,-2.03807 0.494071,-0.27792 0.524955,-0.86464 -0.370553,-1.69838 -0.957277,-0.83376 -2.099832,-1.48223 -4.076124,-1.35872 -2.686546,0.12352 -8.275766,0.64848 -9.233044,0.77199 0.494082,-0.7411 2.346856,-3.98348 2.624777,-4.66284 0.308793,-0.7411 0.494081,-1.01901 0,-1.60574 -0.308795,-0.33967 -0.648473,-0.64847 -0.957268,-0.83374 2.099822,-0.43232 4.848115,-0.83377 6.237705,-0.772 1.513106,0.0618 1.605739,0.55584 1.482222,1.20431 -0.27792,1.29694 -1.296946,3.70557 -2.161581,5.12604 -0.370552,0.64847 0.216161,1.01902 0.617599,0.67935 1.914545,-1.66751 2.748295,-4.69373 3.643803,-5.37307 0.741116,-0.55584 0.77199,-1.23519 0.370564,-1.6984 -0.370564,-0.40143 -1.451349,-1.26606 -1.636625,-1.42046 -0.617599,-0.40143 -0.926393,-0.37055 -1.852785,-0.1544 -2.563019,0.52496 -9.727115,1.3896 -11.301981,1.01903 -1.60575,-0.33966 -1.821901,-0.18526 -0.524955,1.11168 1.173428,1.11166 1.791026,1.17342 2.99533,0.77199 l 0.895518,-0.24704 c 0,0.18528 0.03089,0.37055 0.09269,0.55583 z"
           style="font-weight:600;font-size:28.7853px;line-height:1em;font-family:'Noto Serif CJK TC';-inkscape-font-specification:'Noto Serif CJK TC Semi-Bold';fill:#6c5a57;fill-opacity:0.952941;stroke-width:0.643326"
           id="path40743-5" />
      </g>
      <g
         id="g18051"
         transform="matrix(1.1906235,0,0,1.1906235,157.81763,-214.13343)">
        <rect
           style="fill:none;fill-opacity:0.952941;stroke:none;stroke-width:1.655"
           id="rect20270-6-3-8-59-7-4"
           width="24"
           height="24"
           x="171.45001"
           y="323.85001" />
        <path
           d="m 178.68614,331.49894 c 2.18304,1.487 4.33444,3.92314 5.66323,5.41014 l 0.15821,0.18982 c -3.1322,3.54348 -5.97963,5.75816 -9.36492,7.46663 -1.39207,0.69603 -1.17062,1.64518 1.29717,0.9175 2.24631,-0.69604 5.50503,-2.43615 9.49147,-6.80221 1.51861,1.74009 3.29037,3.92313 3.70167,4.77736 1.20224,2.62597 1.58189,2.49941 2.49941,1.17061 0.63276,-0.85421 0.63276,-1.26552 -0.82259,-2.97398 -1.23389,-1.45536 -2.91072,-3.22711 -4.11297,-4.49263 2.72087,-3.38529 3.60675,-5.948 4.39771,-6.83384 1.45535,-1.64518 1.42371,-1.86667 -0.56949,-3.54349 -1.36045,-1.13896 -1.70847,-0.9175 -3.70168,-0.44292 -1.86664,0.41128 -8.73214,1.3288 -10.37732,0.98076 -1.70846,-0.34802 -1.86666,-0.0633 -0.53785,1.26554 0.85423,0.91752 1.23389,1.26553 3.10055,0.72768 2.11977,-0.60113 7.05531,-1.17061 8.32084,-1.23389 1.48699,-0.095 1.83501,0.34803 1.3288,1.61356 -0.44294,1.04406 -1.04406,3.00561 -3.44854,5.9796 -2.11978,-1.9932 -4.65083,-4.33443 -6.01127,-4.90391 -1.20225,-0.50622 -2.05649,0.0633 -1.01243,0.72767 z"
           style="font-weight:600;font-size:28.7853px;line-height:1em;font-family:'Noto Serif CJK TC';-inkscape-font-specification:'Noto Serif CJK TC Semi-Bold';fill:#6c5a57;fill-opacity:0.952941;stroke-width:0.659127"
           id="path40741-6" />
      </g>
      <g
         id="g18047"
         transform="matrix(1.1906235,0,0,1.1906235,203.18039,-252.23342)">
        <rect
           style="fill:none;fill-opacity:0.952941;stroke:none;stroke-width:1.655"
           id="rect20270-6-3-8-3-2"
           width="24"
           height="24"
           x="133.35001"
           y="323.85001" />
        <path
           d="m 145.24873,326.93295 c 0.11493,0.74706 -0.83326,2.38482 -2.47102,4.33865 -1.60904,1.92509 -3.01695,3.36174 -3.99385,3.62034 -1.40791,0.37351 -1.52284,2.26988 0.14365,2.09747 1.95383,-0.20111 4.28119,-0.0575 6.17755,0.45974 -1.86762,2.12622 -4.10879,4.13752 -6.23501,5.34429 -0.83325,0.48845 -1.14932,0.83327 -1.03439,1.46538 0.22987,1.35043 0.74706,1.29297 2.5285,0.77578 1.86763,-0.57465 7.95899,-1.09184 10.5162,-1.46537 l 0.17239,0.54592 c 0.57465,2.32736 1.20677,2.58595 1.81016,1.35045 0.57466,-1.20678 -0.71832,-4.59725 -3.41919,-7.12574 -0.97692,-0.94818 -1.43664,-0.60338 -1.03439,0.11494 0.68959,1.17804 1.37918,2.47102 1.86765,3.62032 -1.78145,0.22986 -6.40743,0.68959 -7.95899,0.89072 -0.37353,0.0287 -0.54593,-0.14366 -0.22987,-0.40226 1.6665,-1.40791 4.30992,-4.08005 5.22938,-5.14317 2.26988,-2.58594 3.59159,-4.45357 4.25244,-4.9995 0.80451,-0.66085 1.06311,-0.86198 0.57465,-1.5803 -0.28732,-0.45973 -0.86197,-1.00565 -1.55157,-1.43665 -0.91945,-0.51718 -1.12057,-0.25859 -1.00564,1.32172 0.0861,0.68958 -1.29298,2.81581 -3.36174,5.37303 -1.52283,-0.3448 -3.67779,-0.77579 -4.5685,-0.94819 -0.20114,-0.0287 -0.40227,-0.11492 -0.11495,-0.37353 1.98257,-1.81015 4.36739,-4.94203 5.28684,-5.83275 1.06311,-0.97691 1.23551,-1.23551 0.77578,-1.8389 -0.28731,-0.43098 -0.71832,-0.91945 -1.29298,-1.26423 -0.86197,-0.5172 -1.32169,-0.63213 -1.0631,1.09184 z"
           style="font-weight:600;font-size:28.7853px;line-height:1em;font-family:'Noto Serif CJK TC';-inkscape-font-specification:'Noto Serif CJK TC Semi-Bold';fill:#6c5a57;fill-opacity:0.952941;stroke-width:0.598598"
           id="path40739-7" />
      </g>
      <g
         id="g18043"
         transform="matrix(1.1906233,0,0,1.1906233,248.54318,-290.33336)">
        <rect
           style="fill:none;fill-opacity:0.952941;stroke:none;stroke-width:1.655"
           id="rect20270-6-3-8-59-59"
           width="24"
           height="24"
           x="95.25"
           y="323.85001" />
        <path
           d="m 99.287477,328.02526 c 0.964253,0.87386 1.506633,1.0848 2.621563,0.75333 1.35598,-0.39173 3.61593,-0.93412 5.45405,-0.93412 -0.0904,2.89277 -0.0302,6.20739 0.69306,9.40148 0.99438,4.18847 2.65171,6.99084 5.18287,8.94948 0.69304,-0.57254 1.20531,-0.87385 1.80797,-0.96426 1.32584,-0.21092 1.32584,-0.54239 -0.0602,-1.23545 -2.47091,-1.29572 -4.09808,-3.73648 -5.06233,-7.11136 -0.87386,-3.1037 -1.11493,-7.98524 -0.60267,-8.61802 1.38613,-1.68746 1.50665,-1.92852 0.66293,-2.44078 -0.69305,-0.36159 -0.96425,-0.51226 -1.92851,0.0602 -1.20532,0.69305 -6.47858,1.26559 -7.71403,1.05465 -2.320232,-0.39172 -2.259966,0.0302 -1.054641,1.08479 z"
           style="font-weight:600;font-size:28.7853px;line-height:1em;font-family:'Noto Serif CJK TC';-inkscape-font-specification:'Noto Serif CJK TC Semi-Bold';fill:#6c5a57;fill-opacity:0.952941;stroke-width:0.627768"
           id="path40737-4" />
      </g>
      <g
         id="g18039"
         transform="matrix(1.1906234,0,0,1.1906234,293.90592,-328.4334)">
        <rect
           style="fill:none;fill-opacity:0.952941;stroke:none;stroke-width:1.655"
           id="rect20270-6-3-8-0"
           width="24"
           height="24"
           x="57.149998"
           y="323.85001" />
        <path
           d="m 59.406414,327.86515 c 1.288383,1.28838 1.60262,1.38266 3.362362,0.91129 1.319803,-0.31422 4.870706,-0.78558 8.201642,-1.06841 -0.125695,1.4455 -0.597054,4.17937 -1.602621,6.66188 -2.293949,0.18855 -4.399347,0.37708 -4.996399,0.53421 0.534205,-0.81703 1.822591,-3.20525 2.136825,-3.64519 0.377084,-0.56563 0.597054,-1.00556 0.125694,-1.38264 -0.565636,-0.53422 -0.942719,-0.72276 -1.508354,-0.94273 -0.408502,-0.18854 -0.628472,0.21997 -0.439931,0.65991 0.282818,0.81702 -0.125693,1.69689 -0.43993,2.54533 -0.377095,0.9113 -1.162688,2.10541 -2.136825,2.89101 -0.848454,0.62848 -1.036996,0.72274 -1.036996,1.16268 0,0.37709 -0.06289,0.91131 0.377084,1.16268 0.345664,0.12571 0.817022,-0.21995 1.854018,-0.59705 1.036985,-0.37708 3.236658,-0.72273 5.404915,-0.97413 l -0.157125,0.31424 c -1.822579,3.36236 -4.525042,6.5676 -7.447464,7.8874 -2.011131,0.87987 -1.854018,1.66547 0.188541,1.25695 2.733881,-0.59706 6.284786,-3.708 8.610154,-7.69886 0.377084,-0.65991 0.722749,-1.31979 1.036996,-1.97972 1.35122,-0.12567 2.513909,-0.15712 3.079533,-0.12567 1.539774,0.0942 1.85402,0.47135 1.319814,2.32537 -0.439941,1.57118 -1.634049,4.58788 -2.608185,5.78199 -0.97415,1.22553 -1.225539,1.4455 -1.162692,2.07398 0.06289,0.81703 0.817026,0.91131 2.388216,-0.69133 2.325379,-2.45107 3.393792,-7.19609 4.085111,-7.8874 0.28282,-0.28282 0.597056,-0.56563 0.03145,-1.35124 -0.408512,-0.50277 -0.942719,-1.0684 -1.539773,-1.47693 -0.534206,-0.37707 -1.036995,-0.34565 -2.325368,-0.25137 l -2.702463,0.21998 c 0.879872,-2.26255 1.351231,-4.49363 1.759745,-6.63047 1.57119,-0.0943 2.95385,-0.0943 3.802293,0 2.419645,0.34568 2.922422,-0.0315 1.728315,-1.19411 -1.036985,-0.97415 -1.319801,-1.00556 -3.613752,-0.62848 -1.602621,0.28281 -3.739447,0.47136 -6.724716,0.84844 -3.362363,0.37711 -7.070392,0.75419 -8.233071,0.40853 -1.539772,-0.47136 -1.665466,-0.0314 -0.817024,0.87986 z"
           style="font-weight:600;font-size:28.7853px;line-height:1em;font-family:'Noto Serif CJK TC';-inkscape-font-specification:'Noto Serif CJK TC Semi-Bold';fill:#6c5a57;fill-opacity:0.952941;stroke-width:0.654662"
           id="path40735-5" />
      </g>
      <g
         id="g16447"
         transform="matrix(1.1906249,0,0,1.1906249,119.71737,-168.77103)">
        <rect
           style="fill:none;fill-opacity:0.952941;stroke:none;stroke-width:1.655"
           id="rect20270-6-3-1-4-5"
           width="24"
           height="24"
           x="171.45"
           y="285.74997" />
        <path
           d="m 172.7142,297.41426 c 1.32364,1.22911 1.6388,1.32366 3.40368,0.78789 0.53576,-0.15758 1.51275,-0.31516 2.74186,-0.47272 l 0.0947,4.50672 c 0.0631,3.8134 0.40968,5.20008 2.42669,5.57826 2.55277,0.44123 7.15404,0.28364 8.82438,0.0631 1.92245,-0.18909 1.95397,-1.29214 1.04,-1.8279 -0.59879,-0.50427 -1.38668,-0.44122 -2.58427,-0.1891 -1.26062,0.31516 -3.78188,0.47273 -5.70433,0.37819 -1.73337,-0.12607 -2.26912,-0.94547 -2.30065,-2.96247 l -0.0316,-5.76736 c 1.79639,-0.1891 3.8449,-0.4097 5.76737,-0.53576 -0.53578,2.4267 -1.51276,5.13703 -2.71035,7.53224 -0.47273,0.94545 0.15758,1.48123 1.26062,0.28362 1.4182,-1.67033 2.33215,-4.12853 3.30914,-7.94193 1.85942,-0.0947 3.40369,-0.12605 4.19157,-0.0316 2.30065,0.31517 2.96246,-0.12605 1.63882,-1.22909 -1.13456,-0.977 -1.73336,-1.04004 -4.034,-0.66183 l -1.38668,0.2206 c 0.47272,-1.98549 0.81941,-4.09704 0.94546,-4.53826 0.47275,-1.63881 -0.0316,-2.08002 -1.67032,-2.8364 -1.76488,-0.78789 -2.39519,-0.22061 -1.32366,0.91396 0.81939,0.81939 0.75637,2.77336 0.0947,6.71282 l -4.00248,0.50425 -2.08003,0.22062 c 0.0316,-1.54428 0.0631,-2.89944 0.12606,-3.49824 0.1891,-1.63882 0.25212,-2.01701 -0.47273,-2.55278 -0.50426,-0.37817 -1.16609,-0.69334 -1.85942,-0.85091 -1.5758,-0.37819 -1.82791,-0.12606 -0.78789,1.13457 0.78789,0.94547 0.88244,1.60729 1.04001,3.02549 0.0631,0.53576 0.12606,1.67034 0.15757,2.93094 -2.33216,0.22063 -4.56975,0.37821 -5.32614,0.18911 -1.57578,-0.40971 -1.70184,0.0316 -0.78787,0.91394 z"
           style="font-weight:600;font-size:28.7853px;line-height:1em;font-family:'Noto Serif CJK TC';-inkscape-font-specification:'Noto Serif CJK TC Semi-Bold';fill:#6c5a57;fill-opacity:0.952941;stroke-width:0.656574"
           id="path40733-5" />
      </g>
      <g
         id="g16443"
         transform="matrix(1.1906246,0,0,1.1906246,165.08022,-206.87098)">
        <rect
           style="fill:none;fill-opacity:0.952941;stroke:none;stroke-width:1.655"
           id="rect20270-6-3-10-2"
           width="24"
           height="24"
           x="133.35001"
           y="285.75" />
        <path
           d="m 135.35599,295.17921 c 1.24895,1.21849 1.58403,1.30988 3.28991,0.79202 1.00526,-0.27417 3.50314,-0.60925 6.21427,-0.88339 l -0.0305,1.6754 c -0.0305,0.70063 -0.21323,1.43172 -0.97479,1.5231 -3.0462,0.30463 -4.93486,2.22374 -4.99579,4.69117 -0.0305,2.58928 2.43697,5.14809 7.3109,5.11763 4.14285,-0.0609 6.15334,-1.61449 6.97581,-2.58928 1.06618,-1.21849 -0.0305,-2.10188 -1.18801,-1.15755 -1.49264,1.21848 -3.10713,1.85818 -5.72686,1.94958 -2.74161,0.0913 -5.42225,-1.00527 -5.42225,-3.07669 0,-2.43696 2.40649,-3.35083 3.83821,-3.41175 1.43171,-0.0305 1.79727,-0.42647 1.91911,-2.01049 l 0.0914,-2.89389 c 2.83297,-0.24372 5.57456,-0.39601 6.97581,-0.24372 2.34558,0.21325 2.83297,-0.15229 1.58402,-1.21846 -1.06617,-0.94434 -1.64495,-0.9748 -3.86868,-0.63972 -1.18802,0.21325 -2.8939,0.42648 -4.63023,0.63972 0.0609,-1.49265 0.12184,-2.86345 0.27415,-3.41177 0.27416,-1.0357 0.30463,-1.49264 -0.21323,-1.76679 -0.70063,-0.39601 -1.73634,-0.70063 -2.04097,-0.79203 -1.24895,-0.27414 -1.40124,0.3351 -0.76154,0.91387 0.42646,0.30462 0.70063,0.88341 0.82248,1.73634 0.0609,0.45693 0.0914,2.01049 0.0914,3.5336 -3.01577,0.36554 -7.646,0.97479 -8.80354,0.67016 -1.49265,-0.42646 -1.58405,0 -0.73109,0.85294 z"
           style="font-weight:600;font-size:28.7853px;line-height:1em;font-family:'Noto Serif CJK TC';-inkscape-font-specification:'Noto Serif CJK TC Semi-Bold';fill:#6c5a57;fill-opacity:0.952941;stroke-width:0.634625"
           id="path40731-1" />
      </g>
      <g
         id="g16439"
         transform="matrix(1.1906238,0,0,1.1906238,210.44312,-244.97075)">
        <rect
           style="fill:none;fill-opacity:0.952941;stroke:none;stroke-width:1.655"
           id="rect20270-6-3-1-40"
           width="24"
           height="24"
           x="95.25"
           y="285.75" />
        <path
           d="m 97.848459,291.42694 c 1.238206,1.20874 1.533017,1.29719 3.183961,0.79601 0.97289,-0.26533 3.41982,-0.56015 6.01416,-0.79601 0.059,0.97288 0.0885,1.94576 0.0885,2.71227 0,0.97287 -0.1474,1.29719 -0.64858,1.38562 -2.15213,0.38326 -5.42453,2.06367 -5.42453,5.74882 0,3.21346 3.39034,5.15919 7.34081,5.04128 3.95047,-0.11793 6.16155,-1.38562 7.25235,-2.80072 1.09082,-1.41509 -0.50117,-2.09315 -1.41508,-0.97287 -0.70755,0.94341 -2.80072,1.85731 -5.89625,1.94577 -2.80069,0.059 -5.45399,-1.20874 -5.45399,-3.27243 -0.0294,-2.62382 2.74174,-4.06838 4.30423,-4.15684 1.73939,-0.0591 1.94576,-0.41273 1.97525,-2.29953 v -3.47876 c 2.41744,-0.17689 4.68751,-0.20638 5.80778,-0.0591 2.27005,0.35377 2.74175,-0.11793 1.5625,-1.14977 -1.03182,-0.91392 -1.59197,-1.03184 -3.36085,-0.76651 -2.29953,0.3243 -13.207554,1.70991 -14.593171,1.29717 -1.444578,-0.41273 -1.562502,0.0294 -0.737027,0.82547 z"
           style="font-weight:600;font-size:28.7853px;line-height:1em;font-family:'Noto Serif CJK TC';-inkscape-font-specification:'Noto Serif CJK TC Semi-Bold';fill:#6c5a57;fill-opacity:0.952941;stroke-width:0.614189"
           id="path40729-6" />
      </g>
      <g
         id="g16435"
         transform="matrix(1.1906237,0,0,1.1906237,255.80589,-282.01238)">
        <rect
           style="fill:none;fill-opacity:0.952941;stroke:none;stroke-width:1.655"
           id="rect20270-6-3-3"
           width="24"
           height="24"
           x="57.149998"
           y="285.75" />
        <path
           d="m 75.879654,286.74926 c 0,0.41032 -0.220944,1.07314 -0.757518,1.67283 -0.789074,0.88378 -3.566619,2.9985 -5.839169,4.3557 -1.956901,-1.98847 -5.428848,-4.32412 -5.8076,-4.76602 -0.789075,-0.85219 -0.915326,-1.04157 -2.367235,-0.44187 -1.546592,0.66282 -1.451897,1.13627 0.03159,1.57815 1.325647,0.41032 4.986959,2.58817 7.006996,4.76602 0.157821,2.74599 0.06315,9.97394 -0.252501,11.23646 -0.536572,2.17785 -0.284071,2.43036 0.315627,3.47194 1.010019,1.73597 1.98848,1.10471 1.925355,-3.62976 -0.03159,-2.49348 -0.347195,-7.16481 0.09474,-11.17333 2.903806,-1.67284 6.375741,-4.41884 7.322634,-4.79759 0.852212,-0.37876 1.199397,-0.88377 -0.09473,-2.14627 -1.325656,-1.2941 -1.609717,-1.01003 -1.578159,-0.12626 z"
           style="font-weight:600;font-size:28.7853px;line-height:1em;font-family:'Noto Serif CJK TC';-inkscape-font-specification:'Noto Serif CJK TC Semi-Bold';fill:#6c5a57;fill-opacity:0.952941;stroke-width:0.657563"
           id="path40727-0" />
      </g>
      <g
         id="g14847"
         transform="matrix(1.1906246,0,0,1.1906246,126.98022,-161.50817)">
        <rect
           style="fill:none;fill-opacity:0.952941;stroke:none;stroke-width:1.655"
           id="rect20270-6-8-9"
           width="24"
           height="24"
           x="133.35001"
           y="247.64999" />
        <path
           d="m 152.00992,255.55011 c 0.22286,2.96081 0.3502,6.622 0.3502,9.51914 -3.72487,0.12734 -8.9779,0.50937 -12.92562,0.9551 0.76408,-2.64244 1.68733,-6.81303 2.38773,-12.25708 0.0956,-0.95509 0,-1.40081 -0.22285,-1.71917 -0.57305,-0.66856 -1.24162,-1.1461 -1.84652,-1.43264 -0.85959,-0.41387 -1.68733,0.12735 -1.08244,0.89143 1.17796,1.55998 0.76408,4.23425 0.28652,7.54525 -0.60488,4.10692 -1.33712,6.20812 -1.97385,6.90852 -0.31837,0.38205 -0.79592,0.73226 -0.79592,1.17795 0.0318,0.54123 0.50938,1.46448 0.85959,1.75101 0.4457,0.31837 1.01877,-0.19102 1.75102,-0.44571 2.83344,-0.98693 8.65952,-1.49631 13.53051,-1.71917 -0.0637,2.03753 0.3502,2.57875 1.08244,2.57875 0.82775,0 1.05061,-1.46447 1.08245,-2.35589 0.12733,-2.86529 -0.41388,-13.3395 -0.19102,-14.51746 0.19102,-0.95509 -0.0956,-1.36897 -1.01878,-1.84652 -0.4457,-0.25468 -1.46448,-0.54123 -1.91018,-0.57306 -1.36898,-0.12734 -1.4008,0.63673 -0.47755,1.24164 0.98692,0.66856 0.92325,1.75101 1.11427,4.29791 z"
           style="font-weight:600;font-size:28.7853px;line-height:1em;font-family:'Noto Serif CJK TC';-inkscape-font-specification:'Noto Serif CJK TC Semi-Bold';fill:#6c5a57;fill-opacity:0.952941;stroke-width:0.663258"
           id="path40725-2" />
      </g>
      <g
         id="g14843"
         transform="matrix(1.1906241,0,0,1.1906241,172.34308,-199.60805)">
        <rect
           style="fill:none;fill-opacity:0.952941;stroke:none;stroke-width:1.655"
           id="rect20270-6-1-5"
           width="24"
           height="24"
           x="95.25"
           y="247.64999" />
        <path
           d="m 102.6919,252.48031 c -1.29389,-0.78897 -1.86195,0.0631 -0.69429,1.073 1.89353,1.57793 4.10264,4.07108 6.12239,6.62733 -2.30377,2.99809 -5.33343,6.1224 -8.678645,8.45774 -1.357028,0.91522 -1.514826,1.73574 0.473382,0.88366 3.850173,-1.67262 7.006043,-4.6707 9.467623,-7.66879 1.76729,2.36691 3.219,4.60759 3.94485,6.05929 0.7574,1.45169 0.91519,2.08287 1.79884,2.08287 0.59962,0 1.00988,-0.56806 0.94678,-1.89352 -0.1578,-1.35703 -2.55627,-4.67069 -5.39657,-7.92125 2.77718,-3.75549 4.32356,-7.06916 4.57603,-7.29007 0.91522,-0.72584 0.88364,-1.48325 -0.56805,-2.61937 -1.92509,-1.51483 -2.49315,-1.16768 -2.01977,0.47338 0.37871,1.26234 -0.94675,4.3551 -3.37679,7.85813 -2.43003,-2.65095 -4.95471,-5.0494 -6.59578,-6.1224 z"
           style="font-weight:600;font-size:28.7853px;line-height:1em;font-family:'Noto Serif CJK TC';-inkscape-font-specification:'Noto Serif CJK TC Semi-Bold';fill:#6c5a57;fill-opacity:0.952941;stroke-width:0.657473"
           id="path40723-3" />
      </g>
      <g
         id="g14839"
         transform="matrix(1.1906241,0,0,1.1906241,217.70586,-237.70805)">
        <rect
           style="fill:none;fill-opacity:0.952941;stroke:none;stroke-width:1.655"
           id="rect20270-6-0"
           width="24"
           height="24"
           x="57.149998"
           y="247.64999" />
        <path
           d="m 59.713333,260.19463 c 1.180129,1.18013 1.467974,1.26647 3.108651,0.83471 2.101222,-0.48932 11.455965,-1.43918 14.10408,-1.12257 2.216346,0.31663 2.648105,-0.0288 1.583108,-1.09378 -0.978651,-0.89229 -1.237707,-0.92109 -3.338929,-0.57567 -1.439187,0.23026 -3.7419,0.43175 -6.562716,0.74836 -3.338918,0.37419 -7.052028,0.71961 -8.145822,0.40298 -1.410409,-0.43175 -1.525543,0 -0.748372,0.80597 z"
           style="font-weight:600;font-size:28.7853px;line-height:1em;font-family:'Noto Serif CJK TC';-inkscape-font-specification:'Noto Serif CJK TC Semi-Bold';fill:#6c5a57;fill-opacity:0.952941;stroke-width:0.599661"
           id="path40721-6" />
      </g>
      <g
         id="g11552"
         transform="matrix(1.1906237,0,0,1.1906237,88.880326,-116.14517)">
        <rect
           style="fill:none;fill-opacity:0.952941;stroke:none;stroke-width:1.655"
           id="rect20270-6-3-8-5-6-44"
           width="24"
           height="24"
           x="133.35001"
           y="209.55" />
        <path
           d="m 148.31063,222.98213 c 0.61485,0.70269 1.69815,2.13734 2.57651,3.48414 -2.43012,0.32206 -8.66644,1.05403 -11.21367,1.28825 2.66436,-3.1328 5.8557,-9.07633 6.76334,-10.95015 0.73195,-1.52247 0.96618,-2.0202 0.58556,-2.75218 -0.4099,-0.70267 -0.93691,-1.34681 -1.55176,-1.66888 -1.05402,-0.55629 -1.34681,-0.23422 -1.0833,1.6396 0.46846,3.19136 -4.80166,12.00418 -7.20251,13.81945 -0.76125,0.55629 -1.02474,0.73195 -0.99546,1.6396 0.0293,1.61031 0.40991,1.40536 2.1666,0.64412 1.7567,-0.70269 8.46149,-1.55177 13.49739,-1.9031 l 0.17566,0.49774 c 0.70269,2.31301 1.55177,3.04495 2.34228,1.2004 0.67341,-1.69814 -1.05402,-4.59671 -5.21156,-7.26105 -1.2297,-0.8198 -1.49321,-0.4099 -0.84908,0.32206 z"
           style="font-weight:600;font-size:28.7853px;line-height:1em;font-family:'Noto Serif CJK TC';-inkscape-font-specification:'Noto Serif CJK TC Semi-Bold';fill:#6c5a57;fill-opacity:0.952941;stroke-width:0.609967"
           id="path40719-0" />
      </g>
      <g
         id="g11548"
         transform="matrix(1.1895218,0,0,1.1895218,134.37453,-154.01425)">
        <rect
           style="fill:none;fill-opacity:0.952941;stroke:none;stroke-width:1.655"
           id="rect20270-6-3-8-5-6-4"
           width="24"
           height="24"
           x="95.25"
           y="209.5611" />
        <path
           d="m 97.394138,218.74228 c 1.100708,1.12895 1.411168,1.41118 3.019912,0.95959 0.93138,-0.22577 2.70945,-0.50803 4.79799,-0.7338 -0.59269,1.58051 -1.29828,2.96345 -1.83452,3.47149 -0.56448,0.59269 -0.67737,1.1007 -0.39513,1.55228 0.31045,0.56448 0.93137,0.25401 1.66518,0 1.12894,-0.39513 4.91089,-0.53624 6.60429,-0.28223 0.81848,0.14111 0.67737,0.67736 0.45157,1.10071 -0.93137,1.69341 -3.69727,5.02379 -5.5318,5.81403 -1.74984,0.73382 -0.84668,1.49585 0.53626,1.24185 3.69727,-0.64915 6.6325,-6.6043 7.50743,-6.94299 0.90316,-0.36689 0.67736,-0.76204 -0.22578,-1.94742 -0.53625,-0.64913 -1.04427,-0.67735 -2.59656,-0.79025 -2.06032,-0.14113 -4.74154,-0.11289 -5.81404,-0.0283 0.33869,-0.67737 0.81849,-1.97564 1.32651,-3.35861 3.21748,-0.31044 6.71718,-0.50801 8.57993,-0.33867 2.17322,0.19757 2.62479,-0.0282 1.55229,-1.07249 -0.93137,-0.90315 -1.3265,-1.04427 -3.38681,-0.73381 -1.18539,0.19756 -3.75373,0.4798 -6.23739,0.76203 0.47979,-1.35472 0.9596,-2.62478 1.27006,-3.24569 0.47981,-0.98782 0.31046,-1.46761 -0.95959,-2.37077 -1.38296,-0.98783 -2.03211,-0.79026 -1.24185,0.95959 0.31047,0.67736 -0.11289,2.76589 -0.79026,4.85444 l -0.28223,0.0282 c -3.04813,0.31045 -6.265603,0.6209 -7.281659,0.31045 -1.411169,-0.42335 -1.524063,-0.0282 -0.733803,0.79025 z"
           style="font-weight:600;font-size:28.7853px;line-height:1em;font-family:'Noto Serif CJK TC';-inkscape-font-specification:'Noto Serif CJK TC Semi-Bold';fill:#6c5a57;fill-opacity:0.952941;stroke-width:0.587987"
           id="path40717-1" />
      </g>
      <g
         id="g11544"
         transform="matrix(1.1906234,0,0,1.1906234,179.60592,-192.34509)">
        <rect
           style="fill:none;fill-opacity:0.952941;stroke:none;stroke-width:1.655"
           id="rect20270-6-3-8-5-6"
           width="24"
           height="24"
           x="57.149998"
           y="209.55" />
        <path
           d="m 61.327943,213.49342 c 1.24501,1.1843 1.579042,1.1843 3.006259,0.72881 0.576959,-0.1822 1.366485,-0.36441 2.216743,-0.5466 0.364391,2.45968 0.03038,12.99677 0.03038,14.57583 -0.03038,1.67014 0.334031,3.64394 0.759165,3.64394 0.364392,0 0.971722,-1.48794 1.002082,-4.34237 0.06076,-2.70261 0.334032,-11.96432 0.516228,-14.24179 1.700516,-0.24292 3.401022,-0.39477 4.372743,-0.39477 1.791624,0.0304 1.821984,0.60733 1.730893,1.33611 -0.182207,1.33613 -0.698439,3.30993 -1.153933,4.40312 -0.57696,1.36649 -1.184279,2.30784 -1.943434,2.00418 -0.60733,-0.24293 -1.214661,-0.51623 -1.396856,-0.57696 -0.789527,-0.24292 -0.880618,-0.0608 -0.425124,0.51623 0.242929,0.2733 1.700506,1.73087 2.004175,2.06491 0.728784,0.94135 1.153919,0.78951 1.670145,0.0304 0.728794,-1.0932 1.609418,-2.88481 2.247108,-4.64605 0.60733,-1.73089 0.910991,-3.3403 1.305753,-3.73507 0.698423,-0.66805 0.516228,-1.09318 0,-1.54867 -0.394762,-0.42512 -1.24502,-1.03246 -1.579051,-1.27539 -0.485856,-0.30365 -0.941355,-0.36439 -1.97381,-0.18219 -0.971722,0.18219 -2.672237,0.39476 -5.374837,0.66806 -2.975897,0.30365 -5.071166,0.69842 -6.498382,0.30365 -1.427218,-0.33402 -1.730889,0.0608 -0.516228,1.21466 z"
           style="font-weight:600;font-size:28.7853px;line-height:1em;font-family:'Noto Serif CJK TC';-inkscape-font-specification:'Noto Serif CJK TC Semi-Bold';fill:#6c5a57;fill-opacity:0.952941;stroke-width:0.632629"
           id="path40715-6" />
      </g>
      <g
         id="g11540"
         transform="matrix(1.190623,0,0,1.190623,5.4177232,-32.153111)"
         style="display:inline">
        <rect
           style="fill:none;fill-opacity:0.952941;stroke:none;stroke-width:1.655"
           id="rect20270-6-3-8-5-8-6"
           width="24"
           height="24"
           x="171.45001"
           y="171.45001" />
        <path
           d="m 181.15442,180.0331 c 1.18067,1.07647 2.46549,2.70855 3.12527,4.47954 0.65977,1.8057 1.35428,2.2224 1.87515,0.72923 0.83341,-2.25715 -1.59735,-4.61844 -3.50724,-5.72966 -2.29185,-1.28481 -2.778,-0.79867 -1.49318,0.52089 z m -5.45183,-6.80611 c 0.86813,0.72923 0.90286,4.41007 0.90286,6.56304 0.0347,4.89622 0.17361,8.05621 -0.13891,9.89665 -0.34725,1.97932 -0.65977,2.04877 -0.13889,3.26416 0.6945,1.49316 0.79868,1.5279 2.15295,0.55559 1.04174,-0.79868 7.74369,-0.79868 9.6883,-0.76396 0,0.34727 0.0348,0.62507 0.17363,0.90286 1.00702,2.11823 1.97933,1.80572 2.08349,-0.0347 0.17363,-3.02108 0.17363,-8.22985 0.20837,-10.20918 0.0695,-2.29185 0.0695,-8.05621 0.65977,-8.78544 0.59033,-0.72923 0.52088,-0.90285 0.1389,-1.35428 -0.52088,-0.52087 -1.04176,-0.90285 -1.56263,-1.21537 -0.65978,-0.38198 -0.83341,-0.38198 -2.50021,0.24307 -0.62505,0.2778 -6.28525,0.24307 -8.95908,0.76395 -0.0695,-0.0695 -0.17362,-0.13891 -0.31252,-0.20836 -0.86813,-0.41669 -1.63208,-0.72922 -2.32658,-0.79866 -0.65977,-0.0695 -0.90286,0.38197 -0.0695,1.18065 z m 12.63994,17.81396 c -2.60439,-0.17362 -7.11865,0.20836 -8.82019,0.34726 -1.21537,0.10408 -1.14592,-0.0348 -1.14592,-1.80572 0.0347,-3.99338 0.13891,-11.38982 0.38197,-13.68168 l 0.10419,-1.00703 c 2.43077,-0.79867 6.73668,-0.93756 8.12568,-0.79867 1.80571,0.20835 1.80571,0.2778 1.87517,2.778 0,1.52791 -0.0347,8.64655 -0.27782,12.08433 -0.0695,0.8334 -0.13891,1.49318 -0.24306,2.08351 z"
           style="font-weight:600;font-size:28.7853px;line-height:1em;font-family:'Noto Serif CJK TC';-inkscape-font-specification:'Noto Serif CJK TC Semi-Bold';fill:#6c5a57;fill-opacity:0.952941;stroke-width:0.723437"
           id="path40713-3" />
      </g>
      <g
         id="g11536"
         transform="matrix(1.1906246,0,0,1.1906246,50.780215,-70.253418)">
        <rect
           style="fill:none;fill-opacity:0.952941;stroke:none;stroke-width:1.655"
           id="rect20270-6-3-8-5-0"
           width="24"
           height="24"
           x="133.35001"
           y="171.45" />
        <path
           d="m 140.13589,179.48332 c 0.79637,1.65912 -0.46457,10.05439 -4.44651,14.23545 -1.75868,1.9246 -0.0996,1.49323 0.76322,0.86276 4.2474,-3.1192 5.27605,-8.69393 5.77381,-12.34404 l 0.13272,-0.86275 c 2.09053,0.0333 6.9684,-0.92911 8.85983,-0.79639 2.35598,0.19909 2.4887,-0.29864 1.65914,-1.5264 l -0.1991,-0.26549 c 0.73005,-1.22776 1.75869,-3.48419 2.45553,-3.91556 0.92912,-0.63046 0.9623,-0.86276 -0.53092,-2.09052 -1.42687,-1.1614 -1.99098,-1.06186 -3.15236,-0.89594 -1.72552,0.26546 -6.93522,0.99548 -9.39076,1.16141 -0.79638,0.0333 -1.85823,0 -2.35597,-0.13274 -1.22778,-0.26546 -1.52643,0.19911 0.0333,1.46004 1.16141,0.92912 1.52642,0.86277 2.75419,0.46456 1.46005,-0.43138 6.7693,-1.06184 8.66074,-1.12821 1.36047,-0.0663 1.82505,0.19909 1.42685,1.55959 -0.26548,0.92913 -0.9623,2.38918 -1.39368,3.15238 l -1.49323,0.26545 c -2.65463,0.46457 -4.94425,0.7964 -6.90203,0.99548 l -0.29865,0.0333 c -0.0333,-0.46456 -0.26547,-0.69684 -0.86276,-1.12822 -1.82506,-1.29412 -2.35598,-0.89593 -1.49322,0.89594 z"
           style="font-weight:600;font-size:28.7853px;line-height:1em;font-family:'Noto Serif CJK TC';-inkscape-font-specification:'Noto Serif CJK TC Semi-Bold';fill:#6c5a57;fill-opacity:0.952941;stroke-width:0.691307"
           id="path40711-0" />
      </g>
      <g
         id="g11532"
         transform="matrix(1.1906232,0,0,1.1906232,96.143186,-108.35319)">
        <rect
           style="fill:none;fill-opacity:0.952941;stroke:none;stroke-width:1.655"
           id="rect20270-6-3-8-5-8"
           width="24"
           height="24"
           x="95.25"
           y="171.45001" />
        <path
           d="m 110.02075,172.25197 c 0.0313,0.47122 0.0943,0.75395 -0.2199,1.22518 -1.35084,1.63355 -4.14673,3.86399 -6.34575,4.7436 -1.82205,0.75395 -1.75921,1.66497 0.0315,1.16234 5.05775,-1.44508 7.91646,-4.77502 8.29345,-4.96351 0.84819,-0.37698 1.0681,-0.69113 0.59688,-1.25658 -0.43981,-0.50264 -0.84821,-0.81679 -1.50791,-1.16234 -0.78537,-0.4084 -0.91102,-0.18849 -0.84819,0.25131 z m 2.38751,3.95825 c 0.12565,0.40838 -0.0315,0.81678 -0.31414,1.22516 -2.48177,3.20428 -6.62849,6.69131 -11.27786,8.98457 -1.696381,0.84821 -1.41365,1.88489 0.2199,1.38225 2.73309,-1.00527 5.15201,-2.51317 7.13113,-4.02107 0.0313,1.88488 0.0629,5.37189 -0.28273,6.8798 -0.4084,1.66497 -0.59688,1.85347 -0.0943,2.95297 0.69113,1.69638 1.57074,2.19902 1.85347,0.21989 0.31414,-2.70164 0.12565,-4.90066 0.12565,-6.9112 0.0315,-2.41893 0.37698,-3.61269 -0.0315,-4.11532 l -0.15706,-0.15707 c 2.48174,-2.10478 4.05248,-3.98965 4.42945,-4.14672 0.75396,-0.37698 1.06809,-0.59687 0.59688,-1.25659 -0.37697,-0.53405 -0.84819,-0.94243 -1.31941,-1.25658 -0.53405,-0.34557 -1.09951,-0.4398 -0.87962,0.21991 z"
           style="font-weight:600;font-size:28.7853px;line-height:1em;font-family:'Noto Serif CJK TC';-inkscape-font-specification:'Noto Serif CJK TC Semi-Bold';fill:#6c5a57;fill-opacity:0.952941;stroke-width:0.654469"
           id="path40709-5" />
      </g>
      <g
         id="g11528"
         transform="matrix(1.190624,0,0,1.190624,141.50587,-146.98248)">
        <rect
           style="fill:none;fill-opacity:0.952941;stroke:none;stroke-width:1.655"
           id="rect20270-6-3-8-5"
           width="24"
           height="24"
           x="57.149998"
           y="171.45" />
        <path
           d="m 58.355385,192.6033 c 1.279166,1.31115 1.598952,1.40709 3.421749,0.9274 2.334466,-0.51166 13.431158,-1.21519 16.341238,-0.70354 2.398423,0.47969 2.974038,-0.032 1.694884,-1.21519 -1.119269,-0.99135 -1.56697,-1.24719 -3.901436,-0.89541 -1.24717,0.19187 -3.453722,0.38374 -5.500376,0.54364 l 0.191873,-5.46841 c 1.375097,-0.15988 2.718209,-0.22384 3.741536,-0.25582 -0.03199,0.54364 0.03199,0.95936 0.223855,1.40707 0.255829,0.6076 0.863429,0.41572 1.375097,-1.11926 0.511658,-1.69489 0.479684,-4.38113 0.991342,-6.33182 0.319797,-1.21522 0.543642,-1.50303 0,-2.04666 -0.415727,-0.41573 -0.895412,-0.7675 -1.790811,-1.24719 -0.671558,-0.35175 -1.279168,-0.22386 -0.51167,1.05531 0.831456,1.34312 0.35177,4.47706 0,6.36381 l -0.09587,0.54364 -3.901432,0.31979 c 0.159898,-3.74154 0.319786,-7.25923 0.54364,-7.99473 0.447702,-1.56699 0.191873,-1.95072 -0.287811,-2.33446 -0.607599,-0.51167 -1.279156,-0.86343 -2.174569,-1.02332 -0.863426,-0.1599 -1.023326,0.51165 -0.127913,1.47101 0.671556,0.60761 0.575626,5.14862 0.35177,10.0414 -1.694882,0.15989 -3.293836,0.35177 -4.12529,0.51166 0.03199,-1.75884 0.287813,-5.9161 0.191883,-6.77953 -0.096,-0.92739 -0.479686,-1.27917 -1.918738,-1.69489 -0.799471,-0.19187 -1.247184,0.25583 -0.25583,1.24717 0.767486,0.7675 0.703529,5.69226 0.287803,7.16328 -0.287803,0.70354 -0.799471,0.83147 -0.639573,1.50303 0.223855,1.2152 0.4477,1.11925 1.662898,0.51165 0.927397,-0.47969 2.750193,-0.86342 4.73289,-1.11926 l -0.223857,5.43642 h -0.09598 c -3.261851,0.25584 -8.1866,0.67156 -9.369825,0.2878 -1.566968,-0.47968 -1.694883,0 -0.831455,0.89541 z"
           style="font-weight:600;font-size:28.7853px;line-height:1em;font-family:'Noto Serif CJK TC';-inkscape-font-specification:'Noto Serif CJK TC Semi-Bold';fill:#6c5a57;fill-opacity:0.952941;stroke-width:0.666226"
           id="path40707-4" />
      </g>
      <g
         id="g29453"
         transform="matrix(1.1906247,0,0,1.1906247,12.680199,-70.782602)">
        <rect
           style="fill:none;fill-opacity:0.952941;stroke:none;stroke-width:1.655"
           id="rect20270-6-3-8-5-6-44-7-6"
           width="24"
           height="24"
           x="133.35001"
           y="171.45" />
        <path
           d="m 135.11204,175.42927 c 1.25012,1.28136 1.59389,1.40637 3.37527,0.90632 0.96884,-0.21875 3.40651,-0.53127 6.06298,-0.81255 0.34378,4.40659 0.25002,11.53214 -0.1875,13.93859 -0.31253,1.34386 -0.25003,2.59396 0.43752,3.71905 0.68755,1.03133 1.28136,0.93756 1.56262,-1.62513 0.31253,-2.78147 0.0314,-10.65709 0.4063,-16.22002 2.90648,-0.25003 5.71918,-0.34378 7.03179,-0.18753 2.37519,0.34379 2.87523,-0.0312 1.68763,-1.18759 -1.03133,-1.00007 -1.31261,-1.00007 -3.59403,-0.62505 -1.56263,0.25003 -4.06282,0.43754 -7.12556,0.78132 -3.62528,0.40629 -7.65685,0.81256 -8.84443,0.43753 -1.53139,-0.46878 -1.65639,-0.0314 -0.81259,0.87506 z"
           style="font-weight:600;font-size:28.7853px;line-height:1em;font-family:'Noto Serif CJK TC';-inkscape-font-specification:'Noto Serif CJK TC Semi-Bold';fill:#6c5a57;fill-opacity:0.952941;stroke-width:0.651091"
           id="path40705-7" />
      </g>
      <g
         id="g29449"
         transform="matrix(1.1906234,0,0,1.1906234,58.043117,-108.88238)">
        <rect
           style="fill:none;fill-opacity:0.952941;stroke:none;stroke-width:1.655"
           id="rect20270-6-3-8-5-6-4-6-4"
           width="24"
           height="24"
           x="95.250038"
           y="171.45" />
        <path
           d="m 108.17898,173.18135 c 0.46065,1.38195 -3.84969,7.831 -6.41615,10.16714 -1.18452,1.08582 -1.21743,1.71098 -0.0658,2.10582 3.35615,1.18452 7.17293,4.80388 9.34456,7.99552 1.34903,1.9742 2.23743,2.10581 2.50066,0.85549 0.29613,-1.34905 0,-2.27034 -1.38195,-3.68518 -2.0729,-2.07292 -6.25162,-4.83679 -8.8181,-6.31745 2.43485,-2.13871 6.02131,-7.50196 7.00842,-8.94972 0.72387,-1.11871 0.78969,-1.48065 0.36194,-1.97418 -0.52644,-0.59228 -1.21744,-1.11873 -1.77679,-1.38196 -0.82259,-0.39483 -1.25033,-0.36194 -0.75677,1.18452 z"
           style="font-weight:600;font-size:28.7853px;line-height:1em;font-family:'Noto Serif CJK TC';-inkscape-font-specification:'Noto Serif CJK TC Semi-Bold';fill:#6c5a57;fill-opacity:0.952941;stroke-width:0.685485"
           id="path40703-0" />
      </g>
      <g
         id="g29445"
         transform="matrix(1.1906251,0,0,1.1906251,103.40578,-146.98267)">
        <rect
           style="fill:none;fill-opacity:0.952941;stroke:none;stroke-width:1.655"
           id="rect20270-6-3-8-5-6-2-6"
           width="24"
           height="24"
           x="57.149998"
           y="171.45" />
        <path
           d="m 72.060468,173.04309 c 0.638543,0.60661 0.925886,1.02166 0.893954,3.51194 l -0.06389,6.80044 c -2.681848,0.60659 -7.151614,1.40479 -7.151614,1.40479 0.351197,-0.98974 1.372857,-5.74685 1.500563,-6.5131 0.319275,-1.62827 -0.09571,-2.23487 -1.692122,-3.16074 -1.213217,-0.67047 -1.628268,-0.032 -1.021658,0.73432 0.287343,0.35118 0.702392,0.95779 0.670462,1.78788 0,2.01139 -0.638531,6.4173 -1.277072,7.02393 -0.734314,0.67044 -0.989727,0.86201 -0.893953,1.59634 0.223492,1.59633 0.287343,1.37284 1.947545,0.70237 1.915612,-0.83007 4.980577,-1.56441 7.885928,-2.20295 -0.03194,1.50058 -0.06389,2.77764 -0.159637,3.48004 -0.415049,2.93726 -0.542756,4.43782 0.06389,5.90645 0.702396,1.72404 1.564416,1.46864 1.787908,-2.7457 0.191558,-3.57581 0.09571,-6.89619 0.06389,-9.25878 0,-1.88369 0.191559,-6.32153 0.478904,-7.40704 0.255413,-1.14937 0.44697,-1.53248 -0.606609,-2.04333 -0.574688,-0.28732 -1.245151,-0.57466 -2.07525,-0.79816 -1.117434,-0.28734 -1.277071,0.25542 -0.351197,1.1813 z"
           style="font-weight:600;font-size:28.7853px;line-height:1em;font-family:'Noto Serif CJK TC';-inkscape-font-specification:'Noto Serif CJK TC Semi-Bold';fill:#6c5a57;fill-opacity:0.952941;stroke-width:0.665141"
           id="path40701-3" />
      </g>
      <g
         id="g8321"
         transform="matrix(1.1906223,0,0,1.1906223,-25.419488,-25.419492)">
        <rect
           style="fill:none;fill-opacity:0.952941;stroke:none;stroke-width:1.655"
           id="rect20270-6-3-8-3"
           width="24"
           height="24"
           x="133.35004"
           y="133.35001" />
        <path
           d="m 139.53801,137.01583 c 0.36743,0.48988 0.61237,1.10226 0.6736,2.26578 0.0919,2.32704 -0.24494,5.14396 -0.64299,7.31791 -0.70424,3.76611 -2.05147,6.33809 -4.16417,7.8078 -1.01041,0.79609 -0.88794,1.71466 0.52052,1.07165 3.33746,-1.43908 4.8684,-4.71528 5.60325,-8.57327 0.48991,-2.66383 0.7961,-5.60325 0.88796,-8.20585 l -0.0306,-0.4899 c 4.04168,-0.67361 9.39997,-1.10228 11.3902,-0.88794 1.99022,0.24495 2.66384,-0.36742 1.83713,-1.16353 -0.18371,-0.18371 -0.64299,-0.52052 -1.43908,-0.85731 -0.94918,-0.45929 -1.40847,-0.36742 -3.73551,0.15309 -1.53094,0.33681 -5.32768,0.85732 -8.87945,1.22476 -0.27557,-0.24496 -0.643,-0.42868 -1.07167,-0.55116 -0.9798,-0.27556 -1.56155,0 -0.94917,0.88797 z"
           style="font-weight:600;font-size:28.7853px;line-height:1em;font-family:'Noto Serif CJK TC';-inkscape-font-specification:'Noto Serif CJK TC Semi-Bold';fill:#6c5a57;fill-opacity:0.952941;stroke-width:0.637891"
           id="path40699-1" />
      </g>
      <g
         id="g8317"
         transform="matrix(1.1906247,0,0,1.1906247,19.943006,-63.519812)">
        <rect
           style="fill:none;fill-opacity:0.952941;stroke:none;stroke-width:1.655"
           id="rect20270-6-3-8-59"
           width="24"
           height="24"
           x="95.25"
           y="133.35001" />
        <path
           d="m 97.265379,137.3334 c 1.255247,1.31802 1.600447,1.44354 3.357801,0.97282 0.97281,-0.25105 3.01261,-0.56488 5.3662,-0.81592 -0.5021,1.69459 -1.88287,3.89129 -2.73017,4.42477 -1.0042,0.59623 -1.19249,0.62761 -1.09834,1.28662 0,0.87867 0.15691,1.09834 0.84729,0.87867 1.82012,-0.59624 5.99381,-0.94144 7.90807,-0.65901 0.72177,0.15691 0.97282,0.59625 0.81592,1.56908 -0.1883,1.22384 -0.75316,3.76573 -2.10255,6.43314 -0.59624,1.1611 -0.91005,1.31801 -1.47492,0.87867 -0.75315,-0.50209 -1.5063,-1.06696 -2.44773,-1.69459 -0.81592,-0.56486 -1.38079,-0.5021 -0.69038,0.65901 0.69038,1.19249 2.35358,3.32642 2.66739,3.82851 0.43934,0.75315 0.84731,0.87868 1.82011,-0.094 3.01261,-2.98123 4.04818,-9.5399 4.48753,-10.13613 0.5021,-0.69039 0.56485,-0.94144 0.25104,-1.41216 -0.37657,-0.47071 -0.72177,-0.87867 -1.0042,-1.16112 -0.43934,-0.47071 -0.75315,-0.50208 -1.72596,-0.50208 -1.88288,-0.0314 -5.7114,0.15689 -6.11934,0.15689 0.78453,-1.0042 2.29082,-3.23225 2.91845,-4.6758 2.85569,-0.25105 5.68001,-0.37657 7.12354,-0.18829 2.38497,0.31381 2.91845,0 1.66321,-1.16109 -1.06697,-1.00421 -1.53769,-1.09835 -3.8285,-0.69039 -2.98124,0.53348 -13.24291,1.82011 -15.188546,1.22387 -1.53768,-0.43934 -1.663204,-0.0314 -0.815915,0.87866 z"
           style="font-weight:600;font-size:28.7853px;line-height:1em;font-family:'Noto Serif CJK TC';-inkscape-font-specification:'Noto Serif CJK TC Semi-Bold';fill:#6c5a57;fill-opacity:0.952941;stroke-width:0.653773"
           id="path40697-6" />
      </g>
      <g
         id="g8313"
         transform="matrix(1.1906245,0,0,1.1906245,65.305827,-101.61975)">
        <rect
           style="fill:none;fill-opacity:0.952941;stroke:none;stroke-width:1.655"
           id="rect20270-6-3-8"
           width="24"
           height="24"
           x="57.149998"
           y="133.35001" />
        <path
           d="m 65.03955,134.9474 c 0.899009,1.65416 -1.690107,6.61662 -3.919628,9.3496 -1.330525,1.58223 -1.402443,1.69011 -0.03598,3.05659 1.905877,1.90587 3.631964,4.74672 4.746718,7.55159 1.0788,2.62509 1.474361,2.69701 2.373358,0.79112 0.970916,-2.12164 -2.589116,-6.32896 -6.077228,-9.9609 2.48123,-2.98469 4.31519,-6.07725 5.501876,-8.30677 0.539401,-1.00686 0.575352,-1.40243 -0.03598,-1.9778 -0.395561,-0.43152 -1.150719,-1.04283 -1.797992,-1.40243 -1.042849,-0.64729 -1.258606,-0.21577 -0.755171,0.899 z m 8.630406,0.0719 c 0.970916,1.40245 -1.546281,6.50876 -3.416206,9.13383 -1.222638,1.72607 -1.402431,1.76203 0.143838,2.94872 1.76204,1.40245 4.27925,4.78268 5.28612,7.69544 0.934961,2.44527 1.402442,2.3374 2.301439,0.57536 1.006882,-2.01375 -1.402431,-4.63885 -6.580676,-9.67323 2.013761,-3.0566 4.027525,-7.04817 5.142279,-8.37867 0.61132,-0.68325 0.791123,-1.00689 0.03598,-1.76205 -0.359609,-0.43153 -1.186685,-1.15072 -1.798005,-1.51032 -1.402444,-0.7192 -1.869912,-0.35961 -1.114754,0.97092 z"
           style="font-weight:600;font-size:28.7853px;line-height:1em;font-family:'Noto Serif CJK TC';-inkscape-font-specification:'Noto Serif CJK TC Semi-Bold';fill:#6c5a57;fill-opacity:0.952941;stroke-width:0.749164"
           id="path40695-3" />
      </g>
      <g
         id="g8737"
         transform="matrix(1.1906232,0,0,1.1906232,-108.88236,58.043103)">
        <rect
           style="fill:none;fill-opacity:0.952941;stroke:none;stroke-width:1.655"
           id="rect20270-6-3-1-4"
           width="24"
           height="24"
           x="171.45001"
           y="95.250031" />
        <path
           d="m 187.01996,97.417297 c 0.30899,0.958036 -0.67992,3.461303 -2.4106,6.520843 -2.03967,0.12362 -4.38844,0.33996 -5.84094,0.61809 1.08168,-1.08165 3.30676,-3.70853 3.80127,-4.45024 0.40174,-0.618084 0.4944,-0.83442 0.12357,-1.390705 -0.33991,-0.494468 -0.71073,-0.896228 -1.42158,-1.297988 -0.83442,-0.587185 -0.98891,-0.154526 -0.52532,1.050754 0.40175,1.050753 -2.34876,4.913809 -3.80127,5.748239 -1.14351,0.64899 -1.298,1.05075 -1.23627,1.54522 0.0923,0.80352 0.12368,1.29799 1.17443,0.86533 1.17433,-0.46357 4.11026,-0.89623 6.79904,-1.11256 l -1.48343,2.34874 c -2.03977,3.02864 -4.38854,5.53191 -6.64454,7.10804 -1.66884,1.17437 -1.54516,1.54523 -0.46358,1.17437 2.99776,-1.11257 6.33544,-4.32664 8.71512,-7.63342 0.74165,-1.05075 1.42158,-2.1015 2.00874,-3.09046 0.89626,-0.0309 1.69976,0 2.28703,0.0619 1.79241,0.24724 1.91599,1.08166 1.76149,1.97788 -0.4944,2.44147 -1.73067,5.47011 -3.46125,7.54072 -0.71084,0.89623 -1.14351,0.98894 -2.07069,0.43266 -0.58716,-0.37085 -1.54516,-1.11257 -2.00874,-1.39071 -0.58717,-0.33995 -0.86534,-0.0928 -0.37084,0.58719 0.71074,1.01985 1.73069,2.25603 2.22509,2.96683 0.74176,0.98895 0.74176,1.01986 1.63791,0.43268 3.58494,-2.31785 5.65563,-8.74599 6.11911,-10.47664 0.34002,-1.20528 1.08167,-1.29799 0.40175,-1.947 -0.55624,-0.55627 -1.1434,-0.98893 -1.69976,-1.26707 -0.74166,-0.40176 -1.11249,-0.43267 -2.28692,-0.49449 h -1.63792 c 1.32893,-2.41053 2.19427,-4.326617 2.47234,-4.728377 0.649,-0.865328 0.67992,-1.236179 0.21634,-1.699747 -0.49441,-0.432659 -1.23618,-0.896228 -1.66885,-1.112562 -1.08166,-0.494479 -1.11248,-0.185426 -0.71073,1.112562 z"
           style="font-weight:600;font-size:28.7853px;line-height:1em;font-family:'Noto Serif CJK TC';-inkscape-font-specification:'Noto Serif CJK TC Semi-Bold';fill:#6c5a57;fill-opacity:0.952941;stroke-width:0.643842"
           id="path40693-9" />
      </g>
      <g
         id="g10279"
         transform="matrix(1.1906247,0,0,1.1906247,-63.51981,19.942987)">
        <rect
           style="fill:none;fill-opacity:0.952941;stroke:none;stroke-width:1.655"
           id="rect20270-6-3-10"
           width="24"
           height="24"
           x="133.35001"
           y="95.250008" />
        <path
           d="m 138.1165,99.139439 c 0.97597,0.945461 1.37244,0.85396 2.56191,0.548974 1.40295,-0.33549 4.75784,-0.823467 6.70976,-0.884464 0.88448,-0.03051 0.97596,0.09154 0.70148,0.548974 -1.00647,1.555447 -3.32439,3.964857 -4.17836,4.330847 -1.09796,0.45749 -1.28095,0.57948 -1.25046,1.31145 0.0305,1.06747 0.427,0.97596 1.28097,0.70148 1.61644,-0.51848 4.81882,-0.76248 6.13026,-0.48798 0.57946,0.12199 0.73204,0.48798 0.57946,1.12846 -0.64049,2.6839 -2.37887,5.8253 -3.69033,7.53323 -0.82347,1.09796 -1.00646,1.00646 -2.04343,0.42699 -0.57949,-0.30499 -1.61645,-0.94548 -2.16542,-1.21996 -0.73199,-0.39648 -1.06747,-0.122 -0.33549,0.76247 0.73197,0.76247 2.16543,2.19592 2.68391,2.8669 0.82346,1.15896 0.94546,1.18946 2.04342,0.061 3.6294,-3.84287 5.12376,-9.27168 5.61178,-9.82066 0.54894,-0.60997 0.91501,-0.70147 0.4575,-1.40294 -0.39647,-0.60999 -1.28096,-1.21996 -1.82991,-1.58595 -0.39648,-0.244 -0.73203,-0.39648 -1.37252,-0.21348 -0.76242,0.15248 -2.68387,0 -4.0563,0.21348 1.28095,-1.37245 3.99538,-3.93436 4.78834,-4.422345 0.9149,-0.487977 1.46395,-0.640476 0.94541,-1.128453 -0.54894,-0.518481 -0.9149,-0.945473 -1.46395,-1.311456 -0.54894,-0.365982 -0.88443,-0.152498 -2.01288,0.182992 -1.37246,0.335489 -8.23471,1.067467 -9.30218,0.823467 -1.98243,-0.457473 -2.04342,-0.182991 -0.79297,1.036974 z"
           style="font-weight:600;font-size:28.7853px;line-height:1em;font-family:'Noto Serif CJK TC';-inkscape-font-specification:'Noto Serif CJK TC Semi-Bold';fill:#6c5a57;fill-opacity:0.952941;stroke-width:0.635392"
           id="path40691-5" />
      </g>
      <g
         id="g10283"
         transform="matrix(1.1906246,0,0,1.1906246,-18.156992,-18.156994)">
        <rect
           style="fill:none;fill-opacity:0.952941;stroke:none;stroke-width:1.655"
           id="rect20270-6-3-1"
           width="24"
           height="24"
           x="95.250008"
           y="95.25" />
        <path
           d="m 107.40298,97.179188 c -0.98038,-0.582098 -1.37866,-0.245091 -1.16423,1.072293 0.30639,1.654397 -0.0918,3.952149 -0.82719,6.311189 -2.94112,0.30635 -6.678811,0.70465 -7.720459,0.4289 -1.501207,-0.4289 -1.623761,0.0306 -0.765929,0.88848 1.286754,1.19484 1.593117,1.28674 3.308798,0.76592 0.76591,-0.21444 2.57347,-0.45955 4.68743,-0.67401 -1.31739,3.52324 -3.24753,6.86266 -4.68743,8.02685 -0.827211,0.64337 -1.256131,0.64337 -1.256131,1.74629 -0.0613,1.80758 0.5821,1.2561 2.359051,0.61275 1.68501,-0.61275 6.58691,-1.43994 11.36625,-1.77696 l 0.0306,0.0918 c 1.16419,3.18624 1.86883,3.61514 2.5122,2.02204 0.52084,-1.34801 0.21447,-2.29776 -0.98038,-3.79896 -1.19482,-1.53185 -2.1752,-2.57349 -3.46196,-3.70707 -1.011,-0.94974 -1.47055,-0.39825 -1.011,0.27573 0.55146,0.76593 1.47055,2.11395 2.17522,3.46198 -2.29778,0.30636 -6.98518,0.82718 -9.40551,1.07228 1.65438,-2.11395 3.24751,-5.51461 4.44233,-8.2413 3.58451,-0.337 7.44475,-0.55148 8.85406,-0.39828 2.23647,0.30636 2.87984,-0.12258 1.5931,-1.19483 -1.07228,-0.94976 -1.65438,-0.98038 -3.92151,-0.64338 -1.34803,0.2451 -3.70705,0.52082 -5.91291,0.76592 l 1.0723,-2.51221 c 0.70465,-1.53185 1.01101,-2.113952 0.4289,-2.941152 -0.55147,-0.735282 -1.2561,-1.409296 -1.71564,-1.654388 z"
           style="font-weight:600;font-size:28.7853px;line-height:1em;font-family:'Noto Serif CJK TC';-inkscape-font-specification:'Noto Serif CJK TC Semi-Bold';fill:#6c5a57;fill-opacity:0.952941;stroke-width:0.638265"
           id="path40689-7" />
      </g>
      <g
         id="g13367"
         transform="matrix(1.190625,0,0,1.190625,27.205786,-56.257032)">
        <rect
           style="fill:none;fill-opacity:0.952941;stroke:none;stroke-width:1.655"
           id="rect20270-6-3"
           width="24"
           height="24"
           x="57.149998"
           y="95.25" />
        <path
           d="m 67.551528,96.631311 c 0.130135,0.48797 0.22772,0.878338 0.03254,1.366308 -0.650629,1.398841 -3.415778,4.261591 -4.521838,4.912201 -1.073524,0.55303 -1.561492,0.65064 -1.431369,1.43138 0.227721,1.43137 0.357845,1.30126 1.919335,0.78076 1.463906,-0.45544 3.936273,-0.8133 6.278516,-0.97593 -2.179583,4.42423 -5.4327,8.39303 -9.596695,10.80034 -1.951872,1.13859 -1.951872,2.27719 0.65063,1.23619 4.717022,-1.88682 9.011138,-6.50624 11.385906,-12.13414 1.236183,0 2.277182,0.0652 2.927811,0.22773 1.366304,0.3253 1.56149,0.97593 1.268719,2.01692 -0.618092,2.47238 -2.081997,5.85563 -3.48084,7.77495 -1.203658,1.69163 -1.268719,1.88681 -2.342243,1.43137 -1.333781,-0.58555 -2.081997,-1.041 -2.667562,-1.33378 -1.040999,-0.58554 -1.333771,-0.13011 -0.71568,0.68318 0.975938,1.30123 2.114522,2.47236 2.602491,3.18804 0.71569,1.10607 0.910873,1.26871 2.569964,-0.0977 3.480839,-2.79768 6.115867,-11.02808 6.603823,-11.58111 0.618103,-0.74822 0.520505,-1.07352 -0.03254,-1.88682 -0.422907,-0.58554 -0.975936,-1.10605 -1.49643,-1.46389 -0.87835,-0.55302 -1.756688,-0.71569 -2.667564,-0.68315 -2.374779,-0.0326 -5.04233,0.13013 -9.076199,0.55303 0,0 3.285653,-3.28566 4.066394,-3.83869 0.553041,-0.390374 0.943412,-0.878341 0.455443,-1.528969 -0.553031,-0.780741 -1.138597,-1.301246 -1.65909,-1.626554 -0.975937,-0.650629 -1.333782,-0.162659 -1.073534,0.748215 z"
           style="font-weight:600;font-size:28.7853px;line-height:1em;font-family:'Noto Serif CJK TC';-inkscape-font-specification:'Noto Serif CJK TC Semi-Bold';fill:#6c5a57;fill-opacity:0.952941;stroke-width:0.677731"
           id="path40687-3" />
      </g>
      <g
         id="g7189"
         style="font-size:28.7853px;line-height:1em;font-family:'Noto Serif CJK TC';-inkscape-font-specification:'Noto Serif CJK TC, Normal';stroke-width:0.599692"
         transform="matrix(1.1906249,0,0,1.1906249,-1102.6176,80.362526)">
        <rect
           style="fill:none;fill-opacity:0.952941;stroke:none;stroke-width:1.655"
           id="rect20270-6-1-4"
           width="24"
           height="24"
           x="171.45001"
           y="57.149998"
           transform="translate(802.63311,19.353923)" />
        <path
           d="m 977.61909,80.098908 c 0.63325,0.823097 0.66481,4.305415 0.60157,7.882713 -0.0639,3.134083 -0.34829,6.679728 -0.79149,7.43951 -0.53814,0.981377 -0.60148,1.297949 -0.41155,1.994417 0.31663,1.076357 0.63314,1.076357 1.96278,0.506512 3.10247,-1.266295 10.25709,-1.234632 13.35946,-0.569826 3.00745,0.664808 3.35575,0.03168 2.50089,-1.108017 -0.94966,-1.266297 -1.89943,-1.266297 -3.48223,-1.234634 -2.8492,0 -7.81943,0.284908 -11.58672,0.633143 0.0639,-3.798891 0.4432,-13.232819 0.63325,-13.929287 3.00746,-0.411549 8.80076,-0.981377 11.04839,-0.918063 2.21606,0.06335 2.69093,-0.474863 1.61459,-1.361273 -1.10803,-0.886412 -1.61459,-0.854749 -3.48236,-0.474863 -2.08935,0.411548 -7.24952,0.88641 -9.46557,1.17133 l -0.50656,-0.411548 c -1.26628,-0.854759 -2.97578,-0.854759 -1.99445,0.379886 z"
           style="font-weight:600;font-size:28.7853px;line-height:1em;font-family:'Noto Serif CJK TC';-inkscape-font-specification:'Noto Serif CJK TC Semi-Bold';fill:#6c5a57;fill-opacity:0.952941;stroke-width:0.659528"
           id="path40685-2" />
      </g>
      <g
         id="g5599"
         transform="matrix(1.1906247,0,0,1.1906247,-101.6198,65.3058)">
        <rect
           style="fill:none;fill-opacity:0.952941;stroke:none;stroke-width:1.655"
           id="rect20270-6-8"
           width="24"
           height="24"
           x="133.35001"
           y="57.149998" />
        <path
           d="m 136.89511,61.3844 c 1.14796,0.709041 1.01291,4.423066 0.9454,6.415133 -0.0675,2.160891 -0.37142,5.199646 -0.60777,6.550199 -0.37141,1.890782 -0.43892,2.498526 0.50646,3.984146 0.43893,0.742801 1.35055,0.844101 1.72197,-3.41016 0.23634,-3.140039 0.37139,-11.310901 0.37139,-12.357589 0,-0.303876 -0.0337,-0.573985 -0.10134,-0.742809 3.30886,-0.540217 8.5085,-0.979148 10.09541,-0.877852 1.38431,0.101343 1.72197,0.67527 1.75573,1.823244 0.10133,1.890782 -0.10135,4.794481 -0.16881,7.090427 -0.27012,6.921592 -1.14798,7.765686 -0.50647,8.778606 1.01292,1.519375 1.75571,0.87786 2.09336,-0.810326 0.43892,-1.95831 0.27011,-3.815323 0.50645,-8.913671 0.13508,-2.667351 0.40518,-6.246322 0.64153,-6.854077 0.3714,-0.979149 0.64152,-1.350554 -0.13507,-1.958309 -0.43892,-0.371393 -1.2155,-0.776567 -1.9583,-1.114203 -0.81033,-0.371405 -0.87786,-0.135054 -2.76865,0.337636 -1.08044,0.23635 -8.37344,0.844106 -11.41219,1.046685 -0.20258,-0.101342 -0.4727,-0.168822 -0.74281,-0.23635 -1.01291,-0.270107 -1.38431,0.202582 -0.23633,1.24927 z"
           style="font-weight:600;font-size:28.7853px;line-height:1em;font-family:'Noto Serif CJK TC';-inkscape-font-specification:'Noto Serif CJK TC Semi-Bold';fill:#6c5a57;fill-opacity:0.952941;stroke-width:0.703413"
           id="path40683-0" />
      </g>
      <g
         id="g4038"
         transform="matrix(1.1906251,0,0,1.1906251,-56.257042,27.205775)">
        <rect
           style="fill:none;fill-opacity:0.952941;stroke:none;stroke-width:1.655"
           id="rect20270-6-1"
           width="24"
           height="24"
           x="95.25"
           y="57.149998" />
        <path
           d="m 101.43115,68.660691 c 1.02618,0.496542 3.70751,2.515805 6.35573,4.7999 -2.58202,2.714421 -6.12402,5.296442 -8.606715,6.190213 -1.820661,0.662059 -1.158601,1.423421 0.463434,0.993083 3.012351,-0.827564 6.388831,-2.97925 9.334971,-5.660574 l 0.26484,-0.23171 c 1.55581,1.423409 3.04543,2.879938 4.03852,4.071636 1.91997,2.350287 2.87993,2.681322 3.04546,1.324107 0.23172,-1.390313 0.16552,-1.655131 -2.48272,-4.071636 -0.79446,-0.728265 -1.98616,-1.721348 -3.27717,-2.714431 2.35031,-2.681325 3.83992,-5.528154 4.7337,-6.090901 0.92688,-0.595855 1.05928,-0.893771 0.43034,-1.456518 -0.69517,-0.662058 -1.1255,-1.191697 -1.68824,-1.555828 -0.56275,-0.331036 -0.69517,0.264819 -2.18479,0.264819 -2.28409,0.03311 -5.39575,0.198613 -7.91155,0.662057 0.59584,-0.628961 4.07163,-4.833006 4.76679,-5.263343 0.59586,-0.39723 0.49654,-0.761362 0.19861,-1.092385 -0.49653,-0.496543 -0.89377,-0.827566 -1.68823,-1.191698 -1.1917,-0.529651 -1.39032,-0.331036 -0.99309,0.728252 0.49655,1.158601 -2.94614,5.627467 -4.36956,6.554346 -0.95998,0.662057 -1.1255,0.993082 -0.82757,1.688238 0.33104,0.794469 0.49654,0.66206 1.95307,0.198615 1.55582,-0.463433 6.85226,-0.926868 8.60671,-0.76136 0.92687,0.09937 1.45652,0.331034 0.79447,1.489625 -0.36415,0.761361 -1.65514,2.615119 -3.40959,4.634383 -2.64822,-1.95306 -5.46195,-3.806818 -6.91847,-4.369565 -1.55583,-0.595842 -1.85376,0.297929 -0.62895,0.860675 z"
           style="font-weight:600;font-size:28.7853px;line-height:1em;font-family:'Noto Serif CJK TC';-inkscape-font-specification:'Noto Serif CJK TC Semi-Bold';fill:#6c5a57;fill-opacity:0.952941;stroke-width:0.689639"
           id="path40681-9" />
      </g>
      <g
         id="g45560"
         transform="matrix(1.1906251,0,0,1.1906251,-10.894224,-10.894224)">
        <rect
           style="fill:none;fill-opacity:0.952941;stroke:none;stroke-width:1.655"
           id="rect20270-6"
           width="24"
           height="24"
           x="57.149998"
           y="57.149998" />
        <path
           d="m 868.25963,77.997037 c 0.45333,1.262843 -3.3352,5.601816 -4.6304,6.24943 -0.93896,0.420948 -1.03614,0.744761 -1.00375,1.48951 0.0326,1.262832 0.25907,1.295217 1.10094,0.906655 2.94655,-1.262842 10.07029,-1.716165 12.85509,-1.586644 1.16562,0.0648 1.48948,0.712364 1.10093,1.910446 -0.38865,1.100937 -1.10093,2.817101 -1.94292,4.468505 -0.93895,1.813311 -2.10468,3.561851 -2.97895,4.662787 -0.6476,0.74476 -0.97146,0.874281 -1.71614,0.356187 -0.68,-0.518082 -1.52188,-1.165697 -2.13719,-1.554259 -0.90655,-0.582854 -1.16562,-0.356187 -0.58281,0.744749 0.38853,0.80951 1.52187,2.36378 1.94281,3.36757 0.42093,1.295217 0.87426,1.424737 1.87812,0.777135 2.20188,-1.457124 4.17709,-4.403746 5.69895,-7.350378 1.23042,-2.428529 2.13708,-5.407536 2.52563,-5.796098 0.61531,-0.615228 0.77718,-0.87428 0.29146,-1.586644 -0.48573,-0.647614 -1.13334,-1.133322 -1.68375,-1.521883 -0.74479,-0.550469 -1.3924,-0.582855 -2.88187,-0.485708 -1.84573,0.12952 -8.1275,0.809508 -9.84375,1.100936 1.06866,-1.068562 3.4,-3.399955 4.01521,-3.853278 1.00385,-0.809509 1.16572,-1.133322 0.77719,-1.651404 -0.45333,-0.582854 -1.16573,-1.198082 -1.78094,-1.521883 -1.00386,-0.550469 -1.3276,-0.323802 -1.00386,0.874269 z"
           style="font-weight:600;font-size:28.7853px;line-height:1em;font-family:'Noto Serif CJK TC';-inkscape-font-specification:'Noto Serif CJK TC Semi-Bold';fill:#6c5a57;fill-opacity:0.952941;stroke-width:0.674592"
           id="path40679-1"
           transform="translate(-802.63312,-19.353923)" />
      </g>
      <text
         xml:space="preserve"
         style="font-size:9.63651px;line-height:0px;font-family:'Noto Serif CJK TC';-inkscape-font-specification:'Noto Serif CJK TC';stroke-width:0.30114"
         x="56.764538"
         y="46.185032"
         id="text47341"><tspan
           id="tspan47339"
           style="font-size:9.63651px;stroke-width:0.30114"
           x="56.764538"
           y="46.185032"></tspan></text>
    </g>
  </g>
</svg>
