<?xml version="1.0" encoding="UTF-8" standalone="no"?>
<svg
   width="28.574984mm"
   height="28.574999mm"
   viewBox="0 0 28.574984 28.574999"
   version="1.1"
   id="svg8"
   xmlns="http://www.w3.org/2000/svg"
   xmlns:svg="http://www.w3.org/2000/svg"
   xmlns:rdf="http://www.w3.org/1999/02/22-rdf-syntax-ns#"
   xmlns:cc="http://creativecommons.org/ns#"
   xmlns:dc="http://purl.org/dc/elements/1.1/">
  <defs
     id="defs2" />
  <metadata
     id="metadata5">
    <rdf:RDF>
      <cc:Work
         rdf:about="">
        <dc:format>image/svg+xml</dc:format>
        <dc:type
           rdf:resource="http://purl.org/dc/dcmitype/StillImage" />
        <dc:title>Guileless Bopomofo Keyboard</dc:title>
        <cc:license
           rdf:resource="http://creativecommons.org/licenses/by-nd/4.0/" />
        <dc:creator>
          <cc:Agent>
            <dc:title>YOU, HUI-HONG</dc:title>
          </cc:Agent>
        </dc:creator>
      </cc:Work>
      <cc:License
         rdf:about="http://creativecommons.org/licenses/by-nd/4.0/">
        <cc:permits
           rdf:resource="http://creativecommons.org/ns#Reproduction" />
        <cc:permits
           rdf:resource="http://creativecommons.org/ns#Distribution" />
        <cc:requires
           rdf:resource="http://creativecommons.org/ns#Notice" />
        <cc:requires
           rdf:resource="http://creativecommons.org/ns#Attribution" />
      </cc:License>
    </rdf:RDF>
  </metadata>
  <g
     id="layer6"
     transform="translate(-171.45001,-133.35)">
    <g
       id="g34"
       style="display:inline">
      <g
         id="g18087"
         transform="matrix(1.1906231,0,0,1.1906231,386.41769,-464.52149)">
        <rect
           style="fill:none;fill-opacity:0.952941;stroke:none;stroke-width:1.655"
           id="rect20270-6-1-4-7-2"
           width="24"
           height="24"
           x="171.45004"
           y="438.14999" />
        <path
           d="m 183.49323,452.94217 c 1.69833,-0.0288 2.70581,-1.26655 2.70581,-2.70582 0,-1.52562 -1.00748,-2.87853 -2.7346,-2.87853 -1.69833,0 -2.76339,1.3817 -2.76339,2.87853 0.0288,1.41048 1.15141,2.67704 2.79218,2.70582 z"
           style="font-weight:600;font-size:28.7853px;line-height:1em;font-family:'Noto Serif CJK TC';-inkscape-font-specification:'Noto Serif CJK TC Semi-Bold';fill:#6c5a57;fill-opacity:0.952941;stroke-width:0.599692"
           id="path40759-5" />
      </g>
      <g
         id="g18083"
         transform="matrix(1.1906241,0,0,1.1906241,393.6803,-464.52194)">
        <rect
           style="fill:none;fill-opacity:0.952941;stroke:none;stroke-width:1.655"
           id="rect20270-6-8-9-8"
           width="24"
           height="24"
           x="133.35001"
           y="438.14999" />
        <path
           d="m 150.13117,453.99817 0.54692,-0.86356 c 0,0 -5.81463,-4.5193 -8.17503,-6.36155 -1.81347,-1.41048 -3.48302,0.69084 -1.7559,1.78468 1.29534,0.80599 9.38401,5.44043 9.38401,5.44043 z"
           style="font-weight:600;font-size:28.7853px;line-height:1em;font-family:'Noto Serif CJK TC';-inkscape-font-specification:'Noto Serif CJK TC Semi-Bold';fill:#6c5a57;fill-opacity:0.952941;stroke-width:0.599692"
           id="path40757-2" />
      </g>
      <g
         id="g18079"
         transform="matrix(1.1906233,0,0,1.1906233,400.94315,-464.52157)">
        <rect
           style="fill:none;fill-opacity:0.952941;stroke:none;stroke-width:1.655"
           id="rect20270-6-1-5-0"
           width="24"
           height="24"
           x="95.250038"
           y="438.14999" />
        <path
           d="m 107.26443,451.40215 -4.43294,-6.41912 -1.18019,0.54692 5.52677,9.84457 5.67071,-9.87336 -1.15141,-0.5757 z"
           style="font-weight:600;font-size:28.7853px;line-height:1em;font-family:'Noto Serif CJK TC';-inkscape-font-specification:'Noto Serif CJK TC Semi-Bold';fill:#6c5a57;fill-opacity:0.952941;stroke-width:0.599692"
           id="path40755-5" />
      </g>
      <g
         id="g18075"
         transform="matrix(1.1906241,0,0,1.1906241,408.20586,-464.52194)">
        <rect
           style="fill:none;fill-opacity:0.952941;stroke:none;stroke-width:1.655"
           id="rect20270-6-0-5"
           width="24"
           height="24"
           x="57.149998"
           y="438.14999" />
        <path
           d="m 63.830899,453.13278 0.5757,0.86355 c 0,0 8.05989,-4.63443 9.35522,-5.44042 1.69834,-1.06505 0.0288,-3.19517 -1.7559,-1.78469 -2.38918,1.87105 -8.17502,6.36156 -8.17502,6.36156 z"
           style="font-weight:600;font-size:28.7853px;line-height:1em;font-family:'Noto Serif CJK TC';-inkscape-font-specification:'Noto Serif CJK TC Semi-Bold';fill:#6c5a57;fill-opacity:0.952941;stroke-width:0.599692"
           id="path40753-4" />
      </g>
      <g
         id="g18071"
         transform="matrix(1.1906243,0,0,1.1906243,370.10585,-419.15924)">
        <rect
           style="fill:none;fill-opacity:0.952941;stroke:none;stroke-width:1.655"
           id="rect20270-6-3-8-5-6-2"
           width="24"
           height="24"
           x="57.149998"
           y="400.04999" />
        <path
           d="m 64.92218,404.32829 c 0.202462,0.2314 0.52063,0.69419 0.723101,1.30159 0.173543,0.57848 0.231391,1.09912 0.173543,2.7478 -0.144624,3.55767 -0.636334,6.16085 -2.111466,8.12769 -1.330508,1.79329 -2.429624,2.48747 -4.743562,3.76014 -0.78095,0.37601 -0.549559,1.04127 0.260319,0.86772 2.400705,-0.57849 4.57002,-1.64868 6.160847,-3.81799 1.243741,-1.70653 1.937923,-4.30969 2.285009,-8.35907 0.115695,-1.47514 0.115695,-2.66103 0.318168,-3.09489 0.347086,-0.80988 0.318167,-1.09912 -0.462792,-1.56191 -0.433863,-0.26031 -1.359437,-0.63633 -2.227162,-0.75204 -0.694173,-0.11568 -0.925574,0.20248 -0.376005,0.78096 z m 5.784831,1.27267 c 0.173543,1.24374 -0.491711,10.12346 -0.578487,11.42504 -0.08682,1.50406 0.02894,3.26842 1.504051,3.67337 2.082547,0.54956 4.917115,0.63632 6.56579,0.52063 1.417284,-0.11569 2.024689,-0.60741 1.330507,-1.41728 -0.636335,-0.75202 -1.590827,-0.89665 -2.718872,-0.69418 -1.388356,0.23139 -3.731213,0.60741 -4.598939,-0.43386 -0.75203,-0.92557 -0.260319,-5.35097 0,-7.63597 0.231391,-2.2561 0.376016,-4.39648 0.838797,-5.43775 0.520639,-1.07019 0.376016,-1.53299 -0.49171,-1.99577 -0.607406,-0.37601 -1.417284,-0.63633 -2.111457,-0.75202 -0.925573,-0.1157 -1.099116,0.34708 -0.578487,0.8388 0.665253,0.63632 0.75203,1.12804 0.838807,1.90899 z"
           style="font-weight:600;font-size:28.7853px;line-height:1em;font-family:'Noto Serif CJK TC';-inkscape-font-specification:'Noto Serif CJK TC Semi-Bold';fill:#6c5a57;fill-opacity:0.952941;stroke-width:0.602584"
           id="path40751-7" />
      </g>
      <g
         id="g18067"
         transform="matrix(1.1906233,0,0,1.1906233,195.91763,-259.49608)">
        <rect
           style="fill:none;fill-opacity:0.952941;stroke:none;stroke-width:1.655"
           id="rect20270-6-3-8-5-8-6-8"
           width="24"
           height="24"
           x="171.45001"
           y="361.95001" />
        <path
           d="m 183.81985,364.44116 c -1.57532,-0.97673 -1.76437,-0.53562 -1.54383,1.51232 0.40961,3.37121 -4.63148,12.31912 -7.56161,14.80816 -0.85067,0.69315 -1.29177,0.69315 -1.26026,2.11096 0.0315,1.57534 0.56711,1.13424 2.20547,0.53561 3.05614,-1.10274 12.28763,-2.07945 15.56433,-1.44932 2.61506,0.4726 2.74108,-0.56712 1.32328,-1.54383 -0.78767,-0.53561 -1.4178,-1.00821 -2.80411,-0.85068 -2.20547,0.18904 -9.60955,0.9137 -12.50817,1.19726 2.52054,-2.80409 6.39588,-9.98764 7.59312,-12.44517 0.56713,-1.19725 0.69316,-1.63835 0.15755,-2.48902 -0.25206,-0.4411 -0.78769,-1.13425 -1.16577,-1.38629 z"
           style="font-weight:600;font-size:28.7853px;line-height:1em;font-family:'Noto Serif CJK TC';-inkscape-font-specification:'Noto Serif CJK TC Semi-Bold';fill:#6c5a57;fill-opacity:0.952941;stroke-width:0.656389"
           id="path40749-3" />
      </g>
      <g
         id="g18063"
         transform="matrix(1.190623,0,0,1.190623,241.28043,-297.59601)">
        <rect
           style="fill:none;fill-opacity:0.952941;stroke:none;stroke-width:1.655"
           id="rect20270-6-3-8-5-0-4"
           width="24"
           height="24"
           x="133.35002"
           y="361.95001" />
        <path
           d="m 145.59365,373.11235 c 0.26411,0.35213 -0.0294,5.51681 0.0588,7.39487 0.088,1.702 0.44018,2.64104 2.25955,3.28662 1.96611,0.70428 5.86896,0.38148 7.13078,0.20541 1.14445,-0.17606 1.7607,-0.49886 0.85101,-1.29116 -0.82167,-0.73362 -1.20314,-0.82166 -2.46496,-0.32279 -1.1151,0.44016 -3.34532,0.4695 -4.31369,0.2641 -1.58462,-0.3228 -1.96611,-1.05641 -1.99545,-2.78777 -0.0294,-1.99544 0.17607,-4.90056 0.5282,-5.5755 0.35215,-0.70428 0.20543,-0.99772 -0.38147,-1.40855 -0.41083,-0.29344 -0.82166,-0.55755 -1.37922,-0.73362 -0.58689,-0.20541 -0.88033,0.11738 -0.29344,0.96839 z m -9.53705,-1.20314 c 1.23248,1.17378 1.52594,1.26183 3.19858,0.76296 0.76297,-0.20542 2.34758,-0.49886 4.13761,-0.79232 -0.23475,0.79232 -0.49886,1.61397 -0.85099,2.43562 -1.49659,3.55072 -3.87352,6.92538 -7.6003,9.06754 -1.08577,0.61624 -0.49887,1.11511 0.67492,0.70428 2.69973,-0.96838 5.51683,-2.84644 8.15786,-8.04047 0.73362,-1.40855 1.23249,-2.99318 1.61396,-4.43107 2.67038,-0.38147 5.39944,-0.64558 6.60258,-0.5282 2.25956,0.14673 2.72906,-0.17607 1.52592,-1.17379 -1.0564,-0.90969 -1.49658,-0.90969 -3.60941,-0.49886 l -4.22564,0.76297 c 0.46951,-2.25955 0.5869,-4.02025 0.70428,-4.255 0.29344,-0.55755 0.38147,-0.93904 -0.11738,-1.29117 -0.55756,-0.35214 -1.20313,-0.73362 -2.0248,-0.90969 -1.11509,-0.23476 -1.29117,0.23476 -0.29344,1.29116 0.44017,0.44018 0.44017,2.72908 -0.17607,5.48748 l -0.14673,0.0294 c -3.05185,0.44017 -5.72223,0.851 -6.83734,0.55755 -1.43789,-0.38148 -1.55526,0.0294 -0.73361,0.82166 z"
           style="font-weight:600;font-size:28.7853px;line-height:1em;font-family:'Noto Serif CJK TC';-inkscape-font-specification:'Noto Serif CJK TC Semi-Bold';fill:#6c5a57;fill-opacity:0.952941;stroke-width:0.611348"
           id="path40747-9" />
      </g>
      <g
         id="g18059"
         transform="matrix(1.1906232,0,0,1.1906232,286.64319,-335.69608)">
        <rect
           style="fill:none;fill-opacity:0.952941;stroke:none;stroke-width:1.655"
           id="rect20270-6-3-8-5-8-4"
           width="24"
           height="24"
           x="95.25"
           y="361.95001" />
        <path
           d="m 102.5402,364.62118 c 0.43809,0.67173 -0.93458,7.53506 -2.33645,8.44043 -0.700935,0.4965 -0.759345,0.81776 -0.554913,1.37267 0.292067,0.84697 0.467303,0.90538 1.518703,0.5549 2.07359,-0.78855 7.3598,-1.66472 9.66705,-1.46027 1.63552,0.17523 1.75234,0.70092 1.48949,1.98598 -0.26285,1.46028 -1.25585,4.20561 -1.95677,5.43225 -0.70094,1.34346 -1.08062,1.34346 -0.81776,2.30724 0.55491,1.81075 0.81776,1.75234 1.75234,0.20444 0.99299,-1.54789 2.51168,-7.35982 3.15421,-8.26519 0.81776,-1.10982 0.67172,-1.57711 -0.75936,-2.5993 -1.25584,-0.93458 -1.57709,-0.93458 -2.86215,-0.84697 -2.48247,0.17524 -5.57827,0.58411 -8.49883,1.13902 0.87617,-1.92757 2.24883,-6.19159 2.57009,-6.92174 0.43809,-0.93457 0.58411,-1.16822 -0.0292,-1.63551 -0.64253,-0.5257 -1.25584,-0.75935 -1.81075,-0.93458 -1.0514,-0.35047 -1.25584,0.14603 -0.5257,1.22663 z"
           style="font-weight:600;font-size:28.7853px;line-height:1em;font-family:'Noto Serif CJK TC';-inkscape-font-specification:'Noto Serif CJK TC Semi-Bold';fill:#6c5a57;fill-opacity:0.952941;stroke-width:0.608449"
           id="path40745-6" />
      </g>
      <g
         id="g18055"
         transform="matrix(1.1906233,0,0,1.1906233,332.00593,-373.79612)">
        <rect
           style="fill:none;fill-opacity:0.952941;stroke:none;stroke-width:1.655"
           id="rect20270-6-3-8-5-9"
           width="24"
           height="24"
           x="57.149998"
           y="361.95001" />
        <path
           d="m 64.706809,366.73512 c 0.316455,0.88609 0.03166,1.80383 -0.348106,2.75319 -0.537979,1.39243 -1.29747,2.78484 -2.215206,3.4494 -0.854434,0.63291 -1.265831,0.85444 -1.170889,1.26583 0,0.37975 0.348095,1.20254 0.791143,1.36077 0.443037,0.18987 0.727851,-0.22152 1.550645,-0.47469 1.297482,-0.50633 8.259555,-1.1076 10.31654,-0.94938 1.867101,0.18989 1.708867,1.20255 1.550646,1.6456 -0.601281,1.8038 -1.392424,3.51268 -2.721546,5.12662 -1.075957,1.29746 -1.360772,1.61394 -1.424063,2.37342 -0.06333,1.48736 0.506338,1.74054 1.550645,0.69622 1.645588,-1.77218 2.753185,-3.70256 4.145598,-6.3608 0.443048,-0.94938 0.822794,-1.77218 1.455715,-2.08863 0.506328,-0.28482 0.537978,-0.88609 -0.379747,-1.74052 -0.981026,-0.85444 -2.151926,-1.519 -4.177248,-1.39243 -2.753196,0.12659 -8.481079,0.66457 -9.462106,0.79115 0.506339,-0.75949 2.405079,-4.08231 2.689895,-4.77852 0.316454,-0.75949 0.506338,-1.0443 0,-1.64558 -0.316456,-0.3481 -0.664561,-0.66456 -0.981017,-0.85443 2.151916,-0.44304 4.968392,-0.85445 6.392456,-0.79115 1.550645,0.0633 1.645576,0.56963 1.518994,1.23419 -0.284815,1.32912 -1.329122,3.7975 -2.215207,5.25321 -0.379745,0.66456 0.221524,1.0443 0.632921,0.69621 1.962043,-1.70888 2.816477,-4.81018 3.734202,-5.50638 0.759502,-0.56963 0.791142,-1.26583 0.379757,-1.74053 -0.379757,-0.41139 -1.487355,-1.29747 -1.677228,-1.4557 -0.632921,-0.41139 -0.949376,-0.37974 -1.898751,-0.15823 -2.626604,0.53798 -9.968434,1.42407 -11.582371,1.04431 -1.645587,-0.34809 -1.867101,-0.18986 -0.537979,1.13926 1.20254,1.13924 1.83546,1.20253 3.069641,0.79114 l 0.917735,-0.25317 c 0,0.18988 0.03166,0.37975 0.09499,0.56962 z"
           style="font-weight:600;font-size:28.7853px;line-height:1em;font-family:'Noto Serif CJK TC';-inkscape-font-specification:'Noto Serif CJK TC Semi-Bold';fill:#6c5a57;fill-opacity:0.952941;stroke-width:0.659286"
           id="path40743-5" />
      </g>
      <g
         id="g18051"
         transform="matrix(1.1906235,0,0,1.1906235,157.81763,-214.13343)">
        <rect
           style="fill:none;fill-opacity:0.952941;stroke:none;stroke-width:1.655"
           id="rect20270-6-3-8-59-7-4"
           width="24"
           height="24"
           x="171.45001"
           y="323.85001" />
        <path
           d="m 178.70616,331.51722 c 2.17387,1.48075 4.31622,3.90665 5.63944,5.3874 l 0.15753,0.18903 c -3.11903,3.52859 -5.9545,5.73396 -9.32556,7.43525 -1.38623,0.69311 -1.16571,1.63827 1.29171,0.91365 2.23688,-0.69312 5.48191,-2.42591 9.45159,-6.77363 1.51224,1.73278 3.27655,3.90665 3.68612,4.75729 1.19719,2.61494 1.57525,2.48891 2.48891,1.16569 0.6301,-0.85062 0.6301,-1.2602 -0.81914,-2.96149 -1.2287,-1.44924 -2.89849,-3.21354 -4.09569,-4.47374 2.70945,-3.37107 3.5916,-5.92301 4.37924,-6.80514 1.44924,-1.63827 1.41773,-1.85882 -0.5671,-3.5286 -1.35473,-1.13417 -1.70129,-0.91364 -3.68612,-0.44105 -1.8588,0.40955 -8.69545,1.32321 -10.33372,0.97664 -1.70129,-0.34656 -1.85881,-0.0631 -0.53559,1.26022 0.85064,0.91366 1.2287,1.26021 3.08752,0.72462 2.11086,-0.5986 7.02566,-1.16569 8.28587,-1.22871 1.48075,-0.0946 1.82731,0.34657 1.32323,1.60678 -0.44108,1.03967 -1.03968,2.99299 -3.43406,5.95448 -2.11087,-1.98482 -4.63128,-4.31622 -5.98601,-4.88331 -1.1972,-0.50409 -2.04785,0.0631 -1.00817,0.72462 z"
           style="font-weight:600;font-size:28.7853px;line-height:1em;font-family:'Noto Serif CJK TC';-inkscape-font-specification:'Noto Serif CJK TC Semi-Bold';fill:#6c5a57;fill-opacity:0.952941;stroke-width:0.656358"
           id="path40741-6" />
      </g>
      <g
         id="g18047"
         transform="matrix(1.1906235,0,0,1.1906235,203.18039,-252.23342)">
        <rect
           style="fill:none;fill-opacity:0.952941;stroke:none;stroke-width:1.655"
           id="rect20270-6-3-8-3-2"
           width="24"
           height="24"
           x="133.35001"
           y="323.85001" />
        <path
           d="m 145.24558,326.65605 c 0.1185,0.77026 -0.85913,2.45888 -2.54775,4.47338 -1.659,1.98487 -3.11063,3.46613 -4.11787,3.73276 -1.45163,0.38511 -1.57013,2.34037 0.14811,2.16261 2.0145,-0.20736 4.41413,-0.0593 6.36938,0.47401 -1.92561,2.19225 -4.23638,4.266 -6.42862,5.51025 -0.85913,0.50362 -1.18501,0.85914 -1.06651,1.51088 0.23701,1.39237 0.77026,1.33312 2.60701,0.79987 1.92563,-0.59249 8.20614,-1.12574 10.84276,-1.51087 l 0.17774,0.56287 c 0.5925,2.39963 1.24425,2.66625 1.86638,1.39239 0.5925,-1.24426 -0.74063,-4.74001 -3.52537,-7.34702 -1.00726,-0.97762 -1.48125,-0.62212 -1.06651,0.11851 0.711,1.21462 1.42201,2.54775 1.92564,3.73274 -1.83676,0.237 -6.60639,0.71101 -8.20613,0.91838 -0.38513,0.0296 -0.56289,-0.14812 -0.23701,-0.41475 1.71825,-1.45163 4.44375,-4.20675 5.39176,-5.30288 2.34037,-2.66624 3.70312,-4.59187 4.38449,-5.15475 0.8295,-0.68137 1.09613,-0.88875 0.5925,-1.62937 -0.29624,-0.47401 -0.88874,-1.03688 -1.59975,-1.48126 -0.948,-0.53324 -1.15537,-0.26662 -1.03687,1.36276 0.0888,0.71099 -1.33313,2.90325 -3.46613,5.53988 -1.57012,-0.35551 -3.792,-0.79988 -4.71037,-0.97764 -0.20738,-0.0296 -0.41476,-0.11849 -0.11851,-0.38513 2.04413,-1.86636 4.50301,-5.09549 5.45101,-6.01387 1.09612,-1.00724 1.27387,-1.27387 0.79987,-1.896 -0.29624,-0.44437 -0.74063,-0.948 -1.33313,-1.30349 -0.88874,-0.53326 -1.36274,-0.65176 -1.09612,1.12574 z"
           style="font-weight:600;font-size:28.7853px;line-height:1em;font-family:'Noto Serif CJK TC';-inkscape-font-specification:'Noto Serif CJK TC Semi-Bold';fill:#6c5a57;fill-opacity:0.952941;stroke-width:0.617186"
           id="path40739-7" />
      </g>
      <g
         id="g18043"
         transform="matrix(1.1906233,0,0,1.1906233,248.54318,-290.33336)">
        <rect
           style="fill:none;fill-opacity:0.952941;stroke:none;stroke-width:1.655"
           id="rect20270-6-3-8-59-59"
           width="24"
           height="24"
           x="95.25"
           y="323.85001" />
        <path
           d="m 99.040229,327.78228 c 0.994201,0.90099 1.553421,1.11848 2.702971,0.77672 1.39809,-0.40389 3.72822,-0.96313 5.62342,-0.96313 -0.0932,2.9826 -0.0311,6.40015 0.71458,9.69343 1.02526,4.31854 2.73405,7.20793 5.34381,9.22739 0.71457,-0.59031 1.24274,-0.90098 1.86412,-0.9942 1.36701,-0.21747 1.36701,-0.55923 -0.0621,-1.27381 -2.54764,-1.33596 -4.22534,-3.85252 -5.21954,-7.3322 -0.90099,-3.20008 -1.14955,-8.23321 -0.62138,-8.88564 1.42917,-1.73986 1.55344,-1.9884 0.68352,-2.51657 -0.71458,-0.37282 -0.9942,-0.52817 -1.9884,0.0621 -1.24275,0.71457 -6.67976,1.30489 -7.95358,1.0874 -2.39228,-0.40389 -2.330143,0.0311 -1.087388,1.11847 z"
           style="font-weight:600;font-size:28.7853px;line-height:1em;font-family:'Noto Serif CJK TC';-inkscape-font-specification:'Noto Serif CJK TC Semi-Bold';fill:#6c5a57;fill-opacity:0.952941;stroke-width:0.647262"
           id="path40737-4" />
      </g>
      <g
         id="g18039"
         transform="matrix(1.1906234,0,0,1.1906234,293.90592,-328.4334)">
        <rect
           style="fill:none;fill-opacity:0.952941;stroke:none;stroke-width:1.655"
           id="rect20270-6-3-8-0"
           width="24"
           height="24"
           x="57.149998"
           y="323.85001" />
        <path
           d="m 59.069846,327.58932 c 1.332888,1.33289 1.657979,1.43042 3.478509,0.94277 1.365392,-0.32508 5.038955,-0.81272 8.484952,-1.10532 -0.130038,1.49544 -0.617679,4.32375 -1.657981,6.892 -2.373189,0.19506 -4.551314,0.39012 -5.168991,0.55267 0.552659,-0.84526 1.885549,-3.31597 2.210638,-3.77111 0.39011,-0.58516 0.617679,-1.04029 0.130037,-1.4304 -0.585176,-0.55267 -0.975284,-0.74772 -1.560458,-0.97529 -0.422612,-0.19505 -0.650181,0.22757 -0.455127,0.6827 0.292587,0.84525 -0.130035,1.75551 -0.455127,2.63325 -0.390121,0.94278 -1.202851,2.17814 -2.210638,2.99088 -0.877762,0.65019 -1.072817,0.74771 -1.072817,1.20284 0,0.39011 -0.06506,0.94279 0.39011,1.20285 0.357604,0.13004 0.845245,-0.22756 1.918062,-0.61768 1.072805,-0.39011 3.348462,-0.7477 5.591616,-1.00777 l -0.162552,0.32509 c -1.885537,3.47851 -4.681351,6.79446 -7.704722,8.15985 -2.080602,0.91026 -1.918062,1.723 0.195054,1.30037 2.828317,-0.61768 6.501882,-3.83609 8.907575,-7.9648 0.390109,-0.6827 0.747714,-1.36539 1.072817,-2.0481 1.397895,-0.13002 2.600747,-0.16255 3.18591,-0.13002 1.592962,0.0975 1.918064,0.48763 1.365404,2.40569 -0.455138,1.62546 -1.690494,4.74637 -2.69828,5.98172 -1.0078,1.26787 -1.267872,1.49544 -1.202854,2.14562 0.06506,0.84526 0.845248,0.94279 2.470712,-0.7152 2.405705,-2.53575 3.511024,-7.44467 4.226223,-8.15986 0.292589,-0.29259 0.61768,-0.58517 0.03253,-1.39791 -0.422623,-0.52015 -0.975283,-1.10531 -1.592961,-1.52795 -0.552659,-0.39009 -1.072816,-0.35759 -2.405693,-0.26006 l -2.795814,0.22758 c 0.910265,-2.3407 1.397906,-4.64885 1.820531,-6.8595 1.625464,-0.0976 3.055885,-0.0976 3.933636,0 2.503227,0.35761 3.023372,-0.0326 1.788016,-1.23536 -1.072805,-1.0078 -1.365391,-1.04029 -3.738582,-0.65019 -1.65798,0.29258 -3.868618,0.48764 -6.957008,0.87774 -3.478509,0.39014 -7.314625,0.78024 -8.517466,0.42264 -1.592961,-0.48764 -1.722997,-0.0325 -0.845247,0.91026 z"
           style="font-weight:600;font-size:28.7853px;line-height:1em;font-family:'Noto Serif CJK TC';-inkscape-font-specification:'Noto Serif CJK TC Semi-Bold';fill:#6c5a57;fill-opacity:0.952941;stroke-width:0.677277"
           id="path40735-5" />
      </g>
      <g
         id="g16447"
         transform="matrix(1.1906249,0,0,1.1906249,119.71737,-168.77103)">
        <rect
           style="fill:none;fill-opacity:0.952941;stroke:none;stroke-width:1.655"
           id="rect20270-6-3-1-4-5"
           width="24"
           height="24"
           x="171.45"
           y="285.74997" />
        <path
           d="m 172.91049,297.4204 c 1.29946,1.20665 1.60885,1.29947 3.34148,0.7735 0.52597,-0.1547 1.4851,-0.30941 2.69174,-0.46409 l 0.0929,4.42436 c 0.0619,3.7437 0.40219,5.10504 2.38234,5.47631 2.50611,0.43317 7.0233,0.27846 8.6631,0.0619 1.88732,-0.18563 1.91826,-1.26851 1.021,-1.79448 -0.58785,-0.49505 -1.36134,-0.43316 -2.53704,-0.18565 -1.23758,0.3094 -3.71276,0.46409 -5.60008,0.37128 -1.70168,-0.12376 -2.22765,-0.92819 -2.2586,-2.90833 l -0.031,-5.66195 c 1.76356,-0.18564 3.77463,-0.40222 5.66196,-0.52597 -0.52598,2.38235 -1.48511,5.04315 -2.66082,7.39458 -0.46409,0.92818 0.15471,1.45416 1.23759,0.27844 1.39228,-1.6398 2.28953,-4.05308 3.24866,-7.79678 1.82544,-0.0929 3.34148,-0.12375 4.11497,-0.031 2.25859,0.3094 2.90832,-0.12376 1.60886,-1.20664 -1.11382,-0.95914 -1.70168,-1.02102 -3.96027,-0.64973 l -1.36134,0.21657 c 0.46409,-1.9492 0.80443,-4.02216 0.92819,-4.45531 0.4641,-1.60887 -0.031,-2.04202 -1.6398,-2.78457 -1.73262,-0.77349 -2.35142,-0.21657 -1.29947,0.89726 0.80442,0.80442 0.74255,2.72268 0.0929,6.59014 l -3.92933,0.49503 -2.04201,0.21658 c 0.031,-1.51605 0.0619,-2.84645 0.12375,-3.4343 0.18564,-1.60886 0.24751,-1.98014 -0.46409,-2.50612 -0.49504,-0.37126 -1.14478,-0.68067 -1.82544,-0.83536 -1.54699,-0.37128 -1.7945,-0.12376 -0.77349,1.11383 0.77349,0.92819 0.86631,1.57792 1.021,2.9702 0.0619,0.52597 0.12376,1.63981 0.1547,2.87738 -2.28954,0.21659 -4.48624,0.37128 -5.2288,0.18564 -1.54698,-0.40222 -1.67074,0.031 -0.77348,0.89724 z"
           style="font-weight:600;font-size:28.7853px;line-height:1em;font-family:'Noto Serif CJK TC';-inkscape-font-specification:'Noto Serif CJK TC Semi-Bold';fill:#6c5a57;fill-opacity:0.952941;stroke-width:0.644574"
           id="path40733-5" />
      </g>
      <g
         id="g16443"
         transform="matrix(1.1906246,0,0,1.1906246,165.08022,-206.87098)">
        <rect
           style="fill:none;fill-opacity:0.952941;stroke:none;stroke-width:1.655"
           id="rect20270-6-3-10-2"
           width="24"
           height="24"
           x="133.35001"
           y="285.75" />
        <path
           d="m 135.15014,295.12628 c 1.27467,1.24357 1.61665,1.33684 3.35766,0.80832 1.02596,-0.27981 3.57528,-0.62179 6.34223,-0.90158 l -0.0311,1.70991 c -0.0311,0.71505 -0.21762,1.4612 -0.99486,1.55446 -3.10893,0.3109 -5.03648,2.26953 -5.09866,4.78777 -0.0311,2.6426 2.48715,5.2541 7.46145,5.22302 4.22816,-0.0622 6.28006,-1.64774 7.11946,-2.6426 1.08814,-1.24358 -0.0311,-2.14517 -1.21247,-1.18139 -1.52338,1.24357 -3.17112,1.89645 -5.8448,1.98972 -2.79806,0.0932 -5.53391,-1.02596 -5.53391,-3.14004 0,-2.48714 2.45605,-3.41983 3.91726,-3.482 1.46119,-0.0311 1.83427,-0.43526 1.95862,-2.0519 l 0.0933,-2.95349 c 2.8913,-0.24873 5.68935,-0.40416 7.11946,-0.24873 2.39388,0.21764 2.8913,-0.15543 1.61664,-1.24356 -1.08813,-0.96378 -1.67883,-0.99487 -3.94835,-0.65288 -1.21249,0.21763 -2.95349,0.43525 -4.72558,0.65288 0.0622,-1.52338 0.12435,-2.92241 0.2798,-3.48202 0.2798,-1.05703 0.3109,-1.52338 -0.21762,-1.80318 -0.71506,-0.40417 -1.7721,-0.71505 -2.083,-0.80833 -1.27467,-0.2798 -1.4301,0.34199 -0.77722,0.93269 0.43524,0.31089 0.71505,0.90159 0.83941,1.77209 0.0622,0.46634 0.0933,2.05189 0.0933,3.60637 -3.07786,0.37307 -7.80344,0.99486 -8.98483,0.68396 -1.52338,-0.43525 -1.61666,0 -0.74615,0.87051 z"
           style="font-weight:600;font-size:28.7853px;line-height:1em;font-family:'Noto Serif CJK TC';-inkscape-font-specification:'Noto Serif CJK TC Semi-Bold';fill:#6c5a57;fill-opacity:0.952941;stroke-width:0.647694"
           id="path40731-1" />
      </g>
      <g
         id="g16439"
         transform="matrix(1.1906238,0,0,1.1906238,210.44312,-244.97075)">
        <rect
           style="fill:none;fill-opacity:0.952941;stroke:none;stroke-width:1.655"
           id="rect20270-6-3-1-40"
           width="24"
           height="24"
           x="95.25"
           y="285.75" />
        <path
           d="m 97.135483,290.94739 c 1.332108,1.30039 1.649284,1.39555 3.425427,0.85637 1.04667,-0.28546 3.67917,-0.60263 6.47026,-0.85637 0.0635,1.04666 0.0952,2.09332 0.0952,2.91796 0,1.04665 -0.15858,1.39554 -0.69777,1.4907 -2.31534,0.41232 -5.83591,2.22017 -5.83591,6.18479 0,3.45715 3.64745,5.55046 7.89751,5.4236 4.25007,-0.12687 6.62884,-1.4907 7.80236,-3.01312 1.17353,-1.52241 -0.53919,-2.25189 -1.5224,-1.04665 -0.76121,1.01494 -3.01312,1.99816 -6.3434,2.09332 -3.0131,0.0635 -5.86762,-1.3004 -5.86762,-3.52059 -0.0317,-2.8228 2.94967,-4.37693 4.63066,-4.47208 1.8713,-0.0635 2.09332,-0.44404 2.12504,-2.47392 v -3.74259 c 2.60078,-0.19031 5.04299,-0.22202 6.24823,-0.0635 2.4422,0.38059 2.94967,-0.12688 1.681,-1.23697 -1.11008,-0.98323 -1.71271,-1.1101 -3.61573,-0.82464 -2.47392,0.34889 -14.209181,1.83958 -15.699881,1.39554 -1.55413,-0.44403 -1.680997,0.0317 -0.792921,0.88808 z"
           style="font-weight:600;font-size:28.7853px;line-height:1em;font-family:'Noto Serif CJK TC';-inkscape-font-specification:'Noto Serif CJK TC Semi-Bold';fill:#6c5a57;fill-opacity:0.952941;stroke-width:0.660768"
           id="path40729-6" />
      </g>
      <g
         id="g16435"
         transform="matrix(1.1906237,0,0,1.1906237,255.80589,-283.07072)">
        <rect
           style="fill:none;fill-opacity:0.952941;stroke:none;stroke-width:1.655"
           id="rect20270-6-3-3"
           width="24"
           height="24"
           x="57.149998"
           y="285.75" />
        <path
           d="m 75.256399,287.76807 c 0,0.37232 -0.200482,0.97375 -0.687361,1.51791 -0.715996,0.80192 -3.236303,2.72079 -5.298385,3.9523 -1.775666,-1.80431 -4.926065,-3.92365 -5.26974,-4.32462 -0.715996,-0.77327 -0.830554,-0.94511 -2.147997,-0.40095 -1.403357,0.60143 -1.317432,1.03103 0.02866,1.43199 1.202874,0.37232 4.5251,2.34847 6.358056,4.32463 0.143204,2.49167 0.05731,9.05022 -0.229117,10.19581 -0.486878,1.97615 -0.257762,2.20528 0.286396,3.15039 0.916478,1.57519 1.804321,1.0024 1.747042,-3.29359 -0.02866,-2.26256 -0.315041,-6.50126 0.08597,-10.13853 2.634875,-1.51792 5.785264,-4.0096 6.644462,-4.35327 0.773285,-0.34368 1.088316,-0.80192 -0.08596,-1.94751 -1.202883,-1.17424 -1.460636,-0.91648 -1.432001,-0.11456 z"
           style="font-weight:600;font-size:28.7853px;line-height:1em;font-family:'Noto Serif CJK TC';-inkscape-font-specification:'Noto Serif CJK TC Semi-Bold';fill:#6c5a57;fill-opacity:0.952941;stroke-width:0.596664"
           id="path40727-0" />
      </g>
      <g
         id="g14847"
         transform="matrix(1.1906246,0,0,1.1906246,126.98022,-161.50817)">
        <rect
           style="fill:none;fill-opacity:0.952941;stroke:none;stroke-width:1.655"
           id="rect20270-6-8-9"
           width="24"
           height="24"
           x="133.35001"
           y="247.64999" />
        <path
           d="m 152.42137,255.29681 c 0.23662,3.14373 0.37183,7.03111 0.37183,10.10723 -3.95499,0.13521 -9.53255,0.54084 -13.72416,1.01411 0.81128,-2.80569 1.79157,-7.23394 2.53524,-13.01432 0.10146,-1.0141 0,-1.48735 -0.23662,-1.82538 -0.60845,-0.70987 -1.31832,-1.21691 -1.96059,-1.52115 -0.9127,-0.43944 -1.79158,0.13522 -1.14931,0.9465 1.25073,1.65636 0.81128,4.49584 0.30422,8.01139 -0.64225,4.36065 -1.41973,6.59166 -2.0958,7.33533 -0.33804,0.40566 -0.84509,0.7775 -0.84509,1.25073 0.0338,0.57466 0.54085,1.55495 0.9127,1.85918 0.47323,0.33804 1.0817,-0.20282 1.85919,-0.47324 3.00849,-1.04791 9.19451,-1.58875 14.36642,-1.82538 -0.0676,2.16341 0.37184,2.73806 1.14932,2.73806 0.87889,0 1.11551,-1.55494 1.14932,-2.50143 0.1352,-3.04231 -0.43945,-14.16362 -0.20282,-15.41435 0.20282,-1.0141 -0.10146,-1.45355 -1.08172,-1.9606 -0.47324,-0.27041 -1.55495,-0.57467 -2.02819,-0.60846 -1.45356,-0.13521 -1.48734,0.67607 -0.50705,1.31835 1.04789,0.70986 0.98029,1.85918 1.18311,4.56343 z"
           style="font-weight:600;font-size:28.7853px;line-height:1em;font-family:'Noto Serif CJK TC';-inkscape-font-specification:'Noto Serif CJK TC Semi-Bold';fill:#6c5a57;fill-opacity:0.952941;stroke-width:0.704234"
           id="path40725-2" />
      </g>
      <g
         id="g14843"
         transform="matrix(1.1906241,0,0,1.1906241,172.34308,-199.60805)">
        <rect
           style="fill:none;fill-opacity:0.952941;stroke:none;stroke-width:1.655"
           id="rect20270-6-1-5"
           width="24"
           height="24"
           x="95.25"
           y="247.64999" />
        <path
           d="m 102.55035,252.25767 c -1.33407,-0.81347 -1.91977,0.0651 -0.71584,1.10631 1.95232,1.62694 4.23004,4.1975 6.31251,6.83314 -2.37531,3.09119 -5.49905,6.31252 -8.948147,8.72038 -1.399169,0.94364 -1.561867,1.78964 0.488081,0.9111 3.969726,-1.72456 7.223596,-4.81574 9.761626,-7.90693 1.82217,2.44041 3.31895,4.75067 4.06735,6.24745 0.78092,1.49677 0.94361,2.14755 1.8547,2.14755 0.61824,0 1.04124,-0.5857 0.97617,-1.95232 -0.1627,-1.39917 -2.63565,-4.81573 -5.56414,-8.16723 2.86342,-3.87211 4.45782,-7.28868 4.71813,-7.51645 0.94363,-0.74839 0.91108,-1.52932 -0.5857,-2.70071 -1.98487,-1.56188 -2.57056,-1.20395 -2.08248,0.48807 0.39047,1.30155 -0.97616,4.49035 -3.48165,8.10216 -2.50549,-2.73327 -5.10858,-5.20621 -6.80061,-6.31252 z"
           style="font-weight:600;font-size:28.7853px;line-height:1em;font-family:'Noto Serif CJK TC';-inkscape-font-specification:'Noto Serif CJK TC Semi-Bold';fill:#6c5a57;fill-opacity:0.952941;stroke-width:0.677889"
           id="path40723-3" />
      </g>
      <g
         id="g14839"
         transform="matrix(1.1906241,0,0,1.1906241,217.70586,-237.70805)">
        <rect
           style="fill:none;fill-opacity:0.952941;stroke:none;stroke-width:1.655"
           id="rect20270-6-0"
           width="24"
           height="24"
           x="57.149998"
           y="247.64999" />
        <path
           d="m 58.998113,260.2359 c 1.269573,1.26958 1.579234,1.36247 3.34426,0.89799 2.260478,-0.52641 12.324231,-1.54826 15.173051,-1.20765 2.384327,0.34062 2.848809,-0.031 1.703096,-1.17668 -1.052824,-0.95993 -1.331515,-0.9909 -3.591993,-0.61931 -1.548265,0.24772 -4.025504,0.46448 -7.060114,0.80509 -3.591981,0.40255 -7.586514,0.77415 -8.763208,0.43352 -1.517305,-0.46448 -1.641166,0 -0.805092,0.86704 z"
           style="font-weight:600;font-size:28.7853px;line-height:1em;font-family:'Noto Serif CJK TC';-inkscape-font-specification:'Noto Serif CJK TC Semi-Bold';fill:#6c5a57;fill-opacity:0.952941;stroke-width:0.645111"
           id="path40721-6" />
      </g>
      <g
         id="g11552"
         transform="matrix(1.1906237,0,0,1.1906237,88.880326,-116.14517)">
        <rect
           style="fill:none;fill-opacity:0.952941;stroke:none;stroke-width:1.655"
           id="rect20270-6-3-8-5-6-44"
           width="24"
           height="24"
           x="133.35001"
           y="209.55" />
        <path
           d="m 148.53538,223.09085 c 0.66152,0.75603 1.82706,2.29959 2.7721,3.74864 -2.6146,0.34651 -9.32435,1.13404 -12.06495,1.38604 2.86662,-3.37062 6.30023,-9.76535 7.27678,-11.78142 0.78751,-1.63805 1.03952,-2.17357 0.63001,-2.96111 -0.44102,-0.75602 -1.00804,-1.44905 -1.66956,-1.79557 -1.13404,-0.59852 -1.44905,-0.25201 -1.16554,1.76407 0.50402,3.43363 -5.16618,12.91547 -7.74928,14.86854 -0.81904,0.59852 -1.10254,0.78752 -1.07104,1.76407 0.0315,1.73256 0.44103,1.51205 2.33108,0.69302 1.89006,-0.75603 9.10384,-1.66957 14.52204,-2.04757 l 0.189,0.53552 c 0.75603,2.4886 1.66957,3.27611 2.52009,1.29153 0.72453,-1.82705 -1.13404,-4.94567 -5.6072,-7.81227 -1.32305,-0.88203 -1.60656,-0.44102 -0.91353,0.34651 z"
           style="font-weight:600;font-size:28.7853px;line-height:1em;font-family:'Noto Serif CJK TC';-inkscape-font-specification:'Noto Serif CJK TC Semi-Bold';fill:#6c5a57;fill-opacity:0.952941;stroke-width:0.656272"
           id="path40719-0" />
      </g>
      <g
         id="g11548"
         transform="matrix(1.1895218,0,0,1.1895218,134.37453,-154.01425)">
        <rect
           style="fill:none;fill-opacity:0.952941;stroke:none;stroke-width:1.655"
           id="rect20270-6-3-8-5-6-4"
           width="24"
           height="24"
           x="95.25"
           y="209.5611" />
        <path
           d="m 97.088067,218.65474 c 1.134891,1.16401 1.454992,1.45501 3.113693,0.9894 0.9603,-0.23279 2.79359,-0.5238 4.94699,-0.75659 -0.6111,1.62959 -1.3386,3.05548 -1.89149,3.57929 -0.58201,0.6111 -0.69841,1.13489 -0.4074,1.60049 0.32009,0.58201 0.96029,0.26191 1.71689,0 1.164,-0.4074 5.06339,-0.55289 6.80939,-0.29099 0.84389,0.14549 0.6984,0.69839 0.46559,1.13489 -0.96029,1.746 -3.81209,5.1798 -5.70359,5.99459 -1.80418,0.7566 -0.87298,1.5423 0.55291,1.28041 3.81209,-0.6693 6.83848,-6.80939 7.74058,-7.1586 0.9312,-0.37829 0.6984,-0.7857 -0.2328,-2.0079 -0.5529,-0.66929 -1.07669,-0.69839 -2.6772,-0.81479 -2.12429,-0.14551 -4.88878,-0.1164 -5.99459,-0.0292 0.34921,-0.69839 0.84391,-2.03699 1.36771,-3.4629 3.31739,-0.32008 6.92578,-0.52379 8.84637,-0.34919 2.24071,0.2037 2.70631,-0.0291 1.6005,-1.1058 -0.96029,-0.93119 -1.36769,-1.0767 -3.49199,-0.7566 -1.22219,0.2037 -3.87029,0.4947 -6.43108,0.7857 0.49469,-1.3968 0.9894,-2.70629 1.30949,-3.34649 0.49471,-1.0185 0.3201,-1.51319 -0.98939,-2.44439 -1.4259,-1.01851 -2.09521,-0.8148 -1.28041,0.98939 0.32011,0.6984 -0.11639,2.85179 -0.8148,5.00519 l -0.29099,0.0291 c -3.14279,0.3201 -6.460185,0.64019 -7.507792,0.3201 -1.454993,-0.4365 -1.571392,-0.0291 -0.756591,0.81479 z"
           style="font-weight:600;font-size:28.7853px;line-height:1em;font-family:'Noto Serif CJK TC';-inkscape-font-specification:'Noto Serif CJK TC Semi-Bold';fill:#6c5a57;fill-opacity:0.952941;stroke-width:0.606247"
           id="path40717-1" />
      </g>
      <g
         id="g11544"
         transform="matrix(1.1906234,0,0,1.1906234,179.60592,-192.34509)">
        <rect
           style="fill:none;fill-opacity:0.952941;stroke:none;stroke-width:1.655"
           id="rect20270-6-3-8-5-6"
           width="24"
           height="24"
           x="57.149998"
           y="209.55" />
        <path
           d="m 61.08505,213.24327 c 1.283671,1.22107 1.628075,1.22107 3.099611,0.75144 0.594875,-0.18786 1.408918,-0.37573 2.285579,-0.56358 0.375707,2.53606 0.03132,13.40036 0.03132,15.02845 -0.03132,1.72201 0.344404,3.7571 0.78274,3.7571 0.375707,0 1.001896,-1.53415 1.033199,-4.47722 0.06265,-2.78653 0.344405,-12.33584 0.532258,-14.68403 1.753322,-0.25047 3.506633,-0.40703 4.508529,-0.40703 1.847259,0.0313 1.878562,0.62619 1.784642,1.3776 -0.187865,1.37762 -0.720127,3.41271 -1.189766,4.53985 -0.594876,1.40892 -1.221054,2.3795 -2.003783,2.06641 C 71.32319,220.38179 70.697,220.1 70.509147,220.03739 c -0.814044,-0.25047 -0.907964,-0.0627 -0.438325,0.53226 0.250472,0.28178 1.753311,1.78462 2.06641,2.12903 0.751415,0.97058 1.189751,0.81403 1.722008,0.0313 0.751425,-1.12714 1.659394,-2.97439 2.316887,-4.79032 0.626189,-1.78464 0.939279,-3.44403 1.3463,-3.85105 0.720111,-0.6888 0.532258,-1.12713 0,-1.59677 -0.407021,-0.43832 -1.283682,-1.06452 -1.628085,-1.31499 -0.500943,-0.31308 -0.970587,-0.37571 -2.035102,-0.18785 -1.001897,0.18785 -2.755218,0.40702 -5.541741,0.68881 -3.068307,0.31308 -5.22864,0.72011 -6.700175,0.31308 -1.471537,-0.3444 -1.784637,0.0627 -0.532258,1.25238 z"
           style="font-weight:600;font-size:28.7853px;line-height:1em;font-family:'Noto Serif CJK TC';-inkscape-font-specification:'Noto Serif CJK TC Semi-Bold';fill:#6c5a57;fill-opacity:0.952941;stroke-width:0.652274"
           id="path40715-6" />
      </g>
      <g
         id="g11540"
         transform="matrix(1.190623,0,0,1.190623,5.4177232,-32.153111)"
         style="display:inline">
        <rect
           style="fill:none;fill-opacity:0.952941;stroke:none;stroke-width:1.655"
           id="rect20270-6-3-8-5-8-6"
           width="24"
           height="24"
           x="171.45001"
           y="171.45001" />
        <path
           d="m 181.10051,179.89217 c 1.20839,1.10176 2.52339,2.77217 3.19866,4.58474 0.67527,1.84811 1.38608,2.2746 1.91919,0.74636 0.85298,-2.31015 -1.63486,-4.72691 -3.5896,-5.86421 -2.34568,-1.315 -2.84325,-0.81743 -1.52825,0.53311 z m -5.57987,-6.96595 c 0.88851,0.74635 0.92406,4.51365 0.92406,6.71717 0.0356,5.01122 0.17769,8.24542 -0.14217,10.12908 -0.35541,2.02581 -0.67527,2.09689 -0.14216,3.34082 0.71081,1.52823 0.81744,1.56378 2.20352,0.56864 1.06621,-0.81743 7.92555,-0.81743 9.91583,-0.7819 0,0.35542 0.0356,0.63974 0.17771,0.92406 1.03067,2.16797 2.02581,1.84812 2.13242,-0.0356 0.17771,-3.09203 0.17771,-8.42313 0.21326,-10.44894 0.0711,-2.34568 0.0711,-8.24542 0.67527,-8.99178 0.60419,-0.74635 0.53311,-0.92405 0.14216,-1.38608 -0.53311,-0.53311 -1.06622,-0.92406 -1.59933,-1.24392 -0.67527,-0.39095 -0.85298,-0.39095 -2.55892,0.24878 -0.63974,0.28433 -6.43286,0.24879 -9.16949,0.78189 -0.0711,-0.0711 -0.1777,-0.14216 -0.31986,-0.21324 -0.88852,-0.42649 -1.67041,-0.74635 -2.38122,-0.81743 -0.67527,-0.0711 -0.92406,0.39094 -0.0711,1.20838 z m 12.93679,18.23232 c -2.66555,-0.17769 -7.28583,0.21326 -9.02733,0.35542 -1.24391,0.10655 -1.17283,-0.0356 -1.17283,-1.84812 0.0356,-4.08717 0.14216,-11.65732 0.39094,-14.00301 l 0.10667,-1.03067 c 2.48785,-0.81743 6.89489,-0.95959 8.31651,-0.81743 1.84811,0.21324 1.84811,0.28432 1.9192,2.84324 0,1.5638 -0.0356,8.84962 -0.28434,12.36814 -0.0711,0.85297 -0.14216,1.52824 -0.24877,2.13243 z"
           style="font-weight:600;font-size:28.7853px;line-height:1em;font-family:'Noto Serif CJK TC';-inkscape-font-specification:'Noto Serif CJK TC Semi-Bold';fill:#6c5a57;fill-opacity:0.952941;stroke-width:0.740427"
           id="path40713-3" />
      </g>
      <g
         id="g11536"
         transform="matrix(1.1906246,0,0,1.1906246,50.780215,-70.253418)">
        <rect
           style="fill:none;fill-opacity:0.952941;stroke:none;stroke-width:1.655"
           id="rect20270-6-3-8-5-0"
           width="24"
           height="24"
           x="133.35001"
           y="171.45" />
        <path
           d="m 140.33679,179.63616 c 0.76569,1.5952 -0.44666,9.66698 -4.27517,13.68692 -1.69092,1.85045 -0.0957,1.4357 0.73381,0.82952 4.08374,-2.99901 5.07276,-8.35892 5.55133,-11.86839 l 0.12761,-0.82951 c 2.00997,0.032 6.69989,-0.89331 8.51844,-0.7657 2.26519,0.19142 2.39281,-0.28714 1.59521,-1.46759 l -0.19143,-0.25525 c 0.70191,-1.18045 1.69093,-3.34994 2.36091,-3.76469 0.89332,-0.60617 0.92522,-0.82952 -0.51046,-2.00997 -1.37189,-1.11664 -1.91426,-1.02094 -3.0309,-0.86142 -1.65903,0.25524 -6.66799,0.95713 -9.02891,1.11666 -0.76569,0.032 -1.78663,0 -2.26519,-0.12762 -1.18047,-0.25523 -1.46761,0.19143 0.032,1.40378 1.11666,0.89332 1.4676,0.82952 2.64806,0.44666 1.40379,-0.41476 6.50846,-1.02093 8.32702,-1.08474 1.30805,-0.0637 1.75472,0.19142 1.37187,1.4995 -0.25524,0.89332 -0.92522,2.29711 -1.33998,3.03091 l -1.43569,0.25522 c -2.55234,0.44667 -4.75374,0.76571 -6.63608,0.95713 l -0.28714,0.032 c -0.032,-0.44665 -0.25524,-0.66998 -0.82951,-1.08474 -1.75474,-1.24426 -2.2652,-0.86141 -1.43569,0.86141 z"
           style="font-weight:600;font-size:28.7853px;line-height:1em;font-family:'Noto Serif CJK TC';-inkscape-font-specification:'Noto Serif CJK TC Semi-Bold';fill:#6c5a57;fill-opacity:0.952941;stroke-width:0.66467"
           id="path40711-0" />
      </g>
      <g
         id="g11532"
         transform="matrix(1.1906232,0,0,1.1906232,96.143186,-108.35319)">
        <rect
           style="fill:none;fill-opacity:0.952941;stroke:none;stroke-width:1.655"
           id="rect20270-6-3-8-5-8"
           width="24"
           height="24"
           x="95.25"
           y="171.45001" />
        <path
           d="m 110.10019,171.9307 c 0.0323,0.48473 0.097,0.77558 -0.22621,1.26032 -1.38959,1.68042 -4.2657,3.97485 -6.52781,4.8797 -1.87433,0.77558 -1.80968,1.71274 0.0323,1.19569 5.20286,-1.48654 8.1436,-4.91202 8.5314,-5.10591 0.87252,-0.3878 1.09874,-0.71096 0.614,-1.29264 -0.45243,-0.51706 -0.87254,-0.84021 -1.55117,-1.19569 -0.8079,-0.42011 -0.93716,-0.19389 -0.87253,0.25853 z m 2.45601,4.0718 c 0.12926,0.42011 -0.0323,0.84022 -0.32316,1.26032 -2.55296,3.29622 -6.81865,6.88329 -11.60141,9.24234 -1.745057,0.87254 -1.454212,1.93896 0.22621,1.42191 2.8115,-1.03411 5.29981,-2.58528 7.33572,-4.13644 0.0323,1.93896 0.0647,5.52601 -0.29085,7.07718 -0.42011,1.71274 -0.614,1.90664 -0.097,3.0377 0.71095,1.74505 1.6158,2.26211 1.90664,0.2262 0.32316,-2.77916 0.12926,-5.04127 0.12926,-7.10949 0.0323,-2.48832 0.38779,-3.71633 -0.0323,-4.23339 l -0.16157,-0.16157 c 2.55294,-2.16517 4.16874,-4.10412 4.55653,-4.2657 0.77559,-0.38779 1.09874,-0.614 0.614,-1.29264 -0.38778,-0.54937 -0.87252,-0.96947 -1.35726,-1.29263 -0.54937,-0.35548 -1.13105,-0.45242 -0.90485,0.22621 z"
           style="font-weight:600;font-size:28.7853px;line-height:1em;font-family:'Noto Serif CJK TC';-inkscape-font-specification:'Noto Serif CJK TC Semi-Bold';fill:#6c5a57;fill-opacity:0.952941;stroke-width:0.673246"
           id="path40709-5" />
      </g>
      <g
         id="g11528"
         transform="matrix(1.190624,0,0,1.190624,141.50587,-146.98248)">
        <rect
           style="fill:none;fill-opacity:0.952941;stroke:none;stroke-width:1.655"
           id="rect20270-6-3-8-5"
           width="24"
           height="24"
           x="57.149998"
           y="171.45" />
        <path
           d="m 58.562319,192.42785 c 1.254645,1.28601 1.568301,1.38011 3.356156,0.90962 2.289716,-0.50186 13.173693,-1.1919 16.027989,-0.69006 2.352447,0.4705 2.917028,-0.0314 1.662394,-1.19189 -1.097813,-0.97235 -1.536931,-1.22328 -3.826648,-0.87825 -1.223263,0.18819 -3.387516,0.37638 -5.394937,0.53322 l 0.188194,-5.36358 c 1.348737,-0.15682 2.666103,-0.21956 3.669813,-0.25092 -0.03138,0.53321 0.03138,0.94097 0.219565,1.3801 0.250924,0.59595 0.846877,0.40775 1.348737,-1.09781 0.501849,-1.6624 0.470489,-4.29714 0.972339,-6.21045 0.313666,-1.19191 0.53322,-1.47421 0,-2.00742 -0.407758,-0.40776 -0.878248,-0.75279 -1.756484,-1.22328 -0.658684,-0.34501 -1.254646,-0.21956 -0.501861,1.03508 0.815517,1.31737 0.345027,4.39123 0,6.24182 l -0.09404,0.53322 -3.826646,0.31366 c 0.156834,-3.66981 0.313656,-7.12007 0.53322,-7.84148 0.439119,-1.53694 0.188194,-1.91332 -0.282295,-2.28971 -0.595952,-0.50186 -1.254635,-0.84688 -2.132883,-1.0037 -0.846876,-0.15684 -1.00371,0.50184 -0.125462,1.44282 0.658683,0.59595 0.564592,5.04991 0.345027,9.8489 -1.662393,0.15683 -3.230695,0.34503 -4.046211,0.50186 0.03138,-1.72513 0.282296,-5.8027 0.188205,-6.64957 -0.09415,-0.90962 -0.47049,-1.25465 -1.881958,-1.66241 -0.784145,-0.18819 -1.223275,0.25093 -0.250925,1.22327 0.752774,0.75279 0.690043,5.58314 0.282285,7.02597 -0.282285,0.69005 -0.784145,0.81552 -0.627313,1.47421 0.219565,1.1919 0.439119,1.0978 1.631022,0.50184 0.90962,-0.47049 2.697474,-0.84687 4.642164,-1.0978 l -0.219565,5.33221 h -0.09415 c -3.199323,0.25093 -8.029669,0.65869 -9.190212,0.28228 -1.536931,-0.47048 -1.662393,0 -0.815517,0.87825 z"
           style="font-weight:600;font-size:28.7853px;line-height:1em;font-family:'Noto Serif CJK TC';-inkscape-font-specification:'Noto Serif CJK TC Semi-Bold';fill:#6c5a57;fill-opacity:0.952941;stroke-width:0.653455"
           id="path40707-4" />
      </g>
      <g
         id="g29453"
         transform="matrix(1.1906247,0,0,1.1906247,12.680199,-70.782602)">
        <rect
           style="fill:none;fill-opacity:0.952941;stroke:none;stroke-width:1.655"
           id="rect20270-6-3-8-5-6-44-7-6"
           width="24"
           height="24"
           x="133.35001"
           y="171.45" />
        <path
           d="m 135.56759,175.78617 c 1.19448,1.22433 1.52296,1.34378 3.22508,0.86599 0.92573,-0.20903 3.25494,-0.50764 5.7932,-0.7764 0.32848,4.21052 0.2389,11.01901 -0.17916,13.31838 -0.29862,1.28406 -0.2389,2.47853 0.41806,3.55356 0.65696,0.98544 1.22434,0.89585 1.49309,-1.55281 0.29862,-2.65771 0.0299,-10.1829 0.38821,-15.4983 2.77715,-0.2389 5.46471,-0.32848 6.71891,-0.17918 2.2695,0.32849 2.74729,-0.0299 1.61254,-1.13475 -0.98544,-0.95558 -1.25421,-0.95558 -3.43411,-0.59724 -1.4931,0.23891 -3.88204,0.41807 -6.8085,0.74655 -3.46397,0.38821 -7.31615,0.77641 -8.4509,0.41807 -1.46324,-0.44793 -1.58268,-0.0299 -0.77642,0.83613 z"
           style="font-weight:600;font-size:28.7853px;line-height:1em;font-family:'Noto Serif CJK TC';-inkscape-font-specification:'Noto Serif CJK TC Semi-Bold';fill:#6c5a57;fill-opacity:0.952941;stroke-width:0.62212"
           id="path40705-7" />
      </g>
      <g
         id="g29449"
         transform="matrix(1.1906234,0,0,1.1906234,58.043117,-108.88238)">
        <rect
           style="fill:none;fill-opacity:0.952941;stroke:none;stroke-width:1.655"
           id="rect20270-6-3-8-5-6-4-6-4"
           width="24"
           height="24"
           x="95.250038"
           y="171.45" />
        <path
           d="m 108.20566,172.88674 c 0.47387,1.4216 -3.96014,8.05568 -6.60023,10.45884 -1.21851,1.11697 -1.25236,1.76007 -0.0677,2.16624 3.45243,1.2185 7.37872,4.94171 9.61265,8.22491 1.38774,2.03085 2.30162,2.16623 2.57241,0.88004 0.30462,-1.38775 0,-2.33548 -1.4216,-3.79092 -2.13238,-2.13238 -6.43099,-4.97556 -9.0711,-6.4987 2.50472,-2.20007 6.19407,-7.71719 7.2095,-9.20648 0.74464,-1.15081 0.81234,-1.52313 0.37232,-2.03083 -0.54155,-0.60926 -1.25236,-1.15082 -1.82776,-1.4216 -0.84619,-0.40616 -1.2862,-0.37232 -0.77849,1.2185 z"
           style="font-weight:600;font-size:28.7853px;line-height:1em;font-family:'Noto Serif CJK TC';-inkscape-font-specification:'Noto Serif CJK TC Semi-Bold';fill:#6c5a57;fill-opacity:0.952941;stroke-width:0.705151"
           id="path40703-0" />
      </g>
      <g
         id="g29445"
         transform="matrix(1.1906251,0,0,1.1906251,103.40578,-146.98267)">
        <rect
           style="fill:none;fill-opacity:0.952941;stroke:none;stroke-width:1.655"
           id="rect20270-6-3-8-5-6-2-6"
           width="24"
           height="24"
           x="57.149998"
           y="171.45" />
        <path
           d="m 72.143976,172.7445 c 0.656863,0.62401 0.95245,1.05097 0.919602,3.6127 l -0.06572,6.99555 c -2.758795,0.624 -7.356806,1.44509 -7.356806,1.44509 0.361274,-1.01813 1.412246,-5.91173 1.543617,-6.69996 0.328436,-1.67499 -0.09846,-2.299 -1.740672,-3.25143 -1.248026,-0.68971 -1.674986,-0.0329 -1.050971,0.75538 0.295588,0.36127 0.722545,0.98528 0.689698,1.83919 0,2.0691 -0.656851,6.60142 -1.313713,7.22545 -0.755383,0.68969 -1.018124,0.88675 -0.919602,1.64214 0.229904,1.64214 0.295588,1.41224 2.003423,0.72253 1.970574,-0.85389 5.123479,-1.6093 8.112189,-2.26616 -0.03286,1.54363 -0.06572,2.85734 -0.164218,3.57989 -0.426957,3.02154 -0.558328,4.56515 0.06572,6.07592 0.722549,1.77351 1.609302,1.51077 1.839205,-2.82448 0.197055,-3.6784 0.09846,-7.09405 0.06572,-9.52443 0,-1.93774 0.197054,-6.50291 0.492644,-7.61956 0.262741,-1.18235 0.459795,-1.57645 -0.624014,-2.10195 -0.591177,-0.29557 -1.280876,-0.59116 -2.134793,-0.82106 -1.149494,-0.29559 -1.313711,0.26274 -0.361273,1.21519 z"
           style="font-weight:600;font-size:28.7853px;line-height:1em;font-family:'Noto Serif CJK TC';-inkscape-font-specification:'Noto Serif CJK TC Semi-Bold';fill:#6c5a57;fill-opacity:0.952941;stroke-width:0.684225"
           id="path40701-3" />
      </g>
      <g
         id="g8321"
         transform="matrix(1.1906223,0,0,1.1906223,-25.419488,-25.419492)">
        <rect
           style="fill:none;fill-opacity:0.952941;stroke:none;stroke-width:1.655"
           id="rect20270-6-3-8-3"
           width="24"
           height="24"
           x="133.35004"
           y="133.35001" />
        <path
           d="m 139.81561,137.41392 c 0.34988,0.46649 0.58312,1.04962 0.64143,2.15756 0.0875,2.21588 -0.23324,4.89825 -0.61228,6.96835 -0.67059,3.58622 -1.95347,6.03534 -3.96525,7.43484 -0.96215,0.75807 -0.84553,1.63275 0.49566,1.02047 3.17803,-1.37035 4.63584,-4.49006 5.33559,-8.16375 0.46651,-2.53659 0.75807,-5.3356 0.84554,-7.81388 l -0.0291,-0.4665 c 3.84862,-0.64144 8.95097,-1.04963 10.84613,-0.84553 1.89515,0.23325 2.53659,-0.34987 1.74937,-1.10794 -0.17494,-0.17494 -0.61228,-0.49566 -1.37034,-0.81637 -0.90384,-0.43735 -1.34119,-0.34987 -3.55707,0.14578 -1.45781,0.32072 -5.07319,0.81637 -8.45531,1.16625 -0.26241,-0.23325 -0.61229,-0.40819 -1.02048,-0.52482 -0.93299,-0.2624 -1.48696,0 -0.90383,0.84554 z"
           style="font-weight:600;font-size:28.7853px;line-height:1em;font-family:'Noto Serif CJK TC';-inkscape-font-specification:'Noto Serif CJK TC Semi-Bold';fill:#6c5a57;fill-opacity:0.952941;stroke-width:0.607421"
           id="path40699-1" />
      </g>
      <g
         id="g8317"
         transform="matrix(1.1906247,0,0,1.1906247,19.943006,-63.519812)">
        <rect
           style="fill:none;fill-opacity:0.952941;stroke:none;stroke-width:1.655"
           id="rect20270-6-3-8-59"
           width="24"
           height="24"
           x="95.25"
           y="133.35001" />
        <path
           d="m 97.112979,137.21107 c 1.274407,1.33814 1.624872,1.46558 3.409051,0.98767 0.98766,-0.25488 3.05859,-0.57349 5.44811,-0.82837 -0.50977,1.72046 -1.91162,3.95068 -2.77185,4.4923 -1.01952,0.60534 -1.21068,0.6372 -1.1151,1.30627 0,0.89208 0.1593,1.1151 0.86022,0.89208 1.8479,-0.60534 6.0853,-0.95581 8.02878,-0.66907 0.73279,0.15931 0.98767,0.60535 0.82837,1.59303 -0.19117,1.24253 -0.76465,3.82321 -2.13464,6.53133 -0.60534,1.17883 -0.92394,1.33814 -1.49743,0.89209 -0.76465,-0.50975 -1.52929,-1.08325 -2.4851,-1.72045 -0.82836,-0.57348 -1.40186,-0.50977 -0.70092,0.66907 0.70092,1.21068 2.38952,3.37718 2.70811,3.88694 0.44605,0.76465 0.86024,0.89209 1.8479,-0.0955 3.05859,-3.02673 4.10997,-9.68551 4.55602,-10.29085 0.50976,-0.70093 0.57348,-0.95581 0.25488,-1.43372 -0.38232,-0.4779 -0.73279,-0.89208 -1.01953,-1.17883 -0.44604,-0.4779 -0.76465,-0.50975 -1.75231,-0.50975 -1.91162,-0.0319 -5.79857,0.15929 -6.21274,0.15929 0.7965,-1.01953 2.32578,-3.2816 2.96299,-4.74718 2.89928,-0.25488 5.76671,-0.38232 7.23227,-0.19116 2.42138,0.3186 2.963,0 1.6886,-1.17882 -1.08325,-1.01953 -1.56116,-1.11511 -3.88694,-0.70093 -3.02674,0.54163 -13.445036,1.8479 -15.420372,1.24256 -1.561151,-0.44605 -1.688591,-0.0319 -0.828369,0.89207 z"
           style="font-weight:600;font-size:28.7853px;line-height:1em;font-family:'Noto Serif CJK TC';-inkscape-font-specification:'Noto Serif CJK TC Semi-Bold';fill:#6c5a57;fill-opacity:0.952941;stroke-width:0.663753"
           id="path40697-6" />
      </g>
      <g
         id="g8313"
         transform="matrix(1.1906245,0,0,1.1906245,65.305827,-101.61975)">
        <rect
           style="fill:none;fill-opacity:0.952941;stroke:none;stroke-width:1.655"
           id="rect20270-6-3-8"
           width="24"
           height="24"
           x="57.149998"
           y="133.35001" />
        <path
           d="m 65.391438,135.83791 c 0.822046,1.51255 -1.545421,6.05019 -3.584078,8.5492 -1.216621,1.44678 -1.282383,1.54543 -0.0329,2.79493 1.74272,1.74271 3.32104,4.34036 4.340362,6.90511 0.986447,2.40036 1.348145,2.46612 2.170181,0.7234 0.887797,-1.94002 -2.367468,-5.78716 -5.556971,-9.10818 2.268818,-2.72917 3.945776,-5.55698 5.030872,-7.59564 0.493224,-0.92067 0.526099,-1.28237 -0.0329,-1.80849 -0.361698,-0.39457 -1.052208,-0.95355 -1.64407,-1.28237 -0.953572,-0.59187 -1.150859,-0.1973 -0.690522,0.82204 z m 7.891575,0.0658 c 0.887798,1.28239 -1.413907,5.95156 -3.123752,8.35191 -1.117971,1.57831 -1.282372,1.61119 0.131525,2.69629 1.611195,1.28239 3.912912,4.37324 4.833586,7.03664 0.854921,2.23594 1.282382,2.1373 2.104418,0.52611 0.920684,-1.84136 -1.282372,-4.24173 -6.017319,-8.84513 1.841368,-2.79493 3.682737,-6.44479 4.70206,-7.66139 0.558986,-0.62475 0.723397,-0.92069 0.0329,-1.6112 -0.328824,-0.39459 -1.085096,-1.05221 -1.644082,-1.38102 -1.282384,-0.65764 -1.709833,-0.32883 -1.019323,0.88779 z"
           style="font-weight:600;font-size:28.7853px;line-height:1em;font-family:'Noto Serif CJK TC';-inkscape-font-specification:'Noto Serif CJK TC Semi-Bold';fill:#6c5a57;fill-opacity:0.952941;stroke-width:0.68503"
           id="path40695-3" />
      </g>
      <g
         id="g8737"
         transform="matrix(1.1906232,0,0,1.1906232,-108.88236,58.043103)">
        <rect
           style="fill:none;fill-opacity:0.952941;stroke:none;stroke-width:1.655"
           id="rect20270-6-3-1-4"
           width="24"
           height="24"
           x="171.45001"
           y="95.250031" />
        <path
           d="m 187.28582,96.685063 c 0.332,1.02938 -0.73056,3.719067 -2.59012,7.006457 -2.19156,0.13282 -4.71524,0.36527 -6.27591,0.66411 1.16223,-1.1622 3.55301,-3.9847 4.08435,-4.781649 0.43166,-0.664112 0.53122,-0.896558 0.13277,-1.49427 -0.36522,-0.53129 -0.76366,-0.962969 -1.52744,-1.394648 -0.89656,-0.630913 -1.06256,-0.166034 -0.56445,1.129003 0.43167,1.129002 -2.52367,5.279744 -4.08434,6.176314 -1.22867,0.69732 -1.39467,1.129 -1.32834,1.66029 0.0992,0.86336 0.13289,1.39465 1.26189,0.92977 1.26178,-0.49809 4.41635,-0.96297 7.30536,-1.19541 l -1.5939,2.52365 c -2.19167,3.25418 -4.71535,5.94387 -7.13935,7.63737 -1.79312,1.26183 -1.66023,1.66031 -0.49811,1.26183 3.221,-1.19542 6.80724,-4.64884 9.36413,-8.20188 0.79689,-1.129 1.52745,-2.258 2.15834,-3.3206 0.963,-0.0332 1.82634,0 2.45734,0.0665 1.92589,0.26566 2.05867,1.16221 1.89267,2.12518 -0.53122,2.62328 -1.85956,5.87746 -3.71901,8.10227 -0.76378,0.96297 -1.22867,1.06259 -2.22489,0.46488 -0.63089,-0.39847 -1.66023,-1.19542 -2.15834,-1.49427 -0.63089,-0.36527 -0.92978,-0.0997 -0.39845,0.63091 0.76367,1.0958 1.85957,2.42404 2.39079,3.18777 0.797,1.0626 0.797,1.09581 1.75989,0.4649 3.8519,-2.49046 6.0768,-9.3973 6.57479,-11.25683 0.36534,-1.29504 1.16223,-1.39465 0.43167,-2.09199 -0.59766,-0.5977 -1.22855,-1.06258 -1.82634,-1.36143 -0.79689,-0.43168 -1.19533,-0.46489 -2.45722,-0.53131 h -1.7599 c 1.4279,-2.59005 2.35768,-4.648827 2.65645,-5.080506 0.69734,-0.929769 0.73056,-1.328237 0.23245,-1.826327 -0.53122,-0.464879 -1.32823,-0.962969 -1.79312,-1.195414 -1.16222,-0.531302 -1.19533,-0.199234 -0.76366,1.195414 z"
           style="font-weight:600;font-size:28.7853px;line-height:1em;font-family:'Noto Serif CJK TC';-inkscape-font-specification:'Noto Serif CJK TC Semi-Bold';fill:#6c5a57;fill-opacity:0.952941;stroke-width:0.691789"
           id="path40693-9" />
      </g>
      <g
         id="g10279"
         transform="matrix(1.1906247,0,0,1.1906247,-63.51981,19.942987)">
        <rect
           style="fill:none;fill-opacity:0.952941;stroke:none;stroke-width:1.655"
           id="rect20270-6-3-10"
           width="24"
           height="24"
           x="133.35001"
           y="95.250008" />
        <path
           d="m 136.95961,97.842255 c 1.13206,1.096673 1.59195,0.990538 2.97165,0.636774 1.62733,-0.389146 5.51878,-0.955168 7.78288,-1.02592 1.02593,-0.03539 1.13205,0.106184 0.81367,0.636774 -1.16744,1.804214 -3.85607,4.598977 -4.84662,5.023487 -1.27356,0.53066 -1.48582,0.67217 -1.45045,1.52121 0.0354,1.23819 0.49529,1.13205 1.48584,0.81366 1.87496,-0.6014 5.58951,-0.88442 7.1107,-0.56602 0.67213,0.1415 0.84911,0.56602 0.67213,1.30894 -0.74292,3.11315 -2.75934,6.75696 -4.28054,8.73805 -0.95517,1.27357 -1.16743,1.16743 -2.37024,0.49528 -0.67217,-0.35377 -1.87498,-1.09669 -2.51175,-1.41507 -0.84905,-0.4599 -1.23819,-0.14151 -0.38915,0.88442 0.84905,0.88441 2.51176,2.54712 3.11316,3.32541 0.95517,1.34432 1.09667,1.37969 2.37024,0.0708 4.20986,-4.45747 5.94323,-10.75453 6.5093,-11.39131 0.63673,-0.70753 1.06135,-0.81367 0.53067,-1.62733 -0.45988,-0.70754 -1.48584,-1.41507 -2.12258,-1.8396 -0.45989,-0.28301 -0.84911,-0.45989 -1.59203,-0.24762 -0.88436,0.17687 -3.11311,0 -4.70505,0.24762 1.48582,-1.59195 4.63439,-4.563587 5.55416,-5.129622 1.06123,-0.566022 1.69809,-0.74291 1.09662,-1.308932 -0.63673,-0.601404 -1.06123,-1.096686 -1.69809,-1.521202 -0.63673,-0.424516 -1.02588,-0.176888 -2.33481,0.212258 -1.59196,0.389146 -9.55172,1.238192 -10.78991,0.955168 -2.29949,-0.530639 -2.37024,-0.212258 -0.9198,1.202822 z"
           style="font-weight:600;font-size:28.7853px;line-height:1em;font-family:'Noto Serif CJK TC';-inkscape-font-specification:'Noto Serif CJK TC Semi-Bold';fill:#6c5a57;fill-opacity:0.952941;stroke-width:0.737013"
           id="path40691-5" />
      </g>
      <g
         id="g10283"
         transform="matrix(1.1906246,0,0,1.1906246,-18.156992,-18.156994)">
        <rect
           style="fill:none;fill-opacity:0.952941;stroke:none;stroke-width:1.655"
           id="rect20270-6-3-1"
           width="24"
           height="24"
           x="95.250008"
           y="95.25" />
        <path
           d="m 107.39087,97.975175 c -0.90289,-0.536088 -1.26969,-0.22572 -1.07219,0.987537 0.28216,1.523628 -0.0846,3.639768 -0.76182,5.812348 -2.70865,0.28213 -6.150899,0.64894 -7.110216,0.39499 -1.382548,-0.39499 -1.495416,0.0282 -0.705388,0.81825 1.185046,1.1004 1.467195,1.18504 3.047254,0.70538 0.70538,-0.19749 2.37006,-0.42322 4.31693,-0.62073 -1.21326,3.24475 -2.99083,6.32021 -4.31693,7.39239 -0.76182,0.59252 -1.156829,0.59252 -1.156829,1.60826 -0.05646,1.6647 0.536089,1.15682 2.172569,0.56431 1.55184,-0.56431 6.06628,-1.32612 10.46785,-1.63649 l 0.0282,0.0846 c 1.07217,2.93439 1.72112,3.32939 2.31364,1.86221 0.47967,-1.24147 0.19751,-2.11615 -0.90288,-3.49869 -1.10039,-1.41077 -2.00328,-2.37008 -3.18833,-3.41404 -0.9311,-0.87468 -1.35432,-0.36679 -0.9311,0.25393 0.50788,0.70539 1.35433,1.94686 2.00329,3.18833 -2.11615,0.28215 -6.43306,0.76181 -8.66208,0.98753 1.52362,-1.94686 2.99082,-5.07873 4.09121,-7.5899 3.30118,-0.31036 6.8563,-0.50787 8.15421,-0.3668 2.0597,0.28216 2.65222,-0.11287 1.46718,-1.10037 -0.98753,-0.8747 -1.52361,-0.9029 -3.61154,-0.59254 -1.24148,0.22573 -3.41405,0.47966 -5.44554,0.70538 l 0.98754,-2.31364 c 0.64894,-1.41077 0.9311,-1.94685 0.39499,-2.70867 -0.50787,-0.677168 -1.15682,-1.297906 -1.58003,-1.523625 z"
           style="font-weight:600;font-size:28.7853px;line-height:1em;font-family:'Noto Serif CJK TC';-inkscape-font-specification:'Noto Serif CJK TC Semi-Bold';fill:#6c5a57;fill-opacity:0.952941;stroke-width:0.587815"
           id="path40689-7" />
      </g>
      <g
         id="g13367"
         transform="matrix(1.190625,0,0,1.190625,27.205786,-56.257032)">
        <rect
           style="fill:none;fill-opacity:0.952941;stroke:none;stroke-width:1.655"
           id="rect20270-6-3"
           width="24"
           height="24"
           x="57.149998"
           y="95.25" />
        <path
           d="m 67.604255,96.981553 c 0.125842,0.471872 0.220209,0.849364 0.03147,1.321236 -0.629166,1.352698 -3.303099,4.121011 -4.372672,4.750161 -1.038111,0.53479 -1.509982,0.62917 -1.384151,1.38416 0.220209,1.38415 0.34604,1.25833 1.856021,0.755 1.415614,-0.44041 3.806423,-0.78646 6.071401,-0.94374 -2.107684,4.27829 -5.253488,8.11617 -9.280121,10.44407 -1.887485,1.10103 -1.887485,2.20207 0.629166,1.19541 4.561418,-1.82457 8.713881,-6.29161 11.010311,-11.73386 1.195404,0 2.202062,0.063 2.831228,0.22021 1.321234,0.31458 1.509981,0.94374 1.226867,1.95039 -0.597702,2.39082 -2.013316,5.66246 -3.366014,7.51847 -1.163953,1.63583 -1.226868,1.82457 -2.264978,1.38415 -1.289783,-0.56623 -2.013316,-1.00665 -2.579565,-1.28977 -1.006659,-0.56624 -1.289773,-0.12582 -0.692071,0.66063 0.943743,1.25831 2.044768,2.39081 2.51664,3.08288 0.692081,1.06958 0.880826,1.22686 2.485187,-0.0944 3.366014,-2.70539 5.914117,-10.66428 6.385977,-11.19907 0.597713,-0.72354 0.503335,-1.03811 -0.03147,-1.82457 -0.408956,-0.56624 -0.943742,-1.06957 -1.447066,-1.41561 -0.849375,-0.53478 -1.698739,-0.69208 -2.579566,-0.66062 -2.296441,-0.0315 -4.875996,0.12584 -8.776796,0.53479 0,0 3.177267,-3.17727 3.932252,-3.712057 0.534798,-0.377493 0.912291,-0.849364 0.44042,-1.478529 -0.534788,-0.754986 -1.101037,-1.25832 -1.604361,-1.572897 -0.943742,-0.629166 -1.289783,-0.157294 -1.038121,0.723533 z"
           style="font-weight:600;font-size:28.7853px;line-height:1em;font-family:'Noto Serif CJK TC';-inkscape-font-specification:'Noto Serif CJK TC Semi-Bold';fill:#6c5a57;fill-opacity:0.952941;stroke-width:0.655374"
           id="path40687-3" />
      </g>
      <g
         id="g7189"
         style="font-size:28.7853px;line-height:1em;font-family:'Noto Serif CJK TC';-inkscape-font-specification:'Noto Serif CJK TC, Normal';stroke-width:0.599692"
         transform="matrix(1.1906249,0,0,1.1906249,-1102.6176,80.362526)">
        <rect
           style="fill:none;fill-opacity:0.952941;stroke:none;stroke-width:1.655"
           id="rect20270-6-1-4"
           width="24"
           height="24"
           x="171.45001"
           y="57.149998"
           transform="translate(802.63311,19.353923)" />
        <path
           d="m 977.20456,79.687279 c 0.66427,0.863407 0.69737,4.51627 0.63104,8.268763 -0.067,3.287573 -0.36535,7.006864 -0.83026,7.803856 -0.56449,1.029439 -0.63094,1.361515 -0.4317,2.092092 0.33213,1.129071 0.66414,1.129071 2.0589,0.531318 3.25441,-1.328311 10.75943,-1.295097 14.01373,-0.597733 3.15474,0.697367 3.5201,0.03323 2.62337,-1.162281 -0.99617,-1.328313 -1.99245,-1.328313 -3.65277,-1.2951 -2.98873,0 -8.20238,0.298862 -12.15417,0.664151 0.067,-3.984939 0.46491,-13.880888 0.66426,-14.611465 3.15475,-0.431704 9.23178,-1.029439 11.58948,-0.963024 2.32459,0.06645 2.82272,-0.498119 1.69366,-1.427941 -1.16229,-0.929823 -1.69366,-0.89661 -3.6529,-0.498119 -2.19168,0.431703 -7.60456,0.929821 -9.92914,1.228695 l -0.53137,-0.431703 c -1.3283,-0.89662 -3.12152,-0.89662 -2.09213,0.398491 z"
           style="font-weight:600;font-size:28.7853px;line-height:1em;font-family:'Noto Serif CJK TC';-inkscape-font-specification:'Noto Serif CJK TC Semi-Bold';fill:#6c5a57;fill-opacity:0.952941;stroke-width:0.691828"
           id="path40685-2" />
      </g>
      <g
         id="g5599"
         transform="matrix(1.1906247,0,0,1.1906247,-101.6198,65.3058)">
        <rect
           style="fill:none;fill-opacity:0.952941;stroke:none;stroke-width:1.655"
           id="rect20270-6-8"
           width="24"
           height="24"
           x="133.35001"
           y="57.149998" />
        <path
           d="m 136.75553,61.256202 c 1.16691,0.720746 1.02963,4.496084 0.961,6.521037 -0.0686,2.196564 -0.37755,5.285484 -0.6178,6.658333 -0.37754,1.921996 -0.44617,2.539773 0.51482,4.049918 0.44618,0.755064 1.37285,0.858036 1.7504,-3.466456 0.24024,-3.191877 0.37752,-11.497627 0.37752,-12.561594 0,-0.308893 -0.0343,-0.583461 -0.10301,-0.755072 3.36348,-0.549135 8.64896,-0.995312 10.26207,-0.892344 1.40716,0.103016 1.75039,0.686418 1.78471,1.853343 0.103,1.921996 -0.10302,4.873631 -0.1716,7.207479 -0.27458,7.035857 -1.16693,7.893886 -0.51483,8.923527 1.02964,1.544458 1.7847,0.892352 2.12792,-0.823703 0.44617,-1.990639 0.27457,-3.878308 0.51481,-9.060822 0.13731,-2.711385 0.41187,-6.349439 0.65212,-6.967227 0.37753,-0.995313 0.65211,-1.37285 -0.1373,-1.990638 -0.44616,-0.377524 -1.23556,-0.789387 -1.99063,-1.132597 -0.8237,-0.377536 -0.89235,-0.137283 -2.81435,0.34321 -1.09828,0.240252 -8.51167,0.858041 -11.60059,1.063965 -0.20592,-0.103015 -0.4805,-0.17161 -0.75507,-0.240252 -1.02963,-0.274566 -1.40717,0.205926 -0.24023,1.269893 z"
           style="font-weight:600;font-size:28.7853px;line-height:1em;font-family:'Noto Serif CJK TC';-inkscape-font-specification:'Noto Serif CJK TC Semi-Bold';fill:#6c5a57;fill-opacity:0.952941;stroke-width:0.715025"
           id="path40683-0" />
      </g>
      <g
         id="g4038"
         transform="matrix(1.1906251,0,0,1.1906251,-56.257042,27.205775)">
        <rect
           style="fill:none;fill-opacity:0.952941;stroke:none;stroke-width:1.655"
           id="rect20270-6-1"
           width="24"
           height="24"
           x="95.25"
           y="57.149998" />
        <path
           d="m 101.33019,68.652201 c 1.04398,0.505157 3.77183,2.559455 6.466,4.883179 -2.62682,2.761517 -6.23027,5.388337 -8.756037,6.297615 -1.85225,0.673546 -1.178703,1.448117 0.471474,1.010313 3.064613,-0.841923 6.499673,-3.030941 9.496933,-5.758786 l 0.26943,-0.23573 c 1.58281,1.448105 3.09827,2.929905 4.10859,4.142279 1.95328,2.391065 2.9299,2.727844 3.0983,1.347081 0.23574,-1.414435 0.16839,-1.683848 -2.52579,-4.14228 -0.80825,-0.7409 -2.02062,-1.751214 -3.33403,-2.761527 2.39108,-2.727846 3.90654,-5.624068 4.81583,-6.196579 0.94296,-0.606193 1.07766,-0.909278 0.4378,-1.481789 -0.70723,-0.673545 -1.14502,-1.212373 -1.71753,-1.582822 -0.57251,-0.33678 -0.70723,0.269414 -2.22269,0.269414 -2.32372,0.03368 -5.48937,0.202059 -8.04882,0.673544 0.60618,-0.639874 4.14227,-4.91686 4.84949,-5.354664 0.6062,-0.404122 0.50516,-0.774571 0.20206,-1.111338 -0.50515,-0.505158 -0.90928,-0.841924 -1.71752,-1.212374 -1.21238,-0.53884 -1.41444,-0.336779 -1.01032,0.740888 0.50516,1.178702 -2.99726,5.725104 -4.44537,6.668065 -0.97664,0.673544 -1.14503,1.010312 -0.84193,1.717529 0.33678,0.808253 0.50515,0.673547 1.98695,0.202061 1.58282,-0.471474 6.97115,-0.942949 8.75604,-0.77457 0.94295,0.101089 1.48179,0.336778 0.80826,1.51547 -0.37047,0.774571 -1.68386,2.660492 -3.46875,4.714791 -2.69417,-1.986946 -5.55672,-3.872867 -7.03851,-4.445378 -1.58282,-0.60618 -1.88592,0.303098 -0.63986,0.875608 z"
           style="font-weight:600;font-size:28.7853px;line-height:1em;font-family:'Noto Serif CJK TC';-inkscape-font-specification:'Noto Serif CJK TC Semi-Bold';fill:#6c5a57;fill-opacity:0.952941;stroke-width:0.701604"
           id="path40681-9" />
      </g>
      <g
         id="g45560"
         transform="matrix(1.1906251,0,0,1.1906251,-10.894224,-10.894224)">
        <rect
           style="fill:none;fill-opacity:0.952941;stroke:none;stroke-width:1.655"
           id="rect20270-6"
           width="24"
           height="24"
           x="57.149998"
           y="57.149998" />
        <path
           d="m 868.25963,77.997037 c 0.45333,1.262843 -3.3352,5.601816 -4.6304,6.24943 -0.93896,0.420948 -1.03614,0.744761 -1.00375,1.48951 0.0326,1.262832 0.25907,1.295217 1.10094,0.906655 2.94655,-1.262842 10.07029,-1.716165 12.85509,-1.586644 1.16562,0.0648 1.48948,0.712364 1.10093,1.910446 -0.38865,1.100937 -1.10093,2.817101 -1.94292,4.468505 -0.93895,1.813311 -2.10468,3.561851 -2.97895,4.662787 -0.6476,0.74476 -0.97146,0.874281 -1.71614,0.356187 -0.68,-0.518082 -1.52188,-1.165697 -2.13719,-1.554259 -0.90655,-0.582854 -1.16562,-0.356187 -0.58281,0.744749 0.38853,0.80951 1.52187,2.36378 1.94281,3.36757 0.42093,1.295217 0.87426,1.424737 1.87812,0.777135 2.20188,-1.457124 4.17709,-4.403746 5.69895,-7.350378 1.23042,-2.428529 2.13708,-5.407536 2.52563,-5.796098 0.61531,-0.615228 0.77718,-0.87428 0.29146,-1.586644 -0.48573,-0.647614 -1.13334,-1.133322 -1.68375,-1.521883 -0.74479,-0.550469 -1.3924,-0.582855 -2.88187,-0.485708 -1.84573,0.12952 -8.1275,0.809508 -9.84375,1.100936 1.06866,-1.068562 3.4,-3.399955 4.01521,-3.853278 1.00385,-0.809509 1.16572,-1.133322 0.77719,-1.651404 -0.45333,-0.582854 -1.16573,-1.198082 -1.78094,-1.521883 -1.00386,-0.550469 -1.3276,-0.323802 -1.00386,0.874269 z"
           style="font-weight:600;font-size:28.7853px;line-height:1em;font-family:'Noto Serif CJK TC';-inkscape-font-specification:'Noto Serif CJK TC Semi-Bold';fill:#6c5a57;fill-opacity:0.952941;stroke-width:0.674592"
           id="path40679-1"
           transform="translate(-802.63312,-19.353923)" />
      </g>
      <text
         xml:space="preserve"
         style="font-size:9.63651px;line-height:0px;font-family:'Noto Serif CJK TC';-inkscape-font-specification:'Noto Serif CJK TC';stroke-width:0.30114"
         x="56.764538"
         y="46.185032"
         id="text47341"><tspan
           id="tspan47339"
           style="font-size:9.63651px;stroke-width:0.30114"
           x="56.764538"
           y="46.185032"></tspan></text>
    </g>
  </g>
</svg>
