<?xml version="1.0" encoding="UTF-8" standalone="no"?>
<svg
   width="28.574997mm"
   height="28.574991mm"
   viewBox="0 0 28.574997 28.574991"
   version="1.1"
   id="svg8"
   xmlns="http://www.w3.org/2000/svg"
   xmlns:svg="http://www.w3.org/2000/svg"
   xmlns:rdf="http://www.w3.org/1999/02/22-rdf-syntax-ns#"
   xmlns:cc="http://creativecommons.org/ns#"
   xmlns:dc="http://purl.org/dc/elements/1.1/">
  <defs
     id="defs2" />
  <metadata
     id="metadata5">
    <rdf:RDF>
      <cc:Work
         rdf:about="">
        <dc:format>image/svg+xml</dc:format>
        <dc:type
           rdf:resource="http://purl.org/dc/dcmitype/StillImage" />
        <dc:title>Guileless Bopomofo Keyboard</dc:title>
        <cc:license
           rdf:resource="http://creativecommons.org/licenses/by-nd/4.0/" />
        <dc:creator>
          <cc:Agent>
            <dc:title>YOU, HUI-HONG</dc:title>
          </cc:Agent>
        </dc:creator>
      </cc:Work>
      <cc:License
         rdf:about="http://creativecommons.org/licenses/by-nd/4.0/">
        <cc:permits
           rdf:resource="http://creativecommons.org/ns#Reproduction" />
        <cc:permits
           rdf:resource="http://creativecommons.org/ns#Distribution" />
        <cc:requires
           rdf:resource="http://creativecommons.org/ns#Notice" />
        <cc:requires
           rdf:resource="http://creativecommons.org/ns#Attribution" />
      </cc:License>
    </rdf:RDF>
  </metadata>
  <g
     id="layer6"
     transform="translate(-971.54995,-95.250003)">
    <g
       id="g45">
      <rect
         style="fill:#b3b3b3;fill-opacity:0.952941;stroke:none;stroke-width:1.97048"
         id="rect20270-67-6"
         width="28.574993"
         height="28.574993"
         x="971.55005"
         y="171.45001" />
      <g
         id="g3">
        <rect
           style="fill:none;fill-opacity:0.952941;stroke:none;stroke-width:1.97048"
           id="rect20270-67"
           width="28.574993"
           height="28.574993"
           x="971.54999"
           y="133.35001" />
        <path
           style="font-weight:bold;font-size:38.9089px;line-height:0px;font-family:'Noto Serif CJK TC';-inkscape-font-specification:'Noto Serif CJK TC Bold';fill:#6c5a57;fill-opacity:0.952941;stroke-width:0.621369;stroke-opacity:0.952941"
           d="m 981.41124,134.96791 c 0.428,1.47854 -3.96871,6.69233 -5.48615,7.35378 -1.284,0.50582 -1.43963,1.05054 -1.40073,1.94545 0,1.90653 0.35018,1.98435 1.59527,1.47854 3.65744,-1.63418 11.7894,-2.1789 15.2912,-2.06218 1.40072,0.0389 1.7509,0.77818 1.28399,2.1789 -0.50581,1.36181 -1.28399,3.22944 -2.21781,5.01925 -1.12835,2.1789 -2.45126,4.24107 -3.5018,5.56397 -0.70036,0.856 -1.16726,1.05054 -2.06217,0.428 -0.81709,-0.62254 -1.86763,-1.40072 -2.6458,-1.86763 -1.12836,-0.70036 -1.55636,-0.27236 -0.856,1.05054 0.46691,0.97273 1.94545,2.99599 2.41235,4.27998 0.62254,1.86763 1.24509,1.90654 2.52908,1.05054 2.76253,-1.78981 5.21379,-5.40833 7.08142,-9.10468 1.51745,-2.95708 2.49017,-6.22542 2.99599,-6.77015 0.73927,-0.73927 1.01163,-1.12836 0.35018,-2.06217 -0.58364,-0.81709 -1.43963,-1.47854 -2.13999,-1.98435 -0.93382,-0.70036 -1.78981,-0.77818 -3.73526,-0.66145 -2.1789,0.15563 -9.1825,1.01163 -11.24467,1.36181 1.28399,-1.284 3.65744,-3.65744 4.47452,-4.24107 1.43963,-1.16727 1.59527,-1.51745 1.08945,-2.21781 -0.54472,-0.73927 -1.63417,-1.63417 -2.37344,-2.02326 -1.36181,-0.70036 -1.82872,-0.31128 -1.43963,1.28399 z"
           id="text2"
           aria-label="ㄅ" />
      </g>
      <g
         id="g2">
        <rect
           style="fill:none;fill-opacity:0.952941;stroke:none;stroke-width:1.97048"
           id="rect20270-3"
           width="28.574993"
           height="28.574993"
           x="971.54999"
           y="95.25" />
        <path
           style="font-weight:bold;font-size:24.1343px;line-height:0px;font-family:'Noto Sans CJK TC';-inkscape-font-specification:'Noto Sans CJK TC Bold';fill:#6c5a57;fill-opacity:0.952941;stroke-width:0.313469"
           d="m 971.55001,118.31029 h 3.62014 l 1.25499,-4.58552 h 5.76809 l 1.25499,4.58552 h 3.76495 l -5.71983,-17.88352 h -4.2235 z m 5.64742,-7.36096 0.53096,-1.95488 c 0.53095,-1.85834 1.03777,-3.88562 1.52046,-5.8405 h 0.0965 c 0.53095,1.90661 1.01364,3.98216 1.56873,5.8405 l 0.53095,1.95488 z m 15.59076,7.69884 c 1.56873,0 2.92025,-0.74817 4.0787,-1.78594 h 0.12067 l 0.24134,1.44806 h 2.8961 v -7.89192 c 0,-3.90976 -1.76179,-5.96117 -5.18886,-5.96117 -2.12382,0 -4.05456,0.82057 -5.62329,1.78594 l 1.25498,2.36516 c 1.25499,-0.74816 2.4617,-1.30325 3.71669,-1.30325 1.66526,0 2.24449,1.01364 2.29275,2.34102 -5.43021,0.57923 -7.77124,2.09969 -7.77124,4.97167 0,2.31689 1.56873,4.03043 3.98216,4.03043 z m 1.18258,-2.77545 c -1.03778,0 -1.78594,-0.45855 -1.78594,-1.52046 0,-1.23085 1.08604,-2.12382 4.39244,-2.50996 v 2.70304 c -0.8447,0.8447 -1.59286,1.32738 -2.6065,1.32738 z"
           id="text1"
           aria-label="Aa" />
      </g>
      <g
         id="g19904"
         transform="translate(57.150073)">
        <rect
           style="fill:none;fill-opacity:0.952941;stroke:none;stroke-width:1.97048"
           id="rect20270-6-3-8-3-2-0-7-2-8-6-6"
           width="28.574926"
           height="28.574926"
           x="914.3999"
           y="57.150002" />
        <path
           d="m 920.3842,59.640805 c 0.35344,0.984579 -2.60028,4.367478 -3.6101,4.872382 -0.73212,0.328194 -0.80786,0.580655 -0.78261,1.1613 0.0253,0.984569 0.20196,1.009819 0.85835,0.706876 2.29734,-0.984578 7.85135,-1.338012 10.02247,-1.237031 0.90884,0.05052 1.16128,0.555396 0.85834,1.489483 -0.30294,0.858347 -0.85834,2.196359 -1.51473,3.483881 -0.73212,1.413751 -1.64096,2.777004 -2.32258,3.635351 -0.50492,0.580654 -0.75736,0.681635 -1.33802,0.277702 -0.53015,-0.403923 -1.18654,-0.908837 -1.6662,-1.21178 -0.70687,-0.454423 -0.90884,-0.277702 -0.45442,0.580645 0.30294,0.631135 1.18654,1.842925 1.51473,2.625532 0.32819,1.00982 0.68163,1.110801 1.46423,0.605895 1.7167,-1.136049 3.25668,-3.433389 4.44323,-5.730738 0.95933,-1.893407 1.6662,-4.215997 1.96914,-4.51894 0.47966,-0.479664 0.6059,-0.681635 0.22721,-1.237031 -0.37868,-0.504914 -0.8836,-0.883597 -1.31277,-1.18654 -0.58065,-0.429173 -1.08556,-0.454423 -2.24685,-0.378683 -1.439,0.100979 -6.33662,0.631136 -7.67463,0.858347 0.83309,-0.833106 2.65078,-2.650782 3.13044,-3.004215 0.78261,-0.631137 0.90884,-0.883597 0.60589,-1.287522 -0.35344,-0.454423 -0.90884,-0.934087 -1.3885,-1.18654 -0.78262,-0.429173 -1.03506,-0.252452 -0.78262,0.681626 z"
           style="font-weight:600;font-size:28.7853px;line-height:1em;font-family:'Noto Serif CJK TC';-inkscape-font-specification:'Noto Serif CJK TC Semi-Bold';fill:#6c5a57;fill-opacity:0.952941;stroke-width:0.525947"
           id="path40679-4" />
        <path
           d="m 928.23731,84.1375 h 2.8196 l 1.46903,-4.952054 h 6.06567 l 1.46902,4.952054 H 942.975 L 937.19365,66.675 h -3.17499 z m 4.95206,-7.131905 0.68712,-2.345705 c 0.56866,-1.895528 1.11362,-3.814744 1.63489,-5.805038 h 0.0948 c 0.54496,1.966605 1.06623,3.90951 1.63489,5.805038 l 0.68712,2.345705 z"
           style="font-weight:500;font-size:28.7853px;line-height:1.25;font-family:'Noto Sans CJK TC';-inkscape-font-specification:'Noto Sans CJK TC Medium';fill:#6c5a57;fill-opacity:0.952941;stroke-width:0.493624"
           id="path40562-6" />
      </g>
      <g
         id="g23223"
         transform="translate(57.150073)">
        <rect
           style="fill:none;fill-opacity:0.952941;stroke:none;stroke-width:1.97048"
           id="rect20270-6-3-8-59-59-1-6-1-9-2"
           width="28.574926"
           height="28.574926"
           x="876.29999"
           y="171.44998" />
        <path
           d="m 899.88665,183.00722 v -6.79477 h -6.0147 v 6.85635 c 0,1.60118 -0.49267,2.1965 -2.21702,2.1965 -1.66277,0 -2.3402,0 -2.3402,0 0,0 0,-0.6569 0,-4.14666 l -8.02644,7.10269 8.02644,7.0411 c 0,-3.42817 0,-4.1056 0,-4.1056 0,0 0.63637,0 2.3402,0 0.94428,0 2.17596,-0.0205 3.305,-0.30792 1.19063,-0.28739 2.09386,-0.75953 2.87392,-1.51907 0.82112,-0.78006 1.39591,-1.80646 1.72436,-3.09973 0.28739,-1.19062 0.32844,-2.4223 0.32844,-3.22289 z m -5.132,-5.91207 c 0.67743,0 3.57188,0 4.2493,0 0,0 0,0.78007 0,5.91207 0,1.86804 -0.20528,4.16718 -1.78594,5.68625 -1.35484,1.31379 -3.20236,1.58066 -5.56308,1.58066 h -3.2229 c 0,1.97069 0,2.99709 0,2.99709 -1.12904,-0.98535 -5.17306,-4.51616 -5.7889,-5.04989 0.59532,-0.53373 4.65986,-4.1056 5.7889,-5.09095 0,0 0,1.00588 0,3.01762 h 3.2229 c 1.12904,0 1.88857,-0.22581 2.38124,-0.73901 0.49268,-0.49267 0.71848,-1.23168 0.71848,-2.34019 0,-5.19358 0,-5.97365 0,-5.97365 z"
           id="text21649-7"
           style="font-size:20.528px;line-height:0px;font-family:'Noto Serif CJK TC';-inkscape-font-specification:'Noto Serif CJK TC';fill:#6c5a57;fill-opacity:0.952941;stroke-width:0.641498"
           aria-label="⏎" />
      </g>
      <g
         id="g23228"
         transform="translate(57.150073)">
        <rect
           style="fill:none;fill-opacity:0.952941;stroke:none;stroke-width:1.97048"
           id="rect20270-6-3-8-5-8-4-0-2-9-1-0"
           width="28.57489"
           height="28.57489"
           x="876.29999"
           y="133.35004" />
        <path
           d="m 898.52493,145.44087 h -0.93382 c 0,2.92881 0,3.48062 0,3.48062 -0.74282,0 -13.26456,0 -14.00738,0 0,0 0,-0.55181 0,-3.48062 h -0.93383 v 4.39322 h 15.87503 z"
           id="text19908-0"
           style="font-size:21.2233px;line-height:0px;font-family:'Noto Serif CJK TC';-inkscape-font-specification:'Noto Serif CJK TC';fill:#6c5a57;fill-opacity:0.952941;stroke-width:0.331615"
           aria-label="␣" />
      </g>
      <g
         id="g23152"
         transform="translate(57.150073)">
        <rect
           style="fill:none;fill-opacity:0.952941;stroke:none;stroke-width:1.97048"
           id="rect20270-6-3-8-59-59-1-1-5-8-5"
           width="28.574926"
           height="28.574926"
           x="876.29999"
           y="95.250008" />
        <path
           d="m 899.31869,114.4976 h -12.50233 l -4.96013,-4.96013 4.96013,-4.96013 h 12.50233 z m -0.94357,-8.97669 h -0.89894 l -4.01656,4.01656 4.01656,4.01655 h 0.89894 z m -8.93844,0 3.34714,3.34713 3.34713,-3.34713 z m 6.69427,8.03311 -3.34713,-3.34713 -3.34714,3.34713 z m -8.02037,-8.03311 h -0.90532 l -4.01655,4.02931 4.01655,4.0038 h 0.90532 l 4.01656,-4.01655 z"
           id="text19981-7"
           style="font-size:13.057px;line-height:0px;font-family:'Noto Serif CJK TC';-inkscape-font-specification:'Noto Serif CJK TC';fill:#6c5a57;fill-opacity:0.952941;stroke-width:0.408031"
           aria-label="⌫" />
      </g>
      <g
         id="g23147"
         transform="translate(57.150073)">
        <rect
           style="fill:none;fill-opacity:0.952941;stroke:none;stroke-width:1.97048"
           id="rect20270-6-3-8-59-59-1-1-5-0-7-8"
           width="28.574926"
           height="28.574926"
           x="876.29993"
           y="57.150002" />
        <path
           style="font-weight:500;font-size:24.7234px;line-height:0px;font-family:'Noto Serif CJK TC';-inkscape-font-specification:'Noto Serif CJK TC Medium';fill:#6c5a57;fill-opacity:0.952941;stroke-width:0.289728"
           d="M 894.69149,82.748422 V 69.79336 h 4.3266 v -0.02472 l -8.43068,-9.642126 -8.43068,9.642126 v 0.02472 h 4.32659 v 12.955062 z m -7.21923,-13.943998 h -3.13987 v -0.02472 l 6.25502,-7.169786 6.25502,7.169786 v 0.02472 h -3.13987 v 12.955062 h -6.2303 z"
           id="text18636-2"
           aria-label="⇧" />
      </g>
    </g>
  </g>
</svg>
