<?xml version="1.0" encoding="UTF-8" standalone="no"?>
<svg
   width="28.574984mm"
   height="28.574999mm"
   viewBox="0 0 28.574984 28.574999"
   version="1.1"
   id="svg8"
   xmlns="http://www.w3.org/2000/svg"
   xmlns:svg="http://www.w3.org/2000/svg"
   xmlns:rdf="http://www.w3.org/1999/02/22-rdf-syntax-ns#"
   xmlns:cc="http://creativecommons.org/ns#"
   xmlns:dc="http://purl.org/dc/elements/1.1/">
  <defs
     id="defs2" />
  <metadata
     id="metadata5">
    <rdf:RDF>
      <cc:Work
         rdf:about="">
        <dc:format>image/svg+xml</dc:format>
        <dc:type
           rdf:resource="http://purl.org/dc/dcmitype/StillImage" />
        <dc:title>Guileless Bopomofo Keyboard</dc:title>
        <cc:license
           rdf:resource="http://creativecommons.org/licenses/by-nd/4.0/" />
        <dc:creator>
          <cc:Agent>
            <dc:title>YOU, HUI-HONG</dc:title>
          </cc:Agent>
        </dc:creator>
      </cc:Work>
      <cc:License
         rdf:about="http://creativecommons.org/licenses/by-nd/4.0/">
        <cc:permits
           rdf:resource="http://creativecommons.org/ns#Reproduction" />
        <cc:permits
           rdf:resource="http://creativecommons.org/ns#Distribution" />
        <cc:requires
           rdf:resource="http://creativecommons.org/ns#Notice" />
        <cc:requires
           rdf:resource="http://creativecommons.org/ns#Attribution" />
      </cc:License>
    </rdf:RDF>
  </metadata>
  <g
     id="layer6"
     transform="translate(-228.59997,-171.44999)">
    <g
       id="g33">
      <g
         id="g45650">
        <rect
           style="fill:none;fill-opacity:0.952941;stroke:none;stroke-width:1.97048"
           id="rect20270-6-3-8-59-59-1-6"
           width="28.574926"
           height="28.574926"
           x="266.70004"
           y="171.45" />
        <path
           d="m 290.98169,198.4375 c 1.69833,-0.0288 2.70581,-1.26655 2.70581,-2.70582 0,-1.52562 -1.00748,-2.87853 -2.7346,-2.87853 -1.69833,0 -2.76339,1.3817 -2.76339,2.87853 0.0288,1.41048 1.15141,2.67704 2.79218,2.70582 z"
           style="font-weight:600;font-size:28.7853px;line-height:1em;font-family:'Noto Serif CJK TC';-inkscape-font-specification:'Noto Serif CJK TC Semi-Bold';fill:#6c5a57;fill-opacity:0.952941;stroke-width:0.599692"
           id="path40759-9" />
        <path
           d="m 278.25242,181.78399 c 0.58588,0.6696 1.61815,2.03666 2.45514,3.32003 -2.31565,0.30689 -8.25822,1.00438 -10.68547,1.22758 2.53885,-2.98523 5.57988,-8.64882 6.44476,-10.43437 0.69749,-1.45077 0.92067,-1.92506 0.55798,-2.62255 -0.39058,-0.66958 -0.89277,-1.28336 -1.47866,-1.59027 -1.00438,-0.53008 -1.28337,-0.22318 -1.03227,1.56237 0.44639,3.04104 -4.57551,11.43875 -6.86326,13.16851 -0.72538,0.53009 -0.97647,0.69748 -0.94857,1.56238 0.0279,1.53446 0.39059,1.33915 2.06454,0.61377 1.67397,-0.66959 8.06293,-1.47867 12.86163,-1.81346 l 0.16739,0.4743 c 0.66959,2.20405 1.47867,2.90153 2.23196,1.14386 0.64169,-1.61816 -1.00438,-4.3802 -4.96609,-6.91904 -1.17178,-0.78119 -1.42288,-0.39058 -0.80908,0.30689 z"
           style="font-weight:600;font-size:28.7853px;line-height:1em;font-family:'Noto Serif CJK TC';-inkscape-font-specification:'Noto Serif CJK TC Semi-Bold';fill:#6c5a57;fill-opacity:0.952941;stroke-width:0.581236"
           id="path40719-1" />
      </g>
      <g
         id="g40519">
        <rect
           style="fill:none;fill-opacity:0.952941;stroke:none;stroke-width:1.97048"
           id="rect20270-6-3-8-5-8-4-0-2"
           width="28.57489"
           height="28.57489"
           x="266.70004"
           y="133.35004" />
        <path
           d="m 294.62321,161.925 0.65179,-1.02919 c 0,0 -6.92985,-5.38611 -9.74298,-7.58171 -2.16134,-1.68102 -4.15105,0.82334 -2.09269,2.12698 1.54374,0.96059 11.18388,6.48392 11.18388,6.48392 z"
           style="font-weight:600;font-size:28.7853px;line-height:1em;font-family:'Noto Serif CJK TC';-inkscape-font-specification:'Noto Serif CJK TC Semi-Bold';fill:#6c5a57;fill-opacity:0.952941;stroke-width:0.714715"
           id="path40757-7" />
        <path
           d="m 267.10725,161.01037 c 0.98143,1.00597 1.22682,1.07958 2.6254,0.71153 1.79108,-0.39257 10.305,-0.93236 12.5377,-0.53979 1.84019,0.36804 2.28188,-0.0245 1.30047,-0.93236 -0.85878,-0.76061 -1.20227,-0.95689 -2.99337,-0.68699 -0.95696,0.14721 -2.64994,0.29442 -4.22017,0.4171 l 0.1472,-4.19562 c 1.05506,-0.12268 2.0855,-0.17174 2.8707,-0.19628 -0.0247,0.41711 0.0247,0.73607 0.17175,1.07958 0.1963,0.46618 0.66247,0.31895 1.05498,-0.85875 0.39261,-1.30041 0.36806,-3.36141 0.76065,-4.8581 0.24533,-0.93236 0.41708,-1.15318 0,-1.57029 -0.31894,-0.31896 -0.68699,-0.58885 -1.374,-0.95689 -0.51527,-0.26988 -0.98143,-0.17175 -0.39261,0.80969 0.638,1.03049 0.26995,3.43501 0,4.88261 l -0.0734,0.4171 -2.99336,0.24537 c 0.12274,-2.87068 0.2454,-5.56962 0.41715,-6.13395 0.3435,-1.20224 0.14721,-1.49667 -0.22085,-1.79111 -0.46617,-0.39257 -0.98142,-0.66246 -1.66844,-0.78513 -0.66245,-0.12269 -0.78511,0.39256 -0.0981,1.12864 0.51525,0.46618 0.44161,3.95025 0.26986,7.70423 -1.30039,0.12267 -2.5272,0.26989 -3.16511,0.39258 0.0247,-1.34947 0.22083,-4.53913 0.1472,-5.20159 -0.0734,-0.71155 -0.36806,-0.98144 -1.47215,-1.3004 -0.61335,-0.14722 -0.95687,0.19629 -0.19629,0.9569 0.5889,0.58886 0.53981,4.36736 0.22085,5.49601 -0.22085,0.53978 -0.61337,0.63793 -0.49071,1.15318 0.17176,0.93236 0.34351,0.85875 1.27583,0.39257 0.71157,-0.36804 2.11013,-0.66246 3.63128,-0.85874 l -0.17176,4.17108 h -0.0734 c -2.50265,0.19628 -6.28113,0.51524 -7.1889,0.22082 -1.20227,-0.36804 -1.30047,0 -0.638,0.687 z"
           style="font-weight:600;font-size:28.7853px;line-height:1em;font-family:'Noto Serif CJK TC';-inkscape-font-specification:'Noto Serif CJK TC Semi-Bold';fill:#6c5a57;fill-opacity:0.952941;stroke-width:0.51116"
           id="path40707-5" />
        <path
           d="m 292.41424,134.46314 c 0.56483,0.53659 0.81903,0.90372 0.79077,3.10655 l -0.0569,6.01543 c -2.37232,0.53659 -6.32608,1.24262 -6.32608,1.24262 0.31062,-0.87548 1.21432,-5.08346 1.32734,-5.76125 0.28237,-1.44032 -0.0844,-1.9769 -1.49678,-2.7959 -1.07323,-0.59307 -1.44036,-0.0283 -0.90379,0.64955 0.2542,0.31065 0.62133,0.84724 0.59308,1.58152 0,1.77921 -0.56482,5.67653 -1.12965,6.21312 -0.64949,0.59307 -0.87544,0.76253 -0.79077,1.41207 0.1977,1.41208 0.25421,1.21438 1.72273,0.62131 1.69457,-0.73428 4.40565,-1.38383 6.97566,-1.94866 -0.0285,1.32735 -0.0569,2.45701 -0.14117,3.07832 -0.36713,2.59821 -0.48016,3.92556 0.0569,5.22467 0.62133,1.52504 1.38385,1.29911 1.58154,-2.42877 0.16944,-3.16304 0.0844,-6.10014 0.0569,-8.19002 0,-1.66624 0.16944,-5.59181 0.42355,-6.55202 0.22595,-1.01669 0.39538,-1.35558 -0.53657,-1.80745 -0.50831,-0.25416 -1.10139,-0.50834 -1.83565,-0.70604 -0.98847,-0.25417 -1.12965,0.22593 -0.31071,1.04495 z"
           style="font-weight:600;font-size:28.7853px;line-height:1em;font-family:'Noto Serif CJK TC';-inkscape-font-specification:'Noto Serif CJK TC Semi-Bold';fill:#6c5a57;fill-opacity:0.952941;stroke-width:0.588362"
           id="path40701-2" />
      </g>
      <g
         id="g27323">
        <rect
           style="fill:none;fill-opacity:0.952941;stroke:none;stroke-width:1.97048"
           id="rect20270-6-3-8-59-59-1-1"
           width="28.574926"
           height="28.574926"
           x="266.70004"
           y="95.25" />
        <path
           d="m 289.42104,119.60042 -4.71446,-6.82669 -1.25503,0.58164 5.87761,10.46963 6.03074,-10.50024 -1.22451,-0.61226 z"
           style="font-weight:600;font-size:28.7853px;line-height:1em;font-family:'Noto Serif CJK TC';-inkscape-font-specification:'Noto Serif CJK TC Semi-Bold';fill:#6c5a57;fill-opacity:0.952941;stroke-width:0.637768"
           id="path40755-1" />
        <path
           d="m 267.30545,96.455887 c 0.54847,0.713023 0.57581,3.729653 0.52103,6.828553 -0.0552,2.71497 -0.30173,5.78644 -0.68566,6.44462 -0.46616,0.85013 -0.52104,1.12438 -0.35651,1.7277 0.27429,0.93241 0.54848,0.93241 1.7003,0.43878 2.68757,-1.09696 8.8854,-1.06952 11.57288,-0.49363 2.60528,0.57591 2.90699,0.0274 2.16655,-0.95984 -0.82275,-1.09696 -1.64551,-1.09696 -3.01664,-1.06952 -2.46818,0 -6.77374,0.2468 -10.03723,0.54847 0.0552,-3.29086 0.38394,-11.463185 0.54857,-12.066514 2.60527,-0.356512 7.62383,-0.850137 9.57088,-0.79529 1.91969,0.05488 2.33107,-0.411359 1.39866,-1.179229 -0.95984,-0.767871 -1.39866,-0.740443 -3.01664,-0.41136 -1.80995,0.356512 -6.28004,0.767871 -8.19975,1.014689 l -0.43881,-0.356512 c -1.09694,-0.740452 -2.57783,-0.740452 -1.72763,0.329083 z"
           style="font-weight:600;font-size:28.7853px;line-height:1em;font-family:'Noto Serif CJK TC';-inkscape-font-specification:'Noto Serif CJK TC Semi-Bold';fill:#6c5a57;fill-opacity:0.952941;stroke-width:0.57133"
           id="path40685-0" />
      </g>
      <g
         id="g25665">
        <rect
           style="fill:none;fill-opacity:0.952941;stroke:none;stroke-width:1.97048"
           id="rect20270-6-18"
           width="28.575003"
           height="28.575003"
           x="266.69998"
           y="57.149998" />
        <path
           d="m 282.10284,84.655762 0.71282,1.069238 c 0,0 9.9797,-5.738304 11.58352,-6.736273 2.10294,-1.318734 0.0359,-3.956226 -2.17414,-2.209785 -2.95816,2.316716 -10.1222,7.87682 -10.1222,7.87682 z"
           style="font-weight:600;font-size:28.7853px;line-height:1em;font-family:'Noto Serif CJK TC';-inkscape-font-specification:'Noto Serif CJK TC Semi-Bold';fill:#6c5a57;fill-opacity:0.952941;stroke-width:0.742532"
           id="path40753-8" />
        <path
           d="m 273.81243,58.004541 c 0.10621,0.398438 0.18594,0.717185 0.0268,1.115623 -0.53125,1.142191 -2.78911,3.479697 -3.69223,4.010942 -0.87655,0.451563 -1.27501,0.531255 -1.16871,1.168758 0.18594,1.168748 0.29216,1.062499 1.56716,0.637494 1.19528,-0.371871 3.21405,-0.664061 5.12651,-0.796867 -1.77967,3.612503 -4.4359,6.853126 -7.83588,8.818751 -1.59374,0.929693 -1.59374,1.859385 0.53124,1.009384 3.8516,-1.540629 7.3578,-5.312506 9.29684,-9.907827 1.00943,0 1.8594,0.05315 2.39065,0.185941 1.11564,0.265622 1.275,0.796876 1.036,1.646869 -0.50476,2.018759 -1.70004,4.781261 -2.84226,6.348448 -0.98276,1.381255 -1.03591,1.540629 -1.91246,1.168748 -1.08907,-0.478121 -1.70004,-0.850001 -2.17813,-1.089057 -0.84998,-0.47813 -1.08907,-0.106249 -0.5844,0.557812 0.79691,1.062499 1.72652,2.01875 2.12498,2.603128 0.5844,0.903126 0.74376,1.035933 2.0985,-0.07973 2.84216,-2.284372 4.99372,-9.004692 5.39218,-9.456255 0.50466,-0.610945 0.42503,-0.876568 -0.0268,-1.540629 -0.34531,-0.47813 -0.79692,-0.903126 -1.22186,-1.195315 -0.71718,-0.451563 -1.43437,-0.584379 -2.17813,-0.557812 -1.93913,-0.02658 -4.11727,0.106249 -7.41095,0.451563 0,0 2.6828,-2.68282 3.32026,-3.134383 0.45161,-0.318747 0.77034,-0.717186 0.37188,-1.24844 -0.45152,-0.637494 -0.9297,-1.062499 -1.35464,-1.328122 -0.79692,-0.531254 -1.08907,-0.132816 -0.87664,0.610937 z"
           style="font-weight:600;font-size:28.7853px;line-height:1em;font-family:'Noto Serif CJK TC';-inkscape-font-specification:'Noto Serif CJK TC Semi-Bold';fill:#6c5a57;fill-opacity:0.952941;stroke-width:0.553384"
           id="path40687-2" />
      </g>
      <g
         id="g55779">
        <rect
           style="fill:none;fill-opacity:0.952941;stroke:none;stroke-width:1.97048"
           id="rect20270-6-3-8-0-7-2-84"
           width="28.574926"
           height="28.574926"
           x="228.59999"
           y="400.05002" />
        <path
           d="m 252.92099,408.40083 c 0.028,0.41683 0.083,0.66692 -0.19452,1.08375 -1.19493,1.44499 -3.6681,3.41796 -5.6133,4.19603 -1.61168,0.66693 -1.55608,1.47278 0.028,1.02818 4.47398,-1.27827 7.00265,-4.22383 7.33619,-4.39055 0.75028,-0.33348 0.9448,-0.61135 0.52795,-1.11154 -0.38904,-0.44462 -0.75027,-0.72249 -1.33384,-1.02817 -0.69468,-0.36125 -0.80588,-0.16673 -0.75028,0.2223 z m 2.11193,3.50134 c 0.11112,0.36125 -0.028,0.72249 -0.27793,1.08374 -2.19524,2.8344 -5.86334,5.91891 -9.97599,7.94745 -1.50055,0.75029 -1.25053,1.6673 0.19453,1.2227 2.41756,-0.88923 4.55729,-2.22308 6.30788,-3.55691 0.028,1.66729 0.056,4.75179 -0.25002,6.08564 -0.36125,1.47278 -0.52797,1.6395 -0.083,2.6121 0.61137,1.50057 1.38936,1.94518 1.63949,0.19451 0.27793,-2.38979 0.1112,-4.33497 0.1112,-6.11342 0.0279,-2.13971 0.33344,-3.19565 -0.028,-3.64028 l -0.13901,-0.13893 c 2.19533,-1.86182 3.58468,-3.52912 3.91822,-3.66806 0.66688,-0.33346 0.94481,-0.52797 0.52796,-1.11153 -0.33344,-0.47241 -0.75028,-0.83365 -1.16713,-1.11154 -0.47245,-0.30567 -0.9726,-0.38903 -0.77808,0.19453 z"
           style="font-weight:600;font-size:28.7853px;line-height:1em;font-family:'Noto Serif CJK TC';-inkscape-font-specification:'Noto Serif CJK TC Semi-Bold';fill:#6c5a57;fill-opacity:0.952941;stroke-width:0.578921"
           id="path40709-7" />
        <path
           d="m 235.07993,401.28546 c 0.40748,1.22244 -3.40533,6.92704 -5.67548,8.99351 -1.04782,0.96048 -1.07694,1.51347 -0.0586,1.86274 2.96873,1.04778 6.34494,4.24936 8.26585,7.07257 1.19331,1.74631 1.97915,1.86272 2.21201,0.75673 0.26198,-1.19332 0,-2.00827 -1.22244,-3.25979 -1.83365,-1.83363 -5.52997,-4.27846 -7.80012,-5.5882 2.15376,-1.89184 5.32623,-6.63597 6.19933,-7.91661 0.64034,-0.98957 0.69858,-1.30973 0.32022,-1.7463 -0.46572,-0.5239 -1.07694,-0.98958 -1.57167,-1.22242 -0.7277,-0.34927 -1.10606,-0.32016 -0.66946,1.04777 z"
           style="font-weight:600;font-size:28.7853px;line-height:1em;font-family:'Noto Serif CJK TC';-inkscape-font-specification:'Noto Serif CJK TC Semi-Bold';fill:#6c5a57;fill-opacity:0.952941;stroke-width:0.606357"
           id="path40703-9" />
      </g>
      <g
         id="g43965">
        <rect
           style="fill:none;fill-opacity:0.952941;stroke:none;stroke-width:1.97048"
           id="rect20270-6-3-8-5-9-9-2-0"
           width="28.57489"
           height="28.57489"
           x="228.59999"
           y="361.95004" />
        <path
           d="m 231.37657,371.98418 c 0.40623,0.62286 -0.86656,6.98688 -2.16645,7.82638 -0.64999,0.46037 -0.70408,0.75827 -0.51452,1.27281 0.27076,0.78535 0.43323,0.83951 1.40818,0.51453 1.92278,-0.73118 6.82439,-1.5436 8.96375,-1.35404 1.51655,0.16249 1.62493,0.64994 1.38117,1.84151 -0.24376,1.35404 -1.16451,3.89964 -1.81441,5.03704 -0.64999,1.24573 -1.00204,1.24573 -0.75827,2.13939 0.51452,1.67902 0.75827,1.62486 1.62484,0.18957 0.92075,-1.43529 2.32892,-6.82439 2.92472,-7.6639 0.75827,-1.02907 0.6229,-1.46237 -0.70408,-2.41019 -1.16452,-0.86659 -1.46237,-0.86659 -2.65397,-0.78536 -2.30183,0.1625 -5.17247,0.54162 -7.88053,1.05616 0.81247,-1.78734 2.08526,-5.74115 2.38312,-6.41818 0.40623,-0.86658 0.5416,-1.08324 -0.0273,-1.51653 -0.5958,-0.48745 -1.16451,-0.7041 -1.67902,-0.86659 -0.97486,-0.32497 -1.16442,0.13541 -0.48742,1.1374 z"
           style="font-weight:600;font-size:28.7853px;line-height:1em;font-family:'Noto Serif CJK TC';-inkscape-font-specification:'Noto Serif CJK TC Semi-Bold';fill:#6c5a57;fill-opacity:0.952941;stroke-width:0.564184"
           id="path40745-8" />
        <path
           d="m 243.08448,364.0076 c 0.89854,0.87049 1.26358,0.78624 2.35867,0.50544 1.29177,-0.30888 4.38063,-0.75816 6.1777,-0.81432 0.81436,-0.0281 0.89855,0.0843 0.64589,0.50544 -0.92663,1.43209 -3.06076,3.65043 -3.84702,3.98739 -1.01091,0.42121 -1.17938,0.53354 -1.15129,1.20746 0.0283,0.98281 0.39313,0.89857 1.17939,0.64584 1.48823,-0.47736 4.43661,-0.702 5.6441,-0.44928 0.5335,0.11232 0.67397,0.44928 0.5335,1.03898 -0.5897,2.47106 -2.19021,5.36333 -3.3977,6.93582 -0.75816,1.0109 -0.92663,0.92666 -1.88136,0.39313 -0.53351,-0.2808 -1.48824,-0.87049 -1.99374,-1.12321 -0.67388,-0.36504 -0.98283,-0.11232 -0.30885,0.70201 0.67389,0.702 1.99375,2.02178 2.47106,2.63954 0.75817,1.06705 0.87045,1.09513 1.88137,0.0562 3.3416,-3.53811 4.71745,-8.5364 5.16678,-9.04185 0.5055,-0.5616 0.84244,-0.64584 0.42122,-1.2917 -0.36503,-0.56161 -1.17939,-1.12321 -1.6848,-1.46017 -0.36503,-0.22464 -0.67398,-0.36505 -1.26368,-0.19656 -0.70196,0.1404 -2.47105,0 -3.73463,0.19656 1.1794,-1.26362 3.67855,-3.62236 4.40862,-4.07164 0.84234,-0.44928 1.34786,-0.58969 0.87045,-1.03897 -0.50542,-0.47736 -0.84236,-0.87049 -1.34787,-1.20745 -0.5054,-0.33696 -0.81425,-0.14041 -1.85327,0.16848 -1.26357,0.30888 -7.58165,0.98281 -8.56447,0.75816 -1.82528,-0.42119 -1.88136,-0.16848 -0.73007,0.95474 z"
           style="font-weight:600;font-size:28.7853px;line-height:1em;font-family:'Noto Serif CJK TC';-inkscape-font-specification:'Noto Serif CJK TC Semi-Bold';fill:#6c5a57;fill-opacity:0.952941;stroke-width:0.585004"
           id="path40691-0" />
      </g>
      <g
         id="g43925">
        <rect
           style="fill:none;fill-opacity:0.952941;stroke:none;stroke-width:1.97048"
           id="rect20270-6-3-8-0-7-6-2"
           width="28.574926"
           height="28.574926"
           x="228.60001"
           y="323.85001" />
        <path
           d="m 232.64939,337.78798 c 0.25898,0.72531 0.0261,1.47652 -0.285,2.25363 -0.44032,1.13977 -1.06198,2.27954 -1.81321,2.82352 -0.69939,0.51808 -1.03613,0.6994 -0.95847,1.03615 0,0.31084 0.285,0.98435 0.64765,1.11387 0.36256,0.15542 0.59573,-0.18134 1.26922,-0.38857 1.06205,-0.41446 6.76092,-0.90663 8.44463,-0.77711 1.52839,0.15543 1.39879,0.98434 1.2693,1.347 -0.49215,1.47652 -1.13972,2.87532 -2.2277,4.19641 -0.88072,1.06205 -1.11389,1.3211 -1.16572,1.94279 -0.0521,1.21748 0.41449,1.42471 1.2693,0.56989 1.34706,-1.45063 2.25361,-3.03076 3.39342,-5.20667 0.36266,-0.77711 0.67349,-1.45061 1.19156,-1.70965 0.41449,-0.23313 0.44041,-0.72531 -0.31082,-1.42471 -0.80298,-0.6994 -1.76146,-1.24338 -3.41934,-1.13977 -2.25361,0.10362 -6.94216,0.54398 -7.74523,0.64759 0.41449,-0.62168 1.9687,-3.34158 2.20186,-3.91147 0.25899,-0.62169 0.41449,-0.85482 0,-1.34699 -0.25907,-0.28495 -0.54398,-0.54399 -0.80307,-0.69941 1.76147,-0.36266 4.06691,-0.6994 5.23264,-0.6476 1.2693,0.0518 1.34696,0.46628 1.24338,1.01025 -0.23317,1.08797 -1.08798,3.10847 -1.81329,4.30003 -0.31082,0.54399 0.18133,0.85483 0.51807,0.56989 1.60605,-1.3988 2.30545,-3.93738 3.05668,-4.50727 0.62165,-0.46626 0.64756,-1.03615 0.31082,-1.4247 -0.31082,-0.33675 -1.21747,-1.06205 -1.37288,-1.19157 -0.51806,-0.33676 -0.77715,-0.31084 -1.5543,-0.12953 -2.14995,0.44036 -8.15963,1.16567 -9.48078,0.85483 -1.34696,-0.28494 -1.52829,-0.15542 -0.44032,0.93254 0.98432,0.93254 1.50239,0.98435 2.5127,0.64759 l 0.75114,-0.20723 c 0,0.15542 0.0261,0.31085 0.0774,0.46627 z"
           style="font-weight:600;font-size:28.7853px;line-height:1em;font-family:'Noto Serif CJK TC';-inkscape-font-specification:'Noto Serif CJK TC Semi-Bold';fill:#6c5a57;fill-opacity:0.952941;stroke-width:0.539661"
           id="path40743-57" />
        <path
           d="m 243.43911,325.86141 c 0.89501,0.5528 0.78966,3.44841 0.73708,5.00151 -0.053,1.68473 -0.28962,4.05387 -0.47389,5.10682 -0.28953,1.47414 -0.3422,1.94796 0.39488,3.10622 0.3422,0.57911 1.05294,0.65809 1.34246,-2.65871 0.18436,-2.44811 0.28962,-8.81847 0.28962,-9.63452 0,-0.23691 -0.0265,-0.4475 -0.0786,-0.57912 2.57977,-0.42118 6.6336,-0.76339 7.87081,-0.68441 1.07928,0.079 1.34247,0.52647 1.3688,1.42148 0.0787,1.47413 -0.0786,3.73798 -0.13159,5.528 -0.21061,5.39638 -0.89501,6.05447 -0.39488,6.84418 0.78976,1.18458 1.3689,0.68442 1.63209,-0.63176 0.3422,-1.52678 0.21061,-2.97459 0.39488,-6.94949 0.10525,-2.07958 0.31586,-4.8699 0.50013,-5.34373 0.28962,-0.76339 0.50013,-1.05295 -0.10526,-1.52679 -0.3422,-0.28955 -0.94768,-0.60544 -1.52683,-0.86868 -0.63172,-0.28956 -0.6844,-0.10529 -2.15855,0.26324 -0.84234,0.18427 -6.52826,0.6581 -8.89742,0.81604 -0.15793,-0.079 -0.36854,-0.13162 -0.57915,-0.18427 -0.78966,-0.21059 -1.07927,0.15794 -0.18427,0.97399 z"
           style="font-weight:600;font-size:28.7853px;line-height:1em;font-family:'Noto Serif CJK TC';-inkscape-font-specification:'Noto Serif CJK TC Semi-Bold';fill:#6c5a57;fill-opacity:0.952941;stroke-width:0.548411"
           id="path40683-3" />
      </g>
      <g
         id="g43877">
        <rect
           style="fill:none;fill-opacity:0.952941;stroke:none;stroke-width:1.97048"
           id="rect20270-6-3-8-5-9-9-9-4"
           width="28.57489"
           height="28.57489"
           x="228.59999"
           y="285.75003" />
        <path
           d="m 245.62805,294.05124 c 0.15697,0.17938 0.4036,0.53816 0.56056,1.00906 0.13454,0.44846 0.17941,0.85209 0.13454,2.13022 -0.1121,2.75809 -0.49334,4.7762 -1.6369,6.301 -1.03146,1.39025 -1.88359,1.92841 -3.67745,2.91505 -0.60543,0.2915 -0.42603,0.80724 0.20183,0.6727 1.86117,-0.44847 3.54293,-1.27814 4.77615,-2.9599 0.96423,-1.32299 1.50244,-3.34109 1.7715,-6.48038 0.0897,-1.14359 0.0897,-2.06296 0.24663,-2.39931 0.26906,-0.62786 0.2467,-0.85209 -0.35873,-1.21087 -0.33636,-0.2018 -1.05397,-0.49331 -1.72663,-0.58301 -0.5382,-0.0897 -0.71753,0.15697 -0.2915,0.60544 z m 4.48465,0.98663 c 0.13461,0.96421 -0.38116,7.84821 -0.44847,8.85726 -0.067,1.16603 0.0226,2.53386 1.16607,2.84779 1.61446,0.42604 3.81199,0.49331 5.09008,0.40362 1.09877,-0.0897 1.56967,-0.4709 1.03154,-1.09875 -0.49333,-0.58301 -1.2333,-0.69513 -2.10787,-0.53816 -1.07633,0.17938 -2.89262,0.47089 -3.56528,-0.33635 -0.583,-0.71755 -0.20184,-4.14834 0,-5.9198 0.1794,-1.74903 0.2915,-3.40837 0.65022,-4.21561 0.40368,-0.82966 0.29158,-1.18844 -0.38116,-1.54722 -0.4709,-0.2915 -1.09876,-0.49331 -1.63689,-0.58301 -0.7176,-0.0897 -0.85214,0.26908 -0.44846,0.65028 0.51569,0.49332 0.58299,0.87452 0.65022,1.47995 z"
           style="font-weight:600;font-size:28.7853px;line-height:1em;font-family:'Noto Serif CJK TC';-inkscape-font-specification:'Noto Serif CJK TC Semi-Bold';fill:#6c5a57;fill-opacity:0.952941;stroke-width:0.467154"
           id="path40751-9" />
        <path
           d="m 235.17929,301.94051 c -0.99976,-0.61984 -1.11972,-0.33991 -0.97975,0.95974 0.25992,2.13944 -2.9392,7.81795 -4.79876,9.39753 -0.53986,0.43989 -0.81979,0.43989 -0.79978,1.33965 0.0201,0.99974 0.35988,0.71981 1.39965,0.33991 1.93951,-0.69982 7.79797,-1.31965 9.87738,-0.91976 1.65957,0.29992 1.73952,-0.3599 0.83979,-0.97974 -0.49985,-0.33991 -0.89974,-0.63983 -1.77954,-0.53986 -1.39965,0.11997 -6.09838,0.57985 -7.93794,0.7598 1.59964,-1.77953 4.05899,-6.33833 4.81877,-7.89792 0.35995,-0.7598 0.4399,-1.03973 0.1,-1.57958 -0.15997,-0.27993 -0.49985,-0.71981 -0.73977,-0.87977 z"
           style="font-weight:600;font-size:28.7853px;line-height:1em;font-family:'Noto Serif CJK TC';-inkscape-font-specification:'Noto Serif CJK TC Semi-Bold';fill:#6c5a57;fill-opacity:0.952941;stroke-width:0.416556"
           id="path40749-5" />
        <path
           d="m 237.64941,286.69925 c 0.21961,0.68089 -0.48323,2.46 -1.71325,4.63448 -1.44963,0.0879 -3.11893,0.24161 -4.15125,0.43928 0.76876,-0.76875 2.35017,-2.63572 2.70162,-3.16287 0.28553,-0.43928 0.35138,-0.59303 0.0878,-0.98839 -0.24158,-0.35143 -0.50513,-0.63697 -1.01034,-0.9225 -0.59304,-0.41733 -0.70284,-0.10983 -0.37336,0.74678 0.28553,0.74679 -1.6693,3.49234 -2.70162,4.08538 -0.81272,0.46125 -0.92252,0.74679 -0.87857,1.09821 0.0656,0.57108 0.0878,0.9225 0.83462,0.61501 0.83461,-0.32947 2.92122,-0.63697 4.83218,-0.79072 l -1.05429,1.66929 c -1.4497,2.15251 -3.11901,3.93162 -4.72238,5.0518 -1.18608,0.83465 -1.09817,1.09822 -0.32949,0.83465 2.13057,-0.79072 4.50271,-3.07501 6.19399,-5.4252 0.52711,-0.74679 1.01034,-1.49358 1.42765,-2.19644 0.63698,-0.022 1.20804,0 1.62543,0.0439 1.27389,0.17573 1.36172,0.76876 1.25192,1.40572 -0.35138,1.73519 -1.23002,3.8877 -2.45997,5.35931 -0.50521,0.63697 -0.81271,0.70286 -1.47168,0.3075 -0.4173,-0.26357 -1.09816,-0.79072 -1.42765,-0.9884 -0.4173,-0.24161 -0.61501,-0.0659 -0.26355,0.41733 0.50513,0.72482 1.23002,1.6034 1.5814,2.10858 0.52719,0.70286 0.52719,0.72482 1.1641,0.3075 2.54787,-1.64733 4.01954,-6.21591 4.34895,-7.44592 0.24165,-0.85661 0.76876,-0.9225 0.28553,-1.38376 -0.39533,-0.39535 -0.81264,-0.70285 -1.20797,-0.90053 -0.52719,-0.28554 -0.79074,-0.30751 -1.62543,-0.35144 h -1.1641 c 0.9445,-1.71321 1.55951,-3.07501 1.75713,-3.36054 0.46126,-0.61501 0.48324,-0.87858 0.15376,-1.20804 -0.35138,-0.3075 -0.87857,-0.63696 -1.18607,-0.79072 -0.76869,-0.35143 -0.79067,-0.13178 -0.50514,0.79072 z"
           style="font-weight:600;font-size:28.7853px;line-height:1em;font-family:'Noto Serif CJK TC';-inkscape-font-specification:'Noto Serif CJK TC Semi-Bold';fill:#6c5a57;fill-opacity:0.952941;stroke-width:0.45759"
           id="path40693-4" />
      </g>
      <g
         id="g43829">
        <rect
           style="fill:none;fill-opacity:0.952941;stroke:none;stroke-width:1.97048"
           id="rect20270-6-3-8-0-7-2-8"
           width="28.574926"
           height="28.574926"
           x="228.59999"
           y="247.65001" />
        <path
           d="m 237.26134,267.64117 c 0.2038,0.2717 -0.0228,4.2567 0.0457,5.7058 0.0677,1.31323 0.33965,2.03777 1.74346,2.5359 1.51701,0.54341 4.52836,0.29434 5.502,0.1585 0.88302,-0.13586 1.35851,-0.38491 0.65663,-0.99625 -0.63398,-0.56605 -0.92832,-0.63398 -1.90196,-0.24906 -0.86036,0.33963 -2.58117,0.36226 -3.32834,0.20377 -1.22267,-0.24906 -1.51701,-0.81511 -1.53967,-2.151 -0.0228,-1.53965 0.13585,-3.78122 0.40754,-4.30197 0.27176,-0.54342 0.1585,-0.76984 -0.29435,-1.08683 -0.31699,-0.22642 -0.63398,-0.4302 -1.06416,-0.56605 -0.45284,-0.1585 -0.67922,0.0906 -0.22638,0.74719 z m -7.35865,-0.92833 c 0.95098,0.90568 1.17737,0.97362 2.46799,0.5887 0.58868,-0.1585 1.81134,-0.38492 3.19251,-0.61134 -0.18116,0.61134 -0.38488,1.24531 -0.65657,1.87929 -1.15478,2.73969 -2.98878,5.34352 -5.8643,6.9964 -0.83779,0.47548 -0.38494,0.86039 0.52072,0.54341 2.08312,-0.7472 4.25676,-2.19629 6.29448,-6.20392 0.56611,-1.08682 0.95098,-2.3095 1.24532,-3.41896 2.06046,-0.29434 4.16615,-0.49812 5.09447,-0.40755 1.74347,0.11321 2.10577,-0.13586 1.17743,-0.90568 -0.81513,-0.70191 -1.15477,-0.70191 -2.78497,-0.38492 l -3.26047,0.5887 c 0.36222,-1.74345 0.45283,-3.10197 0.54338,-3.2831 0.22645,-0.4302 0.29433,-0.72455 -0.0906,-0.99626 -0.43018,-0.2717 -0.92832,-0.56604 -1.56231,-0.7019 -0.86037,-0.18113 -0.99629,0.18113 -0.22645,0.99625 0.33964,0.33963 0.33964,2.10572 -0.13585,4.23406 l -0.11319,0.0227 c -2.35479,0.33963 -4.41516,0.65661 -5.27561,0.4302 -1.1094,-0.29436 -1.20001,0.0227 -0.56603,0.63398 z"
           style="font-weight:600;font-size:28.7853px;line-height:1em;font-family:'Noto Serif CJK TC';-inkscape-font-specification:'Noto Serif CJK TC Semi-Bold';fill:#6c5a57;fill-opacity:0.952941;stroke-width:0.471708"
           id="path40747-99" />
        <path
           d="m 240.14605,249.5854 c 1.04317,1.09534 1.33,1.19966 2.79047,0.80847 0.80851,-0.20863 2.50362,-0.46943 4.45958,-0.67807 -0.4173,1.40829 -1.56475,3.23384 -2.26889,3.67719 -0.83451,0.49551 -0.99106,0.52158 -0.91279,1.06926 0,0.73021 0.13038,0.91277 0.70414,0.73021 1.51256,-0.4955 4.98116,-0.78238 6.572,-0.54766 0.59986,0.1304 0.80842,0.4955 0.67805,1.30397 -0.15647,1.01709 -0.62586,3.12951 -1.7473,5.34626 -0.49549,0.96494 -0.75633,1.09534 -1.22573,0.73022 -0.62595,-0.41726 -1.25181,-0.8867 -2.03423,-1.40828 -0.67804,-0.46943 -1.14744,-0.41727 -0.57367,0.54767 0.57367,0.99101 1.95595,2.7644 2.2167,3.18167 0.36511,0.62591 0.70414,0.73022 1.51255,-0.0782 2.50363,-2.47754 3.36433,-7.92812 3.72944,-8.42362 0.41721,-0.57375 0.4694,-0.78238 0.20856,-1.17357 -0.31293,-0.39119 -0.59977,-0.73023 -0.83451,-0.96494 -0.36512,-0.39119 -0.62586,-0.41727 -1.43437,-0.41727 -1.56474,-0.0261 -4.74642,0.13039 -5.08544,0.13039 0.65195,-0.83454 1.90377,-2.68616 2.42535,-3.88582 2.37325,-0.20863 4.72041,-0.31295 5.92004,-0.15647 1.98205,0.26079 2.42535,0 1.38219,-0.96493 -0.8867,-0.83454 -1.27791,-0.91278 -3.18168,-0.57375 -2.47753,0.44335 -11.00548,1.5126 -12.62241,1.0171 -1.27791,-0.36512 -1.38219,-0.0261 -0.67805,0.73021 z"
           style="font-weight:600;font-size:28.7853px;line-height:1em;font-family:'Noto Serif CJK TC';-inkscape-font-specification:'Noto Serif CJK TC Semi-Bold';fill:#6c5a57;fill-opacity:0.952941;stroke-width:0.543318"
           id="path40697-4" />
      </g>
      <g
         id="g43920">
        <rect
           style="fill:none;fill-opacity:0.952941;stroke:none;stroke-width:1.97048"
           id="rect20270-6-3-8-5-9-9-2"
           width="28.57489"
           height="28.57489"
           x="228.59999"
           y="209.55003" />
        <path
           d="m 228.98062,227.08982 c 0.9174,0.89562 1.13588,0.96116 2.35919,0.5898 0.72084,-0.19659 2.53394,-0.41504 4.45625,-0.5898 0.0439,0.72087 0.0652,1.44173 0.0652,2.00969 0,0.72085 -0.1092,0.96114 -0.4806,1.02668 -1.59462,0.28398 -4.01937,1.52911 -4.01937,4.25966 0,2.38103 2.51209,3.82277 5.43931,3.7354 2.92712,-0.0874 4.56545,-1.0267 5.37364,-2.07524 0.80829,-1.04853 -0.37132,-1.55094 -1.04853,-0.72086 -0.52423,0.69903 -2.07522,1.37619 -4.36883,1.44173 -2.07522,0.0438 -4.04122,-0.89562 -4.04122,-2.42472 -0.022,-1.94415 2.0315,-3.01453 3.18922,-3.08007 1.28887,-0.0437 1.44179,-0.30581 1.46366,-1.70386 v -2.57762 c 1.79124,-0.13108 3.4732,-0.15292 4.30332,-0.0437 1.68198,0.26213 2.0315,-0.0874 1.15775,-0.85195 -0.76458,-0.67716 -1.1796,-0.76454 -2.49024,-0.56794 -1.70391,0.24028 -9.78627,1.26697 -10.81303,0.96115 -1.07031,-0.30582 -1.15773,0.0218 -0.54608,0.61165 z"
           style="font-weight:600;font-size:28.7853px;line-height:1em;font-family:'Noto Serif CJK TC';-inkscape-font-specification:'Noto Serif CJK TC Semi-Bold';fill:#6c5a57;fill-opacity:0.952941;stroke-width:0.45509"
           id="path40729-9" />
        <path
           d="m 244.88887,211.05489 c 0.2749,0.36656 0.4582,0.82476 0.50397,1.69534 0.0684,1.74115 -0.18321,3.84888 -0.48105,5.4755 -0.52695,2.81792 -1.53503,4.74235 -3.11575,5.84205 -0.7561,0.59566 -0.66442,1.28296 0.38943,0.80184 2.49719,-1.07676 3.64271,-3.52813 4.19252,-6.4148 0.36658,-1.99317 0.59565,-4.19254 0.66442,-6.13988 l -0.0231,-0.36658 c 3.02409,-0.50401 7.0334,-0.82475 8.5225,-0.66437 1.48921,0.18327 1.99316,-0.27493 1.3746,-0.87059 -0.13746,-0.13745 -0.48112,-0.38946 -1.07677,-0.64148 -0.71017,-0.34366 -1.05384,-0.27492 -2.79501,0.11456 -1.14546,0.25201 -3.98631,0.64147 -6.64389,0.91639 -0.20621,-0.18328 -0.4811,-0.32074 -0.80186,-0.41239 -0.7331,-0.20618 -1.16836,0 -0.71017,0.66441 z"
           style="font-weight:600;font-size:28.7853px;line-height:1em;font-family:'Noto Serif CJK TC';-inkscape-font-specification:'Noto Serif CJK TC Semi-Bold';fill:#6c5a57;fill-opacity:0.952941;stroke-width:0.477291"
           id="path40699-4" />
      </g>
      <g
         id="g35521">
        <rect
           style="fill:none;fill-opacity:0.952941;stroke:none;stroke-width:1.97048"
           id="rect20270-6-3-8-0-7-6"
           width="28.574926"
           height="28.574926"
           x="228.59999"
           y="171.45" />
        <path
           d="m 241.70879,190.29406 c 0.94095,0.918 1.19336,0.98685 2.47857,0.59671 0.75733,-0.20655 2.63922,-0.45901 4.68176,-0.66555 l -0.0231,1.26225 c -0.0231,0.52784 -0.16064,1.07863 -0.73444,1.14748 -2.29497,0.22951 -3.71787,1.67535 -3.76379,3.53428 -0.0231,1.95073 1.83605,3.87852 5.50798,3.85557 3.12118,-0.0459 4.63585,-1.21633 5.25549,-1.95074 0.80325,-0.91799 -0.0231,-1.58353 -0.89502,-0.87209 -1.12456,0.91799 -2.34089,1.39994 -4.31455,1.4688 -2.06549,0.0688 -4.08508,-0.75735 -4.08508,-2.31794 0,-1.83599 1.81301,-2.52448 2.89172,-2.57038 1.07856,-0.023 1.35402,-0.32131 1.44579,-1.51469 l 0.0685,-2.18023 c 2.1344,-0.18361 4.19982,-0.29836 5.25557,-0.18361 1.76709,0.16065 2.13431,-0.11475 1.19336,-0.91799 -0.80326,-0.71144 -1.23928,-0.73439 -2.9146,-0.48195 -0.8951,0.16066 -2.18024,0.3213 -3.48841,0.48195 0.0463,-1.12454 0.0918,-2.15729 0.20658,-2.57038 0.20649,-0.78029 0.22946,-1.12454 -0.16064,-1.33109 -0.52788,-0.29835 -1.30818,-0.52785 -1.53772,-0.5967 -0.94094,-0.20655 -1.05567,0.25245 -0.57371,0.6885 0.3213,0.22949 0.52787,0.66554 0.61964,1.30814 0.0463,0.34424 0.0685,1.51469 0.0685,2.66218 -2.27199,0.27539 -5.7604,0.73439 -6.63246,0.50489 -1.12456,-0.32129 -1.19345,0 -0.55084,0.64259 z"
           style="font-weight:600;font-size:28.7853px;line-height:1em;font-family:'Noto Serif CJK TC';-inkscape-font-specification:'Noto Serif CJK TC Semi-Bold';fill:#6c5a57;fill-opacity:0.952941;stroke-width:0.478121"
           id="path40731-15" />
        <path
           d="m 232.3046,172.39508 c 0.67286,1.2381 -1.26501,4.95242 -2.93377,6.99799 -0.99591,1.18427 -1.04977,1.26502 -0.0271,2.28781 1.42649,1.42651 2.71844,3.55282 3.55277,5.65222 0.8075,1.96482 1.10353,2.01865 1.77648,0.59214 0.72671,-1.58801 -1.93796,-4.73711 -4.54877,-7.45556 1.85717,-2.23397 3.2299,-4.54869 4.11809,-6.21745 0.40375,-0.75362 0.43068,-1.04969 -0.0271,-1.48034 -0.29612,-0.32298 -0.86126,-0.78054 -1.3458,-1.04969 -0.78056,-0.48448 -0.94205,-0.1615 -0.56523,0.67288 z m 6.45962,0.0539 c 0.72671,1.0497 -1.1573,4.87168 -2.55696,6.83649 -0.91512,1.29194 -1.04967,1.31885 0.10772,2.20706 1.31878,1.04971 3.20288,3.57974 3.95652,5.75988 0.69978,1.83025 1.04967,1.74951 1.72262,0.43066 0.75364,-1.50727 -1.04977,-3.47209 -4.9255,-7.24024 1.50719,-2.2878 3.01447,-5.27541 3.8489,-6.27127 0.45751,-0.51139 0.59206,-0.75363 0.0271,-1.31885 -0.26919,-0.32299 -0.88828,-0.86129 -1.3458,-1.13044 -1.04967,-0.53831 -1.39956,-0.26916 -0.83443,0.72671 z"
           style="font-weight:600;font-size:28.7853px;line-height:1em;font-family:'Noto Serif CJK TC';-inkscape-font-specification:'Noto Serif CJK TC Semi-Bold';fill:#6c5a57;fill-opacity:0.952941;stroke-width:0.560735"
           id="path40695-9" />
      </g>
      <g
         id="g30607">
        <rect
           style="fill:none;fill-opacity:0.952941;stroke:none;stroke-width:1.97048"
           id="rect20270-6-3-8-5-9-9-9"
           width="28.57489"
           height="28.57489"
           x="228.59999"
           y="133.35004" />
        <path
           d="m 240.26315,153.72995 c 1.01558,0.94302 1.25734,1.01557 2.61146,0.60451 0.41102,-0.1209 1.16065,-0.24182 2.10367,-0.36271 l 0.0723,3.45778 c 0.0487,2.92582 0.31434,3.98975 1.86191,4.27992 1.95859,0.33852 5.48888,0.21761 6.7705,0.0484 1.47499,-0.14508 1.49911,-0.99139 0.79793,-1.40245 -0.4594,-0.3869 -1.06397,-0.33853 -1.98279,-0.1451 -0.9672,0.24181 -2.90168,0.36271 -4.37668,0.29018 -1.32984,-0.0967 -1.74095,-0.72541 -1.76514,-2.27296 l -0.0243,-4.42499 c 1.37831,-0.14508 2.94999,-0.31434 4.42499,-0.41106 -0.41103,1.86188 -1.16066,3.94138 -2.07947,5.77909 -0.36273,0.72541 0.12087,1.13647 0.96719,0.21762 1.08809,-1.28156 1.78934,-3.16762 2.53897,-6.09344 1.42662,-0.0726 2.61146,-0.0967 3.21594,-0.0242 1.76514,0.24181 2.27294,-0.0967 1.25735,-0.94302 -0.87043,-0.74959 -1.32993,-0.79796 -3.09506,-0.50778 l -1.06389,0.16925 c 0.36263,-1.52335 0.62867,-3.14344 0.72535,-3.48195 0.36273,-1.25739 -0.0243,-1.5959 -1.28153,-2.17624 -1.35412,-0.6045 -1.83772,-0.16925 -1.01558,0.70124 0.62867,0.62868 0.58037,2.12786 0.0723,5.15041 l -3.07088,0.38687 -1.59587,0.16927 c 0.0244,-1.18484 0.0487,-2.22459 0.0967,-2.68402 0.14507,-1.25738 0.19346,-1.54753 -0.36272,-1.95861 -0.38691,-0.29015 -0.89463,-0.53196 -1.42661,-0.65286 -1.20904,-0.29016 -1.4025,-0.0967 -0.60457,0.87049 0.60457,0.72541 0.67706,1.2332 0.79802,2.32131 0.0487,0.41106 0.0967,1.28155 0.12088,2.24876 -1.78932,0.16927 -3.50617,0.29017 -4.08645,0.14508 -1.20905,-0.31434 -1.30574,0.0242 -0.60456,0.70123 z"
           style="font-weight:600;font-size:28.7853px;line-height:1em;font-family:'Noto Serif CJK TC';-inkscape-font-specification:'Noto Serif CJK TC Semi-Bold';fill:#6c5a57;fill-opacity:0.952941;stroke-width:0.503755"
           id="path40733-8" />
        <path
           d="m 229.02138,139.95616 c 1.03923,1.03922 1.29265,1.11527 2.73745,0.73506 1.85031,-0.4309 10.08802,-1.26734 12.41999,-0.98852 1.95174,0.27881 2.33187,-0.0254 1.39408,-0.96319 -0.86178,-0.78575 -1.08994,-0.8111 -2.94024,-0.50694 -1.26738,0.20278 -3.29511,0.38021 -5.77914,0.65902 -2.94024,0.32951 -6.2099,0.63368 -7.17314,0.35486 -1.24202,-0.3802 -1.34336,0 -0.659,0.70971 z"
           style="font-weight:600;font-size:28.7853px;line-height:1em;font-family:'Noto Serif CJK TC';-inkscape-font-specification:'Noto Serif CJK TC Semi-Bold';fill:#6c5a57;fill-opacity:0.952941;stroke-width:0.528059"
           id="path40721-7" />
      </g>
      <g
         id="g20760">
        <rect
           style="fill:none;fill-opacity:0.952941;stroke:none;stroke-width:1.97048"
           id="rect20270-6-3-8-0-7-2"
           width="28.574926"
           height="28.574926"
           x="228.60008"
           y="95.250069" />
        <path
           d="m 245.81545,112.47932 c 0.57799,1.20421 -0.33719,7.29748 -3.22724,10.33207 -1.27644,1.39689 -0.0721,1.08379 0.55388,0.62619 3.08284,-2.26391 3.82941,-6.31003 4.19069,-8.95929 l 0.0962,-0.62617 c 1.51733,0.0242 5.05764,-0.67437 6.43048,-0.57804 1.71,0.14451 1.8063,-0.21674 1.20422,-1.10786 l -0.1445,-0.19266 c 0.52979,-0.89112 1.27644,-2.52885 1.78223,-2.84192 0.67428,-0.4576 0.69836,-0.6262 -0.38538,-1.51731 -1.03564,-0.84293 -1.44503,-0.77069 -2.28799,-0.65027 -1.25234,0.19267 -5.03355,0.72253 -6.81576,0.84294 -0.57805,0.0242 -1.34872,0 -1.71,-0.0964 -0.89115,-0.19268 -1.10785,0.14451 0.0243,1.05969 0.84295,0.67436 1.10785,0.6262 1.99899,0.33718 1.05965,-0.31308 4.91315,-0.77068 6.28596,-0.81885 0.98738,-0.0481 1.32455,0.1445 1.03558,1.13195 -0.19269,0.67435 -0.69847,1.73404 -1.01154,2.28799 l -1.08375,0.19266 c -1.92672,0.33717 -3.58854,0.57802 -5.00946,0.72254 l -0.21679,0.0242 c -0.0244,-0.33717 -0.19269,-0.50576 -0.62618,-0.81886 -1.32462,-0.93926 -1.71,-0.65027 -1.08383,0.65027 z"
           style="font-weight:600;font-size:28.7853px;line-height:1em;font-family:'Noto Serif CJK TC';-inkscape-font-specification:'Noto Serif CJK TC Semi-Bold';fill:#6c5a57;fill-opacity:0.952941;stroke-width:0.50175"
           id="path40711-5" />
        <path
           d="m 229.0252,97.15252 c 1.02307,1.048657 1.30447,1.150965 2.76231,0.741737 0.79292,-0.179041 2.78788,-0.434809 4.96197,-0.665002 0.28132,3.606355 0.20454,9.437895 -0.15345,11.407315 -0.25582,1.09983 -0.20463,2.12288 0.35799,3.04366 0.56272,0.84405 1.04866,0.76732 1.27888,-1.33 0.25581,-2.27634 0.0257,-8.72174 0.33251,-13.274434 2.37861,-0.204624 4.68055,-0.281349 5.7548,-0.153471 1.94387,0.281348 2.35313,-0.02559 1.38115,-0.971923 -0.84402,-0.818463 -1.07424,-0.818463 -2.94135,-0.511533 -1.27888,0.204613 -3.325,0.358073 -5.83149,0.639421 -2.96693,0.332502 -6.26636,0.665003 -7.23833,0.358074 -1.25331,-0.383655 -1.35557,-0.02559 -0.66499,0.716156 z"
           style="font-weight:600;font-size:28.7853px;line-height:1em;font-family:'Noto Serif CJK TC';-inkscape-font-specification:'Noto Serif CJK TC Semi-Bold';fill:#6c5a57;fill-opacity:0.952941;stroke-width:0.532852"
           id="path40705-1" />
      </g>
      <g
         id="g22395">
        <rect
           style="fill:none;fill-opacity:0.952941;stroke:none;stroke-width:1.97048"
           id="rect20270-6-1-7"
           width="28.574993"
           height="28.574993"
           x="228.60001"
           y="57.150002" />
        <path
           d="m 244.22535,71.674208 c 0.74549,0.675741 1.16503,0.838854 2.02716,0.582537 1.04858,-0.302921 2.79635,-0.722342 4.2177,-0.722342 -0.0707,2.23694 -0.0243,4.800102 0.53584,7.270056 0.76889,3.238908 2.05043,5.405944 4.00794,6.920536 0.53596,-0.442715 0.93185,-0.67574 1.39784,-0.745642 1.02533,-0.163113 1.02533,-0.419428 -0.0474,-0.955359 -1.91074,-1.001968 -3.16912,-2.889386 -3.91471,-5.499149 -0.67587,-2.400056 -0.86224,-6.174896 -0.466,-6.664225 1.07188,-1.304888 1.16501,-1.491295 0.51267,-1.887421 -0.53607,-0.279617 -0.74583,-0.396125 -1.49143,0.04662 -0.9322,0.535931 -5.00974,0.978665 -5.96522,0.815556 -1.79412,-0.302922 -1.74743,0.0233 -0.81546,0.838851 z"
           style="font-weight:600;font-size:28.7853px;line-height:1em;font-family:'Noto Serif CJK TC';-inkscape-font-specification:'Noto Serif CJK TC Semi-Bold';fill:#6c5a57;fill-opacity:0.952941;stroke-width:0.485442"
           id="path40737-6" />
        <path
           d="m 229.02549,63.699979 c 0.95687,0.981221 1.2266,1.226525 2.62465,0.834035 0.80949,-0.196243 2.35515,-0.441547 4.1703,-0.637784 -0.51517,1.373695 -1.12843,2.575685 -1.59456,3.017237 -0.49071,0.515136 -0.58865,0.956682 -0.34325,1.349171 0.26976,0.490609 0.80938,0.220774 1.4472,0 0.9812,-0.343434 4.26836,-0.466076 5.74001,-0.245301 0.71158,0.122643 0.58878,0.588724 0.39266,0.95668 -0.80965,1.471827 -3.21368,4.366418 -4.80799,5.053263 -1.52095,0.637793 -0.73576,1.300117 0.46601,1.079341 3.21329,-0.564196 5.76446,-5.740114 6.52518,-6.034481 0.78493,-0.318893 0.58853,-0.662321 -0.19626,-1.692596 -0.46601,-0.564198 -0.9077,-0.588733 -2.25682,-0.686853 -1.79069,-0.122643 -4.12113,-0.09812 -5.05328,-0.02453 0.29433,-0.588721 0.71143,-1.717128 1.15298,-2.919117 2.79645,-0.269826 5.83822,-0.441543 7.45734,-0.294362 1.88876,0.171714 2.28105,-0.02453 1.34913,-0.932156 -0.80949,-0.784969 -1.15312,-0.907627 -2.94368,-0.637789 -1.03034,0.171712 -3.26259,0.417017 -5.42121,0.662317 0.41685,-1.177454 0.83407,-2.281323 1.10396,-2.82099 0.41683,-0.858567 0.26974,-1.275581 -0.83434,-2.060557 -1.20178,-0.858568 -1.766,-0.686851 -1.07915,0.834035 0.26962,0.588731 -0.0967,2.403983 -0.68685,4.219228 l -0.24541,0.02452 c -2.64936,0.269835 -5.44569,0.539663 -6.32892,0.269835 -1.22649,-0.367956 -1.32456,-0.02453 -0.6377,0.686846 z"
           style="font-weight:600;font-size:28.7853px;line-height:1em;font-family:'Noto Serif CJK TC';-inkscape-font-specification:'Noto Serif CJK TC Semi-Bold';fill:#6c5a57;fill-opacity:0.952941;stroke-width:0.511049"
           id="path40717-3" />
      </g>
      <text
         xml:space="preserve"
         style="font-size:9.67791px;line-height:0px;font-family:'Noto Serif CJK TC';-inkscape-font-specification:'Noto Serif CJK TC';stroke-width:0.302434"
         x="228.23224"
         y="46.219769"
         id="text47345"><tspan
           id="tspan47343"
           style="stroke-width:0.302434"
           x="228.23224"
           y="46.219769">許氏注音鍵盤區</tspan></text>
    </g>
  </g>
</svg>
