<?xml version="1.0" encoding="UTF-8" standalone="no"?>
<svg
   xmlns:dc="http://purl.org/dc/elements/1.1/"
   xmlns:cc="http://creativecommons.org/ns#"
   xmlns:rdf="http://www.w3.org/1999/02/22-rdf-syntax-ns#"
   xmlns:svg="http://www.w3.org/2000/svg"
   xmlns="http://www.w3.org/2000/svg"
   xmlns:sodipodi="http://sodipodi.sourceforge.net/DTD/sodipodi-0.dtd"
   xmlns:inkscape="http://www.inkscape.org/namespaces/inkscape"
   width="24mm"
   height="24mm"
   viewBox="0 0 24 24"
   version="1.1"
   id="svg440"
   inkscape:version="1.0.1 (3bc2e813f5, 2020-09-07)"
   sodipodi:docname="guileless_bopomofo_keyboard-an.svg">
  <defs
     id="defs434" />
  <sodipodi:namedview
     id="base"
     pagecolor="#ffffff"
     bordercolor="#666666"
     borderopacity="1.0"
     inkscape:pageopacity="0.0"
     inkscape:pageshadow="2"
     inkscape:zoom="0.35"
     inkscape:cx="-197.5028"
     inkscape:cy="-408.93138"
     inkscape:document-units="mm"
     inkscape:current-layer="layer1"
     inkscape:document-rotation="0"
     showgrid="false"
     inkscape:window-width="1920"
     inkscape:window-height="1017"
     inkscape:window-x="0"
     inkscape:window-y="1080"
     inkscape:window-maximized="1" />
  <metadata
     id="metadata437">
    <rdf:RDF>
      <cc:Work
         rdf:about="">
        <dc:format>image/svg+xml</dc:format>
        <dc:type
           rdf:resource="http://purl.org/dc/dcmitype/StillImage" />
        <dc:title></dc:title>
      </cc:Work>
    </rdf:RDF>
  </metadata>
  <g
     inkscape:label="Layer 1"
     inkscape:groupmode="layer"
     id="layer1"
     transform="translate(-158.08928,-256.3631)">
    <g
       id="g4706"
       transform="matrix(0.82109133,0,0,0.82109133,150.18853,-25.520806)">
      <rect
         style="fill:none;fill-opacity:0.6;stroke-width:0.0833395"
         id="rect233-2-4-9"
         width="29.229391"
         height="29.229391"
         x="9.6222563"
         y="343.30396" />
      <path
         d="m 27.972042,353.98034 q 1.27041,-0.13552 2.03267,-0.23714 0.71143,-0.10163 1.13489,-0.10163 1.4229,0 2.79493,1.38899 0.93165,0.94858 0.93165,1.86329 0,0.40653 -0.49122,1.32123 -0.13552,0.25408 -0.57595,1.25348 -1.98184,4.48881 -4.01451,7.30067 -1.91409,2.62553 -4.92923,4.6582 l -0.57591,0.3896 q -0.15242,0.10162 -0.30485,0.10162 -0.23723,0 -0.22033,-0.18632 0,-0.16938 0.16932,-0.37265 l 0.35573,-0.44041 q 3.25226,-4.0484 5.09862,-7.96129 2.16816,-4.57351 2.16816,-6.23352 0,-0.94858 -1.16879,-0.94858 -1.98184,0 -9.21475,1.2196 -4.30249,0.71143 -5.50515,1.20267 -0.28794,0.11858 -0.44042,0.11858 -0.50815,0 -1.11796,-0.86388 -0.49122,-0.67756 -0.49122,-1.28736 0,-0.45735 0.47429,-0.98246 0.74529,-0.84694 1.62611,-2.64247 1.0333,-2.08348 1.40593,-3.64186 -0.84692,-0.27104 -1.69387,-0.79613 -1.21962,-0.76225 -1.21962,-1.33818 0,-0.35571 0.86389,-0.38959 8.46946,-0.42347 14.44889,-2.32063 0.42349,-0.13552 0.6437,-0.13552 0.96551,0 2.42224,1.3043 0.83002,0.74531 0.83002,1.18572 0,0.20328 -0.76226,0.77919 -0.91468,0.71144 -2.50696,3.30309 -0.16933,0.23714 -0.7453,1.16878 -0.6945,1.08409 -1.42287,2.32063 z m -1.89716,0.27101 q 0.27104,-0.6098 0.82999,-1.86328 0.3388,-0.76225 1.25348,-2.99819 l 0.4235,-0.99939 q 0.49122,-1.32124 0.49122,-1.43981 0,-0.42347 -0.84696,-0.42347 -1.59224,0 -7.72413,1.37205 -1.01633,0.23714 -1.47369,0.38959 0.45736,0.76225 0.45736,1.11797 0,0.32184 -0.6945,1.40593 -0.79613,1.27042 -1.60918,3.08288 -0.49125,1.06716 -0.49125,1.38899 0,0.45735 0.44042,0.45735 0.32184,0 0.89775,-0.10162 l 0.93164,-0.15245 1.64308,-0.27104 q 2.98125,-0.47429 5.47127,-0.96552 z"
         style="font-weight:bold;font-size:11.2889px;line-height:1.25;font-family:MOESongUN;-inkscape-font-specification:'MOESongUN Bold';letter-spacing:0px;word-spacing:0px;fill:#6a5753;fill-opacity:1;stroke-width:0.813066"
         id="path618-2" />
    </g>
  </g>
</svg>
