<?xml version="1.0" encoding="UTF-8" standalone="no"?>
<svg
   xmlns:dc="http://purl.org/dc/elements/1.1/"
   xmlns:cc="http://creativecommons.org/ns#"
   xmlns:rdf="http://www.w3.org/1999/02/22-rdf-syntax-ns#"
   xmlns:svg="http://www.w3.org/2000/svg"
   xmlns="http://www.w3.org/2000/svg"
   xmlns:sodipodi="http://sodipodi.sourceforge.net/DTD/sodipodi-0.dtd"
   xmlns:inkscape="http://www.inkscape.org/namespaces/inkscape"
   width="24mm"
   height="24mm"
   viewBox="0 0 24 24"
   version="1.1"
   id="svg947"
   inkscape:version="1.0.1 (3bc2e813f5, 2020-09-07)"
   sodipodi:docname="guileless_bopomofo_keyboard-o.svg">
  <defs
     id="defs941" />
  <sodipodi:namedview
     id="base"
     pagecolor="#ffffff"
     bordercolor="#666666"
     borderopacity="1.0"
     inkscape:pageopacity="0.0"
     inkscape:pageshadow="2"
     inkscape:zoom="0.35"
     inkscape:cx="1065.3543"
     inkscape:cy="-254.64567"
     inkscape:document-units="mm"
     inkscape:current-layer="layer1"
     inkscape:document-rotation="0"
     showgrid="false"
     inkscape:window-width="1920"
     inkscape:window-height="1049"
     inkscape:window-x="1"
     inkscape:window-y="0"
     inkscape:window-maximized="1" />
  <metadata
     id="metadata944">
    <rdf:RDF>
      <cc:Work
         rdf:about="">
        <dc:format>image/svg+xml</dc:format>
        <dc:type
           rdf:resource="http://purl.org/dc/dcmitype/StillImage" />
        <dc:title></dc:title>
      </cc:Work>
    </rdf:RDF>
  </metadata>
  <g
     inkscape:label="Layer 1"
     inkscape:groupmode="layer"
     id="layer1"
     transform="translate(176.04167,-215.54167)">
    <g
       id="g4676"
       transform="matrix(0.82109133,0,0,0.82109133,-217.21009,-3.060118)">
      <rect
         style="fill:none;fill-opacity:0.6;stroke-width:0.0833395"
         id="rect233-6-1-8"
         width="29.229391"
         height="29.229391"
         x="50.13866"
         y="266.23322" />
      <path
         d="m 64.33861,270.64513 q -6.119814,0.82949 -8.829493,1.78802 -0.884791,0.31337 -1.253457,0.31337 -0.940092,0 -2.248847,-1.06912 -1.253457,-1.01383 -1.253457,-1.52996 0,-0.3318 0.479262,-0.3318 0.07374,0 0.73733,0.0922 1.142857,0.14748 2.175116,0.14748 h 0.258064 q 0.387095,0 2.635942,-0.25807 l 13.622119,-1.52996 q 2.580648,-0.29492 4.534562,-0.97696 0.516131,-0.18433 0.755762,-0.18433 0.976957,0 2.193549,1.21659 0.608294,0.6083 0.608294,0.99539 0,0.42397 -0.497695,0.42397 -0.09216,0 -1.124425,-0.0553 -0.331801,-0.0184 -1.714286,0.0737 -0.11059,0.0184 -1.364053,0.0737 -1.640553,0.0737 -6.322583,0.51613 l -0.1659,6.17511 q -0.09216,3.76037 -2.175117,3.76037 -0.368663,0 -0.829492,-0.29492 -0.27649,-0.18432 -0.903227,-0.18432 -1.566818,0 -3.023041,0.92166 -2.341013,1.45622 -2.341013,4.51613 0,2.56221 1.935485,4.47926 2.211981,2.17511 5.529951,2.17511 2.728113,0 5.069126,-1.43778 1.179723,-0.7189 2.949308,-2.70968 0.552996,-0.62673 1.198159,-0.62673 1.290322,0 1.290322,1.27189 0,1.95392 -3.207375,4.09217 -3.115208,2.10138 -7.133639,2.10138 -5.364055,0 -8.350231,-3.61291 -2.064517,-2.48847 -2.064517,-5.75115 0,-4.68202 3.557605,-6.63594 1.437787,-0.79263 4.368662,-1.14286 0.921659,-0.11059 1.069127,-0.57143 0.129015,-0.38709 0.09216,-0.97695 z"
         style="font-weight:bold;font-size:11.2889px;line-height:1.25;font-family:MOESongUN;-inkscape-font-specification:'MOESongUN Bold';letter-spacing:0px;word-spacing:0px;fill:#6a5753;fill-opacity:1;stroke-width:0.884791"
         id="path604-0" />
    </g>
  </g>
</svg>
