<?xml version="1.0" encoding="UTF-8" standalone="no"?>
<svg
   xmlns:dc="http://purl.org/dc/elements/1.1/"
   xmlns:cc="http://creativecommons.org/ns#"
   xmlns:rdf="http://www.w3.org/1999/02/22-rdf-syntax-ns#"
   xmlns:svg="http://www.w3.org/2000/svg"
   xmlns="http://www.w3.org/2000/svg"
   xmlns:sodipodi="http://sodipodi.sourceforge.net/DTD/sodipodi-0.dtd"
   xmlns:inkscape="http://www.inkscape.org/namespaces/inkscape"
   width="24mm"
   height="24mm"
   viewBox="0 0 24 24"
   version="1.1"
   id="svg892"
   inkscape:version="1.0.1 (3bc2e813f5, 2020-09-07)"
   sodipodi:docname="guileless_bopomofo_keyboard-chi.svg">
  <defs
     id="defs886" />
  <sodipodi:namedview
     id="base"
     pagecolor="#ffffff"
     bordercolor="#666666"
     borderopacity="1.0"
     inkscape:pageopacity="0.0"
     inkscape:pageshadow="2"
     inkscape:zoom="0.35"
     inkscape:cx="768.21148"
     inkscape:cy="219.64004"
     inkscape:document-units="mm"
     inkscape:current-layer="layer1"
     inkscape:document-rotation="0"
     showgrid="false"
     inkscape:window-width="1920"
     inkscape:window-height="1049"
     inkscape:window-x="1"
     inkscape:window-y="0"
     inkscape:window-maximized="1" />
  <metadata
     id="metadata889">
    <rdf:RDF>
      <cc:Work
         rdf:about="">
        <dc:format>image/svg+xml</dc:format>
        <dc:type
           rdf:resource="http://purl.org/dc/dcmitype/StillImage" />
        <dc:title></dc:title>
      </cc:Work>
    </rdf:RDF>
  </metadata>
  <g
     inkscape:label="Layer 1"
     inkscape:groupmode="layer"
     id="layer1"
     transform="translate(97.422621,-90.053572)">
    <g
       id="g3996"
       transform="matrix(0.82109133,0,0,0.82109133,-138.59104,-35.007686)">
      <rect
         style="fill:none;fill-opacity:0.6;stroke-width:0.0833395"
         id="rect233-6-7"
         width="29.229391"
         height="29.229391"
         x="50.13866"
         y="152.31102" />
      <path
         d="m 59.663646,164.84636 -0.45041,0.15013 q -0.25521,0.0901 -0.39033,0.10508 -0.15008,0.015 -0.15008,-0.13512 0,-0.13513 0.16506,-0.27025 l 0.5705,-0.46541 q 3.4831,-2.83753 6.47076,-6.89114 1.71154,-2.32708 1.99679,-3.24289 0.0602,-0.16514 0.16506,-0.82574 0.0602,-0.34531 0.36034,-0.34531 0.58551,0 1.59139,0.88579 0.87079,0.76569 0.87079,1.24611 0,0.30027 -0.78069,0.75067 -0.36031,0.21019 -1.41127,1.57641 -2.22198,2.89758 -4.63912,4.78927 -1.17105,0.93083 -2.73245,1.81661 -1.23108,0.70563 -1.63645,0.85577 z m 6.36566,3.57318 q -1.92169,1.71153 -3.03269,2.4622 -2.5973,1.77158 -4.78927,2.62734 l -0.64557,0.25523 q -0.13509,0.0601 -0.27018,0.0601 -0.16506,0 -0.16506,-0.10508 0,-0.18017 0.22525,-0.36032 l 0.45039,-0.33029 q 4.20376,-3.15281 7.41662,-6.726 1.48631,-1.66648 3.01768,-3.84342 0.85575,-1.2311 1.06596,-1.83163 0.30026,-0.85577 0.84075,-0.85577 0.69062,0 1.41125,0.52547 0.82574,0.61555 0.82574,1.17105 0,0.16513 -0.37535,0.46541 -0.31527,0.25524 -1.99676,2.34209 -0.6606,0.82573 -2.4472,2.70241 1.33621,0.94584 1.33621,1.53136 0,0.12012 -0.21027,0.5555 -0.0752,0.18017 -0.0752,0.60053 l 0.03,1.36622 0.0602,1.32118 0.0449,1.14101 0.03,0.87078 q 0.0449,1.42627 0.15008,2.76246 0.0752,1.02091 0.0752,1.60643 0,2.19196 -1.03593,2.19196 -0.45038,0 -1.00588,-0.57051 -0.60055,-0.63056 -0.60055,-1.20107 0,-0.13512 0.03,-0.36032 0.3453,-1.98177 0.3453,-4.87935 0,-3.97855 -0.70565,-5.4949 z"
         style="font-weight:bold;font-size:11.2889px;line-height:1.25;font-family:MOESongUN;-inkscape-font-specification:'MOESongUN Bold';letter-spacing:0px;word-spacing:0px;fill:#6a5753;fill-opacity:1;stroke-width:0.720641"
         id="path584-6" />
    </g>
  </g>
</svg>
