<?xml version="1.0" encoding="UTF-8" standalone="no"?>
<svg
   width="28.574997mm"
   height="28.575003mm"
   viewBox="0 0 28.574997 28.575003"
   version="1.1"
   id="svg8"
   xmlns="http://www.w3.org/2000/svg"
   xmlns:svg="http://www.w3.org/2000/svg"
   xmlns:rdf="http://www.w3.org/1999/02/22-rdf-syntax-ns#"
   xmlns:cc="http://creativecommons.org/ns#"
   xmlns:dc="http://purl.org/dc/elements/1.1/">
  <defs
     id="defs2" />
  <metadata
     id="metadata5">
    <rdf:RDF>
      <cc:Work
         rdf:about="">
        <dc:format>image/svg+xml</dc:format>
        <dc:type
           rdf:resource="http://purl.org/dc/dcmitype/StillImage" />
        <dc:title>Guileless Bopomofo Keyboard</dc:title>
        <cc:license
           rdf:resource="http://creativecommons.org/licenses/by-nd/4.0/" />
        <dc:creator>
          <cc:Agent>
            <dc:title>YOU, HUI-HONG</dc:title>
          </cc:Agent>
        </dc:creator>
      </cc:Work>
      <cc:License
         rdf:about="http://creativecommons.org/licenses/by-nd/4.0/">
        <cc:permits
           rdf:resource="http://creativecommons.org/ns#Reproduction" />
        <cc:permits
           rdf:resource="http://creativecommons.org/ns#Distribution" />
        <cc:requires
           rdf:resource="http://creativecommons.org/ns#Notice" />
        <cc:requires
           rdf:resource="http://creativecommons.org/ns#Attribution" />
      </cc:License>
    </rdf:RDF>
  </metadata>
  <g
     id="layer6"
     transform="translate(-723.89993,-57.149985)">
    <g
       id="g31">
      <rect
         style="fill:#b3b3b3;fill-opacity:0.952941;stroke:none;stroke-width:1.97048"
         id="rect20270-50"
         width="28.574993"
         height="28.574993"
         x="876.30005"
         y="247.65001" />
      <rect
         style="fill:#b3b3b3;fill-opacity:0.952941;stroke:none;stroke-width:1.97048"
         id="rect20270-98"
         width="28.574993"
         height="28.574993"
         x="876.30005"
         y="209.55" />
      <rect
         style="fill:#b3b3b3;fill-opacity:0.952941;stroke:none;stroke-width:1.97048"
         id="rect20270-24"
         width="28.574993"
         height="28.574993"
         x="838.20001"
         y="247.64999" />
      <rect
         style="fill:#b3b3b3;fill-opacity:0.952941;stroke:none;stroke-width:1.97048"
         id="rect20270-01"
         width="28.574993"
         height="28.574993"
         x="838.20001"
         y="209.55" />
      <rect
         style="fill:#b3b3b3;fill-opacity:0.952941;stroke:none;stroke-width:1.97048"
         id="rect20270-00"
         width="28.574993"
         height="28.574993"
         x="800.10004"
         y="247.65001" />
      <rect
         style="fill:#b3b3b3;fill-opacity:0.952941;stroke:none;stroke-width:1.97048"
         id="rect20270-39"
         width="28.574993"
         height="28.574993"
         x="800.10004"
         y="209.55" />
      <g
         id="g119">
        <rect
           style="fill:none;fill-opacity:0.952941;stroke:none;stroke-width:1.97048"
           id="rect20270-1-6"
           width="28.574993"
           height="28.574993"
           x="876.29999"
           y="95.250008" />
        <g
           id="g50"
           transform="matrix(0.66666758,0,0,0.66666758,495.29947,-34.925218)">
          <rect
             style="fill:none;fill-opacity:0.952941;stroke:none;stroke-width:1.97048"
             id="rect20270-2-82"
             width="28.574993"
             height="28.574993"
             x="571.5"
             y="209.55" />
          <path
             d="m 588.63725,237.9279 h 2.27403 l -7.97352,-28.1808 h -2.27404 z"
             style="font-weight:500;font-size:28.7853px;line-height:1.25;font-family:'Noto Sans CJK TC';-inkscape-font-specification:'Noto Sans CJK TC Medium';fill:#6c5a57;fill-opacity:0.952941;stroke-width:0.599692"
             id="path40650-6" />
        </g>
        <g
           id="g118"
           transform="matrix(0.66666642,0,0,0.66666642,479.42514,-43.180462)">
          <rect
             style="fill:none;fill-opacity:0.952941;stroke:none;stroke-width:1.97048"
             id="rect20270-2-99"
             width="28.574993"
             height="28.574993"
             x="609.60004"
             y="209.55" />
          <path
             d="m 622.76491,240.02923 h 2.24525 v -32.38346 h -2.24525 z"
             style="font-weight:500;font-size:28.7853px;line-height:1.25;font-family:'Noto Sans CJK TC';-inkscape-font-specification:'Noto Sans CJK TC Medium';fill:#6c5a57;fill-opacity:0.952941;stroke-width:0.599692"
             id="path40656-7" />
        </g>
      </g>
      <g
         id="g127">
        <rect
           style="fill:none;fill-opacity:0.952941;stroke:none;stroke-width:1.97048"
           id="rect20270-2"
           width="28.574993"
           height="28.574993"
           x="838.20001"
           y="57.149998" />
        <g
           id="g125"
           transform="matrix(0.66666671,0,0,0.66666671,558.79999,-73.025012)">
          <rect
             style="fill:none;fill-opacity:0.952941;stroke:none;stroke-width:1.97048"
             id="rect20270-2-96"
             width="28.574993"
             height="28.574993"
             x="419.10001"
             y="209.55" />
          <path
             d="m 429.58784,225.06088 h 7.59932 v -2.44676 h -7.59932 z"
             style="font-weight:500;font-size:28.7853px;line-height:1.25;font-family:'Noto Sans CJK TC';-inkscape-font-specification:'Noto Sans CJK TC Medium';fill:#6c5a57;fill-opacity:0.952941;stroke-width:0.599692"
             id="path40638-3" />
        </g>
        <g
           id="g124"
           transform="matrix(0.6666667,0,0,0.6666667,542.925,-82.550006)">
          <rect
             style="fill:none;fill-opacity:0.952941;stroke:none;stroke-width:1.97048"
             id="rect20270-2-0"
             width="28.574993"
             height="28.574993"
             x="457.20001"
             y="209.55" />
          <path
             d="m 463.78744,224.87377 h 15.40013 v -2.07255 h -15.40013 z"
             style="font-weight:500;font-size:28.7853px;line-height:1.25;font-family:'Noto Sans CJK TC';-inkscape-font-specification:'Noto Sans CJK TC Medium';fill:#6c5a57;fill-opacity:0.952941;stroke-width:0.599692"
             id="path40640-5" />
        </g>
      </g>
      <g
         id="g126">
        <rect
           style="fill:none;fill-opacity:0.952941;stroke:none;stroke-width:1.97048"
           id="rect20270-1"
           width="28.574993"
           height="28.574993"
           x="876.29999"
           y="57.149998" />
        <g
           id="g123"
           transform="matrix(0.66666671,0,0,0.66666671,546.09997,-73.025012)">
          <rect
             style="fill:none;fill-opacity:0.952941;stroke:none;stroke-width:1.97048"
             id="rect20270-2-90"
             width="28.574993"
             height="28.574993"
             x="495.30002"
             y="209.55" />
          <path
             d="m 502.47754,221.46271 h 14.21994 v -2.38918 h -14.21994 z m 0,7.13876 h 14.21994 v -2.41797 h -14.21994 z"
             style="font-weight:500;font-size:28.7853px;line-height:1.25;font-family:'Noto Sans CJK TC';-inkscape-font-specification:'Noto Sans CJK TC Medium';fill:#6c5a57;fill-opacity:0.952941;stroke-width:0.599692"
             id="path40642-6" />
        </g>
        <g
           id="g122"
           transform="matrix(0.66666705,0,0,0.66666705,530.22475,-82.550089)">
          <rect
             style="fill:none;fill-opacity:0.952941;stroke:none;stroke-width:1.97048"
             id="rect20270-2-3"
             width="28.574993"
             height="28.574993"
             x="533.40002"
             y="209.55" />
          <path
             d="m 546.39218,231.2785 h 2.56189 v -6.21763 h 5.84342 v -2.41796 h -5.84342 v -6.24641 h -2.56189 v 6.24641 h -5.81463 v 2.41796 h 5.81463 z"
             style="font-weight:500;font-size:28.7853px;line-height:1.25;font-family:'Noto Sans CJK TC';-inkscape-font-specification:'Noto Sans CJK TC Medium';fill:#6c5a57;fill-opacity:0.952941;stroke-width:0.599692"
             id="path40644-2" />
        </g>
      </g>
      <g
         id="g46">
        <rect
           style="fill:none;fill-opacity:0.952941;stroke:none;stroke-width:1.97048"
           id="rect20270-1-0-3"
           width="28.574993"
           height="28.574993"
           x="762"
           y="171.45" />
        <g
           id="g28"
           transform="matrix(0.67981413,0,0,0.67981413,253.13096,3.0940396)">
          <rect
             style="fill:none;fill-opacity:0.952941;stroke:none;stroke-width:1.97048"
             id="rect20270-2-9-2"
             width="28.574993"
             height="28.574993"
             x="762"
             y="247.64999" />
          <path
             d="m 774.44524,266.01061 h 2.90732 c -0.48935,-4.3178 4.63443,-5.8722 4.63443,-10.01729 0,-3.39666 -2.30282,-5.29649 -5.6707,-5.29649 -2.38918,0 -4.3178,1.15141 -5.72828,2.76339 l 1.87105,1.69833 c 0.9787,-1.06506 2.13011,-1.7559 3.48302,-1.7559 1.81347,0 2.82096,1.20898 2.82096,2.79217 0,3.1376 -5.00864,4.97986 -4.3178,9.81579 z m 1.49684,7.16754 c 1.26655,0 2.24525,-1.00749 2.24525,-2.3604 0,-1.35291 -0.9787,-2.33161 -2.24525,-2.33161 -1.26656,0 -2.21647,0.9787 -2.21647,2.33161 0,1.35291 0.94991,2.3604 2.21647,2.3604 z"
             style="font-weight:500;font-size:28.7853px;line-height:1.25;font-family:'Noto Sans CJK TC';-inkscape-font-specification:'Noto Sans CJK TC Medium';fill:#6c5a57;fill-opacity:0.952941;stroke-width:0.599692"
             id="path40676-6" />
        </g>
        <g
           id="g30"
           transform="matrix(0.66666652,0,0,0.66666652,279.40009,15.875038)">
          <rect
             style="fill:none;fill-opacity:0.952941;stroke:none;stroke-width:1.97048"
             id="rect20270-2-93-0"
             width="28.574993"
             height="28.574993"
             x="723.90002"
             y="247.64999" />
          <path
             d="m 733.04935,276.0279 h 2.33161 l 7.94474,-28.18081 h -2.27404 z"
             style="font-weight:500;font-size:28.7853px;line-height:1.25;font-family:'Noto Sans CJK TC';-inkscape-font-specification:'Noto Sans CJK TC Medium';fill:#6c5a57;fill-opacity:0.952941;stroke-width:0.599692"
             id="path40670-7" />
        </g>
      </g>
      <g
         id="g49">
        <rect
           style="fill:none;fill-opacity:0.952941;stroke:none;stroke-width:1.97048"
           id="rect20270-1-0"
           width="28.574993"
           height="28.574993"
           x="723.89996"
           y="171.45001" />
        <g
           id="g48"
           transform="matrix(0.66666682,0,0,0.66666682,276.22492,6.3499659)">
          <rect
             style="fill:none;fill-opacity:0.952941;stroke:none;stroke-width:1.97048"
             id="rect20270-2-7-7"
             width="28.574993"
             height="28.574993"
             x="685.79999"
             y="247.64999" />
          <path
             d="m 692.97751,268.73082 14.21994,-5.55557 v -2.50432 l -14.21994,-5.52677 v 2.79217 l 6.47669,2.33161 4.37537,1.61198 v 0.11514 l -4.37537,1.58319 -6.47669,2.33161 z"
             style="font-weight:500;font-size:28.7853px;line-height:1.25;font-family:'Noto Sans CJK TC';-inkscape-font-specification:'Noto Sans CJK TC Medium';fill:#6c5a57;fill-opacity:0.952941;stroke-width:0.599692"
             id="path40674-0" />
        </g>
        <g
           id="g47"
           transform="matrix(0.66666659,0,0,0.66666659,292.10006,15.875021)">
          <rect
             style="fill:none;fill-opacity:0.952941;stroke:none;stroke-width:1.97048"
             id="rect20270-2-8-3"
             width="28.574993"
             height="28.574993"
             x="647.70001"
             y="247.64999" />
          <path
             d="m 661.97312,264.2835 c 1.26655,0 2.24525,-1.00749 2.24525,-2.3604 0,-1.35291 -0.9787,-2.33161 -2.24525,-2.33161 -1.23777,0 -2.21647,0.9787 -2.21647,2.33161 0,1.35291 0.9787,2.3604 2.21647,2.3604 z"
             style="font-weight:500;font-size:28.7853px;line-height:1.25;font-family:'Noto Sans CJK TC';-inkscape-font-specification:'Noto Sans CJK TC Medium';fill:#6c5a57;fill-opacity:0.952941;stroke-width:0.599692"
             id="path40668-6" />
        </g>
      </g>
      <g
         id="g53">
        <rect
           style="fill:none;fill-opacity:0.952941;stroke:none;stroke-width:1.97048"
           id="rect20270-1-79"
           width="28.574993"
           height="28.574993"
           x="685.79999"
           y="171.45001" />
        <g
           id="g51"
           transform="matrix(0.66666705,0,0,0.66666705,279.39975,15.874908)">
          <rect
             style="fill:none;fill-opacity:0.952941;stroke:none;stroke-width:1.97048"
             id="rect20270-2-99-1"
             width="28.574993"
             height="28.574993"
             x="609.60004"
             y="247.64999" />
          <path
             d="m 621.90135,266.96053 c 2.99367,-1.12262 4.72079,-3.45423 4.72079,-6.47669 0,-2.21647 -0.92113,-3.56938 -2.56189,-3.56938 -1.26656,0 -2.30283,0.83478 -2.30283,2.13012 0,1.3529 1.03627,2.13011 2.21647,2.13011 l 0.31664,-0.0288 c 0,1.72712 -1.1802,3.13759 -3.1376,3.94358 z"
             style="font-weight:500;font-size:28.7853px;line-height:1.25;font-family:'Noto Sans CJK TC';-inkscape-font-specification:'Noto Sans CJK TC Medium';fill:#6c5a57;fill-opacity:0.952941;stroke-width:0.599692"
             id="path40666-6" />
        </g>
        <g
           id="g52"
           transform="matrix(0.66666661,0,0,0.66666661,314.32505,6.3500168)">
          <rect
             style="fill:none;fill-opacity:0.952941;stroke:none;stroke-width:1.97048"
             id="rect20270-2-82-1"
             width="28.574993"
             height="28.574993"
             x="571.5"
             y="247.64999" />
          <path
             d="m 592.89746,268.73082 v -2.82096 l -6.47669,-2.33161 -4.34658,-1.58319 v -0.11514 l 4.34658,-1.61198 6.47669,-2.33161 v -2.79217 l -14.21993,5.52677 v 2.50432 z"
             style="font-weight:500;font-size:28.7853px;line-height:1.25;font-family:'Noto Sans CJK TC';-inkscape-font-specification:'Noto Sans CJK TC Medium';fill:#6c5a57;fill-opacity:0.952941;stroke-width:0.599692"
             id="path40672-7" />
        </g>
      </g>
      <g
         id="g60">
        <rect
           style="fill:none;fill-opacity:0.952941;stroke:none;stroke-width:1.97048"
           id="rect20270-1-1"
           width="28.574993"
           height="28.574993"
           x="800.09998"
           y="133.35001" />
        <g
           id="g59"
           transform="matrix(0.66666676,0,0,0.66666676,520.69997,-22.22502)">
          <rect
             style="fill:none;fill-opacity:0.952941;stroke:none;stroke-width:1.97048"
             id="rect20270-2-96-5"
             width="28.574993"
             height="28.574993"
             x="419.10001"
             y="247.64999" />
          <path
             d="m 432.42317,266.49996 h 1.9574 l 0.63328,-5.72827 0.0864,-3.39667 h -3.4255 l 0.0864,3.39667 z"
             style="font-weight:500;font-size:28.7853px;line-height:1.25;font-family:'Noto Sans CJK TC';-inkscape-font-specification:'Noto Sans CJK TC Medium';fill:#6c5a57;fill-opacity:0.952941;stroke-width:0.599692"
             id="path40660-2" />
        </g>
        <g
           id="g57"
           transform="matrix(0.66666665,0,0,0.66666665,504.82502,-31.749988)">
          <rect
             style="fill:none;fill-opacity:0.952941;stroke:none;stroke-width:1.97048"
             id="rect20270-2-0-6"
             width="28.574993"
             height="28.574993"
             x="457.20001"
             y="247.64999" />
          <path
             d="m 467.35677,266.49996 h 1.95741 l 0.63327,-5.72827 0.0864,-3.39667 h -3.42545 l 0.0864,3.39667 z m 6.33277,0 h 1.92861 l 0.66207,-5.72827 0.0864,-3.39667 h -3.45424 l 0.11514,3.39667 z"
             style="font-weight:500;font-size:28.7853px;line-height:1.25;font-family:'Noto Sans CJK TC';-inkscape-font-specification:'Noto Sans CJK TC Medium';fill:#6c5a57;fill-opacity:0.952941;stroke-width:0.599692"
             id="path40664-9" />
        </g>
      </g>
      <g
         id="g56">
        <rect
           style="fill:none;fill-opacity:0.952941;stroke:none;stroke-width:1.97048"
           id="rect20270-1-62"
           width="28.574993"
           height="28.574993"
           x="762"
           y="133.35001" />
        <g
           id="g54"
           transform="matrix(0.66666673,0,0,0.66666673,406.39997,-22.225014)">
          <rect
             style="fill:none;fill-opacity:0.952941;stroke:none;stroke-width:1.97048"
             id="rect20270-2-3-9"
             width="28.574993"
             height="28.574993"
             x="533.40002"
             y="247.64999" />
          <path
             d="m 547.71631,255.92137 c 1.26655,0 2.24525,-0.94992 2.24525,-2.30283 0,-1.38169 -0.9787,-2.36039 -2.24525,-2.36039 -1.23777,0 -2.21647,0.9787 -2.21647,2.36039 0,1.35291 0.9787,2.30283 2.21647,2.30283 z m -2.01497,16.69547 c 2.99367,-1.12263 4.72079,-3.45424 4.72079,-6.47669 0,-2.21647 -0.92113,-3.56938 -2.56189,-3.56938 -1.26656,0 -2.30283,0.83477 -2.30283,2.13011 0,1.35291 1.03627,2.13011 2.21647,2.13011 l 0.31664,-0.0288 c 0,1.72712 -1.1802,3.1376 -3.1376,3.94358 z"
             style="font-weight:500;font-size:28.7853px;line-height:1.25;font-family:'Noto Sans CJK TC';-inkscape-font-specification:'Noto Sans CJK TC Medium';fill:#6c5a57;fill-opacity:0.952941;stroke-width:0.599692"
             id="path40658-3" />
        </g>
        <g
           id="g55"
           transform="matrix(0.66666665,0,0,0.66666665,441.32499,-31.749988)">
          <rect
             style="fill:none;fill-opacity:0.952941;stroke:none;stroke-width:1.97048"
             id="rect20270-2-90-0"
             width="28.574993"
             height="28.574993"
             x="495.30005"
             y="247.64999" />
          <path
             d="m 509.57316,258.5984 c 1.26655,0 2.24525,-0.94992 2.24525,-2.30283 0,-1.38169 -0.9787,-2.36039 -2.24525,-2.36039 -1.23777,0 -2.21647,0.9787 -2.21647,2.36039 0,1.35291 0.9787,2.30283 2.21647,2.30283 z m 0,11.3414 c 1.26655,0 2.24525,-1.00748 2.24525,-2.36039 0,-1.35291 -0.9787,-2.33161 -2.24525,-2.33161 -1.23777,0 -2.21647,0.9787 -2.21647,2.33161 0,1.35291 0.9787,2.36039 2.21647,2.36039 z"
             style="font-weight:500;font-size:28.7853px;line-height:1.25;font-family:'Noto Sans CJK TC';-inkscape-font-specification:'Noto Sans CJK TC Medium';fill:#6c5a57;fill-opacity:0.952941;stroke-width:0.599692"
             id="path40662-5" />
        </g>
      </g>
      <g
         id="g116">
        <rect
           style="fill:none;fill-opacity:0.952941;stroke:none;stroke-width:1.97048"
           id="rect20270-1-7"
           width="28.574993"
           height="28.574993"
           x="800.10004"
           y="95.25" />
        <g
           id="g61"
           transform="matrix(0.66666672,0,0,0.66666672,377.82498,-34.925014)">
          <rect
             style="fill:none;fill-opacity:0.952941;stroke:none;stroke-width:1.97048"
             id="rect20270-2-8"
             width="28.574993"
             height="28.574993"
             x="647.70001"
             y="209.55" />
          <path
             d="m 658.93627,237.76958 h 6.10248 v -1.84226 h -3.62694 v -24.17965 h 3.62694 v -1.84226 h -6.10248 z"
             style="font-weight:500;font-size:28.7853px;line-height:1.25;font-family:'Noto Sans CJK TC';-inkscape-font-specification:'Noto Sans CJK TC Medium';fill:#6c5a57;fill-opacity:0.952941;stroke-width:0.599692"
             id="path40646-2" />
        </g>
        <g
           id="g64"
           transform="matrix(0.66666669,0,0,0.66666669,342.9,-44.450004)">
          <rect
             style="fill:none;fill-opacity:0.952941;stroke:none;stroke-width:1.97048"
             id="rect20270-2-7"
             width="28.574993"
             height="28.574993"
             x="685.79999"
             y="209.55" />
          <path
             d="m 702.44788,237.76958 h 1.64076 v -1.84226 h -0.7772 c -1.64076,0 -2.04375,-0.74842 -2.04375,-2.7346 0,-1.89983 0.14392,-3.56938 0.14392,-5.67071 0,-2.18768 -0.60449,-3.22395 -2.10133,-3.59816 v -0.14392 c 1.49684,-0.37421 2.10133,-1.3817 2.10133,-3.59817 0,-2.13011 -0.14392,-3.79966 -0.14392,-5.69949 0,-1.98618 0.40299,-2.7346 2.04375,-2.7346 h 0.7772 v -1.84226 h -1.64076 c -2.64824,0 -3.9148,1.03627 -3.9148,4.43294 0,2.33161 0.28785,3.85723 0.28785,6.01613 0,1.20898 -0.5757,2.41796 -2.7346,2.47553 v 2.01497 c 2.1589,0.0288 2.7346,1.26656 2.7346,2.50432 0,2.13012 -0.28785,3.68452 -0.28785,6.01613 0,3.39667 1.26656,4.40415 3.9148,4.40415 z"
             style="font-weight:500;font-size:28.7853px;line-height:1.25;font-family:'Noto Sans CJK TC';-inkscape-font-specification:'Noto Sans CJK TC Medium';fill:#6c5a57;fill-opacity:0.952941;stroke-width:0.599692"
             id="path40652-0" />
        </g>
      </g>
      <g
         id="g117">
        <rect
           style="fill:none;fill-opacity:0.952941;stroke:none;stroke-width:1.97048"
           id="rect20270-1-9"
           width="28.574993"
           height="28.574993"
           x="838.20001"
           y="95.250008" />
        <g
           id="g114"
           transform="matrix(0.66666671,0,0,0.66666671,355.59997,-34.925011)">
          <rect
             style="fill:none;fill-opacity:0.952941;stroke:none;stroke-width:1.97048"
             id="rect20270-2-93"
             width="28.574993"
             height="28.574993"
             x="723.90002"
             y="209.55" />
          <path
             d="m 735.13628,237.76958 h 6.10249 v -27.86417 h -6.10249 v 1.84226 h 3.59817 v 24.17965 h -3.59817 z"
             style="font-weight:500;font-size:28.7853px;line-height:1.25;font-family:'Noto Sans CJK TC';-inkscape-font-specification:'Noto Sans CJK TC Medium';fill:#6c5a57;fill-opacity:0.952941;stroke-width:0.599692"
             id="path40648-7" />
        </g>
        <g
           id="g115"
           transform="matrix(0.66666669,0,0,0.66666669,339.72499,-44.450004)">
          <rect
             style="fill:none;fill-opacity:0.952941;stroke:none;stroke-width:1.97048"
             id="rect20270-2-9"
             width="28.574993"
             height="28.574993"
             x="762"
             y="209.55" />
          <path
             d="m 772.28634,237.76958 h 1.64077 c 2.64824,0 3.88601,-1.00748 3.88601,-4.40415 0,-2.33161 -0.28785,-3.88601 -0.28785,-6.01613 0,-1.23776 0.60449,-2.47553 2.76339,-2.50432 v -2.01497 c -2.1589,-0.0576 -2.76339,-1.26655 -2.76339,-2.47553 0,-2.1589 0.28785,-3.68452 0.28785,-6.01613 0,-3.39667 -1.23777,-4.43294 -3.88601,-4.43294 h -1.64077 v 1.84226 h 0.74842 c 1.64077,0 2.07254,0.74842 2.07254,2.7346 0,1.89983 -0.14392,3.56938 -0.14392,5.69949 0,2.21647 0.5757,3.22396 2.07254,3.59817 v 0.14392 c -1.49684,0.37421 -2.07254,1.41048 -2.07254,3.59816 0,2.10133 0.14392,3.77088 0.14392,5.67071 0,1.98618 -0.43177,2.7346 -2.07254,2.7346 h -0.74842 z"
             style="font-weight:500;font-size:28.7853px;line-height:1.25;font-family:'Noto Sans CJK TC';-inkscape-font-specification:'Noto Sans CJK TC Medium';fill:#6c5a57;fill-opacity:0.952941;stroke-width:0.599692"
             id="path40654-9" />
        </g>
      </g>
      <g
         id="g146">
        <rect
           style="fill:none;fill-opacity:0.952941;stroke:none;stroke-width:1.97048"
           id="rect20270-6-3-8-5-9-9-9-7-4"
           width="28.57489"
           height="28.57489"
           x="647.70007"
           y="171.45003" />
        <path
           d="m 672.9685,195.26247 h -6.74914 v -0.78921 q 0.54428,-0.21772 1.08857,-0.35379 0.54428,-0.16328 1.11578,-0.29936 v -12.24643 l 0.10886,-3.18407 h -0.21772 l -0.89806,2.91193 -5.57893,13.96093 h -0.70758 l -5.30678,-13.96093 -0.97971,-3.18407 h -0.24493 l 0.0272,3.45621 v 12.24643 q 0.51707,0.10886 1.03415,0.27214 0.51707,0.16329 1.03414,0.38101 v 0.78921 h -5.68779 v -0.78921 q 0.51707,-0.21772 1.06136,-0.38101 0.5715,-0.1905 1.143,-0.29936 v -16.11085 q -0.5715,-0.10885 -1.143,-0.27214 -0.54429,-0.1905 -1.08857,-0.40822 v -0.78921 h 5.57892 l 4.73529,12.43693 0.92529,2.80307 h 0.0272 l 0.92528,-2.8575 4.89858,-12.3825 h 4.92578 v 0.78921 q -0.48985,0.21772 -1.00693,0.40822 -0.51707,0.16329 -1.06136,0.27214 v 16.16528 q 0.5715,0.10887 1.06136,0.27215 0.51708,0.13607 0.97972,0.35379 z"
           id="text195-2"
           style="font-size:28.7853px;line-height:1.25;font-family:'PT Serif';-inkscape-font-specification:'PT Serif';fill:#6c5a57;fill-opacity:0.952941;stroke-width:0.566963"
           aria-label="M" />
      </g>
      <g
         id="g145">
        <rect
           style="fill:none;fill-opacity:0.952941;stroke:none;stroke-width:1.97048"
           id="rect20270-6-3-8-5-8-6-8-9-3-63"
           width="28.57489"
           height="28.57489"
           x="609.6001"
           y="171.45003" />
        <path
           d="m 627.12498,176.21247 h 5.77922 v 0.77591 q -1.12374,0.74916 -2.19396,1.07023 v 17.20386 h -1.52507 l -9.71229,-14.74235 -1.04347,-2.08693 h -0.0803 l 0.24081,2.08693 v 12.70892 q 1.09698,0.29432 2.06018,0.93645 v 0.77591 h -5.77921 v -0.77591 q 0.4816,-0.29431 1.01671,-0.50835 0.56187,-0.2408 1.17725,-0.4281 v -15.33097 q -0.53512,-0.21404 -1.07023,-0.45484 -0.50835,-0.2408 -0.9632,-0.4816 v -0.74916 h 4.5217 l 8.42802,12.70892 1.23076,2.30098 h 0.10702 l -0.13378,-2.30098 v -10.86278 q -0.56186,-0.2408 -1.09698,-0.50835 -0.50836,-0.26757 -0.9632,-0.56188 z"
           id="text196-6"
           style="font-size:28.7853px;line-height:1.25;font-family:'PT Serif';-inkscape-font-specification:'PT Serif';fill:#6c5a57;fill-opacity:0.952941;stroke-width:0.557407"
           aria-label="N" />
      </g>
      <g
         id="g144">
        <rect
           style="fill:none;fill-opacity:0.952941;stroke:none;stroke-width:1.97048"
           id="rect20270-6-3-8-5-0-4-8-0-0"
           width="28.57489"
           height="28.57489"
           x="571.50006"
           y="171.45003" />
        <path
           d="m 578.64376,195.11947 v -0.77737 q 1.07224,-0.50931 2.19808,-0.64334 v -15.89584 q -0.53612,-0.10722 -1.09904,-0.26806 -0.56292,-0.18763 -1.09904,-0.40209 v -0.77736 h 2.84142 q 0.50931,0 0.96501,-0.0268 0.4825,-0.0268 0.99181,-0.0536 0.50931,-0.0268 1.09904,-0.0536 0.58973,-0.0268 1.34029,-0.0268 1.07224,0 2.17127,0.18764 1.12585,0.16084 2.01043,0.64334 0.9114,0.4825 1.47432,1.36709 0.56292,0.85779 0.56292,2.25169 0,0.69696 -0.21444,1.3939 -0.21445,0.69695 -0.67014,1.31348 -0.4289,0.58974 -1.09904,1.04543 -0.67015,0.4557 -1.58154,0.67015 v 0.10722 q 0.80417,0.13403 1.58154,0.4557 0.80417,0.32167 1.4207,0.88459 0.61653,0.53611 0.99182,1.34029 0.40209,0.80417 0.40209,1.93002 0,1.44751 -0.64334,2.49294 -0.64335,1.04542 -1.68877,1.71557 -1.01862,0.67015 -2.3321,0.99181 -1.31348,0.29487 -2.65378,0.29487 -0.9382,0 -2.11766,-0.0805 -1.17945,-0.0805 -2.27849,-0.0805 z m 7.15715,-1.23306 q 0.96501,0 1.79599,-0.29487 0.85778,-0.29487 1.44751,-0.80417 0.61654,-0.53612 0.96501,-1.25988 0.34848,-0.75056 0.34848,-1.60835 0,-1.07223 -0.4289,-1.76918 -0.40208,-0.72376 -1.12584,-1.12584 -0.69695,-0.4289 -1.63515,-0.58973 -0.9114,-0.16084 -1.90322,-0.16084 h -2.01042 v 7.3984 q 0.37527,0.10722 0.88458,0.16084 0.53612,0.0536 1.66196,0.0536 z m -1.20626,-9.00675 q 0.4557,0 1.07223,-0.0268 0.64334,-0.0536 1.04543,-0.10723 1.23306,-0.42889 2.01044,-1.36709 0.80417,-0.96501 0.80417,-2.25169 0,-1.76919 -1.07224,-2.65377 -1.04542,-0.8846 -2.8146,-0.8846 -0.83098,0 -1.42071,0.0268 -0.58973,0.0268 -0.965,0.0805 v 7.18395 z"
           id="text197-5"
           style="font-size:28.7853px;line-height:1.25;font-family:'PT Serif';-inkscape-font-specification:'PT Serif';fill:#6c5a57;fill-opacity:0.952941;stroke-width:0.558453"
           aria-label="B" />
      </g>
      <g
         id="g143">
        <rect
           style="fill:none;fill-opacity:0.952941;stroke:none;stroke-width:1.97048"
           id="rect20270-6-3-8-5-8-6-8-9-3-9"
           width="28.57489"
           height="28.57489"
           x="533.40009"
           y="171.45003" />
        <path
           d="m 553.11892,177.65728 q -0.64213,-0.13378 -1.204,-0.29432 -0.56187,-0.18729 -1.09698,-0.37458 v -0.77591 h 6.02002 v 0.77591 q -0.77592,0.42809 -1.9264,0.6689 l -6.04678,17.28412 -1.47155,0.32107 -6.8227,-17.60519 q -0.5351,-0.13378 -1.04346,-0.29432 -0.50835,-0.18729 -0.98996,-0.37458 v -0.77591 h 7.09024 v 0.77591 q -0.45484,0.18729 -1.01671,0.37458 -0.56187,0.16054 -1.17725,0.29432 l 4.57521,12.22731 0.56187,2.14045 h 0.0535 l 0.53511,-2.19396 z"
           id="text198-3"
           style="font-size:28.7853px;line-height:1.25;font-family:'PT Serif';-inkscape-font-specification:'PT Serif';fill:#6c5a57;fill-opacity:0.952941;stroke-width:0.557407"
           aria-label="V" />
      </g>
      <g
         id="g142">
        <rect
           style="fill:none;fill-opacity:0.952941;stroke:none;stroke-width:1.97048"
           id="rect20270-6-3-8-5-0-4-8-0-2"
           width="28.57489"
           height="28.57489"
           x="495.30011"
           y="171.45003" />
        <path
           d="m 515.59114,190.15794 h 0.68411 q 0.13156,0.73673 0.23681,1.86816 0.10524,1.10511 0.0526,2.1576 -0.39468,0.31574 -0.94724,0.52624 -0.55255,0.18418 -1.18405,0.31575 -0.60518,0.13155 -1.26298,0.18418 -0.63149,0.0526 -1.21035,0.0526 -2.21023,0 -3.94683,-0.55256 -1.73661,-0.57886 -2.94696,-1.7366 -1.18405,-1.15773 -1.84185,-2.94696 -0.6315,-1.81554 -0.6315,-4.28888 0,-2.57859 0.71043,-4.36782 0.71043,-1.81554 1.92079,-2.94696 1.21036,-1.15774 2.8154,-1.68398 1.60504,-0.52624 3.36796,-0.52624 1.7366,0 2.92064,0.2368 1.18405,0.21051 2.07867,0.65781 0,0.42099 -0.0263,0.99986 -0.0263,0.55256 -0.079,1.18405 -0.0527,0.63149 -0.13156,1.23667 -0.0789,0.60518 -0.15787,1.10511 h -0.68412 l -1.36823,-3.78895 q -0.28943,-0.15788 -0.97355,-0.2105 -0.6578,-0.0526 -1.3156,-0.0526 -1.31562,0 -2.49967,0.49993 -1.15773,0.47362 -2.05234,1.49979 -0.8683,0.99987 -1.39454,2.55229 -0.52625,1.5261 -0.52625,3.60477 0,1.86815 0.47362,3.39426 0.47362,1.49979 1.36824,2.57859 0.89461,1.05249 2.18391,1.63136 1.28928,0.55255 2.92064,0.55255 0.86831,0 1.44717,-0.13156 0.57887,-0.13156 0.76306,-0.34206 z"
           id="text199-5"
           style="font-size:28.7853px;line-height:1.25;font-family:'PT Serif';-inkscape-font-specification:'PT Serif';fill:#6c5a57;fill-opacity:0.952941;stroke-width:0.548168"
           aria-label="C" />
      </g>
      <g
         id="g141">
        <rect
           style="fill:none;fill-opacity:0.952941;stroke:none;stroke-width:1.97048"
           id="rect20270-6-3-8-5-8-4-0-2-9"
           width="28.57489"
           height="28.57489"
           x="457.20013"
           y="171.45003" />
        <path
           d="m 473.10683,176.21247 h 6.25928 v 0.78921 q -0.46264,0.1905 -0.97971,0.38101 -0.51707,0.16328 -1.06136,0.29935 l -4.78971,7.37507 5.57893,8.763 q 1.30628,0.21771 2.23157,0.65315 v 0.78921 h -7.239 v -0.78921 q 0.97971,-0.48986 2.06828,-0.65315 l -4.29985,-6.83078 -4.13657,6.85799 q 0.5715,0.0817 1.11578,0.21772 0.54428,0.10886 1.06136,0.40822 v 0.78921 h -6.2865 v -0.78921 q 0.51707,-0.27215 1.00693,-0.40822 0.51707,-0.13607 1.00692,-0.24493 l 5.33401,-8.13707 -5.11629,-8.001 q -0.54428,-0.16329 -1.08857,-0.32657 -0.51707,-0.16329 -1.06135,-0.35379 v -0.78921 h 7.21178 v 0.78921 q -0.40822,0.16329 -0.92529,0.32658 -0.48986,0.16328 -1.143,0.35378 l 3.81,6.15043 3.70114,-6.15043 q -1.11578,-0.24493 -2.25878,-0.68036 z"
           id="text200-7"
           style="font-size:28.7853px;line-height:1.25;font-family:'PT Serif';-inkscape-font-specification:'PT Serif';fill:#6c5a57;fill-opacity:0.952941;stroke-width:0.566963"
           aria-label="X" />
      </g>
      <g
         id="g140">
        <rect
           style="fill:none;fill-opacity:0.952941;stroke:none;stroke-width:1.97048"
           id="rect20270-6-3-8-5-9-9-9-7"
           width="28.57489"
           height="28.57489"
           x="419.1001"
           y="171.45003" />
        <path
           d="m 439.59914,190.03732 h 0.70756 q 0.0817,0.54429 0.13608,1.22465 0.0817,0.68035 0.10885,1.38793 0.0545,0.70757 0.0545,1.38792 0.0272,0.68036 0,1.22465 h -14.45078 v -1.38793 l 11.32114,-16.24692 h -8.382 l -1.66007,3.80999 h -0.68035 q -0.0817,-0.57149 -0.1633,-1.25186 -0.0545,-0.68035 -0.10885,-1.38793 -0.0272,-0.70756 -0.0545,-1.36071 0,-0.68035 0,-1.22464 h 13.9065 v 1.41515 l -11.26671,16.2197 h 8.87185 z"
           id="text201-6"
           style="font-size:28.7853px;line-height:1.25;font-family:'PT Serif';-inkscape-font-specification:'PT Serif';fill:#6c5a57;fill-opacity:0.952941;stroke-width:0.566963"
           aria-label="Z" />
      </g>
      <g
         id="g139">
        <rect
           style="fill:none;fill-opacity:0.952941;stroke:none;stroke-width:1.97048"
           id="rect20270-6-3-8-3-2-0-7-2-0"
           width="28.574926"
           height="28.574926"
           x="723.90009"
           y="133.35001" />
        <path
           d="m 731.32329,138.10379 h 7.4635 v 0.78993 q -0.65374,0.24515 -1.30748,0.43583 -0.65373,0.16343 -1.30747,0.24514 v 16.18001 h 6.26499 l 1.6071,-4.38548 h 0.70822 q 0.0818,0.57202 0.1362,1.33471 0.0817,0.73545 0.10895,1.55263 0.0545,0.78993 0.0545,1.55262 0,0.7627 -0.0272,1.36196 h -13.70125 v -0.78994 q 0.65373,-0.29962 1.19851,-0.43582 0.54479,-0.1362 1.03509,-0.21791 v -16.15278 q -0.6265,-0.10895 -1.19852,-0.27238 -0.57202,-0.19068 -1.03508,-0.40859 z"
           id="text202-7"
           style="font-size:28.7853px;line-height:1.25;font-family:'PT Serif';-inkscape-font-specification:'PT Serif';fill:#6c5a57;fill-opacity:0.952941;stroke-width:0.567479"
           aria-label="L" />
      </g>
      <g
         id="g138">
        <rect
           style="fill:none;fill-opacity:0.952941;stroke:none;stroke-width:1.97048"
           id="rect20270-6-3-8-59-59-1-1-5-8"
           width="28.574926"
           height="28.574926"
           x="685.80011"
           y="133.35001" />
        <path
           d="m 701.29861,138.11247 h 6.01436 v 0.78921 q -0.54428,0.24493 -1.06135,0.40822 -0.51708,0.16328 -1.00694,0.27214 l -5.47007,7.239 q 0.68036,0.89807 1.55122,2.01386 0.89807,1.11578 1.85057,2.31321 0.97971,1.17021 1.98664,2.39485 1.03414,1.19744 2.01386,2.28601 l 1.30628,0.65314 v 0.68036 h -3.40178 l -0.92529,-0.65315 q -1.60565,-1.87778 -3.21129,-4.05493 -1.57843,-2.17713 -3.07521,-4.40871 h -1.3335 v 7.67443 q 1.25186,0.21771 2.04107,0.65314 v 0.78922 h -6.88521 v -0.78922 q 1.08857,-0.43543 2.23157,-0.65314 v -16.13807 q -1.22464,-0.16329 -2.23157,-0.68036 v -0.78921 h 6.88521 v 0.78921 q -0.43542,0.1905 -0.95249,0.38101 -0.51708,0.16328 -1.08858,0.29935 v 7.53835 l 1.63286,-0.38099 5.08907,-7.15736 q -0.54428,-0.13607 -1.03414,-0.29935 -0.48986,-0.1633 -0.92529,-0.38101 z"
           id="text203-2"
           style="font-size:28.7853px;line-height:1.25;font-family:'PT Serif';-inkscape-font-specification:'PT Serif';fill:#6c5a57;fill-opacity:0.952941;stroke-width:0.566963"
           aria-label="K" />
      </g>
      <g
         id="g137">
        <rect
           style="fill:none;fill-opacity:0.952941;stroke:none;stroke-width:1.97048"
           id="rect20270-6-3-8-0-7-2-3-98"
           width="28.574926"
           height="28.574926"
           x="647.70007"
           y="133.35001" />
        <path
           d="m 658.93991,138.1125 h 6.56413 v 0.74944 q -0.46519,0.20675 -0.95619,0.38765 -0.49103,0.15506 -1.00788,0.25843 v 14.47209 q 0,1.80901 -0.41349,2.97195 -0.4135,1.16293 -1.03373,1.86069 -0.59439,0.7236 -1.29214,1.05957 -0.67193,0.33596 -1.24048,0.46518 l -0.28426,-0.38765 q 0.38765,-0.33596 0.69775,-0.77529 0.33597,-0.4135 0.56855,-1.05957 0.25844,-0.64607 0.38765,-1.57642 0.12922,-0.93035 0.12922,-2.27419 v -14.75636 q -0.56854,-0.1292 -1.11126,-0.28426 -0.54271,-0.15507 -1.00787,-0.36182 z"
           id="text204-1"
           style="font-size:28.7853px;line-height:1.25;font-family:'PT Serif';-inkscape-font-specification:'PT Serif';fill:#6c5a57;fill-opacity:0.952941;stroke-width:0.538394"
           aria-label="J" />
      </g>
      <g
         id="g136">
        <rect
           style="fill:none;fill-opacity:0.952941;stroke:none;stroke-width:1.97048"
           id="rect20270-6-3-8-59-7-4-7-9-9"
           width="28.574926"
           height="28.574926"
           x="609.6001"
           y="133.35001" />
        <path
           d="m 621.65599,157.16247 h -6.88521 v -0.78922 q 1.08857,-0.43543 2.23157,-0.65314 v -16.13807 q -1.27908,-0.1905 -2.23157,-0.68036 v -0.78921 h 6.88521 v 0.78921 q -0.46264,0.24493 -0.97971,0.40822 -0.51708,0.16328 -1.06136,0.27214 v 7.10293 h 8.54528 v -7.10293 q -0.5715,-0.13607 -1.08857,-0.29935 -0.48985,-0.1633 -0.95249,-0.38101 v -0.78921 h 6.88521 v 0.78921 q -0.48986,0.27215 -1.08858,0.43543 -0.5715,0.13607 -1.143,0.24493 v 16.13807 q 0.62593,0.10886 1.19743,0.27214 0.57151,0.16329 1.03415,0.381 v 0.78922 h -6.88521 v -0.78922 q 0.97971,-0.43543 2.04106,-0.65314 v -7.62 h -8.54528 v 7.62 q 0.54428,0.10886 1.06136,0.27214 0.51707,0.16329 0.97971,0.381 z"
           id="text205-9"
           style="font-size:28.7853px;line-height:1.25;font-family:'PT Serif';-inkscape-font-specification:'PT Serif';fill:#6c5a57;fill-opacity:0.952941;stroke-width:0.566963"
           aria-label="H" />
      </g>
      <g
         id="g135">
        <rect
           style="fill:none;fill-opacity:0.952941;stroke:none;stroke-width:1.97048"
           id="rect20270-6-3-8-3-2-0-7-5"
           width="28.574926"
           height="28.574926"
           x="571.50006"
           y="133.35001" />
        <path
           d="m 592.28665,155.58374 q -0.49994,0.28943 -1.18405,0.57887 -0.65781,0.26312 -1.42086,0.49993 -0.73674,0.21049 -1.4998,0.34206 -0.73674,0.15787 -1.39454,0.15787 -2.10497,0 -3.78895,-0.55256 -1.68398,-0.57887 -2.86803,-1.7366 -1.18404,-1.18405 -1.84185,-2.97327 -0.63149,-1.78923 -0.63149,-4.26258 0,-2.57859 0.73674,-4.39412 0.76305,-1.81554 1.99972,-2.94697 1.26299,-1.15773 2.84172,-1.65766 1.60504,-0.52624 3.26271,-0.52624 1.7366,0 2.92065,0.2368 1.21036,0.21051 2.10498,0.65781 0,0.39468 -0.0263,0.97355 -0.0263,0.57887 -0.079,1.21036 -0.0526,0.63149 -0.13155,1.26298 -0.079,0.60518 -0.15787,1.0788 h -0.68412 l -1.36824,-3.78895 q -0.28943,-0.15788 -0.97354,-0.2105 -0.68412,-0.0526 -1.34192,-0.0526 -1.31561,0 -2.49966,0.49993 -1.18405,0.47362 -2.07867,1.49979 -0.86829,0.99986 -1.39454,2.55229 -0.52624,1.5261 -0.52624,3.60476 0,1.86816 0.49993,3.36796 0.52624,1.49979 1.42085,2.57859 0.92093,1.05248 2.13129,1.63135 1.23667,0.57887 2.65753,0.57887 0.52624,0 1.02618,-0.10525 0.49993,-0.10525 0.92092,-0.23681 0.421,-0.15787 0.68412,-0.31575 0.28943,-0.15787 0.39468,-0.26312 v -5.31505 q -0.68412,-0.0526 -1.31561,-0.23681 -0.60518,-0.18418 -1.21036,-0.39469 v -0.76305 h 6.44648 v 0.76305 q -0.26312,0.18419 -0.63149,0.34206 -0.36837,0.15787 -0.99986,0.28944 z"
           id="text206-2"
           style="font-size:28.7853px;line-height:1.25;font-family:'PT Serif';-inkscape-font-specification:'PT Serif';fill:#6c5a57;fill-opacity:0.952941;stroke-width:0.548168"
           aria-label="G" />
      </g>
      <g
         id="g134">
        <rect
           style="fill:none;fill-opacity:0.952941;stroke:none;stroke-width:1.97048"
           id="rect20270-6-3-8-59-7-4-7-9-8"
           width="28.574926"
           height="28.574926"
           x="533.40009"
           y="133.34999" />
        <path
           d="m 545.87615,155.72746 q 1.19852,0.16343 2.34256,0.65373 v 0.78994 h -6.91873 v -0.78994 q 0.46306,-0.21791 0.95337,-0.38134 0.49031,-0.16344 1.00785,-0.27239 v -16.15279 q -0.59926,-0.13618 -1.08957,-0.29962 -0.4903,-0.19067 -0.87165,-0.38135 v -0.78993 h 12.77513 q -0.0272,1.06233 -0.10895,2.17912 -0.0545,1.11681 -0.19068,2.23361 h -0.70822 l -1.11679,-2.9963 h -6.07432 v 7.76314 h 4.71236 l 1.11681,-2.01569 h 0.62649 q 0.0545,0.62649 0.0818,1.33471 0.0273,0.68098 0.0273,1.38919 0,0.73547 -0.0273,1.44367 -0.0272,0.70822 -0.0818,1.33472 h -0.62649 l -1.11681,-2.09741 h -4.71236 z"
           id="text207-6"
           style="font-size:28.7853px;line-height:1.25;font-family:'PT Serif';-inkscape-font-specification:'PT Serif';fill:#6c5a57;fill-opacity:0.952941;stroke-width:0.567479"
           aria-label="F" />
      </g>
      <g
         id="g133">
        <rect
           style="fill:none;fill-opacity:0.952941;stroke:none;stroke-width:1.97048"
           id="rect20270-6-3-8-3-2-0-7-2"
           width="28.574926"
           height="28.574926"
           x="495.30011"
           y="133.34999" />
        <path
           d="m 501.25818,156.92337 v -0.7705 q 0.92992,-0.4251 2.17866,-0.63765 v -15.75545 q -0.61109,-0.13284 -1.16904,-0.29225 -0.55795,-0.18599 -1.00962,-0.37197 v -0.7705 h 2.71004 q 0.45167,0 1.06276,-0.0266 0.61109,-0.0266 1.24875,-0.0532 0.66422,-0.0532 1.24874,-0.0796 0.61109,-0.0532 1.00962,-0.0532 4.51674,0 6.93452,2.41778 2.44435,2.41778 2.44435,6.85481 0,2.09895 -0.61108,3.90564 -0.58453,1.78013 -1.8067,3.08202 -1.22217,1.30188 -3.10857,2.04581 -1.85984,0.74394 -4.41046,0.74394 -0.39854,0 -0.90335,-0.0532 -0.50481,-0.0266 -1.06276,-0.0797 -0.55795,-0.0266 -1.14247,-0.0798 -0.55795,-0.0266 -1.06276,-0.0266 z m 6.90795,-17.42929 q -0.6908,0 -1.32846,0.0266 -0.63765,0 -1.00962,0.0796 v 16.10084 q 0.13285,0.0266 0.47825,0.0532 0.3454,0 0.74393,0.0266 0.39853,0 0.74393,0 0.37197,0 0.53138,0 1.83327,0 3.10858,-0.69079 1.27531,-0.6908 2.07238,-1.83326 0.82365,-1.16905 1.19561,-2.68348 0.37197,-1.51443 0.37197,-3.18828 0,-1.30188 -0.37197,-2.68347 -0.3454,-1.40816 -1.16903,-2.55063 -0.79708,-1.16904 -2.12553,-1.91297 -1.32845,-0.74394 -3.24142,-0.74394 z"
           id="text208-5"
           style="font-size:28.7853px;line-height:1.25;font-family:'PT Serif';-inkscape-font-specification:'PT Serif';fill:#6c5a57;fill-opacity:0.952941;stroke-width:0.55352"
           aria-label="D" />
      </g>
      <g
         id="g132">
        <rect
           style="fill:none;fill-opacity:0.952941;stroke:none;stroke-width:1.97048"
           id="rect20270-6-3-8-59-59-1-1-5"
           width="28.574926"
           height="28.574926"
           x="457.20013"
           y="133.34999" />
        <path
           d="m 468.30389,155.03116 q 0.31574,0.31575 0.81567,0.55256 0.49993,0.2105 1.49979,0.2105 0.84199,0 1.57873,-0.2105 0.73675,-0.23681 1.26299,-0.6578 0.55256,-0.44731 0.8683,-1.05249 0.31574,-0.63149 0.31574,-1.42086 0,-1.05248 -0.6578,-1.76291 -0.63149,-0.71043 -1.60504,-1.26299 -0.94724,-0.55255 -2.07866,-1.07879 -1.13143,-0.52625 -2.10497,-1.23667 -0.94724,-0.73674 -1.60505,-1.73661 -0.63148,-1.02617 -0.63148,-2.55228 0,-1.10511 0.39467,-1.97341 0.39468,-0.8683 1.10512,-1.47348 0.73674,-0.60518 1.7366,-0.92093 0.99986,-0.34205 2.23653,-0.34205 1.60504,0 2.92066,0.26312 1.34192,0.23681 2.10497,0.60518 0,0.4473 -0.079,1.05248 -0.0527,0.57887 -0.15787,1.21037 -0.079,0.63148 -0.18419,1.23666 -0.10525,0.57887 -0.2105,1.02618 h -0.68411 l -1.05249,-3.60476 q -0.47361,-0.21051 -1.21035,-0.31576 -0.71043,-0.10524 -1.52611,-0.10524 -1.34192,0 -2.1576,0.76305 -0.81568,0.73674 -0.81568,2.07866 0,1.0788 0.6315,1.81554 0.6578,0.73674 1.63135,1.31561 0.97355,0.57887 2.07866,1.13142 1.13143,0.52625 2.10497,1.23667 0.97356,0.71043 1.60504,1.68398 0.65781,0.97356 0.65781,2.42072 0,1.18405 -0.4473,2.1576 -0.421,0.97355 -1.23668,1.65767 -0.81568,0.68411 -1.99972,1.05248 -1.18405,0.36837 -2.68385,0.36837 -1.65766,0 -2.97326,-0.39468 -1.31562,-0.39469 -1.86817,-0.84199 0.0263,-0.44731 0.079,-1.0788 0.0789,-0.63149 0.15787,-1.28929 0.10525,-0.68412 0.21049,-1.31561 0.10525,-0.6315 0.2105,-1.07881 h 0.68412 z"
           id="text209-3"
           style="font-size:28.7853px;line-height:1.25;font-family:'PT Serif';-inkscape-font-specification:'PT Serif';fill:#6c5a57;fill-opacity:0.952941;stroke-width:0.548168"
           aria-label="S" />
      </g>
      <g
         id="g131">
        <rect
           style="fill:none;fill-opacity:0.952941;stroke:none;stroke-width:1.97048"
           id="rect20270-6-3-8-0-7-2-3"
           width="28.574926"
           height="28.574926"
           x="419.1001"
           y="133.34999" />
        <path
           d="m 430.19027,157.16245 h -5.93975 v -0.77592 q 0.9632,-0.42809 1.9264,-0.64213 l 6.76917,-17.63195 h 0.77592 l 6.76917,17.63195 q 0.53511,0.10702 1.04348,0.2408 0.5351,0.13378 0.98995,0.40133 v 0.77592 h -6.84943 v -0.77592 q 0.5351,-0.21404 1.09697,-0.37457 0.56187,-0.16054 1.09698,-0.26756 l -1.81938,-4.89628 h -6.3946 l -1.76587,4.89628 q 1.12375,0.16053 2.30099,0.64213 z m 0,-7.70562 h 5.40464 l -2.1137,-5.67219 -0.50836,-2.30099 h -0.0535 l -0.66889,2.3545 z"
           id="text210-5"
           style="font-size:28.7853px;line-height:1.25;font-family:'PT Serif';-inkscape-font-specification:'PT Serif';fill:#6c5a57;fill-opacity:0.952941;stroke-width:0.557407"
           aria-label="A" />
      </g>
      <g
         id="g230">
        <rect
           style="fill:none;fill-opacity:0.952941;stroke:none;stroke-width:1.97048"
           id="rect20270-6-3-8-59-7-4-7-9-8-8-3"
           width="28.574926"
           height="28.574926"
           x="762.00006"
           y="95.25" />
        <path
           d="m 773.97353,117.6364 q 0.72648,0.0808 1.37225,0.26907 0.64576,0.16144 1.2108,0.37669 v 0.7803 h -7.37245 v -0.7803 q 0.53813,-0.26907 1.10317,-0.40361 0.56505,-0.13452 1.10318,-0.24215 v -15.95572 q -0.61885,-0.10763 -1.15699,-0.26906 -0.53813,-0.18835 -1.04936,-0.40361 v -0.78029 h 2.4216 q 1.07628,0 2.3409,-0.10762 1.26461,-0.10764 2.4216,-0.10764 1.31843,0 2.58305,0.29598 1.26462,0.26907 2.23327,0.94174 0.99555,0.67266 1.58749,1.80275 0.61887,1.10318 0.61887,2.7714 0,1.58749 -0.61887,2.71758 -0.61885,1.13009 -1.66821,1.85657 -1.02246,0.72648 -2.3409,1.07627 -1.31843,0.32288 -2.71758,0.32288 -0.13453,0 -0.43051,0 -0.26906,0 -0.59194,0 -0.32289,-0.0269 -0.61886,-0.0538 -0.29597,-0.0269 -0.43051,-0.0538 z m 1.82966,-16.22478 q -0.64576,0 -1.04937,0.0269 -0.4036,0.0269 -0.78029,0.10762 v 8.71779 q 0.13454,0.0538 0.37669,0.0808 0.26908,0 0.53814,0.0269 0.29598,0.0269 0.56504,0.0269 0.26908,0 0.43052,0 0.94173,0 1.77584,-0.24216 0.83411,-0.26907 1.45296,-0.83411 0.64577,-0.56504 1.02246,-1.42606 0.3767,-0.86101 0.3767,-2.07182 0,-2.20636 -1.26462,-3.30953 -1.23771,-1.10318 -3.44407,-1.10318 z"
           id="text211-6"
           style="font-size:28.7853px;line-height:1.25;font-family:'PT Serif';-inkscape-font-specification:'PT Serif';fill:#6c5a57;fill-opacity:0.952941;stroke-width:0.560556"
           aria-label="P" />
      </g>
      <g
         id="g229">
        <rect
           style="fill:none;fill-opacity:0.952941;stroke:none;stroke-width:1.97048"
           id="rect20270-6-3-8-3-2-0-7-2-8-6"
           width="28.574926"
           height="28.574926"
           x="723.90002"
           y="95.25" />
        <path
           d="m 729.84654,109.53746 q 0,-2.05235 0.55255,-3.78895 0.57887,-1.76292 1.63136,-3.02589 1.07879,-1.2893 2.63121,-1.99973 1.55242,-0.71043 3.52583,-0.71043 1.97341,0 3.52583,0.71043 1.55241,0.71043 2.6049,1.99973 1.0788,1.26297 1.63135,3.02589 0.57887,1.7366 0.57887,3.78895 0,2.05235 -0.57887,3.81526 -0.55255,1.7366 -1.63135,3.0259 -1.05249,1.26298 -2.6049,1.97341 -1.55242,0.71043 -3.52583,0.71043 -1.97341,0 -3.52583,-0.71043 -1.55242,-0.71043 -2.63121,-1.97341 -1.05249,-1.2893 -1.63136,-3.0259 -0.55255,-1.76291 -0.55255,-3.81526 z m 2.81539,0 q 0,1.68398 0.34206,3.18377 0.36838,1.47348 1.0788,2.57859 0.71043,1.10511 1.78923,1.76292 1.0788,0.63148 2.55228,0.63148 1.34192,0 2.34178,-0.63148 0.99986,-0.65781 1.63136,-1.76292 0.6578,-1.10511 0.97354,-2.57859 0.34206,-1.49979 0.34206,-3.18377 0,-1.68398 -0.34206,-3.15745 -0.34206,-1.4998 -1.05248,-2.60491 -0.71043,-1.10511 -1.78923,-1.7366 -1.0788,-0.6578 -2.55227,-0.6578 -1.44718,0 -2.47335,0.6578 -0.99986,0.63149 -1.63135,1.7366 -0.6315,1.10511 -0.92093,2.60491 -0.28944,1.47347 -0.28944,3.15745 z"
           id="text212-8"
           style="font-size:28.7853px;line-height:1.25;font-family:'PT Serif';-inkscape-font-specification:'PT Serif';fill:#6c5a57;fill-opacity:0.952941;stroke-width:0.548168"
           aria-label="O" />
      </g>
      <g
         id="g228">
        <rect
           style="fill:none;fill-opacity:0.952941;stroke:none;stroke-width:1.97048"
           id="rect20270-6-3-8-59-59-1-1-5-0-7"
           width="28.574926"
           height="28.574926"
           x="685.80005"
           y="95.25" />
        <path
           d="m 703.57094,119.06246 h -6.96685 v -0.78922 q 1.06135,-0.48985 2.17714,-0.65314 v -16.13807 q -0.54429,-0.10886 -1.08857,-0.27214 -0.54429,-0.19051 -1.08857,-0.40822 v -0.78921 h 6.96685 v 0.78921 q -0.48985,0.21771 -1.06135,0.40822 -0.57151,0.16328 -1.11579,0.27214 v 16.13807 q 0.5715,0.10886 1.143,0.27214 0.5715,0.16329 1.03414,0.381 z"
           id="text213-7"
           style="font-size:28.7853px;line-height:1.25;font-family:'PT Serif';-inkscape-font-specification:'PT Serif';fill:#6c5a57;fill-opacity:0.952941;stroke-width:0.566963"
           aria-label="I" />
      </g>
      <g
         id="g227">
        <rect
           style="fill:none;fill-opacity:0.952941;stroke:none;stroke-width:1.97048"
           id="rect20270-6-3-8-0-7-2-3-9-4"
           width="28.574926"
           height="28.574926"
           x="647.70001"
           y="95.25" />
        <path
           d="m 653.19378,99.975 h 6.85153 v 0.78226 q -0.51251,0.21579 -1.02503,0.37764 -0.51251,0.16185 -1.02503,0.29672 v 11.03258 q 0,1.42965 0.29672,2.40073 0.32369,0.94411 0.91714,1.53755 0.59343,0.56647 1.45661,0.83621 0.89017,0.24278 1.99612,0.24278 2.13099,0 3.31787,-1.15991 1.18688,-1.18688 1.18688,-3.88433 v -10.76284 q -0.62042,-0.21579 -1.15991,-0.43159 -0.53948,-0.24277 -0.97108,-0.48554 V 99.975 h 5.74557 v 0.78226 q -0.51251,0.29672 -1.05201,0.53949 -0.51251,0.24277 -1.052,0.37764 v 10.81679 q 0,1.72637 -0.45856,2.96719 -0.45857,1.24083 -1.29479,2.05006 -0.80923,0.80924 -1.99611,1.21386 -1.15991,0.37764 -2.58955,0.37764 -3.37182,0 -5.15214,-1.51057 -1.78031,-1.53754 -1.78031,-4.69356 v -11.46418 q -1.10596,-0.16185 -2.21192,-0.67436 z"
           id="text214-4"
           style="font-size:28.7853px;line-height:1.25;font-family:'PT Serif';-inkscape-font-specification:'PT Serif';fill:#6c5a57;fill-opacity:0.952941;stroke-width:0.561968"
           aria-label="U" />
      </g>
      <g
         id="g226">
        <rect
           style="fill:none;fill-opacity:0.952941;stroke:none;stroke-width:1.97048"
           id="rect20270-6-3-8-59-7-4-7-9-3-4"
           width="28.574926"
           height="28.574926"
           x="609.6001"
           y="95.25" />
        <path
           d="m 626.65336,100.04697 h 5.96545 v 0.78635 q -1.0304,0.5152 -2.06079,0.67789 l -5.12486,9.43626 v 6.64335 q 1.05751,0.13557 2.06079,0.65077 v 0.78636 h -6.88738 v -0.78636 q 0.97616,-0.48808 2.22348,-0.65077 v -6.61623 l -5.47737,-9.46338 q -0.62366,-0.10846 -1.16598,-0.27115 -0.51519,-0.18982 -1.03039,-0.40674 v -0.78635 h 7.18566 v 0.78635 q -0.40673,0.16269 -0.92193,0.35251 -0.5152,0.16269 -1.16598,0.32538 l 4.44698,7.97201 4.1758,-7.97201 q -0.62365,-0.13557 -1.19308,-0.29827 -0.54232,-0.18981 -1.0304,-0.37962 z"
           id="text215-2"
           style="font-size:28.7853px;line-height:1.25;font-family:'PT Serif';-inkscape-font-specification:'PT Serif';fill:#6c5a57;fill-opacity:0.952941;stroke-width:0.564908"
           aria-label="Y" />
      </g>
      <g
         id="g225">
        <rect
           style="fill:none;fill-opacity:0.952941;stroke:none;stroke-width:1.97048"
           id="rect20270-6-3-8-3-2-0-7-29-4"
           width="28.574926"
           height="28.574926"
           x="571.50006"
           y="95.25" />
        <path
           d="m 589.61119,119.06246 h -7.64721 v -0.78922 q 0.59871,-0.21771 1.19743,-0.381 0.62593,-0.16328 1.3335,-0.27214 v -16.1925 h -4.16379 l -1.44236,3.89164 h -0.68035 q -0.0816,-0.54429 -0.13608,-1.22464 -0.0545,-0.70758 -0.10886,-1.41514 -0.0272,-0.73479 -0.0545,-1.41515 -0.0272,-0.70757 -0.0272,-1.25185 h 15.8115 q 0,0.54428 -0.0272,1.22464 -0.0272,0.68036 -0.0817,1.41514 -0.0272,0.70758 -0.0817,1.41515 -0.0272,0.68035 -0.10885,1.25185 h -0.70758 l -1.41513,-3.89164 h -4.1638 v 16.1925 q 0.70758,0.13607 1.30629,0.27214 0.62593,0.13608 1.19743,0.381 z"
           id="text216-1"
           style="font-size:28.7853px;line-height:1.25;font-family:'PT Serif';-inkscape-font-specification:'PT Serif';fill:#6c5a57;fill-opacity:0.952941;stroke-width:0.566963"
           aria-label="T" />
      </g>
      <g
         id="g224">
        <rect
           style="fill:none;fill-opacity:0.952941;stroke:none;stroke-width:1.97048"
           id="rect20270-6-3-8-59-7-4-7-9-8-8"
           width="28.574926"
           height="28.574926"
           x="533.40009"
           y="95.25" />
        <path
           d="m 544.43182,117.6364 q 0.61886,0.13453 1.18391,0.29597 0.56504,0.13454 1.10317,0.34979 v 0.7803 h -7.07648 v -0.7803 q 0.59195,-0.26907 1.13008,-0.40361 0.53814,-0.13452 1.07627,-0.24215 v -15.95572 q -0.69957,-0.13453 -1.23771,-0.29598 -0.53814,-0.18834 -0.96864,-0.37669 v -0.78029 h 2.3678 q 1.07627,0 2.34089,-0.10762 1.29152,-0.10764 2.50232,-0.10764 1.31844,0 2.44852,0.29598 1.15699,0.29597 1.9911,0.94174 0.83411,0.64576 1.29153,1.64131 0.48431,0.99555 0.48431,2.3947 0,1.96419 -1.04935,3.25572 -1.02246,1.29153 -2.79831,1.85657 1.15699,1.82966 2.42161,3.63241 1.26461,1.80275 2.63686,3.5786 l 1.45297,0.78029 v 0.67268 h -3.25572 l -1.02246,-0.75339 q -0.75339,-0.94174 -1.37224,-1.82966 -0.61886,-0.91483 -1.15699,-1.82966 -0.53814,-0.94174 -1.02246,-1.88347 -0.45741,-0.96865 -0.94174,-2.04493 h -2.52924 z m 1.82966,-16.22478 q -0.64575,0 -1.07627,0.0269 -0.4036,0.0269 -0.75339,0.10762 v 8.04512 h 1.93729 q 1.85657,0 2.93284,-1.18389 1.10318,-1.18391 1.10318,-3.12119 0,-1.9911 -1.157,-2.93283 -1.15699,-0.94174 -2.98665,-0.94174 z"
           id="text217-8"
           style="font-size:28.7853px;line-height:1.25;font-family:'PT Serif';-inkscape-font-specification:'PT Serif';fill:#6c5a57;fill-opacity:0.952941;stroke-width:0.560556"
           aria-label="R" />
      </g>
      <g
         id="g223">
        <rect
           style="fill:none;fill-opacity:0.952941;stroke:none;stroke-width:1.97048"
           id="rect20270-6-3-8-3-2-0-7-2-8"
           width="28.574926"
           height="28.574926"
           x="495.30008"
           y="95.25" />
        <path
           d="m 515.7735,100.00382 q -0.0273,1.08955 -0.10896,2.20636 -0.0545,1.08955 -0.19067,2.20635 h -0.70822 l -1.11679,-2.99629 h -5.93811 v 7.21834 h 4.43996 l 1.06232,-2.0157 h 0.68097 q 0.16344,2.69667 0,5.50229 h -0.68097 l -1.06232,-2.07017 h -4.43996 v 7.59968 h 6.26497 l 1.33471,-3.26867 h 0.68098 q 0.19067,1.14403 0.27239,2.31531 0.0817,1.17127 0.0273,2.36979 h -13.42886 v -0.78994 q 0.95335,-0.43582 2.23359,-0.65373 v -16.15272 q -0.54478,-0.10896 -1.11679,-0.27239 -0.57203,-0.19067 -1.1168,-0.40858 v -0.78993 z"
           id="text218-2"
           style="font-size:28.7853px;line-height:1.25;font-family:'PT Serif';-inkscape-font-specification:'PT Serif';fill:#6c5a57;fill-opacity:0.952941;stroke-width:0.567477"
           aria-label="E" />
      </g>
      <g
         id="g222">
        <rect
           style="fill:none;fill-opacity:0.952941;stroke:none;stroke-width:1.97048"
           id="rect20270-6-3-8-59-59-1-1-5-0"
           width="28.574926"
           height="28.574926"
           x="457.2001"
           y="95.25" />
        <path
           d="m 480.43467,101.32461 q -0.57109,-0.0816 -1.14219,-0.24474 -0.5711,-0.19037 -1.19657,-0.43512 v -0.788657 h 6.09166 v 0.788657 q -0.92463,0.40791 -1.95805,0.67986 l -4.54155,17.56788 -1.68607,0.32634 -4.37837,-14.79401 -4.29679,14.46767 -1.65887,0.32634 -4.81351,-17.89422 q -0.54389,-0.13597 -1.06058,-0.29915 -0.51671,-0.16315 -1.00621,-0.38071 v -0.788657 h 7.07065 v 0.788657 q -0.5167,0.19036 -1.06059,0.38071 -0.54391,0.16318 -1.16937,0.29915 l 2.69227,10.95953 0.59829,3.53534 h 0.0545 l 0.95185,-3.58973 3.67129,-12.373657 h 0.92463 l 3.94325,12.373657 0.78864,3.53535 h 0.0545 l 0.62548,-3.58974 z"
           id="text219-9"
           style="font-size:28.7853px;line-height:1.25;font-family:'PT Serif';-inkscape-font-specification:'PT Serif';fill:#6c5a57;fill-opacity:0.952941;stroke-width:0.566558"
           aria-label="W" />
      </g>
      <g
         id="g221">
        <rect
           style="fill:none;fill-opacity:0.952941;stroke:none;stroke-width:1.97048"
           id="rect20270-6-3-8-0-7-2-3-9"
           width="28.574926"
           height="28.574926"
           x="419.10007"
           y="95.25" />
        <path
           d="m 442.91251,120.70838 q -1.0778,0.97002 -2.20948,1.64363 -1.13169,0.70055 -2.42504,0.67361 -1.10474,0 -2.31726,-0.40416 -1.21252,-0.40417 -2.5867,-0.97002 -1.37418,-0.56584 -2.93699,-1.18557 -1.53586,-0.61972 -3.34115,-1.07778 l 0.80835,-0.53889 q 0.59278,-0.0808 1.15862,-0.0808 1.34724,0 2.64059,0.32335 1.3203,0.32333 2.64058,0.70057 1.3203,0.37722 2.66755,0.70055 1.34724,0.32336 2.74838,0.32336 0.72749,0 1.48196,-0.10782 0.75446,-0.10782 1.53586,-0.37724 z m -19.05,-12.52934 q 0,-2.1017 0.56584,-3.88006 0.59278,-1.80531 1.67057,-3.09865 1.10475,-1.320306 2.69448,-2.047809 1.58976,-0.727522 3.61061,-0.727522 2.02087,0 3.61061,0.727522 1.58976,0.727503 2.66755,2.047809 1.10473,1.29334 1.67057,3.09865 0.59279,1.77836 0.59279,3.88006 0,2.1017 -0.59279,3.907 -0.56584,1.77835 -1.67057,3.09864 -1.07779,1.29335 -2.66755,2.02087 -1.58974,0.72751 -3.61061,0.72751 -2.02085,0 -3.61061,-0.72751 -1.58973,-0.72752 -2.69448,-2.02087 -1.07779,-1.32029 -1.67057,-3.09864 -0.56584,-1.8053 -0.56584,-3.907 z m 2.8831,0 q 0,1.72447 0.35028,3.26031 0.37721,1.50892 1.10474,2.6406 0.7275,1.13167 1.83225,1.80532 1.10472,0.64665 2.61364,0.64665 1.37419,0 2.39809,-0.64665 1.02391,-0.67365 1.67058,-1.80532 0.67361,-1.13168 0.99697,-2.6406 0.35026,-1.53584 0.35026,-3.26031 0,-1.72448 -0.35026,-3.23338 -0.35029,-1.53586 -1.07781,-2.66754 -0.7275,-1.13167 -1.83224,-1.77837 -1.10473,-0.67363 -2.61364,-0.67363 -1.48197,0 -2.53282,0.67363 -1.02391,0.6467 -1.67059,1.77837 -0.64667,1.13168 -0.94305,2.66754 -0.2964,1.5089 -0.2964,3.23338 z"
           id="text220-2"
           style="font-size:28.7853px;line-height:1.25;font-family:'PT Serif';-inkscape-font-specification:'PT Serif';fill:#6c5a57;fill-opacity:0.952941;stroke-width:0.561348"
           aria-label="Q" />
      </g>
      <g
         id="g176">
        <rect
           style="fill:none;fill-opacity:0.952941;stroke:none;stroke-width:1.97048"
           id="rect20270-6-3-8-59-7-4-7-9-3-4-2"
           width="28.574926"
           height="28.574926"
           x="800.09998"
           y="57.150002" />
        <g
           id="g156"
           transform="matrix(0.55555553,0,0,0.55555553,376.7667,-80.433321)">
          <path
             d="m 767.71499,276.18397 q 1.06506,-1.03627 1.98619,-2.36039 0.94991,-1.29534 1.64076,-2.90732 0.69085,-1.58319 1.09384,-3.45423 0.40299,-1.87105 0.40299,-4.02995 0,-2.21646 -0.3742,-3.97237 -0.37421,-1.7559 -1.03627,-3.22395 -0.66207,-1.46805 -1.61198,-2.7346 -0.94992,-1.26656 -2.10133,-2.47554 l 0.60449,-0.51813 q 1.46805,1.12262 2.73461,2.38917 1.29533,1.26656 2.24525,2.82096 0.94991,1.55441 1.49684,3.45424 0.54692,1.89983 0.54692,4.26022 0,2.38918 -0.51814,4.37537 -0.51813,1.9574 -1.43926,3.56938 -0.92113,1.64076 -2.21647,2.96488 -1.26656,1.35291 -2.76339,2.41797 z"
             id="text173-2"
             style="font-size:28.7853px;line-height:1.25;font-family:'PT Serif';-inkscape-font-specification:'PT Serif';fill:#6c5a57;fill-opacity:0.952941;stroke-width:0.599692"
             aria-label=")" />
        </g>
        <g
           id="g166"
           transform="matrix(0.83333342,0,0,0.83333342,169.86245,-112.71252)">
          <rect
             style="fill:none;fill-opacity:0.952941;stroke:none;stroke-width:1.97048"
             id="rect20270-43"
             width="28.574993"
             height="28.574993"
             x="762"
             y="209.55" />
          <path
             d="m 769.59492,223.8375 q 0,-5.18136 1.72712,-7.80082 1.72712,-2.61946 4.95107,-2.61946 3.48302,0 5.095,2.59068 1.61197,2.56189 1.61197,7.8296 0,5.18135 -1.7559,7.80081 -1.72712,2.61947 -5.12378,2.61947 -1.7559,0 -2.99367,-0.69085 -1.23777,-0.71963 -2.01497,-2.04376 -0.77721,-1.35291 -1.15142,-3.28152 -0.34542,-1.92862 -0.34542,-4.40415 z m 2.76339,0 q 0,2.07254 0.2015,3.77087 0.20149,1.69834 0.63327,2.9361 0.46057,1.20899 1.15142,1.87105 0.71963,0.66206 1.72711,0.66206 2.27404,0 3.19517,-2.24525 0.94992,-2.24526 0.94992,-6.99483 0,-2.07254 -0.17272,-3.77088 -0.17271,-1.69833 -0.63327,-2.90731 -0.46057,-1.20898 -1.23777,-1.87105 -0.74842,-0.66206 -1.89983,-0.66206 -2.1589,0 -3.05124,2.24526 -0.86356,2.21646 -0.86356,6.96604 z"
             id="text183-5"
             style="font-size:28.7853px;line-height:1.25;font-family:'PT Serif';-inkscape-font-specification:'PT Serif';fill:#6c5a57;fill-opacity:0.952941;stroke-width:0.599692"
             aria-label="0" />
        </g>
      </g>
      <g
         id="g175">
        <rect
           style="fill:none;fill-opacity:0.952941;stroke:none;stroke-width:1.97048"
           id="rect20270-6-3-8-59-7-4-7-92-1-8"
           width="28.574926"
           height="28.574926"
           x="762.00006"
           y="57.149986" />
        <g
           id="g155"
           transform="matrix(0.55555553,0,0,0.55555553,359.83334,-80.433321)">
          <path
             d="m 736.5523,276.75968 q -1.46805,-1.06506 -2.7346,-2.33161 -1.26656,-1.26655 -2.21647,-2.84975 -0.92113,-1.58319 -1.46805,-3.5118 -0.51814,-1.92862 -0.51814,-4.34658 0,-2.3604 0.54692,-4.26023 0.54692,-1.89983 1.49684,-3.48302 0.94991,-1.58319 2.21647,-2.90731 1.29533,-1.35291 2.76338,-2.56189 l 0.6045,0.51813 q -1.15142,1.23777 -2.10133,2.53311 -0.94992,1.29534 -1.64076,2.82096 -0.66207,1.52562 -1.03627,3.33909 -0.37421,1.78469 -0.37421,4.00116 0,2.15889 0.40299,4.00115 0.403,1.81348 1.09384,3.3391 0.71964,1.5544 1.64076,2.82096 0.94992,1.26655 2.01498,2.30282 z"
             id="text174-6"
             style="font-size:28.7853px;line-height:1.25;font-family:'PT Serif';-inkscape-font-specification:'PT Serif';fill:#6c5a57;fill-opacity:0.952941;stroke-width:0.599692"
             aria-label="(" />
        </g>
        <g
           id="g165"
           transform="matrix(0.83333356,0,0,0.83333356,163.51233,-112.71255)">
          <rect
             style="fill:none;fill-opacity:0.952941;stroke:none;stroke-width:1.97048"
             id="rect20270-33"
             width="28.574993"
             height="28.574993"
             x="723.90002"
             y="209.55" />
          <path
             d="m 731.73961,219.89391 q 0,-1.41048 0.403,-2.59067 0.43178,-1.1802 1.23777,-2.04376 0.83477,-0.86356 2.01497,-1.35291 1.20898,-0.48935 2.76339,-0.48935 1.66954,0 2.87853,0.57571 1.23776,0.54692 2.04375,1.5544 0.80599,1.00749 1.1802,2.47554 0.37421,1.43926 0.37421,3.19517 0,2.67703 -0.77721,4.95107 -0.7772,2.27404 -2.13011,4.00115 -1.32412,1.69834 -3.16638,2.76339 -1.81347,1.06506 -3.9148,1.32413 l -0.51814,-0.83478 q 1.69834,-0.46056 2.99367,-1.35291 1.32413,-0.89234 2.24526,-2.10132 0.94991,-1.23777 1.52562,-2.70582 0.57571,-1.49684 0.80599,-3.1376 -0.66206,0.69085 -1.58319,1.1802 -0.89235,0.46056 -2.44675,0.46056 -1.29534,0 -2.38918,-0.37421 -1.09385,-0.40299 -1.87105,-1.15141 -0.7772,-0.74841 -1.23777,-1.84226 -0.43178,-1.09384 -0.43178,-2.50432 z m 2.76339,-0.0288 q 0,0.83477 0.25907,1.64076 0.25907,0.7772 0.74842,1.41048 0.48935,0.60449 1.1802,0.9787 0.69084,0.37421 1.5544,0.37421 1.3817,0 2.27404,-0.46057 0.92113,-0.48935 1.35291,-1.20898 0.0576,-0.37421 0.0576,-0.92113 0,-0.5757 0,-0.89234 0,-1.03627 -0.23028,-2.10133 -0.2015,-1.09384 -0.66206,-1.9574 -0.46057,-0.86356 -1.20899,-1.41048 -0.74841,-0.54692 -1.78469,-0.54692 -1.72711,0 -2.64824,1.38169 -0.89235,1.35291 -0.89235,3.71331 z"
             id="text184-7"
             style="font-size:28.7853px;line-height:1.25;font-family:'PT Serif';-inkscape-font-specification:'PT Serif';fill:#6c5a57;fill-opacity:0.952941;stroke-width:0.599692"
             aria-label="9" />
        </g>
      </g>
      <g
         id="g174">
        <rect
           style="fill:none;fill-opacity:0.952941;stroke:none;stroke-width:1.97048"
           id="rect20270-6-3-8-3-2-0-8-9-2"
           width="28.574926"
           height="28.574926"
           x="723.90002"
           y="57.149986" />
        <g
           id="g154"
           transform="matrix(0.55555553,0,0,0.55555553,342.90004,-80.433321)">
          <path
             d="m 691.58696,257.22222 q -0.0863,-0.2015 -0.0288,-0.48935 0.0576,-0.31664 0.23028,-0.60449 0.17271,-0.31664 0.403,-0.54692 0.25906,-0.23028 0.51813,-0.28785 l 2.87853,2.50432 q 0,0.23028 -0.0864,0.43178 -0.0864,0.20149 -0.31664,0.31663 z m 1.09385,4.95107 q -0.23029,-0.0288 -0.46057,-0.23028 -0.23028,-0.23028 -0.40299,-0.51814 -0.17271,-0.31663 -0.25907,-0.63327 -0.0864,-0.31664 0,-0.54692 l 3.59816,-1.23777 q 0.43178,0.23028 0.43178,0.69085 z m 4.92228,1.58319 q -0.14392,0.17272 -0.46056,0.25907 -0.28786,0.0864 -0.63328,0.0864 -0.34542,0 -0.66206,-0.0864 -0.28785,-0.0864 -0.43178,-0.23028 l 0.66206,-3.74209 q 0.46057,-0.23028 0.92113,0 z m 3.77088,-3.5118 q 0.11514,0.20149 0.0288,0.51813 -0.0576,0.31664 -0.23028,0.63328 -0.17271,0.28785 -0.40299,0.51813 -0.23029,0.23029 -0.48935,0.25907 l -2.82096,-2.41796 q 0,-0.25907 0.0863,-0.403 0.11514,-0.17271 0.28785,-0.31664 z m -1.03627,-4.95107 q 0.23028,0.0288 0.46056,0.25906 0.23028,0.2015 0.37421,0.51814 0.17271,0.28785 0.23028,0.60449 0.0864,0.31664 0,0.57571 l -3.56938,1.35291 q -0.40299,-0.28786 -0.40299,-0.74842 z m -4.95108,-1.55441 q 0.11515,-0.17271 0.403,-0.25907 0.31664,-0.11514 0.66206,-0.11514 0.34542,0 0.66206,0.11514 0.31664,0.0864 0.46057,0.25907 l -0.63328,3.74209 q -0.43178,0.28785 -0.89234,0 z"
             id="text175-0"
             style="font-size:28.7853px;line-height:1.25;font-family:'PT Serif';-inkscape-font-specification:'PT Serif';fill:#6c5a57;fill-opacity:0.952941;stroke-width:0.599692"
             aria-label="*" />
        </g>
        <g
           id="g164"
           transform="matrix(0.83333327,0,0,0.83333327,157.16256,-112.71249)">
          <rect
             style="fill:none;fill-opacity:0.952941;stroke:none;stroke-width:1.97048"
             id="rect20270-949"
             width="28.574993"
             height="28.574993"
             x="685.79999"
             y="209.55" />
          <path
             d="m 693.81229,229.39306 q 0,-0.9787 0.34543,-1.84226 0.34542,-0.89234 0.94991,-1.58319 0.63328,-0.71963 1.46805,-1.26655 0.86356,-0.54692 1.87105,-0.89235 -0.80599,-0.43178 -1.52562,-0.94991 -0.69085,-0.51814 -1.20899,-1.1802 -0.51813,-0.66206 -0.83477,-1.43926 -0.28785,-0.80599 -0.28785,-1.78469 0,-1.12263 0.40299,-2.04376 0.403,-0.92113 1.12263,-1.58319 0.74842,-0.66206 1.78469,-1.03627 1.06505,-0.37421 2.36039,-0.37421 2.53311,0 3.94359,1.29534 1.41048,1.26655 1.41048,3.28152 0,1.66955 -1.09384,2.9361 -1.09385,1.23777 -2.84975,2.04376 1.00749,0.51814 1.87105,1.15141 0.86355,0.63328 1.46805,1.3817 0.63327,0.74841 0.9787,1.64076 0.3742,0.86356 0.3742,1.87104 0,1.06506 -0.43177,2.01497 -0.403,0.94992 -1.23777,1.66955 -0.80599,0.71963 -2.01497,1.15141 -1.1802,0.403 -2.73461,0.403 -1.58319,0 -2.7346,-0.403 -1.15141,-0.40299 -1.92862,-1.06505 -0.74841,-0.69085 -1.12262,-1.55441 -0.34543,-0.89234 -0.34543,-1.84226 z m 10.01729,0.11514 q 0,-0.9787 -0.403,-1.7559 -0.3742,-0.80599 -1.03627,-1.41048 -0.63327,-0.63328 -1.49683,-1.15141 -0.83478,-0.51814 -1.72712,-0.94992 -0.83477,0.48935 -1.38169,1.09384 -0.54693,0.6045 -0.89235,1.26656 -0.31664,0.63327 -0.46056,1.26655 -0.14393,0.63328 -0.14393,1.1802 0,0.69085 0.2015,1.41048 0.23028,0.69084 0.69084,1.23777 0.46057,0.54692 1.1802,0.89234 0.74842,0.34542 1.81348,0.34542 0.89234,0 1.58319,-0.28785 0.69084,-0.31664 1.15141,-0.80599 0.46056,-0.48935 0.69085,-1.09384 0.23028,-0.63328 0.23028,-1.23777 z m -6.76455,-11.42776 q 0,0.89234 0.31664,1.55441 0.34542,0.66206 0.89235,1.20898 0.54692,0.51813 1.23776,0.94991 0.71964,0.43178 1.46805,0.80599 1.20899,-0.9787 1.69834,-1.9574 0.48935,-0.9787 0.48935,-2.1589 0,-1.78469 -0.80599,-2.7346 -0.7772,-0.9787 -2.1589,-0.9787 -0.7772,0 -1.35291,0.28785 -0.5757,0.28786 -0.9787,0.74842 -0.40299,0.46057 -0.60449,1.06506 -0.2015,0.5757 -0.2015,1.20898 z"
             id="text185-3"
             style="font-size:28.7853px;line-height:1.25;font-family:'PT Serif';-inkscape-font-specification:'PT Serif';fill:#6c5a57;fill-opacity:0.952941;stroke-width:0.599692"
             aria-label="8" />
        </g>
      </g>
      <g
         id="g173">
        <rect
           style="fill:none;fill-opacity:0.952941;stroke:none;stroke-width:1.97048"
           id="rect20270-6-3-8-59-59-1-6-1-9"
           width="28.574926"
           height="28.574926"
           x="685.80005"
           y="57.149986" />
        <g
           id="g153"
           transform="matrix(0.55555523,0,0,0.55555523,325.96689,-80.433254)">
          <path
             d="m 660.97649,267.46204 q -0.86356,-0.7772 -1.89983,-1.81347 -1.00748,-1.06506 -1.9574,-2.1589 -0.94991,-1.09384 -1.7559,-2.10132 -0.80599,-1.00749 -1.26655,-1.66955 -1.23777,1.20898 -1.78469,2.36039 -0.54692,1.12263 -0.54692,2.64825 0,1.09384 0.34542,2.04376 0.37421,0.92113 1.00749,1.61197 0.63327,0.69085 1.52562,1.09384 0.89234,0.37421 1.92861,0.37421 1.29534,0 2.41797,-0.5757 1.12262,-0.60449 1.98618,-1.81348 z m -7.4266,-13.24123 q 0,0.51813 0.20149,1.12262 0.2015,0.57571 0.51814,1.15141 0.34542,0.57571 0.71963,1.12263 0.403,0.54692 0.7772,0.9787 1.03628,-0.86356 1.66955,-1.98618 0.66206,-1.15142 0.51814,-2.70582 -0.0576,-0.92113 -0.57571,-1.55441 -0.51813,-0.63328 -1.64076,-0.63328 -0.63328,0 -1.06506,0.23029 -0.40299,0.20149 -0.66206,0.5757 -0.25907,0.34543 -0.37421,0.80599 -0.0863,0.43178 -0.0863,0.89235 z m 11.9459,16.78183 q -0.6045,-0.403 -1.52563,-0.97871 -0.92112,-0.60449 -2.01497,-1.66954 -0.40299,0.54692 -1.00748,1.09384 -0.60449,0.51813 -1.43927,0.94991 -0.80598,0.43178 -1.81347,0.69085 -1.00749,0.25907 -2.18768,0.25907 -1.52562,0 -2.76339,-0.46057 -1.23777,-0.46056 -2.10133,-1.23776 -0.86356,-0.77721 -1.35291,-1.78469 -0.46056,-1.00749 -0.46056,-2.10133 0,-1.41048 0.51813,-2.53311 0.51814,-1.15141 1.23777,-1.98618 0.71963,-0.86356 1.49684,-1.43927 0.7772,-0.60449 1.29533,-0.9787 -0.83477,-0.92113 -1.41047,-2.15889 -0.57571,-1.23777 -0.57571,-2.30283 0,-0.71963 0.28785,-1.41048 0.28786,-0.71963 0.83478,-1.23777 0.5757,-0.54692 1.38169,-0.86355 0.83477,-0.34543 1.87104,-0.34543 1.89983,0 3.05125,0.83478 1.18019,0.80598 1.18019,2.36039 0,0.94992 -0.34542,1.78469 -0.31664,0.80599 -0.83477,1.49683 -0.51814,0.69085 -1.1802,1.26656 -0.63328,0.5757 -1.26655,1.06505 1.18019,1.46805 2.7346,3.02246 1.55441,1.55441 3.28152,3.10881 0.23029,-0.31664 0.57571,-1.06505 0.34542,-0.74842 0.63328,-1.75591 0.31663,-1.00748 0.48935,-2.18768 0.20149,-1.20898 0.11514,-2.38918 -0.86356,-0.17271 -1.69834,-0.69085 v -0.74841 h 5.84342 v 0.74841 q -0.7772,0.48935 -1.89983,0.69085 -0.25907,1.69833 -0.66206,3.08003 -0.403,1.38169 -0.83477,2.44675 -0.43178,1.03627 -0.83478,1.78469 -0.37421,0.71963 -0.60449,1.06505 1.09384,0.89235 2.13011,1.66955 1.06506,0.74842 2.3604,1.49684 l 1.58319,0.69084 v 0.71964 z"
             id="text176-6"
             style="font-size:28.7853px;line-height:1.25;font-family:'PT Serif';-inkscape-font-specification:'PT Serif';fill:#6c5a57;fill-opacity:0.952941;stroke-width:0.599692"
             aria-label="&amp;" />
        </g>
        <g
           id="g163"
           transform="matrix(0.83333355,0,0,0.83333355,150.81236,-112.71255)">
          <rect
             style="fill:none;fill-opacity:0.952941;stroke:none;stroke-width:1.97048"
             id="rect20270-19"
             width="28.574993"
             height="28.574993"
             x="647.70001"
             y="209.55" />
          <path
             d="m 657.35309,218.91521 h -0.71963 q -0.11514,-0.60449 -0.23028,-1.29534 -0.11514,-0.69084 -0.2015,-1.38169 -0.0864,-0.69085 -0.14393,-1.32412 -0.0288,-0.63328 -0.0288,-1.15142 h 11.91711 v 0.83478 q -1.43926,2.56189 -2.38918,4.72079 -0.94991,2.15889 -1.64076,4.37536 -0.66206,2.18769 -1.15141,4.66322 -0.48935,2.44675 -0.9787,5.55556 h -2.87853 q 1.06505,-4.20265 2.64825,-8.34773 1.58319,-4.14509 3.65573,-8.34774 l 0.86356,-1.38169 -1.49684,0.14392 h -6.10248 z"
             id="text186-2"
             style="font-size:28.7853px;line-height:1.25;font-family:'PT Serif';-inkscape-font-specification:'PT Serif';fill:#6c5a57;fill-opacity:0.952941;stroke-width:0.599692"
             aria-label="7" />
        </g>
      </g>
      <g
         id="g172">
        <rect
           style="fill:none;fill-opacity:0.952941;stroke:none;stroke-width:1.97048"
           id="rect20270-6-3-8-0-7-6-3-7"
           width="28.574926"
           height="28.574926"
           x="647.70001"
           y="57.149986" />
        <g
           id="g152"
           transform="matrix(0.55555553,0,0,0.55555553,309.03334,-80.433321)">
          <path
             d="m 620.9304,253.36499 h 0.92113 l 4.8935,7.97353 h -2.53311 l -2.5331,-4.34658 -0.69085,-1.92862 -0.92113,1.9574 -2.87853,4.3178 h -1.61198 z"
             id="text177-3"
             style="font-size:28.7853px;line-height:1.25;font-family:'PT Serif';-inkscape-font-specification:'PT Serif';fill:#6c5a57;fill-opacity:0.952941;stroke-width:0.599692"
             aria-label="^" />
        </g>
        <g
           id="g162"
           transform="matrix(0.83333342,0,0,0.83333342,144.46243,-112.71252)">
          <rect
             style="fill:none;fill-opacity:0.952941;stroke:none;stroke-width:1.97048"
             id="rect20270-20"
             width="28.574993"
             height="28.574993"
             x="609.60004"
             y="209.55" />
          <path
             d="m 630.4074,227.92501 q 0,1.32412 -0.46056,2.50432 -0.46057,1.15141 -1.29534,2.04375 -0.83477,0.86356 -2.01497,1.3817 -1.1802,0.48935 -2.61946,0.48935 -1.61198,0 -2.84975,-0.54692 -1.23776,-0.57571 -2.10132,-1.5832 -0.83478,-1.00748 -1.26656,-2.38917 -0.43178,-1.3817 -0.43178,-3.02246 0,-2.70582 0.89235,-4.95107 0.89234,-2.27404 2.36039,-4.00116 1.49684,-1.7559 3.39667,-2.90731 1.92861,-1.15142 4.00115,-1.61198 l 0.31664,0.86356 q -1.52562,0.54692 -2.90731,1.49683 -1.35291,0.92113 -2.44675,2.18769 -1.06506,1.26655 -1.78469,2.84974 -0.71963,1.55441 -0.89235,3.36788 0.46057,-0.7772 1.64077,-1.41048 1.18019,-0.66206 2.7346,-0.66206 1.23777,0 2.30282,0.40299 1.06506,0.403 1.81348,1.15142 0.74842,0.74841 1.18019,1.84225 0.43178,1.09385 0.43178,2.50433 z m -2.76338,0.23028 q 0,-2.04376 -1.00749,-3.3391 -0.9787,-1.29534 -2.76339,-1.29534 -1.35291,0 -2.33161,0.69085 -0.94991,0.66206 -1.35291,1.49684 -0.0576,0.40299 -0.0576,0.94991 0,0.54692 0,0.86356 0,0.92113 0.23028,1.89983 0.25907,0.94992 0.74842,1.7559 0.51814,0.80599 1.26656,1.32413 0.7772,0.51813 1.78468,0.51813 0.92113,0 1.5832,-0.40299 0.66206,-0.43178 1.06505,-1.12263 0.43178,-0.69084 0.63328,-1.5544 0.2015,-0.89235 0.2015,-1.78469 z"
             id="text187-0"
             style="font-size:28.7853px;line-height:1.25;font-family:'PT Serif';-inkscape-font-specification:'PT Serif';fill:#6c5a57;fill-opacity:0.952941;stroke-width:0.599692"
             aria-label="6" />
        </g>
      </g>
      <g
         id="g171">
        <rect
           style="fill:none;fill-opacity:0.952941;stroke:none;stroke-width:1.97048"
           id="rect20270-6-3-8-59-7-4-7-92-11"
           width="28.574926"
           height="28.574926"
           x="609.6001"
           y="57.150002" />
        <g
           id="g151"
           transform="matrix(0.55555553,0,0,0.55555553,292.10002,-80.433321)">
          <path
             d="m 592.29074,250.56506 1.00749,0.89235 -16.8394,19.74671 -0.9787,-0.92113 z m -17.93324,4.83593 q 0,-1.12262 0.37421,-2.01497 0.37421,-0.89234 1.03627,-1.52562 0.69085,-0.66206 1.58319,-1.00748 0.92113,-0.34543 2.01497,-0.34543 1.09385,0 2.01498,0.31664 0.92112,0.28785 1.58319,0.89234 0.66206,0.6045 1.03627,1.52563 0.37421,0.92113 0.37421,2.15889 0,1.12263 -0.37421,2.04376 -0.37421,0.89234 -1.03627,1.52562 -0.66207,0.63328 -1.58319,0.9787 -0.92113,0.34542 -2.01498,0.34542 -1.09384,0 -2.01497,-0.28785 -0.89234,-0.31664 -1.58319,-0.92113 -0.66206,-0.60449 -1.03627,-1.52562 -0.37421,-0.92113 -0.37421,-2.1589 z m 2.41797,0 q 0,1.72712 0.66206,2.79218 0.66206,1.03627 1.92861,1.03627 2.59068,0 2.59068,-3.82845 0,-3.79966 -2.59068,-3.79966 -2.59067,0 -2.59067,3.79966 z m 7.74324,11.02477 q 0,-1.12262 0.37421,-2.01497 0.37421,-0.89234 1.03627,-1.52562 0.69085,-0.66206 1.58319,-1.00748 0.92113,-0.34543 2.01497,-0.34543 1.09385,0 2.01498,0.31664 0.92113,0.28785 1.58319,0.89234 0.66206,0.6045 1.03627,1.52563 0.37421,0.92112 0.37421,2.15889 0,1.12263 -0.37421,2.04376 -0.37421,0.89234 -1.03627,1.52562 -0.66206,0.63328 -1.58319,0.9787 -0.92113,0.34542 -2.01498,0.34542 -1.09384,0 -2.01497,-0.31663 -0.89234,-0.28786 -1.58319,-0.89235 -0.66206,-0.60449 -1.03627,-1.52562 -0.37421,-0.92113 -0.37421,-2.1589 z m 2.41797,0 q 0,1.72712 0.66206,2.79218 0.66206,1.03627 1.92861,1.03627 2.59068,0 2.59068,-3.82845 0,-3.79966 -2.59068,-3.79966 -2.59067,0 -2.59067,3.79966 z"
             id="text178-9"
             style="font-size:28.7853px;line-height:1.25;font-family:'PT Serif';-inkscape-font-specification:'PT Serif';fill:#6c5a57;fill-opacity:0.952941;stroke-width:0.599692"
             aria-label="%" />
        </g>
        <g
           id="g161"
           transform="matrix(0.83333354,0,0,0.83333354,138.11239,-112.71255)">
          <rect
             style="fill:none;fill-opacity:0.952941;stroke:none;stroke-width:1.97048"
             id="rect20270-59"
             width="28.574993"
             height="28.574993"
             x="571.5"
             y="209.55" />
          <path
             d="m 590.82495,212.79833 h 0.71963 q -0.0288,0.43178 -0.0864,0.9787 -0.0288,0.51814 -0.11514,1.06506 -0.0864,0.51813 -0.17271,1.00748 -0.0864,0.48935 -0.2015,0.80599 h -7.08118 l -0.69085,5.55557 h 1.87105 q 1.43926,0 2.61946,0.40299 1.20898,0.37421 2.04376,1.15141 0.86356,0.74842 1.32412,1.84226 0.48935,1.09384 0.48935,2.50432 0,1.66955 -0.57571,2.9361 -0.5757,1.26656 -1.52562,2.13011 -0.94991,0.83478 -2.15889,1.26656 -1.20899,0.43178 -2.50433,0.43178 -0.5757,0 -1.23776,-0.11514 -0.66207,-0.0864 -1.32413,-0.28786 -0.63327,-0.20149 -1.20898,-0.46056 -0.57571,-0.28785 -0.9787,-0.60449 l 0.83477,-2.59068 h 0.57571 q 0.17271,0.2015 0.43178,0.51814 0.25907,0.31663 0.51813,0.66206 0.28786,0.34542 0.54693,0.69084 0.28785,0.34543 0.51813,0.6045 0.28785,0.0576 0.51814,0.14392 0.25906,0.0864 0.7772,0.0864 0.94991,0 1.72712,-0.37421 0.80599,-0.37421 1.38169,-1.00749 0.57571,-0.66206 0.89235,-1.52562 0.31663,-0.86356 0.31663,-1.87104 0,-1.15141 -0.43178,-1.98619 -0.43177,-0.86356 -1.18019,-1.38169 -0.74842,-0.54692 -1.75591,-0.80599 -0.9787,-0.25907 -2.07254,-0.23028 l -2.04375,0.0288 1.15141,-9.9885 h 6.8509 z"
             id="text188-2"
             style="font-size:28.7853px;line-height:1.25;font-family:'PT Serif';-inkscape-font-specification:'PT Serif';fill:#6c5a57;fill-opacity:0.952941;stroke-width:0.599692"
             aria-label="5" />
        </g>
      </g>
      <g
         id="g170">
        <rect
           style="fill:none;fill-opacity:0.952941;stroke:none;stroke-width:1.97048"
           id="rect20270-6-3-8-3-2-0-8-8"
           width="28.574926"
           height="28.574926"
           x="571.5"
           y="57.149986" />
        <g
           id="g150"
           transform="matrix(0.55555553,0,0,0.55555553,275.16668,-80.433321)">
          <rect
             style="fill:none;fill-opacity:0.952941;stroke:none;stroke-width:1.97048"
             id="rect20270-103"
             width="28.574993"
             height="28.574993"
             x="533.40002"
             y="247.64999" />
          <path
             d="m 546.85268,272.21391 q -0.86356,0 -1.66954,-0.14393 -0.80599,-0.11514 -1.49684,-0.31664 -0.66206,-0.23028 -1.20898,-0.48935 -0.51814,-0.25906 -0.80599,-0.51813 0.0288,-0.28785 0.0576,-0.74842 0.0288,-0.48935 0.0864,-0.9787 0.0576,-0.48935 0.11514,-0.94991 0.0863,-0.46057 0.20149,-0.71964 h 0.71964 l 1.72711,2.79218 q 0.37421,0.23028 0.9787,0.40299 0.6045,0.14393 1.29534,0.17271 v -8.20381 q -0.11514,0 -0.17271,-0.0576 l -0.92113,-0.43178 q -0.83477,-0.37421 -1.61198,-0.83477 -0.7772,-0.46057 -1.38169,-1.09384 -0.57571,-0.66206 -0.94991,-1.52562 -0.34543,-0.86356 -0.34543,-2.04376 0,-1.03627 0.403,-1.92861 0.40299,-0.89235 1.09384,-1.5832 0.71963,-0.69084 1.69833,-1.09384 1.00749,-0.43178 2.18768,-0.51813 v -1.41048 h 1.49684 v 1.41048 q 1.38169,0.0864 2.38918,0.37421 1.03627,0.28785 1.78469,0.63327 -0.0288,0.92113 -0.25907,1.52562 -0.2015,0.60449 -0.43178,1.06506 h -0.74842 l -1.43926,-1.9574 q -0.31664,-0.0576 -0.60449,-0.0864 -0.28786,-0.0288 -0.69085,-0.0576 v 7.68568 l 0.83477,0.37421 q 0.89235,0.43178 1.72712,0.92113 0.86356,0.46056 1.52562,1.12262 0.66206,0.63328 1.06506,1.55441 0.40299,0.92113 0.40299,2.27404 0,2.10132 -1.46805,3.54059 -1.46805,1.43926 -4.08751,1.7559 v 1.75591 h -1.49684 z m 4.46172,-5.18136 q 0,-1.49683 -0.86355,-2.36039 -0.86356,-0.89234 -2.10133,-1.46805 v 7.36904 q 1.29534,-0.34543 2.13011,-1.23777 0.83477,-0.92113 0.83477,-2.30283 z m -7.25389,-11.02476 q 0,0.7772 0.2015,1.38169 0.23028,0.57571 0.60449,1.03627 0.37421,0.46057 0.86356,0.83477 0.51813,0.34543 1.12262,0.66207 v -7.02362 q -1.29534,0.14393 -2.04375,1.03627 -0.74842,0.86356 -0.74842,2.07255 z"
             id="text179-0"
             style="font-size:28.7853px;line-height:1.25;font-family:'PT Serif';-inkscape-font-specification:'PT Serif';fill:#6c5a57;fill-opacity:0.952941;stroke-width:0.599692"
             aria-label="$" />
        </g>
        <g
           id="g160"
           transform="matrix(0.83333342,0,0,0.83333342,131.76245,-112.71252)">
          <rect
             style="fill:none;fill-opacity:0.952941;stroke:none;stroke-width:1.97048"
             id="rect20270-61"
             width="28.574993"
             height="28.574993"
             x="533.40002"
             y="209.55" />
          <path
             d="m 553.76122,234.08506 h -7.48418 v -0.83477 q 1.41048,-0.48935 2.64825,-0.69085 v -4.02994 h -8.77952 v -0.66206 l 10.65057,-14.27751 h 0.7772 v 13.44274 h 3.65573 v 1.49683 h -3.65573 v 4.02994 q 1.12262,0.23029 2.18768,0.69085 z m -4.83593,-14.45022 0.31664,-2.07254 h -0.0864 l -1.12262,2.07254 -4.83593,6.64941 -1.15142,0.94991 2.04376,-0.20149 h 4.83593 z"
             id="text189-9"
             style="font-size:28.7853px;line-height:1.25;font-family:'PT Serif';-inkscape-font-specification:'PT Serif';fill:#6c5a57;fill-opacity:0.952941;stroke-width:0.599692"
             aria-label="4" />
        </g>
      </g>
      <g
         id="g169">
        <rect
           style="fill:none;fill-opacity:0.952941;stroke:none;stroke-width:1.97048"
           id="rect20270-6-3-8-59-7-4-7-92-1"
           width="28.574926"
           height="28.574926"
           x="533.40002"
           y="57.150002" />
        <g
           id="g149"
           transform="matrix(0.5555557,0,0,0.5555557,257.16305,-80.433376)">
          <path
             d="m 508.93096,262.2807 h -4.08751 l -1.20899,5.03743 h -1.52562 l 1.20898,-5.03743 H 501.015 l 0.40299,-1.32412 h 2.18769 l 1.03627,-4.3178 h -2.18768 l 0.40299,-1.32412 h 2.10133 l 1.15141,-4.80715 h 1.49683 l -1.12262,4.80715 h 4.08751 l 1.15141,-4.80715 h 1.49684 l -1.15141,4.80715 h 2.30282 l -0.48935,1.32412 h -2.13011 l -1.03627,4.3178 h 2.21646 l -0.48935,1.32412 h -2.01497 l -1.20898,5.03743 h -1.49683 z m -3.79966,-1.32412 h 4.08751 l 1.03627,-4.3178 h -4.08751 z"
             id="text180-7"
             style="font-size:28.7853px;line-height:1.25;font-family:'PT Serif';-inkscape-font-specification:'PT Serif';fill:#6c5a57;fill-opacity:0.952941;stroke-width:0.599692"
             aria-label="#" />
        </g>
        <g
           id="g159"
           transform="matrix(0.83333342,0,0,0.83333342,125.41245,-112.71252)">
          <rect
             style="fill:none;fill-opacity:0.952941;stroke:none;stroke-width:1.97048"
             id="rect20270-27"
             width="28.574993"
             height="28.574993"
             x="495.30002"
             y="209.55" />
          <path
             d="m 509.11256,232.73214 q 0.80599,0 1.49684,-0.34543 0.69084,-0.3742 1.20898,-0.9787 0.51813,-0.63327 0.80599,-1.43926 0.31663,-0.80599 0.31663,-1.69833 0,-1.06506 -0.34542,-1.87105 -0.31664,-0.80599 -0.89234,-1.32412 -0.57571,-0.54692 -1.35291,-0.80599 -0.74842,-0.28785 -1.64076,-0.28785 h -1.87105 v -0.77721 l 4.83593,-6.47669 0.9787,-1.00748 v -0.11515 l -1.5544,0.17272 h -4.86472 l -1.12263,2.9361 h -0.71963 q -0.11514,-0.60449 -0.23028,-1.29534 -0.0864,-0.69085 -0.17271,-1.35291 -0.0864,-0.69085 -0.14393,-1.32412 -0.0576,-0.63328 -0.0576,-1.15142 h 11.25508 v 0.89235 l -4.80714,6.41912 -1.23777,1.26655 v 0.0576 l 0.9787,-0.20149 q 1.35291,0.0576 2.41796,0.51813 1.06506,0.46057 1.78469,1.23777 0.74842,0.74842 1.12263,1.78469 0.40299,1.00748 0.40299,2.21647 0,1.43926 -0.5757,2.61946 -0.57571,1.15141 -1.55441,1.98618 -0.94991,0.80599 -2.21647,1.26656 -1.23777,0.43178 -2.61946,0.43178 -0.66206,0 -1.41048,-0.11514 -0.74842,-0.0864 -1.46805,-0.28786 -0.71963,-0.20149 -1.35291,-0.46056 -0.60449,-0.25907 -1.03627,-0.60449 l 0.80599,-2.59068 h 0.57571 q 0.17271,0.2015 0.46056,0.51814 0.31664,0.31663 0.63328,0.66206 0.34542,0.34542 0.66206,0.69084 0.31664,0.34543 0.54692,0.6045 0.28785,0.0576 0.74842,0.14392 0.46056,0.0864 1.20898,0.0864 z"
             id="text190-7"
             style="font-size:28.7853px;line-height:1.25;font-family:'PT Serif';-inkscape-font-specification:'PT Serif';fill:#6c5a57;fill-opacity:0.952941;stroke-width:0.599692"
             aria-label="3" />
        </g>
      </g>
      <g
         id="g168">
        <rect
           style="fill:none;fill-opacity:0.952941;stroke:none;stroke-width:1.97048"
           id="rect20270-6-3-8-3-2-0-8-9"
           width="28.574926"
           height="28.574926"
           x="495.30008"
           y="57.150002" />
        <g
           id="g148"
           transform="matrix(0.49999988,0,0,0.49999988,266.70006,-66.67496)">
          <rect
             style="fill:none;fill-opacity:0.952941;stroke:none;stroke-width:1.97048"
             id="rect20270-4"
             width="28.574993"
             height="28.574993"
             x="457.20001"
             y="247.64999" />
          <path
             d="m 475.31595,255.95015 q 1.06505,-0.48935 2.1589,-0.46056 l -1.46805,8.23259 q -0.17272,0.94992 -0.25907,1.72712 -0.0576,0.77721 0,1.35291 0.0863,0.54692 0.31664,0.86356 0.25906,0.28785 0.74841,0.28785 0.94992,0 1.9574,-0.51813 1.00749,-0.54692 1.84226,-1.55441 0.86356,-1.00748 1.41048,-2.44675 0.54692,-1.43926 0.54692,-3.22395 0,-2.18769 -0.83477,-3.97237 -0.83477,-1.78469 -2.30282,-3.02246 -1.43927,-1.26655 -3.39667,-1.92862 -1.92861,-0.69084 -4.14508,-0.69084 -2.64825,0 -4.77836,0.94991 -2.10133,0.92113 -3.59816,2.56189 -1.49684,1.61198 -2.30283,3.82845 -0.80599,2.18768 -0.80599,4.692 0,2.56189 0.83478,4.54808 0.83477,1.9574 2.33161,3.31031 1.52562,1.38169 3.59816,2.07254 2.10133,0.71963 4.60565,0.71963 0.83477,0 1.89983,-0.20149 1.06505,-0.2015 1.92861,-0.60449 l 0.46057,1.26655 q -1.00749,0.5757 -2.21647,0.80599 -1.20898,0.23028 -2.67703,0.23028 -2.47554,0 -4.72079,-0.74842 -2.24526,-0.74842 -3.97238,-2.24525 -1.69833,-1.49684 -2.70581,-3.74209 -1.00749,-2.24525 -1.00749,-5.23893 0,-3.13759 1.03627,-5.6707 1.03627,-2.53311 2.82096,-4.31779 1.81348,-1.78469 4.23144,-2.73461 2.41797,-0.9787 5.18135,-0.9787 2.59068,0 4.80715,0.77721 2.24525,0.74841 3.88601,2.18768 1.64077,1.41048 2.5619,3.48302 0.92113,2.04376 0.92113,4.66322 0,1.87104 -0.66207,3.54059 -0.63327,1.66955 -1.7559,2.9361 -1.09384,1.26655 -2.53311,2.01497 -1.43926,0.74842 -3.02245,0.74842 -0.86356,0 -1.46805,-0.25907 -0.60449,-0.28785 -0.92113,-0.89234 -0.31664,-0.63328 -0.34543,-1.61198 0,-0.9787 0.31664,-2.36039 h -0.11514 q -0.31664,0.92112 -0.89234,1.84225 -0.54692,0.89235 -1.26656,1.64077 -0.71963,0.71963 -1.5544,1.18019 -0.80599,0.46057 -1.64076,0.46057 -1.72712,0 -2.67704,-1.1802 -0.92113,-1.20898 -0.92113,-3.19517 0,-1.84226 0.60449,-3.59816 0.63328,-1.7559 1.66955,-3.1376 1.06506,-1.38169 2.44675,-2.21646 1.3817,-0.83478 2.90732,-0.83478 1.03627,0 1.64076,0.17271 0.60449,0.17271 1.29534,0.48935 z m -0.48935,1.3817 q -0.46057,-0.28786 -0.94992,-0.43178 -0.46056,-0.14393 -1.20898,-0.14393 -1.09384,0 -2.07254,0.7772 -0.9787,0.74842 -1.69833,1.92862 -0.71964,1.1802 -1.15142,2.59068 -0.40299,1.38169 -0.40299,2.67703 0,1.38169 0.43178,2.1589 0.43178,0.7772 1.64076,0.7772 0.54692,0 1.1802,-0.51814 0.63328,-0.54692 1.23777,-1.41047 0.63327,-0.86356 1.20898,-1.92862 0.60449,-1.09384 1.06506,-2.18768 z"
             id="text181-2"
             style="font-size:28.7853px;line-height:1.25;font-family:'PT Serif';-inkscape-font-specification:'PT Serif';fill:#6c5a57;fill-opacity:0.952941;stroke-width:0.599692"
             aria-label="@" />
        </g>
        <g
           id="g158"
           transform="matrix(0.8333335,0,0,0.8333335,119.06242,-112.71254)">
          <rect
             style="fill:none;fill-opacity:0.952941;stroke:none;stroke-width:1.97048"
             id="rect20270-5-6"
             width="28.574993"
             height="28.574993"
             x="457.20001"
             y="209.55" />
          <path
             d="m 467.99009,219.54849 h -0.71964 q -0.31663,-0.83478 -0.66206,-1.9574 -0.31664,-1.12263 -0.54692,-2.13012 1.00749,-0.86355 2.41797,-1.3529 1.41048,-0.51814 3.05124,-0.51814 1.43926,0 2.47553,0.40299 1.03628,0.403 1.69834,1.09385 0.69084,0.69084 1.00748,1.61197 0.31664,0.89235 0.31664,1.87105 0,1.61197 -0.74842,3.31031 -0.74841,1.69833 -1.87104,3.31031 -1.09384,1.58319 -2.38918,2.99367 -1.29534,1.41048 -2.38918,2.47553 l -1.20898,1.12263 v 0.11514 l 1.61197,-0.17271 h 4.95108 l 1.41047,-3.22395 h 0.71964 q 0.0576,0.63327 0.11514,1.38169 0.0576,0.74842 0.0863,1.52562 0.0576,0.74842 0.0864,1.46805 0.0288,0.69085 0.0288,1.20898 h -11.88833 v -0.92113 q 0.63327,-0.66206 1.52562,-1.61197 0.92113,-0.94992 1.89983,-2.10133 0.9787,-1.15141 1.92861,-2.44675 0.9787,-1.29534 1.72712,-2.61946 0.74842,-1.35291 1.20898,-2.67704 0.48935,-1.32412 0.48935,-2.5331 0,-0.83478 -0.23028,-1.58319 -0.2015,-0.74842 -0.63328,-1.29534 -0.43178,-0.57571 -1.06505,-0.89235 -0.60449,-0.31663 -1.41048,-0.31663 -0.60449,0 -1.06506,0.0864 -0.46056,0.0864 -1.00748,0.25907 z"
             id="text191-8"
             style="font-size:28.7853px;line-height:1.25;font-family:'PT Serif';-inkscape-font-specification:'PT Serif';fill:#6c5a57;fill-opacity:0.952941;stroke-width:0.599692"
             aria-label="2" />
        </g>
      </g>
      <g
         id="g167">
        <rect
           style="fill:none;fill-opacity:0.952941;stroke:none;stroke-width:1.97048"
           id="rect20270-6-3-8-59-59-1-6-1"
           width="28.574926"
           height="28.574926"
           x="457.2001"
           y="57.150002" />
        <g
           id="g157"
           transform="matrix(0.83333336,0,0,0.83333336,112.71249,-112.7125)">
          <rect
             style="fill:none;fill-opacity:0.952941;stroke:none;stroke-width:1.97048"
             id="rect20270-5"
             width="28.574993"
             height="28.574993"
             x="419.10001"
             y="209.55" />
          <path
             d="m 437.86361,234.08504 h -8.4053 v -0.83477 q 0.71963,-0.31664 1.43926,-0.54692 0.74842,-0.25907 1.49684,-0.43178 v -14.13358 l 0.11514,-1.69833 q -0.80599,0.31663 -1.66955,0.46056 -0.86356,0.11514 -1.78469,0.0864 l -0.14392,-0.69085 q 1.32412,-0.43178 2.7346,-1.06506 1.41048,-0.66206 2.61946,-1.64076 h 0.71963 v 18.68166 q 0.71964,0.17271 1.43927,0.43178 0.71963,0.23028 1.43926,0.54692 z"
             id="text192-1"
             style="font-size:28.7853px;line-height:1.25;font-family:'PT Serif';-inkscape-font-specification:'PT Serif';fill:#6c5a57;fill-opacity:0.952941;stroke-width:0.599692"
             aria-label="1" />
        </g>
        <g
           id="g147"
           transform="matrix(0.55555544,0,0,0.55555544,224.36672,-80.433311)">
          <rect
             style="fill:none;fill-opacity:0.952941;stroke:none;stroke-width:1.97048"
             id="rect20270-92"
             width="28.574993"
             height="28.574993"
             x="419.10001"
             y="247.65001" />
          <path
             d="m 432.9989,265.63642 -0.92113,-5.06621 v -8.52045 q 0.63328,-0.31664 1.29534,-0.31664 0.66207,0 1.29534,0.31664 v 8.52045 l -0.92113,5.06621 z m -1.58319,4.63443 q 0,-0.86356 0.54692,-1.38169 0.54692,-0.51814 1.41048,-0.51814 0.89235,0 1.43927,0.51814 0.54692,0.51813 0.54692,1.38169 0,0.83478 -0.54692,1.35291 -0.54692,0.51814 -1.43927,0.51814 -0.86356,0 -1.41048,-0.51814 -0.54692,-0.51813 -0.54692,-1.35291 z"
             id="text182-1"
             style="font-size:28.7853px;line-height:1.25;font-family:'PT Serif';-inkscape-font-specification:'PT Serif';fill:#6c5a57;fill-opacity:0.952941;stroke-width:0.599692"
             aria-label="!" />
        </g>
      </g>
      <g
         id="g18358">
        <rect
           style="fill:none;fill-opacity:0.952941;stroke:none;stroke-width:1.97048"
           id="rect20270-6-3-8-0-7-6-3"
           width="28.574926"
           height="28.574926"
           x="419.10007"
           y="57.150002" />
        <path
           d="m 439.73337,75.455345 c -0.14033,-0.0036 -0.31844,0.0089 -0.53433,0.03772 -0.26866,0.01916 -0.55648,0.05764 -0.86352,0.115239 -0.30704,0.05757 -0.59485,0.134524 -0.86351,0.230477 -0.24947,0.07676 -0.4316,0.162952 -0.54674,0.258899 v 0.575675 l 5.3542,4.289144 0.63304,-0.489376 -3.05098,-5.00848 c -0.0384,-0.0048 -0.0814,-0.0081 -0.12816,-0.0093 z"
           style="font-size:28.7853px;line-height:1.25;font-family:'PT Serif';-inkscape-font-specification:'PT Serif';baseline-shift:baseline;display:inline;overflow:visible;vector-effect:none;fill:#6c5a57;fill-opacity:0.952941;enable-background:accumulate;stop-color:#000000;stop-opacity:1"
           id="path137" />
        <path
           d="m 427.66228,61.9125 c -0.57571,0 -1.18006,0.201106 -1.81333,0.604098 -0.63328,0.383805 -1.2956,1.093832 -1.98644,2.130102 l 0.43201,0.690914 c 0.44138,-0.594891 0.87335,-1.007364 1.29553,-1.23765 0.44138,-0.23028 0.87283,-0.345199 1.29501,-0.345199 0.46056,0 0.92127,0.105167 1.38183,0.31626 0.46057,0.191899 0.92127,0.413019 1.38183,0.662492 0.46057,0.249472 0.92075,0.479304 1.38131,0.690397 0.47975,0.191899 0.96918,0.287838 1.46813,0.287838 0.51813,0 1.04604,-0.162627 1.58336,-0.488859 0.55652,-0.345419 1.11315,-0.921552 1.66967,-1.727544 l -0.37414,-0.604097 c -0.3838,0.364612 -0.76807,0.623687 -1.15187,0.777214 -0.36461,0.134326 -0.71962,0.201021 -1.06505,0.201021 -0.47975,0 -0.94968,-0.09594 -1.41025,-0.287838 -0.44137,-0.211093 -0.88257,-0.440924 -1.32395,-0.690397 -0.44137,-0.249473 -0.89232,-0.470592 -1.35289,-0.662492 -0.46056,-0.211093 -0.93101,-0.31626 -1.41076,-0.31626 z"
           style="font-size:28.7853px;line-height:1.25;font-family:'PT Serif';-inkscape-font-specification:'PT Serif';baseline-shift:baseline;display:inline;overflow:visible;vector-effect:none;fill:#6c5a57;fill-opacity:0.952941;enable-background:accumulate;stop-color:#000000;stop-opacity:1"
           id="path135" />
      </g>
    </g>
  </g>
</svg>
