<?xml version="1.0" encoding="UTF-8" standalone="no"?>
<svg
   xmlns:dc="http://purl.org/dc/elements/1.1/"
   xmlns:cc="http://creativecommons.org/ns#"
   xmlns:rdf="http://www.w3.org/1999/02/22-rdf-syntax-ns#"
   xmlns:svg="http://www.w3.org/2000/svg"
   xmlns="http://www.w3.org/2000/svg"
   xmlns:sodipodi="http://sodipodi.sourceforge.net/DTD/sodipodi-0.dtd"
   xmlns:inkscape="http://www.inkscape.org/namespaces/inkscape"
   width="24mm"
   height="24mm"
   viewBox="0 0 24 24"
   version="1.1"
   id="svg13524"
   inkscape:version="1.0.2 (e86c870879, 2021-01-15, custom)"
   sodipodi:docname="guileless_bopomofo_keyboard-eten26-qwerty-h.svg">
  <defs
     id="defs13518" />
  <sodipodi:namedview
     id="base"
     pagecolor="#ffffff"
     bordercolor="#666666"
     borderopacity="1.0"
     inkscape:pageopacity="0.0"
     inkscape:pageshadow="2"
     inkscape:zoom="0.35"
     inkscape:cx="-26.074223"
     inkscape:cy="-208.93138"
     inkscape:document-units="mm"
     inkscape:current-layer="layer1"
     inkscape:document-rotation="0"
     showgrid="false"
     inkscape:window-width="1920"
     inkscape:window-height="1049"
     inkscape:window-x="1"
     inkscape:window-y="0"
     inkscape:window-maximized="1" />
  <metadata
     id="metadata13521">
    <rdf:RDF>
      <cc:Work
         rdf:about="">
        <dc:format>image/svg+xml</dc:format>
        <dc:type
           rdf:resource="http://purl.org/dc/dcmitype/StillImage" />
        <dc:title></dc:title>
      </cc:Work>
    </rdf:RDF>
  </metadata>
  <g
     inkscape:label="Layer 1"
     inkscape:groupmode="layer"
     id="layer1"
     transform="translate(-112.73214,-203.44643)">
    <g
       id="g3304"
       transform="translate(-367.822,43.940203)">
      <rect
         style="fill:none;stroke:none;stroke-width:0.0833333"
         id="rect10-3-97-6"
         width="20"
         height="20"
         x="484.55414"
         y="163.50623" />
      <g
         id="g1085-6-4"
         style="font-weight:bold;font-size:11.2889px;line-height:1.25;font-family:MOESongUN;-inkscape-font-specification:'MOESongUN Bold';letter-spacing:0px;word-spacing:0px;fill:#6c5a57;fill-opacity:0.952941;stroke-width:0.264583"
         transform="matrix(1.4015328,0,0,1.4015328,429.37327,183.86991)">
        <path
           style="color:#000000;font-style:normal;font-variant:normal;font-weight:normal;font-stretch:normal;font-size:medium;line-height:1.25;font-family:'Noto Sans';-inkscape-font-specification:'Noto Sans';font-variant-ligatures:normal;font-variant-position:normal;font-variant-caps:normal;font-variant-numeric:normal;font-variant-alternates:normal;font-variant-east-asian:normal;font-feature-settings:normal;font-variation-settings:normal;text-indent:0;text-align:start;text-decoration:none;text-decoration-line:none;text-decoration-style:solid;text-decoration-color:#000000;letter-spacing:0px;word-spacing:0px;text-transform:none;writing-mode:lr-tb;direction:ltr;text-orientation:mixed;dominant-baseline:auto;baseline-shift:baseline;text-anchor:start;white-space:normal;shape-padding:0;shape-margin:0;inline-size:0;clip-rule:nonzero;display:inline;overflow:visible;visibility:visible;isolation:auto;mix-blend-mode:normal;color-interpolation:sRGB;color-interpolation-filters:linearRGB;solid-color:#000000;solid-opacity:1;vector-effect:none;fill:#6c5a57;fill-opacity:0.952941;fill-rule:nonzero;stroke:none;stroke-width:0.264583;stroke-linecap:butt;stroke-linejoin:miter;stroke-miterlimit:4;stroke-dasharray:none;stroke-dashoffset:0;stroke-opacity:1;color-rendering:auto;image-rendering:auto;shape-rendering:auto;text-rendering:auto;enable-background:accumulate;stop-color:#000000;stop-opacity:1"
           d="m 49.589063,-3.3641081 h -1.016001 v -3.7592038 h -4.131737 v 3.7592038 h -1.016001 v -8.0602749 h 1.016001 v 3.409248 h 4.131737 v -3.409248 h 1.016001 z"
           id="path1087-2-0" />
        <path
           style="color:#000000;font-style:normal;font-variant:normal;font-weight:normal;font-stretch:normal;font-size:medium;line-height:1.25;font-family:'Noto Sans';-inkscape-font-specification:'Noto Sans';font-variant-ligatures:normal;font-variant-position:normal;font-variant-caps:normal;font-variant-numeric:normal;font-variant-alternates:normal;font-variant-east-asian:normal;font-feature-settings:normal;font-variation-settings:normal;text-indent:0;text-align:start;text-decoration:none;text-decoration-line:none;text-decoration-style:solid;text-decoration-color:#000000;letter-spacing:0px;word-spacing:0px;text-transform:none;writing-mode:lr-tb;direction:ltr;text-orientation:mixed;dominant-baseline:auto;baseline-shift:baseline;text-anchor:start;white-space:normal;shape-padding:0;shape-margin:0;inline-size:0;clip-rule:nonzero;display:inline;overflow:visible;visibility:visible;isolation:auto;mix-blend-mode:normal;color-interpolation:sRGB;color-interpolation-filters:linearRGB;solid-color:#000000;solid-opacity:1;vector-effect:none;fill:#6c5a57;fill-opacity:0.952941;fill-rule:nonzero;stroke:none;stroke-width:0.264583;stroke-linecap:butt;stroke-linejoin:miter;stroke-miterlimit:4;stroke-dasharray:none;stroke-dashoffset:0;stroke-opacity:1;color-rendering:auto;image-rendering:auto;shape-rendering:auto;text-rendering:auto;enable-background:accumulate;stop-color:#000000;stop-opacity:1"
           d="m 43.292969,-11.556641 v 8.3242191 h 1.28125 v -3.7578125 h 3.867187 v 3.7578125 h 1.279297 v -0.1308593 -8.1933598 h -1.279297 v 3.4101566 h -3.867187 v -3.4101566 z m 0.263672,0.263672 h 0.751953 v 3.4101565 h 4.396484 v -3.4101565 h 0.751953 v 7.7968752 h -0.751953 v -3.7597656 h -4.396484 v 3.7597656 h -0.751953 z"
           id="path1089-6-3" />
      </g>
      <rect
         style="fill:none;fill-opacity:0.6;stroke-width:0.0684293"
         id="rect233-7-8-0-1-85"
         width="24"
         height="24"
         x="480.55414"
         y="159.50623" />
      <g
         id="g5413-1-0"
         transform="matrix(0.27369706,0,0,0.27369706,455.88978,137.99142)">
        <rect
           style="fill:none;fill-opacity:0.6;stroke-width:0.0833395"
           id="rect233-3-9-5-9"
           width="29.229391"
           height="29.229391"
           x="90.115547"
           y="78.608101" />
        <path
           d="m 99.223843,85.044109 q -0.48587,7.359914 -2.01543,11.732676 -2.21338,6.298215 -5.48845,8.961455 l -0.53986,0.44988 q -0.17988,0.14396 -0.30589,0.14396 -0.14397,0 -0.14397,-0.16195 0,-0.17995 0.14397,-0.37789 l 0.41388,-0.62982 q 2.17738,-3.25708 3.617,-9.105425 1.29561,-5.272503 1.29561,-9.825212 0,-1.349617 -0.59383,-2.375326 -0.25202,-0.431879 -0.25202,-0.73779 0,-0.323912 0.41388,-0.395889 0.16193,-0.01796 1.81749,-0.07198 4.876637,-0.179944 15.763527,-2.14139 l 0.98972,-0.161956 q 1.4216,-0.23394 1.69152,-0.23394 1.00771,0 1.85349,0.863756 0.84576,0.881748 0.84576,1.601546 0,0.41388 -0.50386,0.41388 -0.21611,0 -0.66581,-0.07198 -0.57584,-0.08997 -1.04372,-0.08997 -2.62724,0 -7.17996,0.557842 -5.61439,0.683806 -10.113117,1.655528 z"
           style="font-weight:bold;font-size:11.2889px;line-height:1.25;font-family:MOESongUN;-inkscape-font-specification:'MOESongUN Bold';letter-spacing:0px;word-spacing:0px;fill:#6a5753;fill-opacity:1;stroke-width:0.863753"
           id="path574-5-08-9" />
      </g>
      <g
         id="g5428-3-4"
         transform="matrix(0.27369711,0,0,0.27369711,477.92056,62.997905)">
        <rect
           style="fill:none;fill-opacity:0.6;stroke-width:0.0833395"
           id="rect233-2-4-9-0-2-9"
           width="29.229391"
           height="29.229391"
           x="9.6222563"
           y="381.83932" />
        <path
           d="m 24.023472,405.51681 v -17.52766 q 0,-2.54544 -0.70042,-3.77545 -0.18782,-0.32459 -0.18782,-0.47834 0,-0.41 0.64917,-0.41 1.09335,0 2.25504,0.68334 1.38374,0.80292 1.38374,1.57168 0,0.15375 -0.23926,0.52959 -0.56375,0.88834 -0.56375,4.11712 v 14.9993 q 0,1.48626 0.8371,1.89627 0.83708,0.42709 3.05796,0.42709 2.57959,0 3.82669,-0.7346 0.92252,-0.54667 1.3496,-0.54667 1.17876,0 2.18669,1.05918 0.35874,0.37584 0.35874,0.73459 0,1.52043 -7.58507,1.52043 -4.15128,0 -5.36423,-0.78584 -1.26414,-0.82001 -1.26414,-3.28003 z m -12.96637,3.28003 -0.46126,0.32459 q -0.10258,0.0683 -0.22221,0.0683 -0.13668,0 -0.13668,-0.15376 0,-0.11959 0.10258,-0.23916 l 0.44416,-0.56376 q 3.5021,-4.25379 4.90296,-11.15552 0.95667,-4.68087 0.95667,-8.26841 0,-2.35752 -0.80292,-3.58753 -0.0511,-0.0854 -0.0511,-0.23917 0,-0.42708 0.51252,-0.42708 0.51249,0 1.40085,0.44417 1.9475,0.99084 1.9475,1.74251 0,0.15375 -0.2904,0.58084 -0.39292,0.58084 -0.56378,3.67295 -0.32458,6.04756 -1.34959,9.208 -1.69126,5.22755 -6.38921,8.593 z"
           style="font-weight:bold;font-size:11.2889px;line-height:1.25;font-family:MOESongUN;-inkscape-font-specification:'MOESongUN Bold';letter-spacing:0px;word-spacing:0px;fill:#6a5753;fill-opacity:1;stroke-width:0.820006"
           id="path626-0-8-9" />
      </g>
    </g>
  </g>
</svg>
