<?xml version="1.0" encoding="UTF-8" standalone="no"?>
<svg
   xmlns:dc="http://purl.org/dc/elements/1.1/"
   xmlns:cc="http://creativecommons.org/ns#"
   xmlns:rdf="http://www.w3.org/1999/02/22-rdf-syntax-ns#"
   xmlns:svg="http://www.w3.org/2000/svg"
   xmlns="http://www.w3.org/2000/svg"
   xmlns:sodipodi="http://sodipodi.sourceforge.net/DTD/sodipodi-0.dtd"
   xmlns:inkscape="http://www.inkscape.org/namespaces/inkscape"
   width="24mm"
   height="24mm"
   viewBox="0 0 24 24"
   version="1.1"
   id="svg3010"
   inkscape:version="1.0.1 (3bc2e813f5, 2020-09-07)"
   sodipodi:docname="guileless_bopomofo_keyboard-yu.svg">
  <defs
     id="defs3004" />
  <sodipodi:namedview
     id="base"
     pagecolor="#ffffff"
     bordercolor="#666666"
     borderopacity="1.0"
     inkscape:pageopacity="0.0"
     inkscape:pageshadow="2"
     inkscape:zoom="0.35"
     inkscape:cx="45.35433"
     inkscape:cy="45.354328"
     inkscape:document-units="mm"
     inkscape:current-layer="layer1"
     inkscape:document-rotation="0"
     showgrid="false"
     inkscape:window-width="1920"
     inkscape:window-height="1049"
     inkscape:window-x="0"
     inkscape:window-y="0"
     inkscape:window-maximized="1" />
  <metadata
     id="metadata3007">
    <rdf:RDF>
      <cc:Work
         rdf:about="">
        <dc:format>image/svg+xml</dc:format>
        <dc:type
           rdf:resource="http://purl.org/dc/dcmitype/StillImage" />
        <dc:title></dc:title>
      </cc:Work>
    </rdf:RDF>
  </metadata>
  <g
     inkscape:label="Layer 1"
     inkscape:groupmode="layer"
     id="layer1"
     transform="translate(-93.833334,-136.16667)">
    <g
       id="g4246"
       transform="matrix(0.82109133,0,0,0.82109133,19.39725,-50.794072)">
      <rect
         style="fill:none;fill-opacity:0.6;stroke-width:0.0833395"
         id="rect233-3-9-2"
         width="29.229391"
         height="29.229391"
         x="90.65506"
         y="227.69786" />
      <path
         d="m 114.85693,249.67378 0.11714,-15.38633 q 0.0195,-2.51883 -1.17155,-4.06137 -0.29288,-0.39051 -0.29288,-0.6834 0,-0.54672 0.76151,-0.54672 1.54254,0 3.39749,1.23012 1.60112,1.0544 1.60112,1.79638 0,0.29287 -0.25385,0.6834 -0.42957,0.66388 -0.56625,1.11297 -0.25384,0.89819 -0.31239,3.67085 l -0.31244,13.78522 q -0.039,2.5774 -0.27336,2.96792 -0.29287,0.48814 -0.93724,0.48814 -0.62482,0 -1.3668,-0.7615 l -1.50349,-1.54254 q -5.36959,0.42957 -11.6569,1.24965 -4.178526,0.54672 -5.584382,1.52301 -0.624826,0.42957 -0.917715,0.42957 -0.74198,0 -1.952577,-1.01534 -1.288705,-1.07392 -1.288705,-1.71827 0,-0.13666 0.07811,-0.50767 0.117144,-0.62483 0.117144,-1.05439 0,-0.35147 -0.01948,-0.97629 l -0.331955,-13.1604 q -0.07811,-2.83124 -0.859135,-4.08089 -0.05859,-0.11714 -0.05859,-0.27336 0,-0.37099 0.585775,-0.37099 1.054395,0 2.245466,0.64435 1.698746,0.91771 1.698746,2.01116 0,0.17573 -0.195252,0.42957 -0.410041,0.52719 -0.370991,2.34309 l 0.234325,12.73083 q 0.01948,0.97629 0.234324,1.19107 0.195252,0.21477 0.722455,0.21477 0.878661,0 1.718271,-0.11714 z"
         style="font-weight:bold;font-size:11.2889px;line-height:1.25;font-family:MOESongUN;-inkscape-font-specification:'MOESongUN Bold';letter-spacing:0px;word-spacing:0px;fill:#6a5753;fill-opacity:1;stroke-width:0.937236"
         id="path600-7" />
    </g>
  </g>
</svg>
