<?xml version="1.0" encoding="UTF-8" standalone="no"?>
<svg
   xmlns:dc="http://purl.org/dc/elements/1.1/"
   xmlns:cc="http://creativecommons.org/ns#"
   xmlns:rdf="http://www.w3.org/1999/02/22-rdf-syntax-ns#"
   xmlns:svg="http://www.w3.org/2000/svg"
   xmlns="http://www.w3.org/2000/svg"
   xmlns:sodipodi="http://sodipodi.sourceforge.net/DTD/sodipodi-0.dtd"
   xmlns:inkscape="http://www.inkscape.org/namespaces/inkscape"
   width="24mm"
   height="24mm"
   viewBox="0 0 24 24"
   version="1.1"
   id="svg2567"
   inkscape:version="1.0.1 (3bc2e813f5, 2020-09-07)"
   sodipodi:docname="guileless_bopomofo_keyboard-tone-2.svg">
  <defs
     id="defs2561" />
  <sodipodi:namedview
     id="base"
     pagecolor="#ffffff"
     bordercolor="#666666"
     borderopacity="1.0"
     inkscape:pageopacity="0.0"
     inkscape:pageshadow="2"
     inkscape:zoom="0.35"
     inkscape:cx="-737.5028"
     inkscape:cy="796.7829"
     inkscape:document-units="mm"
     inkscape:current-layer="layer1"
     inkscape:document-rotation="0"
     showgrid="false"
     inkscape:window-width="1920"
     inkscape:window-height="1049"
     inkscape:window-x="1"
     inkscape:window-y="0"
     inkscape:window-maximized="1" />
  <metadata
     id="metadata2564">
    <rdf:RDF>
      <cc:Work
         rdf:about="">
        <dc:format>image/svg+xml</dc:format>
        <dc:type
           rdf:resource="http://purl.org/dc/dcmitype/StillImage" />
        <dc:title></dc:title>
      </cc:Work>
    </rdf:RDF>
  </metadata>
  <g
     inkscape:label="Layer 1"
     inkscape:groupmode="layer"
     id="layer1"
     transform="translate(-300.96428,62.648809)">
    <g
       id="g4651"
       transform="matrix(0.82109133,0,0,0.82109133,160.43586,-96.934819)">
      <rect
         style="fill:none;fill-opacity:0.6;stroke-width:0.0833395"
         id="rect233-5-2"
         width="29.229391"
         height="29.229391"
         x="171.14835"
         y="41.756634" />
      <path
         d="m 191.46184,51.178557 -0.78314,1.060241 q -0.19277,0.265061 -3.03614,3.746989 -1.68675,1.987952 -2.40964,2.879518 -0.79518,0.987952 -1.63855,2.012048 -0.6988,0.843374 -0.78314,0.963856 -0.39759,0.53012 -0.68674,0.53012 -0.6988,0 -1.87952,-1.385542 -0.37349,-0.445783 -0.37349,-0.710843 0,-0.216868 0.24096,-0.409639 l 0.36144,-0.26506 0.44579,-0.33735 q 1.90361,-1.240963 4.14458,-3.180722 1.92771,-1.674699 2.98795,-2.710844 0.24096,-0.228916 1.07229,-1.060242 0.59036,-0.578312 0.87952,-0.855421 l 0.81927,-0.783132 q 0.3253,-0.301205 0.48193,-0.301205 0.3494,0 0.3494,0.361447 0,0.180717 -0.19277,0.445781 z"
         style="font-weight:bold;font-size:11.2889px;line-height:1.25;font-family:MOESongUN;-inkscape-font-specification:'MOESongUN Bold';letter-spacing:0px;word-spacing:0px;fill:#6a5753;fill-opacity:1;stroke-width:0.57831"
         id="path630-9" />
    </g>
  </g>
</svg>
