<?xml version="1.0" encoding="UTF-8" standalone="no"?>
<svg
   xmlns:dc="http://purl.org/dc/elements/1.1/"
   xmlns:cc="http://creativecommons.org/ns#"
   xmlns:rdf="http://www.w3.org/1999/02/22-rdf-syntax-ns#"
   xmlns:svg="http://www.w3.org/2000/svg"
   xmlns="http://www.w3.org/2000/svg"
   xmlns:sodipodi="http://sodipodi.sourceforge.net/DTD/sodipodi-0.dtd"
   xmlns:inkscape="http://www.inkscape.org/namespaces/inkscape"
   width="24mm"
   height="24mm"
   viewBox="0 0 24 24"
   version="1.1"
   id="svg2028"
   inkscape:version="1.0.1 (3bc2e813f5, 2020-09-07)"
   sodipodi:docname="guileless_bopomofo_keyboard_qwerty_left_bracket.svg">
  <defs
     id="defs2022" />
  <sodipodi:namedview
     id="base"
     pagecolor="#ffffff"
     bordercolor="#666666"
     borderopacity="1.0"
     inkscape:pageopacity="0.0"
     inkscape:pageshadow="2"
     inkscape:zoom="0.35"
     inkscape:cx="-1151.7885"
     inkscape:cy="-277.50281"
     inkscape:document-units="mm"
     inkscape:current-layer="layer1"
     inkscape:document-rotation="0"
     showgrid="false"
     inkscape:window-width="1920"
     inkscape:window-height="1049"
     inkscape:window-x="1"
     inkscape:window-y="0"
     inkscape:window-maximized="1" />
  <metadata
     id="metadata2025">
    <rdf:RDF>
      <cc:Work
         rdf:about="">
        <dc:format>image/svg+xml</dc:format>
        <dc:type
           rdf:resource="http://purl.org/dc/dcmitype/StillImage" />
        <dc:title></dc:title>
      </cc:Work>
    </rdf:RDF>
  </metadata>
  <g
     inkscape:label="Layer 1"
     inkscape:groupmode="layer"
     id="layer1"
     transform="translate(-410.57738,-221.58929)">
    <g
       id="g1988"
       transform="translate(293.70662,-43.635659)">
      <rect
         style="fill:none;stroke:none;stroke-width:0.1"
         id="rect10-7-69"
         width="24"
         height="24"
         x="116.87076"
         y="265.22495" />
      <g
         id="g1726"
         style="font-size:11.2889px;line-height:1.25;font-family:'Noto Sans';-inkscape-font-specification:'Noto Sans';letter-spacing:0px;word-spacing:0px;fill:#6c5a57;fill-opacity:0.952941;stroke-width:0.264583"
         transform="translate(262.86222,81.982671)">
        <path
           style="color:#000000;font-style:normal;font-variant:normal;font-weight:normal;font-stretch:normal;font-size:medium;line-height:1.25;font-family:'Noto Sans';-inkscape-font-specification:'Noto Sans';font-variant-ligatures:normal;font-variant-position:normal;font-variant-caps:normal;font-variant-numeric:normal;font-variant-alternates:normal;font-variant-east-asian:normal;font-feature-settings:normal;font-variation-settings:normal;text-indent:0;text-align:start;text-decoration:none;text-decoration-line:none;text-decoration-style:solid;text-decoration-color:#000000;letter-spacing:0px;word-spacing:0px;text-transform:none;writing-mode:lr-tb;direction:ltr;text-orientation:mixed;dominant-baseline:auto;baseline-shift:baseline;text-anchor:start;white-space:normal;shape-padding:0;shape-margin:0;inline-size:0;clip-rule:nonzero;display:inline;overflow:visible;visibility:visible;isolation:auto;mix-blend-mode:normal;color-interpolation:sRGB;color-interpolation-filters:linearRGB;solid-color:#000000;solid-opacity:1;vector-effect:none;fill:#6c5a57;fill-opacity:0.952941;fill-rule:nonzero;stroke:none;stroke-width:0.264583;stroke-linecap:butt;stroke-linejoin:miter;stroke-miterlimit:4;stroke-dasharray:none;stroke-dashoffset:0;stroke-opacity:1;color-rendering:auto;image-rendering:auto;shape-rendering:auto;text-rendering:auto;enable-background:accumulate;stop-color:#000000;stop-opacity:1"
           d="m -129.03253,204.52731 h -2.52871 v -9.84392 h 2.52871 v 0.8128 h -1.55787 v 8.21832 h 1.55787 z"
           id="path1728" />
        <path
           style="color:#000000;font-style:normal;font-variant:normal;font-weight:normal;font-stretch:normal;font-size:medium;line-height:1.25;font-family:'Noto Sans';-inkscape-font-specification:'Noto Sans';font-variant-ligatures:normal;font-variant-position:normal;font-variant-caps:normal;font-variant-numeric:normal;font-variant-alternates:normal;font-variant-east-asian:normal;font-feature-settings:normal;font-variation-settings:normal;text-indent:0;text-align:start;text-decoration:none;text-decoration-line:none;text-decoration-style:solid;text-decoration-color:#000000;letter-spacing:0px;word-spacing:0px;text-transform:none;writing-mode:lr-tb;direction:ltr;text-orientation:mixed;dominant-baseline:auto;baseline-shift:baseline;text-anchor:start;white-space:normal;shape-padding:0;shape-margin:0;inline-size:0;clip-rule:nonzero;display:inline;overflow:visible;visibility:visible;isolation:auto;mix-blend-mode:normal;color-interpolation:sRGB;color-interpolation-filters:linearRGB;solid-color:#000000;solid-opacity:1;vector-effect:none;fill-opacity:1;fill-rule:nonzero;stroke:none;stroke-width:0.264583;stroke-linecap:butt;stroke-linejoin:miter;stroke-miterlimit:4;stroke-dasharray:none;stroke-dashoffset:0;stroke-opacity:1;color-rendering:auto;image-rendering:auto;shape-rendering:auto;text-rendering:auto;enable-background:accumulate;stop-color:#000000;stop-opacity:1"
           d="m -131.69336,194.55078 v 10.10938 h 2.79297 v -0.13282 -0.94531 h -1.55859 v -7.95312 h 1.55859 v -1.07813 z m 0.26367,0.26563 h 2.26563 v 0.54687 h -1.5586 v 8.48438 h 1.5586 v 0.54687 h -2.26563 z"
           id="path1730" />
      </g>
      <g
         id="g1637"
         style="font-size:11.2889px;line-height:1.25;font-family:'Noto Sans';-inkscape-font-specification:'Noto Sans';letter-spacing:0px;word-spacing:0px;fill:#6c5a57;fill-opacity:0.952941;stroke-width:0.264583"
         transform="translate(249.70554,95.407731)">
        <path
           style="color:#000000;font-style:normal;font-variant:normal;font-weight:normal;font-stretch:normal;font-size:medium;line-height:1.25;font-family:'Noto Sans';-inkscape-font-specification:'Noto Sans';font-variant-ligatures:normal;font-variant-position:normal;font-variant-caps:normal;font-variant-numeric:normal;font-variant-alternates:normal;font-variant-east-asian:normal;font-feature-settings:normal;font-variation-settings:normal;text-indent:0;text-align:start;text-decoration:none;text-decoration-line:none;text-decoration-style:solid;text-decoration-color:#000000;letter-spacing:0px;word-spacing:0px;text-transform:none;writing-mode:lr-tb;direction:ltr;text-orientation:mixed;dominant-baseline:auto;baseline-shift:baseline;text-anchor:start;white-space:normal;shape-padding:0;shape-margin:0;inline-size:0;clip-rule:nonzero;display:inline;overflow:visible;visibility:visible;isolation:auto;mix-blend-mode:normal;color-interpolation:sRGB;color-interpolation-filters:linearRGB;solid-color:#000000;solid-opacity:1;vector-effect:none;fill:#6c5a57;fill-opacity:0.952941;fill-rule:nonzero;stroke:none;stroke-width:0.264583;stroke-linecap:butt;stroke-linejoin:miter;stroke-miterlimit:4;stroke-dasharray:none;stroke-dashoffset:0;stroke-opacity:1;color-rendering:auto;image-rendering:auto;shape-rendering:auto;text-rendering:auto;enable-background:accumulate;stop-color:#000000;stop-opacity:1"
           d="m -124.81599,182.90816 c -0.69239,-0.008 -1.23802,-0.15805 -1.63689,-0.45156 -0.39887,-0.29351 -0.59831,-0.74131 -0.59831,-1.34338 v -1.65947 c 0,-0.38382 -0.12042,-0.65475 -0.36125,-0.8128 -0.2333,-0.16557 -0.57197,-0.24835 -1.016,-0.24835 v -0.82409 c 0.44403,-0.008 0.7827,-0.0903 1.016,-0.24836 0.24083,-0.15804 0.36125,-0.42521 0.36125,-0.80151 v -1.67076 c 0,-0.60207 0.20696,-1.04987 0.62089,-1.34338 0.41393,-0.29351 0.95203,-0.44026 1.61431,-0.44026 v 0.8128 c -0.39135,0.008 -0.69991,0.0941 -0.92569,0.25964 -0.21825,0.16557 -0.32738,0.43274 -0.32738,0.80151 v 1.62561 c 0,0.77517 -0.41016,1.23425 -1.23049,1.37724 v 0.0677 c 0.82033,0.14299 1.23049,0.60207 1.23049,1.37724 v 1.65947 c 0,0.36877 0.10913,0.63218 0.32738,0.79022 0.21825,0.16557 0.52682,0.25212 0.92569,0.25965 z"
           id="path1639" />
        <path
           style="color:#000000;font-style:normal;font-variant:normal;font-weight:normal;font-stretch:normal;font-size:medium;line-height:1.25;font-family:'Noto Sans';-inkscape-font-specification:'Noto Sans';font-variant-ligatures:normal;font-variant-position:normal;font-variant-caps:normal;font-variant-numeric:normal;font-variant-alternates:normal;font-variant-east-asian:normal;font-feature-settings:normal;font-variation-settings:normal;text-indent:0;text-align:start;text-decoration:none;text-decoration-line:none;text-decoration-style:solid;text-decoration-color:#000000;letter-spacing:0px;word-spacing:0px;text-transform:none;writing-mode:lr-tb;direction:ltr;text-orientation:mixed;dominant-baseline:auto;baseline-shift:baseline;text-anchor:start;white-space:normal;shape-padding:0;shape-margin:0;inline-size:0;clip-rule:nonzero;display:inline;overflow:visible;visibility:visible;isolation:auto;mix-blend-mode:normal;color-interpolation:sRGB;color-interpolation-filters:linearRGB;solid-color:#000000;solid-opacity:1;vector-effect:none;fill-opacity:1;fill-rule:nonzero;stroke:none;stroke-width:0.264583;stroke-linecap:butt;stroke-linejoin:miter;stroke-miterlimit:4;stroke-dasharray:none;stroke-dashoffset:0;stroke-opacity:1;color-rendering:auto;image-rendering:auto;shape-rendering:auto;text-rendering:auto;enable-background:accumulate;stop-color:#000000;stop-opacity:1"
           d="m -124.81641,172.93164 c -0.68182,0 -1.24837,0.15208 -1.68945,0.46484 -0.44874,0.31821 -0.67773,0.81879 -0.67773,1.45118 v 1.67187 c 0,0.34808 -0.10022,0.55784 -0.30079,0.68945 l -0.002,0.002 c -0.20184,0.13673 -0.51657,0.21733 -0.94531,0.22461 l -0.12891,0.002 v 1.08789 h 0.13282 c 0.42759,0 0.73845,0.08 0.93945,0.22266 l 0.002,0.002 0.002,0.002 c 0.19977,0.1311 0.30079,0.34502 0.30079,0.70117 v 1.66016 c 0,0.63129 0.21869,1.13011 0.65234,1.44922 0.42787,0.31484 1.00209,0.47078 1.71289,0.47852 h 0.13477 v -0.13282 -0.94336 l -0.13086,-0.002 c -0.38104,-0.007 -0.65955,-0.0897 -0.84766,-0.23242 v -0.002 h -0.002 c -0.17867,-0.12938 -0.27344,-0.34092 -0.27344,-0.6836 v -1.6582 c 0,-0.41092 -0.11011,-0.75655 -0.33984,-1.01367 -0.18476,-0.20679 -0.48805,-0.30863 -0.80469,-0.39649 0.31707,-0.0878 0.61975,-0.19145 0.80469,-0.39844 0.22973,-0.25712 0.33984,-0.60275 0.33984,-1.01367 v -1.62695 c 0,-0.34184 0.0957,-0.55632 0.27539,-0.69336 0.19709,-0.144 0.47721,-0.22721 0.84961,-0.23437 l 0.12891,-0.004 v -1.07422 z m -0.13281,0.30078 v 0.54883 c -0.33951,0.0259 -0.64991,0.0859 -0.87109,0.24805 v 0.002 h -0.002 c -0.25593,0.19416 -0.3789,0.51138 -0.3789,0.90625 v 1.62695 c 0,0.36425 -0.093,0.63399 -0.27344,0.83594 -0.18043,0.20195 -0.45741,0.34213 -0.84766,0.41016 l -0.10937,0.0195 v 0.28906 l 0.10937,0.0195 c 0.39025,0.068 0.66723,0.20821 0.84766,0.41016 0.18043,0.20195 0.27344,0.47363 0.27344,0.83789 v 1.6582 c 0,0.39487 0.12497,0.71173 0.38281,0.89844 0.21566,0.16242 0.52633,0.22243 0.86914,0.24805 v 0.54687 c -0.59088,-0.0285 -1.08787,-0.14002 -1.42578,-0.38867 -0.36409,-0.26792 -0.54297,-0.66347 -0.54297,-1.23633 v -1.66016 c 0,-0.41076 -0.14096,-0.73475 -0.42187,-0.91992 -1.2e-4,-8e-5 1.1e-4,-0.002 0,-0.002 -0.23341,-0.16448 -0.57338,-0.22032 -0.95704,-0.23828 v -0.62305 c 0.3843,-0.0229 0.72375,-0.0827 0.95704,-0.24023 h 0.002 c 0.27965,-0.1847 0.41992,-0.50668 0.41992,-0.91016 v -1.67187 c 0,-0.57176 0.18534,-0.96555 0.56445,-1.23438 0.35341,-0.25059 0.83813,-0.35859 1.4043,-0.38086 z"
           id="path1641" />
      </g>
    </g>
  </g>
</svg>
