<?xml version="1.0" encoding="UTF-8" standalone="no"?>
<svg
   xmlns:dc="http://purl.org/dc/elements/1.1/"
   xmlns:cc="http://creativecommons.org/ns#"
   xmlns:rdf="http://www.w3.org/1999/02/22-rdf-syntax-ns#"
   xmlns:svg="http://www.w3.org/2000/svg"
   xmlns="http://www.w3.org/2000/svg"
   xmlns:sodipodi="http://sodipodi.sourceforge.net/DTD/sodipodi-0.dtd"
   xmlns:inkscape="http://www.inkscape.org/namespaces/inkscape"
   width="24mm"
   height="24mm"
   viewBox="0 0 24 24"
   version="1.1"
   id="svg3866"
   inkscape:version="1.0.1 (3bc2e813f5, 2020-09-07)"
   sodipodi:docname="guileless_bopomofo_keyboard-zi.svg">
  <defs
     id="defs3860" />
  <sodipodi:namedview
     id="base"
     pagecolor="#ffffff"
     bordercolor="#666666"
     borderopacity="1.0"
     inkscape:pageopacity="0.0"
     inkscape:pageshadow="2"
     inkscape:zoom="0.35"
     inkscape:cx="293.92576"
     inkscape:cy="-691.78853"
     inkscape:document-units="mm"
     inkscape:current-layer="layer1"
     inkscape:document-rotation="0"
     showgrid="false"
     inkscape:window-width="1920"
     inkscape:window-height="1049"
     inkscape:window-x="0"
     inkscape:window-y="0"
     inkscape:window-maximized="1" />
  <metadata
     id="metadata3863">
    <rdf:RDF>
      <cc:Work
         rdf:about="">
        <dc:format>image/svg+xml</dc:format>
        <dc:type
           rdf:resource="http://purl.org/dc/dcmitype/StillImage" />
        <dc:title></dc:title>
      </cc:Work>
    </rdf:RDF>
  </metadata>
  <g
     inkscape:label="Layer 1"
     inkscape:groupmode="layer"
     id="layer1"
     transform="translate(-28.065476,-331.20238)">
    <g
       id="g4151"
       transform="matrix(0.82109133,0,0,0.82109133,20.164725,175.8827)">
      <rect
         style="fill:none;fill-opacity:0.6;stroke-width:0.0833395"
         id="rect233-56-2"
         width="29.229391"
         height="29.229391"
         x="9.6222563"
         y="189.16249" />
      <path
         d="m 19.584562,194.48956 q -1.55937,0.22277 -3.03304,0.70257 -0.75399,0.25703 -1.14812,0.25703 -0.92532,0 -2.26192,-1.16524 -0.82254,-0.73685 -0.82254,-1.18238 0,-0.29132 0.39413,-0.29132 0.15419,0 0.35986,0.0514 1.13096,0.25703 2.24479,0.25703 0.97674,0 7.95104,-1.16524 6.56305,-1.11383 8.25949,-1.91921 0.53122,-0.25703 0.73687,-0.25703 1.11383,0 2.86169,1.59363 1.02815,0.92534 1.02815,1.43942 0,0.15422 -0.41129,0.53121 -0.49693,0.44553 -0.83964,1.52509 -0.22289,0.75398 -0.90822,4.36965 -0.66828,3.59853 -1.62789,5.65483 -1.13096,2.4333 -2.93023,2.4333 -1.14809,0 -2.70747,-1.55937 -0.99389,-0.97674 -0.99389,-1.28519 0,-0.2399 0.25709,-0.2399 0.15419,0 0.51406,0.1371 0.9939,0.39412 1.83354,0.39412 1.28518,0 1.90208,-1.06242 0.65116,-1.13097 1.35373,-4.64382 0.73683,-3.68421 0.73683,-5.29499 0,-1.25091 -1.02812,-1.25091 -0.41128,0 -1.02815,0.1028 -0.47981,0.10281 -1.54225,0.27416 l -6.78579,1.0967 0.1029,9.51041 q 0.0187,6.16891 0.24,9.5104 0.0342,0.56549 0.0342,1.13097 0,2.02203 -0.66828,3.11873 -0.30839,0.51408 -0.66829,0.51408 -0.46267,0 -1.21667,-1.19951 -0.73683,-1.18238 -0.73683,-2.0049 0,-0.61689 0.27419,-2.10771 0.53122,-2.79315 0.53122,-9.39046 0,-5.1579 -0.25709,-8.58507 z"
         style="font-weight:bold;font-size:11.2889px;line-height:1.25;font-family:MOESongUN;-inkscape-font-specification:'MOESongUN Bold';letter-spacing:0px;word-spacing:0px;fill:#6a5753;fill-opacity:1;stroke-width:0.82252"
         id="path590-9" />
    </g>
  </g>
</svg>
