<?xml version="1.0" encoding="UTF-8" standalone="no"?>
<svg
   xmlns:dc="http://purl.org/dc/elements/1.1/"
   xmlns:cc="http://creativecommons.org/ns#"
   xmlns:rdf="http://www.w3.org/1999/02/22-rdf-syntax-ns#"
   xmlns:svg="http://www.w3.org/2000/svg"
   xmlns="http://www.w3.org/2000/svg"
   xmlns:sodipodi="http://sodipodi.sourceforge.net/DTD/sodipodi-0.dtd"
   xmlns:inkscape="http://www.inkscape.org/namespaces/inkscape"
   width="24mm"
   height="24.000002mm"
   viewBox="0 0 24 24.000002"
   version="1.1"
   id="svg18210"
   inkscape:version="1.0.2 (e86c870879, 2021-01-15, custom)"
   sodipodi:docname="guileless_bopomofo_keyboard-eten26-qwerty-v.svg">
  <defs
     id="defs18204" />
  <sodipodi:namedview
     id="base"
     pagecolor="#ffffff"
     bordercolor="#666666"
     borderopacity="1.0"
     inkscape:pageopacity="0.0"
     inkscape:pageshadow="2"
     inkscape:zoom="0.35"
     inkscape:cx="-934.64569"
     inkscape:cy="373.92576"
     inkscape:document-units="mm"
     inkscape:current-layer="layer1"
     inkscape:document-rotation="0"
     showgrid="false"
     inkscape:window-width="1920"
     inkscape:window-height="1049"
     inkscape:window-x="1"
     inkscape:window-y="0"
     inkscape:window-maximized="1" />
  <metadata
     id="metadata18207">
    <rdf:RDF>
      <cc:Work
         rdf:about="">
        <dc:format>image/svg+xml</dc:format>
        <dc:type
           rdf:resource="http://purl.org/dc/dcmitype/StillImage" />
        <dc:title></dc:title>
      </cc:Work>
    </rdf:RDF>
  </metadata>
  <g
     inkscape:label="Layer 1"
     inkscape:groupmode="layer"
     id="layer1"
     transform="translate(-353.125,-49.232142)">
    <g
       id="g3469"
       transform="translate(-156.85937,43.700932)">
      <g
         id="g3751-1-2"
         transform="matrix(0.27369707,0,0,0.27369707,507.49846,-7.9835997)">
        <rect
           style="fill:none;fill-opacity:0.6;stroke-width:0.0833395"
           id="rect233-0-13-5"
           width="29.229391"
           height="29.229391"
           x="9.0827417"
           y="78.608101" />
        <path
           d="m 20.369431,79.291596 q 0.705158,-0.03438 1.719902,1.083538 1.117935,1.203931 1.117935,2.42506 0,0.53317 -0.533169,0.825554 -0.326782,0.171986 -0.619166,0.481571 -0.447174,0.464376 -2.184274,3.285015 -1.03194,1.685501 -2.941032,4.488941 -0.997542,1.461918 -0.997542,2.321866 0,0.515975 0.859951,1.633907 0.154793,0.206401 1.874692,2.132679 1.754299,1.926293 2.476659,2.803443 1.014744,1.23832 1.35872,2.06388 0.257978,0.61916 0.257978,1.61671 0,1.53071 -0.636364,2.30466 -0.395578,0.46438 -0.945947,0.46438 -0.584765,0 -1.066339,-0.75676 -0.361178,-0.58476 -1.014741,-2.09828 -1.255529,-2.88943 -3.835379,-7.378377 -1.358724,-2.407862 -1.358724,-2.975429 0,-0.808355 1.393121,-3.147419 4.110565,-6.914005 4.50614,-10.697789 0.08599,-0.859951 0.56757,-0.87715 z m 10.285009,-0.0688 q 0.72236,0 1.719902,1.083538 1.117941,1.203934 1.117941,2.407865 0,0.550368 -0.533172,0.842749 -0.309586,0.171985 -0.619166,0.481574 -0.412777,0.429976 -2.184274,3.30221 -1.014744,1.651105 -2.941032,4.471743 -0.997542,1.479117 -0.997542,2.339068 0,0.722359 1.754299,2.665851 l 0.980344,1.100734 q 1.754299,1.909089 2.476659,2.786242 1.031942,1.25553 1.35872,2.08108 0.257978,0.61916 0.257978,1.63391 0,1.53071 -0.636361,2.28747 -0.395578,0.46437 -0.945947,0.46437 -0.584768,0 -1.066339,-0.75676 -0.34398,-0.56757 -1.014741,-2.09828 -1.255529,-2.85504 -3.835382,-7.395578 -1.358721,-2.390663 -1.358721,-2.958229 0,-0.808353 1.393121,-3.164619 4.110565,-6.931203 4.50614,-10.714987 0.08599,-0.859951 0.567567,-0.859951 z"
           style="font-weight:bold;font-size:11.2889px;line-height:1.25;font-family:MOESongUN;-inkscape-font-specification:'MOESongUN Bold';letter-spacing:0px;word-spacing:0px;fill:#6a5753;fill-opacity:1;stroke-width:0.825551"
           id="path570-9-5-3" />
      </g>
      <rect
         style="fill:none;stroke:none;stroke-width:0.0833333"
         id="rect10-6-8-5"
         width="20"
         height="20"
         x="513.98438"
         y="9.5312119" />
      <g
         id="g1127-3-7"
         style="font-weight:bold;font-size:11.2889px;line-height:1.25;font-family:MOESongUN;-inkscape-font-specification:'MOESongUN Bold';letter-spacing:0px;word-spacing:0px;fill:#6c5a57;fill-opacity:0.952941;stroke-width:0.264583"
         transform="matrix(1.4015329,0,0,1.4015329,482.58303,12.457849)">
        <path
           style="color:#000000;font-style:normal;font-variant:normal;font-weight:normal;font-stretch:normal;font-size:medium;line-height:1.25;font-family:'Noto Sans';-inkscape-font-specification:'Noto Sans';font-variant-ligatures:normal;font-variant-position:normal;font-variant-caps:normal;font-variant-numeric:normal;font-variant-alternates:normal;font-variant-east-asian:normal;font-feature-settings:normal;font-variation-settings:normal;text-indent:0;text-align:start;text-decoration:none;text-decoration-line:none;text-decoration-style:solid;text-decoration-color:#000000;letter-spacing:0px;word-spacing:0px;text-transform:none;writing-mode:lr-tb;direction:ltr;text-orientation:mixed;dominant-baseline:auto;baseline-shift:baseline;text-anchor:start;white-space:normal;shape-padding:0;shape-margin:0;inline-size:0;clip-rule:nonzero;display:inline;overflow:visible;visibility:visible;isolation:auto;mix-blend-mode:normal;color-interpolation:sRGB;color-interpolation-filters:linearRGB;solid-color:#000000;solid-opacity:1;vector-effect:none;fill:#6c5a57;fill-opacity:0.952941;fill-rule:nonzero;stroke:none;stroke-width:0.264583;stroke-linecap:butt;stroke-linejoin:miter;stroke-miterlimit:4;stroke-dasharray:none;stroke-dashoffset:0;stroke-opacity:1;color-rendering:auto;image-rendering:auto;shape-rendering:auto;text-rendering:auto;enable-background:accumulate;stop-color:#000000;stop-opacity:1"
           d="m 32.926639,1.0165341 -2.87867,8.0602748 h -1.016001 l -2.87867,-8.0602748 h 1.061157 l 1.817513,5.1703163 c 0.120415,0.3311411 0.222015,0.6434673 0.3048,0.9369788 0.08279,0.2859855 0.150519,0.560682 0.2032,0.8240897 0.05268,-0.2634077 0.120414,-0.5418672 0.203201,-0.8353786 0.08278,-0.2935115 0.184385,-0.6096007 0.3048,-0.9482677 l 1.806224,-5.1477385 z"
           id="path1129-1-3" />
        <path
           style="color:#000000;font-style:normal;font-variant:normal;font-weight:normal;font-stretch:normal;font-size:medium;line-height:1.25;font-family:'Noto Sans';-inkscape-font-specification:'Noto Sans';font-variant-ligatures:normal;font-variant-position:normal;font-variant-caps:normal;font-variant-numeric:normal;font-variant-alternates:normal;font-variant-east-asian:normal;font-feature-settings:normal;font-variation-settings:normal;text-indent:0;text-align:start;text-decoration:none;text-decoration-line:none;text-decoration-style:solid;text-decoration-color:#000000;letter-spacing:0px;word-spacing:0px;text-transform:none;writing-mode:lr-tb;direction:ltr;text-orientation:mixed;dominant-baseline:auto;baseline-shift:baseline;text-anchor:start;white-space:normal;shape-padding:0;shape-margin:0;inline-size:0;clip-rule:nonzero;display:inline;overflow:visible;visibility:visible;isolation:auto;mix-blend-mode:normal;color-interpolation:sRGB;color-interpolation-filters:linearRGB;solid-color:#000000;solid-opacity:1;vector-effect:none;fill:#6c5a57;fill-opacity:0.952941;fill-rule:nonzero;stroke:none;stroke-width:0.264583;stroke-linecap:butt;stroke-linejoin:miter;stroke-miterlimit:4;stroke-dasharray:none;stroke-dashoffset:0;stroke-opacity:1;color-rendering:auto;image-rendering:auto;shape-rendering:auto;text-rendering:auto;enable-background:accumulate;stop-color:#000000;stop-opacity:1"
           d="m 25.964844,0.88476562 2.974609,8.32421878 h 1.201172 L 33.115234,0.88476562 H 32.925781 31.759766 L 29.923828,6.1210938 c -0.120957,0.3403043 -0.225023,0.6587811 -0.308594,0.9550781 -0.03127,0.1108513 -0.04912,0.209652 -0.07617,0.3164062 -0.02657,-0.1027868 -0.04557,-0.1989856 -0.07617,-0.3046875 h 0.002 C 29.381038,6.7907606 29.277627,6.476366 29.15625,6.1425781 L 27.308594,0.88476562 Z m 0.375,0.26367188 h 0.78125 l 1.787109,5.0820313 v 0.00195 c 0.119452,0.3284942 0.219017,0.6378415 0.300781,0.9277343 0.08185,0.2827646 0.149299,0.5550845 0.201172,0.8144532 h 0.259766 c 0.05192,-0.2596057 0.119201,-0.5355558 0.201172,-0.8261719 0.08185,-0.2901772 0.181202,-0.6031359 0.300781,-0.9394531 l 1.775391,-5.0605469 h 0.792968 l -2.785156,7.796875 H 29.125 Z"
           id="path1131-9-9" />
      </g>
      <rect
         style="fill:none;fill-opacity:0.6;stroke-width:0.0684293"
         id="rect233-7-6-9-4-6-93-7"
         width="24"
         height="24"
         x="509.98438"
         y="5.5312099" />
      <g
         id="g3826-52-2"
         transform="matrix(0.27369699,0,0,0.27369699,496.40924,-26.069727)">
        <rect
           style="fill:none;fill-opacity:0.6;stroke-width:0.0833395"
           id="rect233-6-1-4-7"
           width="29.229391"
           height="29.229391"
           x="49.599148"
           y="115.45957" />
        <path
           d="m 62.716413,127.32901 -1.23977,1.3364 q -1.56182,1.70673 -1.56182,2.44739 0,0.64404 1.41691,1.70672 0.49911,0.37033 2.65668,2.02876 2.84993,2.18976 4.15412,3.44565 2.20588,2.10926 2.20588,4.21852 0,1.56182 -1.11099,1.56182 -0.56356,0 -1.1593,-0.74066 -0.28977,-0.37033 -1.46519,-2.04485 -1.59404,-2.25417 -4.21853,-4.92697 -2.56008,-2.5923 -4.00921,-3.54227 -0.82116,-0.53134 -0.82116,-1.69062 0,-0.85337 0.69237,-1.272 1.5296,-0.96607 4.99135,-5.3939 3.70329,-4.74986 4.70158,-7.43876 0.35421,-0.94997 0.74063,-0.94997 0.54746,0 1.36862,0.96607 0.80507,0.96607 0.80507,1.86774 0,0.33812 -0.2737,0.53134 -0.0482,0.0322 -0.57965,0.33813 -1.0949,0.59574 -2.64059,2.41518 -0.85338,1.01437 -3.30077,3.67107 z"
           style="font-weight:bold;font-size:11.2889px;line-height:1.25;font-family:MOESongUN;-inkscape-font-specification:'MOESongUN Bold';letter-spacing:0px;word-spacing:0px;fill:#6a5753;fill-opacity:1;stroke-width:0.772856"
           id="path578-4-4-2" />
      </g>
    </g>
  </g>
</svg>
