<?xml version="1.0" encoding="UTF-8" standalone="no"?>
<svg
   width="28.574997mm"
   height="28.575003mm"
   viewBox="0 0 28.574997 28.575003"
   version="1.1"
   id="svg8"
   xmlns="http://www.w3.org/2000/svg"
   xmlns:svg="http://www.w3.org/2000/svg"
   xmlns:rdf="http://www.w3.org/1999/02/22-rdf-syntax-ns#"
   xmlns:cc="http://creativecommons.org/ns#"
   xmlns:dc="http://purl.org/dc/elements/1.1/">
  <defs
     id="defs2" />
  <metadata
     id="metadata5">
    <rdf:RDF>
      <cc:Work
         rdf:about="">
        <dc:format>image/svg+xml</dc:format>
        <dc:type
           rdf:resource="http://purl.org/dc/dcmitype/StillImage" />
        <dc:title>Guileless Bopomofo Keyboard</dc:title>
        <cc:license
           rdf:resource="http://creativecommons.org/licenses/by-nd/4.0/" />
        <dc:creator>
          <cc:Agent>
            <dc:title>YOU, HUI-HONG</dc:title>
          </cc:Agent>
        </dc:creator>
      </cc:Work>
      <cc:License
         rdf:about="http://creativecommons.org/licenses/by-nd/4.0/">
        <cc:permits
           rdf:resource="http://creativecommons.org/ns#Reproduction" />
        <cc:permits
           rdf:resource="http://creativecommons.org/ns#Distribution" />
        <cc:requires
           rdf:resource="http://creativecommons.org/ns#Notice" />
        <cc:requires
           rdf:resource="http://creativecommons.org/ns#Attribution" />
      </cc:License>
    </rdf:RDF>
  </metadata>
  <g
     id="layer6"
     transform="translate(-171.44998,-57.149996)">
    <g
       id="g34">
      <g
         id="g18087"
         transform="matrix(1.1906231,0,0,1.1906231,-32.682328,-45.421466)">
        <rect
           style="fill:none;fill-opacity:0.952941;stroke:none;stroke-width:1.655"
           id="rect20270-6-1-4-7-2"
           width="24"
           height="24"
           x="171.45004"
           y="438.14999" />
        <path
           d="m 183.49323,452.94217 c 1.69833,-0.0288 2.70581,-1.26655 2.70581,-2.70582 0,-1.52562 -1.00748,-2.87853 -2.7346,-2.87853 -1.69833,0 -2.76339,1.3817 -2.76339,2.87853 0.0288,1.41048 1.15141,2.67704 2.79218,2.70582 z"
           style="font-weight:600;font-size:28.7853px;line-height:1em;font-family:'Noto Serif CJK TC';-inkscape-font-specification:'Noto Serif CJK TC Semi-Bold';fill:#6c5a57;fill-opacity:0.952941;stroke-width:0.599692"
           id="path40759-5" />
      </g>
      <g
         id="g18083"
         transform="matrix(1.1906241,0,0,1.1906241,-25.419719,-45.421915)">
        <rect
           style="fill:none;fill-opacity:0.952941;stroke:none;stroke-width:1.655"
           id="rect20270-6-8-9-8"
           width="24"
           height="24"
           x="133.35001"
           y="438.14999" />
        <path
           d="m 150.13117,453.99817 0.54692,-0.86356 c 0,0 -5.81463,-4.5193 -8.17503,-6.36155 -1.81347,-1.41048 -3.48302,0.69084 -1.7559,1.78468 1.29534,0.80599 9.38401,5.44043 9.38401,5.44043 z"
           style="font-weight:600;font-size:28.7853px;line-height:1em;font-family:'Noto Serif CJK TC';-inkscape-font-specification:'Noto Serif CJK TC Semi-Bold';fill:#6c5a57;fill-opacity:0.952941;stroke-width:0.599692"
           id="path40757-2" />
      </g>
      <g
         id="g18079"
         transform="matrix(1.1906233,0,0,1.1906233,-18.156868,-45.421549)">
        <rect
           style="fill:none;fill-opacity:0.952941;stroke:none;stroke-width:1.655"
           id="rect20270-6-1-5-0"
           width="24"
           height="24"
           x="95.250038"
           y="438.14999" />
        <path
           d="m 107.26443,451.40215 -4.43294,-6.41912 -1.18019,0.54692 5.52677,9.84457 5.67071,-9.87336 -1.15141,-0.5757 z"
           style="font-weight:600;font-size:28.7853px;line-height:1em;font-family:'Noto Serif CJK TC';-inkscape-font-specification:'Noto Serif CJK TC Semi-Bold';fill:#6c5a57;fill-opacity:0.952941;stroke-width:0.599692"
           id="path40755-5" />
      </g>
      <g
         id="g18075"
         transform="matrix(1.1906241,0,0,1.1906241,-10.894162,-45.421915)">
        <rect
           style="fill:none;fill-opacity:0.952941;stroke:none;stroke-width:1.655"
           id="rect20270-6-0-5"
           width="24"
           height="24"
           x="57.149998"
           y="438.14999" />
        <path
           d="m 63.830899,453.13278 0.5757,0.86355 c 0,0 8.05989,-4.63443 9.35522,-5.44042 1.69834,-1.06505 0.0288,-3.19517 -1.7559,-1.78469 -2.38918,1.87105 -8.17502,6.36156 -8.17502,6.36156 z"
           style="font-weight:600;font-size:28.7853px;line-height:1em;font-family:'Noto Serif CJK TC';-inkscape-font-specification:'Noto Serif CJK TC Semi-Bold';fill:#6c5a57;fill-opacity:0.952941;stroke-width:0.599692"
           id="path40753-4" />
      </g>
      <g
         id="g18071"
         transform="matrix(1.1906243,0,0,1.1906243,-10.894177,-38.159238)">
        <rect
           style="fill:none;fill-opacity:0.952941;stroke:none;stroke-width:1.655"
           id="rect20270-6-3-8-5-6-2"
           width="24"
           height="24"
           x="57.149998"
           y="400.04999" />
        <path
           d="m 64.393698,403.36308 c 0.22777,0.26032 0.585709,0.78096 0.81349,1.46429 0.195236,0.65079 0.260315,1.23651 0.195236,3.09127 -0.162702,4.00238 -0.715877,6.93096 -2.375402,9.14366 -1.496822,2.01746 -2.733329,2.79841 -5.336512,4.23016 -0.878569,0.42302 -0.618254,1.17143 0.29286,0.97619 2.700795,-0.6508 5.141276,-1.85477 6.930958,-4.29524 1.39921,-1.91985 2.180166,-4.84841 2.570638,-9.40397 0.130157,-1.65953 0.130157,-2.99366 0.357939,-3.48175 0.390472,-0.91112 0.357938,-1.23651 -0.520641,-1.75715 -0.488097,-0.29285 -1.529368,-0.71587 -2.50556,-0.84604 -0.780945,-0.13015 -1.041271,0.22779 -0.423006,0.87858 z m 6.507941,1.43175 c 0.195236,1.39921 -0.553175,11.3889 -0.650799,12.85318 -0.09767,1.69207 0.03256,3.67698 1.692059,4.13255 2.342868,0.61825 5.531759,0.71586 7.38652,0.58571 1.594446,-0.13016 2.277778,-0.68334 1.496822,-1.59445 -0.715877,-0.84602 -1.789682,-1.00873 -3.058734,-0.78095 -1.561901,0.26032 -4.197618,0.68334 -5.17381,-0.48809 -0.846035,-1.04127 -0.29286,-6.01985 0,-8.59048 0.260315,-2.53811 0.423018,-4.94604 0.943647,-6.11747 0.58572,-1.20396 0.423018,-1.72461 -0.553174,-2.24524 -0.683333,-0.42301 -1.594446,-0.71587 -2.375391,-0.84603 -1.041271,-0.13016 -1.236507,0.39047 -0.650799,0.94365 0.748411,0.71587 0.846035,1.26905 0.943659,2.14762 z"
           style="font-weight:600;font-size:28.7853px;line-height:1em;font-family:'Noto Serif CJK TC';-inkscape-font-specification:'Noto Serif CJK TC Semi-Bold';fill:#6c5a57;fill-opacity:0.952941;stroke-width:0.677908"
           id="path40751-7" />
      </g>
      <g
         id="g18067"
         transform="matrix(1.1906233,0,0,1.1906233,-32.682362,-30.896073)">
        <rect
           style="fill:none;fill-opacity:0.952941;stroke:none;stroke-width:1.655"
           id="rect20270-6-3-8-5-8-6-8"
           width="24"
           height="24"
           x="171.45001"
           y="361.95001" />
        <path
           d="m 183.89356,362.54625 c -1.88926,-1.17136 -2.11597,-0.64235 -1.85148,1.81369 0.49122,4.04303 -5.55444,14.77406 -9.06848,17.75911 -1.0202,0.83128 -1.5492,0.83128 -1.51141,2.53163 0.0378,1.88926 0.68013,1.36026 2.64498,0.64235 3.66516,-1.3225 14.73628,-2.49384 18.66596,-1.73814 3.13618,0.56678 3.28732,-0.68013 1.58698,-1.85148 -0.94463,-0.64235 -1.70034,-1.20913 -3.3629,-1.02021 -2.64497,0.22672 -11.52453,1.09578 -15.00078,1.43585 3.02283,-3.36289 7.67043,-11.97796 9.10626,-14.92521 0.68015,-1.43584 0.83129,-1.96484 0.18894,-2.98504 -0.30229,-0.529 -0.94465,-1.36027 -1.39807,-1.66255 z"
           style="font-weight:600;font-size:28.7853px;line-height:1em;font-family:'Noto Serif CJK TC';-inkscape-font-specification:'Noto Serif CJK TC Semi-Bold';fill:#6c5a57;fill-opacity:0.952941;stroke-width:0.787193"
           id="path40749-3" />
      </g>
      <g
         id="g18063"
         transform="matrix(1.190623,0,0,1.190623,-25.41957,-30.895961)">
        <rect
           style="fill:none;fill-opacity:0.952941;stroke:none;stroke-width:1.655"
           id="rect20270-6-3-8-5-0-4"
           width="24"
           height="24"
           x="133.35002"
           y="361.95001" />
        <path
           d="m 145.61626,373.03468 c 0.2886,0.38478 -0.0321,6.02835 0.0642,8.08056 0.0962,1.85982 0.48099,2.88593 2.46907,3.59137 2.14841,0.76958 6.41315,0.41685 7.79198,0.22446 1.25056,-0.19239 1.92395,-0.54512 0.92991,-1.41089 -0.89785,-0.80164 -1.3147,-0.89784 -2.69352,-0.35272 -1.2185,0.48098 -3.65551,0.51304 -4.71367,0.28859 -1.73156,-0.35273 -2.14842,-1.15437 -2.18048,-3.04626 -0.0321,-2.18047 0.1924,-5.35497 0.57718,-6.09249 0.3848,-0.76958 0.22447,-1.09023 -0.41685,-1.53916 -0.44892,-0.32065 -0.89784,-0.60925 -1.5071,-0.80164 -0.64131,-0.22446 -0.96196,0.12826 -0.32065,1.05818 z m -10.42137,-1.3147 c 1.34676,1.28262 1.66743,1.37883 3.49517,0.83371 0.83372,-0.22447 2.56526,-0.54512 4.52127,-0.86579 -0.25652,0.86579 -0.54512,1.76362 -0.9299,2.66146 -1.63536,3.87996 -4.23269,7.56753 -8.30504,9.90833 -1.18644,0.67338 -0.54512,1.2185 0.73751,0.76958 2.95006,-1.05817 6.02837,-3.11038 8.91429,-8.78602 0.80165,-1.53916 1.34677,-3.27072 1.76361,-4.84194 2.918,-0.41684 5.90011,-0.70544 7.21481,-0.57718 2.46907,0.16034 2.98211,-0.19239 1.66741,-1.28263 -1.15436,-0.99404 -1.63535,-0.99404 -3.94409,-0.54511 l -4.61746,0.83371 c 0.51304,-2.46907 0.64131,-4.39302 0.76958,-4.64954 0.32065,-0.60925 0.41684,-1.02611 -0.12827,-1.4109 -0.60925,-0.38479 -1.31469,-0.80164 -2.21254,-0.99404 -1.21849,-0.25652 -1.4109,0.25653 -0.32065,1.41089 0.48098,0.48099 0.48098,2.98213 -0.1924,5.9963 l -0.16033,0.0321 c -3.33484,0.48099 -6.25283,0.92991 -7.47133,0.60925 -1.57122,-0.41685 -1.69948,0.0321 -0.80164,0.89785 z"
           style="font-weight:600;font-size:28.7853px;line-height:1em;font-family:'Noto Serif CJK TC';-inkscape-font-specification:'Noto Serif CJK TC Semi-Bold';fill:#6c5a57;fill-opacity:0.952941;stroke-width:0.668035"
           id="path40747-9" />
      </g>
      <g
         id="g18059"
         transform="matrix(1.1906232,0,0,1.1906232,-18.156859,-30.896055)">
        <rect
           style="fill:none;fill-opacity:0.952941;stroke:none;stroke-width:1.655"
           id="rect20270-6-3-8-5-8-4"
           width="24"
           height="24"
           x="95.25"
           y="361.95001" />
        <path
           d="m 101.95148,363.45509 c 0.49285,0.7557 -1.0514,8.47693 -2.628506,9.49547 -0.788547,0.55856 -0.854259,0.91998 -0.624273,1.54425 0.328575,0.95284 0.525711,1.01855 1.708539,0.62427 2.33279,-0.88712 8.27977,-1.87281 10.87542,-1.64281 1.83996,0.19714 1.97138,0.78854 1.67567,2.23423 -0.2957,1.64281 -1.41282,4.7313 -2.20136,6.11127 -0.78856,1.51139 -1.21569,1.51139 -0.91998,2.59564 0.62427,2.0371 0.91998,1.97139 1.97138,0.23 1.11711,-1.74138 2.82564,-8.27979 3.54848,-9.29833 0.91998,-1.24854 0.75569,-1.77425 -0.85427,-2.92421 -1.41282,-1.0514 -1.77423,-1.0514 -3.21992,-0.95284 -2.79278,0.19715 -6.27555,0.65713 -9.56117,1.2814 0.98569,-2.16852 2.52993,-6.96553 2.89135,-7.78695 0.49285,-1.05139 0.65712,-1.31425 -0.0329,-1.83995 -0.72284,-0.59141 -1.41282,-0.85426 -2.03709,-1.0514 -1.18283,-0.39428 -1.41282,0.16428 -0.59141,1.37996 z"
           style="font-weight:600;font-size:28.7853px;line-height:1em;font-family:'Noto Serif CJK TC';-inkscape-font-specification:'Noto Serif CJK TC Semi-Bold';fill:#6c5a57;fill-opacity:0.952941;stroke-width:0.684504"
           id="path40745-6" />
      </g>
      <g
         id="g18055"
         transform="matrix(1.1906233,0,0,1.1906233,-10.894115,-30.896064)">
        <rect
           style="fill:none;fill-opacity:0.952941;stroke:none;stroke-width:1.655"
           id="rect20270-6-3-8-5-9"
           width="24"
           height="24"
           x="57.149998"
           y="361.95001" />
        <path
           d="m 64.151417,365.83327 c 0.356011,0.99685 0.03562,2.0293 -0.391619,3.09733 -0.605225,1.56648 -1.459652,3.13294 -2.492103,3.88057 -0.961237,0.71203 -1.424058,0.96125 -1.317248,1.42406 0,0.42722 0.391606,1.35286 0.890034,1.53086 0.498416,0.21361 0.818832,-0.24921 1.744474,-0.53402 1.459665,-0.56962 9.291987,-1.24605 11.606092,-1.06805 2.100485,0.21362 1.922473,1.35286 1.744474,1.85129 -0.67644,2.02928 -1.566475,3.95177 -3.061735,5.76744 -1.21045,1.45965 -1.530867,1.81568 -1.602069,2.6701 -0.07124,1.67328 0.56963,1.9581 1.744474,0.78324 1.851283,-1.99369 3.097329,-4.16537 4.663791,-7.15589 0.498428,-1.06805 0.925642,-1.99369 1.637677,-2.3497 0.569618,-0.32042 0.605225,-0.99685 -0.427214,-1.95808 -1.103653,-0.96125 -2.420914,-1.70888 -4.699398,-1.56648 -3.097342,0.14241 -9.541202,0.74763 -10.644855,0.89004 0.56963,-0.85443 2.70571,-4.59259 3.026127,-5.37583 0.356011,-0.85443 0.56963,-1.17484 0,-1.85127 -0.356012,-0.39162 -0.74763,-0.74763 -1.103642,-0.96124 2.420902,-0.49842 5.589433,-0.96125 7.191503,-0.89004 1.744473,0.0712 1.851271,0.64083 1.708866,1.38846 -0.320416,1.49526 -1.49526,4.27218 -2.492104,5.90985 -0.427213,0.74763 0.249214,1.17484 0.712035,0.78324 2.207295,-1.92249 3.168532,-5.41144 4.200971,-6.19467 0.854439,-0.64083 0.890034,-1.42406 0.427226,-1.95809 -0.427226,-0.46282 -1.673272,-1.45965 -1.886879,-1.63766 -0.712035,-0.46282 -1.068046,-0.42721 -2.136092,-0.17801 -2.954925,0.60522 -11.214473,1.60207 -13.03015,1.17485 -1.851283,-0.39161 -2.100485,-0.2136 -0.605225,1.28166 1.352855,1.28165 2.06489,1.35285 3.453341,0.89003 l 1.032451,-0.28481 c 0,0.21361 0.03562,0.42722 0.106859,0.64082 z"
           style="font-weight:600;font-size:28.7853px;line-height:1em;font-family:'Noto Serif CJK TC';-inkscape-font-specification:'Noto Serif CJK TC Semi-Bold';fill:#6c5a57;fill-opacity:0.952941;stroke-width:0.741696"
           id="path40743-5" />
      </g>
      <g
         id="g18051"
         transform="matrix(1.1906235,0,0,1.1906235,-32.682404,-23.633404)">
        <rect
           style="fill:none;fill-opacity:0.952941;stroke:none;stroke-width:1.655"
           id="rect20270-6-3-8-59-7-4"
           width="24"
           height="24"
           x="171.45001"
           y="323.85001" />
        <path
           d="m 177.67247,330.57311 c 2.64755,1.8034 5.25673,4.75792 6.86828,6.56132 l 0.19186,0.23022 c -3.79867,4.29747 -7.25199,6.98339 -11.35761,9.05539 -1.68829,0.84415 -1.41971,1.99525 1.57318,1.11274 2.72429,-0.84414 6.67643,-2.95452 11.51109,-8.24962 1.84177,2.11037 3.99051,4.75792 4.48933,5.79392 1.45807,3.18473 1.91851,3.03125 3.03125,1.4197 0.7674,-1.03599 0.7674,-1.53481 -0.99763,-3.60681 -1.49644,-1.76503 -3.53007,-3.91377 -4.98814,-5.44858 3.29984,-4.10562 4.37421,-7.21362 5.33348,-8.28799 1.76503,-1.99524 1.72665,-2.26384 -0.69067,-4.29747 -1.64993,-1.38132 -2.07201,-1.11273 -4.48933,-0.53717 -2.26384,0.49881 -10.5902,1.61155 -12.58546,1.18947 -2.07199,-0.42208 -2.26384,-0.0768 -0.65229,1.53481 1.03599,1.11275 1.49644,1.53481 3.76029,0.88251 2.57081,-0.72903 8.55657,-1.41969 10.09138,-1.49643 1.8034,-0.11517 2.22548,0.42208 1.61156,1.95689 -0.53719,1.26621 -1.26622,3.64517 -4.18236,7.25198 -2.57082,-2.41732 -5.64044,-5.25674 -7.29036,-5.9474 -1.45807,-0.61393 -2.49407,0.0768 -1.22785,0.88252 z"
           style="font-weight:600;font-size:28.7853px;line-height:1em;font-family:'Noto Serif CJK TC';-inkscape-font-specification:'Noto Serif CJK TC Semi-Bold';fill:#6c5a57;fill-opacity:0.952941;stroke-width:0.799379"
           id="path40741-6" />
      </g>
      <g
         id="g18047"
         transform="matrix(1.1906235,0,0,1.1906235,-25.419639,-23.633387)">
        <rect
           style="fill:none;fill-opacity:0.952941;stroke:none;stroke-width:1.655"
           id="rect20270-6-3-8-3-2"
           width="24"
           height="24"
           x="133.35001"
           y="323.85001" />
        <path
           d="m 145.23253,325.50681 c 0.13331,0.86654 -0.96652,2.76624 -2.86622,5.03255 -1.86637,2.23298 -3.49945,3.89939 -4.6326,4.19935 -1.63308,0.43325 -1.76639,2.63291 0.16663,2.43294 2.26631,-0.23329 4.96589,-0.0667 7.16555,0.53326 -2.16632,2.46628 -4.76593,4.79924 -7.2322,6.19902 -0.96652,0.56658 -1.33313,0.96653 -1.19982,1.69974 0.26663,1.56642 0.86654,1.49976 2.93288,0.89986 2.16633,-0.66656 9.2319,-1.26646 12.1981,-1.69973 l 0.19996,0.63323 c 0.66656,2.69958 1.39978,2.99953 2.09967,1.56643 0.66657,-1.39979 -0.8332,-5.33251 -3.96604,-8.26539 -1.13316,-1.09982 -1.6664,-0.69988 -1.19982,0.13332 0.79988,1.36645 1.59976,2.86622 2.16634,4.19934 -2.06635,0.26662 -7.43218,0.79988 -9.23189,1.03317 -0.43327,0.0333 -0.63324,-0.16663 -0.26663,-0.46659 1.93303,-1.63308 4.99922,-4.73259 6.06572,-5.96574 2.63292,-2.99952 4.16601,-5.16585 4.93255,-5.79909 0.93319,-0.76654 1.23315,-0.99984 0.66657,-1.83304 -0.33328,-0.53326 -0.99984,-1.16649 -1.79972,-1.66641 -1.0665,-0.5999 -1.29979,-0.29995 -1.16648,1.5331 0.0999,0.79986 -1.49977,3.26615 -3.89939,6.23236 -1.76639,-0.39995 -4.266,-0.89986 -5.29917,-1.09984 -0.2333,-0.0333 -0.4666,-0.13331 -0.13332,-0.43327 2.29964,-2.09966 5.06588,-5.73243 6.13238,-6.7656 1.23314,-1.13315 1.43311,-1.43311 0.89985,-2.133 -0.33327,-0.49992 -0.8332,-1.0665 -1.49976,-1.46643 -0.99984,-0.59992 -1.53309,-0.73323 -1.23314,1.26646 z"
           style="font-weight:600;font-size:28.7853px;line-height:1em;font-family:'Noto Serif CJK TC';-inkscape-font-specification:'Noto Serif CJK TC Semi-Bold';fill:#6c5a57;fill-opacity:0.952941;stroke-width:0.694334"
           id="path40739-7" />
      </g>
      <g
         id="g18043"
         transform="matrix(1.1906233,0,0,1.1906233,-18.156869,-23.633341)">
        <rect
           style="fill:none;fill-opacity:0.952941;stroke:none;stroke-width:1.655"
           id="rect20270-6-3-8-59-59"
           width="24"
           height="24"
           x="95.25"
           y="323.85001" />
        <path
           d="m 98.014033,326.77382 c 1.118471,1.01361 1.747599,1.25828 3.040837,0.87381 1.57285,-0.45438 4.19425,-1.08352 6.32635,-1.08352 -0.10491,3.35542 -0.035,7.20016 0.8039,10.90509 1.15341,4.85836 3.0758,8.10892 6.01178,10.38081 0.80389,-0.6641 1.39808,-1.01361 2.09713,-1.11848 1.53789,-0.24465 1.53789,-0.62913 -0.0699,-1.43303 -2.86609,-1.50295 -4.7535,-4.33408 -5.87197,-8.24872 -1.01362,-3.60008 -1.29324,-9.26235 -0.69905,-9.99634 1.60781,-1.95733 1.74762,-2.23694 0.76895,-2.83113 -0.8039,-0.41942 -1.11847,-0.59419 -2.23694,0.0699 -1.39809,0.8039 -7.51472,1.468 -8.947769,1.22333 -2.691317,-0.45438 -2.621413,0.035 -1.223315,1.25828 z"
           style="font-weight:600;font-size:28.7853px;line-height:1em;font-family:'Noto Serif CJK TC';-inkscape-font-specification:'Noto Serif CJK TC Semi-Bold';fill:#6c5a57;fill-opacity:0.952941;stroke-width:0.728169"
           id="path40737-4" />
      </g>
      <g
         id="g18039"
         transform="matrix(1.1906234,0,0,1.1906234,-10.894124,-23.633368)">
        <rect
           style="fill:none;fill-opacity:0.952941;stroke:none;stroke-width:1.655"
           id="rect20270-6-3-8-0"
           width="24"
           height="24"
           x="57.149998"
           y="323.85001" />
        <path
           d="m 57.848094,326.5881 c 1.49444,1.49444 1.858933,1.60379 3.900118,1.05704 1.530883,-0.36448 5.649697,-0.91123 9.513362,-1.23929 -0.145799,1.67669 -0.692544,4.84781 -1.858935,7.72734 -2.660829,0.2187 -5.102951,0.4374 -5.795493,0.61965 0.619643,-0.9477 2.114085,-3.71787 2.478576,-4.22818 0.437393,-0.65608 0.692544,-1.16638 0.145798,-1.60377 -0.656101,-0.61965 -1.093492,-0.83835 -1.749591,-1.0935 -0.473835,-0.21869 -0.728986,0.25515 -0.510291,0.76545 0.32805,0.94769 -0.145796,1.96828 -0.51029,2.95241 -0.437405,1.05705 -1.348641,2.44214 -2.478576,3.35338 -0.98415,0.729 -1.202847,0.83834 -1.202847,1.34863 0,0.4374 -0.07294,1.05706 0.437393,1.34864 0.400947,0.1458 0.947692,-0.25514 2.150539,-0.69254 1.202833,-0.43739 3.754309,-0.83833 6.269342,-1.12992 l -0.182254,0.36449 c -2.114072,3.90012 -5.248749,7.61798 -8.638565,9.14886 -2.332779,1.02059 -2.150538,1.93184 0.218696,1.45798 3.17112,-0.69254 7.289935,-4.30104 9.987208,-8.93016 0.437391,-0.76545 0.83834,-1.53089 1.202846,-2.29634 1.567326,-0.14578 2.915968,-0.18225 3.572055,-0.14578 1.786035,0.10929 2.150541,0.54673 1.530896,2.69727 -0.510302,1.82247 -1.895388,5.32165 -3.025322,6.70673 -1.129949,1.42154 -1.421543,1.67669 -1.348644,2.40567 0.07294,0.94771 0.947695,1.05706 2.770172,-0.80188 2.697286,-2.84309 3.936574,-8.34699 4.738458,-9.14887 0.328051,-0.32805 0.692545,-0.65609 0.03647,-1.56734 -0.473846,-0.58319 -1.093491,-1.23928 -1.786034,-1.71314 -0.619644,-0.43738 -1.202845,-0.40094 -2.697273,-0.29158 l -3.134677,0.25516 c 1.020592,-2.6244 1.567338,-5.21231 2.041186,-7.6909 1.822477,-0.10942 3.426271,-0.10942 4.410409,0 2.806627,0.40095 3.389816,-0.0365 2.00473,-1.38509 -1.202833,-1.12995 -1.530882,-1.16638 -4.191713,-0.729 -1.858933,0.32805 -4.33751,0.54675 -7.800225,0.98413 -3.900118,0.43743 -8.201186,0.87481 -9.549816,0.47386 -1.786034,-0.54674 -1.931831,-0.0364 -0.947694,1.02059 z"
           style="font-weight:600;font-size:28.7853px;line-height:1em;font-family:'Noto Serif CJK TC';-inkscape-font-specification:'Noto Serif CJK TC Semi-Bold';fill:#6c5a57;fill-opacity:0.952941;stroke-width:0.759366"
           id="path40735-5" />
      </g>
      <g
         id="g16447"
         transform="matrix(1.1906249,0,0,1.1906249,-32.682642,-16.371045)">
        <rect
           style="fill:none;fill-opacity:0.952941;stroke:none;stroke-width:1.655"
           id="rect20270-6-3-1-4-5"
           width="24"
           height="24"
           x="171.45"
           y="285.74997" />
        <path
           d="m 172.05647,297.39369 c 1.40476,1.30443 1.73922,1.40477 3.61225,0.83618 0.56859,-0.16724 1.60544,-0.33448 2.90986,-0.5017 l 0.1004,4.78288 c 0.0669,4.04706 0.43479,5.51872 2.57539,5.92007 2.70919,0.46827 7.59242,0.30103 9.3651,0.0669 2.04025,-0.20068 2.0737,-1.37131 1.10373,-1.9399 -0.63548,-0.53516 -1.47165,-0.46826 -2.74262,-0.20069 -1.33787,0.33447 -4.01362,0.5017 -6.05387,0.40137 -1.83957,-0.13379 -2.40816,-1.00341 -2.44162,-3.144 l -0.0335,-6.12076 c 1.90646,-0.20068 4.0805,-0.43481 6.12076,-0.56859 -0.5686,2.5754 -1.60545,5.45181 -2.87643,7.99378 -0.5017,1.0034 0.16724,1.572 1.33787,0.30101 1.5051,-1.77268 2.47506,-4.38152 3.51191,-8.42858 1.97336,-0.10039 3.61225,-0.13378 4.44842,-0.0335 2.44161,0.33447 3.14399,-0.13379 1.73923,-1.30442 -1.20408,-1.03686 -1.83957,-1.10375 -4.28118,-0.70238 l -1.47166,0.23412 c 0.5017,-2.10714 0.86962,-4.34808 1.00341,-4.81633 0.5017,-1.73924 -0.0335,-2.20749 -1.77268,-3.01021 -1.87302,-0.83617 -2.54196,-0.23412 -1.40477,0.96996 0.86961,0.86961 0.80272,2.94331 0.10039,7.12416 l -4.24774,0.53515 -2.20748,0.23413 c 0.0335,-1.6389 0.0669,-3.07711 0.13378,-3.7126 0.20068,-1.73923 0.26757,-2.14059 -0.5017,-2.70919 -0.53515,-0.40135 -1.23754,-0.73583 -1.97336,-0.90305 -1.67234,-0.40137 -1.93991,-0.13379 -0.83617,1.20408 0.83617,1.0034 0.93651,1.70578 1.10374,3.21089 0.0669,0.56859 0.13379,1.77268 0.16723,3.11054 -2.47506,0.23414 -4.84977,0.40136 -5.6525,0.20068 -1.67234,-0.43481 -1.80612,0.0335 -0.83616,0.96995 z"
           style="font-weight:600;font-size:28.7853px;line-height:1em;font-family:'Noto Serif CJK TC';-inkscape-font-specification:'Noto Serif CJK TC Semi-Bold';fill:#6c5a57;fill-opacity:0.952941;stroke-width:0.696806"
           id="path40733-5" />
      </g>
      <g
         id="g16443"
         transform="matrix(1.1906246,0,0,1.1906246,-25.419786,-16.370948)">
        <rect
           style="fill:none;fill-opacity:0.952941;stroke:none;stroke-width:1.655"
           id="rect20270-6-3-10-2"
           width="24"
           height="24"
           x="133.35001"
           y="285.75" />
        <path
           d="m 133.96659,294.82184 c 1.42257,1.38787 1.80423,1.49196 3.74725,0.90212 1.145,-0.31228 3.99013,-0.69394 7.07813,-1.0062 l -0.0347,1.90832 c -0.0347,0.79802 -0.24288,1.63074 -1.1103,1.73483 -3.46967,0.34697 -5.62087,2.53286 -5.69027,5.3433 -0.0347,2.94923 2.77574,5.86375 8.32722,5.82906 4.71876,-0.0694 7.00875,-1.83893 7.94555,-2.94923 1.2144,-1.38787 -0.0347,-2.39408 -1.35316,-1.31847 -1.70014,1.38787 -3.53907,2.1165 -6.52299,2.22059 -3.12272,0.10402 -6.17602,-1.145 -6.17602,-3.50438 0,-2.77573 2.74104,-3.81664 4.37179,-3.88603 1.63074,-0.0347 2.04711,-0.48576 2.18589,-2.28998 l 0.10415,-3.29619 c 3.22679,-0.27759 6.3495,-0.45106 7.94555,-0.27759 2.67165,0.24289 3.22679,-0.17347 1.80422,-1.38786 -1.21438,-1.0756 -1.87362,-1.1103 -4.40648,-0.72863 -1.35318,0.24288 -3.29619,0.48575 -5.2739,0.72863 0.0694,-1.70014 0.13878,-3.2615 0.31226,-3.88604 0.31227,-1.17968 0.34698,-1.70014 -0.24287,-2.01241 -0.79803,-0.45106 -1.97772,-0.79802 -2.32469,-0.90212 -1.42257,-0.31227 -1.59604,0.38167 -0.86741,1.04091 0.48575,0.34696 0.79802,1.0062 0.93681,1.97771 0.0694,0.52045 0.10414,2.28998 0.10414,4.02483 -3.43499,0.41635 -8.70889,1.11029 -10.02736,0.76332 -1.70014,-0.48575 -1.80424,0 -0.83273,0.97151 z"
           style="font-weight:600;font-size:28.7853px;line-height:1em;font-family:'Noto Serif CJK TC';-inkscape-font-specification:'Noto Serif CJK TC Semi-Bold';fill:#6c5a57;fill-opacity:0.952941;stroke-width:0.722847"
           id="path40731-1" />
      </g>
      <g
         id="g16439"
         transform="matrix(1.1906238,0,0,1.1906238,-18.156916,-16.370732)">
        <rect
           style="fill:none;fill-opacity:0.952941;stroke:none;stroke-width:1.655"
           id="rect20270-6-3-1-40"
           width="24"
           height="24"
           x="95.25"
           y="285.75" />
        <path
           d="m 95.871161,290.09704 c 1.498622,1.46294 1.855446,1.56999 3.85361,0.96341 1.177499,-0.32114 4.139069,-0.67796 7.279049,-0.96341 0.0714,1.17749 0.1071,2.35498 0.1071,3.2827 0,1.17749 -0.17841,1.56999 -0.785,1.67704 -2.60475,0.46386 -6.5654,2.4977 -6.5654,6.9579 0,3.88929 4.10338,6.24427 8.88471,6.10155 4.78133,-0.14273 7.45745,-1.67704 8.77766,-3.38976 1.32022,-1.71271 -0.60659,-2.53338 -1.71271,-1.17748 -0.85636,1.14181 -3.38976,2.24793 -7.13632,2.35498 -3.38974,0.0714 -6.60108,-1.46295 -6.60108,-3.96066 -0.0357,-3.17565 3.31838,-4.92405 5.2095,-5.0311 2.10521,-0.0714 2.35498,-0.49954 2.39067,-2.78316 v -4.21041 c 2.92588,-0.2141 5.67336,-0.24978 7.02926,-0.0714 2.74748,0.42817 3.31838,-0.14274 1.89112,-1.39159 -1.24884,-1.10613 -1.92679,-1.24886 -4.06769,-0.92772 -2.78317,0.3925 -15.985342,2.06953 -17.662381,1.56998 -1.748397,-0.49953 -1.891122,0.0357 -0.892036,0.99909 z"
           style="font-weight:600;font-size:28.7853px;line-height:1em;font-family:'Noto Serif CJK TC';-inkscape-font-specification:'Noto Serif CJK TC Semi-Bold';fill:#6c5a57;fill-opacity:0.952941;stroke-width:0.743364"
           id="path40729-6" />
      </g>
      <g
         id="g16435"
         transform="matrix(1.1906237,0,0,1.1906237,-10.89414,-16.370693)">
        <rect
           style="fill:none;fill-opacity:0.952941;stroke:none;stroke-width:1.655"
           id="rect20270-6-3-3"
           width="24"
           height="24"
           x="57.149998"
           y="285.75" />
        <path
           d="m 76.019698,286.52034 c 0,0.41886 -0.225542,1.09547 -0.77328,1.70765 -0.805495,0.90216 -3.640838,3.06089 -5.960679,4.44634 -1.997623,-2.02985 -5.541819,-4.41411 -5.928453,-4.8652 -0.805495,-0.86993 -0.934373,-1.06325 -2.416495,-0.45107 -1.578775,0.67661 -1.48211,1.15991 0.03224,1.61099 1.353233,0.41886 5.090734,2.64203 7.152808,4.8652 0.161104,2.80313 0.06447,10.18149 -0.257756,11.47028 -0.547738,2.22317 -0.289982,2.48094 0.322195,3.54419 1.031037,1.77209 2.02986,1.1277 1.965421,-3.70529 -0.03224,-2.54537 -0.354421,-7.31391 0.09671,-11.40583 2.964232,-1.70766 6.508417,-4.5108 7.475014,-4.89743 0.869945,-0.38664 1.224355,-0.90216 -0.09671,-2.19095 -1.353243,-1.32102 -1.643214,-1.03104 -1.611,-0.12888 z"
           style="font-weight:600;font-size:28.7853px;line-height:1em;font-family:'Noto Serif CJK TC';-inkscape-font-specification:'Noto Serif CJK TC Semi-Bold';fill:#6c5a57;fill-opacity:0.952941;stroke-width:0.671246"
           id="path40727-0" />
      </g>
      <g
         id="g14847"
         transform="matrix(1.1906246,0,0,1.1906246,-25.419786,-9.1081495)">
        <rect
           style="fill:none;fill-opacity:0.952941;stroke:none;stroke-width:1.655"
           id="rect20270-6-8-9"
           width="24"
           height="24"
           x="133.35001"
           y="247.64999" />
        <path
           d="m 153.62877,254.55353 c 0.27702,3.6805 0.43532,8.23164 0.43532,11.83298 -4.63029,0.1583 -11.16019,0.63319 -16.0675,1.18727 0.9498,-3.28475 2.09747,-8.4691 2.96812,-15.23646 0.11879,-1.18724 0,-1.7413 -0.27702,-2.13705 -0.71234,-0.83108 -1.54342,-1.4247 -2.29535,-1.78088 -1.06853,-0.51448 -2.09748,0.15831 -1.34555,1.10811 1.46428,1.93918 0.9498,5.26348 0.35616,9.3793 -0.75191,5.10521 -1.66214,7.71716 -2.45365,8.58781 -0.39575,0.47491 -0.98938,0.91024 -0.98938,1.46429 0.0396,0.67277 0.6332,1.82044 1.06854,2.17661 0.55404,0.39577 1.2664,-0.23744 2.17663,-0.55404 3.52219,-1.22683 10.76444,-1.86002 16.81943,-2.13705 -0.0792,2.5328 0.43533,3.20557 1.34556,3.20557 1.02895,0 1.30597,-1.82044 1.34556,-2.92854 0.15829,-3.56177 -0.51448,-16.58199 -0.23745,-18.04628 0.23745,-1.18725 -0.11879,-1.70173 -1.26642,-2.29536 -0.55405,-0.31659 -1.82045,-0.67279 -2.3745,-0.71235 -1.70174,-0.1583 -1.7413,0.79151 -0.59363,1.54344 1.22683,0.83108 1.14768,2.17663 1.38513,5.34263 z"
           style="font-weight:600;font-size:28.7853px;line-height:1em;font-family:'Noto Serif CJK TC';-inkscape-font-specification:'Noto Serif CJK TC Semi-Bold';fill:#6c5a57;fill-opacity:0.952941;stroke-width:0.824479"
           id="path40725-2" />
      </g>
      <g
         id="g14843"
         transform="matrix(1.1906241,0,0,1.1906241,-18.15694,-9.1080243)">
        <rect
           style="fill:none;fill-opacity:0.952941;stroke:none;stroke-width:1.655"
           id="rect20270-6-1-5"
           width="24"
           height="24"
           x="95.25"
           y="247.64999" />
        <path
           d="m 101.9629,251.33363 c -1.50083,-0.91515 -2.159751,0.0733 -0.80532,1.2446 2.19635,1.8303 4.75879,4.72218 7.10156,7.68728 -2.67222,3.47758 -6.18642,7.10158 -10.066654,9.81042 -1.574064,1.06159 -1.757099,2.01334 0.549091,1.02498 4.465933,-1.94012 8.126543,-5.4177 10.981823,-8.89529 2.04994,2.74546 3.73382,5.3445 4.57576,7.02838 0.87854,1.68387 1.06157,2.41599 2.08654,2.41599 0.69552,0 1.1714,-0.65891 1.09819,-2.19636 -0.18304,-1.57406 -2.9651,-5.41769 -6.25965,-9.18812 3.22134,-4.35613 5.01504,-8.19976 5.30789,-8.456 1.06158,-0.84194 1.02497,-1.72049 -0.65891,-3.0383 -2.23298,-1.75711 -2.89188,-1.35444 -2.34279,0.54908 0.43928,1.46424 -1.09818,5.05164 -3.91685,9.11492 -2.81868,-3.07492 -5.74715,-5.85698 -7.65068,-7.10158 z"
           style="font-weight:600;font-size:28.7853px;line-height:1em;font-family:'Noto Serif CJK TC';-inkscape-font-specification:'Noto Serif CJK TC Semi-Bold';fill:#6c5a57;fill-opacity:0.952941;stroke-width:0.762625"
           id="path40723-3" />
      </g>
      <g
         id="g14839"
         transform="matrix(1.1906241,0,0,1.1906241,-10.894162,-9.1080261)">
        <rect
           style="fill:none;fill-opacity:0.952941;stroke:none;stroke-width:1.655"
           id="rect20270-6-0"
           width="24"
           height="24"
           x="57.149998"
           y="247.64999" />
        <path
           d="m 57.729121,260.30914 c 1.428271,1.42827 1.77664,1.53278 3.762295,1.01024 2.543039,-0.59222 13.864767,-1.7418 17.069691,-1.35861 2.68237,0.3832 3.204912,-0.0349 1.915984,-1.32377 -1.184427,-1.07992 -1.497955,-1.11476 -4.040994,-0.69672 -1.741799,0.27869 -4.528694,0.52254 -7.942632,0.90573 -4.040981,0.45287 -8.534833,0.87091 -9.858615,0.48771 -1.706969,-0.52254 -1.846312,0 -0.905729,0.97542 z"
           style="font-weight:600;font-size:28.7853px;line-height:1em;font-family:'Noto Serif CJK TC';-inkscape-font-specification:'Noto Serif CJK TC Semi-Bold';fill:#6c5a57;fill-opacity:0.952941;stroke-width:0.72575"
           id="path40721-6" />
      </g>
      <g
         id="g11552"
         transform="matrix(1.1906237,0,0,1.1906237,-25.419667,-1.8451679)">
        <rect
           style="fill:none;fill-opacity:0.952941;stroke:none;stroke-width:1.655"
           id="rect20270-6-3-8-5-6-44"
           width="24"
           height="24"
           x="133.35001"
           y="209.55" />
        <path
           d="m 149.12443,223.37578 c 0.78385,0.89584 2.16492,2.72483 3.28471,4.44184 -3.09809,0.41059 -11.04861,1.34375 -14.296,1.64235 3.39671,-3.99391 7.46527,-11.57117 8.6224,-13.96006 0.93315,-1.94096 1.23176,-2.57551 0.74652,-3.50868 -0.52257,-0.89582 -1.19445,-1.71701 -1.9783,-2.1276 -1.34375,-0.7092 -1.71701,-0.29861 -1.38107,2.09028 0.59722,4.06858 -6.12152,15.30381 -9.18229,17.61805 -0.97049,0.7092 -1.30642,0.93315 -1.2691,2.09028 0.0373,2.05295 0.52258,1.79166 2.76215,0.82117 2.23958,-0.89584 10.78733,-1.9783 17.20747,-2.42621 l 0.22395,0.63455 c 0.89584,2.94879 1.9783,3.88194 2.98611,1.53037 0.85851,-2.16492 -1.34375,-5.86024 -6.64409,-9.25693 -1.56771,-1.04514 -1.90365,-0.52257 -1.08246,0.41059 z"
           style="font-weight:600;font-size:28.7853px;line-height:1em;font-family:'Noto Serif CJK TC';-inkscape-font-specification:'Noto Serif CJK TC Semi-Bold';fill:#6c5a57;fill-opacity:0.952941;stroke-width:0.777631"
           id="path40719-0" />
      </g>
      <g
         id="g11548"
         transform="matrix(1.1895218,0,0,1.1895218,-18.051944,-1.6142499)">
        <rect
           style="fill:none;fill-opacity:0.952941;stroke:none;stroke-width:1.655"
           id="rect20270-6-3-8-5-6-4"
           width="24"
           height="24"
           x="95.25"
           y="209.5611" />
        <path
           d="m 95.817818,218.29143 c 1.276753,1.30951 1.636867,1.63688 3.502904,1.11307 1.080338,-0.26189 3.142798,-0.58927 5.565368,-0.85116 -0.68749,1.83329 -1.50592,3.43742 -2.12793,4.0267 -0.65476,0.68749 -0.78571,1.27676 -0.45832,1.80056 0.3601,0.65476 1.08033,0.29464 1.9315,0 1.3095,-0.45833 5.69632,-0.62201 7.66057,-0.32737 0.94938,0.16368 0.7857,0.78569 0.52379,1.27675 -1.08033,1.96425 -4.2886,5.82728 -6.41654,6.74392 -2.02971,0.85118 -0.98211,1.73509 0.62202,1.44046 4.2886,-0.75296 7.6933,-7.66057 8.70816,-8.05343 1.0476,-0.42557 0.7857,-0.88391 -0.2619,-2.25888 -0.62201,-0.75296 -1.21128,-0.7857 -3.01185,-0.91665 -2.38983,-0.16369 -5.49989,-0.13095 -6.74392,-0.0328 0.39286,-0.78569 0.9494,-2.29162 1.53867,-3.89576 3.73207,-0.3601 7.79151,-0.58927 9.95218,-0.39284 2.52079,0.22916 3.0446,-0.0328 1.80056,-1.24403 -1.08033,-1.04759 -1.53865,-1.21129 -3.92849,-0.85117 -1.37497,0.22916 -4.35408,0.55653 -7.23497,0.88391 0.55653,-1.5714 1.11307,-3.04458 1.47318,-3.7648 0.55654,-1.14582 0.36011,-1.70235 -1.11307,-2.74995 -1.60414,-1.14582 -2.35711,-0.91665 -1.44046,1.11307 0.36012,0.7857 -0.13094,3.20827 -0.91665,5.63084 l -0.32737,0.0328 c -3.53564,0.36011 -7.267708,0.72021 -8.446267,0.36011 -1.636868,-0.49106 -1.767816,-0.0327 -0.851165,0.91664 z"
           style="font-weight:600;font-size:28.7853px;line-height:1em;font-family:'Noto Serif CJK TC';-inkscape-font-specification:'Noto Serif CJK TC Semi-Bold';fill:#6c5a57;fill-opacity:0.952941;stroke-width:0.682028"
           id="path40717-1" />
      </g>
      <g
         id="g11544"
         transform="matrix(1.1906234,0,0,1.1906234,-10.894122,-1.8450933)">
        <rect
           style="fill:none;fill-opacity:0.952941;stroke:none;stroke-width:1.655"
           id="rect20270-6-3-8-5-6"
           width="24"
           height="24"
           x="57.149998"
           y="209.55" />
        <path
           d="m 60.076923,212.20491 c 1.444131,1.3737 1.831585,1.3737 3.487064,0.84536 0.669234,-0.21134 1.585033,-0.42269 2.571277,-0.63402 0.42267,2.85306 0.03524,15.07541 0.03524,16.90701 -0.03524,1.93726 0.387454,4.22674 0.880582,4.22674 0.422671,0 1.127134,-1.72592 1.16235,-5.03688 0.07048,-3.13484 0.387455,-13.87782 0.59879,-16.51954 1.972488,-0.28178 3.944963,-0.4579 5.072097,-0.4579 2.078167,0.0352 2.113383,0.70446 2.007722,1.5498 -0.211348,1.54982 -0.810143,3.8393 -1.338487,5.10733 -0.669235,1.58503 -1.373686,2.67694 -2.254256,2.32471 -0.704463,-0.28178 -1.408927,-0.59879 -1.620262,-0.66923 -0.915799,-0.28178 -1.02146,-0.0705 -0.493116,0.59879 0.281781,0.31701 1.972476,2.0077 2.324713,2.39516 0.845342,1.09191 1.33847,0.91579 1.937259,0.0352 0.845354,-1.26803 1.866819,-3.34619 2.606499,-5.38911 0.704463,-2.00772 1.056689,-3.87453 1.514588,-4.33243 0.810125,-0.7749 0.59879,-1.26802 0,-1.79637 -0.457899,-0.49311 -1.444143,-1.19758 -1.831597,-1.47936 -0.563561,-0.35222 -1.09191,-0.42267 -2.28949,-0.21133 -1.127134,0.21133 -3.099621,0.4579 -6.23446,0.77491 -3.451847,0.35222 -5.882222,0.81012 -7.5377,0.35222 -1.655479,-0.38745 -2.007717,0.0705 -0.59879,1.40892 z"
           style="font-weight:600;font-size:28.7853px;line-height:1em;font-family:'Noto Serif CJK TC';-inkscape-font-specification:'Noto Serif CJK TC Semi-Bold';fill:#6c5a57;fill-opacity:0.952941;stroke-width:0.733809"
           id="path40715-6" />
      </g>
      <g
         id="g11540"
         transform="matrix(1.190623,0,0,1.190623,-32.682309,5.417723)"
         style="display:inline">
        <rect
           style="fill:none;fill-opacity:0.952941;stroke:none;stroke-width:1.655"
           id="rect20270-6-3-8-5-8-6"
           width="24"
           height="24"
           x="171.45001"
           y="171.45001" />
        <path
           d="m 181.10051,179.89217 c 1.20839,1.10176 2.52339,2.77217 3.19866,4.58474 0.67527,1.84811 1.38608,2.2746 1.91919,0.74636 0.85298,-2.31015 -1.63486,-4.72691 -3.5896,-5.86421 -2.34568,-1.315 -2.84325,-0.81743 -1.52825,0.53311 z m -5.57987,-6.96595 c 0.88851,0.74635 0.92406,4.51365 0.92406,6.71717 0.0356,5.01122 0.17769,8.24542 -0.14217,10.12908 -0.35541,2.02581 -0.67527,2.09689 -0.14216,3.34082 0.71081,1.52823 0.81744,1.56378 2.20352,0.56864 1.06621,-0.81743 7.92555,-0.81743 9.91583,-0.7819 0,0.35542 0.0356,0.63974 0.17771,0.92406 1.03067,2.16797 2.02581,1.84812 2.13242,-0.0356 0.17771,-3.09203 0.17771,-8.42313 0.21326,-10.44894 0.0711,-2.34568 0.0711,-8.24542 0.67527,-8.99178 0.60419,-0.74635 0.53311,-0.92405 0.14216,-1.38608 -0.53311,-0.53311 -1.06622,-0.92406 -1.59933,-1.24392 -0.67527,-0.39095 -0.85298,-0.39095 -2.55892,0.24878 -0.63974,0.28433 -6.43286,0.24879 -9.16949,0.78189 -0.0711,-0.0711 -0.1777,-0.14216 -0.31986,-0.21324 -0.88852,-0.42649 -1.67041,-0.74635 -2.38122,-0.81743 -0.67527,-0.0711 -0.92406,0.39094 -0.0711,1.20838 z m 12.93679,18.23232 c -2.66555,-0.17769 -7.28583,0.21326 -9.02733,0.35542 -1.24391,0.10655 -1.17283,-0.0356 -1.17283,-1.84812 0.0356,-4.08717 0.14216,-11.65732 0.39094,-14.00301 l 0.10667,-1.03067 c 2.48785,-0.81743 6.89489,-0.95959 8.31651,-0.81743 1.84811,0.21324 1.84811,0.28432 1.9192,2.84324 0,1.5638 -0.0356,8.84962 -0.28434,12.36814 -0.0711,0.85297 -0.14216,1.52824 -0.24877,2.13243 z"
           style="font-weight:600;font-size:28.7853px;line-height:1em;font-family:'Noto Serif CJK TC';-inkscape-font-specification:'Noto Serif CJK TC Semi-Bold';fill:#6c5a57;fill-opacity:0.952941;stroke-width:0.740427"
           id="path40713-3" />
      </g>
      <g
         id="g11536"
         transform="matrix(1.1906246,0,0,1.1906246,-25.419786,5.4174429)">
        <rect
           style="fill:none;fill-opacity:0.952941;stroke:none;stroke-width:1.655"
           id="rect20270-6-3-8-5-0"
           width="24"
           height="24"
           x="133.35001"
           y="171.45" />
        <path
           d="m 139.98628,179.36951 c 0.81923,1.70674 -0.47789,10.34288 -4.57408,14.64388 -1.80915,1.97983 -0.10243,1.53608 0.78511,0.88752 4.36927,-3.20869 5.42744,-8.94336 5.93947,-12.6982 l 0.13653,-0.88751 c 2.15051,0.0342 7.16834,-0.95577 9.11404,-0.81924 2.42356,0.20481 2.56011,-0.30721 1.70674,-1.5702 l -0.20481,-0.27309 c 0.75098,-1.26299 1.80915,-3.58416 2.52598,-4.02791 0.95578,-0.64856 0.98991,-0.88752 -0.54615,-2.15051 -1.46781,-1.19471 -2.0481,-1.09232 -3.24282,-0.92164 -1.77502,0.27308 -7.1342,1.02405 -9.66019,1.19473 -0.81923,0.0342 -1.91155,0 -2.42357,-0.13654 -1.263,-0.27308 -1.57022,0.20481 0.0342,1.50193 1.19473,0.95578 1.57021,0.88752 2.8332,0.47789 1.50194,-0.44376 6.96352,-1.09232 8.90923,-1.16059 1.39951,-0.0682 1.87741,0.20481 1.46779,1.60434 -0.27309,0.95578 -0.98991,2.45772 -1.43367,3.24283 l -1.53607,0.27307 c -2.73079,0.47789 -5.08611,0.81924 -7.10006,1.02405 l -0.30722,0.0342 c -0.0342,-0.47788 -0.27308,-0.71682 -0.88751,-1.16058 -1.87742,-1.33126 -2.42357,-0.92164 -1.53607,0.92164 z"
           style="font-weight:600;font-size:28.7853px;line-height:1em;font-family:'Noto Serif CJK TC';-inkscape-font-specification:'Noto Serif CJK TC Semi-Bold';fill:#6c5a57;fill-opacity:0.952941;stroke-width:0.711142"
           id="path40711-0" />
      </g>
      <g
         id="g11532"
         transform="matrix(1.1906232,0,0,1.1906232,-18.156857,5.4176758)">
        <rect
           style="fill:none;fill-opacity:0.952941;stroke:none;stroke-width:1.655"
           id="rect20270-6-3-8-5-8"
           width="24"
           height="24"
           x="95.25"
           y="171.45001" />
        <path
           d="m 110.10019,171.9307 c 0.0323,0.48473 0.097,0.77558 -0.22621,1.26032 -1.38959,1.68042 -4.2657,3.97485 -6.52781,4.8797 -1.87433,0.77558 -1.80968,1.71274 0.0323,1.19569 5.20286,-1.48654 8.1436,-4.91202 8.5314,-5.10591 0.87252,-0.3878 1.09874,-0.71096 0.614,-1.29264 -0.45243,-0.51706 -0.87254,-0.84021 -1.55117,-1.19569 -0.8079,-0.42011 -0.93716,-0.19389 -0.87253,0.25853 z m 2.45601,4.0718 c 0.12926,0.42011 -0.0323,0.84022 -0.32316,1.26032 -2.55296,3.29622 -6.81865,6.88329 -11.60141,9.24234 -1.745057,0.87254 -1.454212,1.93896 0.22621,1.42191 2.8115,-1.03411 5.29981,-2.58528 7.33572,-4.13644 0.0323,1.93896 0.0647,5.52601 -0.29085,7.07718 -0.42011,1.71274 -0.614,1.90664 -0.097,3.0377 0.71095,1.74505 1.6158,2.26211 1.90664,0.2262 0.32316,-2.77916 0.12926,-5.04127 0.12926,-7.10949 0.0323,-2.48832 0.38779,-3.71633 -0.0323,-4.23339 l -0.16157,-0.16157 c 2.55294,-2.16517 4.16874,-4.10412 4.55653,-4.2657 0.77559,-0.38779 1.09874,-0.614 0.614,-1.29264 -0.38778,-0.54937 -0.87252,-0.96947 -1.35726,-1.29263 -0.54937,-0.35548 -1.13105,-0.45242 -0.90485,0.22621 z"
           style="font-weight:600;font-size:28.7853px;line-height:1em;font-family:'Noto Serif CJK TC';-inkscape-font-specification:'Noto Serif CJK TC Semi-Bold';fill:#6c5a57;fill-opacity:0.952941;stroke-width:0.673246"
           id="path40709-5" />
      </g>
      <g
         id="g11528"
         transform="matrix(1.190624,0,0,1.190624,-10.894155,5.4175506)">
        <rect
           style="fill:none;fill-opacity:0.952941;stroke:none;stroke-width:1.655"
           id="rect20270-6-3-8-5"
           width="24"
           height="24"
           x="57.149998"
           y="171.45" />
        <path
           d="m 57.713228,193.14783 c 1.355262,1.38914 1.694072,1.49079 3.625306,0.98257 2.473341,-0.54211 14.230167,-1.28749 17.313366,-0.7454 2.541103,0.50823 3.150961,-0.0339 1.79571,-1.28748 -1.185853,-1.05033 -1.660186,-1.32138 -4.133528,-0.94868 -1.321364,0.20328 -3.659181,0.40657 -5.827588,0.57598 l 0.203286,-5.79371 c 1.4569,-0.1694 2.879913,-0.23717 3.964116,-0.27105 -0.0339,0.57598 0.0339,1.01644 0.237173,1.49078 0.271048,0.64375 0.914793,0.44045 1.4569,-1.18585 0.542096,-1.79571 0.508221,-4.64175 1.050317,-6.7085 0.338821,-1.28749 0.575982,-1.59243 0,-2.16841 -0.440459,-0.44046 -0.94868,-0.81316 -1.897347,-1.32138 -0.711507,-0.37268 -1.355263,-0.23716 -0.542108,1.11809 0.880918,1.42302 0.372697,4.74339 0,6.74239 l -0.101578,0.57598 -4.133527,0.33882 c 0.169411,-3.96412 0.33881,-7.69107 0.575982,-8.47034 0.474334,-1.66019 0.203286,-2.06676 -0.304934,-2.47333 -0.643745,-0.54211 -1.355251,-0.9148 -2.303931,-1.0842 -0.914792,-0.16941 -1.084203,0.54209 -0.135524,1.55853 0.711507,0.64375 0.60987,5.45489 0.372697,10.63874 -1.79571,0.16941 -3.489783,0.3727 -4.3707,0.54211 0.0339,-1.86348 0.304935,-6.26805 0.203298,-7.18284 -0.101696,-0.98257 -0.508221,-1.35527 -2.032883,-1.79573 -0.84703,-0.20328 -1.321376,0.27106 -0.271048,1.32138 0.813144,0.81316 0.745382,6.03088 0.304923,7.58942 -0.304923,0.74539 -0.84703,0.88092 -0.67762,1.59243 0.237173,1.28749 0.474334,1.18584 1.761823,0.54209 0.982567,-0.50822 2.9138,-0.91479 5.014445,-1.18584 l -0.237173,5.75983 h -0.101696 c -3.455895,0.27105 -8.673614,0.71151 -9.927228,0.30492 -1.660186,-0.50821 -1.79571,0 -0.880918,0.94868 z"
           style="font-weight:600;font-size:28.7853px;line-height:1em;font-family:'Noto Serif CJK TC';-inkscape-font-specification:'Noto Serif CJK TC Semi-Bold';fill:#6c5a57;fill-opacity:0.952941;stroke-width:0.705859"
           id="path40707-4" />
      </g>
      <g
         id="g29453"
         transform="matrix(1.1906247,0,0,1.1906247,-25.419808,-32.682609)">
        <rect
           style="fill:none;fill-opacity:0.952941;stroke:none;stroke-width:1.655"
           id="rect20270-6-3-8-5-6-44-7-6"
           width="24"
           height="24"
           x="133.35001"
           y="171.45" />
        <path
           d="m 133.92955,174.50287 c 1.39449,1.42935 1.77797,1.5688 3.76511,1.01101 1.08074,-0.24404 3.79998,-0.59265 6.76326,-0.90642 0.38349,4.91557 0.27891,12.86413 -0.20917,15.54852 -0.34862,1.49908 -0.27889,2.89356 0.48808,4.1486 0.76696,1.15045 1.42934,1.04586 1.7431,-1.81283 0.34862,-3.10273 0.0349,-11.888 0.45321,-18.09346 3.24218,-0.2789 6.37977,-0.38348 7.84398,-0.20918 2.64952,0.38349 3.20732,-0.0349 1.88256,-1.32476 -1.15045,-1.11559 -1.46422,-1.11559 -4.00915,-0.69724 -1.74311,0.2789 -4.53208,0.48807 -7.94857,0.87155 -4.044,0.45321 -8.54123,0.90642 -9.86599,0.48807 -1.70825,-0.52293 -1.84769,-0.0349 -0.90642,0.97614 z"
           style="font-weight:600;font-size:28.7853px;line-height:1em;font-family:'Noto Serif CJK TC';-inkscape-font-specification:'Noto Serif CJK TC Semi-Bold';fill:#6c5a57;fill-opacity:0.952941;stroke-width:0.726293"
           id="path40705-7" />
      </g>
      <g
         id="g29449"
         transform="matrix(1.1906234,0,0,1.1906234,-18.156887,-32.682383)">
        <rect
           style="fill:none;fill-opacity:0.952941;stroke:none;stroke-width:1.655"
           id="rect20270-6-3-8-5-6-4-6-4"
           width="24"
           height="24"
           x="95.250038"
           y="171.45" />
        <path
           d="m 108.20566,172.88674 c 0.47387,1.4216 -3.96014,8.05568 -6.60023,10.45884 -1.21851,1.11697 -1.25236,1.76007 -0.0677,2.16624 3.45243,1.2185 7.37872,4.94171 9.61265,8.22491 1.38774,2.03085 2.30162,2.16623 2.57241,0.88004 0.30462,-1.38775 0,-2.33548 -1.4216,-3.79092 -2.13238,-2.13238 -6.43099,-4.97556 -9.0711,-6.4987 2.50472,-2.20007 6.19407,-7.71719 7.2095,-9.20648 0.74464,-1.15081 0.81234,-1.52313 0.37232,-2.03083 -0.54155,-0.60926 -1.25236,-1.15082 -1.82776,-1.4216 -0.84619,-0.40616 -1.2862,-0.37232 -0.77849,1.2185 z"
           style="font-weight:600;font-size:28.7853px;line-height:1em;font-family:'Noto Serif CJK TC';-inkscape-font-specification:'Noto Serif CJK TC Semi-Bold';fill:#6c5a57;fill-opacity:0.952941;stroke-width:0.705151"
           id="path40703-0" />
      </g>
      <g
         id="g29445"
         transform="matrix(1.1906251,0,0,1.1906251,-10.894224,-32.682672)">
        <rect
           style="fill:none;fill-opacity:0.952941;stroke:none;stroke-width:1.655"
           id="rect20270-6-3-8-5-6-2-6"
           width="24"
           height="24"
           x="57.149998"
           y="171.45" />
        <path
           d="m 72.143976,172.7445 c 0.656863,0.62401 0.95245,1.05097 0.919602,3.6127 l -0.06572,6.99555 c -2.758795,0.624 -7.356806,1.44509 -7.356806,1.44509 0.361274,-1.01813 1.412246,-5.91173 1.543617,-6.69996 0.328436,-1.67499 -0.09846,-2.299 -1.740672,-3.25143 -1.248026,-0.68971 -1.674986,-0.0329 -1.050971,0.75538 0.295588,0.36127 0.722545,0.98528 0.689698,1.83919 0,2.0691 -0.656851,6.60142 -1.313713,7.22545 -0.755383,0.68969 -1.018124,0.88675 -0.919602,1.64214 0.229904,1.64214 0.295588,1.41224 2.003423,0.72253 1.970574,-0.85389 5.123479,-1.6093 8.112189,-2.26616 -0.03286,1.54363 -0.06572,2.85734 -0.164218,3.57989 -0.426957,3.02154 -0.558328,4.56515 0.06572,6.07592 0.722549,1.77351 1.609302,1.51077 1.839205,-2.82448 0.197055,-3.6784 0.09846,-7.09405 0.06572,-9.52443 0,-1.93774 0.197054,-6.50291 0.492644,-7.61956 0.262741,-1.18235 0.459795,-1.57645 -0.624014,-2.10195 -0.591177,-0.29557 -1.280876,-0.59116 -2.134793,-0.82106 -1.149494,-0.29559 -1.313711,0.26274 -0.361273,1.21519 z"
           style="font-weight:600;font-size:28.7853px;line-height:1em;font-family:'Noto Serif CJK TC';-inkscape-font-specification:'Noto Serif CJK TC Semi-Bold';fill:#6c5a57;fill-opacity:0.952941;stroke-width:0.684225"
           id="path40701-3" />
      </g>
      <g
         id="g8321"
         transform="matrix(1.1906223,0,0,1.1906223,-25.419483,-25.419483)">
        <rect
           style="fill:none;fill-opacity:0.952941;stroke:none;stroke-width:1.655"
           id="rect20270-6-3-8-3"
           width="24"
           height="24"
           x="133.35004"
           y="133.35001" />
        <path
           d="m 138.77561,135.9226 c 0.41562,0.55416 0.6927,1.24687 0.76196,2.563 0.10396,2.63228 -0.27707,5.81872 -0.72733,8.27783 -0.79661,4.26013 -2.32056,7.16948 -4.71039,8.83197 -1.14296,0.90052 -1.00442,1.93957 0.5888,1.21223 3.77524,-1.62786 5.50699,-5.33382 6.33824,-9.69786 0.55417,-3.01326 0.90052,-6.33824 1.00443,-9.28223 l -0.0346,-0.55417 c 4.57185,-0.76197 10.63301,-1.24687 12.8843,-1.00442 2.25129,0.27708 3.01326,-0.41562 2.07811,-1.31614 -0.20781,-0.20781 -0.72734,-0.5888 -1.62785,-0.96978 -1.07369,-0.51953 -1.59322,-0.41562 -4.2255,0.17318 -1.73176,0.38098 -6.02653,0.96978 -10.04421,1.3854 -0.31172,-0.27708 -0.72734,-0.48489 -1.21224,-0.62344 -1.10832,-0.31171 -1.76639,0 -1.07368,1.00443 z"
           style="font-weight:600;font-size:28.7853px;line-height:1em;font-family:'Noto Serif CJK TC';-inkscape-font-specification:'Noto Serif CJK TC Semi-Bold';fill:#6c5a57;fill-opacity:0.952941;stroke-width:0.721565"
           id="path40699-1" />
      </g>
      <g
         id="g8317"
         transform="matrix(1.1906247,0,0,1.1906247,-18.157007,-25.419811)">
        <rect
           style="fill:none;fill-opacity:0.952941;stroke:none;stroke-width:1.655"
           id="rect20270-6-3-8-59"
           width="24"
           height="24"
           x="95.25"
           y="133.35001" />
        <path
           d="m 95.845849,136.1937 c 1.433708,1.50541 1.827981,1.64878 3.83518,1.11113 1.111121,-0.28674 3.440911,-0.64517 6.129121,-0.93191 -0.57349,1.93551 -2.15057,4.44451 -3.11833,5.05383 -1.14696,0.68101 -1.36202,0.71685 -1.25449,1.46956 0,1.00359 0.17922,1.25449 0.96775,1.00359 2.07889,-0.68101 6.84597,-1.07529 9.03238,-0.7527 0.82439,0.17922 1.11113,0.68101 0.93192,1.79215 -0.21507,1.39785 -0.86023,4.30112 -2.40147,7.34775 -0.68101,1.32619 -1.03944,1.50541 -1.68461,1.0036 -0.86023,-0.57347 -1.72045,-1.21865 -2.79574,-1.9355 -0.93191,-0.64517 -1.57709,-0.57349 -0.78854,0.7527 0.78854,1.36202 2.68821,3.79933 3.04663,4.37281 0.50181,0.86023 0.96777,1.0036 2.07889,-0.10746 3.44091,-3.40507 4.62371,-10.8962 5.12552,-11.57721 0.57348,-0.78855 0.64516,-1.07529 0.28674,-1.61293 -0.43011,-0.53764 -0.82439,-1.0036 -1.14697,-1.32619 -0.5018,-0.53764 -0.86023,-0.57347 -1.97135,-0.57347 -2.15057,-0.0359 -6.52339,0.1792 -6.98934,0.1792 0.89607,-1.14697 2.61651,-3.6918 3.33337,-5.34057 3.26169,-0.28674 6.48755,-0.43011 8.13631,-0.21506 2.72405,0.35843 3.33337,0 1.89967,-1.32617 -1.21866,-1.14697 -1.7563,-1.2545 -4.37281,-0.78855 -3.40508,0.60933 -15.125663,2.07889 -17.347916,1.39788 -1.756296,-0.50181 -1.899666,-0.0359 -0.931915,1.00358 z"
           style="font-weight:600;font-size:28.7853px;line-height:1em;font-family:'Noto Serif CJK TC';-inkscape-font-specification:'Noto Serif CJK TC Semi-Bold';fill:#6c5a57;fill-opacity:0.952941;stroke-width:0.746722"
           id="path40697-6" />
      </g>
      <g
         id="g8313"
         transform="matrix(1.1906245,0,0,1.1906245,-10.894189,-25.419773)">
        <rect
           style="fill:none;fill-opacity:0.952941;stroke:none;stroke-width:1.655"
           id="rect20270-6-3-8"
           width="24"
           height="24"
           x="57.149998"
           y="133.35001" />
        <path
           d="m 64.921613,134.64889 c 0.924803,1.70162 -1.738601,6.80648 -4.032092,9.61786 -1.3687,1.62763 -1.442682,1.73862 -0.03701,3.1443 1.960562,1.96056 3.736173,4.88291 4.882912,7.76826 1.109754,2.70041 1.516665,2.77439 2.441456,0.81383 0.998773,-2.18253 -2.663404,-6.51056 -6.251599,-10.24672 2.552423,-3.07032 4.439003,-6.25161 5.659737,-8.5451 0.554877,-1.03576 0.591862,-1.44267 -0.03701,-2.03455 -0.406911,-0.44389 -1.183736,-1.07275 -1.849581,-1.44267 -1.072769,-0.66586 -1.294717,-0.22196 -0.776838,0.92479 z m 8.878031,0.074 c 0.998773,1.44269 -1.590648,6.69551 -3.514225,9.3959 -1.257719,1.77561 -1.44267,1.8126 0.147966,3.03333 1.812596,1.44269 4.40203,4.9199 5.437789,7.91623 0.961788,2.51544 1.442682,2.40447 2.367473,0.59188 1.035771,-2.07154 -1.44267,-4.77195 -6.769491,-9.95079 2.071542,-3.1443 4.143084,-7.25039 5.289823,-8.61907 0.62886,-0.70284 0.813823,-1.03577 0.03701,-1.8126 -0.369927,-0.44391 -1.220734,-1.18374 -1.849594,-1.55365 -1.442683,-0.73984 -1.923564,-0.36993 -1.146739,0.99877 z"
           style="font-weight:600;font-size:28.7853px;line-height:1em;font-family:'Noto Serif CJK TC';-inkscape-font-specification:'Noto Serif CJK TC Semi-Bold';fill:#6c5a57;fill-opacity:0.952941;stroke-width:0.770659"
           id="path40695-3" />
      </g>
      <g
         id="g8737"
         transform="matrix(1.1906232,0,0,1.1906232,-32.682358,-18.15687)">
        <rect
           style="fill:none;fill-opacity:0.952941;stroke:none;stroke-width:1.655"
           id="rect20270-6-3-1-4"
           width="24"
           height="24"
           x="171.45001"
           y="95.250031" />
        <path
           d="m 187.28582,96.685063 c 0.332,1.02938 -0.73056,3.719067 -2.59012,7.006457 -2.19156,0.13282 -4.71524,0.36527 -6.27591,0.66411 1.16223,-1.1622 3.55301,-3.9847 4.08435,-4.781649 0.43166,-0.664112 0.53122,-0.896558 0.13277,-1.49427 -0.36522,-0.53129 -0.76366,-0.962969 -1.52744,-1.394648 -0.89656,-0.630913 -1.06256,-0.166034 -0.56445,1.129003 0.43167,1.129002 -2.52367,5.279744 -4.08434,6.176314 -1.22867,0.69732 -1.39467,1.129 -1.32834,1.66029 0.0992,0.86336 0.13289,1.39465 1.26189,0.92977 1.26178,-0.49809 4.41635,-0.96297 7.30536,-1.19541 l -1.5939,2.52365 c -2.19167,3.25418 -4.71535,5.94387 -7.13935,7.63737 -1.79312,1.26183 -1.66023,1.66031 -0.49811,1.26183 3.221,-1.19542 6.80724,-4.64884 9.36413,-8.20188 0.79689,-1.129 1.52745,-2.258 2.15834,-3.3206 0.963,-0.0332 1.82634,0 2.45734,0.0665 1.92589,0.26566 2.05867,1.16221 1.89267,2.12518 -0.53122,2.62328 -1.85956,5.87746 -3.71901,8.10227 -0.76378,0.96297 -1.22867,1.06259 -2.22489,0.46488 -0.63089,-0.39847 -1.66023,-1.19542 -2.15834,-1.49427 -0.63089,-0.36527 -0.92978,-0.0997 -0.39845,0.63091 0.76367,1.0958 1.85957,2.42404 2.39079,3.18777 0.797,1.0626 0.797,1.09581 1.75989,0.4649 3.8519,-2.49046 6.0768,-9.3973 6.57479,-11.25683 0.36534,-1.29504 1.16223,-1.39465 0.43167,-2.09199 -0.59766,-0.5977 -1.22855,-1.06258 -1.82634,-1.36143 -0.79689,-0.43168 -1.19533,-0.46489 -2.45722,-0.53131 h -1.7599 c 1.4279,-2.59005 2.35768,-4.648827 2.65645,-5.080506 0.69734,-0.929769 0.73056,-1.328237 0.23245,-1.826327 -0.53122,-0.464879 -1.32823,-0.962969 -1.79312,-1.195414 -1.16222,-0.531302 -1.19533,-0.199234 -0.76366,1.195414 z"
           style="font-weight:600;font-size:28.7853px;line-height:1em;font-family:'Noto Serif CJK TC';-inkscape-font-specification:'Noto Serif CJK TC Semi-Bold';fill:#6c5a57;fill-opacity:0.952941;stroke-width:0.691789"
           id="path40693-9" />
      </g>
      <g
         id="g10279"
         transform="matrix(1.1906247,0,0,1.1906247,-25.419803,-18.157002)">
        <rect
           style="fill:none;fill-opacity:0.952941;stroke:none;stroke-width:1.655"
           id="rect20270-6-3-10"
           width="24"
           height="24"
           x="133.35001"
           y="95.250008" />
        <path
           d="m 136.95961,97.842255 c 1.13206,1.096673 1.59195,0.990538 2.97165,0.636774 1.62733,-0.389146 5.51878,-0.955168 7.78288,-1.02592 1.02593,-0.03539 1.13205,0.106184 0.81367,0.636774 -1.16744,1.804214 -3.85607,4.598977 -4.84662,5.023487 -1.27356,0.53066 -1.48582,0.67217 -1.45045,1.52121 0.0354,1.23819 0.49529,1.13205 1.48584,0.81366 1.87496,-0.6014 5.58951,-0.88442 7.1107,-0.56602 0.67213,0.1415 0.84911,0.56602 0.67213,1.30894 -0.74292,3.11315 -2.75934,6.75696 -4.28054,8.73805 -0.95517,1.27357 -1.16743,1.16743 -2.37024,0.49528 -0.67217,-0.35377 -1.87498,-1.09669 -2.51175,-1.41507 -0.84905,-0.4599 -1.23819,-0.14151 -0.38915,0.88442 0.84905,0.88441 2.51176,2.54712 3.11316,3.32541 0.95517,1.34432 1.09667,1.37969 2.37024,0.0708 4.20986,-4.45747 5.94323,-10.75453 6.5093,-11.39131 0.63673,-0.70753 1.06135,-0.81367 0.53067,-1.62733 -0.45988,-0.70754 -1.48584,-1.41507 -2.12258,-1.8396 -0.45989,-0.28301 -0.84911,-0.45989 -1.59203,-0.24762 -0.88436,0.17687 -3.11311,0 -4.70505,0.24762 1.48582,-1.59195 4.63439,-4.563587 5.55416,-5.129622 1.06123,-0.566022 1.69809,-0.74291 1.09662,-1.308932 -0.63673,-0.601404 -1.06123,-1.096686 -1.69809,-1.521202 -0.63673,-0.424516 -1.02588,-0.176888 -2.33481,0.212258 -1.59196,0.389146 -9.55172,1.238192 -10.78991,0.955168 -2.29949,-0.530639 -2.37024,-0.212258 -0.9198,1.202822 z"
           style="font-weight:600;font-size:28.7853px;line-height:1em;font-family:'Noto Serif CJK TC';-inkscape-font-specification:'Noto Serif CJK TC Semi-Bold';fill:#6c5a57;fill-opacity:0.952941;stroke-width:0.737013"
           id="path40691-5" />
      </g>
      <g
         id="g10283"
         transform="matrix(1.1906246,0,0,1.1906246,-18.156992,-18.156992)">
        <rect
           style="fill:none;fill-opacity:0.952941;stroke:none;stroke-width:1.655"
           id="rect20270-6-3-1"
           width="24"
           height="24"
           x="95.250008"
           y="95.25" />
        <path
           d="m 107.41901,96.1202 c -1.08347,-0.643305 -1.52363,-0.270864 -1.28663,1.185044 0.33859,1.828346 -0.10155,4.367716 -0.91418,6.974816 -3.25038,0.33856 -7.381082,0.77873 -8.532262,0.47399 -1.659057,-0.47399 -1.794499,0.0339 -0.846466,0.9819 1.422056,1.32048 1.760635,1.42205 3.6567,0.84645 0.846458,-0.23699 2.844078,-0.50786 5.180318,-0.74487 -1.45591,3.8937 -3.58899,7.58425 -5.180318,8.87087 -0.914179,0.71102 -1.38819,0.71102 -1.38819,1.92991 -0.06775,1.99764 0.643305,1.38818 2.607088,0.67717 1.8622,-0.67717 7.27953,-1.59134 12.56141,-1.96379 l 0.0339,0.10155 c 1.28661,3.52126 2.06535,3.99526 2.77637,2.23465 0.5756,-1.48977 0.23701,-2.53938 -1.08346,-4.19843 -1.32046,-1.69292 -2.40393,-2.8441 -3.82599,-4.09685 -1.11732,-1.04961 -1.62518,-0.44015 -1.11732,0.30472 0.60946,0.84646 1.6252,2.33623 2.40395,3.82599 -2.53938,0.33858 -7.71968,0.91417 -10.3945,1.18504 1.82835,-2.33623 3.58898,-6.09448 4.90945,-9.10788 3.96142,-0.37243 8.22756,-0.60944 9.78505,-0.44016 2.47164,0.33859 3.18267,-0.13544 1.76062,-1.32045 -1.18504,-1.04963 -1.82833,-1.08348 -4.33385,-0.71104 -1.48977,0.27087 -4.09686,0.57559 -6.53465,0.84645 l 1.18505,-2.77637 c 0.77873,-1.692915 1.11732,-2.33622 0.47399,-3.250396 -0.60944,-0.812601 -1.38818,-1.557487 -1.89604,-1.82835 z"
           style="font-weight:600;font-size:28.7853px;line-height:1em;font-family:'Noto Serif CJK TC';-inkscape-font-specification:'Noto Serif CJK TC Semi-Bold';fill:#6c5a57;fill-opacity:0.952941;stroke-width:0.705378"
           id="path40689-7" />
      </g>
      <g
         id="g13367"
         transform="matrix(1.190625,0,0,1.190625,-10.894216,-18.157027)">
        <rect
           style="fill:none;fill-opacity:0.952941;stroke:none;stroke-width:1.655"
           id="rect20270-6-3"
           width="24"
           height="24"
           x="57.149998"
           y="95.25" />
        <path
           d="m 67.505656,96.326586 c 0.133868,0.50197 0.234255,0.903541 0.03348,1.405511 -0.669297,1.43898 -3.513788,4.383873 -4.651584,5.053153 -1.104327,0.5689 -1.606296,0.6693 -1.472439,1.47245 0.234255,1.47244 0.368112,1.33859 1.974408,0.80315 1.505909,-0.4685 4.049216,-0.83662 6.458666,-1.00393 -2.242123,4.55118 -5.588583,8.63386 -9.872055,11.11024 -2.007878,1.17126 -2.007878,2.34253 0.669297,1.27166 4.852369,-1.94095 9.269698,-6.69292 11.712606,-12.4823 1.271653,0 2.342521,0.067 3.011818,0.23425 1.40551,0.33465 1.606296,1.00394 1.305123,2.0748 -0.635826,2.54332 -2.141735,6.02364 -3.580716,7.99804 -1.238195,1.74017 -1.305123,1.94095 -2.40945,1.47244 -1.372051,-0.60235 -2.141735,-1.07086 -2.744103,-1.37204 -1.070868,-0.60236 -1.372041,-0.13385 -0.736214,0.70276 1.003939,1.33858 2.175194,2.54331 2.677164,3.27953 0.736225,1.1378 0.93701,1.30511 2.643705,-0.10044 3.580716,-2.87795 6.29135,-11.3445 6.793308,-11.9134 0.635838,-0.76969 0.53544,-1.10433 -0.03348,-1.94095 -0.435041,-0.60236 -1.003939,-1.13779 -1.539367,-1.50591 -0.903553,-0.56889 -1.807093,-0.73622 -2.744104,-0.70275 -2.44292,-0.0335 -5.187012,0.13386 -9.336626,0.5689 0,0 3.37993,-3.379934 4.183072,-3.948832 0.56891,-0.401571 0.970481,-0.903541 0.468512,-1.572837 -0.568899,-0.803143 -1.171267,-1.338582 -1.706695,-1.673225 -1.003939,-0.669297 -1.372052,-0.167327 -1.104338,0.769684 z"
           style="font-weight:600;font-size:28.7853px;line-height:1em;font-family:'Noto Serif CJK TC';-inkscape-font-specification:'Noto Serif CJK TC Semi-Bold';fill:#6c5a57;fill-opacity:0.952941;stroke-width:0.697177"
           id="path40687-3" />
      </g>
      <g
         id="g7189"
         style="font-size:28.7853px;line-height:1em;font-family:'Noto Serif CJK TC';-inkscape-font-specification:'Noto Serif CJK TC, Normal';stroke-width:0.599692"
         transform="matrix(1.1906249,0,0,1.1906249,-988.31763,-33.937476)">
        <rect
           style="fill:none;fill-opacity:0.952941;stroke:none;stroke-width:1.655"
           id="rect20270-6-1-4"
           width="24"
           height="24"
           x="171.45001"
           y="57.149998"
           transform="translate(802.63311,19.353923)" />
        <path
           d="m 975.71588,78.20898 c 0.77565,1.008176 0.8143,5.27352 0.73685,9.655199 -0.0782,3.838806 -0.42662,8.181716 -0.96948,9.11234 -0.65914,1.202047 -0.73673,1.589802 -0.50408,2.442876 0.38782,1.318385 0.7755,1.318385 2.40412,0.620405 3.80008,-1.55103 12.56348,-1.512247 16.36343,-0.697956 3.6837,0.814296 4.11032,0.0388 3.06324,-1.357162 -1.1632,-1.551033 -2.32653,-1.551033 -4.26524,-1.512251 -3.48986,0 -9.57769,0.348973 -14.19208,0.77551 0.0782,-4.653099 0.54287,-16.208317 0.77564,-17.061391 3.68371,-0.504088 10.77969,-1.202047 13.5327,-1.124496 2.71436,0.07759 3.29602,-0.581639 1.97764,-1.667366 -1.35717,-1.085727 -1.97764,-1.046945 -4.26538,-0.581639 -2.55916,0.504088 -8.87963,1.085726 -11.59398,1.434712 l -0.62046,-0.504087 c -1.55102,-1.046958 -3.64491,-1.046958 -2.44292,0.465306 z"
           style="font-weight:600;font-size:28.7853px;line-height:1em;font-family:'Noto Serif CJK TC';-inkscape-font-specification:'Noto Serif CJK TC Semi-Bold';fill:#6c5a57;fill-opacity:0.952941;stroke-width:0.807828"
           id="path40685-2" />
      </g>
      <g
         id="g5599"
         transform="matrix(1.1906247,0,0,1.1906247,-25.419811,-10.894204)">
        <rect
           style="fill:none;fill-opacity:0.952941;stroke:none;stroke-width:1.655"
           id="rect20270-6-8"
           width="24"
           height="24"
           x="133.35001"
           y="57.149998" />
        <path
           d="m 938.17608,79.496415 c 1.33155,0.822434 1.1749,5.130422 1.09658,7.441069 -0.0783,2.50647 -0.43081,6.031195 -0.70496,7.597735 -0.4308,2.193164 -0.50912,2.898101 0.58746,4.621308 0.50912,0.861593 1.56654,0.979093 1.99735,-3.955527 0.27414,-3.642209 0.43079,-13.119789 0.43079,-14.333868 0,-0.352474 -0.0392,-0.66578 -0.11755,-0.861603 3.83803,-0.62661 9.86922,-1.135737 11.70992,-1.018242 1.60569,0.117551 1.99734,0.783263 2.0365,2.114825 0.11754,2.193164 -0.11755,5.561236 -0.19581,8.224359 -0.31332,8.028523 -1.33156,9.007609 -0.58746,10.182518 1.17491,1.762361 2.0365,1.018251 2.42814,-0.939916 0.50912,-2.271492 0.31331,-4.425486 0.58744,-10.339184 0.15668,-3.093925 0.46998,-7.24526 0.74413,-7.95021 0.43079,-1.135739 0.74411,-1.566541 -0.15667,-2.271491 -0.50911,-0.430788 -1.40989,-0.900759 -2.27148,-1.292391 -0.93992,-0.430802 -1.01825,-0.156652 -3.21142,0.391632 -1.25323,0.274148 -9.71256,0.979099 -13.23728,1.214077 -0.23498,-0.11755 -0.54829,-0.195822 -0.8616,-0.274149 -1.1749,-0.313304 -1.6057,0.234979 -0.27413,1.449058 z"
           style="font-weight:600;font-size:28.7853px;line-height:1em;font-family:'Noto Serif CJK TC';-inkscape-font-specification:'Noto Serif CJK TC Semi-Bold';fill:#6c5a57;fill-opacity:0.952941;stroke-width:0.815905"
           id="path40683-0"
           transform="translate(-802.63312,-19.353923)" />
      </g>
      <g
         id="g4038"
         transform="matrix(1.1906251,0,0,1.1906251,-18.15704,-10.894224)">
        <rect
           style="fill:none;fill-opacity:0.952941;stroke:none;stroke-width:1.655"
           id="rect20270-6-1"
           width="24"
           height="24"
           x="95.25"
           y="57.149998" />
        <path
           d="m 101.33019,68.652201 c 1.04398,0.505157 3.77183,2.559455 6.466,4.883179 -2.62682,2.761517 -6.23027,5.388337 -8.756037,6.297615 -1.85225,0.673546 -1.178703,1.448117 0.471474,1.010313 3.064613,-0.841923 6.499673,-3.030941 9.496933,-5.758786 l 0.26943,-0.23573 c 1.58281,1.448105 3.09827,2.929905 4.10859,4.142279 1.95328,2.391065 2.9299,2.727844 3.0983,1.347081 0.23574,-1.414435 0.16839,-1.683848 -2.52579,-4.14228 -0.80825,-0.7409 -2.02062,-1.751214 -3.33403,-2.761527 2.39108,-2.727846 3.90654,-5.624068 4.81583,-6.196579 0.94296,-0.606193 1.07766,-0.909278 0.4378,-1.481789 -0.70723,-0.673545 -1.14502,-1.212373 -1.71753,-1.582822 -0.57251,-0.33678 -0.70723,0.269414 -2.22269,0.269414 -2.32372,0.03368 -5.48937,0.202059 -8.04882,0.673544 0.60618,-0.639874 4.14227,-4.91686 4.84949,-5.354664 0.6062,-0.404122 0.50516,-0.774571 0.20206,-1.111338 -0.50515,-0.505158 -0.90928,-0.841924 -1.71752,-1.212374 -1.21238,-0.53884 -1.41444,-0.336779 -1.01032,0.740888 0.50516,1.178702 -2.99726,5.725104 -4.44537,6.668065 -0.97664,0.673544 -1.14503,1.010312 -0.84193,1.717529 0.33678,0.808253 0.50515,0.673547 1.98695,0.202061 1.58282,-0.471474 6.97115,-0.942949 8.75604,-0.77457 0.94295,0.101089 1.48179,0.336778 0.80826,1.51547 -0.37047,0.774571 -1.68386,2.660492 -3.46875,4.714791 -2.69417,-1.986946 -5.55672,-3.872867 -7.03851,-4.445378 -1.58282,-0.60618 -1.88592,0.303098 -0.63986,0.875608 z"
           style="font-weight:600;font-size:28.7853px;line-height:1em;font-family:'Noto Serif CJK TC';-inkscape-font-specification:'Noto Serif CJK TC Semi-Bold';fill:#6c5a57;fill-opacity:0.952941;stroke-width:0.701604"
           id="path40681-9" />
      </g>
      <g
         id="g45560"
         transform="matrix(1.1906251,0,0,1.1906251,-10.894224,-10.894224)">
        <rect
           style="fill:none;fill-opacity:0.952941;stroke:none;stroke-width:1.655"
           id="rect20270-6"
           width="24"
           height="24"
           x="57.149998"
           y="57.149998" />
        <path
           d="m 868.25963,77.997037 c 0.45333,1.262843 -3.3352,5.601816 -4.6304,6.24943 -0.93896,0.420948 -1.03614,0.744761 -1.00375,1.48951 0.0326,1.262832 0.25907,1.295217 1.10094,0.906655 2.94655,-1.262842 10.07029,-1.716165 12.85509,-1.586644 1.16562,0.0648 1.48948,0.712364 1.10093,1.910446 -0.38865,1.100937 -1.10093,2.817101 -1.94292,4.468505 -0.93895,1.813311 -2.10468,3.561851 -2.97895,4.662787 -0.6476,0.74476 -0.97146,0.874281 -1.71614,0.356187 -0.68,-0.518082 -1.52188,-1.165697 -2.13719,-1.554259 -0.90655,-0.582854 -1.16562,-0.356187 -0.58281,0.744749 0.38853,0.80951 1.52187,2.36378 1.94281,3.36757 0.42093,1.295217 0.87426,1.424737 1.87812,0.777135 2.20188,-1.457124 4.17709,-4.403746 5.69895,-7.350378 1.23042,-2.428529 2.13708,-5.407536 2.52563,-5.796098 0.61531,-0.615228 0.77718,-0.87428 0.29146,-1.586644 -0.48573,-0.647614 -1.13334,-1.133322 -1.68375,-1.521883 -0.74479,-0.550469 -1.3924,-0.582855 -2.88187,-0.485708 -1.84573,0.12952 -8.1275,0.809508 -9.84375,1.100936 1.06866,-1.068562 3.4,-3.399955 4.01521,-3.853278 1.00385,-0.809509 1.16572,-1.133322 0.77719,-1.651404 -0.45333,-0.582854 -1.16573,-1.198082 -1.78094,-1.521883 -1.00386,-0.550469 -1.3276,-0.323802 -1.00386,0.874269 z"
           style="font-weight:600;font-size:28.7853px;line-height:1em;font-family:'Noto Serif CJK TC';-inkscape-font-specification:'Noto Serif CJK TC Semi-Bold';fill:#6c5a57;fill-opacity:0.952941;stroke-width:0.674592"
           id="path40679-1"
           transform="translate(-802.63312,-19.353923)" />
      </g>
      <text
         xml:space="preserve"
         style="font-size:9.63651px;line-height:0px;font-family:'Noto Serif CJK TC';-inkscape-font-specification:'Noto Serif CJK TC';stroke-width:0.30114"
         x="56.764538"
         y="46.185032"
         id="text47341"><tspan
           id="tspan47339"
           style="font-size:9.63651px;stroke-width:0.30114"
           x="56.764538"
           y="46.185032"></tspan></text>
    </g>
  </g>
</svg>
