<?xml version="1.0" encoding="UTF-8" standalone="no"?>
<svg
   xmlns:dc="http://purl.org/dc/elements/1.1/"
   xmlns:cc="http://creativecommons.org/ns#"
   xmlns:rdf="http://www.w3.org/1999/02/22-rdf-syntax-ns#"
   xmlns:svg="http://www.w3.org/2000/svg"
   xmlns="http://www.w3.org/2000/svg"
   xmlns:sodipodi="http://sodipodi.sourceforge.net/DTD/sodipodi-0.dtd"
   xmlns:inkscape="http://www.inkscape.org/namespaces/inkscape"
   width="24mm"
   height="24mm"
   viewBox="0 0 24 24"
   version="1.1"
   id="svg1165"
   inkscape:version="1.0.1 (3bc2e813f5, 2020-09-07)"
   sodipodi:docname="guileless_bopomofo_keyboard-en.svg">
  <defs
     id="defs1159" />
  <sodipodi:namedview
     id="base"
     pagecolor="#ffffff"
     bordercolor="#666666"
     borderopacity="1.0"
     inkscape:pageopacity="0.0"
     inkscape:pageshadow="2"
     inkscape:zoom="0.35"
     inkscape:cx="256.7829"
     inkscape:cy="-1023.2171"
     inkscape:document-units="mm"
     inkscape:current-layer="layer1"
     inkscape:document-rotation="0"
     showgrid="false"
     inkscape:window-width="1920"
     inkscape:window-height="1017"
     inkscape:window-x="0"
     inkscape:window-y="1080"
     inkscape:window-maximized="1" />
  <metadata
     id="metadata1162">
    <rdf:RDF>
      <cc:Work
         rdf:about="">
        <dc:format>image/svg+xml</dc:format>
        <dc:type
           rdf:resource="http://purl.org/dc/dcmitype/StillImage" />
        <dc:title></dc:title>
      </cc:Work>
    </rdf:RDF>
  </metadata>
  <g
     inkscape:label="Layer 1"
     inkscape:groupmode="layer"
     id="layer1"
     transform="translate(-37.892857,-418.89286)">
    <g
       id="g4711"
       transform="matrix(0.82109133,0,0,0.82109133,-3.275562,137.00896)">
      <rect
         style="fill:none;fill-opacity:0.6;stroke-width:0.0833395"
         id="rect233-6-1-8-20"
         width="29.229391"
         height="29.229391"
         x="50.13866"
         y="343.30396" />
      <path
         d="m 67.309861,371.01313 -0.99429,0.8345 q -0.0889,0.071 -0.1952,0.071 -0.15976,0 -0.15976,-0.1598 0,-0.1243 0.0889,-0.23082 l 0.74572,-1.0298 q 2.39695,-3.26696 4.31453,-6.69372 0.65695,-1.15409 1.72226,-3.39125 0.63916,-1.33164 0.63916,-1.66899 0,-0.53265 -0.76346,-0.53265 -0.0889,0 -1.29614,0.0888 -11.50539,0.72797 -16.15724,2.2194 -0.31953,0.10653 -0.63919,0.10653 -0.85224,0 -1.81104,-0.71021 -0.92326,-0.6747 -0.92326,-1.43818 0,-0.5149 0.51489,-1.75777 0.94105,-2.29042 1.68676,-5.2733 0.63917,-2.61001 0.63917,-4.26125 0,-1.04756 -0.33735,-2.16614 -0.12433,-0.42612 -0.12433,-0.58592 0,-0.5149 0.71022,-0.5149 1.04756,0 2.34367,0.85225 1.0831,0.72796 1.0831,1.38491 0,0.24857 -0.53268,1.08307 -0.44386,0.65694 -1.11856,3.23145 -1.33166,4.95371 -1.33166,6.3031 0,0.81674 1.02981,0.81674 0.55043,0 3.08939,-0.37286 2.05961,-0.30185 5.64618,-0.74572 l 1.61573,-0.19529 q 3.76409,-0.44388 4.58083,-0.60368 1.18962,-0.23082 2.09513,-0.63919 0.94101,-0.40837 1.17184,-0.40837 0.65694,0 1.91755,1.38491 1.06532,1.15409 1.06532,1.82879 0,0.31959 -0.78122,1.01204 -0.72797,0.62144 -1.91755,2.89411 -2.8231,5.29105 -7.617,9.26822 z"
         style="font-weight:bold;font-size:11.2889px;line-height:1.25;font-family:MOESongUN;-inkscape-font-specification:'MOESongUN Bold';letter-spacing:0px;word-spacing:0px;fill:#6a5753;fill-opacity:1;stroke-width:0.852249"
         id="path620-4" />
    </g>
  </g>
</svg>
