<?xml version="1.0" encoding="UTF-8" standalone="no"?>
<svg
   xmlns:dc="http://purl.org/dc/elements/1.1/"
   xmlns:cc="http://creativecommons.org/ns#"
   xmlns:rdf="http://www.w3.org/1999/02/22-rdf-syntax-ns#"
   xmlns:svg="http://www.w3.org/2000/svg"
   xmlns="http://www.w3.org/2000/svg"
   xmlns:sodipodi="http://sodipodi.sourceforge.net/DTD/sodipodi-0.dtd"
   xmlns:inkscape="http://www.inkscape.org/namespaces/inkscape"
   width="24mm"
   height="24mm"
   viewBox="0 0 24 24"
   version="1.1"
   id="svg880"
   inkscape:version="1.0.1 (3bc2e813f5, 2020-09-07)"
   sodipodi:docname="guileless_bopomofo_keyboard-x.svg">
  <defs
     id="defs874" />
  <sodipodi:namedview
     id="base"
     pagecolor="#ffffff"
     bordercolor="#666666"
     borderopacity="1.0"
     inkscape:pageopacity="0.0"
     inkscape:pageshadow="2"
     inkscape:zoom="0.35"
     inkscape:cx="-174.64567"
     inkscape:cy="-563.2171"
     inkscape:document-units="mm"
     inkscape:current-layer="layer1"
     inkscape:document-rotation="0"
     showgrid="false"
     inkscape:window-width="1920"
     inkscape:window-height="1017"
     inkscape:window-x="0"
     inkscape:window-y="1080"
     inkscape:window-maximized="1" />
  <metadata
     id="metadata877">
    <rdf:RDF>
      <cc:Work
         rdf:about="">
        <dc:format>image/svg+xml</dc:format>
        <dc:type
           rdf:resource="http://purl.org/dc/dcmitype/StillImage" />
        <dc:title></dc:title>
      </cc:Work>
    </rdf:RDF>
  </metadata>
  <g
     inkscape:label="Layer 1"
     inkscape:groupmode="layer"
     id="layer1"
     transform="translate(-152.04167,-297.18452)">
    <g
       id="g3846"
       transform="matrix(0.82109133,0,0,0.82109133,78.048572,202.38167)">
      <rect
         style="fill:none;fill-opacity:0.6;stroke-width:0.0833395"
         id="rect233-3-6"
         width="29.229391"
         height="29.229391"
         x="90.115547"
         y="115.45957" />
      <path
         d="m 104.06227,119.91742 q -5.783012,0.80523 -8.033972,1.86667 -0.64054,0.31112 -1.07975,0.31112 -1.22616,0 -2.63529,-1.02484 -1.13466,-0.80523 -1.13466,-1.44575 0,-0.31112 0.47583,-0.31112 0.14641,0 0.65883,0.10979 0.89671,0.2013 1.53725,0.2013 0.84183,0 6.295422,-0.95164 5.54512,-0.98823 10.10196,-1.57386 2.74512,-0.36601 4.00787,-0.75032 0.915,-0.2745 1.20783,-0.2745 0.65883,0 1.79346,0.87843 1.02484,0.78693 1.02484,1.53725 0,0.42092 -0.56733,0.42092 -0.36601,0 -1.17122,-0.14642 -0.67712,-0.12812 -1.17125,-0.12812 -1.18954,0 -4.42878,0.36602 l -1.24442,0.14641 q -1.75688,0.21962 -2.65359,0.31112 0.87842,1.02484 0.87842,1.53726 0,0.1647 -0.0916,0.51242 -0.31109,1.07973 -0.32935,2.54379 -0.0734,3.67843 -0.0734,6.91764 0,0.60393 0.0365,2.25099 0.0199,1.37255 0.0199,1.77516 0,6.60654 -0.21945,7.90589 -0.18294,1.17124 -0.75033,1.17124 -0.51242,0 -1.06142,-0.91504 -1.15296,-1.90327 -1.15296,-3.22091 0,-0.23792 0.14642,-0.95164 0.53071,-2.56209 0.53071,-9.00392 0,-7.70458 -0.91504,-10.06536 z"
         style="font-weight:bold;font-size:11.2889px;line-height:1.25;font-family:MOESongUN;-inkscape-font-specification:'MOESongUN Bold';letter-spacing:0px;word-spacing:0px;fill:#6a5753;fill-opacity:1;stroke-width:0.87843"
         id="path580-9" />
    </g>
  </g>
</svg>
