<?xml version="1.0" encoding="UTF-8" standalone="no"?>
<svg
   xmlns:dc="http://purl.org/dc/elements/1.1/"
   xmlns:cc="http://creativecommons.org/ns#"
   xmlns:rdf="http://www.w3.org/1999/02/22-rdf-syntax-ns#"
   xmlns:svg="http://www.w3.org/2000/svg"
   xmlns="http://www.w3.org/2000/svg"
   xmlns:sodipodi="http://sodipodi.sourceforge.net/DTD/sodipodi-0.dtd"
   xmlns:inkscape="http://www.inkscape.org/namespaces/inkscape"
   width="24mm"
   height="24mm"
   viewBox="0 0 24 24"
   version="1.1"
   id="svg485"
   inkscape:version="1.0.1 (3bc2e813f5, 2020-09-07)"
   sodipodi:docname="guileless_bopomofo_keyboard-mode-switch-bopomofo.svg">
  <defs
     id="defs479" />
  <sodipodi:namedview
     id="base"
     pagecolor="#ffffff"
     bordercolor="#666666"
     borderopacity="1.0"
     inkscape:pageopacity="0.0"
     inkscape:pageshadow="2"
     inkscape:zoom="0.35"
     inkscape:cx="-94.645668"
     inkscape:cy="-271.78852"
     inkscape:document-units="mm"
     inkscape:current-layer="layer1"
     inkscape:document-rotation="0"
     showgrid="false"
     inkscape:window-width="1920"
     inkscape:window-height="1049"
     inkscape:window-x="1"
     inkscape:window-y="0"
     inkscape:window-maximized="1" />
  <metadata
     id="metadata482">
    <rdf:RDF>
      <cc:Work
         rdf:about="">
        <dc:format>image/svg+xml</dc:format>
        <dc:type
           rdf:resource="http://purl.org/dc/dcmitype/StillImage" />
        <dc:title></dc:title>
      </cc:Work>
    </rdf:RDF>
  </metadata>
  <g
     inkscape:label="Layer 1"
     inkscape:groupmode="layer"
     id="layer1"
     transform="translate(-130.875,-220.07738)">
    <g
       id="g462"
       transform="translate(-44.224747,-170.3914)">
      <rect
         style="fill:none;fill-opacity:0.6;stroke-width:0.0684293"
         id="rect233-5-7-5-9-1"
         width="24"
         height="24"
         x="175.09975"
         y="390.46878" />
      <g
         id="g1438"
         transform="matrix(1.1439991,0,0,1.1439991,-28.048343,-57.973505)">
        <path
           d="m 187.48797,401.23687 -0.20395,-0.20947 q -0.0717,-0.0717 -0.0717,-0.11024 0.006,-0.0551 0.0661,-0.0551 0.0221,0 0.0441,0.011 l 0.26458,0.13781 q 0.64492,0.33624 0.89297,0.33624 0.49058,0 1.17409,-1.2237 0.67248,-1.20717 1.03077,-2.80569 0.18191,-0.79926 0.18191,-1.09692 0,-0.43546 -0.33073,-0.43546 -0.51263,0 -2.57969,0.3638 -2.01194,0.35829 -3.09232,0.8158 -0.0717,0.0331 -0.13781,0.0331 -0.25356,0 -0.50712,-0.43546 -0.11024,-0.18741 -0.11024,-0.31419 0,-0.12678 0.19844,-0.34176 0.47956,-0.49609 1.08038,-1.77491 0.32522,-0.68902 0.33073,-1.08038 0.005,-0.1819 0.13229,-0.1819 0.1819,0 0.48507,0.1819 0.452,0.2756 0.452,0.48507 0,0.0717 -0.18741,0.25907 -0.20947,0.20395 -0.65595,0.9977 -0.54571,0.9536 -0.54571,1.08589 0,0.15986 0.20947,0.15986 0.15434,0 0.42995,-0.0551 0.34175,-0.0661 1.2733,-0.21498 2.74506,-0.42443 3.3514,-0.69453 0.16536,-0.0717 0.26458,-0.0717 0.25356,0 0.73863,0.49058 0.35829,0.3638 0.35829,0.59531 0,0.0717 -0.1378,0.226 -0.17639,0.18742 -0.44649,1.25678 -0.55673,2.24896 -1.32292,3.48919 -0.41341,0.68351 -0.88746,1.04731 -0.41892,0.32522 -0.70555,0.32522 -0.14883,0 -0.33624,-0.30868 l -0.0496,-0.0772 q -0.21498,-0.37483 -0.65044,-0.81029 z"
           style="font-weight:bold;font-size:11.2889px;line-height:1.25;font-family:MOESongUN;-inkscape-font-specification:'MOESongUN Bold';letter-spacing:0px;word-spacing:0px;fill:#6a5753;fill-opacity:1;stroke-width:0.264583"
           id="path554-2" />
        <g
           id="g1432"
           transform="translate(3.594965,-30.456476)">
          <path
             d="m 178.98986,439.17827 q 0.17639,-0.22049 0.26458,-0.33073 0.70005,-0.86541 1.21819,-1.68672 0.58429,-0.91502 0.58429,-1.19614 0,-0.17639 -0.20395,-0.17639 -0.42995,0 -2.72852,0.61736 -1.63711,0.43546 -2.19384,0.74414 -0.25356,0.13781 -0.33624,0.13781 -0.20946,0 -0.4079,-0.30317 -0.14883,-0.23151 -0.14883,-0.38585 0,-0.14883 0.20946,-0.43546 0.35829,-0.48507 0.83234,-1.55994 0.40239,-0.89297 0.39688,-1.29536 0,-0.30868 0.0992,-0.30868 0.12126,0 0.39687,0.1819 0.47405,0.30868 0.47405,0.55122 0,0.0661 -0.15986,0.21497 -0.25907,0.23702 -0.63389,0.9977 -0.42995,0.87092 -0.42995,1.15204 0,0.13229 0.12678,0.13229 0.0827,0 0.23151,-0.0331 0.0496,-0.011 0.23702,-0.0551 1.30638,-0.2756 2.68442,-0.65594 1.21268,-0.33625 1.60955,-0.50161 0.10473,-0.0441 0.18742,-0.0441 0.19843,0 0.65043,0.44097 0.34727,0.34176 0.34727,0.52917 0,0.0772 -0.17639,0.24254 -0.14332,0.1378 -0.56224,0.82131 -0.65595,1.06936 -1.0418,1.57096 -0.38034,0.49059 -0.82683,1.03629 0.98117,0.57326 1.4938,0.94809 0.87092,0.6339 0.87092,1.42214 0,0.38585 -0.19844,0.51263 -0.0606,0.0441 -0.12127,0.0441 -0.23151,0 -0.63389,-0.45751 -0.68902,-0.77722 -1.90721,-1.90721 -1.16307,1.05833 -1.90721,1.49931 -1.11345,0.66146 -1.9072,0.8599 l -0.20947,0.0496 q -0.022,0.005 -0.0386,0.005 -0.0661,0 -0.0661,-0.0496 0,-0.0717 0.0772,-0.11576 l 0.17639,-0.0992 q 1.75838,-1.01975 3.23013,-2.6293 -0.50161,-0.3638 -0.72761,-0.51814 -0.70004,-0.49059 -0.83785,-0.58981 l -0.19843,-0.14882 q -0.0496,-0.0386 -0.0496,-0.0827 0,-0.0551 0.0606,-0.0551 0.0221,0 0.0331,0 l 0.17639,0.0551 q 0.64492,0.18741 1.98437,0.85438 z"
             style="font-weight:bold;font-size:11.2889px;line-height:1.25;font-family:MOESongUN;-inkscape-font-specification:'MOESongUN Bold';letter-spacing:0px;word-spacing:0px;fill:#6a5753;fill-opacity:1;stroke-width:0.264583"
             id="path556-9" />
          <path
             d="m 186.97147,435.38567 q 0.0882,2.86632 0.0882,4.1727 0,0.23702 -0.0221,0.84336 -0.0221,0.68902 -0.24254,0.68902 -0.20395,0 -0.41892,-0.38034 -0.25356,-0.45751 -0.25356,-0.87092 0,-0.12127 0.0165,-0.31419 0.0827,-0.8599 0.0827,-1.97335 0,-1.55443 -0.22049,-2.65686 -0.022,-0.0937 -0.022,-0.17088 0,-0.17639 0.15985,-0.17639 0.14332,0 0.76068,0.42995 l 0.3638,-0.0827 q 2.18833,-0.50161 4.24988,-0.68351 0.47404,-0.0386 0.78273,-0.15434 0.17087,-0.0661 0.45751,-0.2701 0.0551,-0.0441 0.12126,-0.0441 0.20395,0 0.5898,0.32522 0.44098,0.37483 0.44098,0.63941 0,0.0661 -0.0441,0.22049 -0.1819,0.62287 -0.1819,1.67569 l 0.005,0.78273 q 0,1.3119 -0.0551,2.29306 -0.0606,1.32843 -0.16537,1.67018 -0.1378,0.46302 -0.33624,0.46302 -0.12127,0 -0.24254,-0.18741 -0.30867,-0.48507 -0.30867,-0.82131 0,-0.0882 0.0386,-0.25907 0.16536,-0.76619 0.16536,-3.06476 0,-1.15204 -0.0551,-2.14423 -0.022,-0.39688 -0.13229,-0.56224 -0.12127,-0.16537 -0.452,-0.16537 -0.41892,0 -1.74735,0.226 -1.8135,0.30317 -2.66789,0.7221 -0.14883,0.0717 -0.27009,0.0717 -0.17088,0 -0.48507,-0.24254 z"
             style="font-weight:bold;font-size:11.2889px;line-height:1.25;font-family:MOESongUN;-inkscape-font-specification:'MOESongUN Bold';letter-spacing:0px;word-spacing:0px;fill:#6a5753;fill-opacity:1;stroke-width:0.264583"
             id="path558-1" />
        </g>
      </g>
    </g>
  </g>
</svg>
