<?xml version="1.0" encoding="UTF-8" standalone="no"?>
<svg
   xmlns:dc="http://purl.org/dc/elements/1.1/"
   xmlns:cc="http://creativecommons.org/ns#"
   xmlns:rdf="http://www.w3.org/1999/02/22-rdf-syntax-ns#"
   xmlns:svg="http://www.w3.org/2000/svg"
   xmlns="http://www.w3.org/2000/svg"
   xmlns:sodipodi="http://sodipodi.sourceforge.net/DTD/sodipodi-0.dtd"
   xmlns:inkscape="http://www.inkscape.org/namespaces/inkscape"
   width="24mm"
   height="24mm"
   viewBox="0 0 24 24"
   version="1.1"
   id="svg1144"
   inkscape:version="1.0.1 (3bc2e813f5, 2020-09-07)"
   sodipodi:docname="guileless_bopomofo_keyboard-si.svg">
  <defs
     id="defs1138" />
  <sodipodi:namedview
     id="base"
     pagecolor="#ffffff"
     bordercolor="#666666"
     borderopacity="1.0"
     inkscape:pageopacity="0.0"
     inkscape:pageshadow="2"
     inkscape:zoom="0.35"
     inkscape:cx="745.35432"
     inkscape:cy="-217.50281"
     inkscape:document-units="mm"
     inkscape:current-layer="layer1"
     inkscape:document-rotation="0"
     showgrid="false"
     inkscape:window-width="1920"
     inkscape:window-height="1049"
     inkscape:window-x="1"
     inkscape:window-y="0"
     inkscape:window-maximized="1" />
  <metadata
     id="metadata1141">
    <rdf:RDF>
      <cc:Work
         rdf:about="">
        <dc:format>image/svg+xml</dc:format>
        <dc:type
           rdf:resource="http://purl.org/dc/dcmitype/StillImage" />
        <dc:title></dc:title>
      </cc:Work>
    </rdf:RDF>
  </metadata>
  <g
     inkscape:label="Layer 1"
     inkscape:groupmode="layer"
     id="layer1"
     transform="translate(91.374996,-205.71429)">
    <g
       id="g4191"
       transform="matrix(0.82109133,0,0,0.82109133,-165.81108,50.394605)">
      <rect
         style="fill:none;fill-opacity:0.6;stroke-width:0.0833395"
         id="rect233-3-2-8"
         width="29.229391"
         height="29.229391"
         x="90.65506"
         y="189.16249" />
      <path
         d="m 114.07273,211.26469 -0.84626,0.22078 q -13.871235,3.56899 -17.366635,6.10775 -0.25766,0.18397 -0.42313,0.18397 -0.69907,0 -2.13403,-1.54534 -1.28778,-1.37976 -1.28778,-2.04205 0,-0.44152 1.1222,-1.32457 1.6557,-1.30618 5.53745,-8.33378 2.391595,-4.32325 3.477015,-7.5243 0.62549,-1.85808 1.15899,-4.43364 0.16554,-0.86466 0.27601,-1.28778 0.14718,-0.6255 0.18389,-0.80946 0.11048,-0.69908 0.5335,-0.69908 0.84626,0 2.18924,1.25098 1.43493,1.32458 1.43493,2.17083 0,0.33115 -1.03023,1.96846 l -0.62548,1.01183 q -1.93168,3.12746 -5.13271,9.03285 -3.844945,7.04599 -3.844945,7.5795 0,0.44153 0.58871,0.44153 0.18389,0 0.4047,-0.0552 l 14.975045,-3.5322 -1.25099,-2.68594 q -0.29437,-0.6071 -0.29437,-0.82786 0,-0.22077 0.1839,-0.22077 0.49672,0 1.89486,1.01182 4.72801,3.40342 4.72801,7.50592 0,2.11564 -1.19579,2.11564 -0.57032,0 -1.14063,-0.90145 -0.5335,-0.86465 -1.17737,-2.28121 z"
         style="font-weight:bold;font-size:11.2889px;line-height:1.25;font-family:MOESongUN;-inkscape-font-specification:'MOESongUN Bold';letter-spacing:0px;word-spacing:0px;fill:#6a5753;fill-opacity:1;stroke-width:0.883047"
         id="path594-5" />
    </g>
  </g>
</svg>
