<?xml version="1.0" encoding="UTF-8" standalone="no"?>
<svg
   xmlns:dc="http://purl.org/dc/elements/1.1/"
   xmlns:cc="http://creativecommons.org/ns#"
   xmlns:rdf="http://www.w3.org/1999/02/22-rdf-syntax-ns#"
   xmlns:svg="http://www.w3.org/2000/svg"
   xmlns="http://www.w3.org/2000/svg"
   xmlns:sodipodi="http://sodipodi.sourceforge.net/DTD/sodipodi-0.dtd"
   xmlns:inkscape="http://www.inkscape.org/namespaces/inkscape"
   width="24mm"
   height="24mm"
   viewBox="0 0 24 24"
   version="1.1"
   id="svg710"
   inkscape:version="1.0.1 (3bc2e813f5, 2020-09-07)"
   sodipodi:docname="guileless_bopomofo_keyboard-e.svg">
  <defs
     id="defs704" />
  <sodipodi:namedview
     id="base"
     pagecolor="#ffffff"
     bordercolor="#666666"
     borderopacity="1.0"
     inkscape:pageopacity="0.0"
     inkscape:pageshadow="2"
     inkscape:zoom="0.35"
     inkscape:cx="1153.9257"
     inkscape:cy="388.21146"
     inkscape:document-units="mm"
     inkscape:current-layer="layer1"
     inkscape:document-rotation="0"
     showgrid="false"
     inkscape:window-width="1920"
     inkscape:window-height="1049"
     inkscape:window-x="1"
     inkscape:window-y="0"
     inkscape:window-maximized="1" />
  <metadata
     id="metadata707">
    <rdf:RDF>
      <cc:Work
         rdf:about="">
        <dc:format>image/svg+xml</dc:format>
        <dc:type
           rdf:resource="http://purl.org/dc/dcmitype/StillImage" />
        <dc:title></dc:title>
      </cc:Work>
    </rdf:RDF>
  </metadata>
  <g
     inkscape:label="Layer 1"
     inkscape:groupmode="layer"
     id="layer1"
     transform="translate(199.47619,-45.452385)">
    <g
       id="g4671"
       transform="matrix(0.82109133,0,0,0.82109133,-273.91227,-173.1494)">
      <rect
         style="fill:none;fill-opacity:0.6;stroke-width:0.0833395"
         id="rect233-3-6-7"
         width="29.229391"
         height="29.229391"
         x="90.65506"
         y="266.23322" />
      <path
         d="m 106.91045,274.06027 q 1.21594,-0.16656 2.76502,-0.41642 3.76443,-0.53301 5.24688,-0.98275 0.66627,-0.21654 0.83284,-0.21654 0.76621,0 1.68233,0.88281 0.58299,0.56633 0.58299,0.94943 0,0.4997 -0.98275,0.4997 -2.38192,0 -10.12731,1.01607 l -0.0833,5.48008 q -0.0166,1.01606 -0.1999,1.48245 -0.21654,0.56633 -0.89946,0.56633 -0.29983,0 -0.91613,-0.36645 -0.6163,-0.36645 -1.21594,-0.36645 -1.4658,0 -2.66508,1.08269 -1.465798,1.33254 -1.465798,3.34801 0,2.79834 2.448548,4.34742 1.66567,1.08269 3.94765,1.08269 4.18085,0 7.22904,-2.83165 0.68293,-0.63296 1.19929,-0.63296 0.9994,0 0.9994,1.09935 0,1.116 -1.44914,2.28197 -1.83224,1.48246 -4.69721,2.09876 -1.71564,0.3831 -3.41464,0.3831 -2.43188,0 -4.14753,-0.76621 -2.048784,-0.91612 -3.381323,-2.76502 -1.282571,-1.76562 -1.282571,-4.1642 0,-3.81439 3.281384,-5.51338 1.24926,-0.63296 3.78109,-0.89947 0.53301,-0.05 0.73289,-0.36645 0.19989,-0.29982 0.19989,-1.46579 v -0.16657 l -0.0666,-2.56514 q -6.945868,0.98275 -8.195123,1.58239 -0.599645,0.28318 -0.866155,0.28318 -1.199286,0 -2.681738,-1.31588 -0.582985,-0.53302 -0.582985,-0.86615 0,-0.31648 0.299825,-0.31648 0.116612,0 0.483045,0.0666 0.732898,0.14991 2.182037,0.14991 0.183213,0 2.11541,-0.29983 l 0.982751,-0.16656 6.212973,-0.96609 -0.13326,-2.3486 q -0.14992,-2.61512 -0.7329,-4.08091 -0.13326,-0.33314 -0.13326,-0.54968 0,-0.4997 0.69958,-0.4997 1.26591,0 2.26532,0.53302 0.83284,0.44973 0.83284,0.91612 0,0.19989 -0.13326,0.51636 -0.44974,1.13266 -0.49971,3.26473 z"
         style="font-weight:bold;font-size:11.2889px;line-height:1.25;font-family:MOESongUN;-inkscape-font-specification:'MOESongUN Bold';letter-spacing:0px;word-spacing:0px;fill:#6a5753;fill-opacity:1;stroke-width:0.799523"
         id="path606-6" />
    </g>
  </g>
</svg>
