<?xml version="1.0" encoding="UTF-8" standalone="no"?>
<svg
   width="28.574966mm"
   height="28.574999mm"
   viewBox="0 0 28.574966 28.574999"
   version="1.1"
   id="svg8"
   xmlns="http://www.w3.org/2000/svg"
   xmlns:svg="http://www.w3.org/2000/svg"
   xmlns:rdf="http://www.w3.org/1999/02/22-rdf-syntax-ns#"
   xmlns:cc="http://creativecommons.org/ns#"
   xmlns:dc="http://purl.org/dc/elements/1.1/">
  <defs
     id="defs2" />
  <metadata
     id="metadata5">
    <rdf:RDF>
      <cc:Work
         rdf:about="">
        <dc:format>image/svg+xml</dc:format>
        <dc:type
           rdf:resource="http://purl.org/dc/dcmitype/StillImage" />
        <dc:title>Guileless Bopomofo Keyboard</dc:title>
        <cc:license
           rdf:resource="http://creativecommons.org/licenses/by-nd/4.0/" />
        <dc:creator>
          <cc:Agent>
            <dc:title>YOU, HUI-HONG</dc:title>
          </cc:Agent>
        </dc:creator>
      </cc:Work>
      <cc:License
         rdf:about="http://creativecommons.org/licenses/by-nd/4.0/">
        <cc:permits
           rdf:resource="http://creativecommons.org/ns#Reproduction" />
        <cc:permits
           rdf:resource="http://creativecommons.org/ns#Distribution" />
        <cc:requires
           rdf:resource="http://creativecommons.org/ns#Notice" />
        <cc:requires
           rdf:resource="http://creativecommons.org/ns#Attribution" />
      </cc:License>
    </rdf:RDF>
  </metadata>
  <g
     id="layer6"
     transform="translate(-57.149997,-514.34996)">
    <g
       id="g21332"
       transform="matrix(1.1906238,0,0,1.1906238,-10.894148,-52.684573)">
      <rect
         style="fill:none;fill-opacity:0.952941;stroke:none;stroke-width:1.655"
         id="rect20270-6-3-3-8"
         width="24"
         height="24"
         x="57.149998"
         y="476.25" />
      <path
         d="m 66.588108,499.17395 c 0,0.59368 0.48236,1.07605 1.076041,1.07605 0.593681,0 1.076047,-0.48237 1.076047,-1.07605 0,-0.59368 -0.482366,-1.07605 -1.076047,-1.07605 -0.593681,0 -1.076041,0.48237 -1.076041,1.07605 z m 6.177984,0 c 0,0.59368 0.482367,1.07605 1.076048,1.07605 0.593681,0 1.076047,-0.48237 1.076047,-1.07605 0,-0.59368 -0.482366,-1.07605 -1.076047,-1.07605 -0.593681,0 -1.076048,0.48237 -1.076048,1.07605 z m 6.177991,0 c 0,0.59368 0.482361,1.07605 1.076041,1.07605 0.593681,0 1.076048,-0.48237 1.076048,-1.07605 0,-0.59368 -0.482367,-1.07605 -1.076048,-1.07605 -0.59368,0 -1.076041,0.48237 -1.076041,1.07605 z"
         style="font-weight:600;font-size:28.7853px;line-height:1em;font-family:'Noto Serif CJK TC';-inkscape-font-specification:'Noto Serif CJK TC Semi-Bold';fill:#6c5a57;fill-opacity:0.952941;stroke-width:0.38651"
         id="path40763-7" />
      <path
         d="m 66.357334,494.05581 c 3.7113,-1.24937 6.063021,-4.00527 6.063021,-8.19428 0,-1.0289 -0.110293,-1.6168 -0.514434,-2.53544 -0.698165,-0.66144 -1.396331,-0.88189 -2.35172,-0.88189 -1.690293,0 -2.829415,1.24935 -2.829415,2.75592 0,1.35958 0.955389,2.46195 3.417352,3.52757 -0.661427,2.05776 -1.984268,3.12338 -4.262498,4.26248 z"
         style="font-weight:600;font-size:28.7853px;line-height:1em;font-family:'Noto Serif CJK TC';-inkscape-font-specification:'Noto Serif CJK TC Semi-Bold';fill:#6c5a57;fill-opacity:0.952941;stroke-width:0.765531"
         id="path40761-4" />
    </g>
  </g>
</svg>
