<?xml version="1.0" encoding="UTF-8" standalone="no"?>
<svg
   xmlns:dc="http://purl.org/dc/elements/1.1/"
   xmlns:cc="http://creativecommons.org/ns#"
   xmlns:rdf="http://www.w3.org/1999/02/22-rdf-syntax-ns#"
   xmlns:svg="http://www.w3.org/2000/svg"
   xmlns="http://www.w3.org/2000/svg"
   xmlns:sodipodi="http://sodipodi.sourceforge.net/DTD/sodipodi-0.dtd"
   xmlns:inkscape="http://www.inkscape.org/namespaces/inkscape"
   width="24mm"
   height="24mm"
   viewBox="0 0 24 24"
   version="1.1"
   id="svg1045"
   inkscape:version="1.0.1 (3bc2e813f5, 2020-09-07)"
   sodipodi:docname="guileless_bopomofo_keyboard-ie.svg">
  <defs
     id="defs1039" />
  <sodipodi:namedview
     id="base"
     pagecolor="#ffffff"
     bordercolor="#666666"
     borderopacity="1.0"
     inkscape:pageopacity="0.0"
     inkscape:pageshadow="2"
     inkscape:zoom="0.35"
     inkscape:cx="299.64004"
     inkscape:cy="-348.93139"
     inkscape:document-units="mm"
     inkscape:current-layer="layer1"
     inkscape:document-rotation="0"
     showgrid="false"
     inkscape:window-width="1920"
     inkscape:window-height="1017"
     inkscape:window-x="0"
     inkscape:window-y="1080"
     inkscape:window-maximized="1" />
  <metadata
     id="metadata1042">
    <rdf:RDF>
      <cc:Work
         rdf:about="">
        <dc:format>image/svg+xml</dc:format>
        <dc:type
           rdf:resource="http://purl.org/dc/dcmitype/StillImage" />
        <dc:title></dc:title>
      </cc:Work>
    </rdf:RDF>
  </metadata>
  <g
     inkscape:label="Layer 1"
     inkscape:groupmode="layer"
     id="layer1"
     transform="translate(-26.553572,-240.4881)">
    <g
       id="g4666"
       transform="matrix(0.82109133,0,0,0.82109133,-81.150179,21.886311)">
      <rect
         style="fill:none;fill-opacity:0.6;stroke-width:0.0833395"
         id="rect233-7-8-4"
         width="29.229391"
         height="29.229391"
         x="131.17146"
         y="266.23322" />
      <path
         d="m 152.79953,276.75942 q 0.63825,-0.10349 1.9666,-0.36227 1.36283,-0.276 2.00111,-0.43128 0.53479,-0.13801 0.72454,-0.13801 0.6038,0 1.3111,0.56928 0.9833,0.79355 0.9833,1.53534 0,0.48303 -0.58652,0.48303 -0.12081,0 -0.36229,-0.0345 -0.89705,-0.15526 -1.4836,-0.15526 -2.10462,0 -4.58876,0.32777 -0.34501,5.55483 -1.34559,8.12523 -0.65553,1.6561 -1.12131,1.6561 -0.37953,0 -0.34501,-0.48303 0,-0.0863 0.0156,-0.18975 l 0.13802,-0.77629 q 0.55204,-3.3467 0.56928,-8.02173 -2.34613,0.31052 -6.84867,1.13856 l -1.94935,0.36228 q 0.15523,5.77909 0.56928,8.05623 0.34501,1.94936 1.46633,2.65665 1.13859,0.7073 3.55373,0.7073 2.86367,0 6.53814,-1.03507 0.96605,-0.276 1.32831,-0.276 0.51755,0 0.89705,0.31052 0.44853,0.36228 0.44853,0.94881 0,2.38064 -7.81472,2.38064 -5.27881,0 -7.09015,-2.20813 -1.39734,-1.70785 -1.86313,-6.62439 -0.13801,-1.56985 -0.32776,-4.55427 -2.24264,0.44852 -3.93323,1.13856 -0.32777,0.13802 -0.62105,0.13802 -0.69002,0 -1.94935,-0.8453 -1.29382,-0.8798 -1.29382,-1.29382 0,-0.27601 0.39677,-0.29328 l 1.43181,-0.069 q 3.31222,-0.12078 5.96887,-0.50028 v -2.5359 q 0,-3.12244 -0.31046,-4.36451 -0.2244,-0.82805 -0.86256,-1.82861 -0.18966,-0.31052 -0.18966,-0.48303 0,-0.50028 0.79355,-0.50028 0.8108,0 1.82861,0.44853 1.50085,0.67279 1.50085,1.63884 0,0.25876 -0.10359,0.79355 -0.17244,1.08681 -0.29325,3.57096 -0.0864,1.79411 -0.10359,2.81192 l 8.81527,-1.39733 q 0.0156,-0.70729 0.0156,-1.34558 0,-0.24152 -0.0516,-1.63885 0,-0.34502 -0.0157,-1.27658 -0.0344,-1.63884 -0.18966,-2.55315 -0.13801,-0.86255 -0.67277,-1.67335 -0.32777,-0.50028 -0.32777,-0.69004 0,-0.39677 0.55204,-0.39677 1.06955,0 2.25987,0.82805 1.41459,0.96606 1.41459,1.7251 0,0.20703 -0.2416,0.8108 -0.51755,1.38008 -0.6038,5.8136 z"
         style="font-weight:bold;font-size:11.2889px;line-height:1.25;font-family:MOESongUN;-inkscape-font-specification:'MOESongUN Bold';letter-spacing:0px;word-spacing:0px;fill:#6a5753;fill-opacity:1;stroke-width:0.828047"
         id="path608-4" />
    </g>
  </g>
</svg>
