<?xml version="1.0" encoding="UTF-8" standalone="no"?>
<svg
   xmlns:dc="http://purl.org/dc/elements/1.1/"
   xmlns:cc="http://creativecommons.org/ns#"
   xmlns:rdf="http://www.w3.org/1999/02/22-rdf-syntax-ns#"
   xmlns:svg="http://www.w3.org/2000/svg"
   xmlns="http://www.w3.org/2000/svg"
   xmlns:sodipodi="http://sodipodi.sourceforge.net/DTD/sodipodi-0.dtd"
   xmlns:inkscape="http://www.inkscape.org/namespaces/inkscape"
   width="24mm"
   height="24mm"
   viewBox="0 0 24 24"
   version="1.1"
   id="svg1733"
   inkscape:version="1.0.1 (3bc2e813f5, 2020-09-07)"
   sodipodi:docname="guileless_bopomofo_keyboard-po.svg">
  <defs
     id="defs1727" />
  <sodipodi:namedview
     id="base"
     pagecolor="#ffffff"
     bordercolor="#666666"
     borderopacity="1.0"
     inkscape:pageopacity="0.0"
     inkscape:pageshadow="2"
     inkscape:zoom="1"
     inkscape:cx="68.17732"
     inkscape:cy="168.98796"
     inkscape:document-units="mm"
     inkscape:current-layer="layer1"
     inkscape:document-rotation="0"
     showgrid="false"
     fit-margin-top="0"
     fit-margin-left="0"
     fit-margin-right="0"
     fit-margin-bottom="0"
     inkscape:window-width="1920"
     inkscape:window-height="1017"
     inkscape:window-x="0"
     inkscape:window-y="0"
     inkscape:window-maximized="1" />
  <metadata
     id="metadata1730">
    <rdf:RDF>
      <cc:Work
         rdf:about="">
        <dc:format>image/svg+xml</dc:format>
        <dc:type
           rdf:resource="http://purl.org/dc/dcmitype/StillImage" />
        <dc:title />
      </cc:Work>
    </rdf:RDF>
  </metadata>
  <g
     inkscape:label="Layer 1"
     inkscape:groupmode="layer"
     id="layer1"
     transform="translate(-87.794751,-103.45527)">
    <g
       id="g2993">
      <rect
         style="fill:none;fill-opacity:0.6;stroke-width:0.0684293"
         id="rect233-6"
         width="24"
         height="24"
         x="87.794754"
         y="103.45527" />
      <path
         d="m 100.57038,118.82299 q 0.42428,-0.53035 0.63642,-0.79552 1.68385,-2.08162 2.93017,-4.05716 1.40542,-2.20095 1.40542,-2.87714 0,-0.42428 -0.49057,-0.42428 -1.03418,0 -6.563054,1.48497 -3.937832,1.04744 -5.27696,1.78993 -0.609899,0.33147 -0.808779,0.33147 -0.50383,0 -0.981144,-0.72923 -0.357984,-0.55687 -0.357984,-0.92811 0,-0.35798 0.503831,-1.04744 0.861814,-1.16676 2.002063,-3.75221 0.967882,-2.14791 0.954625,-3.11579 0,-0.74249 0.238658,-0.74249 0.291691,0 0.954626,0.43754 1.140249,0.74249 1.140249,1.32587 0,0.15909 -0.384504,0.51709 -0.623157,0.57012 -1.52475,2.39982 -1.034177,2.09487 -1.034177,2.77107 0,0.31821 0.304949,0.31821 0.198875,0 0.556866,-0.0795 0.11933,-0.0265 0.570124,-0.13258 3.142309,-0.66294 6.456981,-1.57779 2.91692,-0.80878 3.87154,-1.20654 0.25192,-0.10607 0.4508,-0.10607 0.47731,0 1.56452,1.06069 0.8353,0.82204 0.8353,1.27284 0,0.18562 -0.42428,0.58338 -0.34472,0.33147 -1.35238,1.97555 -1.57779,2.57218 -2.5059,3.77872 -0.91485,1.18003 -1.9888,2.49264 2.36005,1.3789 3.5931,2.28049 2.09488,1.52475 2.09488,3.42074 0,0.92811 -0.47731,1.23306 -0.14584,0.10608 -0.2917,0.10608 -0.55686,0 -1.52475,-1.10047 -1.65733,-1.86948 -4.5875,-4.58751 -2.797588,2.54567 -4.587513,3.60636 -2.678257,1.59105 -4.587506,2.06836 l -0.503831,0.11933 q -0.05304,0.0132 -0.09282,0.0132 -0.159115,0 -0.159115,-0.11933 0,-0.17237 0.185622,-0.27844 l 0.424278,-0.23866 q 4.229522,-2.45286 7.769594,-6.32439 -1.206541,-0.87508 -1.750147,-1.24632 -1.683856,-1.18003 -2.015322,-1.41868 l -0.477313,-0.35799 q -0.119329,-0.0928 -0.119329,-0.19887 0,-0.13258 0.145836,-0.13258 0.05303,0 0.07955,0 l 0.424277,0.13258 q 1.551266,0.45079 4.773129,2.05509 z"
         style="font-weight:bold;font-size:11.2889px;line-height:1.25;font-family:MOESongUN;-inkscape-font-specification:'MOESongUN Bold';letter-spacing:0px;word-spacing:0px;fill:#6c5a57;fill-opacity:1;stroke-width:0.636416"
         id="path556-7" />
    </g>
  </g>
</svg>
