<?xml version="1.0" encoding="UTF-8" standalone="no"?>
<svg
   xmlns:dc="http://purl.org/dc/elements/1.1/"
   xmlns:cc="http://creativecommons.org/ns#"
   xmlns:rdf="http://www.w3.org/1999/02/22-rdf-syntax-ns#"
   xmlns:svg="http://www.w3.org/2000/svg"
   xmlns="http://www.w3.org/2000/svg"
   xmlns:sodipodi="http://sodipodi.sourceforge.net/DTD/sodipodi-0.dtd"
   xmlns:inkscape="http://www.inkscape.org/namespaces/inkscape"
   width="24mm"
   height="24mm"
   viewBox="0 0 24 24"
   version="1.1"
   id="svg8820"
   inkscape:version="1.0.2 (e86c870879, 2021-01-15, custom)"
   sodipodi:docname="guileless_bopomofo_keyboard-eten26-qwerty-o.svg">
  <defs
     id="defs8814" />
  <sodipodi:namedview
     id="base"
     pagecolor="#ffffff"
     bordercolor="#666666"
     borderopacity="1.0"
     inkscape:pageopacity="0.0"
     inkscape:pageshadow="2"
     inkscape:zoom="0.35"
     inkscape:cx="-428.93139"
     inkscape:cy="-23.217107"
     inkscape:document-units="mm"
     inkscape:current-layer="layer1"
     inkscape:document-rotation="0"
     showgrid="false"
     inkscape:window-width="1920"
     inkscape:window-height="1049"
     inkscape:window-x="1"
     inkscape:window-y="0"
     inkscape:window-maximized="1" />
  <metadata
     id="metadata8817">
    <rdf:RDF>
      <cc:Work
         rdf:about="">
        <dc:format>image/svg+xml</dc:format>
        <dc:type
           rdf:resource="http://purl.org/dc/dcmitype/StillImage" />
        <dc:title></dc:title>
      </cc:Work>
    </rdf:RDF>
  </metadata>
  <g
     inkscape:label="Layer 1"
     inkscape:groupmode="layer"
     id="layer1"
     transform="translate(-219.32143,-154.30953)">
    <g
       id="g2739"
       transform="translate(-320.64445,-148.65724)">
      <g
         id="g4676-3-8"
         transform="matrix(0.27369706,0,0,0.27369706,526.24308,230.09952)">
        <rect
           style="fill:none;fill-opacity:0.6;stroke-width:0.0833395"
           id="rect233-6-1-8-5-0"
           width="29.229391"
           height="29.229391"
           x="50.13866"
           y="266.23322" />
        <path
           d="m 64.33861,270.64513 q -6.119814,0.82949 -8.829493,1.78802 -0.884791,0.31337 -1.253457,0.31337 -0.940092,0 -2.248847,-1.06912 -1.253457,-1.01383 -1.253457,-1.52996 0,-0.3318 0.479262,-0.3318 0.07374,0 0.73733,0.0922 1.142857,0.14748 2.175116,0.14748 h 0.258064 q 0.387095,0 2.635942,-0.25807 l 13.622119,-1.52996 q 2.580648,-0.29492 4.534562,-0.97696 0.516131,-0.18433 0.755762,-0.18433 0.976957,0 2.193549,1.21659 0.608294,0.6083 0.608294,0.99539 0,0.42397 -0.497695,0.42397 -0.09216,0 -1.124425,-0.0553 -0.331801,-0.0184 -1.714286,0.0737 -0.11059,0.0184 -1.364053,0.0737 -1.640553,0.0737 -6.322583,0.51613 l -0.1659,6.17511 q -0.09216,3.76037 -2.175117,3.76037 -0.368663,0 -0.829492,-0.29492 -0.27649,-0.18432 -0.903227,-0.18432 -1.566818,0 -3.023041,0.92166 -2.341013,1.45622 -2.341013,4.51613 0,2.56221 1.935485,4.47926 2.211981,2.17511 5.529951,2.17511 2.728113,0 5.069126,-1.43778 1.179723,-0.7189 2.949308,-2.70968 0.552996,-0.62673 1.198159,-0.62673 1.290322,0 1.290322,1.27189 0,1.95392 -3.207375,4.09217 -3.115208,2.10138 -7.133639,2.10138 -5.364055,0 -8.350231,-3.61291 -2.064517,-2.48847 -2.064517,-5.75115 0,-4.68202 3.557605,-6.63594 1.437787,-0.79263 4.368662,-1.14286 0.921659,-0.11059 1.069127,-0.57143 0.129015,-0.38709 0.09216,-0.97695 z"
           style="font-weight:bold;font-size:11.2889px;line-height:1.25;font-family:MOESongUN;-inkscape-font-specification:'MOESongUN Bold';letter-spacing:0px;word-spacing:0px;fill:#6a5753;fill-opacity:1;stroke-width:0.884791"
           id="path604-0-6-2" />
      </g>
      <rect
         style="fill:none;fill-opacity:0.6;stroke-width:0.0684293"
         id="rect233-7-8-0-9-6-3-1"
         width="24"
         height="24"
         x="539.96588"
         y="302.96677" />
      <g
         id="g2527-6-9"
         transform="matrix(0.83333333,0,0,0.83333333,475.35659,257.82243)">
        <rect
           style="fill:none;stroke:none;stroke-width:0.1"
           id="rect10-6-1-6-4"
           width="24"
           height="24"
           x="82.331146"
           y="58.973202" />
        <g
           id="g1043-5-3-7"
           style="font-weight:bold;font-size:11.2889px;line-height:1.25;font-family:MOESongUN;-inkscape-font-specification:'MOESongUN Bold';letter-spacing:0px;word-spacing:0px;fill:#6c5a57;fill-opacity:0.952941;stroke-width:0.264583"
           transform="matrix(1.6350365,0,0,1.6350365,-16.142395,103.3961)">
          <path
             style="color:#000000;font-style:normal;font-variant:normal;font-weight:normal;font-stretch:normal;font-size:medium;line-height:1.25;font-family:'Noto Sans';-inkscape-font-specification:'Noto Sans';font-variant-ligatures:normal;font-variant-position:normal;font-variant-caps:normal;font-variant-numeric:normal;font-variant-alternates:normal;font-variant-east-asian:normal;font-feature-settings:normal;font-variation-settings:normal;text-indent:0;text-align:start;text-decoration:none;text-decoration-line:none;text-decoration-style:solid;text-decoration-color:#000000;letter-spacing:0px;word-spacing:0px;text-transform:none;writing-mode:lr-tb;direction:ltr;text-orientation:mixed;dominant-baseline:auto;baseline-shift:baseline;text-anchor:start;white-space:normal;shape-padding:0;shape-margin:0;inline-size:0;clip-rule:nonzero;display:inline;overflow:visible;visibility:visible;isolation:auto;mix-blend-mode:normal;color-interpolation:sRGB;color-interpolation-filters:linearRGB;solid-color:#000000;solid-opacity:1;vector-effect:none;fill:#6c5a57;fill-opacity:0.952941;fill-rule:nonzero;stroke:none;stroke-width:0.264583;stroke-linecap:butt;stroke-linejoin:miter;stroke-miterlimit:4;stroke-dasharray:none;stroke-dashoffset:0;stroke-opacity:1;color-rendering:auto;image-rendering:auto;shape-rendering:auto;text-rendering:auto;enable-background:accumulate;stop-color:#000000;stop-opacity:1"
             d="m 71.286283,-19.835161 c 0,0.835379 -0.142993,1.565394 -0.428978,2.190047 -0.278459,0.617127 -0.692386,1.098786 -1.241779,1.444979 -0.549393,0.346193 -1.23049,0.519289 -2.043291,0.519289 -0.835379,0 -1.531527,-0.173096 -2.088446,-0.519289 -0.549393,-0.346193 -0.959557,-0.831615 -1.230491,-1.456268 -0.270933,-0.624653 -0.4064,-1.354668 -0.4064,-2.190047 0,-0.827853 0.135467,-1.550342 0.4064,-2.167469 0.270934,-0.617126 0.681098,-1.098786 1.230491,-1.444979 0.556919,-0.346193 1.25683,-0.519289 2.099735,-0.519289 0.805275,0 1.482609,0.173096 2.032002,0.519289 0.549393,0.338667 0.96332,0.820327 1.241779,1.444979 0.285985,0.617127 0.428978,1.343379 0.428978,2.178758 z m -6.366939,0 c 0,1.016001 0.214489,1.817513 0.643467,2.404536 0.428978,0.579497 1.098786,0.869245 2.009424,0.869245 0.918164,0 1.587972,-0.289748 2.009424,-0.869245 0.421453,-0.587023 0.632179,-1.388535 0.632179,-2.404536 0,-1.016001 -0.210726,-1.809987 -0.632179,-2.381958 -0.421452,-0.579497 -1.087497,-0.869245 -1.998135,-0.869245 -0.910638,0 -1.584209,0.289748 -2.020713,0.869245 -0.428978,0.571971 -0.643467,1.365957 -0.643467,2.381958 z"
             id="path1045-0-9-8" />
          <path
             style="color:#000000;font-style:normal;font-variant:normal;font-weight:normal;font-stretch:normal;font-size:medium;line-height:1.25;font-family:'Noto Sans';-inkscape-font-specification:'Noto Sans';font-variant-ligatures:normal;font-variant-position:normal;font-variant-caps:normal;font-variant-numeric:normal;font-variant-alternates:normal;font-variant-east-asian:normal;font-feature-settings:normal;font-variation-settings:normal;text-indent:0;text-align:start;text-decoration:none;text-decoration-line:none;text-decoration-style:solid;text-decoration-color:#000000;letter-spacing:0px;word-spacing:0px;text-transform:none;writing-mode:lr-tb;direction:ltr;text-orientation:mixed;dominant-baseline:auto;baseline-shift:baseline;text-anchor:start;white-space:normal;shape-padding:0;shape-margin:0;inline-size:0;clip-rule:nonzero;display:inline;overflow:visible;visibility:visible;isolation:auto;mix-blend-mode:normal;color-interpolation:sRGB;color-interpolation-filters:linearRGB;solid-color:#000000;solid-opacity:1;vector-effect:none;fill:#6c5a57;fill-opacity:0.952941;fill-rule:nonzero;stroke:none;stroke-width:0.264583;stroke-linecap:butt;stroke-linejoin:miter;stroke-miterlimit:4;stroke-dasharray:none;stroke-dashoffset:0;stroke-opacity:1;color-rendering:auto;image-rendering:auto;shape-rendering:auto;text-rendering:auto;enable-background:accumulate;stop-color:#000000;stop-opacity:1"
             d="m 67.583984,-24.111328 c -0.861016,0 -1.587588,0.179025 -2.169922,0.541016 -0.571091,0.359866 -1.000745,0.86498 -1.28125,1.503906 -0.279686,0.637063 -0.417968,1.378418 -0.417968,2.220703 0,0.84968 0.138469,1.597784 0.417968,2.242187 0.280374,0.646416 0.709793,1.155529 1.28125,1.515625 0.582107,0.36185 1.30455,0.539063 2.158204,0.539063 0.831582,0 1.538992,-0.177183 2.113281,-0.539063 0.570861,-0.35972 1.004909,-0.863549 1.292969,-1.501953 0.295277,-0.644948 0.439453,-1.395619 0.439453,-2.246094 0,-0.850474 -0.145846,-1.596587 -0.441407,-2.234374 -0.2878,-0.644313 -0.72062,-1.148032 -1.291015,-1.5 -0.574058,-0.361735 -1.27733,-0.541016 -2.101563,-0.541016 z m 0,0.265625 c 0.786317,0 1.436209,0.167396 1.960938,0.498047 v 0.002 h 0.002 c 0.526964,0.324841 0.920547,0.781544 1.189453,1.384765 v 0.002 c 0.276411,0.596465 0.417969,1.302764 0.417969,2.123046 0,0.820283 -0.141275,1.532362 -0.417969,2.136719 -0.268859,0.59585 -0.663481,1.054054 -1.191406,1.386719 -0.524498,0.330505 -1.178638,0.5 -1.972656,0.5 -0.81636,0 -1.486081,-0.17006 -2.017578,-0.5 -0.52733,-0.332289 -0.918193,-0.793594 -1.179688,-1.396484 -0.262367,-0.604902 -0.396484,-1.315642 -0.396484,-2.136719 0,-0.813421 0.134303,-1.518045 0.396484,-2.115235 0.260968,-0.594426 0.651251,-1.052367 1.177734,-1.384765 0.531504,-0.330394 1.206457,-0.5 2.03125,-0.5 z m 0,0.626953 c -0.938699,0 -1.663849,0.307065 -2.126953,0.921875 -0.451537,0.60205 -0.669922,1.426318 -0.669922,2.460937 0,1.034621 0.217539,1.866045 0.667969,2.482422 l 0.002,0.002 c 0.455612,0.615476 1.176535,0.921874 2.115235,0.921874 0.945995,0 1.668857,-0.307374 2.117187,-0.923828 0.44254,-0.616394 0.65625,-1.448128 0.65625,-2.482422 0,-1.034292 -0.21456,-1.856898 -0.658203,-2.458984 -0.448173,-0.615304 -1.16546,-0.923828 -2.103516,-0.923828 z m 0,0.265625 c 0.882577,0 1.495831,0.271611 1.890625,0.814453 0.399263,0.541856 0.607422,1.305026 0.607422,2.302734 0,0.99771 -0.207056,1.770475 -0.607422,2.328126 -0.394574,0.542539 -1.012011,0.814453 -1.902343,0.814453 -0.882577,0 -1.5,-0.27289 -1.902344,-0.816407 -0.406899,-0.557565 -0.619141,-1.32957 -0.619141,-2.326172 0,-0.996592 0.2114,-1.758967 0.617188,-2.300781 0.409904,-0.544183 1.033439,-0.816406 1.916015,-0.816406 z"
             id="path1047-9-9-4" />
        </g>
      </g>
    </g>
  </g>
</svg>
