<?xml version="1.0" encoding="UTF-8" standalone="no"?>
<svg
   xmlns:dc="http://purl.org/dc/elements/1.1/"
   xmlns:cc="http://creativecommons.org/ns#"
   xmlns:rdf="http://www.w3.org/1999/02/22-rdf-syntax-ns#"
   xmlns:svg="http://www.w3.org/2000/svg"
   xmlns="http://www.w3.org/2000/svg"
   xmlns:sodipodi="http://sodipodi.sourceforge.net/DTD/sodipodi-0.dtd"
   xmlns:inkscape="http://www.inkscape.org/namespaces/inkscape"
   width="24.000002mm"
   height="24mm"
   viewBox="0 0 24.000002 24"
   version="1.1"
   id="svg11489"
   inkscape:version="1.0.2 (e86c870879, 2021-01-15, custom)"
   sodipodi:docname="guileless_bopomofo_keyboard-eten26-qwerty-d.svg">
  <defs
     id="defs11483" />
  <sodipodi:namedview
     id="base"
     pagecolor="#ffffff"
     bordercolor="#666666"
     borderopacity="1.0"
     inkscape:pageopacity="0.0"
     inkscape:pageshadow="2"
     inkscape:zoom="0.35"
     inkscape:cx="39.640047"
     inkscape:cy="328.21147"
     inkscape:document-units="mm"
     inkscape:current-layer="layer1"
     inkscape:document-rotation="0"
     showgrid="false"
     inkscape:window-width="1920"
     inkscape:window-height="1049"
     inkscape:window-x="1"
     inkscape:window-y="0"
     inkscape:window-maximized="1" />
  <metadata
     id="metadata11486">
    <rdf:RDF>
      <cc:Work
         rdf:about="">
        <dc:format>image/svg+xml</dc:format>
        <dc:type
           rdf:resource="http://purl.org/dc/dcmitype/StillImage" />
        <dc:title></dc:title>
      </cc:Work>
    </rdf:RDF>
  </metadata>
  <g
     inkscape:label="Layer 1"
     inkscape:groupmode="layer"
     id="layer1"
     transform="translate(-95.345238,-61.327381)">
    <g
       id="g3111"
       transform="translate(-384.52204,17.302414)">
      <g
         id="g4646-1-5"
         transform="matrix(0.27369711,0,0,0.27369711,433.02447,50.682432)">
        <rect
           style="fill:none;fill-opacity:0.6;stroke-width:0.0833395"
           id="rect233-5-3-4"
           width="29.229391"
           height="29.229391"
           x="171.14835"
           y="4.9051642" />
        <path
           d="m 185.78712,16.51986 q 1.20385,0 2.08025,0.857142 0.89567,0.886036 0.89567,2.147673 0,1.232745 -0.8764,2.11878 -0.88604,0.876405 -2.11879,0.876405 -1.26163,0 -2.14767,-0.905297 -0.85714,-0.876405 -0.85714,-2.089888 0,-1.280899 0.93419,-2.176565 0.85714,-0.82825 2.08989,-0.82825 z"
           style="font-weight:bold;font-size:11.2889px;line-height:1.25;font-family:MOESongUN;-inkscape-font-specification:'MOESongUN Bold';letter-spacing:0px;word-spacing:0px;fill:#6a5753;fill-opacity:1;stroke-width:0.462279"
           id="path628-2-3-2" />
      </g>
      <rect
         style="fill:none;stroke:none;stroke-width:0.0833333"
         id="rect10-5-75-9"
         width="20"
         height="20"
         x="483.86728"
         y="48.024967" />
      <g
         id="g1067-9-9"
         style="font-weight:bold;font-size:11.2889px;line-height:1.25;font-family:MOESongUN;-inkscape-font-specification:'MOESongUN Bold';letter-spacing:0px;word-spacing:0px;fill:#6c5a57;fill-opacity:0.952941;stroke-width:0.264583"
         transform="matrix(1.4015328,0,0,1.4015328,459.75967,68.38865)">
        <path
           style="color:#000000;font-style:normal;font-variant:normal;font-weight:normal;font-stretch:normal;font-size:medium;line-height:1.25;font-family:'Noto Sans';-inkscape-font-specification:'Noto Sans';font-variant-ligatures:normal;font-variant-position:normal;font-variant-caps:normal;font-variant-numeric:normal;font-variant-alternates:normal;font-variant-east-asian:normal;font-feature-settings:normal;font-variation-settings:normal;text-indent:0;text-align:start;text-decoration:none;text-decoration-line:none;text-decoration-style:solid;text-decoration-color:#000000;letter-spacing:0px;word-spacing:0px;text-transform:none;writing-mode:lr-tb;direction:ltr;text-orientation:mixed;dominant-baseline:auto;baseline-shift:baseline;text-anchor:start;white-space:normal;shape-padding:0;shape-margin:0;inline-size:0;clip-rule:nonzero;display:inline;overflow:visible;visibility:visible;isolation:auto;mix-blend-mode:normal;color-interpolation:sRGB;color-interpolation-filters:linearRGB;solid-color:#000000;solid-opacity:1;vector-effect:none;fill:#6c5a57;fill-opacity:0.952941;fill-rule:nonzero;stroke:none;stroke-width:0.264583;stroke-linecap:butt;stroke-linejoin:miter;stroke-miterlimit:4;stroke-dasharray:none;stroke-dashoffset:0;stroke-opacity:1;color-rendering:auto;image-rendering:auto;shape-rendering:auto;text-rendering:auto;enable-background:accumulate;stop-color:#000000;stop-opacity:1"
           d="m 27.564446,-7.4732678 c 0,1.3621939 -0.372534,2.3894839 -1.117601,3.0818698 -0.737541,0.6848599 -1.768594,1.0272899 -3.093159,1.0272899 h -2.246491 v -8.0602749 h 2.483558 c 0.812801,0 1.516476,0.150519 2.111025,0.451556 0.594549,0.301037 1.05363,0.745067 1.377245,1.3320903 0.323615,0.5794969 0.485423,1.3019865 0.485423,2.1674689 z m -1.072445,0.033867 c 0,-1.0762085 -0.267171,-1.8626686 -0.801512,-2.3593802 -0.526815,-0.504238 -1.275646,-0.756357 -2.246492,-0.756357 h -1.320801 v 6.3217849 h 1.095023 c 2.182521,0 3.273782,-1.0686826 3.273782,-3.2060477 z"
           id="path1069-1-4" />
        <path
           style="color:#000000;font-style:normal;font-variant:normal;font-weight:normal;font-stretch:normal;font-size:medium;line-height:1.25;font-family:'Noto Sans';-inkscape-font-specification:'Noto Sans';font-variant-ligatures:normal;font-variant-position:normal;font-variant-caps:normal;font-variant-numeric:normal;font-variant-alternates:normal;font-variant-east-asian:normal;font-feature-settings:normal;font-variation-settings:normal;text-indent:0;text-align:start;text-decoration:none;text-decoration-line:none;text-decoration-style:solid;text-decoration-color:#000000;letter-spacing:0px;word-spacing:0px;text-transform:none;writing-mode:lr-tb;direction:ltr;text-orientation:mixed;dominant-baseline:auto;baseline-shift:baseline;text-anchor:start;white-space:normal;shape-padding:0;shape-margin:0;inline-size:0;clip-rule:nonzero;display:inline;overflow:visible;visibility:visible;isolation:auto;mix-blend-mode:normal;color-interpolation:sRGB;color-interpolation-filters:linearRGB;solid-color:#000000;solid-opacity:1;vector-effect:none;fill:#6c5a57;fill-opacity:0.952941;fill-rule:nonzero;stroke:none;stroke-width:0.264583;stroke-linecap:butt;stroke-linejoin:miter;stroke-miterlimit:4;stroke-dasharray:none;stroke-dashoffset:0;stroke-opacity:1;color-rendering:auto;image-rendering:auto;shape-rendering:auto;text-rendering:auto;enable-background:accumulate;stop-color:#000000;stop-opacity:1"
           d="m 20.974609,-11.556641 v 8.3242191 h 2.378907 c 1.347365,0 2.417115,-0.3507697 3.183593,-1.0625 0.776758,-0.7218357 1.160157,-1.791421 1.160157,-3.1777343 0,-0.881971 -0.164669,-1.6284476 -0.501954,-2.2324219 -0.335535,-0.6086469 -0.816757,-1.0743969 -1.433593,-1.3867189 -0.616225,-0.312012 -1.342742,-0.464844 -2.171875,-0.464844 z m 0.265625,0.263672 h 2.34961 c 0.796468,0 1.47986,0.147438 2.052734,0.4375 0.572261,0.289753 1.008619,0.713898 1.320313,1.2792971 0.309946,0.5550195 0.46875,1.2545218 0.46875,2.1035157 0,1.3380744 -0.360842,2.3214388 -1.074219,2.984375 -0.708604,0.6579896 -1.702142,0.9921874 -3.003906,0.9921874 h -2.113282 z m 0.75,0.605469 v 6.5859375 h 1.228516 c 1.112853,0 1.969746,-0.2727023 2.546875,-0.8378906 0.577129,-0.5651883 0.859375,-1.4088031 0.859375,-2.5 0,-1.0973437 -0.275313,-1.9258792 -0.84375,-2.4550781 C 25.225109,-10.426838 24.437109,-10.6875 23.443359,-10.6875 Z m 0.265625,0.265625 h 1.1875 c 0.947943,0 1.65876,0.242581 2.15625,0.71875 v 0.00195 c 0.499445,0.4642728 0.759766,1.2074046 0.759766,2.2617188 0,1.0461681 -0.265165,1.8070526 -0.779297,2.3105469 -0.514131,0.5034942 -1.29166,0.7636718 -2.361328,0.7636718 h -0.962891 z"
           id="path1071-2-9" />
      </g>
      <rect
         style="fill:none;fill-opacity:0.6;stroke-width:0.0684293"
         id="rect233-7-6-9-1-3-1"
         width="24"
         height="24"
         x="479.86728"
         y="44.024967" />
      <g
         id="g3671-3-6"
         transform="matrix(0.27369693,0,0,0.27369693,477.38136,32.596305)">
        <rect
           style="fill:none;fill-opacity:0.6;stroke-width:0.0833395"
           id="rect233-56-8-3"
           width="29.229391"
           height="29.229391"
           x="9.0827417"
           y="41.756634" />
        <path
           d="m 19.149625,53.25758 q -3.391059,0.839843 -4.104132,1.235995 -0.681382,0.364458 -0.950766,0.364458 -0.522919,0 -1.204301,-0.475383 -0.855686,-0.602151 -0.855686,-0.998303 0,-0.110936 0.52292,-0.903226 1.346914,-2.01245 2.471987,-4.215054 1.917374,-3.803057 1.917374,-4.88059 0,-0.158456 -0.06339,-0.380303 -0.04755,-0.206005 -0.04755,-0.301076 0,-0.332769 0.364457,-0.332769 0.744767,0 2.123376,1.204301 0.855686,0.744767 0.855686,1.251841 0,0.285233 -0.459534,0.633842 -0.808149,0.64969 -2.471988,3.137524 -1.822297,2.725523 -1.822297,3.280134 0,0.301075 0.411997,0.301075 0.443689,0 2.677987,-0.491228 3.327674,-0.728919 8.794566,-1.521222 3.248446,-0.47538 4.389362,-0.855687 0.617999,-0.206004 0.823997,-0.206004 0.554611,0 1.473683,0.855686 1.489531,1.394454 1.489531,2.313526 0,0.253524 -0.301076,0.602151 -0.55461,0.665535 -0.776458,1.521224 -1.616298,6.496886 -3.723825,10.490096 -1.473686,2.773063 -3.121676,4.294285 -1.299377,1.188456 -2.265989,1.188456 -0.443688,0 -0.697227,-0.459534 -0.126776,-0.237685 -0.396152,-0.839844 -0.570456,-1.36276 -1.743066,-2.630447 l -0.380306,-0.411997 q -0.174296,-0.174296 -0.174296,-0.332769 0,-0.174296 0.206004,-0.174296 0.07923,0 0.142616,0.03168 l 0.80815,0.411998 q 1.711375,0.871534 2.29768,0.871534 1.885683,0 4.468593,-6.52858 1.220146,-3.058292 2.059987,-5.910583 0.491228,-1.632148 0.491228,-1.917377 0,-1.029994 -1.077533,-1.029994 -0.380303,0 -3.533673,0.411998 -3.94567,0.554613 -7.368423,1.109224 1.853991,1.441994 1.853991,2.265989 0,0.776458 -3.121675,5.102435 -3.391059,4.690437 -6.179968,6.370121 l -0.60215,0.364457 q -0.126777,0.07923 -0.285233,0.07923 -0.158456,0 -0.158456,-0.126777 0,-0.190165 0.174296,-0.332769 l 0.396152,-0.364458 q 0.88738,-0.808149 2.503679,-3.10583 1.632147,-2.313525 2.503679,-4.009055 1.917374,-3.692135 1.917374,-5.102435 0,-0.380306 -0.253524,-0.855689 z"
           style="font-weight:bold;font-size:11.2889px;line-height:1.25;font-family:MOESongUN;-inkscape-font-specification:'MOESongUN Bold';letter-spacing:0px;word-spacing:0px;fill:#6a5753;fill-opacity:1;stroke-width:0.76061"
           id="path562-9-5-9" />
      </g>
    </g>
  </g>
</svg>
