<?xml version="1.0" encoding="UTF-8" standalone="no"?>
<svg
   xmlns:dc="http://purl.org/dc/elements/1.1/"
   xmlns:cc="http://creativecommons.org/ns#"
   xmlns:rdf="http://www.w3.org/1999/02/22-rdf-syntax-ns#"
   xmlns:svg="http://www.w3.org/2000/svg"
   xmlns="http://www.w3.org/2000/svg"
   xmlns:sodipodi="http://sodipodi.sourceforge.net/DTD/sodipodi-0.dtd"
   xmlns:inkscape="http://www.inkscape.org/namespaces/inkscape"
   width="24mm"
   height="24mm"
   viewBox="0 0 24 24"
   version="1.1"
   id="svg715"
   inkscape:version="1.0.1 (3bc2e813f5, 2020-09-07)"
   sodipodi:docname="guileless_bopomofo_keyboard-h.svg">
  <defs
     id="defs709" />
  <sodipodi:namedview
     id="base"
     pagecolor="#ffffff"
     bordercolor="#666666"
     borderopacity="1.0"
     inkscape:pageopacity="0.0"
     inkscape:pageshadow="2"
     inkscape:zoom="0.35"
     inkscape:cx="45.35433"
     inkscape:cy="45.354329"
     inkscape:document-units="mm"
     inkscape:current-layer="layer1"
     inkscape:document-rotation="0"
     showgrid="false"
     inkscape:window-width="1920"
     inkscape:window-height="1017"
     inkscape:window-x="0"
     inkscape:window-y="1080"
     inkscape:window-maximized="1" />
  <metadata
     id="metadata712">
    <rdf:RDF>
      <cc:Work
         rdf:about="">
        <dc:format>image/svg+xml</dc:format>
        <dc:type
           rdf:resource="http://purl.org/dc/dcmitype/StillImage" />
        <dc:title></dc:title>
      </cc:Work>
    </rdf:RDF>
  </metadata>
  <g
     inkscape:label="Layer 1"
     inkscape:groupmode="layer"
     id="layer1"
     transform="translate(-93.833333,-136.16667)">
    <g
       id="g5413"
       transform="matrix(0.82109133,0,0,0.82109133,19.840239,71.622237)">
      <rect
         style="fill:none;fill-opacity:0.6;stroke-width:0.0833395"
         id="rect233-3-9"
         width="29.229391"
         height="29.229391"
         x="90.115547"
         y="78.608101" />
      <path
         d="m 99.223843,85.044109 q -0.48587,7.359914 -2.01543,11.732676 -2.21338,6.298215 -5.48845,8.961455 l -0.53986,0.44988 q -0.17988,0.14396 -0.30589,0.14396 -0.14397,0 -0.14397,-0.16195 0,-0.17995 0.14397,-0.37789 l 0.41388,-0.62982 q 2.17738,-3.25708 3.617,-9.105425 1.29561,-5.272503 1.29561,-9.825212 0,-1.349617 -0.59383,-2.375326 -0.25202,-0.431879 -0.25202,-0.73779 0,-0.323912 0.41388,-0.395889 0.16193,-0.01796 1.81749,-0.07198 4.876637,-0.179944 15.763527,-2.14139 l 0.98972,-0.161956 q 1.4216,-0.23394 1.69152,-0.23394 1.00771,0 1.85349,0.863756 0.84576,0.881748 0.84576,1.601546 0,0.41388 -0.50386,0.41388 -0.21611,0 -0.66581,-0.07198 -0.57584,-0.08997 -1.04372,-0.08997 -2.62724,0 -7.17996,0.557842 -5.61439,0.683806 -10.113117,1.655528 z"
         style="font-weight:bold;font-size:11.2889px;line-height:1.25;font-family:MOESongUN;-inkscape-font-specification:'MOESongUN Bold';letter-spacing:0px;word-spacing:0px;fill:#6a5753;fill-opacity:1;stroke-width:0.863753"
         id="path574-5" />
    </g>
  </g>
</svg>
