<?xml version="1.0" encoding="UTF-8" standalone="no"?>
<svg
   xmlns:dc="http://purl.org/dc/elements/1.1/"
   xmlns:cc="http://creativecommons.org/ns#"
   xmlns:rdf="http://www.w3.org/1999/02/22-rdf-syntax-ns#"
   xmlns:svg="http://www.w3.org/2000/svg"
   xmlns="http://www.w3.org/2000/svg"
   xmlns:sodipodi="http://sodipodi.sourceforge.net/DTD/sodipodi-0.dtd"
   xmlns:inkscape="http://www.inkscape.org/namespaces/inkscape"
   width="24.000002mm"
   height="24mm"
   viewBox="0 0 24.000002 24"
   version="1.1"
   id="svg12188"
   inkscape:version="1.0.2 (e86c870879, 2021-01-15, custom)"
   sodipodi:docname="guileless_bopomofo_keyboard-eten26-qwerty-f.svg">
  <defs
     id="defs12182" />
  <sodipodi:namedview
     id="base"
     pagecolor="#ffffff"
     bordercolor="#666666"
     borderopacity="1.0"
     inkscape:pageopacity="0.0"
     inkscape:pageshadow="2"
     inkscape:zoom="0.35"
     inkscape:cx="-180.35994"
     inkscape:cy="176.7829"
     inkscape:document-units="mm"
     inkscape:current-layer="layer1"
     inkscape:document-rotation="0"
     showgrid="false"
     inkscape:window-width="1920"
     inkscape:window-height="1049"
     inkscape:window-x="1"
     inkscape:window-y="0"
     inkscape:window-maximized="1" />
  <metadata
     id="metadata12185">
    <rdf:RDF>
      <cc:Work
         rdf:about="">
        <dc:format>image/svg+xml</dc:format>
        <dc:type
           rdf:resource="http://purl.org/dc/dcmitype/StillImage" />
        <dc:title></dc:title>
      </cc:Work>
    </rdf:RDF>
  </metadata>
  <g
     inkscape:label="Layer 1"
     inkscape:groupmode="layer"
     id="layer1"
     transform="translate(-153.55357,-101.39286)">
    <g
       id="g3174"
       transform="translate(-327.00057,18.874142)">
      <g
         id="g4651-1-3"
         transform="matrix(0.27369693,0,0,0.27369693,433.71136,79.090048)">
        <rect
           style="fill:none;fill-opacity:0.6;stroke-width:0.0833395"
           id="rect233-5-2-08-3"
           width="29.229391"
           height="29.229391"
           x="171.14835"
           y="41.756634" />
        <path
           d="m 191.46184,51.178557 -0.78314,1.060241 q -0.19277,0.265061 -3.03614,3.746989 -1.68675,1.987952 -2.40964,2.879518 -0.79518,0.987952 -1.63855,2.012048 -0.6988,0.843374 -0.78314,0.963856 -0.39759,0.53012 -0.68674,0.53012 -0.6988,0 -1.87952,-1.385542 -0.37349,-0.445783 -0.37349,-0.710843 0,-0.216868 0.24096,-0.409639 l 0.36144,-0.26506 0.44579,-0.33735 q 1.90361,-1.240963 4.14458,-3.180722 1.92771,-1.674699 2.98795,-2.710844 0.24096,-0.228916 1.07229,-1.060242 0.59036,-0.578312 0.87952,-0.855421 l 0.81927,-0.783132 q 0.3253,-0.301205 0.48193,-0.301205 0.3494,0 0.3494,0.361447 0,0.180717 -0.19277,0.445781 z"
           style="font-weight:bold;font-size:11.2889px;line-height:1.25;font-family:MOESongUN;-inkscape-font-specification:'MOESongUN Bold';letter-spacing:0px;word-spacing:0px;fill:#6a5753;fill-opacity:1;stroke-width:0.57831"
           id="path630-9-7-4" />
      </g>
      <rect
         style="fill:none;stroke:none;stroke-width:0.0833333"
         id="rect10-35-9-5"
         width="20"
         height="20"
         x="484.55414"
         y="86.518715" />
      <g
         id="g1073-7-6"
         style="font-weight:bold;font-size:11.2889px;line-height:1.25;font-family:MOESongUN;-inkscape-font-specification:'MOESongUN Bold';letter-spacing:0px;word-spacing:0px;fill:#6c5a57;fill-opacity:0.952941;stroke-width:0.264583"
         transform="matrix(1.4015328,0,0,1.4015328,450.26624,106.8824)">
        <path
           style="color:#000000;font-style:normal;font-variant:normal;font-weight:normal;font-stretch:normal;font-size:medium;line-height:1.25;font-family:'Noto Sans';-inkscape-font-specification:'Noto Sans';font-variant-ligatures:normal;font-variant-position:normal;font-variant-caps:normal;font-variant-numeric:normal;font-variant-alternates:normal;font-variant-east-asian:normal;font-feature-settings:normal;font-variation-settings:normal;text-indent:0;text-align:start;text-decoration:none;text-decoration-line:none;text-decoration-style:solid;text-decoration-color:#000000;letter-spacing:0px;word-spacing:0px;text-transform:none;writing-mode:lr-tb;direction:ltr;text-orientation:mixed;dominant-baseline:auto;baseline-shift:baseline;text-anchor:start;white-space:normal;shape-padding:0;shape-margin:0;inline-size:0;clip-rule:nonzero;display:inline;overflow:visible;visibility:visible;isolation:auto;mix-blend-mode:normal;color-interpolation:sRGB;color-interpolation-filters:linearRGB;solid-color:#000000;solid-opacity:1;vector-effect:none;fill:#6c5a57;fill-opacity:0.952941;fill-rule:nonzero;stroke:none;stroke-width:0.264583;stroke-linecap:butt;stroke-linejoin:miter;stroke-miterlimit:4;stroke-dasharray:none;stroke-dashoffset:0;stroke-opacity:1;color-rendering:auto;image-rendering:auto;shape-rendering:auto;text-rendering:auto;enable-background:accumulate;stop-color:#000000;stop-opacity:1"
           d="m 30.364089,-3.3641081 h -1.016002 v -8.0602749 h 4.504272 v 0.891823 h -3.48827 v 2.856092 h 3.273781 v 0.8918231 h -3.273781 z"
           id="path1075-0-1" />
        <path
           style="color:#000000;font-style:normal;font-variant:normal;font-weight:normal;font-stretch:normal;font-size:medium;line-height:1.25;font-family:'Noto Sans';-inkscape-font-specification:'Noto Sans';font-variant-ligatures:normal;font-variant-position:normal;font-variant-caps:normal;font-variant-numeric:normal;font-variant-alternates:normal;font-variant-east-asian:normal;font-feature-settings:normal;font-variation-settings:normal;text-indent:0;text-align:start;text-decoration:none;text-decoration-line:none;text-decoration-style:solid;text-decoration-color:#000000;letter-spacing:0px;word-spacing:0px;text-transform:none;writing-mode:lr-tb;direction:ltr;text-orientation:mixed;dominant-baseline:auto;baseline-shift:baseline;text-anchor:start;white-space:normal;shape-padding:0;shape-margin:0;inline-size:0;clip-rule:nonzero;display:inline;overflow:visible;visibility:visible;isolation:auto;mix-blend-mode:normal;color-interpolation:sRGB;color-interpolation-filters:linearRGB;solid-color:#000000;solid-opacity:1;vector-effect:none;fill:#6c5a57;fill-opacity:0.952941;fill-rule:nonzero;stroke:none;stroke-width:0.264583;stroke-linecap:butt;stroke-linejoin:miter;stroke-miterlimit:4;stroke-dasharray:none;stroke-dashoffset:0;stroke-opacity:1;color-rendering:auto;image-rendering:auto;shape-rendering:auto;text-rendering:auto;enable-background:accumulate;stop-color:#000000;stop-opacity:1"
           d="m 29.214844,-11.556641 v 8.3242191 h 1.28125 v -0.1308593 -3.2890626 h 3.273437 v -1.15625 h -3.273437 v -2.5917972 h 3.488281 v -1.15625 z m 0.265625,0.263672 h 4.240234 v 0.628907 h -3.488281 v 3.1191401 h 3.273437 v 0.6289063 h -3.273437 v 3.4199218 h -0.751953 z"
           id="path1077-9-7" />
      </g>
      <rect
         style="fill:none;fill-opacity:0.6;stroke-width:0.0684293"
         id="rect233-7-8-0-1-8-2"
         width="24"
         height="24"
         x="480.55414"
         y="82.518715" />
      <g
         id="g3597-6-9"
         transform="matrix(0.27369698,0,0,0.27369698,444.80057,81.176186)">
        <rect
           style="fill:none;fill-opacity:0.6;stroke-width:0.0833395"
           id="rect233-7-3-2"
           width="29.229391"
           height="29.229391"
           x="130.63194"
           y="4.9051642" />
        <path
           d="m 132.60524,12.668069 q -0.38277,-0.382782 -0.59333,-0.555036 -0.76554,-0.689006 -0.76554,-1.090929 0,-0.229685 0.15312,-0.363644 0.13403,-0.133991 1.77994,-0.172254 6.67954,-0.191386 12.89974,-1.1674874 6.41164,-0.9952332 8.55521,-1.7799386 1.07179,-0.4019203 1.51199,-0.4019203 1.05266,0 2.41152,1.1292066 0.68902,0.5741742 0.68902,1.0335136 0,0.3636435 -0.4785,0.4593403 -0.21042,0.038264 -1.89477,0.114824 -1.07178,0.038264 -4.63166,0.5741708 -6.89008,1.071791 -15.7515,2.047887 l 0.0382,0.593312 q 0.17222,3.02398 0.28716,7.961873 0.13402,5.091004 0.88039,6.469024 1.09092,2.047885 3.94268,2.047885 0.99523,0 5.26325,-0.267947 6.33506,-0.401924 7.84705,-0.803845 1.12918,-0.287078 1.32058,-0.287078 1.03352,0 2.08618,0.842122 0.97608,0.784705 0.97608,1.550268 0,0.516759 -0.91866,0.727287 -0.9187,0.191386 -3.6173,0.267947 l -5.41637,0.133956 q -4.22976,0.172254 -6.08625,0.172254 -2.94741,0 -4.61253,-0.555033 -2.81346,-0.937818 -3.77041,-4.153189 -0.4976,-1.684244 -0.57416,-4.574246 l -0.11494,-3.674714 q -0.0573,-2.430667 -0.34443,-3.598154 -0.30625,-1.282322 -1.07179,-2.679476 z"
           style="font-weight:bold;font-size:11.2889px;line-height:1.25;font-family:MOESongUN;-inkscape-font-specification:'MOESongUN Bold';letter-spacing:0px;word-spacing:0px;fill:#6a5753;fill-opacity:1;stroke-width:0.918678"
           id="path560-8-5-8" />
      </g>
    </g>
  </g>
</svg>
