<?xml version="1.0" encoding="UTF-8" standalone="no"?>
<svg
   xmlns:dc="http://purl.org/dc/elements/1.1/"
   xmlns:cc="http://creativecommons.org/ns#"
   xmlns:rdf="http://www.w3.org/1999/02/22-rdf-syntax-ns#"
   xmlns:svg="http://www.w3.org/2000/svg"
   xmlns="http://www.w3.org/2000/svg"
   xmlns:sodipodi="http://sodipodi.sourceforge.net/DTD/sodipodi-0.dtd"
   xmlns:inkscape="http://www.inkscape.org/namespaces/inkscape"
   width="24.000008mm"
   height="24mm"
   viewBox="0 0 24.000008 24"
   version="1.1"
   id="svg15554"
   inkscape:version="1.0.2 (e86c870879, 2021-01-15, custom)"
   sodipodi:docname="guileless_bopomofo_keyboard-eten26-qwerty-l.svg">
  <defs
     id="defs15548" />
  <sodipodi:namedview
     id="base"
     pagecolor="#ffffff"
     bordercolor="#666666"
     borderopacity="1.0"
     inkscape:pageopacity="0.0"
     inkscape:pageshadow="2"
     inkscape:zoom="0.35"
     inkscape:cx="96.782903"
     inkscape:cy="-497.50281"
     inkscape:document-units="mm"
     inkscape:current-layer="layer1"
     inkscape:document-rotation="0"
     showgrid="false"
     inkscape:window-width="1920"
     inkscape:window-height="1049"
     inkscape:window-x="1"
     inkscape:window-y="0"
     inkscape:window-maximized="1" />
  <metadata
     id="metadata15551">
    <rdf:RDF>
      <cc:Work
         rdf:about="">
        <dc:format>image/svg+xml</dc:format>
        <dc:type
           rdf:resource="http://purl.org/dc/dcmitype/StillImage" />
        <dc:title></dc:title>
      </cc:Work>
    </rdf:RDF>
  </metadata>
  <g
     inkscape:label="Layer 1"
     inkscape:groupmode="layer"
     id="layer1"
     transform="translate(-80.22619,-279.79762)">
    <g
       id="g3391"
       transform="translate(-400.32794,4.8101007)">
      <rect
         style="fill:none;stroke:none;stroke-width:0.0833333"
         id="rect10-5-12-8"
         width="20"
         height="20"
         x="484.55414"
         y="278.98752" />
      <path
         style="color:#000000;font-style:normal;font-variant:normal;font-weight:normal;font-stretch:normal;font-size:medium;line-height:1.25;font-family:'Noto Sans';-inkscape-font-specification:'Noto Sans';font-variant-ligatures:normal;font-variant-position:normal;font-variant-caps:normal;font-variant-numeric:normal;font-variant-alternates:normal;font-variant-east-asian:normal;font-feature-settings:normal;font-variation-settings:normal;text-indent:0;text-align:start;text-decoration:none;text-decoration-line:none;text-decoration-style:solid;text-decoration-color:#000000;letter-spacing:0px;word-spacing:0px;text-transform:none;writing-mode:lr-tb;direction:ltr;text-orientation:mixed;dominant-baseline:auto;baseline-shift:baseline;text-anchor:start;white-space:normal;shape-padding:0;shape-margin:0;inline-size:0;clip-rule:nonzero;display:inline;overflow:visible;visibility:visible;isolation:auto;mix-blend-mode:normal;color-interpolation:sRGB;color-interpolation-filters:linearRGB;solid-color:#000000;solid-opacity:1;vector-effect:none;fill:#6c5a57;fill-opacity:0.952941;fill-rule:nonzero;stroke:none;stroke-width:0.370822;stroke-linecap:butt;stroke-linejoin:miter;stroke-miterlimit:4;stroke-dasharray:none;stroke-dashoffset:0;stroke-opacity:1;color-rendering:auto;image-rendering:auto;shape-rendering:auto;text-rendering:auto;enable-background:accumulate;stop-color:#000000"
         d="m 491.37291,294.63629 v -11.29674 h 1.42395 v 10.031 h 4.93639 v 1.26574 z"
         id="path1105-9-6" />
      <path
         style="color:#000000;font-style:normal;font-variant:normal;font-weight:normal;font-stretch:normal;font-size:medium;line-height:1.25;font-family:'Noto Sans';-inkscape-font-specification:'Noto Sans';font-variant-ligatures:normal;font-variant-position:normal;font-variant-caps:normal;font-variant-numeric:normal;font-variant-alternates:normal;font-variant-east-asian:normal;font-feature-settings:normal;font-variation-settings:normal;text-indent:0;text-align:start;text-decoration:none;text-decoration-line:none;text-decoration-style:solid;text-decoration-color:#000000;letter-spacing:0px;word-spacing:0px;text-transform:none;writing-mode:lr-tb;direction:ltr;text-orientation:mixed;dominant-baseline:auto;baseline-shift:baseline;text-anchor:start;white-space:normal;shape-padding:0;shape-margin:0;inline-size:0;clip-rule:nonzero;display:inline;overflow:visible;visibility:visible;isolation:auto;mix-blend-mode:normal;color-interpolation:sRGB;color-interpolation-filters:linearRGB;solid-color:#000000;solid-opacity:1;vector-effect:none;fill:#6c5a57;fill-opacity:0.952941;fill-rule:nonzero;stroke:none;stroke-width:0.370822;stroke-linecap:butt;stroke-linejoin:miter;stroke-miterlimit:4;stroke-dasharray:none;stroke-dashoffset:0;stroke-opacity:1;color-rendering:auto;image-rendering:auto;shape-rendering:auto;text-rendering:auto;enable-background:accumulate;stop-color:#000000"
         d="m 491.18853,283.15419 v 11.66666 h 0.1834 6.54779 v -1.63694 h -4.93821 v -10.02972 z m 0.36954,0.36954 h 1.05389 v 10.03246 h 4.93548 v 0.89512 h -5.98937 z"
         id="path1107-2-9" />
      <rect
         style="fill:none;fill-opacity:0.6;stroke-width:0.0684293"
         id="rect233-7-6-9-0-1-9"
         width="24"
         height="24"
         x="480.55414"
         y="274.98752" />
      <g
         id="g3731-0-3"
         transform="matrix(0.27369711,0,0,0.27369711,444.80055,263.55885)">
        <rect
           style="fill:none;fill-opacity:0.6;stroke-width:0.0833395"
           id="rect233-7-1-4-0"
           width="29.229391"
           height="29.229391"
           x="130.63194"
           y="41.756634" />
        <path
           d="m 146.22299,51.828395 0.85532,-0.209804 q 2.74352,-0.693949 4.06688,-1.129683 0.62938,-0.209804 1.67837,-0.790779 0.27433,-0.145247 0.53256,-0.145247 0.61325,0 1.59768,0.774641 1.2104,0.968299 1.2104,1.54928 0,0.209804 -0.19352,0.742362 -0.20992,0.629394 -0.72624,5.406341 -0.62938,5.761386 -3.1631,9.279541 -1.17811,1.629971 -2.63057,2.533718 -0.85532,0.532564 -1.38788,0.532564 -0.46801,0 -0.7585,-0.56484 -0.66168,-1.242651 -1.90434,-2.469164 l -0.48413,-0.500288 q -0.12912,-0.112954 -0.12912,-0.2582 0,-0.209804 0.24213,-0.209804 0.0808,0 0.12911,0.0161 l 0.64555,0.209804 q 1.29105,0.435737 1.92044,0.435737 2.45303,0 4.1314,-5.261097 0.66168,-2.065706 1.11355,-4.712393 0.46803,-2.808071 0.46803,-3.921616 0,-1.081267 -0.90374,-1.081267 -0.66168,0 -6.76198,1.404033 -1.56542,3.79251 -2.29165,5.164268 -2.1948,4.147552 -5.30951,7.326802 -1.32332,1.339482 -3.37291,2.614411 -0.30662,0.193643 -0.40345,0.145247 -0.0647,-0.0161 -0.0647,-0.09682 0,-0.242068 0.9683,-1.274926 2.85648,-3.050145 5.69683,-8.504903 1.2265,-2.356196 2.00116,-4.551011 -4.87377,1.387898 -6.16486,2.114123 -0.35502,0.193672 -0.5487,0.193672 -0.38731,0 -0.87148,-0.468013 -0.82305,-0.839193 -0.82305,-1.420171 0,-0.338907 0.83922,-1.420173 0.6778,-0.871471 1.74293,-3.937754 0.98443,-2.840347 1.03286,-4.228244 0.0176,-0.66167 0.40344,-0.66167 0.56486,0 1.37175,0.726224 0.83922,0.758503 0.83922,1.27493 0,0.2582 -0.53257,0.968298 -0.62941,0.790779 -1.59771,3.356773 -0.85532,2.243228 -0.85532,2.6951 0,0.371183 0.38732,0.371183 0.33889,0 2.66283,-0.597119 0.59712,-0.145246 1.43631,-0.355042 0.67781,-0.161378 1.21037,-0.306628 0.88761,-2.840347 1.38791,-8.198274 0.0647,-1.048991 0.14521,-1.274927 0.25823,-0.742362 1.11352,-0.742362 1.95277,0 1.95277,1.484725 0,1.855907 -1.90434,7.972335 z"
           style="font-weight:bold;font-size:11.2889px;line-height:1.25;font-family:MOESongUN;-inkscape-font-specification:'MOESongUN Bold';letter-spacing:0px;word-spacing:0px;fill:#6a5753;fill-opacity:1;stroke-width:0.774638"
           id="path568-4-2-3" />
      </g>
      <g
         id="g4721-7-3"
         transform="matrix(0.27369711,0,0,0.27369711,444.65288,189.02622)">
        <rect
           style="fill:none;fill-opacity:0.6;stroke-width:0.0833395"
           id="rect233-7-8-4-1-4-7"
           width="29.229391"
           height="29.229391"
           x="131.17146"
           y="343.30396" />
        <path
           d="m 145.60043,350.76991 -9.01724,15.63612 q -0.24185,0.40903 -0.24185,0.66932 0,0.29746 0.31605,0.29746 0.0371,0 0.1673,0 0.14875,-0.0186 0.72509,-0.0372 9.68657,-0.42762 16.45418,-2.32403 0.85525,-0.24171 1.4502,-0.24171 1.15271,0 2.56575,1.02257 1.76625,1.28287 1.76625,2.28686 0,0.7251 -0.72509,0.7251 -0.2044,0 -1.46879,-0.33467 -1.72908,-0.44621 -4.79682,-0.44621 -4.20187,0 -11.39707,1.09694 -4.83399,0.7251 -6.74902,1.98938 -0.22296,0.13016 -0.39042,0.13016 -0.61355,0 -1.69192,-1.26427 -0.78087,-0.91103 -0.78087,-1.56176 0,-0.35325 0.46479,-0.85524 2.008,-2.13812 5.63349,-8.98008 3.47675,-6.50731 4.64808,-9.22179 0.96679,-2.21248 1.05975,-4.23904 0.0202,-0.52058 0.44621,-0.52058 0.9482,0 2.19391,1.28287 1.37583,1.41301 1.37583,2.49136 0,0.33467 -0.59496,0.70651 -0.7065,0.44622 -1.41303,1.6919 z"
           style="font-weight:bold;font-size:11.2889px;line-height:1.25;font-family:MOESongUN;-inkscape-font-specification:'MOESongUN Bold';letter-spacing:0px;word-spacing:0px;fill:#6a5753;fill-opacity:1;stroke-width:0.892428"
           id="path624-2-0-9" />
      </g>
    </g>
  </g>
</svg>
