<?xml version="1.0" encoding="UTF-8" standalone="no"?>
<svg
   xmlns:dc="http://purl.org/dc/elements/1.1/"
   xmlns:cc="http://creativecommons.org/ns#"
   xmlns:rdf="http://www.w3.org/1999/02/22-rdf-syntax-ns#"
   xmlns:svg="http://www.w3.org/2000/svg"
   xmlns="http://www.w3.org/2000/svg"
   xmlns:sodipodi="http://sodipodi.sourceforge.net/DTD/sodipodi-0.dtd"
   xmlns:inkscape="http://www.inkscape.org/namespaces/inkscape"
   width="24mm"
   height="24mm"
   viewBox="0 0 24 24"
   version="1.1"
   id="svg2457"
   inkscape:version="1.0.1 (3bc2e813f5, 2020-09-07)"
   sodipodi:docname="guileless_bopomofo_keyboard-tone-4.svg">
  <defs
     id="defs2451" />
  <sodipodi:namedview
     id="base"
     pagecolor="#ffffff"
     bordercolor="#666666"
     borderopacity="1.0"
     inkscape:pageopacity="0.0"
     inkscape:pageshadow="2"
     inkscape:zoom="0.35"
     inkscape:cx="-303.2171"
     inkscape:cy="482.49719"
     inkscape:document-units="mm"
     inkscape:current-layer="layer1"
     inkscape:document-rotation="0"
     showgrid="false"
     inkscape:window-width="1920"
     inkscape:window-height="1049"
     inkscape:window-x="1"
     inkscape:window-y="0"
     inkscape:window-maximized="1" />
  <metadata
     id="metadata2454">
    <rdf:RDF>
      <cc:Work
         rdf:about="">
        <dc:format>image/svg+xml</dc:format>
        <dc:type
           rdf:resource="http://purl.org/dc/dcmitype/StillImage" />
        <dc:title></dc:title>
      </cc:Work>
    </rdf:RDF>
  </metadata>
  <g
     inkscape:label="Layer 1"
     inkscape:groupmode="layer"
     id="layer1"
     transform="translate(-186.05952,-20.505952)">
    <g
       id="g4661"
       transform="matrix(0.82109133,0,0,0.82109133,45.531101,-74.296901)">
      <rect
         style="fill:none;fill-opacity:0.6;stroke-width:0.0833395"
         id="rect233-5-7"
         width="29.229391"
         height="29.229391"
         x="171.14835"
         y="115.45957" />
      <path
         d="m 190.98304,135.91827 -0.468,-0.408 q -0.156,-0.132 -0.444,-0.432 -2.652,-2.82 -5.532,-5.208 -2.904,-2.412 -4.08,-3.096 -0.6,-0.348 -0.6,-0.66 0,-0.432 0.912,-1.296 0.792,-0.744 1.26,-0.744 0.20401,0 0.588,0.336 0.216,0.17999 1.572,1.728 l 1.056,1.284 q 1.344,1.596 3.408,4.188 2.148,2.688 2.46,3.144 l 0.324,0.456 q 0.228,0.336 0.228,0.564 0,0.3 -0.3,0.3 -0.20401,0 -0.384,-0.156 z"
         style="font-weight:bold;font-size:11.2889px;line-height:1.25;font-family:MOESongUN;-inkscape-font-specification:'MOESongUN Bold';letter-spacing:0px;word-spacing:0px;fill:#6a5753;fill-opacity:1;stroke-width:0.575999"
         id="path634-9" />
    </g>
  </g>
</svg>
