<?xml version="1.0" encoding="UTF-8" standalone="no"?>
<svg
   width="28.574936mm"
   height="28.574928mm"
   viewBox="0 0 28.574936 28.574928"
   version="1.1"
   id="svg8"
   xmlns="http://www.w3.org/2000/svg"
   xmlns:svg="http://www.w3.org/2000/svg"
   xmlns:rdf="http://www.w3.org/1999/02/22-rdf-syntax-ns#"
   xmlns:cc="http://creativecommons.org/ns#"
   xmlns:dc="http://purl.org/dc/elements/1.1/">
  <defs
     id="defs2" />
  <metadata
     id="metadata5">
    <rdf:RDF>
      <cc:Work
         rdf:about="">
        <dc:format>image/svg+xml</dc:format>
        <dc:type
           rdf:resource="http://purl.org/dc/dcmitype/StillImage" />
        <dc:title>Guileless Bopomofo Keyboard</dc:title>
        <cc:license
           rdf:resource="http://creativecommons.org/licenses/by-nd/4.0/" />
        <dc:creator>
          <cc:Agent>
            <dc:title>YOU, HUI-HONG</dc:title>
          </cc:Agent>
        </dc:creator>
      </cc:Work>
      <cc:License
         rdf:about="http://creativecommons.org/licenses/by-nd/4.0/">
        <cc:permits
           rdf:resource="http://creativecommons.org/ns#Reproduction" />
        <cc:permits
           rdf:resource="http://creativecommons.org/ns#Distribution" />
        <cc:requires
           rdf:resource="http://creativecommons.org/ns#Notice" />
        <cc:requires
           rdf:resource="http://creativecommons.org/ns#Attribution" />
      </cc:License>
    </rdf:RDF>
  </metadata>
  <g
     id="layer6"
     transform="translate(-571.50005,-133.35002)">
    <g
       id="g31">
      <rect
         style="fill:#b3b3b3;fill-opacity:0.952941;stroke:none;stroke-width:1.97048"
         id="rect20270-5"
         width="28.574993"
         height="28.574993"
         x="419.10001"
         y="209.55" />
      <rect
         style="fill:#b3b3b3;fill-opacity:0.952941;stroke:none;stroke-width:1.97048"
         id="rect20270-5-6"
         width="28.574993"
         height="28.574993"
         x="457.20001"
         y="209.55" />
      <rect
         style="fill:#b3b3b3;fill-opacity:0.952941;stroke:none;stroke-width:1.97048"
         id="rect20270-50"
         width="28.574993"
         height="28.574993"
         x="876.30005"
         y="247.65001" />
      <rect
         style="fill:#b3b3b3;fill-opacity:0.952941;stroke:none;stroke-width:1.97048"
         id="rect20270-98"
         width="28.574993"
         height="28.574993"
         x="876.30005"
         y="209.55" />
      <rect
         style="fill:#b3b3b3;fill-opacity:0.952941;stroke:none;stroke-width:1.97048"
         id="rect20270-24"
         width="28.574993"
         height="28.574993"
         x="838.20001"
         y="247.64999" />
      <rect
         style="fill:#b3b3b3;fill-opacity:0.952941;stroke:none;stroke-width:1.97048"
         id="rect20270-01"
         width="28.574993"
         height="28.574993"
         x="838.20001"
         y="209.55" />
      <rect
         style="fill:#b3b3b3;fill-opacity:0.952941;stroke:none;stroke-width:1.97048"
         id="rect20270-00"
         width="28.574993"
         height="28.574993"
         x="800.10004"
         y="247.65001" />
      <rect
         style="fill:#b3b3b3;fill-opacity:0.952941;stroke:none;stroke-width:1.97048"
         id="rect20270-39"
         width="28.574993"
         height="28.574993"
         x="800.10004"
         y="209.55" />
      <rect
         style="fill:#b3b3b3;fill-opacity:0.952941;stroke:none;stroke-width:1.97048"
         id="rect20270-8"
         width="28.574993"
         height="28.574993"
         x="762"
         y="247.64999" />
      <rect
         style="fill:#b3b3b3;fill-opacity:0.952941;stroke:none;stroke-width:1.97048"
         id="rect20270-87"
         width="28.574993"
         height="28.574993"
         x="723.90002"
         y="247.64999" />
      <rect
         style="fill:#b3b3b3;fill-opacity:0.952941;stroke:none;stroke-width:1.97048"
         id="rect20270-10"
         width="28.574993"
         height="28.574993"
         x="685.79999"
         y="247.64999" />
      <rect
         style="fill:#b3b3b3;fill-opacity:0.952941;stroke:none;stroke-width:1.97048"
         id="rect20270-503"
         width="28.574993"
         height="28.574993"
         x="647.70001"
         y="247.65001" />
      <rect
         style="fill:#b3b3b3;fill-opacity:0.952941;stroke:none;stroke-width:1.97048"
         id="rect20270-80"
         width="28.574993"
         height="28.574993"
         x="609.60004"
         y="247.64999" />
      <rect
         style="fill:#b3b3b3;fill-opacity:0.952941;stroke:none;stroke-width:1.97048"
         id="rect20270-7"
         width="28.574993"
         height="28.574993"
         x="571.5"
         y="247.64999" />
      <rect
         style="fill:#b3b3b3;fill-opacity:0.952941;stroke:none;stroke-width:1.97048"
         id="rect20270-103"
         width="28.574993"
         height="28.574993"
         x="533.40002"
         y="247.64999" />
      <rect
         style="fill:#b3b3b3;fill-opacity:0.952941;stroke:none;stroke-width:1.97048"
         id="rect20270-94"
         width="28.574993"
         height="28.574993"
         x="495.30002"
         y="247.65001" />
      <rect
         style="fill:#b3b3b3;fill-opacity:0.952941;stroke:none;stroke-width:1.97048"
         id="rect20270-4"
         width="28.574993"
         height="28.574993"
         x="457.20001"
         y="247.64999" />
      <rect
         style="fill:#b3b3b3;fill-opacity:0.952941;stroke:none;stroke-width:1.97048"
         id="rect20270-92"
         width="28.574993"
         height="28.574993"
         x="419.10001"
         y="247.65001" />
      <rect
         style="fill:#b3b3b3;fill-opacity:0.952941;stroke:none;stroke-width:1.97048"
         id="rect20270-33"
         width="28.574993"
         height="28.574993"
         x="723.90002"
         y="209.55" />
      <rect
         style="fill:#b3b3b3;fill-opacity:0.952941;stroke:none;stroke-width:1.97048"
         id="rect20270-949"
         width="28.574993"
         height="28.574993"
         x="685.79999"
         y="209.55" />
      <rect
         style="fill:#b3b3b3;fill-opacity:0.952941;stroke:none;stroke-width:1.97048"
         id="rect20270-19"
         width="28.574993"
         height="28.574993"
         x="647.70001"
         y="209.55" />
      <rect
         style="fill:#b3b3b3;fill-opacity:0.952941;stroke:none;stroke-width:1.97048"
         id="rect20270-20"
         width="28.574993"
         height="28.574993"
         x="609.60004"
         y="209.55" />
      <rect
         style="fill:#b3b3b3;fill-opacity:0.952941;stroke:none;stroke-width:1.97048"
         id="rect20270-59"
         width="28.574993"
         height="28.574993"
         x="571.5"
         y="209.55" />
      <rect
         style="fill:#b3b3b3;fill-opacity:0.952941;stroke:none;stroke-width:1.97048"
         id="rect20270-61"
         width="28.574993"
         height="28.574993"
         x="533.40002"
         y="209.55" />
      <rect
         style="fill:#b3b3b3;fill-opacity:0.952941;stroke:none;stroke-width:1.97048"
         id="rect20270-43"
         width="28.574993"
         height="28.574993"
         x="762"
         y="209.55" />
      <rect
         style="fill:#b3b3b3;fill-opacity:0.952941;stroke:none;stroke-width:1.97048"
         id="rect20270-27"
         width="28.574993"
         height="28.574993"
         x="495.30002"
         y="209.55" />
      <g
         id="g119">
        <rect
           style="fill:none;fill-opacity:0.952941;stroke:none;stroke-width:1.97048"
           id="rect20270-1-6"
           width="28.574993"
           height="28.574993"
           x="876.29999"
           y="95.250008" />
        <g
           id="g50"
           transform="matrix(0.66666758,0,0,0.66666758,495.29947,-34.925218)">
          <rect
             style="fill:none;fill-opacity:0.952941;stroke:none;stroke-width:1.97048"
             id="rect20270-2-82"
             width="28.574993"
             height="28.574993"
             x="571.5"
             y="209.55" />
          <path
             d="m 588.63725,237.9279 h 2.27403 l -7.97352,-28.1808 h -2.27404 z"
             style="font-weight:500;font-size:28.7853px;line-height:1.25;font-family:'Noto Sans CJK TC';-inkscape-font-specification:'Noto Sans CJK TC Medium';fill:#6c5a57;fill-opacity:0.952941;stroke-width:0.599692"
             id="path40650-6" />
        </g>
        <g
           id="g118"
           transform="matrix(0.66666642,0,0,0.66666642,479.42514,-43.180462)">
          <rect
             style="fill:none;fill-opacity:0.952941;stroke:none;stroke-width:1.97048"
             id="rect20270-2-99"
             width="28.574993"
             height="28.574993"
             x="609.60004"
             y="209.55" />
          <path
             d="m 622.76491,240.02923 h 2.24525 v -32.38346 h -2.24525 z"
             style="font-weight:500;font-size:28.7853px;line-height:1.25;font-family:'Noto Sans CJK TC';-inkscape-font-specification:'Noto Sans CJK TC Medium';fill:#6c5a57;fill-opacity:0.952941;stroke-width:0.599692"
             id="path40656-7" />
        </g>
      </g>
      <g
         id="g127">
        <rect
           style="fill:none;fill-opacity:0.952941;stroke:none;stroke-width:1.97048"
           id="rect20270-2"
           width="28.574993"
           height="28.574993"
           x="838.20001"
           y="57.149998" />
        <g
           id="g125"
           transform="matrix(0.66666671,0,0,0.66666671,558.79999,-73.025012)">
          <rect
             style="fill:none;fill-opacity:0.952941;stroke:none;stroke-width:1.97048"
             id="rect20270-2-96"
             width="28.574993"
             height="28.574993"
             x="419.10001"
             y="209.55" />
          <path
             d="m 429.58784,225.06088 h 7.59932 v -2.44676 h -7.59932 z"
             style="font-weight:500;font-size:28.7853px;line-height:1.25;font-family:'Noto Sans CJK TC';-inkscape-font-specification:'Noto Sans CJK TC Medium';fill:#6c5a57;fill-opacity:0.952941;stroke-width:0.599692"
             id="path40638-3" />
        </g>
        <g
           id="g124"
           transform="matrix(0.6666667,0,0,0.6666667,542.925,-82.550006)">
          <rect
             style="fill:none;fill-opacity:0.952941;stroke:none;stroke-width:1.97048"
             id="rect20270-2-0"
             width="28.574993"
             height="28.574993"
             x="457.20001"
             y="209.55" />
          <path
             d="m 463.78744,224.87377 h 15.40013 v -2.07255 h -15.40013 z"
             style="font-weight:500;font-size:28.7853px;line-height:1.25;font-family:'Noto Sans CJK TC';-inkscape-font-specification:'Noto Sans CJK TC Medium';fill:#6c5a57;fill-opacity:0.952941;stroke-width:0.599692"
             id="path40640-5" />
        </g>
      </g>
      <g
         id="g126">
        <rect
           style="fill:none;fill-opacity:0.952941;stroke:none;stroke-width:1.97048"
           id="rect20270-1"
           width="28.574993"
           height="28.574993"
           x="876.29999"
           y="57.149998" />
        <g
           id="g123"
           transform="matrix(0.66666671,0,0,0.66666671,546.09997,-73.025012)">
          <rect
             style="fill:none;fill-opacity:0.952941;stroke:none;stroke-width:1.97048"
             id="rect20270-2-90"
             width="28.574993"
             height="28.574993"
             x="495.30002"
             y="209.55" />
          <path
             d="m 502.47754,221.46271 h 14.21994 v -2.38918 h -14.21994 z m 0,7.13876 h 14.21994 v -2.41797 h -14.21994 z"
             style="font-weight:500;font-size:28.7853px;line-height:1.25;font-family:'Noto Sans CJK TC';-inkscape-font-specification:'Noto Sans CJK TC Medium';fill:#6c5a57;fill-opacity:0.952941;stroke-width:0.599692"
             id="path40642-6" />
        </g>
        <g
           id="g122"
           transform="matrix(0.66666705,0,0,0.66666705,530.22475,-82.550089)">
          <rect
             style="fill:none;fill-opacity:0.952941;stroke:none;stroke-width:1.97048"
             id="rect20270-2-3"
             width="28.574993"
             height="28.574993"
             x="533.40002"
             y="209.55" />
          <path
             d="m 546.39218,231.2785 h 2.56189 v -6.21763 h 5.84342 v -2.41796 h -5.84342 v -6.24641 h -2.56189 v 6.24641 h -5.81463 v 2.41796 h 5.81463 z"
             style="font-weight:500;font-size:28.7853px;line-height:1.25;font-family:'Noto Sans CJK TC';-inkscape-font-specification:'Noto Sans CJK TC Medium';fill:#6c5a57;fill-opacity:0.952941;stroke-width:0.599692"
             id="path40644-2" />
        </g>
      </g>
      <g
         id="g46">
        <rect
           style="fill:none;fill-opacity:0.952941;stroke:none;stroke-width:1.97048"
           id="rect20270-1-0-3"
           width="28.574993"
           height="28.574993"
           x="762"
           y="171.45" />
        <g
           id="g28"
           transform="matrix(0.67981413,0,0,0.67981413,253.13096,3.0940396)">
          <rect
             style="fill:none;fill-opacity:0.952941;stroke:none;stroke-width:1.97048"
             id="rect20270-2-9-2"
             width="28.574993"
             height="28.574993"
             x="762"
             y="247.64999" />
          <path
             d="m 774.44524,266.01061 h 2.90732 c -0.48935,-4.3178 4.63443,-5.8722 4.63443,-10.01729 0,-3.39666 -2.30282,-5.29649 -5.6707,-5.29649 -2.38918,0 -4.3178,1.15141 -5.72828,2.76339 l 1.87105,1.69833 c 0.9787,-1.06506 2.13011,-1.7559 3.48302,-1.7559 1.81347,0 2.82096,1.20898 2.82096,2.79217 0,3.1376 -5.00864,4.97986 -4.3178,9.81579 z m 1.49684,7.16754 c 1.26655,0 2.24525,-1.00749 2.24525,-2.3604 0,-1.35291 -0.9787,-2.33161 -2.24525,-2.33161 -1.26656,0 -2.21647,0.9787 -2.21647,2.33161 0,1.35291 0.94991,2.3604 2.21647,2.3604 z"
             style="font-weight:500;font-size:28.7853px;line-height:1.25;font-family:'Noto Sans CJK TC';-inkscape-font-specification:'Noto Sans CJK TC Medium';fill:#6c5a57;fill-opacity:0.952941;stroke-width:0.599692"
             id="path40676-6" />
        </g>
        <g
           id="g30"
           transform="matrix(0.66666652,0,0,0.66666652,279.40009,15.875038)">
          <rect
             style="fill:none;fill-opacity:0.952941;stroke:none;stroke-width:1.97048"
             id="rect20270-2-93-0"
             width="28.574993"
             height="28.574993"
             x="723.90002"
             y="247.64999" />
          <path
             d="m 733.04935,276.0279 h 2.33161 l 7.94474,-28.18081 h -2.27404 z"
             style="font-weight:500;font-size:28.7853px;line-height:1.25;font-family:'Noto Sans CJK TC';-inkscape-font-specification:'Noto Sans CJK TC Medium';fill:#6c5a57;fill-opacity:0.952941;stroke-width:0.599692"
             id="path40670-7" />
        </g>
      </g>
      <g
         id="g49">
        <rect
           style="fill:none;fill-opacity:0.952941;stroke:none;stroke-width:1.97048"
           id="rect20270-1-0"
           width="28.574993"
           height="28.574993"
           x="723.89996"
           y="171.45001" />
        <g
           id="g48"
           transform="matrix(0.66666682,0,0,0.66666682,276.22492,6.3499659)">
          <rect
             style="fill:none;fill-opacity:0.952941;stroke:none;stroke-width:1.97048"
             id="rect20270-2-7-7"
             width="28.574993"
             height="28.574993"
             x="685.79999"
             y="247.64999" />
          <path
             d="m 692.97751,268.73082 14.21994,-5.55557 v -2.50432 l -14.21994,-5.52677 v 2.79217 l 6.47669,2.33161 4.37537,1.61198 v 0.11514 l -4.37537,1.58319 -6.47669,2.33161 z"
             style="font-weight:500;font-size:28.7853px;line-height:1.25;font-family:'Noto Sans CJK TC';-inkscape-font-specification:'Noto Sans CJK TC Medium';fill:#6c5a57;fill-opacity:0.952941;stroke-width:0.599692"
             id="path40674-0" />
        </g>
        <g
           id="g47"
           transform="matrix(0.66666659,0,0,0.66666659,292.10006,15.875021)">
          <rect
             style="fill:none;fill-opacity:0.952941;stroke:none;stroke-width:1.97048"
             id="rect20270-2-8-3"
             width="28.574993"
             height="28.574993"
             x="647.70001"
             y="247.64999" />
          <path
             d="m 661.97312,264.2835 c 1.26655,0 2.24525,-1.00749 2.24525,-2.3604 0,-1.35291 -0.9787,-2.33161 -2.24525,-2.33161 -1.23777,0 -2.21647,0.9787 -2.21647,2.33161 0,1.35291 0.9787,2.3604 2.21647,2.3604 z"
             style="font-weight:500;font-size:28.7853px;line-height:1.25;font-family:'Noto Sans CJK TC';-inkscape-font-specification:'Noto Sans CJK TC Medium';fill:#6c5a57;fill-opacity:0.952941;stroke-width:0.599692"
             id="path40668-6" />
        </g>
      </g>
      <g
         id="g53">
        <rect
           style="fill:none;fill-opacity:0.952941;stroke:none;stroke-width:1.97048"
           id="rect20270-1-79"
           width="28.574993"
           height="28.574993"
           x="685.79999"
           y="171.45001" />
        <g
           id="g51"
           transform="matrix(0.66666705,0,0,0.66666705,279.39975,15.874908)">
          <rect
             style="fill:none;fill-opacity:0.952941;stroke:none;stroke-width:1.97048"
             id="rect20270-2-99-1"
             width="28.574993"
             height="28.574993"
             x="609.60004"
             y="247.64999" />
          <path
             d="m 621.90135,266.96053 c 2.99367,-1.12262 4.72079,-3.45423 4.72079,-6.47669 0,-2.21647 -0.92113,-3.56938 -2.56189,-3.56938 -1.26656,0 -2.30283,0.83478 -2.30283,2.13012 0,1.3529 1.03627,2.13011 2.21647,2.13011 l 0.31664,-0.0288 c 0,1.72712 -1.1802,3.13759 -3.1376,3.94358 z"
             style="font-weight:500;font-size:28.7853px;line-height:1.25;font-family:'Noto Sans CJK TC';-inkscape-font-specification:'Noto Sans CJK TC Medium';fill:#6c5a57;fill-opacity:0.952941;stroke-width:0.599692"
             id="path40666-6" />
        </g>
        <g
           id="g52"
           transform="matrix(0.66666661,0,0,0.66666661,314.32505,6.3500168)">
          <rect
             style="fill:none;fill-opacity:0.952941;stroke:none;stroke-width:1.97048"
             id="rect20270-2-82-1"
             width="28.574993"
             height="28.574993"
             x="571.5"
             y="247.64999" />
          <path
             d="m 592.89746,268.73082 v -2.82096 l -6.47669,-2.33161 -4.34658,-1.58319 v -0.11514 l 4.34658,-1.61198 6.47669,-2.33161 v -2.79217 l -14.21993,5.52677 v 2.50432 z"
             style="font-weight:500;font-size:28.7853px;line-height:1.25;font-family:'Noto Sans CJK TC';-inkscape-font-specification:'Noto Sans CJK TC Medium';fill:#6c5a57;fill-opacity:0.952941;stroke-width:0.599692"
             id="path40672-7" />
        </g>
      </g>
      <g
         id="g60">
        <rect
           style="fill:none;fill-opacity:0.952941;stroke:none;stroke-width:1.97048"
           id="rect20270-1-1"
           width="28.574993"
           height="28.574993"
           x="800.09998"
           y="133.35001" />
        <g
           id="g59"
           transform="matrix(0.66666676,0,0,0.66666676,520.69997,-22.22502)">
          <rect
             style="fill:none;fill-opacity:0.952941;stroke:none;stroke-width:1.97048"
             id="rect20270-2-96-5"
             width="28.574993"
             height="28.574993"
             x="419.10001"
             y="247.64999" />
          <path
             d="m 432.42317,266.49996 h 1.9574 l 0.63328,-5.72827 0.0864,-3.39667 h -3.4255 l 0.0864,3.39667 z"
             style="font-weight:500;font-size:28.7853px;line-height:1.25;font-family:'Noto Sans CJK TC';-inkscape-font-specification:'Noto Sans CJK TC Medium';fill:#6c5a57;fill-opacity:0.952941;stroke-width:0.599692"
             id="path40660-2" />
        </g>
        <g
           id="g57"
           transform="matrix(0.66666665,0,0,0.66666665,504.82502,-31.749988)">
          <rect
             style="fill:none;fill-opacity:0.952941;stroke:none;stroke-width:1.97048"
             id="rect20270-2-0-6"
             width="28.574993"
             height="28.574993"
             x="457.20001"
             y="247.64999" />
          <path
             d="m 467.35677,266.49996 h 1.95741 l 0.63327,-5.72827 0.0864,-3.39667 h -3.42545 l 0.0864,3.39667 z m 6.33277,0 h 1.92861 l 0.66207,-5.72827 0.0864,-3.39667 h -3.45424 l 0.11514,3.39667 z"
             style="font-weight:500;font-size:28.7853px;line-height:1.25;font-family:'Noto Sans CJK TC';-inkscape-font-specification:'Noto Sans CJK TC Medium';fill:#6c5a57;fill-opacity:0.952941;stroke-width:0.599692"
             id="path40664-9" />
        </g>
      </g>
      <g
         id="g56">
        <rect
           style="fill:none;fill-opacity:0.952941;stroke:none;stroke-width:1.97048"
           id="rect20270-1-62"
           width="28.574993"
           height="28.574993"
           x="762"
           y="133.35001" />
        <g
           id="g54"
           transform="matrix(0.66666673,0,0,0.66666673,406.39997,-22.225014)">
          <rect
             style="fill:none;fill-opacity:0.952941;stroke:none;stroke-width:1.97048"
             id="rect20270-2-3-9"
             width="28.574993"
             height="28.574993"
             x="533.40002"
             y="247.64999" />
          <path
             d="m 547.71631,255.92137 c 1.26655,0 2.24525,-0.94992 2.24525,-2.30283 0,-1.38169 -0.9787,-2.36039 -2.24525,-2.36039 -1.23777,0 -2.21647,0.9787 -2.21647,2.36039 0,1.35291 0.9787,2.30283 2.21647,2.30283 z m -2.01497,16.69547 c 2.99367,-1.12263 4.72079,-3.45424 4.72079,-6.47669 0,-2.21647 -0.92113,-3.56938 -2.56189,-3.56938 -1.26656,0 -2.30283,0.83477 -2.30283,2.13011 0,1.35291 1.03627,2.13011 2.21647,2.13011 l 0.31664,-0.0288 c 0,1.72712 -1.1802,3.1376 -3.1376,3.94358 z"
             style="font-weight:500;font-size:28.7853px;line-height:1.25;font-family:'Noto Sans CJK TC';-inkscape-font-specification:'Noto Sans CJK TC Medium';fill:#6c5a57;fill-opacity:0.952941;stroke-width:0.599692"
             id="path40658-3" />
        </g>
        <g
           id="g55"
           transform="matrix(0.66666665,0,0,0.66666665,441.32499,-31.749988)">
          <rect
             style="fill:none;fill-opacity:0.952941;stroke:none;stroke-width:1.97048"
             id="rect20270-2-90-0"
             width="28.574993"
             height="28.574993"
             x="495.30005"
             y="247.64999" />
          <path
             d="m 509.57316,258.5984 c 1.26655,0 2.24525,-0.94992 2.24525,-2.30283 0,-1.38169 -0.9787,-2.36039 -2.24525,-2.36039 -1.23777,0 -2.21647,0.9787 -2.21647,2.36039 0,1.35291 0.9787,2.30283 2.21647,2.30283 z m 0,11.3414 c 1.26655,0 2.24525,-1.00748 2.24525,-2.36039 0,-1.35291 -0.9787,-2.33161 -2.24525,-2.33161 -1.23777,0 -2.21647,0.9787 -2.21647,2.33161 0,1.35291 0.9787,2.36039 2.21647,2.36039 z"
             style="font-weight:500;font-size:28.7853px;line-height:1.25;font-family:'Noto Sans CJK TC';-inkscape-font-specification:'Noto Sans CJK TC Medium';fill:#6c5a57;fill-opacity:0.952941;stroke-width:0.599692"
             id="path40662-5" />
        </g>
      </g>
      <g
         id="g116">
        <rect
           style="fill:none;fill-opacity:0.952941;stroke:none;stroke-width:1.97048"
           id="rect20270-1-7"
           width="28.574993"
           height="28.574993"
           x="800.10004"
           y="95.25" />
        <g
           id="g61"
           transform="matrix(0.66666672,0,0,0.66666672,377.82498,-34.925014)">
          <rect
             style="fill:none;fill-opacity:0.952941;stroke:none;stroke-width:1.97048"
             id="rect20270-2-8"
             width="28.574993"
             height="28.574993"
             x="647.70001"
             y="209.55" />
          <path
             d="m 658.93627,237.76958 h 6.10248 v -1.84226 h -3.62694 v -24.17965 h 3.62694 v -1.84226 h -6.10248 z"
             style="font-weight:500;font-size:28.7853px;line-height:1.25;font-family:'Noto Sans CJK TC';-inkscape-font-specification:'Noto Sans CJK TC Medium';fill:#6c5a57;fill-opacity:0.952941;stroke-width:0.599692"
             id="path40646-2" />
        </g>
        <g
           id="g64"
           transform="matrix(0.66666669,0,0,0.66666669,342.9,-44.450004)">
          <rect
             style="fill:none;fill-opacity:0.952941;stroke:none;stroke-width:1.97048"
             id="rect20270-2-7"
             width="28.574993"
             height="28.574993"
             x="685.79999"
             y="209.55" />
          <path
             d="m 702.44788,237.76958 h 1.64076 v -1.84226 h -0.7772 c -1.64076,0 -2.04375,-0.74842 -2.04375,-2.7346 0,-1.89983 0.14392,-3.56938 0.14392,-5.67071 0,-2.18768 -0.60449,-3.22395 -2.10133,-3.59816 v -0.14392 c 1.49684,-0.37421 2.10133,-1.3817 2.10133,-3.59817 0,-2.13011 -0.14392,-3.79966 -0.14392,-5.69949 0,-1.98618 0.40299,-2.7346 2.04375,-2.7346 h 0.7772 v -1.84226 h -1.64076 c -2.64824,0 -3.9148,1.03627 -3.9148,4.43294 0,2.33161 0.28785,3.85723 0.28785,6.01613 0,1.20898 -0.5757,2.41796 -2.7346,2.47553 v 2.01497 c 2.1589,0.0288 2.7346,1.26656 2.7346,2.50432 0,2.13012 -0.28785,3.68452 -0.28785,6.01613 0,3.39667 1.26656,4.40415 3.9148,4.40415 z"
             style="font-weight:500;font-size:28.7853px;line-height:1.25;font-family:'Noto Sans CJK TC';-inkscape-font-specification:'Noto Sans CJK TC Medium';fill:#6c5a57;fill-opacity:0.952941;stroke-width:0.599692"
             id="path40652-0" />
        </g>
      </g>
      <g
         id="g117">
        <rect
           style="fill:none;fill-opacity:0.952941;stroke:none;stroke-width:1.97048"
           id="rect20270-1-9"
           width="28.574993"
           height="28.574993"
           x="838.20001"
           y="95.250008" />
        <g
           id="g114"
           transform="matrix(0.66666671,0,0,0.66666671,355.59997,-34.925011)">
          <rect
             style="fill:none;fill-opacity:0.952941;stroke:none;stroke-width:1.97048"
             id="rect20270-2-93"
             width="28.574993"
             height="28.574993"
             x="723.90002"
             y="209.55" />
          <path
             d="m 735.13628,237.76958 h 6.10249 v -27.86417 h -6.10249 v 1.84226 h 3.59817 v 24.17965 h -3.59817 z"
             style="font-weight:500;font-size:28.7853px;line-height:1.25;font-family:'Noto Sans CJK TC';-inkscape-font-specification:'Noto Sans CJK TC Medium';fill:#6c5a57;fill-opacity:0.952941;stroke-width:0.599692"
             id="path40648-7" />
        </g>
        <g
           id="g115"
           transform="matrix(0.66666669,0,0,0.66666669,339.72499,-44.450004)">
          <rect
             style="fill:none;fill-opacity:0.952941;stroke:none;stroke-width:1.97048"
             id="rect20270-2-9"
             width="28.574993"
             height="28.574993"
             x="762"
             y="209.55" />
          <path
             d="m 772.28634,237.76958 h 1.64077 c 2.64824,0 3.88601,-1.00748 3.88601,-4.40415 0,-2.33161 -0.28785,-3.88601 -0.28785,-6.01613 0,-1.23776 0.60449,-2.47553 2.76339,-2.50432 v -2.01497 c -2.1589,-0.0576 -2.76339,-1.26655 -2.76339,-2.47553 0,-2.1589 0.28785,-3.68452 0.28785,-6.01613 0,-3.39667 -1.23777,-4.43294 -3.88601,-4.43294 h -1.64077 v 1.84226 h 0.74842 c 1.64077,0 2.07254,0.74842 2.07254,2.7346 0,1.89983 -0.14392,3.56938 -0.14392,5.69949 0,2.21647 0.5757,3.22396 2.07254,3.59817 v 0.14392 c -1.49684,0.37421 -2.07254,1.41048 -2.07254,3.59816 0,2.10133 0.14392,3.77088 0.14392,5.67071 0,1.98618 -0.43177,2.7346 -2.07254,2.7346 h -0.74842 z"
             style="font-weight:500;font-size:28.7853px;line-height:1.25;font-family:'Noto Sans CJK TC';-inkscape-font-specification:'Noto Sans CJK TC Medium';fill:#6c5a57;fill-opacity:0.952941;stroke-width:0.599692"
             id="path40654-9" />
        </g>
      </g>
      <g
         id="g146">
        <rect
           style="fill:none;fill-opacity:0.952941;stroke:none;stroke-width:1.97048"
           id="rect20270-6-3-8-5-9-9-9-7-4"
           width="28.57489"
           height="28.57489"
           x="647.70007"
           y="171.45003" />
        <path
           d="m 672.9685,195.26247 h -6.74914 v -0.78921 q 0.54428,-0.21772 1.08857,-0.35379 0.54428,-0.16328 1.11578,-0.29936 v -12.24643 l 0.10886,-3.18407 h -0.21772 l -0.89806,2.91193 -5.57893,13.96093 h -0.70758 l -5.30678,-13.96093 -0.97971,-3.18407 h -0.24493 l 0.0272,3.45621 v 12.24643 q 0.51707,0.10886 1.03415,0.27214 0.51707,0.16329 1.03414,0.38101 v 0.78921 h -5.68779 v -0.78921 q 0.51707,-0.21772 1.06136,-0.38101 0.5715,-0.1905 1.143,-0.29936 v -16.11085 q -0.5715,-0.10885 -1.143,-0.27214 -0.54429,-0.1905 -1.08857,-0.40822 v -0.78921 h 5.57892 l 4.73529,12.43693 0.92529,2.80307 h 0.0272 l 0.92528,-2.8575 4.89858,-12.3825 h 4.92578 v 0.78921 q -0.48985,0.21772 -1.00693,0.40822 -0.51707,0.16329 -1.06136,0.27214 v 16.16528 q 0.5715,0.10887 1.06136,0.27215 0.51708,0.13607 0.97972,0.35379 z"
           id="text195-2"
           style="font-size:28.7853px;line-height:1.25;font-family:'PT Serif';-inkscape-font-specification:'PT Serif';fill:#6c5a57;fill-opacity:0.952941;stroke-width:0.566963"
           aria-label="M" />
      </g>
      <g
         id="g145">
        <rect
           style="fill:none;fill-opacity:0.952941;stroke:none;stroke-width:1.97048"
           id="rect20270-6-3-8-5-8-6-8-9-3-63"
           width="28.57489"
           height="28.57489"
           x="609.6001"
           y="171.45003" />
        <path
           d="m 627.12498,176.21247 h 5.77922 v 0.77591 q -1.12374,0.74916 -2.19396,1.07023 v 17.20386 h -1.52507 l -9.71229,-14.74235 -1.04347,-2.08693 h -0.0803 l 0.24081,2.08693 v 12.70892 q 1.09698,0.29432 2.06018,0.93645 v 0.77591 h -5.77921 v -0.77591 q 0.4816,-0.29431 1.01671,-0.50835 0.56187,-0.2408 1.17725,-0.4281 v -15.33097 q -0.53512,-0.21404 -1.07023,-0.45484 -0.50835,-0.2408 -0.9632,-0.4816 v -0.74916 h 4.5217 l 8.42802,12.70892 1.23076,2.30098 h 0.10702 l -0.13378,-2.30098 v -10.86278 q -0.56186,-0.2408 -1.09698,-0.50835 -0.50836,-0.26757 -0.9632,-0.56188 z"
           id="text196-6"
           style="font-size:28.7853px;line-height:1.25;font-family:'PT Serif';-inkscape-font-specification:'PT Serif';fill:#6c5a57;fill-opacity:0.952941;stroke-width:0.557407"
           aria-label="N" />
      </g>
      <g
         id="g144">
        <rect
           style="fill:none;fill-opacity:0.952941;stroke:none;stroke-width:1.97048"
           id="rect20270-6-3-8-5-0-4-8-0-0"
           width="28.57489"
           height="28.57489"
           x="571.50006"
           y="171.45003" />
        <path
           d="m 578.64376,195.11947 v -0.77737 q 1.07224,-0.50931 2.19808,-0.64334 v -15.89584 q -0.53612,-0.10722 -1.09904,-0.26806 -0.56292,-0.18763 -1.09904,-0.40209 v -0.77736 h 2.84142 q 0.50931,0 0.96501,-0.0268 0.4825,-0.0268 0.99181,-0.0536 0.50931,-0.0268 1.09904,-0.0536 0.58973,-0.0268 1.34029,-0.0268 1.07224,0 2.17127,0.18764 1.12585,0.16084 2.01043,0.64334 0.9114,0.4825 1.47432,1.36709 0.56292,0.85779 0.56292,2.25169 0,0.69696 -0.21444,1.3939 -0.21445,0.69695 -0.67014,1.31348 -0.4289,0.58974 -1.09904,1.04543 -0.67015,0.4557 -1.58154,0.67015 v 0.10722 q 0.80417,0.13403 1.58154,0.4557 0.80417,0.32167 1.4207,0.88459 0.61653,0.53611 0.99182,1.34029 0.40209,0.80417 0.40209,1.93002 0,1.44751 -0.64334,2.49294 -0.64335,1.04542 -1.68877,1.71557 -1.01862,0.67015 -2.3321,0.99181 -1.31348,0.29487 -2.65378,0.29487 -0.9382,0 -2.11766,-0.0805 -1.17945,-0.0805 -2.27849,-0.0805 z m 7.15715,-1.23306 q 0.96501,0 1.79599,-0.29487 0.85778,-0.29487 1.44751,-0.80417 0.61654,-0.53612 0.96501,-1.25988 0.34848,-0.75056 0.34848,-1.60835 0,-1.07223 -0.4289,-1.76918 -0.40208,-0.72376 -1.12584,-1.12584 -0.69695,-0.4289 -1.63515,-0.58973 -0.9114,-0.16084 -1.90322,-0.16084 h -2.01042 v 7.3984 q 0.37527,0.10722 0.88458,0.16084 0.53612,0.0536 1.66196,0.0536 z m -1.20626,-9.00675 q 0.4557,0 1.07223,-0.0268 0.64334,-0.0536 1.04543,-0.10723 1.23306,-0.42889 2.01044,-1.36709 0.80417,-0.96501 0.80417,-2.25169 0,-1.76919 -1.07224,-2.65377 -1.04542,-0.8846 -2.8146,-0.8846 -0.83098,0 -1.42071,0.0268 -0.58973,0.0268 -0.965,0.0805 v 7.18395 z"
           id="text197-5"
           style="font-size:28.7853px;line-height:1.25;font-family:'PT Serif';-inkscape-font-specification:'PT Serif';fill:#6c5a57;fill-opacity:0.952941;stroke-width:0.558453"
           aria-label="B" />
      </g>
      <g
         id="g143">
        <rect
           style="fill:none;fill-opacity:0.952941;stroke:none;stroke-width:1.97048"
           id="rect20270-6-3-8-5-8-6-8-9-3-9"
           width="28.57489"
           height="28.57489"
           x="533.40009"
           y="171.45003" />
        <path
           d="m 553.11892,177.65728 q -0.64213,-0.13378 -1.204,-0.29432 -0.56187,-0.18729 -1.09698,-0.37458 v -0.77591 h 6.02002 v 0.77591 q -0.77592,0.42809 -1.9264,0.6689 l -6.04678,17.28412 -1.47155,0.32107 -6.8227,-17.60519 q -0.5351,-0.13378 -1.04346,-0.29432 -0.50835,-0.18729 -0.98996,-0.37458 v -0.77591 h 7.09024 v 0.77591 q -0.45484,0.18729 -1.01671,0.37458 -0.56187,0.16054 -1.17725,0.29432 l 4.57521,12.22731 0.56187,2.14045 h 0.0535 l 0.53511,-2.19396 z"
           id="text198-3"
           style="font-size:28.7853px;line-height:1.25;font-family:'PT Serif';-inkscape-font-specification:'PT Serif';fill:#6c5a57;fill-opacity:0.952941;stroke-width:0.557407"
           aria-label="V" />
      </g>
      <g
         id="g142">
        <rect
           style="fill:none;fill-opacity:0.952941;stroke:none;stroke-width:1.97048"
           id="rect20270-6-3-8-5-0-4-8-0-2"
           width="28.57489"
           height="28.57489"
           x="495.30011"
           y="171.45003" />
        <path
           d="m 515.59114,190.15794 h 0.68411 q 0.13156,0.73673 0.23681,1.86816 0.10524,1.10511 0.0526,2.1576 -0.39468,0.31574 -0.94724,0.52624 -0.55255,0.18418 -1.18405,0.31575 -0.60518,0.13155 -1.26298,0.18418 -0.63149,0.0526 -1.21035,0.0526 -2.21023,0 -3.94683,-0.55256 -1.73661,-0.57886 -2.94696,-1.7366 -1.18405,-1.15773 -1.84185,-2.94696 -0.6315,-1.81554 -0.6315,-4.28888 0,-2.57859 0.71043,-4.36782 0.71043,-1.81554 1.92079,-2.94696 1.21036,-1.15774 2.8154,-1.68398 1.60504,-0.52624 3.36796,-0.52624 1.7366,0 2.92064,0.2368 1.18405,0.21051 2.07867,0.65781 0,0.42099 -0.0263,0.99986 -0.0263,0.55256 -0.079,1.18405 -0.0527,0.63149 -0.13156,1.23667 -0.0789,0.60518 -0.15787,1.10511 h -0.68412 l -1.36823,-3.78895 q -0.28943,-0.15788 -0.97355,-0.2105 -0.6578,-0.0526 -1.3156,-0.0526 -1.31562,0 -2.49967,0.49993 -1.15773,0.47362 -2.05234,1.49979 -0.8683,0.99987 -1.39454,2.55229 -0.52625,1.5261 -0.52625,3.60477 0,1.86815 0.47362,3.39426 0.47362,1.49979 1.36824,2.57859 0.89461,1.05249 2.18391,1.63136 1.28928,0.55255 2.92064,0.55255 0.86831,0 1.44717,-0.13156 0.57887,-0.13156 0.76306,-0.34206 z"
           id="text199-5"
           style="font-size:28.7853px;line-height:1.25;font-family:'PT Serif';-inkscape-font-specification:'PT Serif';fill:#6c5a57;fill-opacity:0.952941;stroke-width:0.548168"
           aria-label="C" />
      </g>
      <g
         id="g141">
        <rect
           style="fill:none;fill-opacity:0.952941;stroke:none;stroke-width:1.97048"
           id="rect20270-6-3-8-5-8-4-0-2-9"
           width="28.57489"
           height="28.57489"
           x="457.20013"
           y="171.45003" />
        <path
           d="m 473.10683,176.21247 h 6.25928 v 0.78921 q -0.46264,0.1905 -0.97971,0.38101 -0.51707,0.16328 -1.06136,0.29935 l -4.78971,7.37507 5.57893,8.763 q 1.30628,0.21771 2.23157,0.65315 v 0.78921 h -7.239 v -0.78921 q 0.97971,-0.48986 2.06828,-0.65315 l -4.29985,-6.83078 -4.13657,6.85799 q 0.5715,0.0817 1.11578,0.21772 0.54428,0.10886 1.06136,0.40822 v 0.78921 h -6.2865 v -0.78921 q 0.51707,-0.27215 1.00693,-0.40822 0.51707,-0.13607 1.00692,-0.24493 l 5.33401,-8.13707 -5.11629,-8.001 q -0.54428,-0.16329 -1.08857,-0.32657 -0.51707,-0.16329 -1.06135,-0.35379 v -0.78921 h 7.21178 v 0.78921 q -0.40822,0.16329 -0.92529,0.32658 -0.48986,0.16328 -1.143,0.35378 l 3.81,6.15043 3.70114,-6.15043 q -1.11578,-0.24493 -2.25878,-0.68036 z"
           id="text200-7"
           style="font-size:28.7853px;line-height:1.25;font-family:'PT Serif';-inkscape-font-specification:'PT Serif';fill:#6c5a57;fill-opacity:0.952941;stroke-width:0.566963"
           aria-label="X" />
      </g>
      <g
         id="g140">
        <rect
           style="fill:none;fill-opacity:0.952941;stroke:none;stroke-width:1.97048"
           id="rect20270-6-3-8-5-9-9-9-7"
           width="28.57489"
           height="28.57489"
           x="419.1001"
           y="171.45003" />
        <path
           d="m 439.59914,190.03732 h 0.70756 q 0.0817,0.54429 0.13608,1.22465 0.0817,0.68035 0.10885,1.38793 0.0545,0.70757 0.0545,1.38792 0.0272,0.68036 0,1.22465 h -14.45078 v -1.38793 l 11.32114,-16.24692 h -8.382 l -1.66007,3.80999 h -0.68035 q -0.0817,-0.57149 -0.1633,-1.25186 -0.0545,-0.68035 -0.10885,-1.38793 -0.0272,-0.70756 -0.0545,-1.36071 0,-0.68035 0,-1.22464 h 13.9065 v 1.41515 l -11.26671,16.2197 h 8.87185 z"
           id="text201-6"
           style="font-size:28.7853px;line-height:1.25;font-family:'PT Serif';-inkscape-font-specification:'PT Serif';fill:#6c5a57;fill-opacity:0.952941;stroke-width:0.566963"
           aria-label="Z" />
      </g>
      <g
         id="g139">
        <rect
           style="fill:none;fill-opacity:0.952941;stroke:none;stroke-width:1.97048"
           id="rect20270-6-3-8-3-2-0-7-2-0"
           width="28.574926"
           height="28.574926"
           x="723.90009"
           y="133.35001" />
        <path
           d="m 731.32329,138.10379 h 7.4635 v 0.78993 q -0.65374,0.24515 -1.30748,0.43583 -0.65373,0.16343 -1.30747,0.24514 v 16.18001 h 6.26499 l 1.6071,-4.38548 h 0.70822 q 0.0818,0.57202 0.1362,1.33471 0.0817,0.73545 0.10895,1.55263 0.0545,0.78993 0.0545,1.55262 0,0.7627 -0.0272,1.36196 h -13.70125 v -0.78994 q 0.65373,-0.29962 1.19851,-0.43582 0.54479,-0.1362 1.03509,-0.21791 v -16.15278 q -0.6265,-0.10895 -1.19852,-0.27238 -0.57202,-0.19068 -1.03508,-0.40859 z"
           id="text202-7"
           style="font-size:28.7853px;line-height:1.25;font-family:'PT Serif';-inkscape-font-specification:'PT Serif';fill:#6c5a57;fill-opacity:0.952941;stroke-width:0.567479"
           aria-label="L" />
      </g>
      <g
         id="g138">
        <rect
           style="fill:none;fill-opacity:0.952941;stroke:none;stroke-width:1.97048"
           id="rect20270-6-3-8-59-59-1-1-5-8"
           width="28.574926"
           height="28.574926"
           x="685.80011"
           y="133.35001" />
        <path
           d="m 701.29861,138.11247 h 6.01436 v 0.78921 q -0.54428,0.24493 -1.06135,0.40822 -0.51708,0.16328 -1.00694,0.27214 l -5.47007,7.239 q 0.68036,0.89807 1.55122,2.01386 0.89807,1.11578 1.85057,2.31321 0.97971,1.17021 1.98664,2.39485 1.03414,1.19744 2.01386,2.28601 l 1.30628,0.65314 v 0.68036 h -3.40178 l -0.92529,-0.65315 q -1.60565,-1.87778 -3.21129,-4.05493 -1.57843,-2.17713 -3.07521,-4.40871 h -1.3335 v 7.67443 q 1.25186,0.21771 2.04107,0.65314 v 0.78922 h -6.88521 v -0.78922 q 1.08857,-0.43543 2.23157,-0.65314 v -16.13807 q -1.22464,-0.16329 -2.23157,-0.68036 v -0.78921 h 6.88521 v 0.78921 q -0.43542,0.1905 -0.95249,0.38101 -0.51708,0.16328 -1.08858,0.29935 v 7.53835 l 1.63286,-0.38099 5.08907,-7.15736 q -0.54428,-0.13607 -1.03414,-0.29935 -0.48986,-0.1633 -0.92529,-0.38101 z"
           id="text203-2"
           style="font-size:28.7853px;line-height:1.25;font-family:'PT Serif';-inkscape-font-specification:'PT Serif';fill:#6c5a57;fill-opacity:0.952941;stroke-width:0.566963"
           aria-label="K" />
      </g>
      <g
         id="g137">
        <rect
           style="fill:none;fill-opacity:0.952941;stroke:none;stroke-width:1.97048"
           id="rect20270-6-3-8-0-7-2-3-98"
           width="28.574926"
           height="28.574926"
           x="647.70007"
           y="133.35001" />
        <path
           d="m 658.93991,138.1125 h 6.56413 v 0.74944 q -0.46519,0.20675 -0.95619,0.38765 -0.49103,0.15506 -1.00788,0.25843 v 14.47209 q 0,1.80901 -0.41349,2.97195 -0.4135,1.16293 -1.03373,1.86069 -0.59439,0.7236 -1.29214,1.05957 -0.67193,0.33596 -1.24048,0.46518 l -0.28426,-0.38765 q 0.38765,-0.33596 0.69775,-0.77529 0.33597,-0.4135 0.56855,-1.05957 0.25844,-0.64607 0.38765,-1.57642 0.12922,-0.93035 0.12922,-2.27419 v -14.75636 q -0.56854,-0.1292 -1.11126,-0.28426 -0.54271,-0.15507 -1.00787,-0.36182 z"
           id="text204-1"
           style="font-size:28.7853px;line-height:1.25;font-family:'PT Serif';-inkscape-font-specification:'PT Serif';fill:#6c5a57;fill-opacity:0.952941;stroke-width:0.538394"
           aria-label="J" />
      </g>
      <g
         id="g136">
        <rect
           style="fill:none;fill-opacity:0.952941;stroke:none;stroke-width:1.97048"
           id="rect20270-6-3-8-59-7-4-7-9-9"
           width="28.574926"
           height="28.574926"
           x="609.6001"
           y="133.35001" />
        <path
           d="m 621.65599,157.16247 h -6.88521 v -0.78922 q 1.08857,-0.43543 2.23157,-0.65314 v -16.13807 q -1.27908,-0.1905 -2.23157,-0.68036 v -0.78921 h 6.88521 v 0.78921 q -0.46264,0.24493 -0.97971,0.40822 -0.51708,0.16328 -1.06136,0.27214 v 7.10293 h 8.54528 v -7.10293 q -0.5715,-0.13607 -1.08857,-0.29935 -0.48985,-0.1633 -0.95249,-0.38101 v -0.78921 h 6.88521 v 0.78921 q -0.48986,0.27215 -1.08858,0.43543 -0.5715,0.13607 -1.143,0.24493 v 16.13807 q 0.62593,0.10886 1.19743,0.27214 0.57151,0.16329 1.03415,0.381 v 0.78922 h -6.88521 v -0.78922 q 0.97971,-0.43543 2.04106,-0.65314 v -7.62 h -8.54528 v 7.62 q 0.54428,0.10886 1.06136,0.27214 0.51707,0.16329 0.97971,0.381 z"
           id="text205-9"
           style="font-size:28.7853px;line-height:1.25;font-family:'PT Serif';-inkscape-font-specification:'PT Serif';fill:#6c5a57;fill-opacity:0.952941;stroke-width:0.566963"
           aria-label="H" />
      </g>
      <g
         id="g135">
        <rect
           style="fill:none;fill-opacity:0.952941;stroke:none;stroke-width:1.97048"
           id="rect20270-6-3-8-3-2-0-7-5"
           width="28.574926"
           height="28.574926"
           x="571.50006"
           y="133.35001" />
        <path
           d="m 592.28665,155.58374 q -0.49994,0.28943 -1.18405,0.57887 -0.65781,0.26312 -1.42086,0.49993 -0.73674,0.21049 -1.4998,0.34206 -0.73674,0.15787 -1.39454,0.15787 -2.10497,0 -3.78895,-0.55256 -1.68398,-0.57887 -2.86803,-1.7366 -1.18404,-1.18405 -1.84185,-2.97327 -0.63149,-1.78923 -0.63149,-4.26258 0,-2.57859 0.73674,-4.39412 0.76305,-1.81554 1.99972,-2.94697 1.26299,-1.15773 2.84172,-1.65766 1.60504,-0.52624 3.26271,-0.52624 1.7366,0 2.92065,0.2368 1.21036,0.21051 2.10498,0.65781 0,0.39468 -0.0263,0.97355 -0.0263,0.57887 -0.079,1.21036 -0.0526,0.63149 -0.13155,1.26298 -0.079,0.60518 -0.15787,1.0788 h -0.68412 l -1.36824,-3.78895 q -0.28943,-0.15788 -0.97354,-0.2105 -0.68412,-0.0526 -1.34192,-0.0526 -1.31561,0 -2.49966,0.49993 -1.18405,0.47362 -2.07867,1.49979 -0.86829,0.99986 -1.39454,2.55229 -0.52624,1.5261 -0.52624,3.60476 0,1.86816 0.49993,3.36796 0.52624,1.49979 1.42085,2.57859 0.92093,1.05248 2.13129,1.63135 1.23667,0.57887 2.65753,0.57887 0.52624,0 1.02618,-0.10525 0.49993,-0.10525 0.92092,-0.23681 0.421,-0.15787 0.68412,-0.31575 0.28943,-0.15787 0.39468,-0.26312 v -5.31505 q -0.68412,-0.0526 -1.31561,-0.23681 -0.60518,-0.18418 -1.21036,-0.39469 v -0.76305 h 6.44648 v 0.76305 q -0.26312,0.18419 -0.63149,0.34206 -0.36837,0.15787 -0.99986,0.28944 z"
           id="text206-2"
           style="font-size:28.7853px;line-height:1.25;font-family:'PT Serif';-inkscape-font-specification:'PT Serif';fill:#6c5a57;fill-opacity:0.952941;stroke-width:0.548168"
           aria-label="G" />
      </g>
      <g
         id="g134">
        <rect
           style="fill:none;fill-opacity:0.952941;stroke:none;stroke-width:1.97048"
           id="rect20270-6-3-8-59-7-4-7-9-8"
           width="28.574926"
           height="28.574926"
           x="533.40009"
           y="133.34999" />
        <path
           d="m 545.87615,155.72746 q 1.19852,0.16343 2.34256,0.65373 v 0.78994 h -6.91873 v -0.78994 q 0.46306,-0.21791 0.95337,-0.38134 0.49031,-0.16344 1.00785,-0.27239 v -16.15279 q -0.59926,-0.13618 -1.08957,-0.29962 -0.4903,-0.19067 -0.87165,-0.38135 v -0.78993 h 12.77513 q -0.0272,1.06233 -0.10895,2.17912 -0.0545,1.11681 -0.19068,2.23361 h -0.70822 l -1.11679,-2.9963 h -6.07432 v 7.76314 h 4.71236 l 1.11681,-2.01569 h 0.62649 q 0.0545,0.62649 0.0818,1.33471 0.0273,0.68098 0.0273,1.38919 0,0.73547 -0.0273,1.44367 -0.0272,0.70822 -0.0818,1.33472 h -0.62649 l -1.11681,-2.09741 h -4.71236 z"
           id="text207-6"
           style="font-size:28.7853px;line-height:1.25;font-family:'PT Serif';-inkscape-font-specification:'PT Serif';fill:#6c5a57;fill-opacity:0.952941;stroke-width:0.567479"
           aria-label="F" />
      </g>
      <g
         id="g133">
        <rect
           style="fill:none;fill-opacity:0.952941;stroke:none;stroke-width:1.97048"
           id="rect20270-6-3-8-3-2-0-7-2"
           width="28.574926"
           height="28.574926"
           x="495.30011"
           y="133.34999" />
        <path
           d="m 501.25818,156.92337 v -0.7705 q 0.92992,-0.4251 2.17866,-0.63765 v -15.75545 q -0.61109,-0.13284 -1.16904,-0.29225 -0.55795,-0.18599 -1.00962,-0.37197 v -0.7705 h 2.71004 q 0.45167,0 1.06276,-0.0266 0.61109,-0.0266 1.24875,-0.0532 0.66422,-0.0532 1.24874,-0.0796 0.61109,-0.0532 1.00962,-0.0532 4.51674,0 6.93452,2.41778 2.44435,2.41778 2.44435,6.85481 0,2.09895 -0.61108,3.90564 -0.58453,1.78013 -1.8067,3.08202 -1.22217,1.30188 -3.10857,2.04581 -1.85984,0.74394 -4.41046,0.74394 -0.39854,0 -0.90335,-0.0532 -0.50481,-0.0266 -1.06276,-0.0797 -0.55795,-0.0266 -1.14247,-0.0798 -0.55795,-0.0266 -1.06276,-0.0266 z m 6.90795,-17.42929 q -0.6908,0 -1.32846,0.0266 -0.63765,0 -1.00962,0.0796 v 16.10084 q 0.13285,0.0266 0.47825,0.0532 0.3454,0 0.74393,0.0266 0.39853,0 0.74393,0 0.37197,0 0.53138,0 1.83327,0 3.10858,-0.69079 1.27531,-0.6908 2.07238,-1.83326 0.82365,-1.16905 1.19561,-2.68348 0.37197,-1.51443 0.37197,-3.18828 0,-1.30188 -0.37197,-2.68347 -0.3454,-1.40816 -1.16903,-2.55063 -0.79708,-1.16904 -2.12553,-1.91297 -1.32845,-0.74394 -3.24142,-0.74394 z"
           id="text208-5"
           style="font-size:28.7853px;line-height:1.25;font-family:'PT Serif';-inkscape-font-specification:'PT Serif';fill:#6c5a57;fill-opacity:0.952941;stroke-width:0.55352"
           aria-label="D" />
      </g>
      <g
         id="g132">
        <rect
           style="fill:none;fill-opacity:0.952941;stroke:none;stroke-width:1.97048"
           id="rect20270-6-3-8-59-59-1-1-5"
           width="28.574926"
           height="28.574926"
           x="457.20013"
           y="133.34999" />
        <path
           d="m 468.30389,155.03116 q 0.31574,0.31575 0.81567,0.55256 0.49993,0.2105 1.49979,0.2105 0.84199,0 1.57873,-0.2105 0.73675,-0.23681 1.26299,-0.6578 0.55256,-0.44731 0.8683,-1.05249 0.31574,-0.63149 0.31574,-1.42086 0,-1.05248 -0.6578,-1.76291 -0.63149,-0.71043 -1.60504,-1.26299 -0.94724,-0.55255 -2.07866,-1.07879 -1.13143,-0.52625 -2.10497,-1.23667 -0.94724,-0.73674 -1.60505,-1.73661 -0.63148,-1.02617 -0.63148,-2.55228 0,-1.10511 0.39467,-1.97341 0.39468,-0.8683 1.10512,-1.47348 0.73674,-0.60518 1.7366,-0.92093 0.99986,-0.34205 2.23653,-0.34205 1.60504,0 2.92066,0.26312 1.34192,0.23681 2.10497,0.60518 0,0.4473 -0.079,1.05248 -0.0527,0.57887 -0.15787,1.21037 -0.079,0.63148 -0.18419,1.23666 -0.10525,0.57887 -0.2105,1.02618 h -0.68411 l -1.05249,-3.60476 q -0.47361,-0.21051 -1.21035,-0.31576 -0.71043,-0.10524 -1.52611,-0.10524 -1.34192,0 -2.1576,0.76305 -0.81568,0.73674 -0.81568,2.07866 0,1.0788 0.6315,1.81554 0.6578,0.73674 1.63135,1.31561 0.97355,0.57887 2.07866,1.13142 1.13143,0.52625 2.10497,1.23667 0.97356,0.71043 1.60504,1.68398 0.65781,0.97356 0.65781,2.42072 0,1.18405 -0.4473,2.1576 -0.421,0.97355 -1.23668,1.65767 -0.81568,0.68411 -1.99972,1.05248 -1.18405,0.36837 -2.68385,0.36837 -1.65766,0 -2.97326,-0.39468 -1.31562,-0.39469 -1.86817,-0.84199 0.0263,-0.44731 0.079,-1.0788 0.0789,-0.63149 0.15787,-1.28929 0.10525,-0.68412 0.21049,-1.31561 0.10525,-0.6315 0.2105,-1.07881 h 0.68412 z"
           id="text209-3"
           style="font-size:28.7853px;line-height:1.25;font-family:'PT Serif';-inkscape-font-specification:'PT Serif';fill:#6c5a57;fill-opacity:0.952941;stroke-width:0.548168"
           aria-label="S" />
      </g>
      <g
         id="g131">
        <rect
           style="fill:none;fill-opacity:0.952941;stroke:none;stroke-width:1.97048"
           id="rect20270-6-3-8-0-7-2-3"
           width="28.574926"
           height="28.574926"
           x="419.1001"
           y="133.34999" />
        <path
           d="m 430.19027,157.16245 h -5.93975 v -0.77592 q 0.9632,-0.42809 1.9264,-0.64213 l 6.76917,-17.63195 h 0.77592 l 6.76917,17.63195 q 0.53511,0.10702 1.04348,0.2408 0.5351,0.13378 0.98995,0.40133 v 0.77592 h -6.84943 v -0.77592 q 0.5351,-0.21404 1.09697,-0.37457 0.56187,-0.16054 1.09698,-0.26756 l -1.81938,-4.89628 h -6.3946 l -1.76587,4.89628 q 1.12375,0.16053 2.30099,0.64213 z m 0,-7.70562 h 5.40464 l -2.1137,-5.67219 -0.50836,-2.30099 h -0.0535 l -0.66889,2.3545 z"
           id="text210-5"
           style="font-size:28.7853px;line-height:1.25;font-family:'PT Serif';-inkscape-font-specification:'PT Serif';fill:#6c5a57;fill-opacity:0.952941;stroke-width:0.557407"
           aria-label="A" />
      </g>
      <g
         id="g230">
        <rect
           style="fill:none;fill-opacity:0.952941;stroke:none;stroke-width:1.97048"
           id="rect20270-6-3-8-59-7-4-7-9-8-8-3"
           width="28.574926"
           height="28.574926"
           x="762.00006"
           y="95.25" />
        <path
           d="m 773.97353,117.6364 q 0.72648,0.0808 1.37225,0.26907 0.64576,0.16144 1.2108,0.37669 v 0.7803 h -7.37245 v -0.7803 q 0.53813,-0.26907 1.10317,-0.40361 0.56505,-0.13452 1.10318,-0.24215 v -15.95572 q -0.61885,-0.10763 -1.15699,-0.26906 -0.53813,-0.18835 -1.04936,-0.40361 v -0.78029 h 2.4216 q 1.07628,0 2.3409,-0.10762 1.26461,-0.10764 2.4216,-0.10764 1.31843,0 2.58305,0.29598 1.26462,0.26907 2.23327,0.94174 0.99555,0.67266 1.58749,1.80275 0.61887,1.10318 0.61887,2.7714 0,1.58749 -0.61887,2.71758 -0.61885,1.13009 -1.66821,1.85657 -1.02246,0.72648 -2.3409,1.07627 -1.31843,0.32288 -2.71758,0.32288 -0.13453,0 -0.43051,0 -0.26906,0 -0.59194,0 -0.32289,-0.0269 -0.61886,-0.0538 -0.29597,-0.0269 -0.43051,-0.0538 z m 1.82966,-16.22478 q -0.64576,0 -1.04937,0.0269 -0.4036,0.0269 -0.78029,0.10762 v 8.71779 q 0.13454,0.0538 0.37669,0.0808 0.26908,0 0.53814,0.0269 0.29598,0.0269 0.56504,0.0269 0.26908,0 0.43052,0 0.94173,0 1.77584,-0.24216 0.83411,-0.26907 1.45296,-0.83411 0.64577,-0.56504 1.02246,-1.42606 0.3767,-0.86101 0.3767,-2.07182 0,-2.20636 -1.26462,-3.30953 -1.23771,-1.10318 -3.44407,-1.10318 z"
           id="text211-6"
           style="font-size:28.7853px;line-height:1.25;font-family:'PT Serif';-inkscape-font-specification:'PT Serif';fill:#6c5a57;fill-opacity:0.952941;stroke-width:0.560556"
           aria-label="P" />
      </g>
      <g
         id="g229">
        <rect
           style="fill:none;fill-opacity:0.952941;stroke:none;stroke-width:1.97048"
           id="rect20270-6-3-8-3-2-0-7-2-8-6"
           width="28.574926"
           height="28.574926"
           x="723.90002"
           y="95.25" />
        <path
           d="m 729.84654,109.53746 q 0,-2.05235 0.55255,-3.78895 0.57887,-1.76292 1.63136,-3.02589 1.07879,-1.2893 2.63121,-1.99973 1.55242,-0.71043 3.52583,-0.71043 1.97341,0 3.52583,0.71043 1.55241,0.71043 2.6049,1.99973 1.0788,1.26297 1.63135,3.02589 0.57887,1.7366 0.57887,3.78895 0,2.05235 -0.57887,3.81526 -0.55255,1.7366 -1.63135,3.0259 -1.05249,1.26298 -2.6049,1.97341 -1.55242,0.71043 -3.52583,0.71043 -1.97341,0 -3.52583,-0.71043 -1.55242,-0.71043 -2.63121,-1.97341 -1.05249,-1.2893 -1.63136,-3.0259 -0.55255,-1.76291 -0.55255,-3.81526 z m 2.81539,0 q 0,1.68398 0.34206,3.18377 0.36838,1.47348 1.0788,2.57859 0.71043,1.10511 1.78923,1.76292 1.0788,0.63148 2.55228,0.63148 1.34192,0 2.34178,-0.63148 0.99986,-0.65781 1.63136,-1.76292 0.6578,-1.10511 0.97354,-2.57859 0.34206,-1.49979 0.34206,-3.18377 0,-1.68398 -0.34206,-3.15745 -0.34206,-1.4998 -1.05248,-2.60491 -0.71043,-1.10511 -1.78923,-1.7366 -1.0788,-0.6578 -2.55227,-0.6578 -1.44718,0 -2.47335,0.6578 -0.99986,0.63149 -1.63135,1.7366 -0.6315,1.10511 -0.92093,2.60491 -0.28944,1.47347 -0.28944,3.15745 z"
           id="text212-8"
           style="font-size:28.7853px;line-height:1.25;font-family:'PT Serif';-inkscape-font-specification:'PT Serif';fill:#6c5a57;fill-opacity:0.952941;stroke-width:0.548168"
           aria-label="O" />
      </g>
      <g
         id="g228">
        <rect
           style="fill:none;fill-opacity:0.952941;stroke:none;stroke-width:1.97048"
           id="rect20270-6-3-8-59-59-1-1-5-0-7"
           width="28.574926"
           height="28.574926"
           x="685.80005"
           y="95.25" />
        <path
           d="m 703.57094,119.06246 h -6.96685 v -0.78922 q 1.06135,-0.48985 2.17714,-0.65314 v -16.13807 q -0.54429,-0.10886 -1.08857,-0.27214 -0.54429,-0.19051 -1.08857,-0.40822 v -0.78921 h 6.96685 v 0.78921 q -0.48985,0.21771 -1.06135,0.40822 -0.57151,0.16328 -1.11579,0.27214 v 16.13807 q 0.5715,0.10886 1.143,0.27214 0.5715,0.16329 1.03414,0.381 z"
           id="text213-7"
           style="font-size:28.7853px;line-height:1.25;font-family:'PT Serif';-inkscape-font-specification:'PT Serif';fill:#6c5a57;fill-opacity:0.952941;stroke-width:0.566963"
           aria-label="I" />
      </g>
      <g
         id="g227">
        <rect
           style="fill:none;fill-opacity:0.952941;stroke:none;stroke-width:1.97048"
           id="rect20270-6-3-8-0-7-2-3-9-4"
           width="28.574926"
           height="28.574926"
           x="647.70001"
           y="95.25" />
        <path
           d="m 653.19378,99.975 h 6.85153 v 0.78226 q -0.51251,0.21579 -1.02503,0.37764 -0.51251,0.16185 -1.02503,0.29672 v 11.03258 q 0,1.42965 0.29672,2.40073 0.32369,0.94411 0.91714,1.53755 0.59343,0.56647 1.45661,0.83621 0.89017,0.24278 1.99612,0.24278 2.13099,0 3.31787,-1.15991 1.18688,-1.18688 1.18688,-3.88433 v -10.76284 q -0.62042,-0.21579 -1.15991,-0.43159 -0.53948,-0.24277 -0.97108,-0.48554 V 99.975 h 5.74557 v 0.78226 q -0.51251,0.29672 -1.05201,0.53949 -0.51251,0.24277 -1.052,0.37764 v 10.81679 q 0,1.72637 -0.45856,2.96719 -0.45857,1.24083 -1.29479,2.05006 -0.80923,0.80924 -1.99611,1.21386 -1.15991,0.37764 -2.58955,0.37764 -3.37182,0 -5.15214,-1.51057 -1.78031,-1.53754 -1.78031,-4.69356 v -11.46418 q -1.10596,-0.16185 -2.21192,-0.67436 z"
           id="text214-4"
           style="font-size:28.7853px;line-height:1.25;font-family:'PT Serif';-inkscape-font-specification:'PT Serif';fill:#6c5a57;fill-opacity:0.952941;stroke-width:0.561968"
           aria-label="U" />
      </g>
      <g
         id="g226">
        <rect
           style="fill:none;fill-opacity:0.952941;stroke:none;stroke-width:1.97048"
           id="rect20270-6-3-8-59-7-4-7-9-3-4"
           width="28.574926"
           height="28.574926"
           x="609.6001"
           y="95.25" />
        <path
           d="m 626.65336,100.04697 h 5.96545 v 0.78635 q -1.0304,0.5152 -2.06079,0.67789 l -5.12486,9.43626 v 6.64335 q 1.05751,0.13557 2.06079,0.65077 v 0.78636 h -6.88738 v -0.78636 q 0.97616,-0.48808 2.22348,-0.65077 v -6.61623 l -5.47737,-9.46338 q -0.62366,-0.10846 -1.16598,-0.27115 -0.51519,-0.18982 -1.03039,-0.40674 v -0.78635 h 7.18566 v 0.78635 q -0.40673,0.16269 -0.92193,0.35251 -0.5152,0.16269 -1.16598,0.32538 l 4.44698,7.97201 4.1758,-7.97201 q -0.62365,-0.13557 -1.19308,-0.29827 -0.54232,-0.18981 -1.0304,-0.37962 z"
           id="text215-2"
           style="font-size:28.7853px;line-height:1.25;font-family:'PT Serif';-inkscape-font-specification:'PT Serif';fill:#6c5a57;fill-opacity:0.952941;stroke-width:0.564908"
           aria-label="Y" />
      </g>
      <g
         id="g225">
        <rect
           style="fill:none;fill-opacity:0.952941;stroke:none;stroke-width:1.97048"
           id="rect20270-6-3-8-3-2-0-7-29-4"
           width="28.574926"
           height="28.574926"
           x="571.50006"
           y="95.25" />
        <path
           d="m 589.61119,119.06246 h -7.64721 v -0.78922 q 0.59871,-0.21771 1.19743,-0.381 0.62593,-0.16328 1.3335,-0.27214 v -16.1925 h -4.16379 l -1.44236,3.89164 h -0.68035 q -0.0816,-0.54429 -0.13608,-1.22464 -0.0545,-0.70758 -0.10886,-1.41514 -0.0272,-0.73479 -0.0545,-1.41515 -0.0272,-0.70757 -0.0272,-1.25185 h 15.8115 q 0,0.54428 -0.0272,1.22464 -0.0272,0.68036 -0.0817,1.41514 -0.0272,0.70758 -0.0817,1.41515 -0.0272,0.68035 -0.10885,1.25185 h -0.70758 l -1.41513,-3.89164 h -4.1638 v 16.1925 q 0.70758,0.13607 1.30629,0.27214 0.62593,0.13608 1.19743,0.381 z"
           id="text216-1"
           style="font-size:28.7853px;line-height:1.25;font-family:'PT Serif';-inkscape-font-specification:'PT Serif';fill:#6c5a57;fill-opacity:0.952941;stroke-width:0.566963"
           aria-label="T" />
      </g>
      <g
         id="g224">
        <rect
           style="fill:none;fill-opacity:0.952941;stroke:none;stroke-width:1.97048"
           id="rect20270-6-3-8-59-7-4-7-9-8-8"
           width="28.574926"
           height="28.574926"
           x="533.40009"
           y="95.25" />
        <path
           d="m 544.43182,117.6364 q 0.61886,0.13453 1.18391,0.29597 0.56504,0.13454 1.10317,0.34979 v 0.7803 h -7.07648 v -0.7803 q 0.59195,-0.26907 1.13008,-0.40361 0.53814,-0.13452 1.07627,-0.24215 v -15.95572 q -0.69957,-0.13453 -1.23771,-0.29598 -0.53814,-0.18834 -0.96864,-0.37669 v -0.78029 h 2.3678 q 1.07627,0 2.34089,-0.10762 1.29152,-0.10764 2.50232,-0.10764 1.31844,0 2.44852,0.29598 1.15699,0.29597 1.9911,0.94174 0.83411,0.64576 1.29153,1.64131 0.48431,0.99555 0.48431,2.3947 0,1.96419 -1.04935,3.25572 -1.02246,1.29153 -2.79831,1.85657 1.15699,1.82966 2.42161,3.63241 1.26461,1.80275 2.63686,3.5786 l 1.45297,0.78029 v 0.67268 h -3.25572 l -1.02246,-0.75339 q -0.75339,-0.94174 -1.37224,-1.82966 -0.61886,-0.91483 -1.15699,-1.82966 -0.53814,-0.94174 -1.02246,-1.88347 -0.45741,-0.96865 -0.94174,-2.04493 h -2.52924 z m 1.82966,-16.22478 q -0.64575,0 -1.07627,0.0269 -0.4036,0.0269 -0.75339,0.10762 v 8.04512 h 1.93729 q 1.85657,0 2.93284,-1.18389 1.10318,-1.18391 1.10318,-3.12119 0,-1.9911 -1.157,-2.93283 -1.15699,-0.94174 -2.98665,-0.94174 z"
           id="text217-8"
           style="font-size:28.7853px;line-height:1.25;font-family:'PT Serif';-inkscape-font-specification:'PT Serif';fill:#6c5a57;fill-opacity:0.952941;stroke-width:0.560556"
           aria-label="R" />
      </g>
      <g
         id="g223">
        <rect
           style="fill:none;fill-opacity:0.952941;stroke:none;stroke-width:1.97048"
           id="rect20270-6-3-8-3-2-0-7-2-8"
           width="28.574926"
           height="28.574926"
           x="495.30008"
           y="95.25" />
        <path
           d="m 515.7735,100.00382 q -0.0273,1.08955 -0.10896,2.20636 -0.0545,1.08955 -0.19067,2.20635 h -0.70822 l -1.11679,-2.99629 h -5.93811 v 7.21834 h 4.43996 l 1.06232,-2.0157 h 0.68097 q 0.16344,2.69667 0,5.50229 h -0.68097 l -1.06232,-2.07017 h -4.43996 v 7.59968 h 6.26497 l 1.33471,-3.26867 h 0.68098 q 0.19067,1.14403 0.27239,2.31531 0.0817,1.17127 0.0273,2.36979 h -13.42886 v -0.78994 q 0.95335,-0.43582 2.23359,-0.65373 v -16.15272 q -0.54478,-0.10896 -1.11679,-0.27239 -0.57203,-0.19067 -1.1168,-0.40858 v -0.78993 z"
           id="text218-2"
           style="font-size:28.7853px;line-height:1.25;font-family:'PT Serif';-inkscape-font-specification:'PT Serif';fill:#6c5a57;fill-opacity:0.952941;stroke-width:0.567477"
           aria-label="E" />
      </g>
      <g
         id="g222">
        <rect
           style="fill:none;fill-opacity:0.952941;stroke:none;stroke-width:1.97048"
           id="rect20270-6-3-8-59-59-1-1-5-0"
           width="28.574926"
           height="28.574926"
           x="457.2001"
           y="95.25" />
        <path
           d="m 480.43467,101.32461 q -0.57109,-0.0816 -1.14219,-0.24474 -0.5711,-0.19037 -1.19657,-0.43512 v -0.788657 h 6.09166 v 0.788657 q -0.92463,0.40791 -1.95805,0.67986 l -4.54155,17.56788 -1.68607,0.32634 -4.37837,-14.79401 -4.29679,14.46767 -1.65887,0.32634 -4.81351,-17.89422 q -0.54389,-0.13597 -1.06058,-0.29915 -0.51671,-0.16315 -1.00621,-0.38071 v -0.788657 h 7.07065 v 0.788657 q -0.5167,0.19036 -1.06059,0.38071 -0.54391,0.16318 -1.16937,0.29915 l 2.69227,10.95953 0.59829,3.53534 h 0.0545 l 0.95185,-3.58973 3.67129,-12.373657 h 0.92463 l 3.94325,12.373657 0.78864,3.53535 h 0.0545 l 0.62548,-3.58974 z"
           id="text219-9"
           style="font-size:28.7853px;line-height:1.25;font-family:'PT Serif';-inkscape-font-specification:'PT Serif';fill:#6c5a57;fill-opacity:0.952941;stroke-width:0.566558"
           aria-label="W" />
      </g>
      <g
         id="g221">
        <rect
           style="fill:none;fill-opacity:0.952941;stroke:none;stroke-width:1.97048"
           id="rect20270-6-3-8-0-7-2-3-9"
           width="28.574926"
           height="28.574926"
           x="419.10007"
           y="95.25" />
        <path
           d="m 442.91251,120.70838 q -1.0778,0.97002 -2.20948,1.64363 -1.13169,0.70055 -2.42504,0.67361 -1.10474,0 -2.31726,-0.40416 -1.21252,-0.40417 -2.5867,-0.97002 -1.37418,-0.56584 -2.93699,-1.18557 -1.53586,-0.61972 -3.34115,-1.07778 l 0.80835,-0.53889 q 0.59278,-0.0808 1.15862,-0.0808 1.34724,0 2.64059,0.32335 1.3203,0.32333 2.64058,0.70057 1.3203,0.37722 2.66755,0.70055 1.34724,0.32336 2.74838,0.32336 0.72749,0 1.48196,-0.10782 0.75446,-0.10782 1.53586,-0.37724 z m -19.05,-12.52934 q 0,-2.1017 0.56584,-3.88006 0.59278,-1.80531 1.67057,-3.09865 1.10475,-1.320306 2.69448,-2.047809 1.58976,-0.727522 3.61061,-0.727522 2.02087,0 3.61061,0.727522 1.58976,0.727503 2.66755,2.047809 1.10473,1.29334 1.67057,3.09865 0.59279,1.77836 0.59279,3.88006 0,2.1017 -0.59279,3.907 -0.56584,1.77835 -1.67057,3.09864 -1.07779,1.29335 -2.66755,2.02087 -1.58974,0.72751 -3.61061,0.72751 -2.02085,0 -3.61061,-0.72751 -1.58973,-0.72752 -2.69448,-2.02087 -1.07779,-1.32029 -1.67057,-3.09864 -0.56584,-1.8053 -0.56584,-3.907 z m 2.8831,0 q 0,1.72447 0.35028,3.26031 0.37721,1.50892 1.10474,2.6406 0.7275,1.13167 1.83225,1.80532 1.10472,0.64665 2.61364,0.64665 1.37419,0 2.39809,-0.64665 1.02391,-0.67365 1.67058,-1.80532 0.67361,-1.13168 0.99697,-2.6406 0.35026,-1.53584 0.35026,-3.26031 0,-1.72448 -0.35026,-3.23338 -0.35029,-1.53586 -1.07781,-2.66754 -0.7275,-1.13167 -1.83224,-1.77837 -1.10473,-0.67363 -2.61364,-0.67363 -1.48197,0 -2.53282,0.67363 -1.02391,0.6467 -1.67059,1.77837 -0.64667,1.13168 -0.94305,2.66754 -0.2964,1.5089 -0.2964,3.23338 z"
           id="text220-2"
           style="font-size:28.7853px;line-height:1.25;font-family:'PT Serif';-inkscape-font-specification:'PT Serif';fill:#6c5a57;fill-opacity:0.952941;stroke-width:0.561348"
           aria-label="Q" />
      </g>
      <g
         id="g18580">
        <rect
           style="fill:none;fill-opacity:0.952941;stroke:none;stroke-width:1.97048"
           id="rect20270-6-3-8-59-7-4-7-9-3-4-2"
           width="28.574926"
           height="28.574926"
           x="800.09998"
           y="57.150002" />
        <path
           d="m 821.85289,85.725 c 4.1163,0 6.82211,-3.7133 6.82211,-11.08234 0,-7.31146 -2.70581,-10.90963 -6.82211,-10.90963 -4.17387,0 -6.87969,3.56938 -6.87969,10.90963 0,7.36904 2.70582,11.08234 6.87969,11.08234 z m 0,-2.64824 c -2.1589,0 -3.68452,-2.33161 -3.68452,-8.4341 0,-6.0737 1.52562,-8.29016 3.68452,-8.29016 2.13011,0 3.65573,2.21646 3.65573,8.29016 0,6.10249 -1.52562,8.4341 -3.65573,8.4341 z"
           style="font-weight:500;font-size:28.7853px;line-height:1.25;font-family:'Noto Sans CJK TC';-inkscape-font-specification:'Noto Sans CJK TC Medium';fill:#6c5a57;fill-opacity:0.952941;stroke-width:0.599692"
           id="path40616-4" />
        <path
           d="m 803.02695,76.2 c 1.74873,-2.827737 2.77193,-5.822901 2.77193,-9.525003 0,-3.66489 -1.0232,-6.69726 -2.77193,-9.524997 l -1.33945,0.595313 c 1.5999,2.678904 2.34404,5.8229 2.34404,8.929684 0,3.12539 -0.74414,6.269386 -2.34404,8.92969 z"
           style="font-weight:500;font-size:28.7853px;line-height:1.25;font-family:'Noto Sans CJK TC';-inkscape-font-specification:'Noto Sans CJK TC Medium';fill:#6c5a57;fill-opacity:0.952941;stroke-width:0.387572"
           id="path40636-1" />
      </g>
      <g
         id="g18575">
        <rect
           style="fill:none;fill-opacity:0.952941;stroke:none;stroke-width:1.97048"
           id="rect20270-6-3-8-59-7-4-7-92-1-8"
           width="28.574926"
           height="28.574926"
           x="762.00006"
           y="57.149986" />
        <path
           d="m 782.71662,85.725 c 4.05872,0 7.85838,-3.39666 7.85838,-11.71561 0,-7.02362 -3.28152,-10.27636 -7.34025,-10.27636 -3.42545,0 -6.33276,2.76339 -6.33276,6.96605 0,4.43293 2.41796,6.67819 5.95855,6.67819 1.61198,0 3.39667,-0.94992 4.60565,-2.44675 -0.17271,5.98734 -2.33161,8.03109 -4.92228,8.03109 -1.32413,0 -2.61947,-0.60449 -3.45424,-1.58319 l -1.81347,2.07254 c 1.23776,1.26656 2.96488,2.27404 5.44042,2.27404 z m 4.72079,-13.35638 c -1.20899,1.84226 -2.70582,2.59068 -4.00116,2.59068 -2.21647,0 -3.42545,-1.58319 -3.42545,-4.26022 0,-2.76339 1.43926,-4.40415 3.28152,-4.40415 2.27404,0 3.82845,1.89983 4.14509,6.07369 z"
           style="font-weight:500;font-size:28.7853px;line-height:1.25;font-family:'Noto Sans CJK TC';-inkscape-font-specification:'Noto Sans CJK TC Medium';fill:#6c5a57;fill-opacity:0.952941;stroke-width:0.599692"
           id="path40614-4" />
        <path
           d="m 766.34083,76.2 1.33945,-0.595313 c -1.59991,-2.660304 -2.32544,-5.8043 -2.32544,-8.929691 0,-3.106783 0.72553,-6.250779 2.32544,-8.929683 L 766.34083,57.15 c -1.73014,2.827736 -2.75333,5.860108 -2.75333,9.524996 0,3.702104 1.02319,6.697268 2.75333,9.525004 z"
           style="font-weight:500;font-size:28.7853px;line-height:1.25;font-family:'Noto Sans CJK TC';-inkscape-font-specification:'Noto Sans CJK TC Medium';fill:#6c5a57;fill-opacity:0.952941;stroke-width:0.387572"
           id="path40634-3" />
      </g>
      <g
         id="g18570">
        <rect
           style="fill:none;fill-opacity:0.952941;stroke:none;stroke-width:1.97048"
           id="rect20270-6-3-8-3-2-0-8-9-2"
           width="28.574926"
           height="28.574926"
           x="723.90002"
           y="57.149986" />
        <path
           d="m 745.6241,85.725 c 4.1163,0 6.8509,-2.44675 6.8509,-5.58435 0,-2.87853 -1.66954,-4.54807 -3.56937,-5.61313 v -0.14393 c 1.32412,-0.9787 2.79217,-2.82095 2.79217,-4.97985 0,-3.31031 -2.30282,-5.61314 -5.95856,-5.61314 -3.48302,0 -6.07369,2.1589 -6.07369,5.46921 0,2.24526 1.26655,3.82845 2.82095,4.95107 v 0.14393 c -1.92861,1.03627 -3.77087,2.90731 -3.77087,5.69949 0,3.31031 2.9361,5.6707 6.90847,5.6707 z m 1.41048,-12.17618 c -2.38918,-0.92113 -4.40415,-1.98618 -4.40415,-4.28901 0,-1.89983 1.29534,-3.08003 3.02246,-3.08003 2.07254,0 3.25274,1.46805 3.25274,3.39667 0,1.43926 -0.63328,2.79217 -1.87105,3.97237 z m -1.32412,9.75822 c -2.30283,0 -4.05873,-1.46805 -4.05873,-3.59816 0,-1.81348 1.00749,-3.39667 2.47554,-4.40416 2.87853,1.1802 5.21014,2.1589 5.21014,4.72079 0,2.01497 -1.46805,3.28153 -3.62695,3.28153 z"
           style="font-weight:500;font-size:28.7853px;line-height:1.25;font-family:'Noto Sans CJK TC';-inkscape-font-specification:'Noto Sans CJK TC Medium';fill:#6c5a57;fill-opacity:0.952941;stroke-width:0.599692"
           id="path40612-7" />
        <path
           d="m 726.95821,67.838592 2.51318,-2.937098 2.51318,2.937098 1.57453,-1.150612 -1.96815,-3.270162 3.42155,-1.483686 -0.60557,-1.847045 -3.63353,0.847823 -0.33307,-3.78491 h -1.96816 l -0.33307,3.78491 -3.6335,-0.847823 -0.6056,1.847045 3.42156,1.483686 -1.93787,3.270162 z"
           style="font-weight:500;font-size:28.7853px;line-height:1.25;font-family:'Noto Sans CJK TC';-inkscape-font-specification:'Noto Sans CJK TC Medium';fill:#6c5a57;fill-opacity:0.952941;stroke-width:0.630817"
           id="path40632-4" />
      </g>
      <g
         id="g18565">
        <rect
           style="fill:none;fill-opacity:0.952941;stroke:none;stroke-width:1.97048"
           id="rect20270-6-3-8-59-59-1-6-1-9"
           width="28.574926"
           height="28.574926"
           x="685.80005"
           y="57.149986" />
        <path
           d="m 704.87585,85.725 h 3.39667 c 0.34542,-8.29017 1.15141,-12.95339 6.10248,-19.17101 v -2.04376 h -13.61544 v 2.82096 h 9.93092 c -4.08751,5.72828 -5.44042,10.65056 -5.81463,18.39381 z"
           style="font-weight:500;font-size:28.7853px;line-height:1.25;font-family:'Noto Sans CJK TC';-inkscape-font-specification:'Noto Sans CJK TC Medium';fill:#6c5a57;fill-opacity:0.952941;stroke-width:0.599692"
           id="path40610-4" />
        <path
           d="m 690.28578,71.986091 c 1.70887,0 3.10703,-0.621407 4.23334,-1.592359 1.16514,0.79618 2.34969,1.32049 3.39832,1.592359 L 698.5,70.121869 c -0.77676,-0.174772 -1.68945,-0.601991 -2.62156,-1.203976 1.12631,-1.47584 1.92248,-3.204127 2.46621,-5.029511 h -2.05841 c -0.42722,1.534099 -1.06804,2.854589 -1.90306,3.961468 -1.26223,-1.009789 -2.50504,-2.272019 -3.39832,-3.553671 1.57294,-1.106879 3.1653,-2.310856 3.1653,-4.1945 0,-1.747702 -1.14572,-2.951679 -3.02936,-2.951679 -2.11667,0 -3.49542,1.553515 -3.49542,3.495411 0,0.990367 0.34954,2.097247 0.93211,3.223549 -1.45642,0.970952 -2.75749,2.155506 -2.75749,4.097403 0,2.272019 1.72829,4.019728 4.48578,4.019728 z m 2.71866,-2.738076 c -0.75734,0.601985 -1.59236,0.970945 -2.44679,0.970945 -1.49526,0 -2.60214,-0.951523 -2.60214,-2.388532 0,-0.951529 0.64082,-1.708864 1.51467,-2.427369 0.97096,1.378749 2.21376,2.738076 3.53426,3.844956 z m -2.87401,-6.369422 c -0.38838,-0.79618 -0.62141,-1.553515 -0.62141,-2.252597 0,-1.126302 0.66025,-1.941897 1.6312,-1.941897 0.85443,0 1.22339,0.660245 1.22339,1.437002 0,1.16514 -1.00979,1.961312 -2.23318,2.757492 z"
           style="font-weight:500;font-size:28.7853px;line-height:1.25;font-family:'Noto Sans CJK TC';-inkscape-font-specification:'Noto Sans CJK TC Medium';fill:#6c5a57;fill-opacity:0.952941;stroke-width:0.404561"
           id="path40630-8" />
      </g>
      <g
         id="g18560">
        <rect
           style="fill:none;fill-opacity:0.952941;stroke:none;stroke-width:1.97048"
           id="rect20270-6-3-8-0-7-6-3-7"
           width="28.574926"
           height="28.574926"
           x="647.70001"
           y="57.149986" />
        <path
           d="m 669.94224,85.725 c 3.42545,0 6.33276,-2.76339 6.33276,-6.99482 0,-4.49051 -2.41796,-6.64941 -5.98734,-6.64941 -1.52562,0 -3.36788,0.92113 -4.60565,2.44675 0.14393,-6.01613 2.38918,-8.08867 5.095,-8.08867 1.23777,0 2.53311,0.66206 3.31031,1.58319 l 1.81348,-2.01497 c -1.20899,-1.26655 -2.93611,-2.27404 -5.2965,-2.27404 -4.17387,0 -8.00231,3.28153 -8.00231,11.39898 0,7.19633 3.28152,10.59299 7.34025,10.59299 z m -4.20266,-8.75073 c 1.26656,-1.81347 2.73461,-2.47553 3.97237,-2.47553 2.21647,0 3.45424,1.52562 3.45424,4.23144 0,2.76338 -1.43926,4.43293 -3.28152,4.43293 -2.27404,0 -3.79966,-1.98618 -4.14509,-6.18884 z"
           style="font-weight:500;font-size:28.7853px;line-height:1.25;font-family:'Noto Sans CJK TC';-inkscape-font-specification:'Noto Sans CJK TC Medium';fill:#6c5a57;fill-opacity:0.952941;stroke-width:0.599692"
           id="path40608-5" />
        <path
           d="m 647.7,66.675 h 2.13117 l 1.45702,-3.936131 1.17431,-3.261991 h 0.10874 l 1.15256,3.261991 1.45702,3.936131 h 2.13117 l -3.74041,-9.525 h -2.13117 z"
           style="font-weight:500;font-size:28.7853px;line-height:1.25;font-family:'Noto Sans CJK TC';-inkscape-font-specification:'Noto Sans CJK TC Medium';fill:#6c5a57;fill-opacity:0.952941;stroke-width:0.453053"
           id="path40628-8" />
      </g>
      <g
         id="g18555">
        <rect
           style="fill:none;fill-opacity:0.952941;stroke:none;stroke-width:1.97048"
           id="rect20270-6-3-8-59-7-4-7-92-11"
           width="28.574926"
           height="28.574926"
           x="609.6001"
           y="57.150002" />
        <path
           d="m 631.03625,85.725 c 3.7133,0 7.13875,-2.67703 7.13875,-7.36903 0,-4.63444 -2.90731,-6.73576 -6.4479,-6.73576 -1.12263,0 -1.98619,0.25906 -2.90732,0.71963 l 0.48935,-5.41164 h 7.85839 V 64.10724 H 626.4306 l -0.63328,10.07486 1.64076,1.06505 c 1.20899,-0.80598 2.01498,-1.18019 3.36788,-1.18019 2.41797,0 4.02995,1.61197 4.02995,4.37536 0,2.84975 -1.81348,4.51929 -4.17387,4.51929 -2.24526,0 -3.77088,-1.03627 -4.97986,-2.24525 l -1.58319,2.1589 c 1.49684,1.46805 3.59816,2.84974 6.93726,2.84974 z"
           style="font-weight:500;font-size:28.7853px;line-height:1.25;font-family:'Noto Sans CJK TC';-inkscape-font-specification:'Noto Sans CJK TC Medium';fill:#6c5a57;fill-opacity:0.952941;stroke-width:0.599692"
           id="path40606-2" />
        <path
           d="m 612.81656,65.845923 c 1.92619,0 3.23526,-1.589578 3.23526,-4.376014 0,-2.749035 -1.30907,-4.319909 -3.23526,-4.319909 -1.9262,0 -3.21656,1.570874 -3.21656,4.319909 0,2.786436 1.29036,4.376014 3.21656,4.376014 z m 0,-1.252958 c -0.95375,0 -1.64569,-0.991148 -1.64569,-3.123056 0,-2.113204 0.69194,-3.048247 1.64569,-3.048247 0.97245,0 1.64568,0.935043 1.64568,3.048247 0,2.131908 -0.67323,3.123056 -1.64568,3.123056 z m 0.43012,6.844535 h 1.36517 L 622.14831,57.15 h -1.36516 z m 9.35045,0 c 1.9075,0 3.21656,-1.608281 3.21656,-4.376014 0,-2.767739 -1.30906,-4.338613 -3.21656,-4.338613 -1.90749,0 -3.21655,1.570874 -3.21655,4.338613 0,2.767733 1.30906,4.376014 3.21655,4.376014 z m 0,-1.290366 c -0.95374,0 -1.64568,-0.972444 -1.64568,-3.085648 0,-2.131908 0.69194,-3.066951 1.64568,-3.066951 0.95375,0 1.66438,0.935043 1.66438,3.066951 0,2.113204 -0.71063,3.085648 -1.66438,3.085648 z"
           style="font-weight:500;font-size:28.7853px;line-height:1.25;font-family:'Noto Sans CJK TC';-inkscape-font-specification:'Noto Sans CJK TC Medium';fill:#6c5a57;fill-opacity:0.952941;stroke-width:0.389601"
           id="path40626-6" />
      </g>
      <g
         id="g18550">
        <rect
           style="fill:none;fill-opacity:0.952941;stroke:none;stroke-width:1.97048"
           id="rect20270-6-3-8-3-2-0-8-8"
           width="28.574926"
           height="28.574926"
           x="571.5"
           y="57.149986" />
        <path
           d="m 594.28915,85.725 h 3.10881 v -5.69949 h 2.67704 v -2.59068 h -2.67704 v -12.9246 h -3.85723 l -8.43409,13.29881 v 2.21647 h 9.18251 z m 0,-8.29017 h -5.81463 l 4.14509,-6.36155 c 0.60449,-1.09384 1.18019,-2.18768 1.69833,-3.28152 h 0.11514 c -0.0576,1.18019 -0.14393,2.96488 -0.14393,4.1163 z"
           style="font-weight:500;font-size:28.7853px;line-height:1.25;font-family:'Noto Sans CJK TC';-inkscape-font-specification:'Noto Sans CJK TC Medium';fill:#6c5a57;fill-opacity:0.952941;stroke-width:0.599692"
           id="path40604-5" />
        <path
           d="m 574.39311,71.4375 h 1.18691 v -1.676514 c 1.63201,-0.281893 2.58155,-1.4243 2.58155,-3.011802 0,-3.45689 -4.58447,-2.952451 -4.58447,-5.118576 0,-0.905022 0.59346,-1.439134 1.54299,-1.439134 0.84568,0 1.36496,0.326399 1.97325,0.905022 l 0.87535,-0.99404 c -0.62313,-0.652807 -1.32044,-1.17208 -2.38867,-1.290775 V 57.15 h -1.18691 v 1.691358 c -1.49848,0.237381 -2.46285,1.335277 -2.46285,2.878268 0,3.160164 4.58446,2.744743 4.58446,5.148248 0,0.949534 -0.56378,1.528157 -1.72103,1.528157 -0.9347,0 -1.7507,-0.43026 -2.50736,-1.05339 L 571.5,68.499888 c 0.74182,0.682474 1.85456,1.186914 2.89311,1.305604 z"
           style="font-weight:500;font-size:28.7853px;line-height:1.25;font-family:'Noto Sans CJK TC';-inkscape-font-specification:'Noto Sans CJK TC Medium';fill:#6c5a57;fill-opacity:0.952941;stroke-width:0.309092"
           id="path40624-8" />
      </g>
      <g
         id="g18545">
        <rect
           style="fill:none;fill-opacity:0.952941;stroke:none;stroke-width:1.97048"
           id="rect20270-6-3-8-59-7-4-7-92-1"
           width="28.574926"
           height="28.574926"
           x="533.40002"
           y="57.150002" />
        <path
           d="m 554.89381,85.725 c 3.88602,0 7.08119,-2.27404 7.08119,-6.10248 0,-2.84975 -1.92862,-4.692 -4.34658,-5.32528 V 74.1821 c 2.24525,-0.83478 3.65573,-2.53311 3.65573,-4.97986 0,-3.48302 -2.70582,-5.46921 -6.50548,-5.46921 -2.44675,0 -4.37536,1.06506 -6.07369,2.5619 l 1.72711,2.07254 c 1.23777,-1.1802 2.59068,-1.9574 4.23144,-1.9574 2.01497,0 3.25274,1.15141 3.25274,3.02245 0,2.13012 -1.38169,3.68452 -5.55556,3.68452 v 2.47554 c 4.77836,0 6.24641,1.52562 6.24641,3.85723 0,2.21647 -1.61198,3.5118 -4.00116,3.5118 -2.18768,0 -3.74209,-1.06505 -5.00864,-2.30282 l -1.61198,2.13011 c 1.43927,1.58319 3.56938,2.9361 6.90847,2.9361 z"
           style="font-weight:500;font-size:28.7853px;line-height:1.25;font-family:'Noto Sans CJK TC';-inkscape-font-specification:'Noto Sans CJK TC Medium';fill:#6c5a57;fill-opacity:0.952941;stroke-width:0.599692"
           id="path40602-4" />
        <path
           d="m 534.59225,71.4375 h 1.38771 l 0.54726,-4.378108 h 2.69724 l -0.52772,4.378108 h 1.40724 l 0.52773,-4.378108 h 2.05224 v -1.504977 h -1.87633 l 0.39089,-2.990408 h 1.93497 v -1.524526 h -1.75906 L 541.8435,57.15 h -1.3877 l -0.48863,3.889481 h -2.71678 L 537.73903,57.15 h -1.38771 l -0.48863,3.889481 h -2.01315 v 1.524526 h 1.81769 l -0.37135,2.990408 H 533.4 v 1.504977 h 1.71997 z m 2.09133,-5.883085 0.37137,-2.990408 h 2.71677 l -0.37136,2.990408 z"
           style="font-weight:500;font-size:28.7853px;line-height:1.25;font-family:'Noto Sans CJK TC';-inkscape-font-specification:'Noto Sans CJK TC Medium';fill:#6c5a57;fill-opacity:0.952941;stroke-width:0.40719"
           id="path40622-7" />
      </g>
      <g
         id="g18540">
        <rect
           style="fill:none;fill-opacity:0.952941;stroke:none;stroke-width:1.97048"
           id="rect20270-6-3-8-3-2-0-8-9"
           width="28.574926"
           height="28.574926"
           x="495.30008"
           y="57.150002" />
        <path
           d="m 510.1732,85.725 h 13.7018 v -2.84975 h -5.32528 c -1.03627,0 -2.3604,0.11515 -3.45424,0.23029 4.49051,-4.28901 7.77203,-8.52045 7.77203,-12.60796 0,-3.82845 -2.50432,-6.36156 -6.39033,-6.36156 -2.79218,0 -4.66322,1.1802 -6.4767,3.16639 l 1.87105,1.84226 c 1.15141,-1.32413 2.5331,-2.33161 4.17387,-2.33161 2.38918,0 3.56937,1.5544 3.56937,3.85723 0,3.48302 -3.19517,7.59932 -9.44157,13.12609 z"
           style="font-weight:500;font-size:28.7853px;line-height:1.25;font-family:'Noto Sans CJK TC';-inkscape-font-specification:'Noto Sans CJK TC Medium';fill:#6c5a57;fill-opacity:0.952941;stroke-width:0.599692"
           id="path40600-7" />
        <path
           d="m 501.63267,71.4375 c 1.23222,0 2.32406,-0.280756 3.3691,-0.889068 l -0.45233,-1.029449 c -0.74869,0.436736 -1.76254,0.748687 -2.7764,0.748687 -2.91677,0 -5.20963,-1.856127 -5.20963,-5.28762 0,-4.039805 3.02596,-6.675821 6.09871,-6.675821 3.27552,0 4.85088,2.121289 4.85088,4.866484 0,2.152483 -1.20102,3.462694 -2.29286,3.462694 -0.90467,0 -1.21662,-0.608313 -0.90467,-1.887323 l 0.7331,-3.618669 h -1.15423 l -0.21837,0.717493 h -0.0312 c -0.31196,-0.577112 -0.79549,-0.857873 -1.3882,-0.857873 -2.0277,0 -3.4315,2.199278 -3.4315,4.148991 0,1.590966 0.93587,2.542424 2.18369,2.542424 0.76428,0 1.59096,-0.530322 2.13688,-1.201019 h 0.0312 c 0.14038,0.889068 0.90467,1.325805 1.87173,1.325805 1.66895,0 3.66546,-1.590966 3.66546,-4.710508 0,-3.525084 -2.29287,-5.942728 -5.89594,-5.942728 -4.0398,0 -7.51809,3.119542 -7.51809,7.89244 0,4.211382 2.86998,6.39506 6.33267,6.39506 z m -0.24957,-4.960069 c -0.6707,0 -1.15423,-0.421142 -1.15423,-1.450591 0,-1.232214 0.79549,-2.823186 2.0745,-2.823186 0.43673,0 0.73309,0.187176 1.02945,0.670703 l -0.48353,2.636015 c -0.56152,0.686298 -1.02945,0.967059 -1.46619,0.967059 z"
           style="font-weight:500;font-size:28.7853px;line-height:1.25;font-family:'Noto Sans CJK TC';-inkscape-font-specification:'Noto Sans CJK TC Medium';fill:#6c5a57;fill-opacity:0.952941;stroke-width:0.324951"
           id="path40620-0" />
      </g>
      <g
         id="g18535">
        <rect
           style="fill:none;fill-opacity:0.952941;stroke:none;stroke-width:1.97048"
           id="rect20270-6-3-8-59-59-1-6-1"
           width="28.574926"
           height="28.574926"
           x="457.2001"
           y="57.150002" />
        <path
           d="M 473.65639,85.725 H 485.775 v -2.7346 h -4.1163 V 64.51023 h -2.50432 c -1.23777,0.77721 -2.64824,1.29534 -4.63443,1.64077 v 2.10132 h 3.79966 V 82.9904 h -4.66322 z"
           style="font-weight:500;font-size:28.7853px;line-height:1.25;font-family:'Noto Sans CJK TC';-inkscape-font-specification:'Noto Sans CJK TC Medium';fill:#6c5a57;fill-opacity:0.952941;stroke-width:0.599692"
           id="path40598-3" />
        <path
           d="m 457.90693,66.805224 h 1.43247 l 0.31626,-7.422806 0.0558,-2.232418 h -2.17661 l 0.0744,2.232418 z m 0.70694,4.632276 c 0.81855,0 1.45107,-0.651126 1.45107,-1.525492 0,-0.874366 -0.63252,-1.506885 -1.45107,-1.506885 -0.79995,0 -1.41387,0.632519 -1.41387,1.506885 0,0.874366 0.61392,1.525492 1.41387,1.525492 z"
           style="font-weight:500;font-size:28.7853px;line-height:1.25;font-family:'Noto Sans CJK TC';-inkscape-font-specification:'Noto Sans CJK TC Medium';fill:#6c5a57;fill-opacity:0.952941;stroke-width:0.387572"
           id="path40618-3" />
      </g>
      <g
         id="g18358">
        <rect
           style="fill:none;fill-opacity:0.952941;stroke:none;stroke-width:1.97048"
           id="rect20270-6-3-8-0-7-6-3"
           width="28.574926"
           height="28.574926"
           x="419.10007"
           y="57.150002" />
        <path
           d="m 439.73337,75.455345 c -0.14033,-0.0036 -0.31844,0.0089 -0.53433,0.03772 -0.26866,0.01916 -0.55648,0.05764 -0.86352,0.115239 -0.30704,0.05757 -0.59485,0.134524 -0.86351,0.230477 -0.24947,0.07676 -0.4316,0.162952 -0.54674,0.258899 v 0.575675 l 5.3542,4.289144 0.63304,-0.489376 -3.05098,-5.00848 c -0.0384,-0.0048 -0.0814,-0.0081 -0.12816,-0.0093 z"
           style="font-size:28.7853px;line-height:1.25;font-family:'PT Serif';-inkscape-font-specification:'PT Serif';baseline-shift:baseline;display:inline;overflow:visible;vector-effect:none;fill:#6c5a57;fill-opacity:0.952941;enable-background:accumulate;stop-color:#000000;stop-opacity:1"
           id="path137" />
        <path
           d="m 427.66228,61.9125 c -0.57571,0 -1.18006,0.201106 -1.81333,0.604098 -0.63328,0.383805 -1.2956,1.093832 -1.98644,2.130102 l 0.43201,0.690914 c 0.44138,-0.594891 0.87335,-1.007364 1.29553,-1.23765 0.44138,-0.23028 0.87283,-0.345199 1.29501,-0.345199 0.46056,0 0.92127,0.105167 1.38183,0.31626 0.46057,0.191899 0.92127,0.413019 1.38183,0.662492 0.46057,0.249472 0.92075,0.479304 1.38131,0.690397 0.47975,0.191899 0.96918,0.287838 1.46813,0.287838 0.51813,0 1.04604,-0.162627 1.58336,-0.488859 0.55652,-0.345419 1.11315,-0.921552 1.66967,-1.727544 l -0.37414,-0.604097 c -0.3838,0.364612 -0.76807,0.623687 -1.15187,0.777214 -0.36461,0.134326 -0.71962,0.201021 -1.06505,0.201021 -0.47975,0 -0.94968,-0.09594 -1.41025,-0.287838 -0.44137,-0.211093 -0.88257,-0.440924 -1.32395,-0.690397 -0.44137,-0.249473 -0.89232,-0.470592 -1.35289,-0.662492 -0.46056,-0.211093 -0.93101,-0.31626 -1.41076,-0.31626 z"
           style="font-size:28.7853px;line-height:1.25;font-family:'PT Serif';-inkscape-font-specification:'PT Serif';baseline-shift:baseline;display:inline;overflow:visible;vector-effect:none;fill:#6c5a57;fill-opacity:0.952941;enable-background:accumulate;stop-color:#000000;stop-opacity:1"
           id="path135" />
      </g>
    </g>
  </g>
</svg>
