<?xml version="1.0" encoding="UTF-8" standalone="no"?>
<svg
   xmlns:dc="http://purl.org/dc/elements/1.1/"
   xmlns:cc="http://creativecommons.org/ns#"
   xmlns:rdf="http://www.w3.org/1999/02/22-rdf-syntax-ns#"
   xmlns:svg="http://www.w3.org/2000/svg"
   xmlns="http://www.w3.org/2000/svg"
   xmlns:sodipodi="http://sodipodi.sourceforge.net/DTD/sodipodi-0.dtd"
   xmlns:inkscape="http://www.inkscape.org/namespaces/inkscape"
   width="24mm"
   height="24mm"
   viewBox="0 0 24 24"
   version="1.1"
   id="svg1481"
   inkscape:version="1.0.1 (3bc2e813f5, 2020-09-07)"
   sodipodi:docname="guileless_bopomofo_keyboard-mode-switch-eng.svg">
  <defs
     id="defs1475" />
  <sodipodi:namedview
     id="base"
     pagecolor="#ffffff"
     bordercolor="#666666"
     borderopacity="1.0"
     inkscape:pageopacity="0.0"
     inkscape:pageshadow="2"
     inkscape:zoom="0.35"
     inkscape:cx="491.0686"
     inkscape:cy="351.06862"
     inkscape:document-units="mm"
     inkscape:current-layer="layer1"
     inkscape:document-rotation="0"
     showgrid="false"
     inkscape:window-width="1920"
     inkscape:window-height="1049"
     inkscape:window-x="1"
     inkscape:window-y="0"
     inkscape:window-maximized="1" />
  <metadata
     id="metadata1478">
    <rdf:RDF>
      <cc:Work
         rdf:about="">
        <dc:format>image/svg+xml</dc:format>
        <dc:type
           rdf:resource="http://purl.org/dc/dcmitype/StillImage" />
        <dc:title></dc:title>
      </cc:Work>
    </rdf:RDF>
  </metadata>
  <g
     inkscape:label="Layer 1"
     inkscape:groupmode="layer"
     id="layer1"
     transform="translate(24.095233,-55.279761)">
    <g
       id="g1456"
       transform="translate(-158.27695,-335.18902)">
      <rect
         style="fill:none;fill-opacity:0.6;stroke-width:0.0684293"
         id="rect233-7-8-4-1-1"
         width="24"
         height="24"
         x="134.18172"
         y="390.46878" />
      <g
         aria-label="Aa"
         id="text1252"
         style="font-weight:bold;font-size:14.9701px;line-height:1.25;font-family:MOESongUN;-inkscape-font-specification:'MOESongUN Bold';letter-spacing:0px;word-spacing:0px;fill:#6a5753;fill-opacity:1;stroke-width:0.350861"
         transform="matrix(1.442932,0,0,1.442932,-34.58778,-230.18501)">
        <g
           id="g1306"
           style="opacity:1">
          <path
             style="color:#000000;font-style:normal;font-variant:normal;font-weight:normal;font-stretch:normal;font-size:medium;line-height:1.25;font-family:'Source Code Pro';-inkscape-font-specification:'Source Code Pro';font-variant-ligatures:normal;font-variant-position:normal;font-variant-caps:normal;font-variant-numeric:normal;font-variant-alternates:normal;font-variant-east-asian:normal;font-feature-settings:normal;font-variation-settings:normal;text-indent:0;text-align:start;text-decoration:none;text-decoration-line:none;text-decoration-style:solid;text-decoration-color:#000000;letter-spacing:0px;word-spacing:0px;text-transform:none;writing-mode:lr-tb;direction:ltr;text-orientation:mixed;dominant-baseline:auto;baseline-shift:baseline;text-anchor:start;white-space:normal;shape-padding:0;shape-margin:0;inline-size:0;clip-rule:nonzero;display:inline;overflow:visible;visibility:visible;isolation:auto;mix-blend-mode:normal;color-interpolation:sRGB;color-interpolation-filters:linearRGB;solid-color:#000000;solid-opacity:1;vector-effect:none;fill:#6a5753;fill-opacity:1;fill-rule:nonzero;stroke:none;stroke-width:0.350861;stroke-linecap:butt;stroke-linejoin:miter;stroke-miterlimit:4;stroke-dasharray:none;stroke-dashoffset:0;stroke-opacity:1;color-rendering:auto;image-rendering:auto;shape-rendering:auto;text-rendering:auto;enable-background:accumulate;stop-color:#000000;stop-opacity:1"
             d="m 120.20167,437.77685 c 0.34431,-1.09282 0.65868,-2.17067 0.97306,-3.3084 h 0.0599 c 0.2994,1.13773 0.62874,2.21558 0.97305,3.3084 l 0.46408,1.49701 h -2.93414 z m -2.99402,5.49402 h 1.27246 l 0.94312,-2.99402 h 3.56288 l 0.92815,2.99402 h 1.31736 l -3.30839,-9.82038 h -1.40719 z"
             id="path1308" />
          <path
             style="color:#000000;font-style:normal;font-variant:normal;font-weight:normal;font-stretch:normal;font-size:medium;line-height:1.25;font-family:'Source Code Pro';-inkscape-font-specification:'Source Code Pro';font-variant-ligatures:normal;font-variant-position:normal;font-variant-caps:normal;font-variant-numeric:normal;font-variant-alternates:normal;font-variant-east-asian:normal;font-feature-settings:normal;font-variation-settings:normal;text-indent:0;text-align:start;text-decoration:none;text-decoration-line:none;text-decoration-style:solid;text-decoration-color:#000000;letter-spacing:0px;word-spacing:0px;text-transform:none;writing-mode:lr-tb;direction:ltr;text-orientation:mixed;dominant-baseline:auto;baseline-shift:baseline;text-anchor:start;white-space:normal;shape-padding:0;shape-margin:0;inline-size:0;clip-rule:nonzero;display:inline;overflow:visible;visibility:visible;isolation:auto;mix-blend-mode:normal;color-interpolation:sRGB;color-interpolation-filters:linearRGB;solid-color:#000000;solid-opacity:1;vector-effect:none;fill-opacity:1;fill-rule:nonzero;stroke:none;stroke-width:0.350861;stroke-linecap:butt;stroke-linejoin:miter;stroke-miterlimit:4;stroke-dasharray:none;stroke-dashoffset:0;stroke-opacity:1;color-rendering:auto;image-rendering:auto;shape-rendering:auto;text-rendering:auto;enable-background:accumulate;stop-color:#000000;stop-opacity:1"
             d="m 120.39062,433.27539 -3.42773,10.17188 h 0.24414 1.40235 l 0.94335,-2.99415 h 3.30469 l 0.92774,2.99415 h 1.6914 l -3.42773,-10.17188 z m 0.25196,0.34961 h 1.1543 l 3.18945,9.4707 h -0.94336 l -0.92774,-2.99414 h -3.82031 l -0.94336,2.99414 h -0.90039 z m 0.39844,0.66797 -0.0352,0.12891 c -0.31396,1.1362 -0.62713,2.21225 -0.9707,3.30273 h -0.002 l -0.5332,1.72461 h 3.41016 l -0.53516,-1.72461 c -0.34401,-1.09187 -0.67242,-2.1673 -0.9707,-3.30078 l -0.0352,-0.13086 z m 0.16406,0.69531 c 0.26451,0.96475 0.54067,1.90463 0.83594,2.8418 l 0.39257,1.26758 h -2.45898 l 0.39453,-1.26758 c 0.29585,-0.93902 0.56546,-1.87817 0.83594,-2.8418 z"
             id="path1310" />
        </g>
        <g
           id="g1312"
           style="opacity:1">
          <path
             style="color:#000000;font-style:normal;font-variant:normal;font-weight:normal;font-stretch:normal;font-size:medium;line-height:1.25;font-family:'Source Code Pro';-inkscape-font-specification:'Source Code Pro';font-variant-ligatures:normal;font-variant-position:normal;font-variant-caps:normal;font-variant-numeric:normal;font-variant-alternates:normal;font-variant-east-asian:normal;font-feature-settings:normal;font-variation-settings:normal;text-indent:0;text-align:start;text-decoration:none;text-decoration-line:none;text-decoration-style:solid;text-decoration-color:#000000;letter-spacing:0px;word-spacing:0px;text-transform:none;writing-mode:lr-tb;direction:ltr;text-orientation:mixed;dominant-baseline:auto;baseline-shift:baseline;text-anchor:start;white-space:normal;shape-padding:0;shape-margin:0;inline-size:0;clip-rule:nonzero;display:inline;overflow:visible;visibility:visible;isolation:auto;mix-blend-mode:normal;color-interpolation:sRGB;color-interpolation-filters:linearRGB;solid-color:#000000;solid-opacity:1;vector-effect:none;fill:#6a5753;fill-opacity:1;fill-rule:nonzero;stroke:none;stroke-width:0.350861;stroke-linecap:butt;stroke-linejoin:miter;stroke-miterlimit:4;stroke-dasharray:none;stroke-dashoffset:0;stroke-opacity:1;color-rendering:auto;image-rendering:auto;shape-rendering:auto;text-rendering:auto;enable-background:accumulate;stop-color:#000000;stop-opacity:1"
             d="m 129.39329,443.45052 c 1.03294,0 2.06587,-0.53893 2.87426,-1.16767 h 0.0449 l 0.10479,0.98802 h 1.003 v -4.46109 c 0,-1.81138 -0.95809,-2.99402 -2.94911,-2.99402 -1.27246,0 -2.50001,0.56887 -3.23355,1.04791 l 0.47905,0.83833 c 0.67365,-0.41917 1.6018,-0.86827 2.54492,-0.86827 1.40718,0 1.9012,0.83833 1.93114,1.82635 -3.7575,0.29941 -5.26948,1.09282 -5.26948,2.72456 0,1.3024 1.10779,2.06588 2.47007,2.06588 z m 0.32934,-0.98803 c -0.83832,0 -1.6018,-0.34431 -1.6018,-1.16767 0,-0.95809 0.95809,-1.57186 4.07187,-1.82635 v 1.91617 c -0.82336,0.68863 -1.64671,1.07785 -2.47007,1.07785 z"
             id="path1314" />
          <path
             style="color:#000000;font-style:normal;font-variant:normal;font-weight:normal;font-stretch:normal;font-size:medium;line-height:1.25;font-family:'Source Code Pro';-inkscape-font-specification:'Source Code Pro';font-variant-ligatures:normal;font-variant-position:normal;font-variant-caps:normal;font-variant-numeric:normal;font-variant-alternates:normal;font-variant-east-asian:normal;font-feature-settings:normal;font-variation-settings:normal;text-indent:0;text-align:start;text-decoration:none;text-decoration-line:none;text-decoration-style:solid;text-decoration-color:#000000;letter-spacing:0px;word-spacing:0px;text-transform:none;writing-mode:lr-tb;direction:ltr;text-orientation:mixed;dominant-baseline:auto;baseline-shift:baseline;text-anchor:start;white-space:normal;shape-padding:0;shape-margin:0;inline-size:0;clip-rule:nonzero;display:inline;overflow:visible;visibility:visible;isolation:auto;mix-blend-mode:normal;color-interpolation:sRGB;color-interpolation-filters:linearRGB;solid-color:#000000;solid-opacity:1;vector-effect:none;fill-opacity:1;fill-rule:nonzero;stroke:none;stroke-width:0.350861;stroke-linecap:butt;stroke-linejoin:miter;stroke-miterlimit:4;stroke-dasharray:none;stroke-dashoffset:0;stroke-opacity:1;color-rendering:auto;image-rendering:auto;shape-rendering:auto;text-rendering:auto;enable-background:accumulate;stop-color:#000000;stop-opacity:1"
             d="m 130.4707,435.64062 c -1.32474,0 -2.5728,0.58291 -3.32812,1.07618 l -0.13867,0.0898 0.65039,1.14063 0.15429,-0.0957 c 0.66001,-0.41068 1.5657,-0.84179 2.45313,-0.84179 0.66875,0 1.0852,0.1917 1.35156,0.48437 0.23531,0.25855 0.3221,0.63519 0.35742,1.03516 -1.73981,0.15467 -3.06018,0.401 -3.90234,0.83789 -0.88727,0.46028 -1.32031,1.14752 -1.32031,2.01758 0,0.70093 0.30624,1.27484 0.79101,1.6582 0.48477,0.38335 1.13961,0.58203 1.85352,0.58203 1.01083,0 1.9754,-0.49382 2.77148,-1.07422 l 0.0957,0.89649 h 1.33593 v -4.63672 c 0,-0.93662 -0.24939,-1.7346 -0.77539,-2.29688 -0.526,-0.56227 -1.31936,-0.87305 -2.34961,-0.87305 z m 0,0.34961 c 0.96078,0 1.64295,0.28179 2.09375,0.76368 0.4508,0.48189 0.67969,1.18188 0.67969,2.05664 v 4.28515 h -0.66992 l -0.10352,-0.98828 h -0.26367 l -0.0469,0.0371 c -0.78958,0.61411 -1.79566,1.13086 -2.76758,1.13086 -0.64837,0 -1.22702,-0.18383 -1.63672,-0.50781 -0.4097,-0.32399 -0.65625,-0.78135 -0.65625,-1.38281 0,-0.76169 0.32276,-1.28782 1.13086,-1.70704 0.8081,-0.41921 2.10818,-0.69487 3.97656,-0.84375 l 0.16602,-0.0117 -0.006,-0.16797 c -0.0158,-0.52171 -0.15421,-1.02299 -0.49414,-1.39649 -0.33993,-0.3735 -0.8729,-0.59961 -1.61133,-0.59961 -0.93216,0 -1.78945,0.43206 -2.46289,0.83399 l -0.31641,-0.55664 c 0.72246,-0.44712 1.83397,-0.94532 2.98828,-0.94532 z m 1.89649,3.28711 -0.18946,0.0156 c -1.56684,0.12806 -2.59938,0.34281 -3.26562,0.66601 -0.66624,0.32321 -0.9668,0.79842 -0.9668,1.33594 0,0.46591 0.2325,0.82632 0.56836,1.04102 0.33586,0.21469 0.76581,0.30273 1.20899,0.30273 0.87864,0 1.73947,-0.41445 2.58203,-1.11914 l 0.0625,-0.0527 z m -0.34961,0.4043 v 1.5957 c -0.78189,0.63883 -1.5472,1.00977 -2.29492,1.00977 -0.39515,0 -0.76603,-0.0847 -1.02149,-0.24805 -0.25546,-0.1633 -0.40429,-0.38668 -0.40429,-0.74414 0,-0.42057 0.17828,-0.7327 0.76953,-1.01953 0.55555,-0.26951 1.55889,-0.46453 2.95117,-0.59375 z"
             id="path1316" />
        </g>
      </g>
    </g>
  </g>
</svg>
