<?xml version="1.0" encoding="UTF-8" standalone="no"?>
<svg
   xmlns:dc="http://purl.org/dc/elements/1.1/"
   xmlns:cc="http://creativecommons.org/ns#"
   xmlns:rdf="http://www.w3.org/1999/02/22-rdf-syntax-ns#"
   xmlns:svg="http://www.w3.org/2000/svg"
   xmlns="http://www.w3.org/2000/svg"
   xmlns:sodipodi="http://sodipodi.sourceforge.net/DTD/sodipodi-0.dtd"
   xmlns:inkscape="http://www.inkscape.org/namespaces/inkscape"
   width="24mm"
   height="24mm"
   viewBox="0 0 24 24"
   version="1.1"
   id="svg825"
   inkscape:version="1.0.1 (3bc2e813f5, 2020-09-07)"
   sodipodi:docname="guileless_bopomofo_keyboard-q.svg">
  <defs
     id="defs819" />
  <sodipodi:namedview
     id="base"
     pagecolor="#ffffff"
     bordercolor="#666666"
     borderopacity="1.0"
     inkscape:pageopacity="0.0"
     inkscape:pageshadow="2"
     inkscape:zoom="0.35"
     inkscape:cx="188.21147"
     inkscape:cy="408.21147"
     inkscape:document-units="mm"
     inkscape:current-layer="layer1"
     inkscape:document-rotation="0"
     showgrid="false"
     inkscape:window-width="1920"
     inkscape:window-height="1017"
     inkscape:window-x="0"
     inkscape:window-y="1080"
     inkscape:window-maximized="1" />
  <metadata
     id="metadata822">
    <rdf:RDF>
      <cc:Work
         rdf:about="">
        <dc:format>image/svg+xml</dc:format>
        <dc:type
           rdf:resource="http://purl.org/dc/dcmitype/StillImage" />
        <dc:title></dc:title>
      </cc:Work>
    </rdf:RDF>
  </metadata>
  <g
     inkscape:label="Layer 1"
     inkscape:groupmode="layer"
     id="layer1"
     transform="translate(-56.035714,-40.160714)">
    <g
       id="g3826"
       transform="matrix(0.82109133,0,0,0.82109133,15.310284,-54.642139)">
      <rect
         style="fill:none;fill-opacity:0.6;stroke-width:0.0833395"
         id="rect233-6-1"
         width="29.229391"
         height="29.229391"
         x="49.599148"
         y="115.45957" />
      <path
         d="m 62.716413,127.32901 -1.23977,1.3364 q -1.56182,1.70673 -1.56182,2.44739 0,0.64404 1.41691,1.70672 0.49911,0.37033 2.65668,2.02876 2.84993,2.18976 4.15412,3.44565 2.20588,2.10926 2.20588,4.21852 0,1.56182 -1.11099,1.56182 -0.56356,0 -1.1593,-0.74066 -0.28977,-0.37033 -1.46519,-2.04485 -1.59404,-2.25417 -4.21853,-4.92697 -2.56008,-2.5923 -4.00921,-3.54227 -0.82116,-0.53134 -0.82116,-1.69062 0,-0.85337 0.69237,-1.272 1.5296,-0.96607 4.99135,-5.3939 3.70329,-4.74986 4.70158,-7.43876 0.35421,-0.94997 0.74063,-0.94997 0.54746,0 1.36862,0.96607 0.80507,0.96607 0.80507,1.86774 0,0.33812 -0.2737,0.53134 -0.0482,0.0322 -0.57965,0.33813 -1.0949,0.59574 -2.64059,2.41518 -0.85338,1.01437 -3.30077,3.67107 z"
         style="font-weight:bold;font-size:11.2889px;line-height:1.25;font-family:MOESongUN;-inkscape-font-specification:'MOESongUN Bold';letter-spacing:0px;word-spacing:0px;fill:#6a5753;fill-opacity:1;stroke-width:0.772856"
         id="path578-4" />
    </g>
  </g>
</svg>
