<?xml version="1.0" encoding="UTF-8" standalone="no"?>
<svg
   xmlns:dc="http://purl.org/dc/elements/1.1/"
   xmlns:cc="http://creativecommons.org/ns#"
   xmlns:rdf="http://www.w3.org/1999/02/22-rdf-syntax-ns#"
   xmlns:svg="http://www.w3.org/2000/svg"
   xmlns="http://www.w3.org/2000/svg"
   xmlns:sodipodi="http://sodipodi.sourceforge.net/DTD/sodipodi-0.dtd"
   xmlns:inkscape="http://www.inkscape.org/namespaces/inkscape"
   width="24mm"
   height="24mm"
   viewBox="0 0 24 24"
   version="1.1"
   id="svg935"
   inkscape:version="1.0.1 (3bc2e813f5, 2020-09-07)"
   sodipodi:docname="guileless_bopomofo_keyboard-shi.svg">
  <defs
     id="defs929" />
  <sodipodi:namedview
     id="base"
     pagecolor="#ffffff"
     bordercolor="#666666"
     borderopacity="1.0"
     inkscape:pageopacity="0.0"
     inkscape:pageshadow="2"
     inkscape:zoom="0.35"
     inkscape:cx="365.35433"
     inkscape:cy="-34.645671"
     inkscape:document-units="mm"
     inkscape:current-layer="layer1"
     inkscape:document-rotation="0"
     showgrid="false"
     inkscape:window-width="1920"
     inkscape:window-height="1017"
     inkscape:window-x="0"
     inkscape:window-y="1080"
     inkscape:window-maximized="1" />
  <metadata
     id="metadata932">
    <rdf:RDF>
      <cc:Work
         rdf:about="">
        <dc:format>image/svg+xml</dc:format>
        <dc:type
           rdf:resource="http://purl.org/dc/dcmitype/StillImage" />
        <dc:title></dc:title>
      </cc:Work>
    </rdf:RDF>
  </metadata>
  <g
     inkscape:label="Layer 1"
     inkscape:groupmode="layer"
     id="layer1"
     transform="translate(-9.1666666,-157.33333)">
    <g
       id="g4016"
       transform="matrix(0.82109133,0,0,0.82109133,-65.269417,32.272076)">
      <rect
         style="fill:none;fill-opacity:0.6;stroke-width:0.0833395"
         id="rect233-3-23"
         width="29.229391"
         height="29.229391"
         x="90.65506"
         y="152.31102" />
      <path
         d="m 101.3296,164.86216 q -0.56926,5.35452 -1.618825,8.14741 -1.01397,2.72173 -2.93522,4.98095 -1.49428,1.7967 -2.72173,2.57942 l -0.42694,0.28461 q -0.10682,0.0712 -0.26689,0.0712 -0.16007,0 -0.16007,-0.10672 0,-0.16011 0.17782,-0.37357 l 0.37359,-0.44473 q 2.0991,-2.50826 3.41549,-6.65313 1.17407,-3.77129 1.17407,-6.59976 0,-2.20584 -0.67597,-3.82465 -0.0713,-0.17789 -0.0713,-0.338 0,-0.53367 0.71158,-0.53367 0.56925,0 3.024165,0.58704 l 11.27826,-1.2986 q 1.014,-4.2516 1.014,-4.67854 0,-0.72935 -0.96062,-0.72935 -1.56544,0 -5.79924,0.35578 -2.84627,0.23127 -4.2516,0.46252 l -0.81831,0.12454 q -0.8183,0.14232 -1.08513,0.14232 -0.711575,0 -1.636605,-0.99619 -0.87165,-0.94283 -0.87165,-1.42313 0,-0.21348 0.28465,-0.21348 0.0713,0 0.48031,0.0712 1.067355,0.17788 1.565445,0.17788 0.30239,0 0.90724,-0.0356 0.33799,-0.0178 1.38756,-0.0356 1.35196,-0.0356 4.78527,-0.37357 4.02034,-0.67599 5.42568,-0.99619 1.45868,-0.26683 1.63657,-0.26683 0.92506,0 2.1347,1.38755 0.53369,0.60483 0.53369,0.96061 0,0.23127 -0.28465,0.69378 -0.64038,1.06734 -1.22745,2.81067 -0.58704,1.6366 -0.92502,2.70395 0.8183,0.76493 0.8183,1.17408 0,0.44473 -0.71155,0.58704 -0.49812,0.0889 -3.45109,0.33799 -7.29355,0.60483 -10.22873,1.28082 z"
         style="font-weight:bold;font-size:11.2889px;line-height:1.25;font-family:MOESongUN;-inkscape-font-specification:'MOESongUN Bold';letter-spacing:0px;word-spacing:0px;fill:#6a5753;fill-opacity:1;stroke-width:0.853875"
         id="path586-2" />
    </g>
  </g>
</svg>
