<?xml version="1.0" encoding="UTF-8" standalone="no"?>
<svg
   xmlns:dc="http://purl.org/dc/elements/1.1/"
   xmlns:cc="http://creativecommons.org/ns#"
   xmlns:rdf="http://www.w3.org/1999/02/22-rdf-syntax-ns#"
   xmlns:svg="http://www.w3.org/2000/svg"
   xmlns="http://www.w3.org/2000/svg"
   xmlns:sodipodi="http://sodipodi.sourceforge.net/DTD/sodipodi-0.dtd"
   xmlns:inkscape="http://www.inkscape.org/namespaces/inkscape"
   width="24mm"
   height="24mm"
   viewBox="0 0 24 24"
   version="1.1"
   id="svg12856"
   inkscape:version="1.0.2 (e86c870879, 2021-01-15, custom)"
   sodipodi:docname="guileless_bopomofo_keyboard-eten26-qwerty-g.svg">
  <defs
     id="defs12850" />
  <sodipodi:namedview
     id="base"
     pagecolor="#ffffff"
     bordercolor="#666666"
     borderopacity="1.0"
     inkscape:pageopacity="0.0"
     inkscape:pageshadow="2"
     inkscape:zoom="0.35"
     inkscape:cx="-363.21711"
     inkscape:cy="113.92576"
     inkscape:document-units="mm"
     inkscape:current-layer="layer1"
     inkscape:document-rotation="0"
     showgrid="false"
     inkscape:window-width="1920"
     inkscape:window-height="1049"
     inkscape:window-x="1"
     inkscape:window-y="0"
     inkscape:window-maximized="1" />
  <metadata
     id="metadata12853">
    <rdf:RDF>
      <cc:Work
         rdf:about="">
        <dc:format>image/svg+xml</dc:format>
        <dc:type
           rdf:resource="http://purl.org/dc/dcmitype/StillImage" />
        <dc:title></dc:title>
      </cc:Work>
    </rdf:RDF>
  </metadata>
  <g
     inkscape:label="Layer 1"
     inkscape:groupmode="layer"
     id="layer1"
     transform="translate(-201.93453,-118.02381)">
    <g
       id="g3248"
       transform="translate(-278.61961,-2.9886569)">
      <rect
         style="fill:none;stroke:none;stroke-width:0.0833333"
         id="rect10-28-6"
         width="20"
         height="20"
         x="484.55414"
         y="125.01247" />
      <g
         id="g1079-3-3"
         style="font-weight:bold;font-size:11.2889px;line-height:1.25;font-family:MOESongUN;-inkscape-font-specification:'MOESongUN Bold';letter-spacing:0px;word-spacing:0px;fill:#6c5a57;fill-opacity:0.952941;stroke-width:0.264583"
         transform="matrix(1.3643971,0,0,1.3643971,442.50582,145.10156)">
        <path
           style="color:#000000;font-style:normal;font-variant:normal;font-weight:normal;font-stretch:normal;font-size:medium;line-height:1.25;font-family:'Noto Sans';-inkscape-font-specification:'Noto Sans';font-variant-ligatures:normal;font-variant-position:normal;font-variant-caps:normal;font-variant-numeric:normal;font-variant-alternates:normal;font-variant-east-asian:normal;font-feature-settings:normal;font-variation-settings:normal;text-indent:0;text-align:start;text-decoration:none;text-decoration-line:none;text-decoration-style:solid;text-decoration-color:#000000;letter-spacing:0px;word-spacing:0px;text-transform:none;writing-mode:lr-tb;direction:ltr;text-orientation:mixed;dominant-baseline:auto;baseline-shift:baseline;text-anchor:start;white-space:normal;shape-padding:0;shape-margin:0;inline-size:0;clip-rule:nonzero;display:inline;overflow:visible;visibility:visible;isolation:auto;mix-blend-mode:normal;color-interpolation:sRGB;color-interpolation-filters:linearRGB;solid-color:#000000;solid-opacity:1;vector-effect:none;fill:#6c5a57;fill-opacity:0.952941;fill-rule:nonzero;stroke:none;stroke-width:0.264583;stroke-linecap:butt;stroke-linejoin:miter;stroke-miterlimit:4;stroke-dasharray:none;stroke-dashoffset:0;stroke-opacity:1;color-rendering:auto;image-rendering:auto;shape-rendering:auto;text-rendering:auto;enable-background:accumulate;stop-color:#000000;stop-opacity:1"
           d="m 38.706575,-7.6200235 h 2.788359 v 3.9511151 c -0.436505,0.1429927 -0.876772,0.2483558 -1.320802,0.3160892 -0.44403,0.067733 -0.948267,0.1016001 -1.512712,0.1016001 -0.835379,0 -1.539054,-0.1655705 -2.111025,-0.4967116 -0.571971,-0.338667 -1.008475,-0.8165638 -1.309512,-1.4336903 -0.293511,-0.6246525 -0.440267,-1.362194 -0.440267,-2.2126245 0,-0.8429046 0.16557,-1.5729202 0.496711,-2.1900467 0.331141,-0.6171268 0.805275,-1.0950238 1.422402,-1.4336908 0.624653,-0.346193 1.377246,-0.519289 2.25778,-0.519289 0.451556,0 0.876771,0.04139 1.275646,0.124178 0.4064,0.08278 0.782697,0.199437 1.12889,0.349956 l -0.383823,0.880534 c -0.285985,-0.127941 -0.6096,-0.237067 -0.970845,-0.327378 -0.353719,-0.09031 -0.72249,-0.135467 -1.106313,-0.135467 -0.963319,0 -1.715913,0.289749 -2.25778,0.8692455 -0.534341,0.5794969 -0.801512,1.3734829 -0.801512,2.381958 0,0.6397043 0.1016,1.2079123 0.304801,1.7046239 0.210726,0.4891857 0.538104,0.8730084 0.982134,1.1514679 0.44403,0.2709336 1.02729,0.4064004 1.74978,0.4064004 0.353719,0 0.654756,-0.018815 0.903112,-0.056445 0.248355,-0.037629 0.474133,-0.082785 0.677334,-0.1354668 V -6.716912 h -1.772358 z"
           id="path1081-6-7" />
        <path
           style="color:#000000;font-style:normal;font-variant:normal;font-weight:normal;font-stretch:normal;font-size:medium;line-height:1.25;font-family:'Noto Sans';-inkscape-font-specification:'Noto Sans';font-variant-ligatures:normal;font-variant-position:normal;font-variant-caps:normal;font-variant-numeric:normal;font-variant-alternates:normal;font-variant-east-asian:normal;font-feature-settings:normal;font-variation-settings:normal;text-indent:0;text-align:start;text-decoration:none;text-decoration-line:none;text-decoration-style:solid;text-decoration-color:#000000;letter-spacing:0px;word-spacing:0px;text-transform:none;writing-mode:lr-tb;direction:ltr;text-orientation:mixed;dominant-baseline:auto;baseline-shift:baseline;text-anchor:start;white-space:normal;shape-padding:0;shape-margin:0;inline-size:0;clip-rule:nonzero;display:inline;overflow:visible;visibility:visible;isolation:auto;mix-blend-mode:normal;color-interpolation:sRGB;color-interpolation-filters:linearRGB;solid-color:#000000;solid-opacity:1;vector-effect:none;fill:#6c5a57;fill-opacity:0.952941;fill-rule:nonzero;stroke:none;stroke-width:0.264583;stroke-linecap:butt;stroke-linejoin:miter;stroke-miterlimit:4;stroke-dasharray:none;stroke-dashoffset:0;stroke-opacity:1;color-rendering:auto;image-rendering:auto;shape-rendering:auto;text-rendering:auto;enable-background:accumulate;stop-color:#000000;stop-opacity:1"
           d="m 38.976562,-11.669922 c -0.897871,0 -1.672607,0.178141 -2.320312,0.53711 -0.637476,0.350135 -1.132273,0.848338 -1.474609,1.4863276 -0.343006,0.6392381 -0.513672,1.3917247 -0.513672,2.2519532 0,0.8656498 0.149786,1.6239646 0.453125,2.2695312 v 0.00195 c 0.311331,0.6382287 0.7678,1.13685 1.361328,1.4882813 l 0.002,0.00195 c 0.59614,0.3451333 1.324876,0.5136719 2.177734,0.5136719 0.569737,0 1.07896,-0.034522 1.53125,-0.1035156 0.451361,-0.068852 0.898554,-0.1751123 1.341797,-0.3203126 l 0.0918,-0.029297 v -4.1796875 h -3.052734 v 0.1328125 1.0351562 h 1.771484 v 2.1523438 c -0.174245,0.041843 -0.356517,0.081776 -0.564453,0.1132812 -0.239159,0.036237 -0.533785,0.054687 -0.882812,0.054687 -0.705175,0 -1.26304,-0.1329507 -1.679688,-0.3867187 -0.421659,-0.2644305 -0.728688,-0.6245911 -0.929688,-1.0898438 -0.195664,-0.4782911 -0.294921,-1.0285999 -0.294921,-1.6542968 0,-0.9843553 0.257982,-1.7397444 0.765625,-2.2910157 0.515156,-0.5509312 1.225317,-0.8281252 2.162109,-0.8281252 0.373447,0 0.729659,0.04534 1.072266,0.132813 h 0.002 c 0.354953,0.08874 0.669642,0.194159 0.947265,0.318359 l 0.123047,0.05469 0.490235,-1.123047 -0.121094,-0.05274 c -0.355419,-0.15453 -0.741683,-0.274926 -1.15625,-0.359375 -0.408601,-0.0848 -0.843094,-0.126953 -1.302735,-0.126953 z m 0,0.265625 c 0.443472,0 0.860852,0.04033 1.25,0.121094 0.352446,0.07179 0.672151,0.179689 0.976563,0.302734 l -0.277344,0.634766 c -0.264362,-0.110131 -0.545401,-0.212923 -0.865234,-0.292969 h -0.002 c -0.364267,-0.09283 -0.743187,-0.138672 -1.136719,-0.138672 -0.989847,0 -1.78689,0.302093 -2.355469,0.9101565 v 0.00195 c -0.560266,0.607613 -0.83789,1.4388631 -0.83789,2.4707032 0,0.6537117 0.10567,1.2407272 0.316406,1.7558593 v 0.00195 c 0.220475,0.5118166 0.567613,0.9189572 1.033203,1.2109376 h 0.002 C 37.551342,-4.1382306 38.159411,-4 38.898438,-4 c 0.358409,0 0.666274,-0.017617 0.923828,-0.056641 0.252112,-0.038199 0.480985,-0.084624 0.689453,-0.1386719 l 0.09961,-0.025391 V -6.8496102 H 38.837892 V -7.488282 h 2.52539 v 3.7148437 c -0.400468,0.1262623 -0.802493,0.2270553 -1.208984,0.2890625 -0.435769,0.066473 -0.933035,0.1015625 -1.492188,0.1015625 -0.817898,0 -1.497119,-0.1633199 -2.044921,-0.4804687 -0.548968,-0.3253696 -0.965399,-0.7807308 -1.25586,-1.375 -0.283684,-0.6037386 -0.427734,-1.321039 -0.427734,-2.15625 0,-0.8255808 0.161193,-1.5319381 0.480468,-2.1269532 0.31972,-0.5958408 0.772976,-1.0536958 1.369141,-1.3808598 0.601601,-0.333417 1.330163,-0.501953 2.193359,-0.501953 z"
           id="path1083-0-7" />
      </g>
      <rect
         style="fill:none;fill-opacity:0.6;stroke-width:0.0684293"
         id="rect233-7-6-9-1-37"
         width="24"
         height="24"
         x="480.55414"
         y="121.01247" />
      <g
         id="g3806-5-9"
         transform="matrix(0.27369702,0,0,0.27369702,478.06822,89.411526)">
        <rect
           style="fill:none;fill-opacity:0.6;stroke-width:0.0833395"
           id="rect233-2-99-0"
           width="29.229391"
           height="29.229391"
           x="9.0827417"
           y="115.45957" />
        <path
           d="m 28.956612,130.47334 v -2.41049 l -0.0799,-3.46408 q -0.11179,-4.45382 -0.36716,-5.9065 -0.14365,-0.8301 -0.5747,-2.0114 -0.0318,-0.0798 -0.0318,-0.19155 0,-0.41505 0.5587,-0.41505 1.21325,0 2.61804,1.30901 0.5587,0.52679 0.5587,0.90992 0,0.17558 -0.31926,0.67046 -0.31929,0.51084 -0.3033,2.15508 l 0.0959,8.97149 0.0174,1.32498 q 0,9.49828 -0.25543,11.17445 -0.2395,1.48461 -0.90994,1.48461 -0.49485,0 -1.03763,-0.62258 -0.87796,-1.0057 -0.87796,-2.02737 0,-0.20753 0.12771,-0.75028 0.35121,-1.5325 0.52679,-4.0707 0.0799,-0.90992 0.25544,-4.59748 -0.81414,0.44697 -2.50628,1.42075 -0.47892,0.27139 -3.496,1.91562 l -1.05361,0.57468 q -1.16532,0.67047 -1.34093,0.78222 -0.51084,0.33523 -0.73433,0.33523 -0.94182,0 -2.20294,-1.48461 -0.43102,-0.51083 -0.43102,-0.97377 0,-0.19157 0.0959,-0.67047 0.33525,-1.62828 0.33525,-3.00114 0,-1.74002 -0.23951,-5.31585 -0.20764,-3.25655 -1.40478,-5.3797 -0.22358,-0.41505 -0.22358,-0.57469 0,-0.43101 0.52679,-0.43101 0.9738,0 2.72977,0.97377 1.2771,0.70239 1.2771,1.26112 0,0.17559 -0.12772,0.49487 -0.39908,1.05359 -0.38312,2.187 l 0.12772,8.46066 q 0.0174,1.58039 0.63855,1.54846 0.55873,-0.0319 4.6773,-1.85177 1.74004,-0.75028 3.73548,-1.80387 z"
           style="font-weight:bold;font-size:11.2889px;line-height:1.25;font-family:MOESongUN;-inkscape-font-specification:'MOESongUN Bold';letter-spacing:0px;word-spacing:0px;fill:#6a5753;fill-opacity:1;stroke-width:0.766247"
           id="path576-7-07-8" />
      </g>
      <g
         id="g3866-6-3"
         transform="matrix(0.27369702,0,0,0.27369702,477.92056,87.325386)">
        <rect
           style="fill:none;fill-opacity:0.6;stroke-width:0.0833395"
           id="rect233-20-3-8"
           width="29.229391"
           height="29.229391"
           x="9.6222563"
           y="152.31102" />
        <path
           d="m 24.556177,176.94918 2.18889,-0.18241 q 5.03454,-0.4013 7.64301,-0.78436 0.47428,-0.073 0.69315,-0.073 0.62018,0 1.40457,0.76612 1.02149,1.0215 1.02149,1.84234 0,0.45603 -0.52898,0.45603 -0.16413,0 -1.02152,-0.16417 -1.55048,-0.27361 -3.00975,-0.27361 -2.99155,0 -7.3329,0.38306 -6.29313,0.54723 -10.26967,1.7329 -0.87559,0.2736 -1.09446,0.2736 -0.40131,0 -1.29514,-0.47426 -0.87555,-0.47426 -1.49574,-1.03974 -0.49251,-0.45602 -0.49251,-0.83908 0,-0.23714 0.36481,-0.23714 0.12774,0 0.76612,0.073 0.25547,0.0182 0.72965,0.0182 0.56545,0 2.48077,-0.20064 l 1.58697,-0.23714 5.38112,-0.8026 q 0.0546,-2.15244 0.14593,-5.36286 l 0.0364,-1.58697 0.0199,-0.51075 q -3.75767,0.45603 -5.23517,1.00326 -0.54722,0.20064 -0.98503,0.20064 -0.82082,0 -1.84232,-1.13095 -0.67491,-0.74788 -0.67491,-1.1127 0,-0.29184 0.14593,-0.67492 0.23728,-0.63843 0.23728,-1.45928 0,-6.1837 -1.05797,-8.75568 -0.21874,-0.52899 -0.21874,-0.65668 0,-0.56547 0.83909,-0.56547 0.72965,0 1.82408,0.56547 0.98503,0.49251 0.98503,1.03974 v 0.073 q 0,0.1277 -0.10954,0.51075 -0.21874,0.82084 -0.21874,2.02475 0,3.73941 0.29188,6.1837 0.16414,1.27687 0.94852,1.27687 0.23728,0 0.71139,-0.073 l 4.32315,-0.62019 v -6.74918 q 0,-4.4508 -0.74789,-6.63972 -0.23727,-0.72965 -0.23727,-0.85733 0,-0.38306 0.41954,-0.38306 1.1127,0 2.73614,1.2039 0.94853,0.7114 0.94853,1.24039 0,0.21891 -0.21874,0.74788 -0.49251,1.16743 -0.54725,4.88859 l -0.10953,6.3114 3.06448,-0.27361 q 3.06451,-0.27361 3.53876,-1.00325 0.29187,-0.47427 0.62022,-3.08274 0.34657,-2.71791 0.34657,-4.14071 0,-1.65993 -0.14594,-2.17068 -0.14593,-0.51075 -0.14593,-0.69316 0,-0.34658 0.45604,-0.34658 0.93029,0 2.04299,0.89381 0.91206,0.72964 0.91206,1.36808 0,0.32834 -0.34661,1.0215 -1.00323,2.11595 -1.14917,5.72767 l -0.0731,1.86059 q -0.0913,2.17068 -1.84235,2.35309 l -4.85209,0.38306 -2.42607,0.25537 z"
           style="font-weight:bold;font-size:11.2889px;line-height:1.25;font-family:MOESongUN;-inkscape-font-specification:'MOESongUN Bold';letter-spacing:0px;word-spacing:0px;fill:#6a5753;fill-opacity:1;stroke-width:0.875567"
           id="path582-9-7-7" />
      </g>
    </g>
  </g>
</svg>
